<svg width="45" height="53" viewBox="0 0 45 53" fill="none" xmlns="http://www.w3.org/2000/svg">
<path d="M5.075 48.81C4.905 48.6967 4.82 48.47 4.82 48.13C4.82 46.9967 5.55667 44.7583 7.03 41.415C8.50333 38.015 10.77 33.7083 13.83 28.495C14.2267 27.815 15.19 26.03 16.72 23.14C18.25 20.1933 19.44 17.8133 20.29 16C21.1967 14.13 21.7633 12.7133 21.99 11.75C22.1033 10.6733 21.9333 9.68167 21.48 8.775C21.0267 7.86833 20.4033 7.415 19.61 7.415C18.9867 7.415 18.3633 7.64166 17.74 8.095C17.1733 8.605 16.21 9.82333 14.85 11.75L13.49 13.62L12.215 15.065C10.685 16.765 9.35333 18.0967 8.22 19.06C7.14333 20.0233 6.12333 20.505 5.16 20.505C4.76333 20.505 4.33833 20.3633 3.885 20.08C1.61833 18.6633 0.485 17.1333 0.485 15.49C0.485 13.7333 1.335 11.92 3.035 10.05C4.735 8.12333 6.71833 6.42333 8.985 4.95C11.3083 3.47666 13.2067 2.485 14.68 1.975C16.7767 1.23833 18.7033 0.869999 20.46 0.869999C22.6133 0.869999 24.54 1.32333 26.24 2.23C27.94 3.13667 29.2433 4.32667 30.15 5.8C31.1133 7.21666 31.595 8.74666 31.595 10.39C31.595 11.6367 31.255 12.9117 30.575 14.215C29.2717 16.7083 28.5067 18.1817 28.28 18.635C23.5767 28.0983 18.7317 37.4483 13.745 46.685C17.485 46.4583 20.8283 46.09 23.775 45.58C26.7783 45.07 30.0083 44.22 33.465 43.03C33.8617 42.86 34.9667 42.4067 36.78 41.67C38.5933 40.8767 40.2083 40.48 41.625 40.48C42.815 40.48 43.6083 40.8767 44.005 41.67C44.1183 42.0667 44.175 42.3217 44.175 42.435C44.175 43.965 42.475 45.5517 39.075 47.195C35.675 48.8383 32.5583 50.1417 29.725 51.105C26.665 52.125 23.5483 52.635 20.375 52.635C15.785 52.635 10.685 51.36 5.075 48.81Z" fill="#FACF35"/>
</svg>
