<svg width="319" height="305" viewBox="0 0 319 305" fill="none" xmlns="http://www.w3.org/2000/svg">
<ellipse opacity="0.03" cx="166.94" cy="157.519" rx="117.168" ry="117.155" stroke="#2A3070" stroke-width="60"/>
<path d="M119.202 153.472C116.22 158.601 123.504 162.813 126.156 165.878C133.442 174.301 118.199 187.303 106.101 185.726C94.0035 184.148 88.6066 166.782 96.3542 151.327C99.4742 145.103 99.6531 143.192 94.8928 130.028C90.1325 116.863 107.323 115.925 110.129 104.812C112.94 93.6802 103.369 81.5138 113.022 71.2992C119.555 64.3859 130.56 76.7322 132.29 82.5057C138.115 101.938 119.317 107.332 124.386 115.224C129.188 121.77 137.767 127.62 135.575 136.956C133.943 143.905 122.818 147.256 119.202 153.472Z" fill="#2A3070"/>
<path d="M121.613 86.6086C111.103 138.671 107.595 189.143 107.265 247.543" stroke="#6672F8"/>
<path d="M286.733 172.726C284.384 176.764 290.121 180.081 292.209 182.495C297.946 189.127 285.943 199.367 276.416 198.124C266.89 196.882 262.64 183.207 268.741 171.036C271.198 166.135 271.339 164.631 267.59 154.264C263.842 143.898 277.378 143.159 279.588 134.407C281.802 125.642 274.265 116.061 281.866 108.017C287.011 102.573 295.677 112.296 297.04 116.842C301.626 132.145 286.823 136.392 290.815 142.607C294.596 147.762 301.352 152.368 299.626 159.72C298.341 165.192 289.58 167.831 286.733 172.726Z" fill="#1EBE8E"/>
<path d="M288.631 120.144C280.354 161.141 277.592 200.885 277.332 246.873" stroke="#2A3070"/>
<path d="M57.514 192.53C39.8027 160.85 69.7305 142.975 41.8007 108.624C-11.1871 43.4574 79.5755 31.6963 83.1521 76.4443C84.1312 88.6505 84.1632 110.343 88.6527 122.087C91.7478 130.182 115.121 139.434 113.698 175.157C112.294 210.285 98.2708 247.466 95.7361 248.668C85.2283 239.825 61.3815 199.443 57.514 192.53Z" fill="#1EBE8E"/>
<path d="M53.7369 68.7406C65.3414 104.384 103.602 163.623 95.1318 248.26" stroke="white" stroke-linecap="round"/>
<path d="M214.687 245.255C214.152 213.998 194.599 104.85 170.574 62.3859" stroke="white" stroke-linecap="round"/>
<path d="M171.217 100.439C175.531 102.767 185.346 108.756 190.098 114.082C194.32 98.9627 195.974 92.8472 196.274 91.6793" stroke="white" stroke-linecap="round"/>
<path d="M162.77 78.1012C167.328 79.9767 177.765 84.9232 183.051 89.7045C185.844 74.4368 186.921 68.2664 187.111 67.0897" stroke="white" stroke-linecap="round"/>
<path d="M210.598 84.9589C215.061 99.1498 213.357 113.896 209.703 125.353C207.877 131.079 205.569 135.968 203.315 139.538C202.188 141.324 201.08 142.77 200.061 143.825C199.031 144.891 198.134 145.512 197.433 145.721C196.724 145.932 195.621 145.922 194.164 145.633C192.72 145.346 190.984 144.797 189.04 143.988C185.154 142.37 180.477 139.728 175.718 136.13C166.198 128.932 156.401 117.944 151.938 103.754C147.468 89.5387 148.101 75.1971 151.211 63.9643C152.766 58.3479 154.935 53.5234 157.382 49.8879C159.835 46.2434 162.528 43.8485 165.111 42.9893C168.269 42.0502 172.118 42.3863 176.29 43.9062C180.461 45.4257 184.918 48.1162 189.26 51.829C197.944 59.2546 206.123 70.7317 210.598 84.9589Z" stroke="white" stroke-linecap="round"/>
<path d="M24.4297 247.241H152.291C152.291 254.072 158.505 258.983 165.338 258.983C172.17 258.983 178.385 254.072 178.385 247.241L307.528 246.744" stroke="#2A3070"/>
<path fill-rule="evenodd" clip-rule="evenodd" d="M63.1833 171.393C63.9059 172.358 64.552 173.358 65.1228 174.385C65.4242 174.928 65.1813 175.649 64.636 175.888L52.159 181.334C50.7213 181.962 50.0845 183.707 50.7366 185.233C51.3887 186.759 53.0828 187.487 54.5205 186.859L66.7498 181.521C67.2702 181.294 67.8401 181.609 67.9546 182.21C69.8573 192.198 65.9772 203.035 57.1034 209.745C48.2023 216.475 36.722 217.203 27.686 212.553C27.131 212.267 27.0169 211.453 27.4434 210.936L35.3373 201.363C36.4594 200.002 36.3238 198.041 35.0344 196.983C33.745 195.924 31.7901 196.169 30.668 197.53L22.3669 207.597C22.0189 208.019 21.4432 208.07 21.075 207.697C20.2492 206.86 19.4709 205.958 18.747 204.991C17.6686 203.551 16.865 201.798 16.2855 199.828C16.1811 199.473 16.2671 199.078 16.4994 198.796L26.0196 187.251C27.1417 185.89 27.0061 183.929 25.7167 182.871C24.4273 181.812 22.4724 182.057 21.3503 183.418L16.589 189.192C16.0137 189.89 15.01 189.493 15.0212 188.558C15.1623 176.79 18.5847 163.747 19.4796 160.529C19.6037 160.083 19.9642 159.78 20.3775 159.783C23.5576 159.806 37.2032 160.093 48.6223 163.277C49.4854 163.517 49.5073 164.835 48.6629 165.204L41.1868 168.467C39.7491 169.095 39.1123 170.84 39.7644 172.366C40.4165 173.892 42.1106 174.62 43.5483 173.993L58.2259 167.585C58.4885 167.471 58.7798 167.49 59.0177 167.644C60.7015 168.735 62.1237 169.978 63.1833 171.393ZM23.9789 173.819C24.5859 174.63 24.4006 175.799 23.565 176.431C22.7294 177.063 21.5601 176.918 20.9531 176.107C20.3462 175.297 20.5315 174.127 21.3671 173.496C22.2026 172.864 23.372 173.009 23.9789 173.819ZM59.4061 196.14C61.0676 194.885 61.9246 193.214 61.3204 192.407C60.7162 191.601 58.8794 191.965 57.2179 193.22C55.5565 194.475 54.6994 196.146 55.3036 196.953C55.9079 197.759 57.7446 197.395 59.4061 196.14Z" fill="#6672F8"/>
<path fill-rule="evenodd" clip-rule="evenodd" d="M97.645 204.167C97.2354 204.889 96.7838 205.573 96.2947 206.217C95.9754 206.637 95.3914 206.653 94.9948 206.275L87.777 199.397C86.8695 198.532 85.4706 198.527 84.6524 199.385C83.8341 200.243 83.9064 201.64 84.8138 202.505L91.5949 208.967C92.08 209.429 92.0569 210.248 91.5267 210.583C85.494 214.39 77.3409 214.643 70.4036 210.56C63.4882 206.49 59.6327 199.201 59.8291 191.997C59.8461 191.37 60.3918 190.971 60.9512 191.142L69.8483 193.859C70.8992 194.18 72.0075 193.533 72.3238 192.415C72.6401 191.296 72.0446 190.129 70.9937 189.808L61.7901 186.997C61.234 186.827 60.9101 186.17 61.1332 185.608C61.442 184.831 61.8068 184.068 62.2289 183.323C62.8362 182.252 63.7062 181.272 64.7701 180.376C64.9905 180.19 65.2835 180.137 65.5618 180.222L76.6421 183.606C77.693 183.927 78.8013 183.28 79.1176 182.162C79.4339 181.043 78.8384 179.876 77.7876 179.555L72.6801 177.995C71.7981 177.726 71.6768 176.436 72.5149 176.113C80.1547 173.169 89.3107 171.948 91.8326 171.653C92.237 171.606 92.6238 171.849 92.7999 172.264C93.8295 174.692 97.2628 183.166 98.5962 191.244C98.7499 192.175 97.7883 192.706 97.1255 192.074L93.2613 188.392C92.3539 187.527 90.9549 187.522 90.1367 188.38C89.3185 189.238 89.3908 190.635 90.2982 191.5L98.5669 199.379C98.8233 199.624 98.9551 199.991 98.8987 200.345C98.6713 201.774 98.2678 203.068 97.645 204.167ZM84.6804 178.329C84.322 178.961 83.4924 179.156 82.8275 178.765C82.1625 178.374 81.914 177.544 82.2724 176.912C82.6307 176.281 83.4603 176.085 84.1252 176.477C84.7902 176.868 85.0387 177.697 84.6804 178.329ZM79.8395 208.352C81.1544 209.122 82.5099 209.238 82.8671 208.611C83.2243 207.984 82.4479 206.851 81.1331 206.08C79.8182 205.31 78.4627 205.194 78.1055 205.821C77.7483 206.449 78.5247 207.582 79.8395 208.352Z" fill="#2A3070"/>
<path d="M27.3203 169.248C43.0543 184.98 64.2347 219.47 70.2863 246.094" stroke="#2A3070" stroke-linecap="round"/>
<path d="M90.8594 177.114C54.8527 218.705 81.0861 225.805 70.2841 246.094" stroke="#6672F8" stroke-linecap="round"/>
<path d="M144.818 164.551L144.818 164.551C142.885 168.57 142.523 172.449 143.143 176.815C141.784 177.576 140.212 178.493 138.567 179.453L138.399 179.551C136.568 180.619 134.652 181.736 132.834 182.75C131.014 183.766 129.303 184.674 127.88 185.327C127.168 185.653 126.537 185.912 126.006 186.089C125.465 186.268 125.066 186.349 124.806 186.349C123.084 186.349 121.701 185.953 120.505 185.254C119.436 184.628 118.498 183.75 117.595 182.655L144.855 164.473L144.818 164.551Z" fill="#FACF35" stroke="#FACF35"/>
<path d="M148.7 148.231L148.701 148.232C149.167 148.945 148.966 149.906 148.254 150.373L148.253 150.374L116.25 171.251C115.5 171.741 115.359 172.741 115.926 173.354C117.17 174.699 118.552 175.84 120.195 176.546C120.574 176.709 121.033 176.651 121.421 176.392L152.174 155.887L152.209 155.863L152.248 155.846L152.571 155.702L152.627 155.678L152.687 155.667C152.814 155.644 152.972 155.618 153.158 155.629C153.343 155.635 153.527 155.684 153.683 155.757L153.706 155.768L153.727 155.78L153.938 155.906L154.009 155.949L154.063 156.012L154.352 156.352L154.394 156.402L154.422 156.461L154.48 156.582L154.508 156.64L154.52 156.705L154.588 157.068L154.6 157.135L154.594 157.204L154.581 157.357L154.575 157.42L154.554 157.479L154.409 157.893L154.38 157.975L154.326 158.042L154.229 158.161L154.208 158.188L154.183 158.211L153.995 158.388L153.969 158.413L153.939 158.434C149.702 161.393 146.872 165.831 145.967 170.932C145.061 176.032 146.475 181.764 149.148 185.404C151.172 188.159 155.418 194.304 157.543 197.391C158.062 198.145 159.084 198.239 159.661 197.623C160.991 196.206 162.128 194.58 162.634 192.887C163.133 191.217 163.023 189.476 161.851 187.753C161.261 186.889 160.596 185.997 159.904 185.071C159.838 184.982 159.771 184.893 159.705 184.804C158.945 183.785 158.161 182.726 157.437 181.639C155.994 179.47 154.754 177.138 154.396 174.69C153.832 170.842 155.444 167.402 158.854 165.023L158.855 165.023C161.809 162.965 165.392 162.682 168.638 164.251L168.638 164.252C172.381 166.068 174.512 169.215 174.556 173.103C174.586 175.789 173.642 178.465 172.442 180.987C171.84 182.251 171.168 183.489 170.512 184.677C170.411 184.86 170.311 185.041 170.211 185.222C169.66 186.218 169.13 187.176 168.664 188.096L148.7 148.231ZM148.7 148.231C148.246 147.54 147.262 147.323 146.56 147.784C146.56 147.784 146.559 147.785 146.559 147.785L123.605 162.756C123.036 163.127 122.312 163.065 121.864 162.613C121.169 161.912 120.522 161.166 119.901 160.387C119.372 159.724 119.556 158.734 120.306 158.271L169.876 127.715C170.696 127.21 171.709 127.221 172.479 127.761C174.926 129.475 179.859 133.159 184.175 137.801C188.51 142.465 192.126 147.992 192.126 153.397C192.126 160.011 189.929 166.951 187.66 172.352C185.488 177.521 183.268 181.239 182.901 181.853C182.885 181.88 182.872 181.901 182.864 181.916L182.864 181.916M148.7 148.231L182.864 181.916M182.864 181.916L182.858 181.926M182.864 181.916L182.858 181.926M182.858 181.926L173.658 198.378C173.221 199.16 172.241 199.36 171.611 198.834C169.879 197.39 168.603 195.778 168.028 194.007M182.858 181.926L168.028 194.007M168.028 194.007C167.457 192.253 167.557 190.293 168.664 188.096L168.028 194.007Z" fill="#FACF35" stroke="#FACF35"/>
<path d="M204.019 186.342C204.259 221.007 222.311 240.62 231.307 246.094C236.105 222.147 210.916 146.887 208.817 135.941C206.718 124.994 203.719 143.01 204.019 186.342Z" fill="#2A3070"/>
<path d="M218.376 151.207C215.906 194.112 224.96 232.342 229.796 246.094C241.217 246.094 234.117 223.174 239.673 203.693C245.229 184.211 224.858 158.77 227.636 109.035C230.413 59.2999 221.462 97.5754 218.376 151.207Z" fill="#6672F8" stroke="#6672F8"/>
<path d="M250.277 144.562C253.693 193.278 240.224 244.558 232.668 246.231C221.013 245.618 242.13 145.974 242.687 120.469C243.245 94.965 246.86 95.8451 250.277 144.562Z" fill="#2A3070"/>
<path d="M266.905 163.402C252.209 227.101 246.247 244.62 237.102 245.544C229.704 243.282 241.167 219.758 250.471 193.342C257.015 174.761 256.199 155.666 266.414 140.687C276.63 125.708 281.601 99.7026 266.905 163.402Z" stroke="#6672F8"/>
<path fill-rule="evenodd" clip-rule="evenodd" d="M154.291 15.323H178.177C249.422 15.323 307.177 73.0783 307.177 144.323V247.893H308.177V144.323C308.177 72.526 249.974 14.323 178.177 14.323H154.291C82.494 14.323 24.291 72.5259 24.291 144.323V247.893H25.291V144.323C25.291 73.0782 83.0463 15.323 154.291 15.323Z" fill="#6672F8"/>
<path d="M267.085 217.898C266.217 225.964 266.165 235.493 267.242 242.505C267.34 242.991 267.419 243.462 267.48 243.913L266.492 244.07C266.409 243.617 266.33 243.152 266.257 242.675C265.108 236.966 261.389 228.772 257.66 222.273C255.644 218.759 253.647 215.781 252.085 213.986C251.29 213.074 250.659 212.53 250.233 212.337C250.133 212.292 250.062 212.274 250.016 212.27C249.994 212.267 249.98 212.268 249.972 212.269C249.964 212.27 249.961 212.272 249.96 212.272C249.96 212.272 249.958 212.273 249.953 212.277C249.949 212.28 249.94 212.289 249.929 212.304C249.905 212.338 249.871 212.401 249.84 212.511L249.834 212.534L249.825 212.557C247.651 218.162 249.049 224.257 252.237 229.75C252.339 229.926 252.44 230.1 252.541 230.274C255.03 234.563 257.221 238.338 259.647 241.082C262.155 243.919 264.862 245.594 268.346 245.594C278.673 245.594 285.258 238.227 289.086 230.293C290.995 226.334 292.199 222.268 292.825 218.985C293.138 217.344 293.304 215.906 293.344 214.783C293.364 214.221 293.352 213.746 293.312 213.367C293.281 213.061 293.234 212.841 293.183 212.694C293.181 212.695 293.179 212.695 293.176 212.695C293.062 212.709 292.865 212.776 292.573 212.946C291.996 213.279 291.216 213.909 290.273 214.804C288.397 216.587 285.973 219.332 283.413 222.58C278.292 229.081 272.687 237.526 269.89 244.173L268.963 243.8C273.268 232.606 275.102 220.952 274.388 209.377L274.388 209.377C274.307 208.051 274.13 206.121 273.687 204.583C273.465 203.81 273.189 203.186 272.862 202.788C272.551 202.41 272.233 202.274 271.856 202.338C271.476 202.403 271.012 202.756 270.507 203.568C270.014 204.359 269.543 205.49 269.109 206.906C268.241 209.732 267.548 213.594 267.085 217.898Z" fill="#FCA081" stroke="#FCA081"/>
<ellipse cx="165.582" cy="7.16146" rx="7.16228" ry="7.16146" fill="#6672F8"/>
<path d="M176.428 218.943C176.428 224.707 171.755 229.877 165.99 229.877C160.226 229.877 155.553 224.707 155.553 218.943C155.553 218.943 159.729 218.943 165.493 218.943C171.258 218.943 176.428 218.943 176.428 218.943Z" fill="#6A6AF4"/>
<path d="M165.99 193.097C164.686 199.724 155.553 212.978 155.553 218.942H176.428C176.428 211.984 167.295 199.724 165.99 193.097Z" fill="#6A6AF4"/>
<path d="M147.721 206.703C147.721 208.865 145.968 210.804 143.807 210.804C141.645 210.804 139.893 208.865 139.893 206.703C139.893 206.703 141.459 206.703 143.62 206.703C145.782 206.703 147.721 206.703 147.721 206.703Z" fill="#6A6AF4"/>
<path d="M143.807 197.011C143.317 199.496 139.893 204.467 139.893 206.703H147.721C147.721 204.094 144.296 199.496 143.807 197.011Z" fill="#6A6AF4"/>
<path d="M194.692 234.102C194.692 236.263 192.939 238.202 190.777 238.202C188.616 238.202 186.863 236.263 186.863 234.102C186.863 234.102 188.429 234.102 190.591 234.102C192.753 234.102 194.692 234.102 194.692 234.102Z" fill="#6A6AF4"/>
<path d="M190.777 224.41C190.288 226.895 186.863 231.865 186.863 234.102H194.692C194.692 231.492 191.267 226.895 190.777 224.41Z" fill="#6A6AF4"/>
<path d="M176.424 246.589C176.424 252.092 171.459 257.027 165.334 257.027C159.209 257.027 154.244 252.092 154.244 246.589C154.244 246.589 158.681 246.589 164.806 246.589C170.931 246.589 176.424 246.589 176.424 246.589Z" fill="#6A6AF4"/>
</svg>
