<svg width="29" height="60" viewBox="0 0 29 60" fill="none" xmlns="http://www.w3.org/2000/svg">
<path d="M20.094 14.12C19.924 14.0633 19.7257 14.0067 19.499 13.95C19.329 13.8933 19.1307 13.8083 18.904 13.695C15.7873 18.5683 13.464 22.195 11.934 24.575C11.1407 25.8217 10.319 27.0967 9.46899 28.4C8.56232 29.6467 7.48565 30.27 6.23898 30.27C5.16232 30.27 3.80232 29.7317 2.15898 28.655C1.13898 27.975 0.628984 27.1533 0.628984 26.19C0.628984 25.17 1.11065 24.065 2.07398 22.875L8.44898 14.63L17.119 3.07C18.1957 1.65333 19.5557 0.944998 21.199 0.944998C22.1623 0.944998 23.2107 1.14333 24.344 1.54C25.4773 1.88 26.1857 2.10666 26.469 2.22C27.4323 2.50333 28.0557 2.95666 28.339 3.58C28.6223 4.14667 28.764 4.94 28.764 5.96V7.915C28.764 11.0883 28.679 13.8367 28.509 16.16C28.3957 18.4267 28.3107 20.325 28.254 21.855L27.659 35.795C27.6023 37.3817 27.574 39.79 27.574 43.02V51.265V55.43C27.574 56.11 27.4323 56.9033 27.149 57.81C26.8657 58.7167 26.639 59.1983 26.469 59.255C24.6557 59.3117 23.2107 59.17 22.134 58.83C21.0573 58.49 20.434 57.5267 20.264 55.94C20.094 54.5233 19.9807 52.4267 19.924 49.65C19.8107 45.1733 19.8673 38.4583 20.094 29.505C20.2073 23.4417 20.264 18.88 20.264 15.82C20.264 15.5933 20.2357 15.3383 20.179 15.055C20.1223 14.7717 20.094 14.46 20.094 14.12Z" fill="#FACF35"/>
</svg>
