<svg width="31" height="59" viewBox="0 0 31 59" fill="none" xmlns="http://www.w3.org/2000/svg">
<path d="M23.508 51.47C21.7513 53.85 20.0796 55.55 18.493 56.57C16.9063 57.6467 15.2063 58.185 13.393 58.185C11.0696 58.185 8.00964 57.25 4.21297 55.38C4.6663 55.21 5.1763 54.9833 5.74297 54.7C6.30964 54.4733 6.73464 54.3317 7.01797 54.275C9.5113 53.9917 11.5513 53.0567 13.138 51.47C14.7246 49.8833 16.028 47.815 17.048 45.265C19.3713 39.7117 20.533 34.47 20.533 29.54C20.533 28.8033 20.4763 27.7267 20.363 26.31C20.023 23.7033 19.173 22.4 17.813 22.4C17.2463 22.4 16.3963 22.7683 15.263 23.505L7.78297 28.945C7.10297 29.3983 6.42297 29.625 5.74297 29.625C5.11964 29.625 4.55297 29.4833 4.04297 29.2C3.53297 28.9167 2.85297 28.4633 2.00297 27.84C1.9463 27.84 1.91797 27.7267 1.91797 27.5C1.91797 26.99 2.22964 26.2533 2.85297 25.29L6.84797 19.085L10.758 12.965C11.098 12.5117 11.4096 11.6617 11.693 10.415C11.8063 9.79166 11.863 9.31 11.863 8.97C11.863 7.83666 11.268 7.27 10.078 7.27C9.6813 7.27 8.7463 7.44 7.27297 7.78C5.5163 8.29 4.1563 8.545 3.19297 8.545C2.17297 8.545 1.3513 8.31833 0.727969 7.865C0.614636 7.41166 0.557969 7.04333 0.557969 6.76C0.557969 6.36333 0.727969 6.02333 1.06797 5.74C1.40797 5.4 1.91797 5.03166 2.59797 4.635C3.27797 4.23833 3.84464 3.955 4.29797 3.785C6.90464 1.80166 9.65297 0.809998 12.543 0.809998C14.923 0.809998 16.963 1.46166 18.663 2.765C20.533 4.35166 21.468 6.05166 21.468 7.865C21.468 9.16833 20.9863 10.6417 20.023 12.285C19.9663 12.3417 19.5413 12.9367 18.748 14.07C17.558 15.6 16.8213 16.5917 16.538 17.045C19.9946 17.4983 22.6863 18.15 24.613 19C26.5396 19.85 27.928 21.125 28.778 22.825C29.628 24.4683 30.053 26.7633 30.053 29.71C30.053 33.96 29.543 37.8983 28.523 41.525C27.503 45.095 25.8313 48.41 23.508 51.47Z" fill="#FACF35"/>
</svg>
