<svg width="435" height="435" viewBox="0 0 435 435" fill="none" xmlns="http://www.w3.org/2000/svg">
<rect x="311.75" y="0.192627" width="123.25" height="123.25" rx="8" fill="#1EBE8E"/>
<rect x="0.75" y="18.5895" width="415" height="415" fill="white"/>
<g clip-path="url(#clip0_3028_104981)">
<rect width="416" height="416" transform="translate(0.25 18.0895)" fill="white"/>
<g clip-path="url(#clip1_3028_104981)">
<rect width="434" height="456" transform="translate(-42.25 43.1926)" fill="white"/>
<ellipse opacity="0.03" cx="219.782" cy="229.68" rx="132.429" ry="132.484" stroke="#2A3070" stroke-width="60"/>
<path d="M167.022 99.4186C172.744 93.6944 182.021 93.6944 187.743 99.4186" stroke="#6672F8" stroke-width="1.5"/>
<path opacity="0.7" d="M161.092 91.9872C170.089 82.9862 184.677 82.9862 193.674 91.9872" stroke="#6672F8" stroke-width="1.5"/>
<path opacity="0.4" d="M154.464 85.3546C167.122 72.6915 187.644 72.6915 200.302 85.3546" stroke="#6672F8" stroke-width="1.5"/>
<path d="M105.585 246.908C111.227 231.536 124.537 202.53 132.649 209.487C140.761 216.445 117.986 237.334 105.585 246.908Z" stroke="#2A3070" stroke-width="1.5"/>
<line x1="0.75" y1="-0.75" x2="37.2756" y2="-0.75" transform="matrix(0.529477 -0.693335 0.638712 0.473568 105.936 246.547)" stroke="#2A3070" stroke-width="1.5" stroke-linecap="round"/>
<path fill-rule="evenodd" clip-rule="evenodd" d="M72.4913 173.429C73.4413 173.841 74.4262 172.181 74.2128 170.452C72.7596 158.675 68.0062 146.262 59.9351 134.974C51.3335 122.944 40.3664 114.153 29.037 109.241C28.0871 108.83 27.1021 110.49 27.3155 112.219C28.7687 123.996 33.5221 136.409 41.5932 147.697C50.1948 159.727 61.1619 168.518 72.4913 173.429Z" fill="#FCA081"/>
<path fill-rule="evenodd" clip-rule="evenodd" d="M76.5285 166.385C75.0047 166.99 74.9604 170.427 76.4735 170.554C84.4642 171.224 93.1627 171.022 102.227 169.813C112.774 168.406 122.689 165.789 131.462 162.308C132.986 161.703 133.031 158.266 131.518 158.139C123.527 157.469 114.828 157.671 105.763 158.88C95.2165 160.287 85.3021 162.904 76.5285 166.385Z" fill="#6672F8"/>
<path fill-rule="evenodd" clip-rule="evenodd" d="M44.5524 228.425C43.5186 229.619 42.4403 227.915 42.9292 225.809C44.8705 217.446 48.016 208.639 52.3789 199.86C57.1258 190.31 62.798 181.832 68.8921 174.794C69.9259 173.6 71.0043 175.304 70.5154 177.41C68.574 185.773 65.4286 194.581 61.0656 203.359C56.3187 212.91 50.6465 221.388 44.5524 228.425Z" fill="#1EBE8E"/>
<path d="M76.9921 165.14C78.812 167.705 78.0072 171.623 74.985 173.863C71.9628 176.103 68.0686 175.668 66.2488 173.102C64.4289 170.537 65.2336 166.619 68.2558 164.379C71.2781 162.139 75.1722 162.575 76.9921 165.14Z" fill="#2A3070" stroke="#2A3070"/>
<path d="M75.6252 172.037C84.7578 179.62 103.353 200.921 104.672 225.465C106.321 256.144 93.7551 290.207 109.794 320.767" stroke="#2A3070" stroke-width="1.5"/>
<rect x="141.282" y="262.65" width="70.709" height="59.9474" rx="5" fill="#1EBE8E"/>
<rect x="226.789" y="190.554" width="3.92057" height="10.4592" rx="1.96028" fill="#1EBE8E"/>
<rect x="226.789" y="159.175" width="3.92057" height="10.4592" rx="1.96028" fill="#1EBE8E"/>
<rect x="226.789" y="127.798" width="3.9206" height="10.4592" rx="1.9603" fill="#1EBE8E"/>
<rect x="226.789" y="221.93" width="3.92057" height="10.4592" rx="1.96028" fill="#1EBE8E"/>
<rect x="226.789" y="253.31" width="3.92057" height="10.4592" rx="1.96028" fill="#1EBE8E"/>
<rect x="226.789" y="284.686" width="3.92057" height="10.4592" rx="1.96028" fill="#1EBE8E"/>
<rect x="239.858" y="190.554" width="3.9206" height="10.4592" rx="1.9603" fill="#1EBE8E"/>
<rect x="239.858" y="159.175" width="3.9206" height="10.4592" rx="1.9603" fill="#1EBE8E"/>
<rect x="239.858" y="127.798" width="3.9206" height="10.4592" rx="1.9603" fill="#1EBE8E"/>
<rect x="239.858" y="221.93" width="3.9206" height="10.4592" rx="1.9603" fill="#1EBE8E"/>
<rect x="239.858" y="253.31" width="3.9206" height="10.4592" rx="1.9603" fill="#1EBE8E"/>
<rect x="239.858" y="284.686" width="3.9206" height="10.4592" rx="1.9603" fill="#1EBE8E"/>
<path d="M201.207 104.583C201.207 102.78 202.179 101.116 203.749 100.229L263.26 66.6359C266.593 64.7544 270.718 67.1626 270.718 70.9901V316.399C270.718 319.16 268.479 321.399 265.718 321.399H206.207C203.446 321.399 201.207 319.16 201.207 316.399V104.583Z" stroke="#1EBE8E" stroke-width="1.5"/>
<rect x="226.789" y="190.554" width="3.92057" height="10.4592" rx="1.96028" fill="#1EBE8E"/>
<rect x="226.789" y="159.175" width="3.92057" height="10.4592" rx="1.96028" fill="#1EBE8E"/>
<rect x="226.789" y="127.798" width="3.9206" height="10.4592" rx="1.9603" fill="#1EBE8E"/>
<rect x="226.789" y="221.93" width="3.92057" height="10.4592" rx="1.96028" fill="#1EBE8E"/>
<rect x="226.789" y="253.31" width="3.92057" height="10.4592" rx="1.96028" fill="#1EBE8E"/>
<rect x="226.789" y="284.686" width="3.92057" height="10.4592" rx="1.96028" fill="#1EBE8E"/>
<rect x="239.858" y="190.554" width="3.9206" height="10.4592" rx="1.9603" fill="#1EBE8E"/>
<rect x="239.858" y="159.175" width="3.9206" height="10.4592" rx="1.9603" fill="#1EBE8E"/>
<rect x="239.858" y="127.798" width="3.9206" height="10.4592" rx="1.9603" fill="#1EBE8E"/>
<rect x="239.858" y="221.93" width="3.9206" height="10.4592" rx="1.9603" fill="#1EBE8E"/>
<rect x="239.858" y="253.31" width="3.9206" height="10.4592" rx="1.9603" fill="#1EBE8E"/>
<rect x="239.858" y="284.686" width="3.9206" height="10.4592" rx="1.9603" fill="#1EBE8E"/>
<path d="M201.207 104.583C201.207 102.78 202.179 101.116 203.749 100.229L263.26 66.6359C266.593 64.7544 270.718 67.1626 270.718 70.9901V316.399C270.718 319.16 268.479 321.399 265.718 321.399H206.207C203.446 321.399 201.207 319.16 201.207 316.399V104.583Z" stroke="#1EBE8E" stroke-width="1.5"/>
<path d="M309.066 180.172C309.066 178.301 308.021 176.587 306.359 175.729L266.024 154.913C262.696 153.195 258.731 155.611 258.731 159.356V317.598C258.731 320.36 260.969 322.598 263.731 322.598H304.066C306.827 322.598 309.066 320.36 309.066 317.598V180.172Z" fill="#FACF35"/>
<rect x="164.051" y="202.701" width="70.709" height="59.9474" rx="5" fill="#2A3070"/>
<rect x="141.282" y="142.758" width="70.709" height="59.9474" rx="5" fill="#FACF35"/>
<path d="M173.837 108.205C175.704 106.687 178.387 106.714 180.223 108.27L221.013 142.826C222.434 144.03 221.583 146.352 219.72 146.352H132.533C130.65 146.352 129.811 143.987 131.272 142.8L173.837 108.205Z" fill="#2A3070"/>
<rect x="275.142" y="190.549" width="3.9206" height="10.4592" rx="1.9603" fill="white"/>
<rect x="275.142" y="221.926" width="3.92057" height="10.4592" rx="1.96028" fill="white"/>
<rect x="275.142" y="253.304" width="3.92057" height="10.4592" rx="1.96028" fill="white"/>
<rect x="275.142" y="284.681" width="3.92057" height="10.4591" rx="1.96028" fill="white"/>
<rect x="288.211" y="190.549" width="3.92057" height="10.4592" rx="1.96028" fill="white"/>
<rect x="288.211" y="221.926" width="3.92057" height="10.4592" rx="1.96028" fill="white"/>
<rect x="288.211" y="253.304" width="3.92057" height="10.4592" rx="1.96028" fill="white"/>
<rect x="288.211" y="284.681" width="3.92057" height="10.4591" rx="1.96028" fill="white"/>
<line x1="324.561" y1="280.76" x2="324.561" y2="322.597" stroke="#2A3070" stroke-width="1.5"/>
<path d="M272.89 253.258C270.648 249.937 273.027 245.46 277.034 245.46H343.047C344.709 245.46 346.261 246.285 347.191 247.662L365.034 274.086C367.276 277.407 364.897 281.884 360.89 281.884H294.876C293.215 281.884 291.662 281.059 290.733 279.682L272.89 253.258Z" fill="#000091"/>
<path d="M276.163 253.257C273.921 249.937 276.3 245.459 280.307 245.459H346.32C347.982 245.459 349.535 246.284 350.464 247.661L368.307 274.086C370.549 277.407 368.17 281.884 364.163 281.884H298.15C296.488 281.884 294.935 281.059 294.006 279.682L276.163 253.257Z" fill="#6672F8"/>
<line x1="278.912" y1="256.728" x2="356.829" y2="256.728" stroke="white" stroke-width="1.5"/>
<line x1="287.284" y1="268.75" x2="365.565" y2="268.75" stroke="white" stroke-width="1.5"/>
<line y1="-0.75" x2="43.9385" y2="-0.75" transform="matrix(0.555195 0.83172 -0.83151 0.55551 286.557 245.459)" stroke="white" stroke-width="1.5"/>
<line y1="-0.75" x2="43.9385" y2="-0.75" transform="matrix(0.555195 0.83172 -0.83151 0.55551 302.213 245.459)" stroke="white" stroke-width="1.5"/>
<line y1="-0.75" x2="43.9385" y2="-0.75" transform="matrix(0.555195 0.831721 -0.83151 0.55551 317.868 245.459)" stroke="white" stroke-width="1.5"/>
<line y1="-0.75" x2="43.9385" y2="-0.75" transform="matrix(0.555194 0.831721 -0.831509 0.555511 333.526 245.459)" stroke="white" stroke-width="1.5"/>
<path fill-rule="evenodd" clip-rule="evenodd" d="M151.736 323.094H84.9942C84.9684 322.815 84.9553 322.534 84.9553 322.25C84.9553 316.385 90.5494 311.631 97.45 311.631C99.9175 311.631 102.218 312.239 104.155 313.288C107.185 309.501 112.297 307.013 118.092 307.013C123.995 307.013 129.189 309.595 132.196 313.502C134.209 312.322 136.65 311.631 139.28 311.631C146.181 311.631 151.775 316.385 151.775 322.25C151.775 322.534 151.762 322.815 151.736 323.094Z" fill="#6672F8"/>
<path fill-rule="evenodd" clip-rule="evenodd" d="M300.707 323.093H340.908C340.976 322.625 341.011 322.148 341.011 321.665C341.011 315.285 334.925 310.114 327.418 310.114C322.742 310.114 318.618 312.12 316.172 315.176C314.608 314.329 312.751 313.838 310.759 313.838C305.19 313.838 300.675 317.675 300.675 322.409C300.675 322.639 300.686 322.867 300.707 323.093Z" fill="#1EBE8E"/>
</g>
</g>
<rect x="0.75" y="18.5895" width="415" height="415" stroke="#E5E5E5"/>
<defs>
<clipPath id="clip0_3028_104981">
<rect width="416" height="416" fill="white" transform="translate(0.25 18.0895)"/>
</clipPath>
<clipPath id="clip1_3028_104981">
<rect width="434" height="456" fill="white" transform="translate(-42.25 43.1926)"/>
</clipPath>
</defs>
</svg>
