<svg width="253" height="167" viewBox="0 0 253 167" fill="none" xmlns="http://www.w3.org/2000/svg">
<ellipse opacity="0.03" cx="125.593" cy="103.694" rx="72.9955" ry="73.0254" stroke="#2A3070" stroke-width="60"/>
<path d="M96.5119 31.8935C99.6659 28.7382 104.779 28.7382 107.933 31.8935" stroke="#6672F8" stroke-width="1.5"/>
<path opacity="0.7" d="M93.243 27.7973C98.2023 22.8359 106.243 22.8359 111.202 27.7973" stroke="#6672F8" stroke-width="1.5"/>
<path opacity="0.4" d="M89.5895 24.1415C96.5666 17.1615 107.879 17.1615 114.856 24.1415" stroke="#6672F8" stroke-width="1.5"/>
<path d="M62.4951 113.21C65.7726 104.748 73.3999 88.765 77.6893 92.5323C81.9788 96.2996 69.3471 107.887 62.4951 113.21Z" stroke="#2A3070" stroke-width="1.5"/>
<line x1="0.75" y1="-0.75" x2="17.6351" y2="-0.75" transform="matrix(0.603627 -0.790432 0.76952 0.589595 62.8398 112.991)" stroke="#2A3070" stroke-width="1.5" stroke-linecap="round"/>
<path fill-rule="evenodd" clip-rule="evenodd" d="M42.0572 70.4899C43.3429 71.2674 44.7656 69.8231 44.3178 68.1684C42.8462 62.7302 40.161 57.1444 36.2869 51.9491C32.3417 46.6584 27.6684 42.4499 22.8014 39.5067C21.5156 38.7291 20.0929 40.1735 20.5407 41.8281C22.0123 47.2663 24.6975 52.8521 28.5716 58.0474C32.5168 63.3381 37.1901 67.5466 42.0572 70.4899Z" fill="#FCA081"/>
<path fill-rule="evenodd" clip-rule="evenodd" d="M48.2846 67.8358C46.5376 68.4747 46.7187 71.0613 48.5186 71.2042C52.6988 71.536 57.1987 71.4216 61.8524 70.7959C66.6448 70.1515 71.1654 69.0232 75.253 67.5284C77 66.8895 76.8189 64.3029 75.0189 64.1601C70.8388 63.8282 66.3389 63.9426 61.6852 64.5683C56.8927 65.2127 52.3722 66.341 48.2846 67.8358Z" fill="#6672F8"/>
<path fill-rule="evenodd" clip-rule="evenodd" d="M27.8413 100.94C27.4363 102.844 29.1237 103.989 30.2879 102.614C33.4276 98.9069 36.3188 94.4828 38.7209 89.5125C41.0046 84.7871 42.6213 80.0337 43.5854 75.5032C43.9904 73.5999 42.3029 72.4549 41.1388 73.8294C37.999 77.5366 35.1079 81.9607 32.7058 86.931C30.422 91.6564 28.8054 96.4097 27.8413 100.94Z" fill="#1EBE8E"/>
<path d="M46.5342 68.3367C47.5378 69.6821 47.2292 71.6779 45.7692 72.7847C44.3093 73.8914 42.3216 73.6364 41.318 72.291C40.3144 70.9455 40.623 68.9498 42.083 67.843C43.543 66.7363 45.5306 66.9913 46.5342 68.3367Z" fill="#2A3070" stroke="#2A3070"/>
<path d="M46.1328 71.9211C51.1667 76.1007 61.4162 87.8421 62.1433 101.371C63.0521 118.281 56.126 137.057 64.9666 153.901" stroke="#2A3070" stroke-width="1.5"/>
<line x1="229.635" y1="13.9268" x2="252.756" y2="13.9268" stroke="white"/>
<rect x="82.3242" y="121.867" width="38.975" height="33.0432" rx="5" fill="#1EBE8E"/>
<rect x="129.451" y="82.1277" width="2.16103" height="5.76512" rx="1.08051" fill="#1EBE8E"/>
<rect x="129.451" y="64.8315" width="2.16103" height="5.76512" rx="1.08051" fill="#1EBE8E"/>
<rect x="129.451" y="47.5366" width="2.16105" height="5.76512" rx="1.08052" fill="#1EBE8E"/>
<rect x="129.451" y="99.4221" width="2.16103" height="5.76513" rx="1.08051" fill="#1EBE8E"/>
<rect x="129.451" y="116.719" width="2.16103" height="5.76513" rx="1.08051" fill="#1EBE8E"/>
<rect x="129.451" y="134.014" width="2.16103" height="5.76512" rx="1.08051" fill="#1EBE8E"/>
<rect x="136.656" y="82.1277" width="2.16105" height="5.76512" rx="1.08052" fill="#1EBE8E"/>
<rect x="136.656" y="64.8315" width="2.16105" height="5.76512" rx="1.08052" fill="#1EBE8E"/>
<rect x="136.656" y="47.5366" width="2.16105" height="5.76512" rx="1.08052" fill="#1EBE8E"/>
<rect x="136.656" y="99.4221" width="2.16105" height="5.76513" rx="1.08052" fill="#1EBE8E"/>
<rect x="136.656" y="116.719" width="2.16105" height="5.76513" rx="1.08052" fill="#1EBE8E"/>
<rect x="136.656" y="134.014" width="2.16105" height="5.76512" rx="1.08052" fill="#1EBE8E"/>
<path d="M115.354 36.0506C115.354 34.2469 116.325 32.5831 117.896 31.6964L146.21 15.7131C149.543 13.8316 153.668 16.2398 153.668 20.0673V149.25C153.668 152.011 151.429 154.25 148.668 154.25H120.354C117.592 154.25 115.354 152.011 115.354 149.25V36.0506Z" stroke="#1EBE8E" stroke-width="1.5"/>
<rect x="129.451" y="82.1277" width="2.16103" height="5.76512" rx="1.08051" fill="#1EBE8E"/>
<rect x="129.451" y="64.8315" width="2.16103" height="5.76512" rx="1.08051" fill="#1EBE8E"/>
<rect x="129.451" y="47.5366" width="2.16105" height="5.76512" rx="1.08052" fill="#1EBE8E"/>
<rect x="129.451" y="99.4221" width="2.16103" height="5.76513" rx="1.08051" fill="#1EBE8E"/>
<rect x="129.451" y="116.719" width="2.16103" height="5.76513" rx="1.08051" fill="#1EBE8E"/>
<rect x="129.451" y="134.014" width="2.16103" height="5.76512" rx="1.08051" fill="#1EBE8E"/>
<rect x="136.656" y="82.1277" width="2.16105" height="5.76512" rx="1.08052" fill="#1EBE8E"/>
<rect x="136.656" y="64.8315" width="2.16105" height="5.76512" rx="1.08052" fill="#1EBE8E"/>
<rect x="136.656" y="47.5366" width="2.16105" height="5.76512" rx="1.08052" fill="#1EBE8E"/>
<rect x="136.656" y="99.4221" width="2.16105" height="5.76513" rx="1.08052" fill="#1EBE8E"/>
<rect x="136.656" y="116.719" width="2.16105" height="5.76513" rx="1.08052" fill="#1EBE8E"/>
<rect x="136.656" y="134.014" width="2.16105" height="5.76512" rx="1.08052" fill="#1EBE8E"/>
<path d="M115.354 36.0506C115.354 34.2469 116.325 32.5831 117.896 31.6964L146.21 15.7131C149.543 13.8316 153.668 16.2398 153.668 20.0673V149.25C153.668 152.011 151.429 154.25 148.668 154.25H120.354C117.592 154.25 115.354 152.011 115.354 149.25V36.0506Z" stroke="#1EBE8E" stroke-width="1.5"/>
<path d="M174.807 77.7723C174.807 75.9015 173.762 74.1872 172.1 73.3292L154.355 64.1713C151.027 62.4539 147.062 64.8696 147.062 68.6145V149.911C147.062 152.672 149.3 154.911 152.062 154.911H169.807C172.568 154.911 174.807 152.672 174.807 149.911V77.7723Z" fill="#FACF35"/>
<rect x="94.875" y="88.8235" width="38.975" height="33.0432" rx="5" fill="#2A3070"/>
<rect x="82.3242" y="55.7822" width="38.975" height="33.0432" rx="5" fill="#FACF35"/>
<path d="M98.8208 37.9108C100.688 36.3934 103.371 36.4208 105.206 37.9759L124.401 54.2373C125.822 55.4412 124.971 57.7633 123.108 57.7633H80.0263C78.1435 57.7633 77.3038 55.3988 78.7649 54.2113L98.8208 37.9108Z" fill="#2A3070"/>
<rect x="156.105" y="82.1252" width="2.16105" height="5.76512" rx="1.08052" fill="white"/>
<rect x="156.105" y="99.4202" width="2.16103" height="5.76512" rx="1.08051" fill="white"/>
<rect x="156.105" y="116.716" width="2.16103" height="5.76512" rx="1.08051" fill="white"/>
<rect x="156.105" y="134.011" width="2.16103" height="5.7651" rx="1.08051" fill="white"/>
<rect x="163.311" y="82.1252" width="2.16103" height="5.76512" rx="1.08051" fill="white"/>
<rect x="163.311" y="99.4202" width="2.16103" height="5.76512" rx="1.08051" fill="white"/>
<rect x="163.311" y="116.716" width="2.16103" height="5.76512" rx="1.08051" fill="white"/>
<rect x="163.311" y="134.011" width="2.16103" height="5.7651" rx="1.08051" fill="white"/>
<line x1="183.684" y1="131.849" x2="183.684" y2="154.91" stroke="#2A3070" stroke-width="1.5"/>
<path d="M157.228 120.19C154.986 116.869 157.365 112.392 161.372 112.392H192.344C194.005 112.392 195.558 113.217 196.488 114.594L203.292 124.671C205.534 127.992 203.155 132.469 199.148 132.469H168.177C166.515 132.469 164.963 131.644 164.033 130.267L157.228 120.19Z" fill="#000091"/>
<path d="M159.033 120.19C156.791 116.869 159.17 112.392 163.177 112.392H194.148C195.81 112.392 197.363 113.217 198.292 114.594L205.097 124.671C207.339 127.992 204.96 132.469 200.953 132.469H169.981C168.32 132.469 166.767 131.644 165.838 130.267L159.033 120.19Z" fill="#6672F8"/>
<line x1="158.186" y1="118.266" x2="201.133" y2="118.266" stroke="white" stroke-width="1.5"/>
<line x1="162.801" y1="124.893" x2="205.949" y2="124.893" stroke="white" stroke-width="1.5"/>
<line y1="-0.75" x2="24.219" y2="-0.75" transform="matrix(0.555195 0.83172 -0.83151 0.55551 162.4 112.392)" stroke="white" stroke-width="1.5"/>
<line y1="-0.75" x2="24.219" y2="-0.75" transform="matrix(0.555195 0.83172 -0.83151 0.55551 171.029 112.392)" stroke="white" stroke-width="1.5"/>
<line y1="-0.75" x2="24.219" y2="-0.75" transform="matrix(0.555195 0.831721 -0.83151 0.55551 179.658 112.392)" stroke="white" stroke-width="1.5"/>
<line y1="-0.75" x2="24.219" y2="-0.75" transform="matrix(0.555194 0.831721 -0.831509 0.555511 188.287 112.392)" stroke="white" stroke-width="1.5"/>
<path fill-rule="evenodd" clip-rule="evenodd" d="M88.0839 155.184H51.2949C51.2807 155.03 51.2734 154.875 51.2734 154.719C51.2734 151.486 54.3569 148.866 58.1605 148.866C59.5207 148.866 60.7888 149.201 61.8567 149.779C63.5268 147.692 66.3444 146.32 69.5388 146.32C72.7928 146.32 75.6558 147.743 77.3131 149.897C78.4229 149.247 79.7682 148.866 81.2183 148.866C85.0219 148.866 88.1054 151.486 88.1054 154.719C88.1054 154.875 88.0981 155.03 88.0839 155.184Z" fill="#6672F8"/>
<path fill-rule="evenodd" clip-rule="evenodd" d="M170.201 155.183H192.36C192.398 154.925 192.417 154.663 192.417 154.396C192.417 150.88 189.063 148.029 184.925 148.029C182.348 148.029 180.074 149.135 178.726 150.82C177.864 150.353 176.84 150.082 175.742 150.082C172.672 150.082 170.184 152.197 170.184 154.806C170.184 154.933 170.189 155.059 170.201 155.183Z" fill="#1EBE8E"/>
</svg>
