<svg width="436" height="435" viewBox="0 0 436 435" fill="none" xmlns="http://www.w3.org/2000/svg">
<rect y="0.0893555" width="123.251" height="123.251" rx="8" fill="#6672F8"/>
<rect x="20.5278" y="19.077" width="414.972" height="414.972" fill="white"/>
<ellipse opacity="0.03" cx="218.607" cy="225.543" rx="96.1754" ry="93.7815" stroke="#2A3070" stroke-width="60"/>
<mask id="path-4-inside-1_3028_105077" fill="white">
<path fill-rule="evenodd" clip-rule="evenodd" d="M186.758 352.669C226.24 312.688 284.316 253.879 284.316 199.089C284.316 143.274 239.655 98.028 184.563 98.028C129.472 98.028 84.811 143.274 84.811 199.089C84.811 253.884 146.904 316.757 182.6 352.903C183.264 353.575 183.918 354.238 184.563 354.891C185.288 354.157 186.019 353.416 186.758 352.669ZM184.562 255.46C216.699 255.46 242.751 229.492 242.751 197.459C242.751 165.425 216.699 139.457 184.562 139.457C152.426 139.457 126.374 165.425 126.374 197.459C126.374 229.492 152.426 255.46 184.562 255.46Z"/>
</mask>
<path d="M186.758 352.669L187.682 353.582L186.758 352.669ZM182.6 352.903L183.525 351.989L182.6 352.903ZM184.563 354.891L183.638 355.804L184.563 356.742L185.489 355.804L184.563 354.891ZM283.016 199.089C283.016 226.058 268.704 254.175 249.294 280.664C229.905 307.123 205.585 331.754 185.833 351.755L187.682 353.582C207.413 333.603 231.871 308.839 251.391 282.201C270.89 255.592 285.616 226.91 285.616 199.089H283.016ZM184.563 99.328C238.921 99.328 283.016 143.976 283.016 199.089H285.616C285.616 142.573 240.389 96.728 184.563 96.728V99.328ZM86.111 199.089C86.111 143.976 130.206 99.328 184.563 99.328V96.728C128.738 96.728 83.511 142.573 83.511 199.089H86.111ZM183.525 351.989C165.669 333.908 141.287 309.217 121.365 282.218C101.413 255.176 86.111 226.048 86.111 199.089H83.511C83.511 226.925 99.2553 256.631 119.273 283.761C139.322 310.934 163.835 335.752 181.675 353.816L183.525 351.989ZM185.489 353.978C184.843 353.324 184.189 352.661 183.525 351.989L181.675 353.816C182.339 354.488 182.993 355.151 183.638 355.804L185.489 353.978ZM185.833 351.755C185.094 352.503 184.363 353.244 183.638 353.978L185.489 355.804C186.213 355.07 186.944 354.33 187.682 353.582L185.833 351.755ZM241.451 197.459C241.451 228.77 215.985 254.16 184.562 254.16V256.76C217.413 256.76 244.051 230.214 244.051 197.459H241.451ZM184.562 140.757C215.985 140.757 241.451 166.147 241.451 197.459H244.051C244.051 164.703 217.413 138.157 184.562 138.157V140.757ZM127.674 197.459C127.674 166.147 153.14 140.757 184.562 140.757V138.157C151.712 138.157 125.074 164.703 125.074 197.459H127.674ZM184.562 254.16C153.14 254.16 127.674 228.77 127.674 197.459H125.074C125.074 230.214 151.712 256.76 184.562 256.76V254.16Z" fill="#6672F8" mask="url(#path-4-inside-1_3028_105077)"/>
<mask id="path-6-inside-2_3028_105077" fill="white">
<path fill-rule="evenodd" clip-rule="evenodd" d="M348.395 346.406C369.482 325.052 400.5 293.643 400.5 264.38C400.5 234.57 376.647 210.404 347.223 210.404C317.799 210.404 293.946 234.57 293.946 264.38C293.946 293.646 327.109 327.226 346.174 346.531C346.529 346.89 346.878 347.244 347.223 347.593C347.61 347.201 348.001 346.805 348.395 346.406ZM347.223 294.487C364.387 294.487 378.301 280.617 378.301 263.509C378.301 246.4 364.387 232.531 347.223 232.531C330.059 232.531 316.145 246.4 316.145 263.509C316.145 280.617 330.059 294.487 347.223 294.487Z"/>
</mask>
<path fill-rule="evenodd" clip-rule="evenodd" d="M348.395 346.406C369.482 325.052 400.5 293.643 400.5 264.38C400.5 234.57 376.647 210.404 347.223 210.404C317.799 210.404 293.946 234.57 293.946 264.38C293.946 293.646 327.109 327.226 346.174 346.531C346.529 346.89 346.878 347.244 347.223 347.593C347.61 347.201 348.001 346.805 348.395 346.406ZM347.223 294.487C364.387 294.487 378.301 280.617 378.301 263.509C378.301 246.4 364.387 232.531 347.223 232.531C330.059 232.531 316.145 246.4 316.145 263.509C316.145 280.617 330.059 294.487 347.223 294.487Z" fill="#1EBE8E"/>
<path d="M348.395 346.406L349.106 347.108L349.106 347.108L348.395 346.406ZM346.174 346.531L346.886 345.828L346.886 345.828L346.174 346.531ZM347.223 347.593L346.511 348.295L347.223 349.016L347.935 348.295L347.223 347.593ZM399.5 264.38C399.5 278.684 391.905 293.635 381.548 307.768C371.209 321.878 358.235 335.018 347.683 345.703L349.106 347.108C359.642 336.44 372.721 323.198 383.162 308.95C393.586 294.724 401.5 279.339 401.5 264.38H399.5ZM347.223 211.404C376.082 211.404 399.5 235.11 399.5 264.38H401.5C401.5 234.03 377.211 209.404 347.223 209.404V211.404ZM294.946 264.38C294.946 235.11 318.363 211.404 347.223 211.404V209.404C317.234 209.404 292.946 234.03 292.946 264.38H294.946ZM346.886 345.828C337.347 336.169 324.34 322.997 313.715 308.597C303.067 294.165 294.946 278.675 294.946 264.38H292.946C292.946 279.35 301.407 295.284 312.106 309.784C322.829 324.317 335.936 337.587 345.463 347.233L346.886 345.828ZM347.935 346.89C347.59 346.541 347.24 346.187 346.886 345.828L345.463 347.233C345.817 347.592 346.167 347.946 346.511 348.295L347.935 346.89ZM347.683 345.703C347.289 346.102 346.898 346.498 346.511 346.89L347.935 348.295C348.321 347.903 348.712 347.508 349.106 347.108L347.683 345.703ZM377.301 263.509C377.301 280.062 363.838 293.487 347.223 293.487V295.487C364.936 295.487 379.301 281.173 379.301 263.509H377.301ZM347.223 233.531C363.838 233.531 377.301 246.955 377.301 263.509H379.301C379.301 245.845 364.936 231.531 347.223 231.531V233.531ZM317.145 263.509C317.145 246.955 330.608 233.531 347.223 233.531V231.531C329.51 231.531 315.145 245.845 315.145 263.509H317.145ZM347.223 293.487C330.608 293.487 317.145 280.062 317.145 263.509H315.145C315.145 281.173 329.51 295.487 347.223 295.487V293.487Z" fill="#1EBE8E" mask="url(#path-6-inside-2_3028_105077)"/>
<path d="M61.0534 181.74C60.4729 179.233 62.3768 176.838 64.9503 176.838H90.6078C92.4694 176.838 94.0849 178.122 94.5048 179.936L105.958 229.408C106.539 231.916 104.635 234.311 102.061 234.311H76.4039C74.5424 234.311 72.9269 233.026 72.507 231.213L61.0534 181.74Z" fill="#6672F8"/>
<path d="M66.2931 181.74C65.7127 179.233 67.6166 176.838 70.1901 176.838H95.8476C97.7092 176.838 99.3246 178.122 99.7445 179.936L111.198 229.408C111.779 231.916 109.875 234.311 107.301 234.311H81.6437C79.7821 234.311 78.1666 233.026 77.7467 231.213L66.2931 181.74Z" fill="#2A3070"/>
<ellipse cx="93.9909" cy="226.474" rx="2.62082" ry="2.61238" fill="#FACF35"/>
<path d="M305.528 268.926C304.893 264.494 301.096 261.203 296.619 261.203H159.695C154.724 261.203 150.695 265.232 150.695 270.203V334.012C150.695 338.983 154.724 343.012 159.695 343.012H305.764C311.243 343.012 315.45 338.159 314.673 332.736L305.528 268.926Z" fill="#2A3070"/>
<path d="M268.328 343.216C268.328 349.387 273.347 354.392 279.542 354.392C285.736 354.392 290.755 349.387 290.755 343.216C290.755 337.045 285.736 332.04 279.542 332.04C273.347 332.04 268.328 337.045 268.328 343.216Z" fill="white" stroke="#2A3070"/>
<path d="M173.156 343.216C173.156 349.387 178.175 354.392 184.369 354.392C190.564 354.392 195.583 349.387 195.583 343.216C195.583 337.045 190.564 332.04 184.369 332.04C178.175 332.04 173.156 337.045 173.156 343.216Z" fill="white" stroke="#2A3070"/>
<path d="M306.244 274.188H150.694V307.951H311.064L306.244 274.188Z" fill="#6672F8"/>
<line y1="-0.5" x2="33.7627" y2="-0.5" transform="matrix(4.37114e-08 1 1 -4.37114e-08 288.786 274.187)" stroke="#2A3070"/>
<line y1="-0.5" x2="33.7627" y2="-0.5" transform="matrix(5.70844e-08 1 1 -3.34713e-08 247.099 274.187)" stroke="#2A3070"/>
<line y1="-0.5" x2="33.7627" y2="-0.5" transform="matrix(5.70844e-08 1 1 -3.34713e-08 205.411 274.187)" stroke="#2A3070"/>
<line y1="-0.5" x2="33.7627" y2="-0.5" transform="matrix(5.70844e-08 1 1 -3.34713e-08 163.724 274.187)" stroke="#2A3070"/>
<ellipse cx="3.25691" cy="3.2464" rx="3.25691" ry="3.2464" transform="matrix(-1 0 0 1 161.12 323.534)" fill="#6672F8"/>
<path fill-rule="evenodd" clip-rule="evenodd" d="M314.131 328.588C313.546 329.455 312.553 330.026 311.426 330.026C309.627 330.026 308.169 328.573 308.169 326.78C308.169 324.987 309.627 323.533 311.426 323.533C312.177 323.533 312.868 323.787 313.419 324.212L314.131 328.588Z" fill="#6672F8"/>
<path d="M164.221 332.324C164.221 344.54 154.285 354.448 142.024 354.448C129.762 354.448 119.826 344.54 119.826 332.324C119.826 320.107 129.762 310.2 142.024 310.2C154.285 310.2 164.221 320.107 164.221 332.324Z" fill="#FACF35" stroke="#FACF35" stroke-width="1.3"/>
<path d="M100.573 332.324C100.573 344.54 90.6369 354.448 78.3755 354.448C66.1141 354.448 56.1778 344.54 56.1778 332.324C56.1778 320.107 66.1141 310.2 78.3755 310.2C90.6369 310.2 100.573 320.107 100.573 332.324Z" fill="#FACF35" stroke="#FACF35" stroke-width="1.3"/>
<path d="M79.3904 332.486L93.3818 302.065H127.086L111.435 332.486H79.3904Z" stroke="#2A3070" stroke-width="1.3" stroke-linejoin="bevel"/>
<path d="M133.046 294.909H123.662L142.022 332.73" stroke="#2A3070" stroke-width="1.3" stroke-linecap="round"/>
<path d="M86.5364 289.215L111.424 332.323" stroke="#2A3070" stroke-width="1.3"/>
<line x1="81.473" y1="289.379" x2="92.4128" y2="289.379" stroke="#2A3070" stroke-width="1.3" stroke-linecap="round"/>
<ellipse cx="378.264" cy="346.995" rx="7.71354" ry="7.68872" fill="#FCA081"/>
<path d="M377.752 334.538C371.268 335.227 366.213 340.835 366.213 347.652H340.748" stroke="#2A3070" stroke-width="1.3"/>
<path d="M378.415 347.021L371.926 302.464L365.08 300.36" stroke="#2A3070" stroke-width="1.3"/>
<ellipse cx="339.969" cy="346.995" rx="7.71352" ry="7.68872" fill="#FCA081"/>
<path d="M89.9355 197.819C204.873 140.9 324.935 195.809 347.629 260.755" stroke="#6672F8" stroke-width="2" stroke-linecap="round" stroke-dasharray="1 5"/>
<rect x="20.5278" y="19.077" width="414.972" height="414.972" stroke="#E5E5E5"/>
</svg>
