<svg width="435" height="435" viewBox="0 0 435 435" fill="none" xmlns="http://www.w3.org/2000/svg">
<rect x="311.75" y="0.548706" width="123.25" height="123.25" rx="8" fill="#FCA081"/>
<rect x="0.75" y="18.9456" width="415" height="415" fill="white"/>
<g clip-path="url(#clip0_3028_96102)">
<rect width="416" height="416" transform="translate(0.25 18.4456)" fill="white"/>
<ellipse opacity="0.03" cx="224.033" cy="233.333" rx="132.429" ry="132.484" stroke="#2A3070" stroke-width="60"/>
<path d="M171.272 103.071C176.994 97.347 186.271 97.347 191.993 103.071" stroke="#6672F8" stroke-width="1.5"/>
<path opacity="0.7" d="M165.342 95.6398C174.339 86.6389 188.927 86.6389 197.924 95.6398" stroke="#6672F8" stroke-width="1.5"/>
<path opacity="0.4" d="M158.714 89.0072C171.372 76.3441 191.894 76.3441 204.552 89.0072" stroke="#6672F8" stroke-width="1.5"/>
<path d="M109.835 250.561C115.477 235.189 128.787 206.183 136.899 213.14C145.011 220.097 122.236 240.986 109.835 250.561Z" stroke="#2A3070" stroke-width="1.5"/>
<line x1="0.75" y1="-0.75" x2="37.2756" y2="-0.75" transform="matrix(0.529477 -0.693335 0.638712 0.473568 110.186 250.199)" stroke="#2A3070" stroke-width="1.5" stroke-linecap="round"/>
<path fill-rule="evenodd" clip-rule="evenodd" d="M76.7418 177.082C77.6917 177.494 78.6767 175.834 78.4633 174.104C77.0101 162.328 72.2567 149.915 64.1856 138.626C55.584 126.596 44.6169 117.805 33.2875 112.894C32.3376 112.482 31.3526 114.142 31.566 115.872C33.0192 127.648 37.7726 140.061 45.8437 151.349C54.4453 163.38 65.4124 172.171 76.7418 177.082Z" fill="#FCA081"/>
<path fill-rule="evenodd" clip-rule="evenodd" d="M80.7785 170.038C79.2547 170.642 79.2104 174.079 80.7235 174.206C88.7142 174.877 97.4127 174.674 106.477 173.465C117.024 172.059 126.939 169.441 135.712 165.96C137.236 165.356 137.281 161.919 135.768 161.792C127.777 161.121 119.078 161.324 110.013 162.533C99.4665 163.939 89.5521 166.557 80.7785 170.038Z" fill="#6672F8"/>
<path fill-rule="evenodd" clip-rule="evenodd" d="M48.8027 232.078C47.7689 233.272 46.6905 231.568 47.1794 229.462C49.1208 221.099 52.2662 212.291 56.6292 203.513C61.3761 193.962 67.0483 185.484 73.1424 178.447C74.1762 177.253 75.2545 178.957 74.7656 181.063C72.8243 189.426 69.6788 198.234 65.3159 207.012C60.5689 216.563 54.8968 225.04 48.8027 232.078Z" fill="#6672F8"/>
<path d="M81.2423 168.792C83.0622 171.357 82.2575 175.276 79.2352 177.516C76.213 179.756 72.3189 179.32 70.499 176.755C68.6791 174.19 69.4839 170.271 72.5061 168.031C75.5283 165.791 79.4225 166.227 81.2423 168.792Z" fill="#2A3070" stroke="#2A3070"/>
<path d="M79.875 175.69C89.0075 183.272 107.602 204.574 108.921 229.117C110.57 259.797 98.0048 293.859 114.043 324.42" stroke="#2A3070" stroke-width="1.5"/>
<line x1="412.789" y1="70.8828" x2="454.735" y2="70.8828" stroke="white"/>
<rect x="145.531" y="266.302" width="70.709" height="59.9474" rx="5" fill="#6672F8"/>
<rect x="231.039" y="194.207" width="3.92057" height="10.4592" rx="1.96028" fill="#6672F8"/>
<rect x="231.039" y="162.828" width="3.92057" height="10.4592" rx="1.96028" fill="#6672F8"/>
<rect x="231.039" y="131.451" width="3.9206" height="10.4592" rx="1.9603" fill="#6672F8"/>
<rect x="231.039" y="225.582" width="3.92057" height="10.4592" rx="1.96028" fill="#6672F8"/>
<rect x="231.039" y="256.962" width="3.92057" height="10.4592" rx="1.96028" fill="#6672F8"/>
<rect x="231.039" y="288.339" width="3.92057" height="10.4592" rx="1.96028" fill="#6672F8"/>
<rect x="244.107" y="194.207" width="3.9206" height="10.4592" rx="1.9603" fill="#6672F8"/>
<rect x="244.107" y="162.828" width="3.9206" height="10.4592" rx="1.9603" fill="#6672F8"/>
<rect x="244.107" y="131.451" width="3.9206" height="10.4592" rx="1.9603" fill="#6672F8"/>
<rect x="244.107" y="225.582" width="3.9206" height="10.4592" rx="1.9603" fill="#6672F8"/>
<rect x="244.107" y="256.962" width="3.9206" height="10.4592" rx="1.9603" fill="#6672F8"/>
<rect x="244.107" y="288.339" width="3.9206" height="10.4592" rx="1.9603" fill="#6672F8"/>
<path d="M205.457 108.236C205.457 106.432 206.428 104.768 207.999 103.882L267.51 70.2884C270.843 68.4069 274.968 70.8151 274.968 74.6426V320.051C274.968 322.813 272.729 325.051 269.968 325.051H210.457C207.696 325.051 205.457 322.813 205.457 320.051V108.236Z" stroke="#6672F8" stroke-width="1.5"/>
<rect x="231.039" y="194.207" width="3.92057" height="10.4592" rx="1.96028" fill="#6672F8"/>
<rect x="231.039" y="162.828" width="3.92057" height="10.4592" rx="1.96028" fill="#6672F8"/>
<rect x="231.039" y="131.451" width="3.9206" height="10.4592" rx="1.9603" fill="#6672F8"/>
<rect x="231.039" y="225.582" width="3.92057" height="10.4592" rx="1.96028" fill="#6672F8"/>
<rect x="231.039" y="256.962" width="3.92057" height="10.4592" rx="1.96028" fill="#6672F8"/>
<rect x="231.039" y="288.339" width="3.92057" height="10.4592" rx="1.96028" fill="#6672F8"/>
<rect x="244.107" y="194.207" width="3.9206" height="10.4592" rx="1.9603" fill="#6672F8"/>
<rect x="244.107" y="162.828" width="3.9206" height="10.4592" rx="1.9603" fill="#6672F8"/>
<rect x="244.107" y="131.451" width="3.9206" height="10.4592" rx="1.9603" fill="#6672F8"/>
<rect x="244.107" y="225.582" width="3.9206" height="10.4592" rx="1.9603" fill="#6672F8"/>
<rect x="244.107" y="256.962" width="3.9206" height="10.4592" rx="1.9603" fill="#6672F8"/>
<rect x="244.107" y="288.339" width="3.9206" height="10.4592" rx="1.9603" fill="#6672F8"/>
<path d="M205.457 108.236C205.457 106.432 206.428 104.768 207.999 103.882L267.51 70.2884C270.843 68.4069 274.968 70.8151 274.968 74.6426V320.051C274.968 322.813 272.729 325.051 269.968 325.051H210.457C207.696 325.051 205.457 322.813 205.457 320.051V108.236Z" stroke="#6672F8" stroke-width="1.5"/>
<path d="M313.316 183.825C313.316 181.954 312.272 180.24 310.609 179.382L270.274 158.565C266.946 156.848 262.981 159.263 262.981 163.008V321.251C262.981 324.012 265.22 326.251 267.981 326.251H308.316C311.078 326.251 313.316 324.012 313.316 321.251V183.825Z" fill="#FACF35"/>
<rect x="168.301" y="206.354" width="70.709" height="59.9474" rx="5" fill="#2A3070"/>
<rect x="145.531" y="146.41" width="70.709" height="59.9474" rx="5" fill="#FACF35"/>
<path d="M178.086 111.857C179.953 110.34 182.636 110.367 184.472 111.922L225.262 146.478C226.683 147.682 225.832 150.004 223.969 150.004H136.782C134.899 150.004 134.06 147.64 135.521 146.452L178.086 111.857Z" fill="#2A3070"/>
<rect x="279.393" y="194.202" width="3.9206" height="10.4592" rx="1.9603" fill="white"/>
<rect x="279.393" y="225.579" width="3.92057" height="10.4592" rx="1.96028" fill="white"/>
<rect x="279.393" y="256.957" width="3.92057" height="10.4592" rx="1.96028" fill="white"/>
<rect x="279.393" y="288.333" width="3.92057" height="10.4591" rx="1.96028" fill="white"/>
<rect x="292.461" y="194.202" width="3.92057" height="10.4592" rx="1.96028" fill="white"/>
<rect x="292.461" y="225.579" width="3.92057" height="10.4592" rx="1.96028" fill="white"/>
<rect x="292.461" y="256.957" width="3.92057" height="10.4592" rx="1.96028" fill="white"/>
<rect x="292.461" y="288.333" width="3.92057" height="10.4591" rx="1.96028" fill="white"/>
<line x1="328.811" y1="284.413" x2="328.811" y2="326.249" stroke="#2A3070" stroke-width="1.5"/>
<path d="M277.141 256.91C274.898 253.59 277.277 249.112 281.284 249.112H347.298C348.959 249.112 350.512 249.938 351.442 251.314L369.285 277.739C371.527 281.06 369.148 285.537 365.141 285.537H299.127C297.466 285.537 295.913 284.712 294.983 283.335L277.141 256.91Z" fill="#000091"/>
<path d="M280.414 256.91C278.172 253.589 280.551 249.112 284.558 249.112H350.571C352.233 249.112 353.786 249.937 354.715 251.314L372.558 277.738C374.8 281.059 372.421 285.536 368.414 285.536H302.401C300.739 285.536 299.186 284.711 298.257 283.334L280.414 256.91Z" fill="#6672F8"/>
<line x1="283.162" y1="260.381" x2="361.079" y2="260.381" stroke="white" stroke-width="1.5"/>
<line x1="291.535" y1="272.403" x2="369.816" y2="272.403" stroke="white" stroke-width="1.5"/>
<line y1="-0.75" x2="43.9385" y2="-0.75" transform="matrix(0.555195 0.83172 -0.83151 0.55551 290.809 249.112)" stroke="white" stroke-width="1.5"/>
<line y1="-0.75" x2="43.9385" y2="-0.75" transform="matrix(0.555195 0.83172 -0.83151 0.55551 306.465 249.112)" stroke="white" stroke-width="1.5"/>
<line y1="-0.75" x2="43.9385" y2="-0.75" transform="matrix(0.555195 0.831721 -0.83151 0.55551 322.119 249.112)" stroke="white" stroke-width="1.5"/>
<line y1="-0.75" x2="43.9385" y2="-0.75" transform="matrix(0.555194 0.831721 -0.831509 0.555511 337.777 249.112)" stroke="white" stroke-width="1.5"/>
<path fill-rule="evenodd" clip-rule="evenodd" d="M155.986 326.746H89.244C89.2182 326.468 89.2051 326.186 89.2051 325.902C89.2051 320.038 94.7991 315.284 101.7 315.284C104.167 315.284 106.468 315.892 108.405 316.941C111.435 313.153 116.546 310.666 122.342 310.666C128.245 310.666 133.439 313.247 136.446 317.154C138.459 315.974 140.9 315.284 143.53 315.284C150.431 315.284 156.025 320.038 156.025 325.902C156.025 326.186 156.012 326.468 155.986 326.746Z" fill="#6672F8"/>
<path fill-rule="evenodd" clip-rule="evenodd" d="M304.957 326.745H345.158C345.226 326.277 345.261 325.801 345.261 325.317C345.261 318.938 339.176 313.766 331.669 313.766C326.993 313.766 322.868 315.773 320.423 318.829C318.859 317.982 317.002 317.491 315.01 317.491C309.441 317.491 304.926 321.328 304.926 326.061C304.926 326.291 304.936 326.52 304.957 326.745Z" fill="#6672F8"/>
</g>
<rect x="0.75" y="18.9456" width="415" height="415" stroke="#E5E5E5"/>
<defs>
<clipPath id="clip0_3028_96102">
<rect width="416" height="416" fill="white" transform="translate(0.25 18.4456)"/>
</clipPath>
</defs>
</svg>
