<svg width="266" height="240" viewBox="0 0 266 240" fill="none" xmlns="http://www.w3.org/2000/svg">
<path opacity="0.03" fill-rule="evenodd" clip-rule="evenodd" d="M126.838 60C93.715 60 66.8633 86.8517 66.8633 119.975C66.8633 153.098 93.715 179.95 126.838 179.95C159.962 179.95 186.813 153.098 186.813 119.975C186.813 86.8517 159.962 60 126.838 60ZM6.86328 119.975C6.86328 53.7147 60.5779 0 126.838 0C193.099 0 246.813 53.7147 246.813 119.975C246.813 186.235 193.099 239.95 126.838 239.95C60.5779 239.95 6.86328 186.235 6.86328 119.975Z" fill="#2A3070"/>
<mask id="path-2-inside-1_3458_26599" fill="white">
<path fill-rule="evenodd" clip-rule="evenodd" d="M102.772 148.713C102.772 139.254 108.438 130.871 115.077 124.133C123.159 115.931 128.079 105.071 128.079 93.1603C128.079 67.5987 105.421 46.877 77.471 46.877C49.5211 46.877 26.8633 67.5987 26.8633 93.1603C26.8633 105.069 31.7809 115.927 39.8603 124.129C46.4981 130.867 52.1641 139.252 52.1641 148.711C52.1641 162.686 63.493 174.155 77.4679 174.155C91.4429 174.155 102.772 162.688 102.772 148.713Z"/>
</mask>
<path d="M127.079 93.1603C127.079 104.786 122.279 115.4 114.365 123.432L115.789 124.835C124.04 116.462 129.079 105.356 129.079 93.1603H127.079ZM77.471 47.877C104.955 47.877 127.079 68.2332 127.079 93.1603H129.079C129.079 66.9642 105.887 45.877 77.471 45.877V47.877ZM27.8633 93.1603C27.8633 68.2332 49.9875 47.877 77.471 47.877V45.877C49.0548 45.877 25.8633 66.9642 25.8633 93.1603H27.8633ZM40.5727 123.427C32.6614 115.396 27.8633 104.784 27.8633 93.1603H25.8633C25.8633 105.354 30.9004 116.458 39.1479 124.83L40.5727 123.427ZM51.1641 148.711C51.1641 163.231 62.9335 175.155 77.4679 175.155L77.4679 173.155C64.0525 173.155 53.1641 162.141 53.1641 148.711H51.1641ZM39.1479 124.83C45.7275 131.51 51.1641 139.652 51.1641 148.711H53.1641C53.1641 138.852 47.2687 130.224 40.5727 123.427L39.1479 124.83ZM77.4679 175.155C92.0022 175.155 103.772 163.233 103.772 148.713H101.772C101.772 162.143 90.8835 173.155 77.4679 173.155L77.4679 175.155ZM114.365 123.432C107.668 130.228 101.772 138.855 101.772 148.713H103.772C103.772 139.654 109.209 131.514 115.789 124.835L114.365 123.432Z" fill="#1EBE8E" mask="url(#path-2-inside-1_3458_26599)"/>
<path d="M78.8926 173.597C70.137 148.062 66.8901 82.6242 58.4821 99.9947C50.5291 116.425 70.0755 134.287 81.0969 106.569C92.1183 78.8504 57.7315 99.0095 78.8926 114.633C100.054 130.256 100.054 103.041 93.8817 99.0095C87.7097 94.9776 81.0969 130.255 78.8926 173.597Z" stroke="#1EBE8E"/>
<rect x="56.9141" y="163.927" width="42.5891" height="8.60439" rx="4.30219" fill="white" stroke="#1EBE8E"/>
<rect x="56.9141" y="172.054" width="42.5891" height="8.60439" rx="4.30219" fill="white" stroke="#1EBE8E"/>
<rect x="56.9141" y="180.18" width="42.5891" height="8.60439" rx="4.30219" fill="white" stroke="#1EBE8E"/>
<path d="M227.902 142.632C226.186 135.106 221.956 116.491 216.417 91.6703C209.122 58.9767 148.688 54.2206 145.913 91.6703C143.522 123.961 139.657 173.044 138.637 185.955C138.499 187.7 139.881 189.158 141.631 189.158H184.258C186.067 189.158 187.464 187.57 187.234 185.776L185.615 173.172C195.063 175.793 205.731 176.973 213.369 177.31C215.044 177.384 216.417 176.03 216.417 174.354V149.291C216.417 147.634 217.76 146.291 219.417 146.291H224.973C226.9 146.291 228.331 144.511 227.902 142.632Z" fill="#FACF35"/>
<path d="M172.938 113.766C166.346 111.483 156.624 112.396 170.466 134.313" stroke="#2A3070" stroke-linecap="round"/>
<ellipse opacity="0.5" cx="30.5057" cy="18.3772" rx="30.5057" ry="18.3772" transform="matrix(-0.995072 -0.0991597 -0.0991597 0.995072 213.453 73.6145)" fill="white"/>
<circle cx="199.47" cy="69.8542" r="7.885" stroke="#2A3070" stroke-width="2.85"/>
<path d="M159.793 54.1942C160.111 53.8038 160.614 53.613 161.111 53.6936L164.192 54.1929C164.689 54.2735 165.106 54.6133 165.285 55.0842L166.393 58.0022C166.572 58.4732 166.486 59.0037 166.167 59.3941L164.194 61.8128C163.876 62.2031 163.373 62.3939 162.876 62.3133L159.795 61.814C159.298 61.7334 158.881 61.3937 158.702 60.9227L157.594 58.0047C157.415 57.5338 157.501 57.0032 157.82 56.6129L159.793 54.1942Z" fill="#2A3070"/>
<path d="M186.795 82.9298C187.477 82.9298 188.107 83.2935 188.448 83.8841L191.74 89.5865C192.081 90.177 192.081 90.9046 191.74 91.4952L188.448 97.1976C188.107 97.7881 187.477 98.1519 186.795 98.1519L180.21 98.1519C179.528 98.1519 178.898 97.7881 178.557 97.1976L175.265 91.4952C174.924 90.9046 174.924 90.177 175.265 89.5865L178.557 83.8841C178.898 83.2935 179.528 82.9298 180.21 82.9298L186.795 82.9298Z" stroke="#6672F8"/>
<path d="M176.473 76.9882C176.473 55.0293 189.02 35.3112 201.131 50.0074C209.864 60.6053 170.647 54.1331 208.291 38" stroke="#1EBE8E" stroke-linecap="round" stroke-linejoin="round"/>
<mask id="path-15-inside-2_3458_26599" fill="white">
<path fill-rule="evenodd" clip-rule="evenodd" d="M166.863 33.4202C166.863 33.4204 166.863 33.4206 166.863 33.4209C166.89 33.4207 166.916 33.4205 166.943 33.4205C171.623 33.4205 175.419 37.2021 175.443 41.8761C175.467 37.2288 179.22 33.4637 183.863 33.4209L183.863 33.4202C179.232 33.3774 175.486 29.6311 175.443 24.9998C175.443 24.9998 175.443 24.9998 175.443 24.9998C175.4 29.6577 171.611 33.4205 166.943 33.4205C166.916 33.4205 166.89 33.4204 166.863 33.4202ZM175.443 41.9997L175.443 41.9997L175.443 41.9657L175.443 41.9997Z"/>
</mask>
<path fill-rule="evenodd" clip-rule="evenodd" d="M166.863 33.4202C166.863 33.4204 166.863 33.4206 166.863 33.4209C166.89 33.4207 166.916 33.4205 166.943 33.4205C171.623 33.4205 175.419 37.2021 175.443 41.8761C175.467 37.2288 179.22 33.4637 183.863 33.4209L183.863 33.4202C179.232 33.3774 175.486 29.6311 175.443 24.9998C175.443 24.9998 175.443 24.9998 175.443 24.9998C175.4 29.6577 171.611 33.4205 166.943 33.4205C166.916 33.4205 166.89 33.4204 166.863 33.4202ZM175.443 41.9997L175.443 41.9997L175.443 41.9657L175.443 41.9997Z" fill="#FCA081"/>
<path d="M166.863 33.4209L165.863 33.4118L165.854 34.4302L166.872 34.4209L166.863 33.4209ZM166.863 33.4202L166.872 32.4202L165.873 32.411L165.863 33.411L166.863 33.4202ZM175.443 41.8761L174.443 41.8813L176.443 41.8813L175.443 41.8761ZM183.863 33.4209L183.873 34.4209L184.873 34.4116L184.863 33.4108L183.863 33.4209ZM183.863 33.4202L184.863 33.41L184.853 32.4292L183.873 32.4202L183.863 33.4202ZM175.443 24.9998L176.443 24.9906L176.434 24.0088L175.453 23.9998L175.443 24.9998ZM175.443 24.9998L175.452 23.9998L174.452 23.9907L174.443 24.9906L175.443 24.9998ZM175.443 41.9997L174.443 41.9925L174.436 43.0076L175.451 42.9997L175.443 41.9997ZM175.443 41.9997L175.451 42.9997L176.45 42.9919L176.443 41.9926L175.443 41.9997ZM175.443 41.9657L176.443 41.9586L174.443 41.9585L175.443 41.9657ZM167.863 33.43L167.863 33.4293L165.863 33.411L165.863 33.4118L167.863 33.43ZM166.943 32.4205C166.913 32.4205 166.884 32.4207 166.854 32.4209L166.872 34.4209C166.896 34.4206 166.919 34.4205 166.943 34.4205V32.4205ZM176.443 41.871C176.416 36.647 172.173 32.4205 166.943 32.4205V34.4205C171.072 34.4205 174.422 37.7572 174.443 41.8813L176.443 41.871ZM183.854 32.4209C178.665 32.4688 174.47 36.6768 174.443 41.871L176.443 41.8813C176.464 37.7809 179.776 34.4587 183.873 34.4209L183.854 32.4209ZM182.863 33.4303L182.863 33.4311L184.863 33.4108L184.863 33.41L182.863 33.4303ZM174.443 25.0089C174.491 30.1853 178.678 34.3723 183.854 34.4201L183.873 32.4202C179.786 32.3825 176.481 29.0768 176.443 24.9906L174.443 25.0089ZM175.434 25.9997L175.434 25.9997L175.453 23.9998L175.452 23.9998L175.434 25.9997ZM174.443 24.9906C174.405 29.1004 171.062 32.4205 166.943 32.4205V34.4205C172.16 34.4205 176.395 30.2151 176.443 25.0089L174.443 24.9906ZM166.943 32.4205C166.919 32.4205 166.896 32.4204 166.872 32.4202L166.854 34.4201C166.884 34.4204 166.913 34.4205 166.943 34.4205V32.4205ZM175.451 42.9997L175.451 42.9997L175.436 40.9998L175.435 40.9998L175.451 42.9997ZM174.443 41.9585L174.443 41.9925L176.443 42.0069L176.443 41.9729L174.443 41.9585ZM176.443 41.9926L176.443 41.9586L174.443 41.9728L174.443 42.0069L176.443 41.9926Z" fill="#FCA081" mask="url(#path-15-inside-2_3458_26599)"/>
<path fill-rule="evenodd" clip-rule="evenodd" d="M157.842 169.635C157.842 169.635 157.842 169.635 157.842 169.635C157.843 169.635 157.843 169.636 157.843 169.636V184.378C157.843 187.14 155.604 189.378 152.843 189.378H133.43C130.668 189.378 128.43 187.14 128.43 184.378V170.222C128.43 169.898 128.692 169.635 129.017 169.635C129.168 169.635 129.314 169.577 129.423 169.472L149.383 150.344C152.562 147.297 157.842 149.55 157.842 153.954V169.635Z" fill="#2A3070"/>
<path fill-rule="evenodd" clip-rule="evenodd" d="M136.889 169.635C136.889 169.635 136.889 169.635 136.889 169.635C136.889 169.635 136.889 169.636 136.889 169.636V184.378C136.889 187.14 134.651 189.378 131.889 189.378H112.477C109.715 189.378 107.477 187.14 107.477 184.378V170.222C107.477 169.898 107.739 169.635 108.064 169.635C108.215 169.635 108.36 169.577 108.47 169.472L128.43 150.344C131.609 147.297 136.889 149.55 136.889 153.954V169.635Z" fill="#2A3070"/>
<path fill-rule="evenodd" clip-rule="evenodd" d="M115.132 169.635C115.132 169.635 115.132 169.635 115.132 169.635C115.132 169.635 115.132 169.636 115.132 169.636V184.378C115.132 187.14 112.893 189.378 110.132 189.378H90.7187C87.9573 189.378 85.7188 187.14 85.7188 184.378V170.222C85.7188 169.898 85.9815 169.635 86.3057 169.635C86.4571 169.635 86.6026 169.577 86.7119 169.472L106.672 150.344C109.851 147.297 115.132 149.55 115.132 153.954V169.635Z" fill="#2A3070"/>
<path d="M79.3356 129.721C80.2116 124.077 88.3413 124.077 89.2173 129.721L97.5957 183.704C98.0661 186.735 95.7219 189.471 92.6548 189.471H75.8981C72.831 189.471 70.4869 186.735 70.9573 183.704L79.3356 129.721Z" fill="#6672F8"/>
<circle cx="105.863" cy="57.877" r="15.5" fill="white" stroke="#2A3070"/>
<mask id="path-22-inside-3_3458_26599" fill="white">
<path fill-rule="evenodd" clip-rule="evenodd" d="M105.975 73.877C111.396 70.6007 115.02 64.6508 115.02 57.8544C115.02 51.0892 111.429 45.1626 106.049 41.877C100.628 45.1533 97.0039 51.1032 97.0039 57.8996C97.0039 64.6648 100.595 70.5914 105.975 73.877Z"/>
</mask>
<path d="M105.975 73.877L105.454 74.7305L105.972 75.0471L106.492 74.7329L105.975 73.877ZM106.049 41.877L106.57 41.0235L106.052 40.7069L105.532 41.0211L106.049 41.877ZM114.02 57.8544C114.02 64.2863 110.592 69.9184 105.458 73.0212L106.492 74.7329C112.2 71.283 116.02 65.0153 116.02 57.8544H114.02ZM105.528 42.7304C110.623 45.842 114.02 51.4519 114.02 57.8544H116.02C116.02 50.7264 112.235 44.4832 106.57 41.0235L105.528 42.7304ZM98.0039 57.8996C98.0039 51.4677 101.432 45.8356 106.566 42.7328L105.532 41.0211C99.8236 44.471 96.0039 50.7387 96.0039 57.8996H98.0039ZM106.496 73.0236C101.401 69.912 98.0039 64.3021 98.0039 57.8996H96.0039C96.0039 65.0276 99.7887 71.2708 105.454 74.7305L106.496 73.0236Z" fill="#2A3070" mask="url(#path-22-inside-3_3458_26599)"/>
<line x1="90.1641" y1="57.5266" x2="121.865" y2="57.5266" stroke="#2A3070"/>
<line x1="92.957" y1="49.7507" x2="118.757" y2="49.7507" stroke="#2A3070"/>
<line x1="91.957" y1="65.3022" x2="119.471" y2="65.3022" stroke="#2A3070"/>
<line x1="106.062" y1="42.176" x2="106.062" y2="73.877" stroke="#2A3070"/>
<path d="M50.8647 139.947C24.5104 158.872 9.74026 175.761 14.0388 184.606C21.3147 199.576 80.467 185.828 146.159 153.9C211.851 121.972 259.207 83.9529 251.931 68.9828C247.763 60.4058 226.565 61.2557 196.865 69.5508M127.365 96.0832C133.723 93.1041 140.001 90.3022 146.159 87.6873" stroke="#FCA081"/>
<path d="M123.349 45.5104C125.451 48.7241 126.076 52.5046 125.981 55.614C125.933 57.1666 125.706 58.5355 125.403 59.5635C125.252 60.0782 125.085 60.4966 124.919 60.806C124.745 61.1294 124.6 61.2805 124.52 61.3305C124.433 61.3847 124.226 61.4528 123.856 61.4786C123.501 61.5033 123.047 61.486 122.514 61.417C121.447 61.2792 120.103 60.9403 118.664 60.3656C115.782 59.2148 112.58 57.1425 110.478 53.9292C108.362 50.6945 107.503 47.0803 107.479 44.0769C107.467 42.5752 107.664 41.2414 108.006 40.1946C108.351 39.1379 108.823 38.4364 109.313 38.105C109.955 37.7067 110.863 37.5302 111.977 37.6236C113.09 37.7168 114.37 38.0771 115.706 38.7053C118.379 39.9617 121.226 42.2649 123.349 45.5104Z" fill="#6672F8" stroke="#6672F8" stroke-linecap="round"/>
<path d="M111.918 42.3081C117.833 48.287 121.363 54.3769 124.863 61.3769" stroke="white" stroke-linecap="round"/>
<path d="M115.431 52.8314C116.7 53.1178 119.635 53.9435 121.231 54.9552C121.224 50.8493 121.208 49.1922 121.201 48.8769" stroke="white" stroke-linecap="round"/>
<path d="M111.074 46.8805C112.364 47.0439 115.366 47.5841 117.051 48.4381C116.65 44.3518 116.475 42.7039 116.438 42.3907" stroke="white" stroke-linecap="round"/>
<rect x="162.863" y="84.2666" width="5" height="21" rx="2.5" transform="rotate(-61.3996 162.863 84.2666)" fill="#FCA081"/>
</svg>
