<svg width="437" height="436" viewBox="0 0 437 436" fill="none" xmlns="http://www.w3.org/2000/svg">
<rect x="0.000244141" y="0.866577" width="123.251" height="123.251" rx="8" fill="#FACF35"/>
<rect x="20.5281" y="19.8542" width="414.972" height="414.972" fill="white"/>
<g clip-path="url(#clip0_3028_104891)">
<rect width="416" height="416" transform="translate(20.0281 19.3542)" fill="white"/>
<mask id="path-3-inside-1_3028_104891" fill="white">
<path fill-rule="evenodd" clip-rule="evenodd" d="M108.128 236.175L62.3128 186.75L61.4661 185.862L107.282 235.287L108.128 236.175ZM69.925 187.195C91.4048 208.229 109.116 225.564 109.484 225.915C109.852 226.265 92.7372 209.497 71.2574 188.463C49.7776 167.429 32.0665 150.094 31.6986 149.743C31.3307 149.393 48.4452 166.161 69.925 187.195Z"/>
</mask>
<path fill-rule="evenodd" clip-rule="evenodd" d="M108.128 236.175L62.3128 186.75L61.4661 185.862L107.282 235.287L108.128 236.175ZM69.925 187.195C91.4048 208.229 109.116 225.564 109.484 225.915C109.852 226.265 92.7372 209.497 71.2574 188.463C49.7776 167.429 32.0665 150.094 31.6986 149.743C31.3307 149.393 48.4452 166.161 69.925 187.195Z" fill="#FACF35"/>
<path d="M62.3128 186.75L63.4512 185.303L63.4451 185.297L62.3128 186.75ZM108.128 236.175L106.996 237.628L109.267 234.728L108.128 236.175ZM61.4661 185.862L62.5985 184.409L60.3277 187.309L61.4661 185.862ZM107.282 235.287L106.143 236.734L106.149 236.74L107.282 235.287ZM109.484 225.915L110.595 224.44L109.484 225.915ZM69.925 187.195L68.8078 188.663L69.925 187.195ZM71.2574 188.463L72.3746 186.995L71.2574 188.463ZM31.6986 149.743L32.8095 148.269L32.8095 148.269L31.6986 149.743ZM61.1744 188.197L106.99 237.622L109.267 234.728L63.4511 185.303L61.1744 188.197ZM60.3338 187.315L61.1804 188.203L63.4451 185.297L62.5985 184.409L60.3338 187.315ZM108.42 233.84L62.6045 184.415L60.3277 187.309L106.143 236.733L108.42 233.84ZM109.261 234.722L108.414 233.833L106.149 236.74L106.996 237.628L109.261 234.722ZM110.595 224.44C110.231 224.094 92.5259 206.764 71.0422 185.726L68.8078 188.663C90.2838 209.694 108.001 227.035 108.373 227.389L110.595 224.44ZM70.1402 189.932C80.8801 200.449 90.5287 209.899 97.4462 216.677C100.905 220.065 103.681 222.786 105.569 224.637C106.514 225.563 107.236 226.271 107.71 226.737C107.948 226.97 108.123 227.142 108.233 227.25C108.288 227.305 108.326 227.342 108.347 227.363C108.36 227.376 108.362 227.378 108.359 227.375C108.358 227.374 108.354 227.37 108.352 227.368C108.348 227.364 108.334 227.347 108.324 227.336C108.259 227.24 108.812 225.066 110.502 224.369C110.534 224.391 110.573 224.421 110.581 224.428C110.592 224.437 110.601 224.446 110.595 224.44L108.373 227.389C108.375 227.391 108.378 227.394 108.38 227.396C108.381 227.397 108.388 227.404 108.398 227.412C108.405 227.419 108.445 227.449 108.477 227.471C110.167 226.774 110.72 224.6 110.655 224.504C110.645 224.492 110.631 224.476 110.626 224.471C110.624 224.469 110.62 224.464 110.618 224.463C110.61 224.454 110.597 224.442 110.588 224.432C110.565 224.409 110.525 224.37 110.47 224.316C110.359 224.206 110.183 224.034 109.946 223.801C109.471 223.334 108.748 222.626 107.804 221.7C105.916 219.849 103.14 217.128 99.6808 213.74C92.7631 206.962 83.1145 197.512 72.3746 186.995L70.1402 189.932ZM30.5877 151.218C30.9514 151.564 48.6565 168.894 70.1402 189.932L72.3746 186.995C50.8987 165.964 33.1816 148.623 32.8095 148.269L30.5877 151.218ZM71.0422 185.726C60.3023 175.209 50.6538 165.759 43.7362 158.981C40.2774 155.593 37.5014 152.872 35.6131 151.021C34.6689 150.095 33.9468 149.387 33.4722 148.921C33.2349 148.688 33.0597 148.516 32.9497 148.408C32.8945 148.353 32.8564 148.316 32.8352 148.295C32.8223 148.282 32.8208 148.28 32.8237 148.283C32.8248 148.285 32.8282 148.288 32.8302 148.29C32.8342 148.295 32.8485 148.311 32.8584 148.323C32.9234 148.418 32.3703 150.592 30.6806 151.289C30.6479 151.267 30.609 151.237 30.6014 151.231C30.5902 151.221 30.5814 151.212 30.5877 151.218L32.8095 148.269C32.8074 148.267 32.8049 148.264 32.8022 148.262C32.8014 148.261 32.794 148.254 32.7849 148.246C32.777 148.239 32.7378 148.209 32.705 148.187C31.0152 148.884 30.4621 151.058 30.5272 151.154C30.5374 151.166 30.5519 151.182 30.5563 151.187C30.5588 151.19 30.5627 151.194 30.5645 151.196C30.5729 151.204 30.5852 151.217 30.5946 151.226C30.6179 151.249 30.6577 151.288 30.7128 151.343C30.8236 151.452 30.9994 151.624 31.2367 151.857C31.7116 152.324 32.434 153.032 33.3782 153.958C35.2667 155.809 38.0428 158.53 41.5016 161.918C48.4193 168.696 58.0679 178.146 68.8078 188.663L71.0422 185.726Z" fill="#FACF35" mask="url(#path-3-inside-1_3028_104891)"/>
<path d="M68.8846 223.436C74.9926 215.61 96.9785 189.568 88.0831 199.373C79.6693 208.648 79.8259 209.934 93.2298 195.035C106.634 180.136 88.1826 199.2 89.6611 199.057C91.1396 198.914 100.729 187.662 100.112 187.92C99.4963 188.179 84.8837 204.828 68.8846 223.436Z" stroke="#2A3070" stroke-width="1.5"/>
<path d="M151.285 257.886C137.328 242.766 110.67 213.884 115.692 219.313C120.714 224.742 141.513 247.291 151.285 257.886Z" stroke="#2A3070" stroke-width="1.5"/>
<line x1="0.75" y1="-0.75" x2="32.3727" y2="-0.75" transform="matrix(-0.607973 -0.795793 0.608577 0.794775 140.71 257.077)" stroke="#2A3070" stroke-width="1.5" stroke-linecap="round"/>
<ellipse cx="26.8386" cy="35.0237" rx="26.8386" ry="35.0237" transform="matrix(-0.606692 0.60672 -0.606703 0.606673 441.743 128.068)" fill="#FCA081"/>
<path d="M417.079 154.102L403.515 167.267L388.923 181.429C385.178 185.064 385.178 185.064 388.923 181.429C392.669 177.794 398.741 171.9 402.486 168.264L417.079 154.102Z" stroke="#2A3070" stroke-width="1.5"/>
<line x1="0.75" y1="-0.75" x2="10.6812" y2="-0.75" transform="matrix(0.560951 -0.750111 -0.560942 0.75014 400.34 158.238)" stroke="#2A3070" stroke-width="1.5" stroke-linecap="round"/>
<line x1="0.75" y1="-0.75" x2="10.6815" y2="-0.75" transform="matrix(0.560958 -0.750089 -0.560949 0.750117 413.047 167.742)" stroke="#2A3070" stroke-width="1.5" stroke-linecap="round"/>
<line y1="-0.75" x2="36.2992" y2="-0.75" transform="matrix(-0.629923 0.471071 -0.62993 0.471026 413.719 158.931)" stroke="#2A3070" stroke-width="1.5"/>
<path d="M406.196 180.59C396.265 200.303 366.343 259.702 326.105 339.595" stroke="#2A3070" stroke-width="1.5"/>
<path d="M360.215 229.731C356.041 222.9 346.211 206.808 340.277 197.095C334.343 187.382 351.096 214.805 360.215 229.731Z" stroke="#2A3070" stroke-width="1.5" stroke-linecap="round" stroke-linejoin="bevel"/>
<line x1="0.75" y1="-0.75" x2="34.6413" y2="-0.75" transform="matrix(-0.424852 -0.835468 -0.424848 -0.83547 362.427 233.722)" stroke="#2A3070" stroke-width="1.5" stroke-linecap="round" stroke-linejoin="bevel"/>
<path d="M403.152 235.596C384.165 226.794 350.752 211.296 368.991 219.72C387.231 228.144 399.365 233.814 403.152 235.596Z" stroke="#2A3070" stroke-width="1.5" stroke-linecap="round" stroke-linejoin="bevel"/>
<line x1="0.75" y1="-0.75" x2="198.734" y2="-0.75" transform="matrix(-0.158583 -0.0500141 0.15866 0.0495427 395.025 235.235)" stroke="#2A3070" stroke-width="1.5" stroke-linecap="round" stroke-linejoin="bevel"/>
<path d="M95.0481 223.311C117.923 253.375 144.718 294.548 144.718 360.459" stroke="#2A3070" stroke-width="1.5"/>
<line x1="277.944" y1="186.357" x2="277.944" y2="242.563" stroke="#2A3070" stroke-width="1.5"/>
<line x1="215.308" y1="165.856" x2="215.308" y2="224.676" stroke="#2A3070" stroke-width="1.5"/>
<path d="M119.181 112.998C116.938 109.677 119.317 105.199 123.324 105.199H247.378C249.039 105.199 250.592 106.024 251.521 107.4L287.645 160.875C289.888 164.196 287.509 168.674 283.501 168.674H159.447C157.786 168.674 156.234 167.849 155.304 166.473L119.181 112.998Z" fill="#6672F8"/>
<path d="M124.894 112.998C122.651 109.677 125.03 105.199 129.037 105.199H253.091C254.752 105.199 256.304 106.024 257.234 107.4L293.357 160.875C295.601 164.196 293.222 168.674 289.214 168.674H165.16C163.499 168.674 161.947 167.849 161.017 166.473L124.894 112.998Z" fill="#2A3070"/>
<line x1="133.589" y1="125.398" x2="269.426" y2="125.398" stroke="white" stroke-width="1.5"/>
<line x1="148.194" y1="146.35" x2="284.666" y2="146.35" stroke="white" stroke-width="1.5"/>
<line x1="147.545" y1="104.782" x2="190.073" y2="168.467" stroke="white" stroke-width="1.5"/>
<line y1="-0.75" x2="76.5791" y2="-0.75" transform="matrix(0.555353 0.831615 -0.831615 0.555352 174.214 105.199)" stroke="white" stroke-width="1.5"/>
<line y1="-0.75" x2="76.5791" y2="-0.75" transform="matrix(0.555353 0.831615 -0.831615 0.555352 201.512 105.199)" stroke="white" stroke-width="1.5"/>
<line x1="229.425" y1="104.782" x2="271.954" y2="168.467" stroke="white" stroke-width="1.5"/>
<path d="M229.68 276.447C229.68 270.924 234.157 266.447 239.68 266.447H344.705V359.48C344.705 362.241 342.467 364.48 339.705 364.48H239.68C234.157 364.48 229.68 360.003 229.68 354.48V276.447Z" fill="#1EBE8E"/>
<path d="M244.045 267.223L207.366 218.785L286.446 218.785L344.703 267.223L244.045 267.223Z" fill="#FACF35"/>
<path d="M139.486 269.627C139.486 268.036 140.243 266.54 141.525 265.598L204.495 219.324C206.257 218.029 208.655 218.029 210.417 219.324L273.386 265.598C274.668 266.54 275.426 268.036 275.426 269.627V359.851C275.426 362.613 273.187 364.851 270.426 364.851H144.486C141.725 364.851 139.486 362.613 139.486 359.851V269.627Z" fill="#2A3070"/>
<path d="M190.463 340.3C190.463 332.72 196.608 326.576 204.188 326.576C211.767 326.576 217.912 332.72 217.912 340.3V364.482H190.463V340.3Z" fill="#FACF35"/>
<path d="M206.188 147.448C203.945 144.127 206.324 139.649 210.331 139.649H302.951C304.612 139.649 306.165 140.474 307.095 141.85L333.316 180.668C335.559 183.988 333.18 188.467 329.173 188.467H236.553C234.892 188.467 233.339 187.642 232.409 186.265L206.188 147.448Z" fill="#000091"/>
<path d="M210.578 147.454C208.335 144.134 210.714 139.655 214.722 139.655H307.342C309.003 139.655 310.555 140.48 311.485 141.857L337.707 180.674C339.95 183.995 337.571 188.473 333.563 188.473H240.943C239.282 188.473 237.73 187.648 236.8 186.272L210.578 147.454Z" fill="#6672F8"/>
<line x1="216.045" y1="155.007" x2="320.514" y2="155.007" stroke="white" stroke-width="1.5"/>
<line x1="227.28" y1="171.127" x2="332.237" y2="171.127" stroke="white" stroke-width="1.5"/>
<line x1="226.927" y1="139.239" x2="259.635" y2="188.217" stroke="white" stroke-width="1.5"/>
<line y1="-0.75" x2="58.8952" y2="-0.75" transform="matrix(0.555352 0.831615 -0.831615 0.555353 247.293 139.655)" stroke="white" stroke-width="1.5"/>
<line x1="268.907" y1="139.239" x2="301.615" y2="188.217" stroke="white" stroke-width="1.5"/>
<line x1="289.902" y1="139.239" x2="322.61" y2="188.217" stroke="white" stroke-width="1.5"/>
<line x1="183.375" y1="261.969" x2="183.375" y2="303.604" stroke="white" stroke-width="1.5" stroke-linecap="round"/>
<line x1="205.591" y1="261.969" x2="205.591" y2="303.604" stroke="white" stroke-width="1.5" stroke-linecap="round"/>
<line x1="227.82" y1="261.969" x2="227.82" y2="303.604" stroke="white" stroke-width="1.5" stroke-linecap="round"/>
<path d="M293.372 77.3C291.116 85.6637 282.507 90.6146 274.143 88.358C265.779 86.1015 260.828 77.4921 263.085 69.1284" stroke="#FACF35" stroke-width="6.5"/>
<circle cx="183.929" cy="270.36" r="5.22844" fill="#FACF35"/>
<circle cx="206.148" cy="293.895" r="5.22844" fill="#FACF35"/>
<circle cx="228.368" cy="288.669" r="5.22844" fill="#FACF35"/>
<path opacity="0.2" fill-rule="evenodd" clip-rule="evenodd" d="M367.06 116.51H300.305C300.28 116.231 300.267 115.95 300.267 115.666C300.267 109.803 305.862 105.05 312.764 105.05C315.231 105.05 317.531 105.657 319.469 106.706C322.5 102.921 327.611 100.436 333.405 100.436C339.31 100.436 344.505 103.016 347.512 106.923C349.527 105.742 351.969 105.05 354.602 105.05C361.504 105.05 367.099 109.803 367.099 115.666C367.099 115.95 367.086 116.231 367.06 116.51Z" fill="#6672F8"/>
<circle opacity="0.03" cx="229.596" cy="244.573" r="128.521" stroke="#2A3070" stroke-width="60"/>
</g>
<rect x="20.5281" y="19.8542" width="414.972" height="414.972" stroke="#E5E5E5"/>
<defs>
<clipPath id="clip0_3028_104891">
<rect width="416" height="416" fill="white" transform="translate(20.0281 19.3542)"/>
</clipPath>
</defs>
</svg>
