<svg width="243" height="208" viewBox="0 0 243 208" fill="none" xmlns="http://www.w3.org/2000/svg">
<mask id="path-1-inside-1_4171_28405" fill="white">
<path fill-rule="evenodd" clip-rule="evenodd" d="M38.4168 82.2594C36.8235 79.524 37.1961 75.7476 37.9699 72.3115C38.7403 68.8909 38.3619 65.4043 36.6343 62.4228C32.5439 55.3636 22.4386 53.8094 14.0635 58.9514C5.68838 64.0934 2.21492 73.9844 6.30532 81.0435C8.28817 84.4655 11.6844 86.5939 15.6119 87.293C18.6563 87.8349 21.6229 89.1934 23.3237 92.1132L23.7852 92.9055C25.9452 96.6139 30.195 97.6833 33.8656 95.4422L35.2906 94.5722C39.2531 92.1529 40.7487 86.2627 38.4168 82.2594Z"/>
</mask>
<path fill-rule="evenodd" clip-rule="evenodd" d="M38.4168 82.2594C36.8235 79.524 37.1961 75.7476 37.9699 72.3115C38.7403 68.8909 38.3619 65.4043 36.6343 62.4228C32.5439 55.3636 22.4386 53.8094 14.0635 58.9514C5.68838 64.0934 2.21492 73.9844 6.30532 81.0435C8.28817 84.4655 11.6844 86.5939 15.6119 87.293C18.6563 87.8349 21.6229 89.1934 23.3237 92.1132L23.7852 92.9055C25.9452 96.6139 30.195 97.6833 33.8656 95.4422L35.2906 94.5722C39.2531 92.1529 40.7487 86.2627 38.4168 82.2594Z" fill="#FACF35"/>
<path d="M36.6343 62.4228L37.7848 61.4191L36.6343 62.4228ZM14.0635 58.9514L14.597 60.3787L14.0635 58.9514ZM6.30532 81.0435L7.4558 80.0398L6.30532 81.0435ZM15.6119 87.293L15.2845 88.8989L15.6119 87.293ZM23.3237 92.1132L24.4725 91.1066L23.3237 92.1132ZM37.9699 72.3115L36.6508 72.0354L37.9699 72.3115ZM35.4839 63.4266C36.9976 66.039 37.3212 69.0584 36.6508 72.0354L39.2891 72.5876C40.1593 68.7234 39.7263 64.7696 37.7848 61.4191L35.4839 63.4266ZM14.597 60.3787C22.536 55.5045 31.8481 57.152 35.4839 63.4266L37.7848 61.4191C33.2398 53.5752 22.3413 52.1144 13.53 57.5241L14.597 60.3787ZM7.4558 80.0398C5.67002 76.9579 5.53181 73.2891 6.76511 69.7772C8.0087 66.236 10.6813 62.7828 14.597 60.3787L13.53 57.5241C9.07059 60.262 5.8189 64.3253 4.25458 68.7798C2.67996 73.2637 2.85022 78.07 5.15484 82.0473L7.4558 80.0398ZM15.9393 85.6871C12.2682 85.0336 9.20791 83.0636 7.4558 80.0398L5.15484 82.0473C7.36842 85.8675 11.1007 88.1542 15.2845 88.8989L15.9393 85.6871ZM24.934 91.8989L24.4725 91.1066L22.1748 93.1199L22.6363 93.9121L24.934 91.8989ZM34.7602 93.143L33.3353 94.013L34.396 96.8714L35.821 96.0014L34.7602 93.143ZM22.6363 93.9121C25.1562 98.2382 30.1139 99.4858 34.396 96.8714L33.3353 94.013C30.2761 95.8808 26.7342 94.9895 24.934 91.8989L22.6363 93.9121ZM15.2845 88.8989C18.1806 89.4144 20.7478 90.67 22.1748 93.1199L24.4725 91.1066C22.498 87.7168 19.1319 86.2554 15.9393 85.6871L15.2845 88.8989ZM35.821 96.0014C40.5674 93.1035 42.3588 86.048 39.5657 81.2528L37.268 83.266C39.1385 86.4774 37.9389 91.2023 34.7602 93.143L35.821 96.0014ZM36.6508 72.0354C35.8643 75.5275 35.3314 79.9414 37.268 83.266L39.5657 81.2528C38.3155 79.1066 38.5279 75.9676 39.2891 72.5876L36.6508 72.0354Z" fill="#FACF35" mask="url(#path-1-inside-1_4171_28405)"/>
<path d="M35.3668 91.8693C28.8914 87.575 17.3302 73.0024 17.9678 78.594C18.571 83.883 26.6208 84.3918 24.975 75.9144C23.3292 67.437 17.6097 78.5051 25.7166 78.1943C33.8234 77.8836 29.3695 71.5721 27.0909 71.7844C24.8123 71.9968 28.8516 81.4078 35.3668 91.8693Z" stroke="#2A3070" stroke-width="1.5"/>
<path d="M49.6641 111.473C53.0127 102.719 60.8323 86.1799 65.3217 90.0559C69.8111 93.932 56.7539 105.949 49.6641 111.473Z" stroke="#2A3070" stroke-width="1.5"/>
<line x1="0.75" y1="-0.75" x2="18.3316" y2="-0.75" transform="matrix(0.60214 -0.788164 0.770009 0.576736 49.9824 111.239)" stroke="#2A3070" stroke-width="1.5" stroke-linecap="round"/>
<ellipse cx="15.4055" cy="15.2831" rx="15.4055" ry="15.2831" transform="matrix(0.809554 0.593675 -0.585123 0.802731 208.295 37.6309)" fill="#FCA081"/>
<path d="M206.237 53.0139L218.671 62.0953L216.593 65.0385C214.151 68.4967 209.388 69.2672 205.954 66.7594C202.52 64.2517 201.716 59.4153 204.158 55.9572L206.237 53.0139Z" stroke="#2A3070" stroke-width="1.5"/>
<line x1="0.75" y1="-0.75" x2="5.52919" y2="-0.75" transform="matrix(0.582682 -0.779155 0.804748 0.553084 209.613 54.843)" stroke="#2A3070" stroke-width="1.5" stroke-linecap="round"/>
<line x1="0.75" y1="-0.75" x2="5.52916" y2="-0.75" transform="matrix(0.58268 -0.779158 0.804748 0.553086 216.863 60.2661)" stroke="#2A3070" stroke-width="1.5" stroke-linecap="round"/>
<line y1="-0.75" x2="16.519" y2="-0.75" transform="matrix(0.789795 0.590635 -0.556151 0.809599 204.203 55.2405)" stroke="#2A3070" stroke-width="1.5"/>
<path d="M206.467 67.4132C196.367 79.3773 175.682 114.346 173.74 158.508" stroke="#2A3070" stroke-width="1.5"/>
<path d="M187.796 98.1065C181.29 91.5157 169.805 77.6772 175.916 75.0505C182.028 72.4239 186.383 89.3268 187.796 98.1065Z" stroke="#2A3070" stroke-width="1.5" stroke-linecap="round" stroke-linejoin="bevel"/>
<line x1="0.75" y1="-0.75" x2="18.8297" y2="-0.75" transform="matrix(-0.438166 -0.861638 0.90537 -0.431212 187.984 97.9104)" stroke="#2A3070" stroke-width="1.5" stroke-linecap="round" stroke-linejoin="bevel"/>
<path d="M187.776 98.9163C195.929 93.8585 212.502 84.9991 213.564 90.0235C214.626 95.0479 196.814 98.0456 187.776 98.9163Z" stroke="#2A3070" stroke-width="1.5" stroke-linecap="round" stroke-linejoin="bevel"/>
<line x1="0.75" y1="-0.75" x2="18.0458" y2="-0.75" transform="matrix(0.960306 -0.302862 0.279874 0.943593 188.533 98.7822)" stroke="#2A3070" stroke-width="1.5" stroke-linecap="round" stroke-linejoin="bevel"/>
<path d="M35.4219 91.9736C48.4732 109.127 63.7617 132.619 63.7617 170.225" stroke="#2A3070" stroke-width="1.5"/>
<line x1="140.102" y1="70.8896" x2="140.102" y2="102.959" stroke="#2A3070" stroke-width="1.5"/>
<line x1="104.359" y1="59.1919" x2="104.359" y2="92.7524" stroke="#2A3070" stroke-width="1.5"/>
<path d="M51.4538 32.3828C49.2106 29.0621 51.5897 24.584 55.597 24.584H121.195C122.856 24.584 124.409 25.4088 125.339 26.7852L143.048 53.0018C145.291 56.3225 142.912 60.8006 138.905 60.8006H73.3067C71.6457 60.8006 70.0932 59.9758 69.1634 58.5994L51.4538 32.3828Z" fill="#6672F8"/>
<path d="M54.7135 32.3826C52.4704 29.0619 54.8495 24.5837 58.8568 24.5837H124.455C126.116 24.5837 127.669 25.4086 128.598 26.7849L146.308 53.0016C148.551 56.3222 146.172 60.8004 142.165 60.8004H76.5665C74.9055 60.8004 73.353 59.9756 72.4232 58.5992L54.7135 32.3826Z" fill="#2A3070"/>
<line x1="57.4121" y1="35.7859" x2="134.916" y2="35.7859" stroke="white" stroke-width="1.5"/>
<line x1="65.7441" y1="47.741" x2="143.61" y2="47.741" stroke="white" stroke-width="1.5"/>
<line x1="65.6413" y1="24.1672" x2="89.9064" y2="60.5032" stroke="white" stroke-width="1.5"/>
<line y1="-0.75" x2="43.6932" y2="-0.75" transform="matrix(0.555353 0.831615 -0.831615 0.555352 80.5918 24.5837)" stroke="white" stroke-width="1.5"/>
<line y1="-0.75" x2="43.6932" y2="-0.75" transform="matrix(0.555353 0.831615 -0.831615 0.555352 96.166 24.5837)" stroke="white" stroke-width="1.5"/>
<line x1="112.36" y1="24.1672" x2="136.625" y2="60.5032" stroke="white" stroke-width="1.5"/>
<path d="M112.238 126.586C112.238 121.063 116.715 116.586 122.238 116.586H177.868V167.52C177.868 170.281 175.629 172.52 172.868 172.52H122.238C116.715 172.52 112.238 168.043 112.238 162.52V126.586Z" fill="#1EBE8E"/>
<path d="M120.434 117.029L99.5069 89.3925L144.627 89.3925L177.866 117.029L120.434 117.029Z" fill="#FACF35"/>
<path d="M60.7773 119.486C60.7773 117.895 61.5345 116.399 62.8165 115.457L96.5976 90.6328C98.3592 89.3383 100.758 89.3383 102.519 90.6328L136.3 115.457C137.582 116.399 138.339 117.895 138.339 119.486V167.731C138.339 170.493 136.101 172.731 133.339 172.731H65.7774C63.0159 172.731 60.7773 170.493 60.7773 167.731V119.486Z" fill="#2A3070"/>
<path d="M89.8633 158.722C89.8633 154.397 93.3692 150.891 97.6941 150.891C102.019 150.891 105.525 154.397 105.525 158.722V172.519H89.8633V158.722Z" fill="#FACF35"/>
<path d="M101.102 52.0383C98.859 48.7177 101.238 44.2395 105.245 44.2395H152.909C154.57 44.2395 156.122 45.0643 157.052 46.4407L169.112 64.294C171.355 67.6147 168.976 72.0929 164.969 72.0929H117.306C115.645 72.0929 114.092 71.268 113.162 69.8917L101.102 52.0383Z" fill="#000091"/>
<path d="M103.608 52.0393C101.365 48.7186 103.744 44.2405 107.751 44.2405H155.415C157.076 44.2405 158.628 45.0653 159.558 46.4417L171.618 64.295C173.861 67.6157 171.482 72.0938 167.475 72.0938H119.811C118.151 72.0938 116.598 71.269 115.668 69.8927L103.608 52.0393Z" fill="#6672F8"/>
<line x1="104.467" y1="52.6833" x2="164.073" y2="52.6833" stroke="white" stroke-width="1.5"/>
<line x1="110.875" y1="61.876" x2="170.76" y2="61.876" stroke="white" stroke-width="1.5"/>
<line x1="110.942" y1="43.824" x2="129.604" y2="71.7691" stroke="white" stroke-width="1.5"/>
<line y1="-0.75" x2="33.6034" y2="-0.75" transform="matrix(0.555352 0.831615 -0.831615 0.555353 122.293 44.2405)" stroke="white" stroke-width="1.5"/>
<line x1="134.893" y1="43.824" x2="153.555" y2="71.7691" stroke="white" stroke-width="1.5"/>
<line x1="146.872" y1="43.824" x2="165.534" y2="71.7691" stroke="white" stroke-width="1.5"/>
<line x1="86.1406" y1="114.353" x2="86.1406" y2="137.464" stroke="white" stroke-width="1.5" stroke-linecap="round"/>
<line x1="98.8203" y1="114.353" x2="98.8203" y2="137.464" stroke="white" stroke-width="1.5" stroke-linecap="round"/>
<line x1="111.502" y1="114.353" x2="111.502" y2="137.464" stroke="white" stroke-width="1.5" stroke-linecap="round"/>
<path d="M148.582 8.66556C147.294 13.4376 142.382 16.2624 137.61 14.9749C132.838 13.6874 130.013 8.7752 131.301 4.00317" stroke="#FACF35" stroke-width="6.5"/>
<circle cx="86.1355" cy="118.818" r="2.98316" fill="#FACF35"/>
<circle cx="98.8152" cy="132.247" r="2.98316" fill="#FACF35"/>
<circle cx="111.493" cy="129.264" r="2.98316" fill="#FACF35"/>
<path opacity="0.2" fill-rule="evenodd" clip-rule="evenodd" d="M190.624 31.0374H152.536C152.521 30.8788 152.514 30.7185 152.514 30.5567C152.514 27.2114 155.706 24.4994 159.644 24.4994C161.052 24.4994 162.364 24.8459 163.469 25.4439C165.198 23.2839 168.115 21.8652 171.422 21.8652C174.791 21.8652 177.756 23.3382 179.471 25.5675C180.621 24.8939 182.014 24.4994 183.516 24.4994C187.454 24.4994 190.646 27.2114 190.646 30.5567C190.646 30.7185 190.639 30.8788 190.624 31.0374Z" fill="#6672F8"/>
<circle opacity="0.03" cx="112.192" cy="104.106" r="73.3292" stroke="#2A3070" stroke-width="60"/>
</svg>
