<svg width="214" height="176" viewBox="0 0 214 176" fill="none" xmlns="http://www.w3.org/2000/svg">
<ellipse opacity="0.03" cx="101.214" cy="87.8759" rx="59.167" ry="57.6942" stroke="#2A3070" stroke-width="60"/>
<mask id="path-2-inside-1_4171_28603" fill="white">
<path fill-rule="evenodd" clip-rule="evenodd" d="M81.6235 166.083C105.913 141.487 141.641 105.308 141.641 71.6012C141.641 37.2643 114.166 9.42871 80.2737 9.42871C46.3814 9.42871 18.9062 37.2643 18.9062 71.6012C18.9062 105.311 57.1055 143.991 79.0658 166.227C79.4742 166.641 79.8769 167.048 80.2737 167.45C80.7195 166.999 81.1695 166.543 81.6235 166.083ZM80.2738 106.281C100.044 106.281 116.072 90.3051 116.072 70.5983C116.072 50.8915 100.044 34.9159 80.2738 34.9159C60.5033 34.9159 44.4762 50.8915 44.4762 70.5983C44.4762 90.3051 60.5033 106.281 80.2738 106.281Z"/>
</mask>
<path d="M81.6235 166.083L80.6986 165.17L81.6235 166.083ZM79.0658 166.227L78.1408 167.141H78.1408L79.0658 166.227ZM80.2737 167.45L79.3485 168.364L80.2737 169.301L81.1989 168.364L80.2737 167.45ZM140.341 71.6012C140.341 88.0284 131.616 105.218 119.692 121.49C107.79 137.733 92.8541 152.861 80.6986 165.17L82.5485 166.997C94.6826 154.71 109.756 139.449 121.79 123.027C133.802 106.634 142.941 88.8808 142.941 71.6012H140.341ZM80.2737 10.7287C113.432 10.7287 140.341 37.9662 140.341 71.6012H142.941C142.941 36.5623 114.9 8.12871 80.2737 8.12871V10.7287ZM20.2062 71.6012C20.2062 37.9662 47.1153 10.7287 80.2737 10.7287V8.12871C45.6475 8.12871 17.6063 36.5623 17.6063 71.6012H20.2062ZM79.9908 165.314C69.0026 154.187 54.028 139.022 41.797 122.445C29.535 105.826 20.2062 88.0173 20.2062 71.6012H17.6063C17.6063 88.8951 27.3772 107.281 39.7048 123.989C52.0635 140.738 67.1688 156.031 78.1408 167.141L79.9908 165.314ZM81.1989 166.537C80.802 166.135 80.3991 165.727 79.9908 165.314L78.1408 167.141C78.5492 167.554 78.9519 167.962 79.3485 168.364L81.1989 166.537ZM80.6986 165.17C80.2445 165.63 79.7944 166.085 79.3485 166.537L81.1989 168.364C81.6445 167.912 82.0945 167.457 82.5485 166.997L80.6986 165.17ZM114.772 70.5983C114.772 89.5831 99.3303 104.981 80.2738 104.981V107.581C100.758 107.581 117.372 91.027 117.372 70.5983H114.772ZM80.2738 36.2159C99.3303 36.2159 114.772 51.6134 114.772 70.5983H117.372C117.372 50.1695 100.758 33.6159 80.2738 33.6159V36.2159ZM45.7762 70.5983C45.7762 51.6134 61.2173 36.2159 80.2738 36.2159V33.6159C59.7893 33.6159 43.1762 50.1695 43.1762 70.5983H45.7762ZM80.2738 104.981C61.2173 104.981 45.7762 89.5831 45.7762 70.5983H43.1762C43.1762 91.027 59.7893 107.581 80.2738 107.581V104.981Z" fill="#6672F8" mask="url(#path-2-inside-1_4171_28603)"/>
<mask id="path-4-inside-2_4171_28603" fill="white">
<path fill-rule="evenodd" clip-rule="evenodd" d="M181.057 162.23C194.03 149.094 213.112 129.771 213.112 111.768C213.112 93.4292 198.438 78.5625 180.336 78.5625C162.235 78.5625 147.561 93.4292 147.561 111.768C147.561 129.773 167.962 150.431 179.691 162.307C179.909 162.528 180.124 162.746 180.336 162.961C180.574 162.719 180.815 162.476 181.057 162.23ZM180.337 130.29C190.896 130.29 199.456 121.757 199.456 111.232C199.456 100.707 190.896 92.1746 180.337 92.1746C169.778 92.1746 161.218 100.707 161.218 111.232C161.218 121.757 169.778 130.29 180.337 130.29Z"/>
</mask>
<path fill-rule="evenodd" clip-rule="evenodd" d="M181.057 162.23C194.03 149.094 213.112 129.771 213.112 111.768C213.112 93.4292 198.438 78.5625 180.336 78.5625C162.235 78.5625 147.561 93.4292 147.561 111.768C147.561 129.773 167.962 150.431 179.691 162.307C179.909 162.528 180.124 162.746 180.336 162.961C180.574 162.719 180.815 162.476 181.057 162.23ZM180.337 130.29C190.896 130.29 199.456 121.757 199.456 111.232C199.456 100.707 190.896 92.1746 180.337 92.1746C169.778 92.1746 161.218 100.707 161.218 111.232C161.218 121.757 169.778 130.29 180.337 130.29Z" fill="#1EBE8E"/>
<path d="M181.057 162.23L181.769 162.933H181.769L181.057 162.23ZM179.691 162.307L180.403 161.604L179.691 162.307ZM180.336 162.961L179.625 163.663L180.336 164.384L181.048 163.663L180.336 162.961ZM212.112 111.768C212.112 120.442 207.501 129.556 201.143 138.233C194.801 146.887 186.84 154.951 180.346 161.528L181.769 162.933C188.247 156.373 196.313 148.207 202.756 139.415C209.182 130.646 214.112 121.097 214.112 111.768H212.112ZM180.336 79.5625C197.873 79.5625 212.112 93.9692 212.112 111.768H214.112C214.112 92.8893 199.002 77.5625 180.336 77.5625V79.5625ZM148.561 111.768C148.561 93.9692 162.799 79.5625 180.336 79.5625V77.5625C161.67 77.5625 146.561 92.8893 146.561 111.768H148.561ZM180.403 161.604C174.532 155.66 166.55 147.575 160.032 138.742C153.491 129.877 148.561 120.433 148.561 111.768H146.561C146.561 121.108 151.831 130.996 158.423 139.929C165.039 148.896 173.122 157.078 178.98 163.01L180.403 161.604ZM181.048 162.258C180.836 162.043 180.621 161.825 180.403 161.604L178.98 163.01C179.198 163.231 179.413 163.448 179.625 163.663L181.048 162.258ZM180.346 161.528C180.103 161.773 179.863 162.017 179.625 162.258L181.048 163.663C181.286 163.422 181.526 163.179 181.769 162.933L180.346 161.528ZM198.456 111.232C198.456 121.202 190.347 129.29 180.337 129.29V131.29C191.445 131.29 200.456 122.313 200.456 111.232H198.456ZM180.337 93.1746C190.347 93.1746 198.456 101.262 198.456 111.232H200.456C200.456 100.152 191.445 91.1746 180.337 91.1746V93.1746ZM162.218 111.232C162.218 101.262 170.327 93.1746 180.337 93.1746V91.1746C169.228 91.1746 160.218 100.152 160.218 111.232H162.218ZM180.337 129.29C170.327 129.29 162.218 121.202 162.218 111.232H160.218C160.218 122.313 169.228 131.29 180.337 131.29V129.29Z" fill="#1EBE8E" mask="url(#path-4-inside-2_4171_28603)"/>
<path d="M4.72478 62.8148C4.14432 60.3076 6.0482 57.9126 8.6217 57.9126H21.2463C23.1079 57.9126 24.7234 59.1968 25.1433 61.0104L31.4768 88.3673C32.0572 90.8745 30.1534 93.2695 27.5799 93.2695H14.9552C13.0937 93.2695 11.4782 91.9853 11.0583 90.1717L4.72478 62.8148Z" fill="#6672F8"/>
<path d="M7.94743 62.8148C7.36698 60.3076 9.27086 57.9126 11.8444 57.9126H24.469C26.3306 57.9126 27.946 59.1968 28.3659 61.0104L34.6995 88.3673C35.2799 90.8745 33.376 93.2695 30.8025 93.2695H18.1779C16.3163 93.2695 14.7008 91.9853 14.281 90.1717L7.94743 62.8148Z" fill="#2A3070"/>
<ellipse cx="24.5518" cy="88.4484" rx="1.61233" ry="1.60713" fill="#FACF35"/>
<path d="M155.114 117.537C154.479 113.105 150.683 109.813 146.205 109.813H68.4355C63.465 109.813 59.4355 113.843 59.4355 118.813V151.143C59.4355 156.113 63.465 160.143 68.4355 160.143H150.839C156.317 160.143 160.525 155.289 159.748 149.866L155.114 117.537Z" fill="#2A3070"/>
<path d="M131.996 160.268C131.996 163.957 134.997 166.951 138.702 166.951C142.407 166.951 145.408 163.957 145.408 160.268C145.408 156.579 142.407 153.585 138.702 153.585C134.997 153.585 131.996 156.579 131.996 160.268Z" fill="white" stroke="#2A3070"/>
<path d="M73.4453 160.268C73.4453 163.957 76.4462 166.951 80.1514 166.951C83.8565 166.951 86.8574 163.957 86.8574 160.268C86.8574 156.579 83.8565 153.585 80.1514 153.585C76.4462 153.585 73.4453 156.579 73.4453 160.268Z" fill="white" stroke="#2A3070"/>
<path d="M155.128 117.802H59.4343V138.573H158.094L155.128 117.802Z" fill="#6672F8"/>
<line y1="-0.5" x2="20.7708" y2="-0.5" transform="matrix(4.37114e-08 1 1 -4.37114e-08 144.389 117.802)" stroke="#2A3070"/>
<line y1="-0.5" x2="20.7708" y2="-0.5" transform="matrix(5.70844e-08 1 1 -3.34713e-08 118.742 117.802)" stroke="#2A3070"/>
<line y1="-0.5" x2="20.7708" y2="-0.5" transform="matrix(5.70844e-08 1 1 -3.34713e-08 93.0957 117.802)" stroke="#2A3070"/>
<line y1="-0.5" x2="20.7708" y2="-0.5" transform="matrix(5.70844e-08 1 1 -3.34713e-08 67.4492 117.802)" stroke="#2A3070"/>
<ellipse cx="2.00364" cy="1.99718" rx="2.00364" ry="1.99718" transform="matrix(-1 0 0 1 65.8496 148.159)" fill="#6672F8"/>
<path fill-rule="evenodd" clip-rule="evenodd" d="M159.979 151.268C159.619 151.802 159.007 152.154 158.314 152.154C157.207 152.154 156.31 151.259 156.31 150.156C156.31 149.053 157.207 148.159 158.314 148.159C158.776 148.159 159.202 148.315 159.541 148.577L159.979 151.268Z" fill="#6672F8"/>
<path d="M67.5066 153.567C67.5066 160.944 61.5066 166.928 54.1008 166.928C46.6949 166.928 40.6949 160.944 40.6949 153.567C40.6949 146.19 46.6949 140.207 54.1008 140.207C61.5066 140.207 67.5066 146.19 67.5066 153.567Z" fill="#FACF35" stroke="#FACF35" stroke-width="1.3"/>
<path d="M28.3504 153.567C28.3504 160.944 22.3503 166.928 14.9445 166.928C7.53869 166.928 1.53867 160.944 1.53867 153.567C1.53867 146.19 7.53869 140.207 14.9445 140.207C22.3503 140.207 28.3504 146.19 28.3504 153.567Z" fill="#FACF35" stroke="#FACF35" stroke-width="1.3"/>
<path d="M15.9597 153.417L24.3371 135.202H44.5016L35.1305 153.417H15.9597Z" stroke="#2A3070" stroke-width="1.3" stroke-linejoin="bevel"/>
<path d="M48.5776 130.55H42.8047L54.0996 153.817" stroke="#2A3070" stroke-width="1.3" stroke-linecap="round"/>
<path d="M19.9648 127.047L35.2757 153.567" stroke="#2A3070" stroke-width="1.3"/>
<line x1="17.1012" y1="126.897" x2="23.3311" y2="126.897" stroke="#2A3070" stroke-width="1.3" stroke-linecap="round"/>
<ellipse cx="199.435" cy="162.593" rx="4.74536" ry="4.73009" fill="#FCA081"/>
<path d="M199.12 154.929C195.132 155.353 192.022 158.803 192.022 162.997H176.355" stroke="#2A3070" stroke-width="1.3"/>
<path d="M199.529 162.609L195.537 135.198L191.326 133.903" stroke="#2A3070" stroke-width="1.3"/>
<ellipse cx="175.876" cy="162.593" rx="4.74535" ry="4.73009" fill="#FCA081"/>
<path d="M22.0566 70.8199C92.7658 35.8037 166.628 69.5835 180.589 109.538" stroke="#6672F8" stroke-width="2" stroke-linecap="round" stroke-dasharray="1 5"/>
</svg>
