<svg width="435" height="434" viewBox="0 0 435 434" fill="none" xmlns="http://www.w3.org/2000/svg">
<rect x="311.5" width="123.25" height="123.25" rx="8" fill="#FCA081"/>
<rect x="0.5" y="18.3969" width="415" height="415" fill="white"/>
<rect width="416" height="416" transform="translate(0 17.8969)" fill="white"/>
<ellipse opacity="0.03" cx="216.118" cy="247.896" rx="127.118" ry="127.104" stroke="#2A3070" stroke-width="60"/>
<path d="M164.325 243.505C161.089 249.069 168.993 253.639 171.869 256.964C179.774 266.102 163.236 280.209 150.111 278.498C136.986 276.786 131.131 257.946 139.537 241.178C142.922 234.425 143.116 232.352 137.951 218.07C132.787 203.788 151.437 202.77 154.481 190.712C157.531 178.636 147.147 165.436 157.62 154.354C164.708 146.854 176.648 160.248 178.525 166.512C184.844 187.595 164.449 193.447 169.949 202.009C175.159 209.111 184.467 215.458 182.088 225.587C180.318 233.125 168.248 236.761 164.325 243.505Z" fill="#2A3070"/>
<path d="M166.945 170.964C155.542 227.447 151.736 282.205 151.379 345.565" stroke="#6672F8"/>
<path d="M346.095 264.394C343.547 268.775 349.771 272.374 352.036 274.993C358.26 282.188 345.238 293.297 334.902 291.949C324.567 290.602 319.956 275.766 326.575 262.561C329.241 257.244 329.394 255.611 325.327 244.365C321.26 233.118 335.946 232.316 338.344 222.821C340.745 213.311 332.568 202.917 340.815 194.19C346.396 188.284 355.799 198.832 357.277 203.765C362.253 220.367 346.193 224.975 350.523 231.717C354.626 237.31 361.956 242.308 360.083 250.284C358.689 256.22 349.184 259.083 346.095 264.394Z" fill="#1EBE8E"/>
<path d="M348.156 207.346C339.176 251.825 336.18 294.945 335.898 344.839" stroke="#2A3070"/>
<path d="M97.4076 285.88C78.1922 251.51 110.661 232.116 80.3599 194.848C22.8722 124.148 121.343 111.388 125.223 159.936C126.285 173.179 126.32 196.713 131.191 209.454C134.549 218.237 159.907 228.275 158.363 267.032C156.839 305.143 141.626 345.482 138.876 346.785C127.475 337.191 101.604 293.38 97.4076 285.88Z" fill="#1EBE8E"/>
<path d="M93.3047 151.578C105.895 190.249 147.404 254.519 138.215 346.343" stroke="white" stroke-linecap="round"/>
<path d="M267.925 343.082C267.345 309.171 246.132 190.754 220.066 144.684" stroke="white" stroke-linecap="round"/>
<path d="M220.761 185.969C225.441 188.495 236.09 194.991 241.246 200.77C245.826 184.367 247.621 177.732 247.947 176.465" stroke="white" stroke-linecap="round"/>
<path d="M211.596 161.734C216.541 163.769 227.864 169.135 233.599 174.322C236.63 157.758 237.798 151.064 238.003 149.787" stroke="white" stroke-linecap="round"/>
<path d="M263.525 169.161C268.371 184.568 266.521 200.576 262.555 213.011C260.573 219.226 258.067 224.533 255.62 228.41C254.396 230.35 253.192 231.921 252.084 233.068C250.965 234.227 249.985 234.907 249.214 235.137C248.435 235.369 247.23 235.356 245.646 235.042C244.077 234.73 242.191 234.133 240.08 233.255C235.86 231.498 230.783 228.63 225.617 224.724C215.284 216.911 204.649 204.984 199.803 189.578C194.95 174.147 195.638 158.579 199.014 146.385C200.702 140.288 203.057 135.05 205.715 131.101C208.378 127.143 211.307 124.536 214.122 123.6C217.561 122.577 221.747 122.944 226.279 124.595C230.809 126.246 235.649 129.168 240.363 133.198C249.79 141.259 258.669 153.718 263.525 169.161Z" stroke="white" stroke-linecap="round"/>
<path d="M61.5039 345.237H200.223C200.223 352.649 206.965 357.977 214.378 357.977C221.791 357.977 228.533 352.649 228.533 345.237L368.644 344.698" stroke="#2A3070"/>
<path fill-rule="evenodd" clip-rule="evenodd" d="M103.562 262.948C104.366 264.022 105.083 265.136 105.714 266.282C106.014 266.826 105.771 267.547 105.226 267.785L91.6004 273.733C90.0406 274.414 89.3497 276.308 90.0572 277.963C90.7647 279.619 92.6026 280.409 94.1624 279.728L107.513 273.9C108.034 273.673 108.603 273.988 108.72 274.588C110.827 285.451 106.621 297.256 96.9656 304.557C87.2772 311.882 74.7723 312.654 64.9544 307.554C64.4004 307.266 64.2864 306.452 64.7129 305.935L73.3479 295.463C74.5653 293.987 74.4182 291.859 73.0193 290.711C71.6204 289.562 69.4995 289.828 68.2821 291.305L59.2246 302.288C58.8766 302.711 58.3009 302.762 57.9318 302.39C57.0157 301.467 56.1531 300.47 55.3519 299.4C54.172 297.824 53.2952 295.902 52.6653 293.743C52.5617 293.388 52.6475 292.993 52.8798 292.711L63.2356 280.153C64.453 278.676 64.3058 276.549 62.9069 275.4C61.508 274.252 59.3871 274.518 58.1697 275.994L52.8795 282.41C52.3041 283.107 51.2992 282.711 51.3076 281.777C51.4236 268.869 55.2214 254.478 56.1661 251.092C56.2905 250.646 56.6469 250.349 57.0602 250.352C60.4136 250.373 75.4778 250.671 87.9846 254.204C88.847 254.448 88.868 255.767 88.0236 256.136L79.6906 259.774C78.1309 260.454 77.4399 262.348 78.1474 264.004C78.8549 265.659 80.6929 266.449 82.2527 265.768L98.2158 258.8C98.4784 258.685 98.7696 258.704 99.0077 258.858C100.85 260.047 102.405 261.403 103.562 262.948ZM61.0312 265.58C61.6897 266.46 61.4886 267.728 60.5821 268.414C59.6756 269.099 58.4069 268.942 57.7484 268.062C57.0899 267.183 57.291 265.914 58.1975 265.229C59.104 264.544 60.3727 264.701 61.0312 265.58ZM99.4592 289.797C101.262 288.435 102.192 286.622 101.536 285.747C100.881 284.872 98.8878 285.267 97.0852 286.629C95.2827 287.99 94.3528 289.804 95.0084 290.678C95.6639 291.553 97.6566 291.158 99.4592 289.797Z" fill="#6672F8"/>
<path fill-rule="evenodd" clip-rule="evenodd" d="M140.946 298.505C140.487 299.314 139.981 300.077 139.43 300.795C139.11 301.214 138.526 301.23 138.129 300.852L130.235 293.33C129.251 292.392 127.733 292.386 126.846 293.317C125.958 294.248 126.036 295.764 127.021 296.702L134.461 303.792C134.946 304.254 134.923 305.073 134.394 305.411C127.841 309.593 118.951 309.891 111.391 305.442C103.856 301.007 99.6695 293.049 99.9216 285.2C99.9417 284.574 100.487 284.175 101.047 284.345L110.792 287.322C111.932 287.67 113.135 286.968 113.478 285.755C113.821 284.541 113.175 283.275 112.035 282.927L101.958 279.849C101.402 279.68 101.078 279.022 101.299 278.459C101.641 277.585 102.048 276.727 102.522 275.891C103.187 274.719 104.141 273.647 105.309 272.668C105.53 272.483 105.823 272.43 106.101 272.515L118.16 276.198C119.3 276.546 120.502 275.845 120.846 274.631C121.189 273.417 120.543 272.151 119.403 271.803L113.633 270.041C112.751 269.772 112.629 268.48 113.465 268.153C121.852 264.877 132.014 263.535 134.694 263.224C135.098 263.177 135.488 263.42 135.665 263.835C136.759 266.409 140.583 275.809 142.014 284.705C142.164 285.636 141.2 286.167 140.537 285.535L136.188 281.391C135.203 280.452 133.686 280.447 132.798 281.378C131.91 282.309 131.989 283.824 132.973 284.762L141.981 293.346C142.237 293.591 142.369 293.958 142.313 294.312C142.068 295.881 141.628 297.301 140.946 298.505ZM126.88 270.473C126.491 271.159 125.591 271.371 124.87 270.946C124.148 270.522 123.879 269.622 124.267 268.936C124.656 268.251 125.556 268.039 126.278 268.463C126.999 268.888 127.269 269.788 126.88 270.473ZM121.628 303.046C123.055 303.882 124.525 304.007 124.913 303.327C125.3 302.646 124.458 301.417 123.032 300.581C121.605 299.745 120.135 299.619 119.747 300.3C119.36 300.981 120.202 302.21 121.628 303.046Z" fill="#2A3070"/>
<path d="M64.6445 260.621C81.7147 277.689 104.694 315.108 111.259 343.992" stroke="#2A3070" stroke-linecap="round"/>
<path d="M133.582 269.155C94.5176 314.278 122.979 321.981 111.259 343.993" stroke="#6672F8" stroke-linecap="round"/>
<path d="M192.163 255.543L192.163 255.543C190.067 259.904 189.677 264.111 190.355 268.853C188.875 269.681 187.16 270.682 185.365 271.729L185.183 271.835C183.196 272.995 181.117 274.206 179.144 275.307C177.17 276.409 175.312 277.395 173.767 278.104C172.994 278.458 172.308 278.74 171.729 278.932C171.142 279.127 170.704 279.217 170.414 279.217C168.538 279.217 167.03 278.785 165.726 278.022C164.549 277.334 163.519 276.364 162.528 275.157L192.271 255.319L192.163 255.543Z" fill="#FACF35" stroke="#FACF35"/>
<path d="M196.3 237.842L196.301 237.843C196.794 238.597 196.582 239.614 195.829 240.107L195.828 240.108L160.951 262.86C160.203 263.348 160.059 264.35 160.624 264.971C162.026 266.51 163.589 267.818 165.464 268.608C165.848 268.769 166.308 268.71 166.696 268.452L200.128 246.161L200.163 246.137L200.202 246.12L200.552 245.964L200.608 245.939L200.668 245.928C200.805 245.904 200.974 245.876 201.171 245.888C201.365 245.894 201.559 245.946 201.724 246.023L201.746 246.033L201.768 246.046L201.996 246.182L202.068 246.225L202.122 246.289L202.435 246.658L202.477 246.707L202.505 246.766L202.568 246.897L202.596 246.956L202.608 247.02L202.681 247.414L202.694 247.482L202.688 247.55L202.673 247.716L202.668 247.779L202.647 247.839L202.489 248.288L202.46 248.369L202.406 248.436L202.301 248.566L202.28 248.592L202.255 248.616L202.052 248.808L202.025 248.833L201.995 248.854C197.389 252.07 194.313 256.895 193.328 262.441C192.344 267.985 193.88 274.215 196.787 278.174C199.017 281.21 203.735 288.04 206.002 291.335C206.521 292.088 207.544 292.185 208.13 291.571C209.607 290.023 210.888 288.233 211.468 286.362C212.042 284.514 211.937 282.582 210.638 280.673C209.998 279.735 209.275 278.767 208.525 277.762C208.453 277.666 208.381 277.569 208.309 277.472C207.484 276.367 206.635 275.219 205.85 274.04C204.285 271.689 202.944 269.166 202.557 266.519C201.948 262.361 203.688 258.644 207.377 256.072L207.377 256.071C210.57 253.848 214.441 253.542 217.948 255.238L217.948 255.238C221.996 257.203 224.297 260.604 224.344 264.804C224.377 267.708 223.356 270.604 222.055 273.339C221.403 274.709 220.675 276.051 219.963 277.34C219.853 277.538 219.745 277.735 219.636 277.93C219.038 279.011 218.463 280.051 217.957 281.05L196.3 237.842ZM196.3 237.842C195.82 237.112 194.779 236.883 194.037 237.37C194.037 237.37 194.036 237.37 194.036 237.371L169.025 253.683C168.456 254.054 167.732 253.993 167.279 253.542C166.447 252.712 165.68 251.822 164.945 250.892C164.418 250.224 164.602 249.234 165.352 248.772L219.424 215.441C220.242 214.936 221.262 214.95 222.035 215.489C224.625 217.295 230.01 221.293 234.743 226.356C239.496 231.44 243.492 237.496 243.492 243.424C243.492 250.607 241.106 258.143 238.643 264.005C236.286 269.615 233.876 273.651 233.477 274.318C233.46 274.347 233.447 274.37 233.437 274.386L233.437 274.386M196.3 237.842L233.437 274.386M233.437 274.386L233.431 274.397M233.437 274.386L233.431 274.397M233.431 274.397L223.36 292.407C222.924 293.187 221.943 293.39 221.304 292.867C219.374 291.288 217.942 289.518 217.288 287.567M233.431 274.397L217.288 287.567M217.288 287.567C216.639 285.634 216.737 283.472 217.957 281.051L217.288 287.567Z" fill="#FACF35" stroke="#FACF35"/>
<path d="M256.351 279.167C256.611 316.776 276.196 338.054 285.956 343.993C291.162 318.013 263.833 236.362 261.556 224.485C259.279 212.608 256.025 232.155 256.351 279.167Z" fill="#2A3070"/>
<path d="M271.927 241.048C269.248 287.597 279.071 329.073 284.317 343.992C296.707 343.992 289.005 319.127 295.033 297.991C301.061 276.855 278.959 249.254 281.973 195.295C284.987 141.336 275.276 182.862 271.927 241.048Z" fill="#6672F8" stroke="#6672F8"/>
<path d="M306.541 233.838C310.248 286.692 295.634 342.326 287.437 344.142C274.792 343.477 297.702 235.37 298.307 207.7C298.912 180.03 302.834 180.985 306.541 233.838Z" fill="#2A3070"/>
<path d="M324.575 254.278C308.631 323.387 302.164 342.394 292.241 343.396C284.216 340.943 296.652 315.42 306.746 286.761C313.846 266.602 312.961 245.885 324.044 229.634C335.126 213.383 340.519 185.17 324.575 254.278Z" stroke="#6672F8"/>
<path fill-rule="evenodd" clip-rule="evenodd" d="M191.359 93.5395H239.354C310.599 93.5395 368.354 151.295 368.354 222.539V345.945H369.354V222.539C369.354 150.742 311.151 92.5395 239.354 92.5395H191.359C119.562 92.5395 61.3594 150.743 61.3594 222.54V345.945H62.3594V222.54C62.3594 151.295 120.115 93.5395 191.359 93.5395Z" fill="#6672F8"/>
<path d="M324.732 313.398C323.79 322.152 323.733 332.493 324.903 340.106C325.009 340.634 325.095 341.143 325.161 341.632L324.173 341.789C324.083 341.298 323.997 340.793 323.918 340.276C322.67 334.075 318.632 325.179 314.586 318.128C312.398 314.315 310.23 311.081 308.532 309.131C307.67 308.141 306.981 307.544 306.509 307.33C306.277 307.225 306.19 307.255 306.179 307.26C306.176 307.261 306.095 307.294 306.025 307.547L306.018 307.57L306.009 307.592C303.644 313.69 305.167 320.316 308.629 326.282C308.74 326.473 308.85 326.664 308.96 326.853C311.659 331.504 314.038 335.603 316.673 338.583C319.399 341.667 322.346 343.493 326.142 343.493C337.371 343.493 344.526 335.483 348.682 326.868C350.755 322.57 352.063 318.155 352.742 314.59C353.082 312.807 353.263 311.246 353.306 310.025C353.328 309.414 353.315 308.896 353.272 308.482C353.235 308.128 353.179 307.876 353.119 307.713C353.108 307.713 353.094 307.714 353.076 307.716C352.945 307.731 352.725 307.808 352.405 307.993C351.776 308.357 350.926 309.043 349.902 310.015C347.865 311.951 345.233 314.931 342.456 318.456C336.899 325.511 330.815 334.675 327.779 341.892L326.852 341.519C331.525 329.369 333.516 316.719 332.74 304.155L332.74 304.155C332.652 302.717 332.46 300.618 331.979 298.945C331.737 298.104 331.435 297.421 331.075 296.982C330.731 296.564 330.372 296.406 329.944 296.48C329.513 296.553 329.001 296.949 328.451 297.833C327.914 298.696 327.402 299.927 326.93 301.464C325.988 304.534 325.235 308.727 324.732 313.398Z" fill="#FCA081" stroke="#FCA081"/>
<ellipse cx="214.646" cy="84.7696" rx="7.77052" ry="7.76963" fill="#6672F8"/>
<path d="M226.41 314.536C226.41 320.79 221.34 326.399 215.086 326.399C208.832 326.399 203.762 320.79 203.762 314.536C203.762 314.536 208.292 314.536 214.547 314.536C220.801 314.536 226.41 314.536 226.41 314.536Z" fill="#6A6AF4"/>
<path d="M215.086 286.495C213.67 293.685 203.762 308.065 203.762 314.535H226.41C226.41 306.986 216.501 293.685 215.086 286.495Z" fill="#6A6AF4"/>
<path d="M195.266 301.257C195.266 303.603 193.365 305.706 191.02 305.706C188.675 305.706 186.773 303.603 186.773 301.257C186.773 301.257 188.472 301.257 190.818 301.257C193.163 301.257 195.266 301.257 195.266 301.257Z" fill="#6A6AF4"/>
<path d="M191.02 290.742C190.489 293.438 186.773 298.831 186.773 301.257H195.266C195.266 298.426 191.551 293.438 191.02 290.742Z" fill="#6A6AF4"/>
<path d="M246.235 330.982C246.235 333.327 244.334 335.431 241.989 335.431C239.643 335.431 237.742 333.327 237.742 330.982C237.742 330.982 239.441 330.982 241.786 330.982C244.132 330.982 246.235 330.982 246.235 330.982Z" fill="#6A6AF4"/>
<path d="M241.989 320.467C241.458 323.163 237.742 328.556 237.742 330.982H246.235C246.235 328.151 242.52 323.163 241.989 320.467Z" fill="#6A6AF4"/>
<path d="M226.407 344.53C226.407 350.5 221.021 355.854 214.376 355.854C207.731 355.854 202.344 350.5 202.344 344.53C202.344 344.53 207.158 344.53 213.803 344.53C220.448 344.53 226.407 344.53 226.407 344.53Z" fill="#6A6AF4"/>
<rect x="0.5" y="18.3969" width="415" height="415" stroke="#E5E5E5"/>
</svg>
