<svg version="1.1" viewBox="0.0 0.0 960.0 540.0" fill="none" stroke="none" stroke-linecap="square" stroke-miterlimit="10" xmlns:xlink="http://www.w3.org/1999/xlink" xmlns="http://www.w3.org/2000/svg"><clipPath id="g240305934a0_0_26.0"><path d="m0 0l960.0 0l0 540.0l-960.0 0l0 -540.0z" clip-rule="nonzero"/></clipPath><g clip-path="url(#g240305934a0_0_26.0)"><path fill="#ffffff" d="m0 0l960.0 0l0 540.0l-960.0 0z" fill-rule="evenodd"/><path fill="#0097a7" d="m445.70078 135.0105l0 0c0 -18.942932 15.356293 -34.29921 34.299225 -34.29921l0 0c9.09671 0 17.820862 3.613655 24.253204 10.046005c6.4323425 6.43235 10.04599 15.1564865 10.04599 24.253204l0 0c0 18.942932 -15.356262 34.29921 -34.299194 34.29921l0 0c-18.942932 0 -34.299225 -15.356277 -34.299225 -34.29921z" fill-rule="evenodd"/><path fill="#0097a7" d="m469.52756 135.92383l0 0c0 -6.288208 5.097595 -11.385826 11.385834 -11.385826l0 0l0 0c3.0197144 0 5.915741 1.1995773 8.050995 3.3348389c2.135254 2.1352463 3.3348389 5.031288 3.3348389 8.050987l0 133.16534c0 6.2882385 -5.0976257 11.385834 -11.385834 11.385834l0 0l0 0c-6.2882385 0 -11.385834 -5.097595 -11.385834 -11.385834z" fill-rule="evenodd"/><path fill="#0097a7" d="m377.24905 182.97963l0 0c-4.444397 -4.4443817 -4.444397 -11.650131 0 -16.094498l0 0l0 0c2.1342468 -2.134262 5.0289307 -3.3332672 8.047241 -3.3332672c3.01828 0 5.912964 1.1990051 8.047241 3.3332672l94.17322 94.17322c4.4443665 4.444397 4.4443665 11.6501465 0 16.094513l0 0l0 0c-4.4443665 4.4443665 -11.650116 4.4443665 -16.094482 0z" fill-rule="evenodd"/><path fill="#0097a7" d="m349.70078 175.15749l0 0c0 -18.942932 15.356293 -34.299225 34.299225 -34.299225l0 0c9.09671 0 17.820862 3.6136627 24.253204 10.0460205c6.4323425 6.4323425 10.0460205 15.156479 10.0460205 24.253204l0 0c0 18.942932 -15.356293 34.29921 -34.299225 34.29921l0 0c-18.942932 0 -34.299225 -15.356277 -34.299225 -34.29921z" fill-rule="evenodd"/><path fill="#0097a7" d="m567.0338 166.88513l0 0c4.444397 -4.4443665 11.6501465 -4.4443665 16.094482 0l0 0l0 0c2.1342773 2.134262 3.333313 5.028946 3.333313 8.047241c0 3.0183105 -1.1990356 5.9129944 -3.333313 8.047256l-94.17322 94.17323c-4.4443665 4.4443665 -11.650116 4.4443665 -16.094482 0l0 0l0 0c-4.4443665 -4.4443665 -4.4443665 -11.650116 0 -16.094513z" fill-rule="evenodd"/><path fill="#0097a7" d="m541.7008 175.15749l0 0c0 -18.942932 15.356262 -34.299225 34.299194 -34.299225l0 0c9.096741 0 17.820862 3.6136627 24.253235 10.0460205c6.432312 6.4323425 10.045959 15.156479 10.045959 24.253204l0 0c0 18.942932 -15.356262 34.29921 -34.299194 34.29921l0 0c-18.942932 0 -34.299194 -15.356277 -34.299194 -34.29921z" fill-rule="evenodd"/><path fill="#0097a7" d="m469.52756 270.91333l0 0c0 -6.288208 5.097595 -11.385834 11.385834 -11.385834l0 0l0 0c3.0197144 0 5.915741 1.199585 8.050995 3.3348389c2.135254 2.135254 3.3348389 5.0312805 3.3348389 8.050995l0 133.16534c0 6.2882385 -5.0976257 11.385834 -11.385834 11.385834l0 0l0 0c-6.2882385 0 -11.385834 -5.097595 -11.385834 -11.385834z" fill-rule="evenodd"/><path fill="#0097a7" d="m571.74774 296.02686l0 0c4.444336 -4.4443665 11.650085 -4.4443665 16.094482 0l0 0l0 0c2.1342773 2.1342773 3.333252 5.028961 3.333252 8.047241c0 3.0183105 -1.1989746 5.9129944 -3.333252 8.047272l-94.17325 94.17322c-4.4443665 4.4443665 -11.650116 4.4443665 -16.094482 0l0 0l0 0c-4.4443665 -4.4443665 -4.4443665 -11.650116 0 -16.094482z" fill-rule="evenodd"/><path fill="#0097a7" d="m546.4147 304.29922l0 0c0 -18.942932 15.356323 -34.299225 34.299255 -34.299225l0 0c9.09668 0 17.820862 3.6136475 24.253174 10.0460205c6.432373 6.4323425 10.0460205 15.156464 10.0460205 24.253204l0 0c0 18.942932 -15.356262 34.299194 -34.299194 34.299194l0 0c-18.942932 0 -34.299255 -15.356262 -34.299255 -34.299194z" fill-rule="evenodd"/></g></svg>