<svg width="196" height="156" viewBox="0 0 196 156" fill="none" xmlns="http://www.w3.org/2000/svg">
<mask id="path-1-inside-1_2504_79956" fill="white">
<path fill-rule="evenodd" clip-rule="evenodd" d="M78.6087 104.458C78.6087 97.62 82.7044 91.5522 87.5014 86.6791C93.3396 80.7483 96.8931 72.8965 96.8931 64.285C96.8931 45.8019 80.523 30.8184 60.3294 30.8184C40.1358 30.8184 23.7656 45.8019 23.7656 64.285C23.7656 72.8946 27.3176 80.7449 33.1535 86.6751C37.9498 91.549 42.045 97.6182 42.045 104.456C42.045 114.553 50.2301 122.851 60.3269 122.851C70.4237 122.851 78.6087 114.555 78.6087 104.458Z"/>
</mask>
<path d="M87.5014 86.6791L88.5704 87.7313L87.5014 86.6791ZM95.3931 64.285C95.3931 72.4696 92.0186 79.9521 86.4325 85.6268L88.5704 87.7313C94.6606 81.5446 98.3931 73.3234 98.3931 64.285H95.3931ZM60.3294 32.3184C79.8223 32.3184 95.3931 46.7525 95.3931 64.285H98.3931C98.3931 44.8512 81.2237 29.3184 60.3294 29.3184V32.3184ZM25.2656 64.285C25.2656 46.7525 40.8365 32.3184 60.3294 32.3184V29.3184C39.4351 29.3184 22.2656 44.8512 22.2656 64.285H25.2656ZM34.2226 85.623C28.6387 79.9488 25.2656 72.4678 25.2656 64.285H22.2656C22.2656 73.3214 25.9965 81.541 32.0843 87.7272L34.2226 85.623ZM40.545 104.456C40.545 115.369 49.3897 124.351 60.3269 124.351V121.351C51.0705 121.351 43.545 113.737 43.545 104.456H40.545ZM32.0843 87.7272C36.7932 92.5123 40.545 98.2171 40.545 104.456H43.545C43.545 97.0193 39.1064 90.5858 34.2226 85.623L32.0843 87.7272ZM60.3269 124.351C71.2639 124.351 80.1087 115.371 80.1087 104.458H77.1087C77.1087 113.738 69.5835 121.351 60.3269 121.351V124.351ZM86.4325 85.6268C81.5479 90.5887 77.1087 97.0209 77.1087 104.458H80.1087C80.1087 98.219 83.8608 92.5156 88.5704 87.7313L86.4325 85.6268Z" fill="#FACF35" mask="url(#path-1-inside-1_2504_79956)"/>
<path d="M61.3588 122.446C55.033 103.983 52.6871 56.6659 46.6123 69.2261C40.8664 81.1064 54.9885 94.0223 62.9514 73.9797C70.9143 53.9371 46.07 68.5137 61.3588 79.8105C76.6475 91.1072 76.6476 71.4291 72.1883 68.5137C67.7291 65.5983 62.9514 91.107 61.3588 122.446Z" stroke="#FACF35" stroke-width="1.5"/>
<rect x="45.8672" y="115.843" width="29.9929" height="5.44475" rx="2.72237" fill="white" stroke="#FACF35" stroke-width="1.5"/>
<rect x="45.8672" y="121.72" width="29.9929" height="5.44475" rx="2.72237" fill="white" stroke="#FACF35" stroke-width="1.5"/>
<rect x="45.8672" y="127.596" width="29.9929" height="5.44475" rx="2.72237" fill="white" stroke="#FACF35" stroke-width="1.5"/>
<ellipse opacity="0.03" cx="95.9986" cy="83.6755" rx="65.0064" ry="65.0593" stroke="#2A3070" stroke-width="60"/>
<path d="M168.781 99.0362C167.418 93.0475 164.486 80.1197 160.715 63.2076C155.444 39.5674 111.781 36.1284 109.777 63.2076C108.1 85.86 105.422 119.942 104.591 130.48C104.453 132.224 105.833 133.699 107.584 133.699H136.535C138.343 133.699 139.74 132.111 139.51 130.317L138.461 122.14C144.945 123.941 152.226 124.8 157.669 125.091C159.343 125.18 160.715 123.826 160.715 122.15V105.703C160.715 104.046 162.058 102.703 163.715 102.703H165.852C167.78 102.703 169.209 100.915 168.781 99.0362Z" fill="#FACF35"/>
<path d="M129.305 79.1842C124.542 77.5335 117.518 78.1938 127.519 94.0411" stroke="#2A3070" stroke-linecap="round"/>
<ellipse opacity="0.5" cx="22.0404" cy="13.2881" rx="22.0404" ry="13.2881" transform="matrix(-0.995064 -0.0992396 -0.0990799 0.995079 158.574 50.1514)" fill="white"/>
<path d="M153.774 47.4321C153.774 50.3641 151.399 52.739 148.473 52.739C145.546 52.739 143.171 50.3641 143.171 47.4321C143.171 44.5001 145.546 42.1252 148.473 42.1252C151.399 42.1252 153.774 44.5001 153.774 47.4321Z" stroke="#2A3070" stroke-width="2.85"/>
<path d="M119.662 36.2834C119.98 35.8926 120.483 35.7016 120.981 35.7823L122.761 36.071C123.258 36.1516 123.674 36.4913 123.853 36.9622L124.493 38.6509C124.672 39.1218 124.586 39.6523 124.268 40.0428L123.128 41.4414C122.809 41.8322 122.307 42.0233 121.809 41.9426L120.029 41.6538C119.532 41.5732 119.116 41.2336 118.937 40.7627L118.296 39.0739C118.118 38.6031 118.204 38.0725 118.522 37.6821L119.662 36.2834Z" fill="#FCA081"/>
<path d="M138.927 57.0259C139.609 57.0259 140.239 57.3901 140.58 57.9812L142.573 61.436C142.914 62.0267 142.914 62.7544 142.573 63.3449L140.579 66.8012C140.238 67.3918 139.609 67.7556 138.927 67.7556L134.941 67.7556C134.259 67.7556 133.629 67.3914 133.288 66.8004L131.295 63.3455C130.954 62.7548 130.954 62.0271 131.295 61.4366L133.289 57.9803C133.629 57.3897 134.259 57.0259 134.941 57.0259L138.927 57.0259Z" stroke="#6672F8"/>
<path d="M131.855 52.5911C131.856 36.713 140.921 22.4552 149.671 33.0817C155.98 40.7449 127.646 36.0649 154.844 24.3994" stroke="#FCA081" stroke-linecap="round" stroke-linejoin="round"/>
<mask id="path-15-inside-2_2504_79956" fill="white">
<path fill-rule="evenodd" clip-rule="evenodd" d="M124.914 21.0889C124.914 21.0891 124.914 21.0892 124.914 21.0893L124.948 21.0892C124.936 21.0891 124.925 21.089 124.914 21.0889ZM125.003 21.0891C128.362 21.106 131.083 23.8216 131.113 27.1803C131.142 23.8304 133.85 21.1202 137.196 21.0893L137.196 21.0889C133.85 21.0581 131.144 18.349 131.113 15L131.113 15C131.082 18.3578 128.362 21.0723 125.003 21.0891ZM131.113 27.2924H131.113L131.113 27.2901L131.113 27.2924Z"/>
</mask>
<path fill-rule="evenodd" clip-rule="evenodd" d="M124.914 21.0889C124.914 21.0891 124.914 21.0892 124.914 21.0893L124.948 21.0892C124.936 21.0891 124.925 21.089 124.914 21.0889ZM125.003 21.0891C128.362 21.106 131.083 23.8216 131.113 27.1803C131.142 23.8304 133.85 21.1202 137.196 21.0893L137.196 21.0889C133.85 21.0581 131.144 18.349 131.113 15L131.113 15C131.082 18.3578 128.362 21.0723 125.003 21.0891ZM131.113 27.2924H131.113L131.113 27.2901L131.113 27.2924Z" fill="#1EBA8D"/>
<path d="M124.914 21.0893L123.914 21.0803L123.905 22.094L124.919 22.0893L124.914 21.0893ZM124.914 21.0889L124.923 20.089L123.923 20.0798L123.914 21.0798L124.914 21.0889ZM124.948 21.0892L124.952 22.0891L124.952 20.0892L124.948 21.0892ZM131.113 27.1803L130.113 27.1891L132.113 27.1891L131.113 27.1803ZM125.003 21.0891L124.998 20.0891L124.998 22.0891L125.003 21.0891ZM137.196 21.0893L137.206 22.0893L138.207 22.08L138.196 21.0792L137.196 21.0893ZM137.196 21.0889L138.196 21.0788L138.186 20.098L137.206 20.089L137.196 21.0889ZM131.113 15L132.113 14.9909L132.104 14.0046L131.118 14L131.113 15ZM131.113 15L131.118 14L130.122 13.9954L130.113 14.9909L131.113 15ZM131.113 27.2924L130.113 27.2834L130.104 28.2924H131.113V27.2924ZM131.113 27.2924V28.2924H132.117L132.113 27.2879L131.113 27.2924ZM131.113 27.2901L132.113 27.2857L130.113 27.2812L131.113 27.2901ZM125.914 21.0984L125.914 21.098L123.914 21.0798L123.914 21.0803L125.914 21.0984ZM124.943 20.0892L124.909 20.0893L124.919 22.0893L124.952 22.0891L124.943 20.0892ZM124.952 20.0892C124.942 20.0891 124.933 20.0891 124.923 20.089L124.905 22.0889C124.918 22.089 124.931 22.0891 124.944 22.0891L124.952 20.0892ZM132.113 27.1715C132.079 23.2669 128.915 20.1087 125.008 20.0891L124.998 22.0891C127.809 22.1032 130.088 24.3763 130.113 27.1891L132.113 27.1715ZM137.187 20.0894C133.294 20.1252 130.147 23.2771 130.113 27.1715L132.113 27.1891C132.138 24.3837 134.405 22.1151 137.206 22.0893L137.187 20.0894ZM136.196 21.0991L136.196 21.0995L138.196 21.0792L138.196 21.0788L136.196 21.0991ZM130.113 15.0091C130.149 18.9025 133.295 22.053 137.187 22.0889L137.206 20.089C134.405 20.0632 132.139 17.7955 132.113 14.9909L130.113 15.0091ZM131.108 16L131.108 16L131.118 14L131.118 14L131.108 16ZM130.113 14.9909C130.087 17.8029 127.809 20.075 124.998 20.0891L125.008 22.0891C128.914 22.0695 132.077 18.9126 132.113 15.0091L130.113 14.9909ZM131.113 28.2924H131.113V26.2924H131.113V28.2924ZM130.113 27.2812L130.113 27.2834L132.113 27.3013L132.113 27.2991L130.113 27.2812ZM132.113 27.2879L132.113 27.2857L130.113 27.2946L130.113 27.2969L132.113 27.2879Z" fill="#1EBA8D" mask="url(#path-15-inside-2_2504_79956)"/>
<path fill-rule="evenodd" clip-rule="evenodd" d="M118.399 119.582C118.399 119.582 118.399 119.582 118.399 119.582C118.399 119.582 118.399 119.582 118.399 119.583V131.858C118.399 132.963 117.504 133.858 116.399 133.858H99.1484C98.0439 133.858 97.1484 132.963 97.1484 131.858V120.006C97.1484 119.772 97.3381 119.582 97.572 119.582C97.6813 119.582 97.7864 119.54 97.8652 119.464L115.014 103.017C116.286 101.797 118.399 102.698 118.399 104.46V119.582Z" fill="#2A3070"/>
<path fill-rule="evenodd" clip-rule="evenodd" d="M103.262 119.582C103.262 119.582 103.262 119.582 103.262 119.582C103.262 119.582 103.262 119.582 103.262 119.583V131.858C103.262 132.963 102.367 133.858 101.262 133.858H84.0117C82.9071 133.858 82.0117 132.963 82.0117 131.858V120.006C82.0117 119.772 82.2014 119.582 82.4353 119.582C82.5446 119.582 82.6496 119.54 82.7285 119.464L99.8776 103.017C101.149 101.797 103.262 102.698 103.262 104.46V119.582Z" fill="#2A3070"/>
<path fill-rule="evenodd" clip-rule="evenodd" d="M87.5432 119.582C87.5432 119.582 87.5433 119.582 87.5434 119.582C87.5435 119.582 87.5436 119.582 87.5436 119.583V131.858C87.5436 132.963 86.6481 133.858 85.5436 133.858H68.293C67.1884 133.858 66.293 132.963 66.293 131.858V120.006C66.293 119.772 66.4826 119.582 66.7166 119.582C66.8258 119.582 66.9309 119.54 67.0098 119.464L84.1588 103.017C85.4303 101.797 87.5432 102.698 87.5432 104.46V119.582Z" fill="#2A3070"/>
<path d="M63.2727 80.4458C63.6228 78.1878 66.8753 78.1878 67.2254 80.4458L75.1611 131.619C75.349 132.831 74.4114 133.925 73.1847 133.925H57.3134C56.0867 133.925 55.149 132.831 55.337 131.618L63.2727 80.4458Z" fill="#1EBA8D"/>
<path d="M89.734 38.7731C89.734 43.6888 85.7523 47.6731 80.8416 47.6731C75.9309 47.6731 71.9492 43.6888 71.9492 38.7731C71.9492 33.8573 75.9309 29.873 80.8416 29.873C85.7523 29.873 89.734 33.8573 89.734 38.7731Z" fill="#6470F4" stroke="#2A3070"/>
<mask id="path-22-inside-3_2504_79956" fill="white">
<path fill-rule="evenodd" clip-rule="evenodd" d="M80.9069 48.1733C84.0893 46.2484 86.2167 42.7528 86.2167 38.7599C86.2167 34.7853 84.1087 31.3034 80.9505 29.373C77.7681 31.2979 75.6406 34.7935 75.6406 38.7864C75.6406 42.761 77.7487 46.2429 80.9069 48.1733Z"/>
</mask>
<path d="M80.9069 48.1733L80.3854 49.0265L80.9042 49.3436L81.4245 49.0289L80.9069 48.1733ZM80.9505 29.373L81.472 28.5198L80.9532 28.2027L80.4329 28.5174L80.9505 29.373ZM85.2167 38.7599C85.2167 42.3887 83.2845 45.5665 80.3894 47.3176L81.4245 49.0289C84.894 46.9303 87.2167 43.1169 87.2167 38.7599H85.2167ZM80.429 30.2263C83.3021 31.9824 85.2167 35.1477 85.2167 38.7599H87.2167C87.2167 34.4228 84.9152 30.6243 81.472 28.5198L80.429 30.2263ZM76.6406 38.7864C76.6406 35.1576 78.5729 31.9798 81.468 30.2287L80.4329 28.5174C76.9633 30.616 74.6406 34.4294 74.6406 38.7864H76.6406ZM81.4284 47.32C78.5552 45.5639 76.6406 42.3986 76.6406 38.7864H74.6406C74.6406 43.1235 76.9422 46.922 80.3854 49.0265L81.4284 47.32Z" fill="#2A3070" mask="url(#path-22-inside-3_2504_79956)"/>
<line x1="71.625" y1="38.3613" x2="90.2342" y2="38.3613" stroke="#2A3070"/>
<line x1="73.2656" y1="33.793" x2="88.4108" y2="33.793" stroke="#2A3070"/>
<line x1="72.6797" y1="42.9287" x2="88.8311" y2="42.9287" stroke="#2A3070"/>
<line x1="81.168" y1="29.5488" x2="81.168" y2="48.1732" stroke="#2A3070"/>
<path d="M41.1059 98.1158C22.0651 111.8 11.3938 124.013 14.4995 130.408C19.7563 141.232 62.4934 131.292 109.956 108.205C157.418 85.1182 191.632 57.6276 186.375 46.8031C183.363 40.6012 168.048 41.2158 146.59 47.2138M96.3767 66.3988C100.97 64.2447 105.507 62.2188 109.956 60.328" stroke="white" stroke-width="1.5"/>
<rect width="3.61473" height="15.1752" rx="1.80737" transform="matrix(0.478399 -0.878143 0.877816 0.478998 122.023 57.8555)" fill="#1EBA8D"/>
</svg>
