<svg width="197" height="156" viewBox="0 0 197 156" fill="none" xmlns="http://www.w3.org/2000/svg">
<ellipse opacity="0.03" cx="93.5354" cy="72.4204" rx="54.6218" ry="53.2622" stroke="#2A3070" stroke-width="60"/>
<mask id="path-2-inside-1_2402_38954" fill="white">
<path fill-rule="evenodd" clip-rule="evenodd" d="M75.4467 144.62C97.8705 121.914 130.854 88.5139 130.854 57.3964C130.854 25.6972 105.489 0 74.2006 0C42.9119 0 17.5474 25.6972 17.5474 57.3964C17.5474 88.5169 52.8122 124.225 73.0855 144.753C73.4625 145.135 73.8343 145.511 74.2006 145.883C74.6121 145.466 75.0276 145.045 75.4467 144.62ZM74.2008 89.4118C92.4526 89.4118 107.249 74.6635 107.249 56.4706C107.249 38.2776 92.4526 23.5293 74.2008 23.5293C55.9491 23.5293 41.1531 38.2776 41.1531 56.4706C41.1531 74.6635 55.9491 89.4118 74.2008 89.4118Z"/>
</mask>
<path d="M75.4467 144.62L76.3717 145.534H76.3717L75.4467 144.62ZM73.0855 144.753L74.0105 143.84L74.0105 143.84L73.0855 144.753ZM74.2006 145.883L73.2754 146.796L74.2006 147.733L75.1258 146.796L74.2006 145.883ZM129.554 57.3964C129.554 72.529 121.515 88.3763 110.511 103.394C99.5275 118.382 85.7443 132.343 74.5217 143.707L76.3717 145.534C87.5729 134.191 101.493 120.099 112.608 104.931C123.701 89.7927 132.154 73.3813 132.154 57.3964H129.554ZM74.2006 1.3C104.755 1.3 129.554 26.3992 129.554 57.3964H132.154C132.154 24.9953 106.223 -1.3 74.2006 -1.3V1.3ZM18.8474 57.3964C18.8474 26.3992 43.6458 1.3 74.2006 1.3V-1.3C42.178 -1.3 16.2474 24.9953 16.2474 57.3964H18.8474ZM74.0105 143.84C63.8658 133.568 50.0466 119.572 38.76 104.275C27.4425 88.9365 18.8474 72.5178 18.8474 57.3964H16.2474C16.2474 73.3955 25.2847 90.3911 36.6679 105.819C48.0821 121.288 62.032 135.411 72.1605 145.667L74.0105 143.84ZM75.1258 144.969C74.7594 144.598 74.3874 144.221 74.0105 143.84L72.1605 145.667C72.5375 146.048 72.9092 146.425 73.2754 146.796L75.1258 144.969ZM74.5217 143.707C74.1026 144.131 73.687 144.552 73.2754 144.969L75.1258 146.796C75.5372 146.379 75.9525 145.958 76.3717 145.534L74.5217 143.707ZM105.949 56.4706C105.949 73.9416 91.7385 88.1118 74.2008 88.1118V90.7118C93.1666 90.7118 108.549 75.3854 108.549 56.4706H105.949ZM74.2008 24.8293C91.7385 24.8293 105.949 38.9996 105.949 56.4706H108.549C108.549 37.5557 93.1666 22.2293 74.2008 22.2293V24.8293ZM42.4531 56.4706C42.4531 38.9996 56.6631 24.8293 74.2008 24.8293V22.2293C55.2351 22.2293 39.8531 37.5557 39.8531 56.4706H42.4531ZM74.2008 88.1118C56.6631 88.1118 42.4531 73.9416 42.4531 56.4706H39.8531C39.8531 75.3854 55.2351 90.7118 74.2008 90.7118V88.1118Z" fill="white" mask="url(#path-2-inside-1_2402_38954)"/>
<mask id="path-4-inside-2_2402_38954" fill="white">
<path fill-rule="evenodd" clip-rule="evenodd" d="M167.249 141.064C179.226 128.936 196.842 111.098 196.842 94.4782C196.842 77.5479 183.295 63.8232 166.584 63.8232C149.873 63.8232 136.326 77.5479 136.326 94.4782C136.326 111.099 155.16 130.171 165.988 141.135C166.189 141.339 166.388 141.54 166.584 141.738C166.803 141.515 167.025 141.29 167.249 141.064ZM166.583 111.577C176.332 111.577 184.234 103.7 184.234 93.9832C184.234 84.2665 176.332 76.3896 166.583 76.3896C156.835 76.3896 148.933 84.2665 148.933 93.9832C148.933 103.7 156.835 111.577 166.583 111.577Z"/>
</mask>
<path fill-rule="evenodd" clip-rule="evenodd" d="M167.249 141.064C179.226 128.936 196.842 111.098 196.842 94.4782C196.842 77.5479 183.295 63.8232 166.584 63.8232C149.873 63.8232 136.326 77.5479 136.326 94.4782C136.326 111.099 155.16 130.171 165.988 141.135C166.189 141.339 166.388 141.54 166.584 141.738C166.803 141.515 167.025 141.29 167.249 141.064ZM166.583 111.577C176.332 111.577 184.234 103.7 184.234 93.9832C184.234 84.2665 176.332 76.3896 166.583 76.3896C156.835 76.3896 148.933 84.2665 148.933 93.9832C148.933 103.7 156.835 111.577 166.583 111.577Z" fill="white"/>
<path d="M167.249 141.064L167.961 141.766H167.961L167.249 141.064ZM165.988 141.135L165.277 141.837L165.277 141.837L165.988 141.135ZM166.584 141.738L165.872 142.44L166.584 143.161L167.295 142.44L166.584 141.738ZM195.842 94.4782C195.842 102.46 191.597 110.858 185.73 118.864C179.879 126.848 172.534 134.289 166.538 140.361L167.961 141.766C173.941 135.711 181.392 128.169 187.343 120.047C193.278 111.947 197.842 103.116 197.842 94.4782H195.842ZM166.584 64.8232C182.73 64.8232 195.842 78.0879 195.842 94.4782H197.842C197.842 77.008 183.859 62.8232 166.584 62.8232V64.8232ZM137.326 94.4782C137.326 78.0879 150.437 64.8232 166.584 64.8232V62.8232C149.308 62.8232 135.326 77.008 135.326 94.4782H137.326ZM166.7 140.432C161.28 134.944 153.914 127.484 147.901 119.334C141.864 111.152 137.326 102.451 137.326 94.4782H135.326C135.326 103.126 140.204 112.271 146.292 120.522C152.403 128.804 159.869 136.362 165.277 141.837L166.7 140.432ZM167.295 141.035C167.1 140.837 166.901 140.636 166.7 140.432L165.277 141.837C165.478 142.041 165.676 142.242 165.872 142.44L167.295 141.035ZM166.538 140.361C166.314 140.588 166.092 140.813 165.872 141.035L167.295 142.44C167.515 142.218 167.737 141.993 167.961 141.766L166.538 140.361ZM183.234 93.9832C183.234 103.145 175.782 110.577 166.583 110.577V112.577C176.881 112.577 185.234 104.255 185.234 93.9832H183.234ZM166.583 77.3896C175.782 77.3896 183.234 84.8218 183.234 93.9832H185.234C185.234 83.7112 176.881 75.3896 166.583 75.3896V77.3896ZM149.933 93.9832C149.933 84.8218 157.385 77.3896 166.583 77.3896V75.3896C156.286 75.3896 147.933 83.7112 147.933 93.9832H149.933ZM166.583 110.577C157.385 110.577 149.933 103.145 149.933 93.9832H147.933C147.933 104.255 156.286 112.577 166.583 112.577V110.577Z" fill="#1EBE8E" mask="url(#path-4-inside-2_2402_38954)"/>
<path d="M4.54558 49.661C3.96513 47.1538 5.869 44.7588 8.4425 44.7588H19.4665C21.3281 44.7588 22.9435 46.043 23.3634 47.8566L29.0681 72.4974C29.6486 75.0046 27.7447 77.3996 25.1712 77.3996H14.1472C12.2857 77.3996 10.6702 76.1154 10.2503 74.3018L4.54558 49.661Z" fill="#6672F8"/>
<path d="M7.52263 49.661C6.94218 47.1538 8.84605 44.7588 11.4196 44.7588H22.4436C24.3051 44.7588 25.9206 46.043 26.3405 47.8566L32.0452 72.4974C32.6256 75.0046 30.7218 77.3996 28.1483 77.3996H17.1243C15.2627 77.3996 13.6472 76.1154 13.2273 74.3018L7.52263 49.661Z" fill="#2A3070"/>
<ellipse cx="22.7604" cy="72.9485" rx="1.48847" ry="1.48367" fill="#FACF35"/>
<path d="M143.381 100.396C142.746 95.964 138.95 92.6729 134.472 92.6729H63.9675C58.997 92.6729 54.9675 96.7023 54.9675 101.673V130.136C54.9675 135.106 58.997 139.136 63.9675 139.136H138.552C144.03 139.136 148.238 134.282 147.461 128.859L143.381 100.396Z" fill="#2A3070"/>
<path d="M121.992 139.251C121.992 142.636 124.745 145.382 128.145 145.382C131.544 145.382 134.297 142.636 134.297 139.251C134.297 135.867 131.544 133.12 128.145 133.12C124.745 133.12 121.992 135.867 121.992 139.251Z" fill="white" stroke="#2A3070"/>
<path d="M67.9407 139.251C67.9407 142.636 70.6937 145.382 74.0931 145.382C77.4926 145.382 80.2456 142.636 80.2456 139.251C80.2456 135.867 77.4926 133.12 74.0931 133.12C70.6937 133.12 67.9407 135.867 67.9407 139.251Z" fill="white" stroke="#2A3070"/>
<path d="M143.31 100.048H54.9674V119.223H146.048L143.31 100.048Z" fill="#6672F8"/>
<line y1="-0.5" x2="19.1752" y2="-0.5" transform="matrix(4.37114e-08 1 1 -4.37114e-08 133.396 100.047)" stroke="#2A3070"/>
<line y1="-0.5" x2="19.1752" y2="-0.5" transform="matrix(5.70844e-08 1 1 -3.34713e-08 109.719 100.047)" stroke="#2A3070"/>
<line y1="-0.5" x2="19.1752" y2="-0.5" transform="matrix(5.70844e-08 1 1 -3.34713e-08 86.0435 100.047)" stroke="#2A3070"/>
<line y1="-0.5" x2="19.1752" y2="-0.5" transform="matrix(5.70844e-08 1 1 -3.34713e-08 62.3667 100.047)" stroke="#2A3070"/>
<ellipse cx="1.84972" cy="1.84376" rx="1.84972" ry="1.84376" transform="matrix(-1 0 0 1 60.8867 128.073)" fill="#6672F8"/>
<path fill-rule="evenodd" clip-rule="evenodd" d="M147.789 130.944C147.457 131.437 146.892 131.761 146.252 131.761C145.23 131.761 144.402 130.935 144.402 129.917C144.402 128.899 145.23 128.073 146.252 128.073C146.679 128.073 147.071 128.217 147.384 128.459L147.789 130.944Z" fill="#6672F8"/>
<path d="M62.3656 133.066C62.3656 139.849 56.849 145.35 50.0396 145.35C43.2301 145.35 37.7135 139.849 37.7135 133.066C37.7135 126.284 43.2301 120.782 50.0396 120.782C56.849 120.782 62.3656 126.284 62.3656 133.066Z" fill="#FACF35" stroke="#FACF35" stroke-width="1.3"/>
<path d="M26.2182 133.066C26.2182 139.849 20.7016 145.35 13.8921 145.35C7.08261 145.35 1.56602 139.849 1.56602 133.066C1.56602 126.284 7.08261 120.782 13.8921 120.782C20.7016 120.782 26.2182 126.284 26.2182 133.066Z" fill="#FACF35" stroke="#FACF35" stroke-width="1.3"/>
<path d="M14.9065 132.877L22.5944 116.162H41.096L32.4962 132.877H14.9065Z" stroke="#2A3070" stroke-width="1.3" stroke-linejoin="bevel"/>
<path d="M44.9418 111.816H39.6123L50.0395 133.297" stroke="#2A3070" stroke-width="1.3" stroke-linecap="round"/>
<path d="M18.5269 108.583L32.6615 133.066" stroke="#2A3070" stroke-width="1.3"/>
<line x1="15.9322" y1="108.395" x2="21.5837" y2="108.395" stroke="#2A3070" stroke-width="1.3" stroke-linecap="round"/>
<ellipse cx="184.209" cy="141.398" rx="4.38082" ry="4.36672" fill="#FCA081"/>
<path d="M183.919 134.323C180.237 134.715 177.366 137.9 177.366 141.772H162.903" stroke="#2A3070" stroke-width="1.3"/>
<path d="M184.295 141.413L180.61 116.107L176.722 114.912" stroke="#2A3070" stroke-width="1.3"/>
<ellipse cx="162.461" cy="141.398" rx="4.38081" ry="4.36672" fill="#FCA081"/>
<path d="M20.4575 56.675C85.7348 24.3487 153.923 55.5336 166.812 92.4186" stroke="#6672F8" stroke-width="2" stroke-linecap="round" stroke-dasharray="1 5"/>
</svg>
