<svg width="259" height="156" viewBox="0 0 259 156" fill="none" xmlns="http://www.w3.org/2000/svg">
<ellipse opacity="0.03" cx="130.22" cy="95.8417" rx="73.5108" ry="73.5409" stroke="#2A3070" stroke-width="60"/>
<path d="M100.934 23.5346C104.11 20.3571 109.26 20.3571 112.436 23.5346" stroke="white" stroke-width="1.5"/>
<path opacity="0.7" d="M97.642 19.409C102.636 14.4127 110.734 14.4127 115.728 19.409" stroke="white" stroke-width="1.5"/>
<path opacity="0.4" d="M93.9628 15.7275C100.989 8.6983 112.381 8.6983 119.407 15.7275" stroke="white" stroke-width="1.5"/>
<path d="M66.6431 105.439C69.9791 96.9241 77.7216 80.8319 82.0029 84.5805C86.2843 88.329 73.547 100.048 66.6431 105.439Z" stroke="#2A3070" stroke-width="1.5"/>
<line x1="0.75" y1="-0.75" x2="17.6292" y2="-0.75" transform="matrix(0.608085 -0.796269 0.786377 0.600545 67.0244 105.204)" stroke="#2A3070" stroke-width="1.5" stroke-linecap="round"/>
<path fill-rule="evenodd" clip-rule="evenodd" d="M45.6099 61.7693C46.9687 62.652 48.5317 61.2849 48.034 59.6382C46.4534 54.4086 43.7767 49.0534 40.0305 44.0356C36.2372 38.9548 31.8055 34.8336 27.1872 31.8335C25.8284 30.9508 24.2654 32.3179 24.7631 33.9646C26.3437 39.1942 29.0204 44.5494 32.7666 49.5672C36.5599 54.648 40.9916 58.7692 45.6099 61.7693Z" fill="#FCA081"/>
<path fill-rule="evenodd" clip-rule="evenodd" d="M50.9809 59.8366C49.2615 60.5102 49.4892 62.914 51.2914 63.1284C55.9137 63.6783 60.9611 63.669 66.1974 63.0041C71.5154 62.3288 76.4939 61.0451 80.9151 59.3131C82.6346 58.6395 82.4069 56.2357 80.6046 56.0213C75.9823 55.4714 70.9349 55.4807 65.6986 56.1456C60.3806 56.8209 55.4021 58.1047 50.9809 59.8366Z" fill="white"/>
<path fill-rule="evenodd" clip-rule="evenodd" d="M31.561 93.5525C31.2041 95.3971 33.0577 96.4437 34.2401 95.0712C37.4706 91.321 40.4388 86.8116 42.8866 81.7239C45.2819 76.7452 46.9306 71.7285 47.8519 66.9675C48.2089 65.1229 46.3553 64.0763 45.1729 65.4489C41.9424 69.1991 38.9742 73.7085 36.5264 78.7962C34.1311 83.7749 32.4824 88.7915 31.561 93.5525Z" fill="#1EBE8E"/>
<path d="M50.5689 60.2743C51.603 61.6596 51.303 63.6662 49.8616 64.7511C48.4203 65.836 46.4182 65.5622 45.3841 64.1769C44.3501 62.7916 44.6501 60.785 46.0914 59.7001C47.5328 58.6152 49.5349 58.889 50.5689 60.2743Z" fill="#2A3070" stroke="#2A3070"/>
<path d="M50.1992 63.8447C55.2686 68.0538 65.5905 79.878 66.3227 93.502C67.238 110.532 60.263 129.44 69.1659 146.404" stroke="#2A3070" stroke-width="1.5"/>
<line x1="234.997" y1="5.44434" x2="258.281" y2="5.44434" stroke="#6672F8"/>
<rect x="86.645" y="114.144" width="39.2501" height="33.2765" rx="5" fill="#1EBE8E"/>
<rect x="134.107" y="74.123" width="2.17628" height="5.80582" rx="1.08814" fill="#1EBE8E"/>
<rect x="134.107" y="56.7051" width="2.17628" height="5.80582" rx="1.08814" fill="#1EBE8E"/>
<rect x="134.108" y="39.2881" width="2.1763" height="5.80582" rx="1.08815" fill="#1EBE8E"/>
<rect x="134.107" y="91.54" width="2.17628" height="5.80583" rx="1.08814" fill="#1EBE8E"/>
<rect x="134.107" y="108.959" width="2.17628" height="5.80583" rx="1.08814" fill="#1EBE8E"/>
<rect x="134.107" y="126.376" width="2.17628" height="5.80582" rx="1.08814" fill="#1EBE8E"/>
<rect x="141.362" y="74.123" width="2.1763" height="5.80582" rx="1.08815" fill="#1EBE8E"/>
<rect x="141.362" y="56.7051" width="2.1763" height="5.80582" rx="1.08815" fill="#1EBE8E"/>
<rect x="141.362" y="39.2881" width="2.1763" height="5.80582" rx="1.08815" fill="#1EBE8E"/>
<rect x="141.362" y="91.54" width="2.1763" height="5.80583" rx="1.08815" fill="#1EBE8E"/>
<rect x="141.362" y="108.959" width="2.1763" height="5.80583" rx="1.08815" fill="#1EBE8E"/>
<rect x="141.362" y="126.376" width="2.1763" height="5.80582" rx="1.08815" fill="#1EBE8E"/>
<path d="M119.908 27.7001C119.908 25.8964 120.88 24.2326 122.45 23.3459L151.035 7.20995C154.368 5.32843 158.493 7.73662 158.493 11.5641V141.754C158.493 144.516 156.254 146.754 153.493 146.754H124.908C122.147 146.754 119.908 144.516 119.908 141.754V27.7001Z" stroke="#1EBE8E" stroke-width="1.5"/>
<rect x="134.107" y="74.123" width="2.17628" height="5.80582" rx="1.08814" fill="#1EBE8E"/>
<rect x="134.107" y="56.7051" width="2.17628" height="5.80582" rx="1.08814" fill="#1EBE8E"/>
<rect x="134.108" y="39.2881" width="2.1763" height="5.80582" rx="1.08815" fill="#1EBE8E"/>
<rect x="134.107" y="91.54" width="2.17628" height="5.80583" rx="1.08814" fill="#1EBE8E"/>
<rect x="134.107" y="108.959" width="2.17628" height="5.80583" rx="1.08814" fill="#1EBE8E"/>
<rect x="134.107" y="126.376" width="2.17628" height="5.80582" rx="1.08814" fill="#1EBE8E"/>
<rect x="141.362" y="74.123" width="2.1763" height="5.80582" rx="1.08815" fill="#1EBE8E"/>
<rect x="141.362" y="56.7051" width="2.1763" height="5.80582" rx="1.08815" fill="#1EBE8E"/>
<rect x="141.362" y="39.2881" width="2.1763" height="5.80582" rx="1.08815" fill="#1EBE8E"/>
<rect x="141.362" y="91.54" width="2.1763" height="5.80583" rx="1.08815" fill="#1EBE8E"/>
<rect x="141.362" y="108.959" width="2.1763" height="5.80583" rx="1.08815" fill="#1EBE8E"/>
<rect x="141.362" y="126.376" width="2.1763" height="5.80582" rx="1.08815" fill="#1EBE8E"/>
<path d="M119.908 27.7001C119.908 25.8964 120.88 24.2326 122.45 23.3459L151.035 7.20995C154.368 5.32843 158.493 7.73662 158.493 11.5641V141.754C158.493 144.516 156.254 146.754 153.493 146.754H124.908C122.147 146.754 119.908 144.516 119.908 141.754V27.7001Z" stroke="#1EBE8E" stroke-width="1.5"/>
<path d="M179.781 69.715C179.781 67.8441 178.736 66.1298 177.074 65.2718L159.133 56.0129C155.805 54.2954 151.84 56.7112 151.84 60.456V142.42C151.84 145.181 154.079 147.42 156.84 147.42H174.781C177.542 147.42 179.781 145.181 179.781 142.42V69.715Z" fill="#FACF35"/>
<rect x="99.2842" y="80.8662" width="39.2501" height="33.2764" rx="5" fill="#2A3070"/>
<rect x="86.645" y="47.5918" width="39.2501" height="33.2765" rx="5" fill="#FACF35"/>
<path d="M103.283 29.5759C105.15 28.0585 107.832 28.0858 109.668 29.641L129.05 46.061C130.471 47.2649 129.62 49.587 127.757 49.587H84.2929C82.4101 49.587 81.5704 47.2225 83.0315 46.0349L103.283 29.5759Z" fill="#2A3070"/>
<rect x="160.949" y="74.1201" width="2.1763" height="5.80582" rx="1.08815" fill="#6672F8"/>
<rect x="160.949" y="91.5371" width="2.17628" height="5.80582" rx="1.08814" fill="#6672F8"/>
<rect x="160.949" y="108.955" width="2.17628" height="5.80582" rx="1.08814" fill="#6672F8"/>
<rect x="160.949" y="126.372" width="2.17628" height="5.8058" rx="1.08814" fill="#6672F8"/>
<rect x="168.203" y="74.1201" width="2.17628" height="5.80582" rx="1.08814" fill="#6672F8"/>
<rect x="168.203" y="91.5371" width="2.17628" height="5.80582" rx="1.08814" fill="#6672F8"/>
<rect x="168.203" y="108.955" width="2.17628" height="5.80582" rx="1.08814" fill="#6672F8"/>
<rect x="168.203" y="126.372" width="2.17628" height="5.8058" rx="1.08814" fill="#6672F8"/>
<line x1="188.715" y1="124.196" x2="188.715" y2="147.42" stroke="#2A3070" stroke-width="1.5"/>
<path d="M162.043 112.399C159.801 109.078 162.18 104.601 166.187 104.601H197.462C199.123 104.601 200.676 105.426 201.606 106.803L208.506 117.022C210.748 120.342 208.369 124.82 204.362 124.82H173.087C171.426 124.82 169.873 123.994 168.943 122.618L162.043 112.399Z" fill="#000091"/>
<path d="M163.861 112.399C161.619 109.078 163.998 104.601 168.005 104.601H199.28C200.942 104.601 202.495 105.426 203.424 106.803L210.324 117.022C212.567 120.342 210.188 124.82 206.181 124.82H174.905C173.244 124.82 171.691 123.994 170.761 122.618L163.861 112.399Z" fill="white"/>
<line x1="163.043" y1="110.522" x2="206.294" y2="110.522" stroke="#6672F8" stroke-width="1.5"/>
<line x1="167.69" y1="117.195" x2="211.144" y2="117.195" stroke="#6672F8" stroke-width="1.5"/>
<line y1="-0.75" x2="24.39" y2="-0.75" transform="matrix(0.555195 0.83172 -0.83151 0.55551 167.287 104.601)" stroke="#6672F8" stroke-width="1.5"/>
<line y1="-0.75" x2="24.39" y2="-0.75" transform="matrix(0.555195 0.83172 -0.83151 0.55551 175.978 104.601)" stroke="#6672F8" stroke-width="1.5"/>
<line y1="-0.75" x2="24.39" y2="-0.75" transform="matrix(0.555195 0.831721 -0.83151 0.55551 184.667 104.601)" stroke="#6672F8" stroke-width="1.5"/>
<line y1="-0.75" x2="24.39" y2="-0.75" transform="matrix(0.555194 0.831721 -0.831509 0.555511 193.359 104.601)" stroke="#6672F8" stroke-width="1.5"/>
<path fill-rule="evenodd" clip-rule="evenodd" d="M92.4492 147.695H55.4005C55.3862 147.54 55.3789 147.384 55.3789 147.226C55.3789 143.971 58.4841 141.332 62.3146 141.332C63.6845 141.332 64.9617 141.669 66.0372 142.252C67.7191 140.149 70.5565 138.769 73.7735 138.769C77.0504 138.769 79.9334 140.201 81.6025 142.37C82.7201 141.715 84.0749 141.332 85.5351 141.332C89.3656 141.332 92.4708 143.971 92.4708 147.226C92.4708 147.384 92.4635 147.54 92.4492 147.695Z" fill="white"/>
<path fill-rule="evenodd" clip-rule="evenodd" d="M175.142 147.695H197.458C197.496 147.435 197.515 147.171 197.515 146.902C197.515 143.361 194.138 140.49 189.971 140.49C187.375 140.49 185.085 141.604 183.727 143.301C182.859 142.83 181.828 142.558 180.722 142.558C177.631 142.558 175.125 144.688 175.125 147.315C175.125 147.443 175.13 147.57 175.142 147.695Z" fill="#1EBE8E"/>
</svg>
