<svg width="81" height="80" viewBox="0 0 81 80" fill="none" xmlns="http://www.w3.org/2000/svg">
<g clip-path="url(#clip0_2251_12287)">
<rect width="80" height="80" transform="translate(0.125)" fill="white"/>
<path d="M24.4561 38.1917C24.7447 36.7409 25.633 35.4795 26.9017 34.7188L37.342 28.4588C39.0014 27.4638 41.074 27.4638 42.7334 28.4588L52.6197 34.3866C54.1993 35.3338 55.166 37.0405 55.166 38.8824V72.1929C55.166 75.088 52.8191 77.4349 49.924 77.4349H23.0361C19.7303 77.4349 17.2498 74.4123 17.8949 71.1701L24.4561 38.1917Z" fill="#1EBE8E" stroke="#1EBE8E" stroke-width="1.96575"/>
<path d="M47.2109 58.9584C47.2109 55.6776 49.6373 52.9025 52.8887 52.4645L72.6975 49.7961C76.6285 49.2665 80.1248 52.3235 80.1248 56.2899V71.5065C80.1248 75.1253 77.1912 78.059 73.5723 78.059H53.7635C50.1446 78.059 47.2109 75.1253 47.2109 71.5065V58.9584Z" fill="#FACF35"/>
<line x1="0.655251" y1="-0.655251" x2="17.4339" y2="-0.655251" transform="matrix(-1 0 0 1 73.0566 61.0115)" stroke="white" stroke-width="1.3105" stroke-linecap="round"/>
<line x1="0.655251" y1="-0.655251" x2="20.0719" y2="-0.655251" transform="matrix(-1 0 0 1 72.0215 68.8937)" stroke="white" stroke-width="1.3105" stroke-linecap="round"/>
<line x1="0.655251" y1="-0.655251" x2="17.4339" y2="-0.655251" transform="matrix(-1 0 0 1 71.5479 65)" stroke="white" stroke-width="1.3105" stroke-linecap="round"/>
<path d="M28.376 21.1023C28.376 18.4023 26.7199 15.9788 24.2045 14.9977L9.05824 9.08996C4.76189 7.41419 0.124665 10.583 0.124665 15.1945V71.7802C0.124665 75.3991 3.05832 78.3327 6.67718 78.3327H21.8235C25.4423 78.3327 28.376 75.3991 28.376 71.7802V21.1023Z" fill="#2A3070"/>
<rect x="9.33594" y="22.3217" width="2.20048" height="4.43668" rx="1.10024" fill="white"/>
<rect x="9.33496" y="36.2571" width="2.20048" height="4.43668" rx="1.10024" fill="white"/>
<rect x="9.33496" y="49.5668" width="2.20048" height="4.43668" rx="1.10024" fill="white"/>
<rect x="16.6758" y="22.3224" width="2.20048" height="4.43668" rx="1.10024" fill="white"/>
<rect x="16.6758" y="36.2571" width="2.20048" height="4.43668" rx="1.10024" fill="white"/>
<rect x="16.6758" y="49.5668" width="2.20048" height="4.43668" rx="1.10024" fill="white"/>
<rect x="16.6758" y="62.2513" width="2.20048" height="4.43668" rx="1.10024" fill="white"/>
<rect x="34.8291" y="41.2565" width="2.20048" height="4.43668" rx="1.10024" fill="white"/>
<rect x="34.8301" y="54.3304" width="2.20048" height="4.43668" rx="1.10024" fill="white"/>
<rect x="34.8301" y="67.4469" width="2.20048" height="4.43668" rx="1.10024" fill="white"/>
<rect x="42.1592" y="41.2566" width="2.20048" height="4.43668" rx="1.10024" fill="white"/>
<rect x="42.1592" y="54.3304" width="2.20048" height="4.43668" rx="1.10024" fill="white"/>
<rect x="42.1592" y="67.4469" width="2.20048" height="4.43668" rx="1.10024" fill="white"/>
</g>
<defs>
<clipPath id="clip0_2251_12287">
<rect width="80" height="80" fill="white" transform="translate(0.125)"/>
</clipPath>
</defs>
</svg>
