<svg width="81" height="80" viewBox="0 0 81 80" fill="none" xmlns="http://www.w3.org/2000/svg">
<g clip-path="url(#clip0_2251_14859)">
<path d="M1.38164 5.46182C1.10974 2.53059 3.41645 0 6.36027 0H57.0328C59.6153 0 61.7729 1.96672 62.0114 4.53818L67.9833 68.9178C68.2552 71.8491 65.9485 74.3796 63.0047 74.3796H12.3322C9.74966 74.3796 7.59205 72.4129 7.35352 69.8415L1.38164 5.46182Z" fill="#FCA081"/>
<path d="M6.38355 5.44134C6.12442 2.51717 8.42841 0 11.364 0H57.0871C59.6775 0 61.839 1.97839 62.0676 4.55866L67.5181 66.0665C67.7772 68.9907 65.4732 71.5078 62.5376 71.5078H16.8145C14.2241 71.5078 12.0627 69.5294 11.834 66.9492L6.38355 5.44134Z" fill="white"/>
<path d="M15.8007 12.9744C15.5379 10.0482 17.8427 7.52722 20.7806 7.52722H49.605C52.1931 7.52722 54.3535 9.50228 54.585 12.08L56.2216 30.3068C56.4844 33.233 54.1796 35.754 51.2417 35.754H22.4173C19.8292 35.754 17.6688 33.7789 17.4373 31.2012L15.8007 12.9744Z" fill="#F2F2FA"/>
<line x1="19.7213" y1="45.4529" x2="57.9388" y2="45.4529" stroke="#6672F8" stroke-width="1.3" stroke-linecap="round"/>
<line x1="20.6627" y1="52.98" x2="58.8802" y2="52.98" stroke="#6672F8" stroke-width="1.3" stroke-linecap="round"/>
<line x1="21.6061" y1="60.5072" x2="50.4146" y2="60.5072" stroke="#6672F8" stroke-width="1.3" stroke-linecap="round"/>
<circle cx="66.2518" cy="19.6218" r="14.3642" transform="rotate(30 66.2518 19.6218)" fill="#FACF35"/>
<path d="M72.3866 17.0428C71.8958 15.8491 71.0384 14.8169 69.8595 14.1364C66.8985 12.4268 63.0306 13.5825 61.2205 16.7178C59.4104 19.853 60.3434 23.7805 63.3045 25.4901C64.4833 26.1707 65.8058 26.3972 67.085 26.2254" stroke="white" stroke-width="1.3" stroke-linecap="round"/>
<line x1="60.7619" y1="14.4418" x2="66.2591" y2="17.6156" stroke="white" stroke-width="1.3" stroke-linecap="round"/>
<line x1="58.9543" y1="17.5782" x2="64.4515" y2="20.752" stroke="white" stroke-width="1.3" stroke-linecap="round"/>
</g>
<defs>
<clipPath id="clip0_2251_14859">
<rect width="80" height="80" fill="white" transform="translate(0.875)"/>
</clipPath>
</defs>
</svg>
