<svg width="57" height="53" viewBox="0 0 57 53" fill="none" xmlns="http://www.w3.org/2000/svg">
<path d="M0.573047 5.46182C0.301145 2.53059 2.60786 0 5.55167 0H38.0096C40.5921 0 42.7497 1.96672 42.9882 4.53818L46.8902 46.6039C47.1621 49.5352 44.8554 52.0658 41.9116 52.0658H9.45371C6.87121 52.0658 4.71361 50.099 4.47508 47.5276L0.573047 5.46182Z" fill="#FCA081"/>
<path d="M4.06812 5.44135C3.809 2.51718 6.11298 0 9.0486 0H38.043C40.6334 0 42.7948 1.97839 43.0235 4.55866L46.573 44.6141C46.8321 47.5383 44.5281 50.0555 41.5925 50.0555H12.5981C10.0077 50.0555 7.84626 48.0771 7.61761 45.4968L4.06812 5.44135Z" fill="white"/>
<path d="M10.661 10.7162C10.3982 7.79003 12.703 5.26904 15.641 5.26904H32.806C35.3941 5.26904 37.5545 7.2441 37.7859 9.82186L38.6622 19.5806C38.925 22.5068 36.6202 25.0278 33.6823 25.0278H16.5173C13.9291 25.0278 11.7688 23.0527 11.5373 20.475L10.661 10.7162Z" fill="#F2F2FA"/>
<line x1="13.4547" y1="31.622" x2="39.8169" y2="31.622" stroke="#6672F8" stroke-width="1.3" stroke-linecap="round"/>
<line x1="14.1148" y1="36.891" x2="40.4771" y2="36.891" stroke="#6672F8" stroke-width="1.3" stroke-linecap="round"/>
<line x1="14.775" y1="42.1601" x2="34.551" y2="42.1601" stroke="#6672F8" stroke-width="1.3" stroke-linecap="round"/>
<circle cx="45.8288" cy="13.7353" r="10.0549" transform="rotate(30 45.8288 13.7353)" fill="#FACF35"/>
<path d="M50.1236 11.9299C49.78 11.0944 49.1798 10.3719 48.3546 9.89546C46.2819 8.69876 43.5744 9.50777 42.3073 11.7024C41.0402 13.8971 41.6933 16.6464 43.766 17.8431C44.5912 18.3195 45.517 18.478 46.4124 18.3578" stroke="white" stroke-width="1.3" stroke-linecap="round"/>
<line x1="42.2512" y1="10.038" x2="45.7615" y2="12.0646" stroke="white" stroke-width="1.3" stroke-linecap="round"/>
<line x1="40.9895" y1="12.2335" x2="44.4998" y2="14.2602" stroke="white" stroke-width="1.3" stroke-linecap="round"/>
</svg>
