<svg width="39" height="39" viewBox="0 0 39 39" fill="none" xmlns="http://www.w3.org/2000/svg">
<path d="M22.7451 16.7318L36.1628 16.7318C37.4674 16.7318 38.5249 17.7893 38.5249 19.0939C38.5249 20.3226 37.5831 21.3433 36.342 21.4488L36.1628 21.4559L22.7451 21.4559L22.7451 36.4007L22.738 36.5799C22.6324 37.821 21.6118 38.7628 20.383 38.7628C19.0785 38.7628 18.0209 37.7053 18.0209 36.4007L18.0209 21.4559L3.07613 21.4559C1.77159 21.4559 0.714048 20.3984 0.714049 19.0939C0.714049 17.8651 1.65583 16.8445 2.89694 16.7389L3.07613 16.7318L18.0209 16.7318V3.31407L18.028 3.13488C18.1336 1.89377 19.1542 0.951988 20.383 0.951988C21.6875 0.951988 22.7451 2.00953 22.7451 3.31407L22.7451 16.7318Z" fill="#6266EF"/>
</svg>
