<svg width="1440" height="571" viewBox="0 0 1440 571" fill="none" xmlns="http://www.w3.org/2000/svg">
<path d="M456.023 553.28C328.823 551.31 101.023 528.336 0.0234375 523.249L0.0234375 571.003L1440.02 571.003L1440.02 271C1440.02 271 1354.61 280.858 1320 317C1218.5 423 1192.5 365.501 1040 365.501C887.498 365.501 615.023 555.741 456.023 553.28Z" fill="#4142B0"/>
<path fill-rule="evenodd" clip-rule="evenodd" d="M1440.55 4.49325L1440.55 107.089C1433.03 109.981 1424.76 111.583 1416.06 111.583C1400.81 111.583 1386.84 106.653 1376.03 98.4732C1367.14 104.59 1355.73 108.267 1343.29 108.268C1314.96 108.268 1292 89.2216 1292 65.7272C1292 42.2329 1314.96 23.187 1343.29 23.187C1350.33 23.187 1357.04 24.3643 1363.15 26.4945C1374.1 10.5942 1393.7 0 1416.06 0C1424.76 0 1433.03 1.60133 1440.55 4.49325Z" fill="#E8EDFF" fill-opacity="0.28"/>
<path d="M1181.19 313.209C1181.19 327.347 1169.73 338.808 1155.59 338.808C1141.46 338.808 1130 327.347 1130 313.209C1130 299.071 1141.46 287.61 1155.59 287.61C1169.73 287.61 1181.19 299.071 1181.19 313.209Z" fill="#5A66F6"/>
<path d="M1181.19 281.971C1181.19 296.108 1169.73 307.569 1155.59 307.569C1141.46 307.569 1130 296.108 1130 281.971C1130 267.833 1141.46 256.372 1155.59 256.372C1169.73 256.372 1181.19 267.833 1181.19 281.971Z" fill="#5A66F6"/>
<path d="M1181.19 251.599C1181.19 265.737 1169.73 277.198 1155.59 277.198C1141.46 277.198 1130 265.737 1130 251.599C1130 237.461 1141.46 226 1155.59 226C1169.73 226 1181.19 237.461 1181.19 251.599Z" fill="#5A66F6"/>
<path fill-rule="evenodd" clip-rule="evenodd" d="M1155.03 379.593C1154.48 379.593 1154.03 379.145 1154.03 378.594L1154.03 240.883C1154.03 240.331 1154.48 239.884 1155.03 239.884C1155.58 239.884 1156.03 240.331 1156.03 240.883L1156.03 378.594C1156.03 379.145 1155.58 379.593 1155.03 379.593Z" fill="white"/>
<path fill-rule="evenodd" clip-rule="evenodd" d="M1172.51 246.826C1172.9 247.216 1172.9 247.849 1172.51 248.239L1155.86 264.888L1139.21 248.239C1138.82 247.849 1138.82 247.216 1139.21 246.826C1139.6 246.436 1140.24 246.436 1140.63 246.826L1155.86 262.063L1171.1 246.826C1171.49 246.436 1172.12 246.436 1172.51 246.826Z" fill="white"/>
<path fill-rule="evenodd" clip-rule="evenodd" d="M1171.65 274.212C1172.04 274.602 1172.04 275.235 1171.65 275.625L1155 292.274L1138.35 275.625C1137.96 275.235 1137.96 274.602 1138.35 274.212C1138.74 273.822 1139.37 273.822 1139.76 274.212L1155 289.449L1170.24 274.212C1170.63 273.822 1171.26 273.822 1171.65 274.212Z" fill="white"/>
<path fill-rule="evenodd" clip-rule="evenodd" d="M1172.51 307.187C1172.9 307.577 1172.9 308.209 1172.51 308.599L1155.86 325.249L1139.21 308.599C1138.82 308.209 1138.82 307.577 1139.21 307.187C1139.6 306.797 1140.24 306.797 1140.63 307.187L1155.86 322.423L1171.1 307.187C1171.49 306.797 1172.12 306.797 1172.51 307.187Z" fill="white"/>
<path d="M1201 238.91C1201 214.107 1221.42 194 1246.61 194C1271.8 194 1292.22 214.107 1292.22 238.91L1292.22 293.793C1292.22 318.596 1271.8 338.703 1246.61 338.703C1221.42 338.703 1201 318.596 1201 293.793L1201 238.91Z" fill="#1EBE8E"/>
<path fill-rule="evenodd" clip-rule="evenodd" d="M1247.12 372.169C1246.68 372.169 1246.32 371.819 1246.32 371.388L1246.32 216.334C1246.32 215.902 1246.68 215.553 1247.12 215.553C1247.56 215.553 1247.91 215.902 1247.91 216.334L1247.91 371.388C1247.91 371.819 1247.56 372.169 1247.12 372.169Z" fill="black"/>
<path fill-rule="evenodd" clip-rule="evenodd" d="M1267.5 223.05C1267.81 223.364 1267.81 223.872 1267.5 224.186L1247.47 245.049L1227.44 224.186C1227.14 223.872 1227.14 223.364 1227.44 223.05C1227.74 222.737 1228.23 222.737 1228.53 223.05L1247.47 242.777L1266.41 223.05C1266.72 222.737 1267.2 222.737 1267.5 223.05Z" fill="black"/>
<path fill-rule="evenodd" clip-rule="evenodd" d="M1267.5 256.807C1267.81 257.12 1267.81 257.629 1267.5 257.943L1247.47 278.805L1227.44 257.943C1227.14 257.629 1227.14 257.12 1227.44 256.807C1227.74 256.493 1228.23 256.493 1228.53 256.807L1247.47 276.534L1266.41 256.807C1266.72 256.493 1267.2 256.493 1267.5 256.807Z" fill="black"/>
<path fill-rule="evenodd" clip-rule="evenodd" d="M1267.5 291.049C1267.81 291.363 1267.81 291.871 1267.5 292.185L1247.47 313.047L1227.44 292.185C1227.14 291.871 1227.14 291.363 1227.44 291.049C1227.74 290.736 1228.23 290.736 1228.53 291.049L1247.47 310.776L1266.41 291.049C1266.72 290.736 1267.2 290.736 1267.5 291.049Z" fill="black"/>
<path fill-rule="evenodd" clip-rule="evenodd" d="M929.72 327.086H1011.36C1012.52 323.895 1013.16 320.431 1013.16 316.812C1013.16 300.899 1000.85 288 985.665 288C975.04 288 965.823 294.315 961.245 303.558C957.868 301.021 953.712 299.524 949.216 299.524C937.915 299.524 928.754 308.984 928.754 320.653C928.754 322.896 929.092 325.058 929.72 327.086Z" fill="#E8EDFF" fill-opacity="0.74"/>
<path d="M158.559 427.228C158.753 425.938 159.428 424.77 160.449 423.959L191.779 399.083C193.654 397.593 196.309 397.593 198.184 399.083L229.155 423.675C230.386 424.652 231.103 426.137 231.103 427.708V551.358C231.103 554.202 228.797 556.508 225.953 556.508H145.118C141.969 556.508 139.557 553.707 140.025 550.593L158.559 427.228Z" fill="#1EBE8E"/>
<path fill-rule="evenodd" clip-rule="evenodd" d="M197.581 399.839C196.057 398.629 193.9 398.629 192.377 399.839L161.047 424.716C160.217 425.374 159.669 426.323 159.511 427.371L140.977 550.736C140.597 553.266 142.556 555.542 145.115 555.542H225.95C228.261 555.542 230.134 553.669 230.134 551.358V427.708C230.134 426.431 229.551 425.225 228.552 424.431L197.581 399.839ZM191.176 398.326C193.403 396.558 196.555 396.558 198.782 398.326L229.753 422.918C231.214 424.079 232.065 425.842 232.065 427.708V551.358C232.065 554.735 229.327 557.473 225.95 557.473H145.115C141.376 557.473 138.512 554.147 139.067 550.449L157.601 427.084C157.831 425.553 158.634 424.166 159.846 423.203L191.176 398.326Z" fill="#1EBE8E"/>
<path d="M189.162 431.326C189.162 430.074 190.177 429.059 191.428 429.059C192.68 429.059 193.694 430.074 193.694 431.326V438.895C193.694 440.146 192.68 441.161 191.428 441.161C190.177 441.161 189.162 440.146 189.162 438.895V431.326Z" fill="white"/>
<path d="M189.162 466.983C189.162 465.731 190.177 464.716 191.428 464.716C192.68 464.716 193.694 465.731 193.694 466.983V474.552C193.694 475.803 192.68 476.818 191.428 476.818C190.177 476.818 189.162 475.803 189.162 474.552V466.983Z" fill="white"/>
<path d="M189.162 502.758C189.162 501.506 190.177 500.492 191.428 500.492C192.68 500.492 193.694 501.506 193.694 502.758V510.327C193.694 511.578 192.68 512.593 191.428 512.593C190.177 512.593 189.162 511.578 189.162 510.327V502.758Z" fill="white"/>
<path d="M205.447 431.325C205.447 430.073 206.462 429.059 207.713 429.059C208.965 429.059 209.979 430.073 209.979 431.325V438.894C209.979 440.145 208.965 441.16 207.713 441.16C206.462 441.16 205.447 440.145 205.447 438.894V431.325Z" fill="white"/>
<path d="M205.447 466.983C205.447 465.731 206.462 464.716 207.713 464.716C208.965 464.716 209.979 465.731 209.979 466.983V474.552C209.979 475.803 208.965 476.818 207.713 476.818C206.462 476.818 205.447 475.803 205.447 474.552V466.983Z" fill="white"/>
<path d="M205.447 502.758C205.447 501.506 206.462 500.492 207.713 500.492C208.965 500.492 209.979 501.506 209.979 502.758V510.327C209.979 511.578 208.965 512.593 207.713 512.593C206.462 512.593 205.447 511.578 205.447 510.327V502.758Z" fill="white"/>
<path d="M167.961 336.056C167.961 333.648 166.617 331.442 164.478 330.337L99.412 296.729C95.1272 294.515 90.02 297.626 90.02 302.448V551.145C90.02 554.701 92.9022 557.583 96.4576 557.583H161.523C165.079 557.583 167.961 554.701 167.961 551.145V336.056Z" fill="#646EFA"/>
<path d="M118.85 352.806C118.85 351.13 120.209 349.771 121.885 349.771C123.561 349.771 124.92 351.13 124.92 352.806V362.945C124.92 364.621 123.561 365.98 121.885 365.98C120.209 365.98 118.85 364.621 118.85 362.945V352.806Z" fill="white"/>
<path d="M118.85 403.716C118.85 402.04 120.209 400.681 121.885 400.681C123.561 400.681 124.92 402.04 124.92 403.716V413.854C124.92 415.531 123.561 416.89 121.885 416.89C120.209 416.89 118.85 415.531 118.85 413.854V403.716Z" fill="white"/>
<path d="M118.85 452.343C118.85 450.666 120.209 449.307 121.885 449.307C123.561 449.307 124.92 450.666 124.92 452.343V462.481C124.92 464.158 123.561 465.517 121.885 465.517C120.209 465.517 118.85 464.158 118.85 462.481V452.343Z" fill="white"/>
<path d="M139.084 352.806C139.084 351.129 140.443 349.77 142.119 349.77C143.796 349.77 145.155 351.129 145.155 352.806V362.944C145.155 364.62 143.796 365.979 142.119 365.979C140.443 365.979 139.084 364.62 139.084 362.944V352.806Z" fill="white"/>
<path d="M139.084 403.716C139.084 402.04 140.443 400.681 142.119 400.681C143.796 400.681 145.155 402.04 145.155 403.716V413.854C145.155 415.531 143.796 416.89 142.119 416.89C140.443 416.89 139.084 415.531 139.084 413.854V403.716Z" fill="white"/>
<path d="M139.084 452.343C139.084 450.666 140.443 449.307 142.119 449.307C143.796 449.307 145.155 450.666 145.155 452.343V462.481C145.155 464.158 143.796 465.517 142.119 465.517C140.443 465.517 139.084 464.158 139.084 462.481V452.343Z" fill="white"/>
<path d="M139.084 498.688C139.084 497.012 140.443 495.653 142.119 495.653C143.796 495.653 145.155 497.012 145.155 498.688V508.827C145.155 510.503 143.796 511.862 142.119 511.862C140.443 511.862 139.084 510.503 139.084 508.827V498.688Z" fill="white"/>
<path d="M119.377 498.688C119.377 497.012 120.736 495.653 122.412 495.653C124.089 495.653 125.448 497.012 125.448 498.688V508.827C125.448 510.503 124.089 511.862 122.412 511.862C120.736 511.862 119.377 510.503 119.377 508.827V498.688Z" fill="white"/>
<path d="M300.018 487.922C300.018 501.828 288.745 513.101 274.839 513.101C260.933 513.101 249.66 501.828 249.66 487.922C249.66 474.016 260.933 462.744 274.839 462.744C288.745 462.744 300.018 474.016 300.018 487.922Z" fill="#FCA081"/>
<path d="M300.018 457.196C300.018 471.102 288.745 482.375 274.839 482.375C260.933 482.375 249.66 471.102 249.66 457.196C249.66 443.29 260.933 432.017 274.839 432.017C288.745 432.017 300.018 443.29 300.018 457.196Z" fill="#FCA081"/>
<path d="M300.018 427.323C300.018 441.229 288.745 452.502 274.839 452.502C260.933 452.502 249.66 441.229 249.66 427.323C249.66 413.417 260.933 402.144 274.839 402.144C288.745 402.144 300.018 413.417 300.018 427.323Z" fill="#FCA081"/>
<path fill-rule="evenodd" clip-rule="evenodd" d="M274.285 553.217C273.743 553.217 273.303 552.777 273.303 552.234L273.303 416.783C273.303 416.24 273.743 415.8 274.285 415.8C274.828 415.8 275.268 416.24 275.268 416.783L275.268 552.234C275.268 552.777 274.828 553.217 274.285 553.217Z" fill="white"/>
<path fill-rule="evenodd" clip-rule="evenodd" d="M291.48 422.628C291.863 423.012 291.863 423.634 291.48 424.018L275.104 440.394L258.727 424.018C258.344 423.634 258.344 423.012 258.727 422.628C259.111 422.245 259.733 422.245 260.117 422.628L275.104 437.615L290.09 422.628C290.474 422.245 291.096 422.245 291.48 422.628Z" fill="white"/>
<path fill-rule="evenodd" clip-rule="evenodd" d="M290.63 449.565C291.014 449.948 291.014 450.571 290.63 450.954L274.254 467.33L257.878 450.954C257.494 450.571 257.494 449.948 257.878 449.565C258.261 449.181 258.883 449.181 259.267 449.565L274.254 464.552L289.241 449.565C289.624 449.181 290.246 449.181 290.63 449.565Z" fill="white"/>
<path fill-rule="evenodd" clip-rule="evenodd" d="M291.48 481.998C291.863 482.382 291.863 483.004 291.48 483.388L275.104 499.764L258.727 483.388C258.344 483.004 258.344 482.382 258.727 481.998C259.111 481.614 259.733 481.614 260.117 481.998L275.104 496.985L290.09 481.998C290.474 481.614 291.096 481.614 291.48 481.998Z" fill="white"/>
<path d="M466.062 532.334C465.441 544.523 454.962 553.805 442.655 553.066C430.349 552.328 420.876 541.848 421.497 529.66C422.118 517.471 432.597 508.189 444.903 508.928C457.21 509.666 466.683 520.145 466.062 532.334Z" fill="#FACF35"/>
<path fill-rule="evenodd" clip-rule="evenodd" d="M442.693 552.337C454.592 553.051 464.725 544.076 465.326 532.29C465.926 520.504 456.766 510.371 444.866 509.657C432.967 508.943 422.834 517.918 422.233 529.704C421.633 541.49 430.793 551.623 442.693 552.337ZM442.655 553.066C454.962 553.805 465.441 544.523 466.062 532.334C466.683 520.145 457.21 509.666 444.903 508.928C432.597 508.189 422.118 517.471 421.497 529.66C420.876 541.848 430.349 552.328 442.655 553.066Z" fill="#FACF35"/>
<path d="M402.689 528.83C402.068 541.019 391.589 550.301 379.282 549.562C366.976 548.824 357.503 538.345 358.124 526.156C358.745 513.968 369.224 504.685 381.53 505.424C393.837 506.162 403.31 516.642 402.689 528.83Z" fill="#FACF35"/>
<path fill-rule="evenodd" clip-rule="evenodd" d="M379.319 548.833C391.219 549.547 401.352 540.572 401.953 528.786C402.553 517 393.393 506.867 381.493 506.153C369.594 505.439 359.461 514.414 358.86 526.2C358.26 537.986 367.42 548.119 379.319 548.833ZM379.282 549.562C391.589 550.301 402.068 541.019 402.689 528.83C403.31 516.642 393.837 506.162 381.53 505.424C369.224 504.685 358.745 513.968 358.124 526.156C357.503 538.345 366.976 548.824 379.282 549.562Z" fill="#FACF35"/>
<path fill-rule="evenodd" clip-rule="evenodd" d="M427.002 492.183L437.075 492.786C437.381 492.804 437.617 493.065 437.601 493.368C437.586 493.67 437.325 493.901 437.019 493.883L428.714 493.385L444.473 530.391C444.593 530.671 444.461 530.992 444.178 531.108C443.896 531.223 443.57 531.089 443.451 530.809L427.002 492.183Z" fill="white"/>
<path fill-rule="evenodd" clip-rule="evenodd" d="M408.528 522.929L391.611 485.465L392.624 485.025L409.541 522.489L408.528 522.929Z" fill="white"/>
<path fill-rule="evenodd" clip-rule="evenodd" d="M432.317 502.165L414.833 523.677L413.967 522.983L431.452 501.472L432.317 502.165Z" fill="white"/>
<path fill-rule="evenodd" clip-rule="evenodd" d="M396.403 495.722L430.135 497.745L430.08 498.836L397.061 496.856L381.316 527.144L380.333 526.636L396.403 495.722Z" fill="white"/>
<path fill-rule="evenodd" clip-rule="evenodd" d="M386.716 485.16C386.732 484.867 386.99 484.644 387.294 484.661L398.082 485.292C398.385 485.31 398.619 485.562 398.604 485.855C398.589 486.148 398.33 486.371 398.026 486.353L387.239 485.723C386.935 485.705 386.701 485.453 386.716 485.16Z" fill="white"/>
<path fill-rule="evenodd" clip-rule="evenodd" d="M411.244 522.627C408.253 522.447 405.706 524.704 405.555 527.666C405.404 530.629 407.706 533.176 410.698 533.356C413.689 533.535 416.236 531.279 416.387 528.316C416.538 525.354 414.236 522.806 411.244 522.627ZM404.45 527.6C404.632 524.033 407.699 521.317 411.3 521.533C414.901 521.749 417.673 524.816 417.492 528.383C417.31 531.95 414.243 534.666 410.642 534.45C407.041 534.234 404.269 531.167 404.45 527.6Z" fill="white"/>
<path fill-rule="evenodd" clip-rule="evenodd" d="M405.367 528.829L380.409 527.394L380.465 526.35L405.423 527.785L405.367 528.829Z" fill="white"/>
<path fill-rule="evenodd" clip-rule="evenodd" d="M-1.00195 183.051V118.813C3.07202 117.003 7.5597 116 12.2733 116C24.3983 116 35.0281 122.634 40.9673 132.59C44.2806 131.255 47.9205 130.518 51.7404 130.518C67.0998 130.518 79.5512 142.443 79.5512 157.153C79.5512 171.863 67.0998 183.788 51.7404 183.788C44.9902 183.788 38.8018 181.485 33.985 177.654C28.1198 182.777 20.5444 185.864 12.2733 185.864C7.5597 185.864 3.07202 184.861 -1.00195 183.051Z" fill="#E8EDFF" fill-opacity="0.41"/>
<path d="M1029.99 353.136C1029.99 347.572 1032.92 343.061 1036.53 343.061L1096.99 343.061L1096.99 426.023C1096.99 428.806 1095.53 431.061 1093.73 431.061L1036.53 431.061C1032.92 431.061 1029.99 426.55 1029.99 420.986L1029.99 353.136Z" fill="#1EBE8E"/>
<path d="M1055.5 343.061L1017.35 300.009L1063.21 300.009L1097 343.061L1055.5 343.061Z" fill="#FACF35"/>
<path d="M977.994 346.102C977.994 344.504 978.488 343.001 979.324 342.054L1015.56 301.037C1016.71 299.736 1018.28 299.736 1019.43 301.037L1055.66 342.054C1056.5 343.001 1056.99 344.504 1056.99 346.102L1056.99 426.038C1056.99 428.812 1055.53 431.061 1053.73 431.061L981.255 431.061C979.454 431.061 977.994 428.812 977.994 426.038L977.994 346.102Z" fill="#5A66F6"/>
<path d="M1008.99 410.586C1008.99 404.187 1012.57 399 1016.99 399V399C1021.41 399 1024.99 404.187 1024.99 410.586L1024.99 431L1008.99 431L1008.99 410.586Z" fill="#000091"/>
<path fill-rule="evenodd" clip-rule="evenodd" d="M1003.82 356.231C1004.27 356.231 1004.63 356.59 1004.63 357.032L1004.63 380.058C1004.63 380.5 1004.27 380.859 1003.82 380.859C1003.37 380.859 1003 380.5 1003 380.058L1003 357.032C1003 356.59 1003.37 356.231 1003.82 356.231Z" fill="white"/>
<path fill-rule="evenodd" clip-rule="evenodd" d="M1016.7 356.231C1017.15 356.231 1017.51 356.59 1017.51 357.032L1017.51 380.058C1017.51 380.5 1017.15 380.859 1016.7 380.859C1016.25 380.859 1015.89 380.5 1015.89 380.058L1015.89 357.032C1015.89 356.59 1016.25 356.231 1016.7 356.231Z" fill="white"/>
<path fill-rule="evenodd" clip-rule="evenodd" d="M1029.59 356.231C1030.04 356.231 1030.4 356.59 1030.4 357.032L1030.4 380.058C1030.4 380.5 1030.04 380.859 1029.59 380.859C1029.14 380.859 1028.77 380.5 1028.77 380.058L1028.77 357.032C1028.77 356.59 1029.14 356.231 1029.59 356.231Z" fill="white"/>
<path d="M1006.79 361.455C1006.79 363.104 1005.43 364.44 1003.76 364.44C1002.09 364.44 1000.73 363.104 1000.73 361.455C1000.73 359.806 1002.09 358.47 1003.76 358.47C1005.43 358.47 1006.79 359.806 1006.79 361.455Z" fill="#000091"/>
<path d="M1019.68 374.889C1019.68 376.537 1018.32 377.874 1016.65 377.874C1014.97 377.874 1013.62 376.537 1013.62 374.889C1013.62 373.24 1014.97 371.903 1016.65 371.903C1018.32 371.903 1019.68 373.24 1019.68 374.889Z" fill="#000091"/>
<path d="M1032.56 371.904C1032.56 373.552 1031.2 374.889 1029.53 374.889C1027.86 374.889 1026.5 373.552 1026.5 371.904C1026.5 370.255 1027.86 368.919 1029.53 368.919C1031.2 368.919 1032.56 370.255 1032.56 371.904Z" fill="#000091"/>
<path fill-rule="evenodd" clip-rule="evenodd" d="M59.5106 398.1C66.6929 385.374 75.3097 375.379 81.0313 370.084L80.0303 369.002C74.1987 374.399 65.4858 384.515 58.2271 397.376C50.969 410.236 45.1353 425.894 45.136 442.361C45.1365 452.6 46.3345 463.044 47.8255 473.577C48.301 476.936 48.8058 480.302 49.3115 483.673C50.3942 490.89 51.4808 498.134 52.2922 505.4C54.671 526.701 53.4403 550.379 43.9927 571.002L45.4927 571.002C55.1069 550.015 56.1459 526.63 53.7568 505.237C52.9423 497.943 51.8487 490.652 50.7638 483.42C50.2592 480.055 49.7565 476.704 49.2847 473.371C47.7961 462.855 46.6102 452.494 46.6097 442.361C46.609 426.233 52.3277 410.827 59.5106 398.1Z" fill="#E8EDFF"/>
<path fill-rule="evenodd" clip-rule="evenodd" d="M1064.45 315.623L1064.45 288.267L1065.75 288.267L1065.75 315.623L1064.45 315.623Z" fill="white"/>
<path d="M1030.18 270.532C1028.72 268.404 1030.27 265.534 1032.88 265.534L1076.77 265.534C1077.85 265.534 1078.86 266.063 1079.47 266.945L1091.37 284.296C1092.83 286.424 1091.28 289.294 1088.67 289.294L1044.78 289.294C1043.7 289.294 1042.69 288.766 1042.08 287.884L1030.18 270.532Z" fill="#000091"/>
<path d="M1032.35 270.532C1030.89 268.404 1032.44 265.534 1035.05 265.534L1078.94 265.534C1080.02 265.534 1081.03 266.063 1081.64 266.945L1093.54 284.296C1095 286.424 1093.45 289.294 1090.85 289.294L1046.95 289.294C1045.87 289.294 1044.86 288.765 1044.25 287.883L1032.35 270.532Z" fill="#FF9F7D"/>
<path fill-rule="evenodd" clip-rule="evenodd" d="M1085.87 273.375L1034.23 273.375L1034.23 272.413L1085.87 272.413L1085.87 273.375Z" fill="white"/>
<path fill-rule="evenodd" clip-rule="evenodd" d="M1091.66 281.216L1039.78 281.216L1039.78 280.254L1091.66 280.254L1091.66 281.216Z" fill="white"/>
<path fill-rule="evenodd" clip-rule="evenodd" d="M1055.46 289.372L1039.3 265.534L1040.11 265L1056.28 288.838L1055.46 289.372Z" fill="white"/>
<path fill-rule="evenodd" clip-rule="evenodd" d="M1065.84 289.372L1049.67 265.534L1050.49 265L1066.65 288.838L1065.84 289.372Z" fill="white"/>
<path fill-rule="evenodd" clip-rule="evenodd" d="M1076.22 289.372L1060.05 265.534L1060.86 265L1077.03 288.838L1076.22 289.372Z" fill="white"/>
<path fill-rule="evenodd" clip-rule="evenodd" d="M1086.59 289.372L1070.42 265.534L1071.24 265L1087.4 288.838L1086.59 289.372Z" fill="white"/>
<path fill-rule="evenodd" clip-rule="evenodd" d="M81.457 368.279C80.0618 369.344 78.1679 368.216 78.6514 366.615C81.5832 356.904 86.2878 346.941 92.7081 337.526C99.1062 328.143 106.471 320.385 114.124 314.538C115.519 313.473 117.413 314.601 116.93 316.202C113.998 325.913 109.293 335.876 102.873 345.291C96.475 354.674 89.11 362.432 81.457 368.279Z" fill="#FCA081"/>
<path fill-rule="evenodd" clip-rule="evenodd" d="M81.1176 368.189C82.4443 368.925 82.1942 370.676 80.6991 371.095C70.448 373.966 58.4206 374.9 45.763 373.355C33.2605 371.829 21.8713 368.095 12.5608 362.928C11.2342 362.192 11.4842 360.441 12.9793 360.023C23.2304 357.151 35.2578 356.217 47.9154 357.762C60.4179 359.288 71.8071 363.022 81.1176 368.189Z" fill="#6672F8"/>
<path fill-rule="evenodd" clip-rule="evenodd" d="M107.592 436.38C107.749 438.013 105.65 438.825 104.514 437.565C97.5118 429.807 91.0515 419.772 85.9508 408.081C80.7349 396.125 77.6341 384.026 76.5721 372.951C76.4155 371.319 78.5143 370.507 79.6508 371.766C86.6526 379.524 93.1129 389.559 98.2135 401.251C103.429 413.207 106.53 425.305 107.592 436.38Z" fill="#1EBE8E"/>
<path d="M74.2287 365.667C71.8936 368.795 72.4867 373.176 75.5534 375.452C78.6202 377.727 82.9992 377.036 85.3344 373.907C87.6695 370.778 87.0764 366.397 84.0097 364.122C80.9429 361.847 76.5638 362.538 74.2287 365.667Z" fill="#2A3070"/>
<rect x="1353.78" y="359.058" width="3.70752" height="9.88672" rx="1.85376" fill="#1EBE8E"/>
<rect x="1353.78" y="329.398" width="3.70752" height="9.88672" rx="1.85376" fill="#1EBE8E"/>
<rect x="1353.78" y="388.718" width="3.70752" height="9.88672" rx="1.85376" fill="#1EBE8E"/>
<rect x="1353.78" y="418.38" width="3.70752" height="9.88672" rx="1.85376" fill="#1EBE8E"/>
<rect x="1353.78" y="448.04" width="3.70752" height="9.88672" rx="1.85376" fill="#1EBE8E"/>
<rect x="1366.14" y="359.058" width="3.70752" height="9.88672" rx="1.85376" fill="#1EBE8E"/>
<rect x="1366.14" y="329.398" width="3.70752" height="9.88672" rx="1.85376" fill="#1EBE8E"/>
<rect x="1366.14" y="388.718" width="3.70752" height="9.88672" rx="1.85376" fill="#1EBE8E"/>
<rect x="1366.14" y="418.38" width="3.70752" height="9.88672" rx="1.85376" fill="#1EBE8E"/>
<rect x="1366.14" y="448.04" width="3.70752" height="9.88672" rx="1.85376" fill="#1EBE8E"/>
<path d="M1352.94 297.969C1358.35 292.558 1367.13 292.558 1372.54 297.969" stroke="#6672F8" stroke-width="3" stroke-linejoin="round"/>
<path opacity="0.7" d="M1347.33 290.942C1355.84 282.434 1369.64 282.434 1378.15 290.942" stroke="#6672F8" stroke-width="3" stroke-linejoin="round"/>
<path opacity="0.4" d="M1341.07 284.674C1353.04 272.704 1372.44 272.704 1384.41 284.674" stroke="#6672F8" stroke-width="3" stroke-linejoin="round"/>
<rect x="1328.6" y="452.266" width="66.8664" height="56.6664" rx="5" fill="#1EBE8E"/>
<rect x="1350.13" y="395.599" width="66.8664" height="56.6664" rx="5" fill="#000091"/>
<rect x="1328.6" y="338.933" width="66.8664" height="56.6664" rx="5" fill="#FF9F7D"/>
<path d="M1359.21 306.415C1361.08 304.899 1363.76 304.926 1365.59 306.481L1403.77 338.807C1405.19 340.011 1404.34 342.333 1402.47 342.333H1320.63C1318.75 342.333 1317.91 339.969 1319.37 338.781L1359.21 306.415Z" fill="#5A66F6"/>
<path d="M1095.77 433C1109.27 433 1112.86 413.825 1111.83 411.675C1110.8 410.197 1100.05 423.178 1096.46 431.663C1099.21 424.542 1100.39 417.126 1099.93 409.758C1099.83 408.077 1099.47 404.755 1097.95 405.014C1094.9 405.533 1093.21 422.597 1094.9 431.663C1093.91 424.317 1084.54 408.642 1083.69 411.675C1082.26 415.343 1083.19 419.302 1085.24 422.822C1088.56 428.498 1091.09 433 1095.77 433Z" fill="#FAD214"/>
<path d="M628.568 570.494C622.894 570.585 617.043 570.588 611 570.494L628.568 570.494C772.175 568.187 802.214 509 959.5 509L1207 509L1440.5 509L1440.5 570.494L889 570.494L628.568 570.494Z" fill="#1D236B" fill-opacity="0.57"/>
<path d="M867.007 458.093C865.028 458.093 863.424 456.513 863.424 454.565C863.424 452.617 865.028 451.037 867.007 451.037C868.986 451.037 870.59 452.617 870.59 454.565C870.59 456.513 868.986 458.093 867.007 458.093Z" fill="#6672F8"/>
<path d="M878.589 487.735C877.939 483.753 877.648 479.904 878.701 477.242C879.596 474.953 881.545 473.672 883.896 472.799L904.617 466.198C907.304 465.316 909.814 463.838 909.991 460.919C910.215 457.171 906.856 454.745 903.497 455.627C903.497 455.627 883.791 462.493 866.995 462.493C850.2 462.493 830.717 455.658 830.717 455.658C826.687 454.556 823.999 457.643 823.999 460.904C823.999 464.037 826.463 465.139 829.374 466.182L849.08 473.218C850.872 473.88 853.783 475.203 854.903 477.227C856.246 479.597 856.022 483.738 855.373 487.72L854.052 494.253L845.674 530.392C845.047 533.291 847.085 536.001 850.019 536.508C852.952 537.016 855.351 535.044 856.219 532.24L864.631 506.678C865.035 505.452 865.393 504.212 865.705 502.958L866.995 497.781L868.182 502.555C868.558 504.076 868.991 505.581 869.481 507.07L877.744 532.218C878.64 535.051 880.991 537.013 883.925 536.508C886.859 536.003 888.941 533.071 888.283 530.392L879.91 494.269L878.589 487.735Z" fill="#1EBE8E"/>
<path fill-rule="evenodd" clip-rule="evenodd" d="M913.009 431.833C914.629 429.23 914.481 425.967 913.779 422.993C912.925 419.372 913.409 415.554 915.449 412.275C919.828 405.24 929.71 403.358 937.523 408.071C945.336 412.785 948.121 422.309 943.743 429.344C941.703 432.622 938.469 434.781 934.805 435.676C931.796 436.411 928.776 437.764 927.156 440.367C924.762 444.213 919.631 445.46 915.724 443.103C911.818 440.746 910.615 435.679 913.009 431.833Z" fill="#FACF35"/>
<path fill-rule="evenodd" clip-rule="evenodd" d="M914.724 422.777C913.922 419.379 914.381 415.821 916.277 412.775C920.333 406.256 929.589 404.405 937.016 408.886C944.443 413.367 946.972 422.327 942.915 428.845C941.02 431.891 938.009 433.909 934.572 434.749C931.484 435.503 928.151 436.939 926.328 439.868C924.211 443.27 919.675 444.366 916.231 442.288C912.788 440.211 911.719 435.735 913.836 432.332C915.659 429.403 915.444 425.828 914.724 422.777ZM913.779 422.993C914.481 425.967 914.629 429.23 913.009 431.833C910.615 435.679 911.818 440.746 915.724 443.103C919.631 445.46 924.762 444.213 927.156 440.367C928.776 437.764 931.796 436.411 934.805 435.676C938.469 434.781 941.703 432.622 943.743 429.344C948.121 422.309 945.336 412.785 937.523 408.071C929.71 403.358 919.828 405.24 915.449 412.275C913.409 415.554 912.925 419.372 913.779 422.993Z" fill="#FACF35"/>
<path fill-rule="evenodd" clip-rule="evenodd" d="M926.546 422.338C926.215 422.893 925.934 423.677 925.722 424.727C925.591 425.379 925.517 425.984 925.494 426.542C925.489 426.542 925.484 426.541 925.479 426.541C924.918 426.524 924.43 426.476 924.006 426.405C924.629 424.882 925.044 423.587 925.195 422.618C925.28 422.078 925.292 421.581 925.167 421.189C925.102 420.985 924.994 420.79 924.821 420.639C924.643 420.484 924.427 420.402 924.197 420.383C923.434 420.317 922.612 420.776 921.979 421.356C921.327 421.953 920.758 422.783 920.539 423.659C920.315 424.554 920.456 425.528 921.282 426.276C921.634 426.594 922.096 426.858 922.677 427.058C921.149 430.539 918.641 435.138 915.569 439.984L916.25 440.634C917.873 439.566 919.797 437.878 921.743 436.053C922.85 435.015 923.984 433.915 925.08 432.851C925.778 432.173 926.461 431.51 927.112 430.888C927.583 431.243 928.126 431.457 928.695 431.535C930.822 431.825 933.167 430.202 933.503 427.413C933.547 427.051 933.547 426.724 933.477 426.452C933.405 426.169 933.244 425.902 932.944 425.762C932.663 425.63 932.36 425.658 932.104 425.728C931.842 425.799 931.562 425.933 931.276 426.101C930.222 426.719 928.761 428.005 927.137 429.536C927.058 429.423 926.985 429.299 926.917 429.166C926.694 428.724 926.534 428.162 926.478 427.466C927.98 427.322 928.98 426.732 929.549 425.899C930.223 424.911 930.21 423.696 929.87 422.785C929.699 422.328 929.432 421.912 929.087 421.626C928.735 421.336 928.273 421.164 927.771 421.29C927.284 421.412 926.874 421.787 926.546 422.338ZM926.467 426.508C927.697 426.372 928.383 425.893 928.743 425.366C929.206 424.688 929.217 423.807 928.959 423.115C928.83 422.772 928.648 422.511 928.463 422.359C928.284 422.211 928.134 422.185 928.011 422.216C927.871 422.251 927.641 422.389 927.383 422.822C927.127 423.251 926.874 423.922 926.674 424.913C926.557 425.496 926.49 426.026 926.467 426.508ZM925.508 427.498C925.568 428.317 925.757 429.014 926.048 429.592C926.162 429.816 926.29 430.021 926.431 430.207C925.767 430.842 925.081 431.508 924.383 432.186C923.298 433.239 922.184 434.321 921.074 435.361C919.919 436.444 918.79 437.461 917.74 438.321C920.252 434.196 922.305 430.337 923.625 427.307C924.159 427.41 924.765 427.475 925.448 427.496C925.468 427.497 925.488 427.498 925.508 427.498ZM927.821 430.214C929.448 428.681 930.828 427.476 931.773 426.921C932.023 426.775 932.218 426.688 932.363 426.649C932.446 426.626 932.493 426.624 932.516 426.625C932.521 426.637 932.529 426.656 932.536 426.685C932.564 426.795 932.577 426.99 932.539 427.301C932.261 429.605 930.37 430.798 928.828 430.588C928.475 430.54 928.132 430.419 927.821 430.214ZM932.506 426.609C932.506 426.609 932.507 426.611 932.509 426.613C932.507 426.61 932.506 426.609 932.506 426.609ZM923.054 426.175C922.548 426.008 922.188 425.798 921.939 425.572C921.431 425.112 921.322 424.525 921.481 423.888C921.646 423.231 922.094 422.556 922.64 422.055C923.206 421.537 923.764 421.305 924.112 421.335C924.16 421.339 924.173 421.35 924.178 421.354L924.178 421.355C924.187 421.362 924.215 421.391 924.241 421.474C924.298 421.655 924.314 421.977 924.236 422.473C924.098 423.362 923.695 424.622 923.054 426.175Z" fill="white"/>
<path fill-rule="evenodd" clip-rule="evenodd" d="M900.971 457.569C897.68 454.923 893.58 451.284 890.535 447.812C888.774 445.804 887.394 443.884 886.713 442.265C886.025 440.629 886.114 439.49 886.936 438.782C887.36 438.416 887.804 438.305 888.289 438.383C888.801 438.464 889.392 438.762 890.054 439.29C891.379 440.346 892.831 442.2 894.285 444.476C896.812 448.434 899.263 453.544 900.971 457.569ZM888.444 437.439C887.671 437.316 886.937 437.511 886.296 438.063C884.987 439.192 885.081 440.884 885.816 442.631C886.558 444.393 888.02 446.406 889.8 448.437C893.37 452.507 898.34 456.777 901.825 459.467L903.237 460.556L902.576 458.915C900.873 454.691 898.049 448.576 895.107 443.968C893.64 441.671 892.118 439.706 890.665 438.547C889.939 437.968 889.191 437.558 888.444 437.439Z" fill="white"/>
<path fill-rule="evenodd" clip-rule="evenodd" d="M902.089 458.559C902.302 458.399 902.343 458.099 902.18 457.89L891.532 444.167C891.37 443.957 891.065 443.917 890.852 444.077C890.639 444.237 890.599 444.537 890.761 444.747L901.409 458.47C901.572 458.679 901.876 458.719 902.089 458.559Z" fill="white"/>
<path fill-rule="evenodd" clip-rule="evenodd" d="M888.719 515.649C888.719 479.589 903.599 457.069 916.336 440.587L915.563 440.008C902.772 456.561 887.748 479.285 887.748 515.649L888.719 515.649Z" fill="white"/>
</svg>
