<svg width="117" height="133" viewBox="0 0 117 133" fill="none" xmlns="http://www.w3.org/2000/svg">
<path fill-rule="evenodd" clip-rule="evenodd" d="M113.821 132.288L9.94807 132.288C9.33252 130.462 9 128.514 9 126.491C9 116.077 17.8177 107.635 28.695 107.635C32.247 107.635 35.5793 108.535 38.4567 110.11C42.0511 100.152 51.9295 92.9995 63.5527 92.9995C73.1008 92.9995 81.4715 97.826 86.1485 105.07C88.7577 104.099 91.6241 103.562 94.6321 103.562C106.727 103.562 116.532 112.238 116.532 122.941C116.532 126.33 115.549 129.516 113.821 132.288Z" fill="white"/>
<path fill-rule="evenodd" clip-rule="evenodd" d="M54.4144 58.258C55.0386 59.8672 57.209 59.8344 57.7845 58.2072C60.7292 49.8813 62.3399 40.2557 62.1857 30.021C62.0315 19.7867 60.1317 10.2145 56.9379 1.98157C56.3136 0.372429 54.1433 0.405157 53.5678 2.03239C50.6231 10.3582 49.0124 19.9839 49.1666 30.2186C49.3208 40.4529 51.2205 50.0251 54.4144 58.258Z" fill="#FCA081"/>
<path fill-rule="evenodd" clip-rule="evenodd" d="M57.9693 58.312C56.1959 57.9524 55.0848 59.9464 56.3231 61.2663C62.1658 67.4939 69.6325 73.3498 78.346 78.2091C87.0598 83.0684 95.9652 86.3426 104.332 88.0393C106.106 88.3989 107.217 86.4049 105.979 85.085C100.136 78.8574 92.6692 73.0015 83.9557 68.1422C75.242 63.2829 66.3365 60.0087 57.9693 58.312Z" fill="#6672F8"/>
<path fill-rule="evenodd" clip-rule="evenodd" d="M4.31363 86.7939C3.05905 88.0985 4.14553 90.106 5.9233 89.7682C14.3094 88.1744 23.2528 85.0104 32.0241 80.2597C40.7962 75.5085 48.334 69.7455 54.2528 63.5909C55.5074 62.2863 54.4209 60.2788 52.6431 60.6167C44.257 62.2105 35.3136 65.3744 26.5423 70.1252C17.7703 74.8763 10.2324 80.6393 4.31363 86.7939Z" fill="#1EBE8E"/>
<path d="M61.3898 60.0047C61.4335 62.9004 59.1224 65.2829 56.2283 65.3266C53.3342 65.3703 50.9524 63.0586 50.9088 60.1629C50.8651 57.2672 53.1762 54.8847 56.0703 54.841C58.9644 54.7973 61.3462 57.109 61.3898 60.0047Z" fill="#2A3070" stroke="#2A3070"/>
<path d="M60.5 132.5C59.1711 106.039 70.7429 90.6798 57.0016 64.2739" stroke="#2A3070"/>
</svg>
