<svg width="213" height="305" viewBox="0 0 213 305" fill="none" xmlns="http://www.w3.org/2000/svg">
<path fill-rule="evenodd" clip-rule="evenodd" d="M67.05 178.609C67.1598 178.612 67.2554 178.685 67.2871 178.79L79.1588 218.185L79.1597 218.188L79.1603 218.19L79.959 221.049C79.9628 221.022 79.971 220.995 79.984 220.969L93.4616 194.216C93.5054 194.129 93.5948 194.074 93.6921 194.076C93.7894 194.077 93.8774 194.133 93.919 194.221L107.802 223.567L107.804 223.571L125.46 259.056L141.805 283.023L179.454 304.275C179.554 304.332 179.604 304.45 179.575 304.562C179.545 304.674 179.444 304.752 179.329 304.752H0.254562C0.162419 304.752 0.07747 304.702 0.0324514 304.622C-0.0125672 304.541 -0.0106265 304.443 0.0375257 304.364L52.3067 219.088L66.8038 178.778C66.841 178.674 66.9403 178.607 67.05 178.609ZM103.211 304.243H178.36L141.503 283.438C141.469 283.418 141.44 283.392 141.418 283.359L125.03 259.329C125.027 259.324 125.023 259.318 125.02 259.313C125.017 259.308 125.015 259.304 125.012 259.299L107.346 223.793C107.345 223.792 107.344 223.79 107.344 223.789L93.6817 194.91L80.4387 221.198C80.3754 221.324 80.2224 221.374 80.0968 221.311C80.0635 221.294 80.0355 221.271 80.0135 221.244L103.211 304.243ZM102.683 304.243H0.709171L52.7545 219.332C52.7635 219.317 52.7711 219.301 52.777 219.285L67.022 179.675L78.6699 218.327L78.6714 218.332L95.0587 276.978L102.683 304.243Z" fill="black"/>
<path fill-rule="evenodd" clip-rule="evenodd" d="M52.4733 218.951C52.6096 218.917 52.7481 218.999 52.7826 219.135L58.9726 243.559L62.7925 235.637C62.8535 235.51 63.0057 235.457 63.1323 235.518C63.259 235.579 63.3121 235.731 63.2511 235.858L59.1272 244.41C59.0807 244.507 58.9788 244.564 58.8723 244.553C58.7658 244.542 58.6774 244.466 58.6511 244.362L52.2891 219.261C52.2546 219.124 52.3371 218.986 52.4733 218.951Z" fill="black"/>
<path fill-rule="evenodd" clip-rule="evenodd" d="M117.052 267.397C117.154 267.393 117.248 267.451 117.292 267.543C120.167 273.684 123.042 279.826 125.918 285.967C127.226 288.759 128.533 291.551 129.84 294.343L141.444 283.03C141.545 282.931 141.706 282.934 141.804 283.034C141.903 283.135 141.901 283.296 141.8 283.394L129.939 294.957C129.88 295.015 129.797 295.04 129.716 295.026C129.635 295.011 129.566 294.958 129.531 294.883C128.168 291.972 126.805 289.061 125.442 286.15C122.656 280.201 119.87 274.252 117.085 268.303L103.254 304.588C103.204 304.719 103.057 304.785 102.926 304.735C102.794 304.685 102.728 304.538 102.778 304.407L116.823 267.56C116.86 267.465 116.95 267.4 117.052 267.397Z" fill="black"/>
<path fill-rule="evenodd" clip-rule="evenodd" d="M30.7077 282.088C30.8483 282.088 30.9622 282.202 30.9622 282.342V304.497C30.9622 304.638 30.8483 304.752 30.7077 304.752C30.5671 304.752 30.4531 304.638 30.4531 304.497V282.342C30.4531 282.202 30.5671 282.088 30.7077 282.088Z" fill="black"/>
<path fill-rule="evenodd" clip-rule="evenodd" d="M30.9017 287.319C30.9924 287.426 30.9787 287.587 30.8713 287.678L26.8054 291.107C26.6979 291.198 26.5373 291.184 26.4467 291.077C26.3561 290.969 26.3697 290.809 26.4772 290.718L30.543 287.288C30.6505 287.198 30.8111 287.211 30.9017 287.319Z" fill="black"/>
<path fill-rule="evenodd" clip-rule="evenodd" d="M30.9017 292.594C30.9924 292.702 30.9788 292.862 30.8713 292.953L26.8054 296.384C26.698 296.474 26.5374 296.461 26.4467 296.353C26.3561 296.246 26.3697 296.085 26.4771 295.994L30.543 292.564C30.6504 292.473 30.811 292.487 30.9017 292.594Z" fill="black"/>
<path fill-rule="evenodd" clip-rule="evenodd" d="M30.9017 282.178C30.9924 282.286 30.9787 282.446 30.8713 282.537L26.8054 285.967C26.6979 286.057 26.5373 286.044 26.4467 285.936C26.3561 285.829 26.3697 285.668 26.4772 285.577L30.543 282.148C30.6505 282.057 30.8111 282.071 30.9017 282.178Z" fill="black"/>
<path fill-rule="evenodd" clip-rule="evenodd" d="M30.5132 287.456C30.6038 287.348 30.7644 287.335 30.8719 287.425L34.9367 290.856C35.0442 290.946 35.0577 291.107 34.9671 291.214C34.8764 291.322 34.7158 291.335 34.6084 291.245L30.5435 287.814C30.4361 287.724 30.4225 287.563 30.5132 287.456Z" fill="black"/>
<path fill-rule="evenodd" clip-rule="evenodd" d="M30.5131 282.178C30.6038 282.071 30.7644 282.057 30.8718 282.148L34.9367 285.577C35.0441 285.668 35.0578 285.829 34.9671 285.936C34.8764 286.044 34.7158 286.057 34.6084 285.966L30.5435 282.537C30.4361 282.446 30.4225 282.286 30.5131 282.178Z" fill="black"/>
<path fill-rule="evenodd" clip-rule="evenodd" d="M30.5132 292.594C30.6038 292.487 30.7644 292.473 30.8719 292.564L34.9367 295.994C35.0442 296.085 35.0577 296.246 34.9671 296.353C34.8764 296.461 34.7158 296.474 34.6084 296.383L30.5435 292.953C30.4361 292.862 30.4225 292.702 30.5132 292.594Z" fill="black"/>
<path fill-rule="evenodd" clip-rule="evenodd" d="M48.4186 282.088C48.5592 282.088 48.6732 282.202 48.6732 282.342V304.497C48.6732 304.638 48.5592 304.752 48.4186 304.752C48.278 304.752 48.1641 304.638 48.1641 304.497V282.342C48.1641 282.202 48.278 282.088 48.4186 282.088Z" fill="black"/>
<path fill-rule="evenodd" clip-rule="evenodd" d="M48.6155 287.319C48.7062 287.426 48.6926 287.587 48.5851 287.678L44.5203 291.107C44.4128 291.198 44.2522 291.184 44.1616 291.077C44.0709 290.969 44.0845 290.809 44.192 290.718L48.2568 287.289C48.3643 287.198 48.5249 287.211 48.6155 287.319Z" fill="black"/>
<path fill-rule="evenodd" clip-rule="evenodd" d="M48.6155 292.594C48.7062 292.702 48.6926 292.862 48.5851 292.953L44.5203 296.383C44.4129 296.474 44.2523 296.461 44.1616 296.353C44.0709 296.246 44.0845 296.085 44.1919 295.994L48.2568 292.564C48.3642 292.473 48.5248 292.487 48.6155 292.594Z" fill="black"/>
<path fill-rule="evenodd" clip-rule="evenodd" d="M48.6155 282.178C48.7062 282.286 48.6926 282.446 48.5851 282.537L44.5203 285.966C44.4128 286.057 44.2522 286.044 44.1616 285.936C44.0709 285.829 44.0845 285.668 44.192 285.577L48.2568 282.148C48.3643 282.057 48.5249 282.071 48.6155 282.178Z" fill="black"/>
<path fill-rule="evenodd" clip-rule="evenodd" d="M48.2241 287.456C48.3148 287.348 48.4754 287.335 48.5828 287.425L52.6476 290.856C52.7551 290.946 52.7687 291.107 52.678 291.214C52.5873 291.322 52.4267 291.335 52.3193 291.245L48.2544 287.814C48.147 287.724 48.1334 287.563 48.2241 287.456Z" fill="black"/>
<path fill-rule="evenodd" clip-rule="evenodd" d="M48.2241 282.178C48.3147 282.071 48.4753 282.057 48.5828 282.148L52.6476 285.577C52.7551 285.668 52.7687 285.829 52.678 285.936C52.5874 286.044 52.4268 286.057 52.3193 285.966L48.2545 282.537C48.147 282.446 48.1334 282.286 48.2241 282.178Z" fill="black"/>
<path fill-rule="evenodd" clip-rule="evenodd" d="M48.2241 292.594C48.3148 292.487 48.4754 292.473 48.5828 292.564L52.6476 295.994C52.7551 296.085 52.7687 296.246 52.678 296.353C52.5873 296.461 52.4267 296.474 52.3193 296.383L48.2544 292.953C48.147 292.862 48.1334 292.702 48.2241 292.594Z" fill="black"/>
<path fill-rule="evenodd" clip-rule="evenodd" d="M66.1335 282.088C66.2741 282.088 66.388 282.202 66.388 282.342V304.497C66.388 304.638 66.2741 304.752 66.1335 304.752C65.9929 304.752 65.8789 304.638 65.8789 304.497V282.342C65.8789 282.202 65.9929 282.088 66.1335 282.088Z" fill="black"/>
<path fill-rule="evenodd" clip-rule="evenodd" d="M66.3265 287.319C66.4171 287.426 66.4035 287.587 66.2961 287.678L62.2312 291.107C62.1238 291.198 61.9632 291.184 61.8725 291.077C61.7818 290.969 61.7955 290.809 61.9029 290.718L65.9678 287.289C66.0752 287.198 66.2358 287.211 66.3265 287.319Z" fill="black"/>
<path fill-rule="evenodd" clip-rule="evenodd" d="M66.3265 292.594C66.4171 292.702 66.4035 292.862 66.2961 292.953L62.2312 296.383C62.1238 296.474 61.9632 296.461 61.8725 296.353C61.7819 296.246 61.7954 296.085 61.9029 295.994L65.9677 292.564C66.0752 292.473 66.2358 292.487 66.3265 292.594Z" fill="black"/>
<path fill-rule="evenodd" clip-rule="evenodd" d="M66.3265 282.178C66.4171 282.286 66.4035 282.446 66.2961 282.537L62.2312 285.966C62.1238 286.057 61.9632 286.044 61.8725 285.936C61.7818 285.829 61.7955 285.668 61.9029 285.577L65.9678 282.148C66.0752 282.057 66.2358 282.071 66.3265 282.178Z" fill="black"/>
<path fill-rule="evenodd" clip-rule="evenodd" d="M65.9389 287.456C66.0296 287.348 66.1902 287.335 66.2976 287.425L70.3635 290.856C70.4709 290.946 70.4846 291.107 70.3939 291.214C70.3032 291.322 70.1426 291.335 70.0352 291.245L65.9693 287.814C65.8619 287.724 65.8483 287.563 65.9389 287.456Z" fill="black"/>
<path fill-rule="evenodd" clip-rule="evenodd" d="M65.9389 282.178C66.0295 282.071 66.1901 282.057 66.2976 282.148L70.3635 285.577C70.4709 285.668 70.4846 285.829 70.3939 285.936C70.3033 286.044 70.1427 286.057 70.0352 285.967L65.9693 282.537C65.8619 282.446 65.8482 282.286 65.9389 282.178Z" fill="black"/>
<path fill-rule="evenodd" clip-rule="evenodd" d="M65.9389 292.594C66.0296 292.487 66.1902 292.473 66.2976 292.564L70.3635 295.994C70.4709 296.085 70.4846 296.246 70.3939 296.353C70.3032 296.461 70.1426 296.474 70.0352 296.384L65.9693 292.953C65.8619 292.862 65.8483 292.702 65.9389 292.594Z" fill="black"/>
<path fill-rule="evenodd" clip-rule="evenodd" d="M26.9446 66.5864C25.1681 66.2806 23.6892 66.9618 23.1066 67.2308C20.9534 68.2253 19.8421 70.0776 19.4964 70.7092C19.4373 70.8171 19.3095 70.8673 19.1928 70.8285C18.8571 70.717 15.4286 69.6458 12.4406 71.8389L12.4405 71.839C10.2771 73.4252 9.70157 75.7232 9.54987 76.6029C12.9332 76.6035 16.3145 76.573 19.6972 76.5425C21.8741 76.5228 24.0515 76.5032 26.2305 76.4918L26.2318 76.7463L26.2304 76.4918C26.2304 76.4918 26.2304 76.4918 26.2305 76.4918C29.6417 76.4734 31.947 72.9374 30.5149 69.8555C30.5153 69.8563 30.5156 69.857 30.516 69.8578L30.7446 69.7459L30.5138 69.8533C30.5142 69.854 30.5145 69.8548 30.5149 69.8555C30.503 69.8312 30.491 69.8062 30.4794 69.7819C30.4674 69.757 30.4558 69.7328 30.4442 69.7092L30.4449 69.7105L30.6723 69.5962L30.4437 69.7082L30.4416 69.704C30.339 69.4998 30.001 68.8269 29.434 68.1525C28.8588 67.4681 28.0699 66.8084 27.0788 66.6113L27.0805 66.6116L27.1268 66.3613L27.0773 66.6109L26.9461 66.5867L26.9894 66.3358L26.943 66.5861L26.9446 66.5864ZM22.8998 66.7655C23.4954 66.4905 25.0963 65.7511 27.0326 66.0849L27.0357 66.0855L27.1732 66.1109L27.1764 66.1116C28.33 66.3404 29.2131 67.0983 29.8238 67.8249C30.4292 68.5452 30.7887 69.2607 30.8959 69.4741L30.8998 69.4819L30.901 69.4842C30.9137 69.5103 30.9264 69.5366 30.9384 69.5617L30.939 69.563C30.951 69.588 30.9623 69.6115 30.9733 69.634C30.974 69.6355 30.9747 69.637 30.9755 69.6385C32.5715 73.0687 30.0037 76.9806 26.2332 77.0009L26.2331 77.0009C24.0585 77.0122 21.8826 77.0319 19.7062 77.0515C16.2227 77.083 12.7378 77.1144 9.25438 77.1119C9.18136 77.1118 9.11188 77.0804 9.0636 77.0257C9.01532 76.9709 8.99288 76.898 9.00199 76.8256C9.06708 76.308 9.48565 73.3743 12.1394 71.4284L12.29 71.6337L12.1394 71.4284C15.0243 69.311 18.2716 70.0319 19.1516 70.2835C19.6053 69.4971 20.7718 67.7483 22.8931 66.7686L22.9999 66.9997L22.8931 66.7686L22.8998 66.7655Z" fill="black"/>
<path fill-rule="evenodd" clip-rule="evenodd" d="M61.9446 103.586C60.168 103.281 58.689 103.961 58.1066 104.23C55.9534 105.224 54.8421 107.077 54.4965 107.709C54.4374 107.817 54.3096 107.867 54.1928 107.829C53.8571 107.717 50.4286 106.646 47.4405 108.838L47.29 108.633L47.4405 108.838C45.2772 110.425 44.7016 112.723 44.5499 113.603C47.9242 113.604 51.2965 113.573 54.6703 113.542C56.8561 113.522 59.0425 113.502 61.2305 113.491L61.2308 113.491C64.6414 113.477 66.9472 109.942 65.5149 106.856C65.5033 106.832 65.4915 106.807 65.4801 106.784L65.4794 106.782C65.4674 106.757 65.4558 106.733 65.4443 106.709C65.4441 106.709 65.4439 106.709 65.4437 106.708L65.4416 106.704C65.339 106.5 65.001 105.827 64.434 105.153C63.8588 104.468 63.0699 103.808 62.0788 103.611C62.0783 103.611 62.0778 103.611 62.0773 103.611L61.9461 103.587C61.9456 103.587 61.9451 103.587 61.9446 103.586ZM57.8982 103.765C58.4928 103.491 60.0947 102.751 62.0326 103.085L62.0357 103.086L62.1732 103.111L62.1764 103.112C63.33 103.341 64.2131 104.098 64.8238 104.825C65.4292 105.545 65.7887 106.261 65.8959 106.474L65.8998 106.482L65.901 106.484C65.9137 106.51 65.9264 106.537 65.9384 106.562C65.9506 106.587 65.9621 106.611 65.9733 106.634C65.974 106.636 65.9748 106.637 65.9755 106.639C67.5712 110.073 65.0042 113.985 61.2331 114C59.0496 114.011 56.8648 114.031 54.6794 114.051C51.2048 114.083 47.7288 114.114 44.2544 114.112C44.1814 114.112 44.1119 114.081 44.0636 114.026C44.0153 113.971 43.9929 113.898 44.002 113.826C44.0671 113.308 44.4857 110.374 47.1394 108.428C50.0241 106.311 53.2713 107.032 54.1515 107.284C54.6052 106.496 55.7717 104.747 57.8931 103.768L57.9998 103.999L57.8931 103.768L57.8982 103.765Z" fill="black"/>
<path fill-rule="evenodd" clip-rule="evenodd" d="M37.7063 66.5865C35.9287 66.2807 34.4497 66.9609 33.8673 67.2299C32.4399 67.889 31.471 68.9258 30.8755 69.7377C30.7923 69.8511 30.633 69.8756 30.5196 69.7924C30.4063 69.7093 30.3818 69.5499 30.4649 69.4366C31.0913 68.5826 32.1222 67.475 33.6539 66.7677L33.6589 66.7653C34.2535 66.4907 35.8554 65.7509 37.7943 66.085L37.7974 66.0856L37.9349 66.111L37.9381 66.1116C39.0912 66.3405 39.9743 67.0981 40.585 67.8246C41.197 68.5525 41.5576 69.2755 41.6603 69.4816L41.6604 69.4817C41.6831 69.5264 41.7052 69.5727 41.7243 69.6127C41.728 69.6204 41.7316 69.6279 41.735 69.6351L41.7362 69.6376C43.3321 73.0696 40.7698 76.9807 36.9938 77C34.8045 77.0114 32.6136 77.0312 30.4221 77.0511C26.9537 77.0824 23.4838 77.1139 20.0162 77.112C19.8756 77.1119 19.7617 76.998 19.7617 76.8574C19.7617 76.8566 19.7617 76.8556 19.7617 76.8546C19.7617 76.8334 19.7615 76.7771 19.7829 76.7128C19.8274 76.5794 19.9716 76.5073 20.1049 76.5518C20.1387 76.563 20.1686 76.5807 20.1936 76.6029C23.6006 76.6037 27.0062 76.5728 30.4131 76.542C32.605 76.5222 34.7975 76.5023 36.9912 76.4909H36.9912C40.4076 76.4734 42.7083 72.938 41.2751 69.8535C41.2714 69.8457 41.2676 69.8379 41.2639 69.8301C41.2447 69.7898 41.2259 69.7503 41.2063 69.712L41.2053 69.7099L41.2052 69.7098C41.1075 69.514 40.7683 68.8338 40.1953 68.1522C39.62 67.4679 38.8311 66.8085 37.8406 66.6113C37.84 66.6112 37.8395 66.6111 37.839 66.611L37.7079 66.5867C37.7073 66.5867 37.7068 66.5866 37.7063 66.5865Z" fill="black"/>
<path d="M96.4466 6.27237L73.8294 6.1624C69.9122 6.14407 66.0714 6.9882 62.7682 8.59499L60.3498 9.77412C56.1465 11.8188 54.8727 12.614 49.9515 12.0092L33.6443 10.0032L39.992 20.316L30 28.8153C34.1127 29.469 41.0164 30.3824 48.8376 30.471C48.8376 30.471 57.5263 30.5728 62.7478 27.8093L62.8639 27.7482C66.2679 25.949 68.1272 24.9857 72.2664 24.9857H95.8336" fill="#5A66F6"/>
<path fill-rule="evenodd" clip-rule="evenodd" d="M96.6737 3.00047C96.8601 3.01565 97.0061 3.3918 96.9998 3.84063C96.2258 58.9652 95.4505 114.09 94.6752 169.214C94.6689 169.663 94.5127 170.015 94.3263 170C94.1399 169.984 93.9939 169.608 94.0002 169.159C94.7755 114.035 95.5508 58.9102 96.3248 3.78568C96.3311 3.33685 96.4873 2.9853 96.6737 3.00047Z" fill="black"/>
<path fill-rule="evenodd" clip-rule="evenodd" d="M94.793 1.88376C94.793 0.843417 95.636 0 96.6767 0C97.7175 0 98.5605 0.843417 98.5605 1.88376C98.5605 2.92409 97.7175 3.76748 96.6767 3.76748C95.636 3.76748 94.793 2.92409 94.793 1.88376ZM96.6767 0.509123C95.9172 0.509123 95.3021 1.12453 95.3021 1.88376C95.3021 2.64297 95.9172 3.25836 96.6767 3.25836C97.4362 3.25836 98.0514 2.64297 98.0514 1.88376C98.0514 1.12453 97.4362 0.509123 96.6767 0.509123Z" fill="black"/>
<path d="M172.267 157.565C172.355 157.634 172.423 157.727 172.463 157.832C172.503 157.937 172.513 158.052 172.492 158.162C172.471 158.273 172.419 158.376 172.344 158.459C172.269 158.542 172.171 158.603 172.063 158.635C170.605 159.072 168.14 159.501 165.452 158.549C164.805 158.32 159.796 156.461 159.291 152.14C158.839 148.263 162.236 144.292 164.01 144.643C164.745 144.788 165.218 145.673 165.528 146.571C166.389 150.925 168.781 154.826 172.271 157.568L172.267 157.565Z" fill="#FBD112"/>
<path d="M159.363 161.791C159.372 161.848 160.091 165.05 160.091 165.05L167.452 165.061L164.844 156.393" fill="#FF9F7D"/>
<path d="M155.092 162.551C156.407 163.066 157.762 162.786 158.038 162.725C159.224 162.453 160.287 161.797 161.062 160.859L163.424 158.422L164.685 158.154L166.064 155.105C166.108 154.947 166.14 154.787 166.16 154.625C166.398 152.792 165.126 151.292 164.913 151.041C163.529 149.412 161.606 149.161 161.034 149.107C160.159 149.028 159.276 149.113 158.432 149.36L153.888 150.673C153.789 150.701 153.692 150.735 153.596 150.775C152.567 151.188 152.17 152.341 151.994 152.826C151.283 154.784 151.426 161.118 155.092 162.551Z" fill="#FF9F7D"/>
<path d="M151.795 153.596C151.794 154.382 151.527 155.145 151.038 155.762C150.709 156.165 150.291 156.486 149.816 156.701C150.624 157.297 151.528 157.751 152.488 158.042" fill="#FF9F7D"/>
<path d="M153.238 155.428L153.239 155.428C153.429 155.397 153.558 155.218 153.528 155.027V155.026C153.496 154.836 153.317 154.706 153.127 154.737L153.126 154.737C152.935 154.768 152.806 154.947 152.836 155.137L152.838 155.139C152.868 155.329 153.047 155.458 153.238 155.428Z" fill="black"/>
<path fill-rule="evenodd" clip-rule="evenodd" d="M160.871 160.812C160.937 160.865 160.948 160.961 160.895 161.027C160.692 161.283 160.467 161.522 160.223 161.741L160.223 161.741C160.004 161.938 159.769 162.118 159.521 162.279C159.45 162.325 159.356 162.305 159.31 162.234C159.264 162.163 159.284 162.069 159.355 162.023C159.589 161.871 159.811 161.701 160.019 161.514C160.25 161.306 160.463 161.08 160.656 160.837C160.709 160.771 160.805 160.76 160.871 160.812Z" fill="black"/>
<path fill-rule="evenodd" clip-rule="evenodd" d="M154.792 154.93C154.897 154.82 154.897 154.82 154.897 154.82V154.819V154.819L154.895 154.818L154.891 154.813C154.887 154.81 154.881 154.805 154.874 154.799C154.86 154.786 154.84 154.769 154.814 154.747C154.763 154.705 154.689 154.647 154.597 154.585C154.415 154.463 154.157 154.319 153.863 154.249C153.567 154.179 153.229 154.183 152.9 154.365C152.573 154.547 152.278 154.894 152.043 155.468C152.011 155.546 152.048 155.635 152.126 155.667C152.204 155.699 152.293 155.662 152.326 155.584C152.544 155.051 152.801 154.77 153.049 154.632C153.294 154.496 153.551 154.489 153.793 154.547C154.037 154.605 154.261 154.727 154.426 154.839C154.509 154.894 154.575 154.945 154.62 154.983C154.642 155.001 154.659 155.016 154.671 155.027C154.677 155.032 154.681 155.035 154.683 155.038L154.686 155.041L154.687 155.041V155.041C154.748 155.099 154.845 155.097 154.903 155.035C154.961 154.974 154.958 154.878 154.897 154.82L154.792 154.93ZM163.442 154.849C163.512 154.895 163.532 154.99 163.487 155.061L162.375 156.764L164.088 156.488C164.172 156.475 164.25 156.531 164.264 156.615C164.277 156.698 164.221 156.776 164.137 156.79L162.082 157.121C162.022 157.13 161.963 157.104 161.93 157.053C161.897 157.002 161.897 156.937 161.93 156.886L163.23 154.894C163.277 154.823 163.372 154.803 163.442 154.849ZM153.941 157.463C154.02 157.49 154.064 157.577 154.036 157.657C153.907 158.041 153.695 158.392 153.416 158.686C153.137 158.98 152.797 159.209 152.42 159.357C152.342 159.388 152.253 159.35 152.222 159.271C152.191 159.193 152.23 159.104 152.308 159.073C152.644 158.941 152.947 158.737 153.195 158.475C153.444 158.214 153.632 157.901 153.747 157.56C153.774 157.48 153.86 157.437 153.941 157.463Z" fill="black"/>
<path fill-rule="evenodd" clip-rule="evenodd" d="M156.223 152.856C155.98 152.916 155.747 152.959 155.534 152.987C153.967 153.19 152.032 152.688 151.225 151.443C150.976 151.057 150.734 150.443 150.906 150.293C151.001 150.21 151.169 150.32 151.381 150.459C151.621 150.616 151.918 150.811 152.229 150.802C152.918 150.785 153.279 149.794 153.677 148.702C154.105 147.532 154.573 146.246 155.531 145.92C156.938 145.442 159.533 146.979 159.874 148.993C163.363 148.215 166.677 151.032 166.391 154.651C166.39 154.665 166.389 154.678 166.387 154.691C166.385 154.712 166.383 154.732 166.383 154.753C166.217 156.658 165.927 157.547 165.446 158.549L163.422 158.422C163.8 158.315 164.15 158.127 164.447 157.871C164.745 157.615 164.983 157.297 165.144 156.939C165.306 156.581 165.387 156.192 165.382 155.8C165.377 155.407 165.286 155.02 165.116 154.667C165.057 154.55 164.497 153.442 163.543 153.328C163.229 153.29 162.989 153.373 162.631 153.497C162.291 153.616 161.845 153.771 161.127 153.894C160.891 153.935 160.696 153.959 160.571 153.973C160.366 153.997 159.42 154.07 158.038 153.632C157.64 153.507 156.967 153.287 156.223 152.856Z" fill="#FBD112"/>
<path d="M152.122 151.054L167.702 152.331C167.768 152.081 167.989 151.12 167.463 150.158C167.253 149.773 166.954 149.442 166.593 149.192C166.621 148.414 166.467 147.64 166.14 146.933C165.929 146.488 165.764 146.328 165.502 145.92C164.634 144.561 164.919 143.578 164.375 142.962C163.233 141.661 161.405 141.415 160.138 141.395C159.886 141.366 158.362 141.221 157.097 142.33C156.417 142.937 155.966 143.76 155.822 144.659C154.284 145.27 153.801 145.983 153.65 146.526C153.499 147.069 153.681 147.464 153.344 148.121C153.039 148.717 152.705 148.757 152.393 149.309C152.208 149.645 152.021 150.191 152.122 151.054Z" fill="black"/>
<path fill-rule="evenodd" clip-rule="evenodd" d="M161.949 136.359C162.031 136.376 162.084 136.457 162.067 136.539L161.58 138.874L163.777 137.631C163.85 137.589 163.944 137.615 163.985 137.689C164.026 137.762 164.001 137.855 163.927 137.897L161.738 139.136C162.368 139.204 162.985 139.27 163.456 139.32C163.712 139.348 163.923 139.37 164.073 139.386L164.245 139.405L164.291 139.409L164.302 139.411L164.305 139.411L164.306 139.411C164.306 139.411 164.306 139.411 164.29 139.563C164.274 139.715 164.274 139.715 164.274 139.715L164.273 139.715L164.27 139.714L164.258 139.713L164.213 139.708L164.04 139.69C163.892 139.674 163.679 139.651 163.423 139.624C162.966 139.575 162.372 139.511 161.76 139.445L162.786 140.794C162.838 140.861 162.825 140.957 162.757 141.008C162.69 141.059 162.595 141.046 162.544 140.979L161.443 139.534L161.049 141.427C161.032 141.51 160.951 141.563 160.868 141.545C160.785 141.528 160.732 141.447 160.749 141.365L161.144 139.472L159.081 140.64C159.007 140.681 158.914 140.656 158.872 140.582C158.831 140.509 158.857 140.416 158.93 140.374L160.762 139.337C160.352 139.292 159.965 139.25 159.642 139.213C159.379 139.184 159.156 139.159 158.996 139.14C158.917 139.13 158.851 139.122 158.804 139.116C158.78 139.113 158.761 139.11 158.746 139.108C158.734 139.106 158.715 139.103 158.7 139.099C158.619 139.075 158.572 138.991 158.596 138.91C158.618 138.831 158.7 138.784 158.779 138.804C158.779 138.804 158.779 138.804 158.78 138.804C158.781 138.804 158.785 138.805 158.791 138.806C158.804 138.808 158.821 138.81 158.844 138.813C158.889 138.819 158.952 138.827 159.033 138.836C159.192 138.855 159.413 138.88 159.675 138.91C160.075 138.955 160.57 139.009 161.087 139.065L160.167 137.856C160.115 137.789 160.128 137.693 160.196 137.642C160.263 137.591 160.358 137.604 160.409 137.671L161.281 138.816L161.768 136.477C161.785 136.394 161.865 136.342 161.949 136.359ZM164.29 139.563L164.306 139.411C164.39 139.42 164.451 139.495 164.442 139.579C164.432 139.663 164.358 139.724 164.274 139.715L164.29 139.563Z" fill="black"/>
<path fill-rule="evenodd" clip-rule="evenodd" d="M153.192 148.111C153.198 148.027 153.271 147.963 153.356 147.969L166.861 148.924C166.944 148.93 167.007 149.003 167.002 149.087C166.996 149.171 166.923 149.235 166.838 149.229L163.56 148.997V150.09C163.56 150.174 163.492 150.242 163.408 150.242C163.323 150.242 163.255 150.174 163.255 150.09V148.975L162.209 148.902V150.09C162.209 150.174 162.141 150.242 162.057 150.242C161.972 150.242 161.904 150.174 161.904 150.09V148.88L153.333 148.274C153.25 148.268 153.187 148.195 153.192 148.111Z" fill="white"/>
<path d="M191.806 258.818C188.826 242.729 185.847 226.641 182.866 210.553C182.622 209.35 182.316 208.16 181.95 206.989C181.95 206.989 181.433 205.332 180.673 203.535C180.448 203.004 180.146 202.337 179.773 201.547C179.728 201.333 179.683 201.12 179.638 200.904C179.578 200.904 179.519 200.896 179.459 200.892C178.104 198.083 175.983 193.993 173.272 189.116C169.802 188.537 166.063 188.055 162.079 187.731C159.59 187.527 157.191 187.403 154.891 187.34L150.23 192.389C142.785 192.4 136.688 191.906 129.549 192.823C125.67 193.321 122.101 195.203 119.499 198.122C116.896 201.042 115.435 204.802 115.384 208.713C115.21 221.926 119.89 236.087 119.717 249.301C118.501 253.781 112.487 257.107 111.274 261.59L107.555 268.144C110.521 267.86 112.703 267.089 114.116 266.461C119.24 264.186 122.525 261.115 125.912 257.602C127.893 255.545 134.141 252.48 136.663 248.57L133.135 212.429C142.866 211.882 151.07 211.334 160.802 210.787C167.88 238.368 174.959 265.95 182.036 293.532C184.661 298.67 190.095 300.828 194.052 299.234C197.704 297.761 198.837 293.599 198.99 293.023C196.523 281.269 194.151 269.987 191.806 258.818Z" fill="#00BE8B"/>
<path d="M179.816 304.98C182.142 304.933 184.467 304.989 186.792 304.942C185.4 300.869 184.01 296.695 182.618 292.615V283.663C181.543 282.51 181.673 285.513 180.598 284.361L179.816 304.98Z" fill="black"/>
<path d="M197.343 284.945C199.046 290.23 200.748 295.718 202.451 301.002C202.593 301.445 202.63 301.915 202.557 302.375C202.485 302.834 202.306 303.271 202.034 303.649C201.763 304.027 201.406 304.335 200.993 304.55C200.58 304.765 200.123 304.88 199.658 304.886C193.465 304.963 187.272 304.834 181.078 304.911C180.885 298.888 180.692 292.865 180.499 286.843C179.114 282.844 177.73 278.846 176.344 274.847L195.894 271.334C196.377 275.871 196.859 280.409 197.343 284.945Z" fill="black"/>
<path d="M137.608 247.021C138.275 252.52 137.868 258.107 138.254 263.628C138.301 264.286 138.085 264.936 137.652 265.434C137.22 265.933 136.608 266.24 135.951 266.288L130.262 266.695L125.343 267.125L100.116 269.235C99.8539 269.256 99.5912 269.226 99.3417 269.146C99.0912 269.067 98.8601 268.938 98.6595 268.769C98.4599 268.599 98.2949 268.392 98.1748 268.159C98.0546 267.926 97.9813 267.672 97.9599 267.41C97.8744 266.392 98.6045 265.475 99.6105 265.272L103.952 263.467C107.924 261.817 111.326 259.038 113.737 255.475L118.53 248.391C117.496 245.303 116.464 242.214 115.43 239.125L139.183 239.234C138.657 241.831 138.133 244.428 137.608 247.021Z" fill="black"/>
<path fill-rule="evenodd" clip-rule="evenodd" d="M182.583 294.625C182.665 294.606 182.747 294.657 182.766 294.739L184.543 302.338C184.691 302.97 185.048 303.532 185.555 303.934C186.064 304.337 186.694 304.556 187.341 304.556C187.426 304.556 187.494 304.625 187.494 304.709C187.494 304.793 187.426 304.862 187.341 304.862C186.625 304.862 185.928 304.619 185.366 304.174L185.366 304.174C184.804 303.729 184.409 303.106 184.246 302.408L182.469 294.809C182.45 294.727 182.501 294.644 182.583 294.625Z" fill="white"/>
<path d="M86.4632 184.868C85.9704 184.819 85.5112 184.601 85.1611 184.251C84.8115 183.901 84.5941 183.441 84.5462 182.948C84.4981 182.456 84.6223 181.962 84.8977 181.551C85.1729 181.14 85.5824 180.837 86.0559 180.694L86.2209 180.645C85.7983 180.514 85.4358 180.237 85.1965 179.865C84.9577 179.492 84.8582 179.047 84.9155 178.608L85.0479 177.59C85.0867 177.292 85.1964 177.008 85.3676 176.761C85.5397 176.515 85.7678 176.313 86.0335 176.174L86.2372 176.066L86.4215 175.983C85.8319 176.001 85.2586 175.789 84.8222 175.392C84.386 174.995 84.1209 174.444 84.0829 173.855C84.0448 173.266 84.2368 172.686 84.6184 172.236C85 171.786 85.5417 171.502 86.1282 171.444L92.7692 170.581L93.0747 170.246C93.5105 169.764 94.0532 169.39 94.6591 169.153C95.2639 168.917 95.9166 168.825 96.5642 168.885C97.2057 168.877 97.8309 169.083 98.3421 169.47C99.3033 170.232 99.6658 171.659 99.2341 173.06L105.392 173.55C104.358 177.529 104.968 181.707 103.934 185.686C98.6588 185.484 91.7408 185.077 86.4632 184.868Z" fill="#FF9F7D"/>
<path fill-rule="evenodd" clip-rule="evenodd" d="M92.6256 171.058C92.7027 171.092 92.7373 171.183 92.7031 171.26L90.9395 175.226C90.9395 175.226 90.9395 175.226 90.9395 175.226C90.7598 175.63 90.7411 176.088 90.888 176.506C91.0349 176.923 91.3353 177.269 91.7292 177.472C91.9342 177.577 92.1579 177.641 92.3871 177.659C92.6174 177.677 92.8485 177.649 93.0675 177.577C93.2865 177.504 93.4885 177.389 93.6614 177.238L93.6617 177.238C93.8356 177.087 93.9769 176.902 94.0791 176.695C94.0791 176.695 94.0791 176.695 94.0792 176.695L95.7601 173.267C95.7952 173.195 95.8795 173.163 95.9536 173.192C96.0277 173.221 96.0667 173.303 96.0432 173.379L95.3131 175.741C95.21 176.075 95.2203 176.433 95.3428 176.759L95.3429 176.759C95.4644 177.086 95.6918 177.363 95.9881 177.547L96.4891 177.859C96.5607 177.903 96.5827 177.997 96.5381 178.069C96.4936 178.141 96.3994 178.163 96.3277 178.118L95.8268 177.806C95.4735 177.587 95.202 177.256 95.0567 176.866C94.9104 176.476 94.8983 176.049 95.0213 175.651L95.1749 175.154L94.3533 176.83L94.3531 176.83C94.2333 177.073 94.0672 177.29 93.8624 177.468C93.6586 177.646 93.4208 177.782 93.1633 177.867C92.9058 177.952 92.6339 177.985 92.3632 177.964C92.0935 177.942 91.8304 177.867 91.5894 177.743C91.1259 177.505 90.7726 177.098 90.5998 176.607C90.427 176.116 90.449 175.577 90.6603 175.102L92.424 171.136C92.4582 171.059 92.5485 171.024 92.6256 171.058Z" fill="black"/>
<path fill-rule="evenodd" clip-rule="evenodd" d="M90.8231 175.511C90.8332 175.595 90.7736 175.671 90.6898 175.681L86.5109 176.186C86.4272 176.197 86.3511 176.137 86.341 176.053C86.3308 175.969 86.3905 175.893 86.4743 175.883L90.6532 175.378C90.7369 175.368 90.813 175.428 90.8231 175.511Z" fill="black"/>
<path fill-rule="evenodd" clip-rule="evenodd" d="M94.0893 176.9C94.1693 176.927 94.2127 177.013 94.1861 177.093C94.1301 177.262 94.0906 177.435 94.0685 177.611C94.0682 177.614 94.0678 177.616 94.0674 177.619C93.9558 178.252 93.646 178.834 93.1816 179.279C92.7183 179.725 92.1243 180.011 91.4874 180.097L86.2433 180.799C86.1597 180.81 86.0829 180.752 86.0717 180.668C86.0605 180.585 86.1192 180.508 86.2028 180.497L91.4466 179.794C92.0194 179.717 92.5536 179.459 92.97 179.059L92.9701 179.059C93.3867 178.659 93.6651 178.137 93.7659 177.569C93.7906 177.375 93.8345 177.183 93.8962 176.997C93.9228 176.917 94.0092 176.874 94.0893 176.9Z" fill="black"/>
<path fill-rule="evenodd" clip-rule="evenodd" d="M90.6527 179.99C90.6776 179.91 90.7632 179.865 90.8437 179.89L91.637 180.135C91.9879 180.244 92.2931 180.466 92.5031 180.767C92.714 181.068 92.8182 181.431 92.8003 181.797L92.8003 181.798C92.7823 182.154 92.65 182.495 92.4211 182.771C92.1934 183.045 91.8827 183.239 91.5361 183.323L88.0831 184.155C88.0011 184.175 87.9186 184.125 87.8988 184.043C87.8791 183.961 87.9295 183.878 88.0115 183.858L91.4642 183.026C91.4643 183.026 91.4644 183.026 91.4644 183.026C91.747 182.958 92.0003 182.8 92.1859 182.576L92.1862 182.575C92.3726 182.351 92.4806 182.073 92.4952 181.782C92.5098 181.483 92.4247 181.188 92.2528 180.942L92.2526 180.942C92.0818 180.697 91.8331 180.516 91.5467 180.427C91.5467 180.427 91.5467 180.427 91.5467 180.427L90.7535 180.182C90.6729 180.157 90.6278 180.071 90.6527 179.99Z" fill="black"/>
<path d="M177.396 165.506C177.396 165.506 173.311 165.247 169.186 165.125C168.82 165.114 167.185 165.073 165.927 165.064C165.253 165.059 164.835 165.064 163.498 165.052C160.086 165.02 156.706 165.009 153.361 165.019C152.645 165.02 151.939 165.187 151.297 165.507C150.573 165.862 143.803 168.753 134.118 172.867L105.18 169.005L103.652 187.334L142.848 190.406L153.262 186.766C153.273 186.867 152.071 187.033 152.071 187.033C157.452 187.503 162.903 188.046 168.425 188.663C170.05 188.844 171.668 189.03 173.28 189.221L174.856 185.123L186.432 181.381C187.43 176.265 188.427 171.147 189.426 166.029C184.015 165.882 180.073 165.676 177.396 165.506Z" fill="white"/>
<path d="M166.086 184.174L164.922 187.862" stroke="white" stroke-width="3" stroke-linecap="round" stroke-linejoin="round"/>
<path d="M134.039 177.711L138.318 181.822" stroke="white" stroke-width="3" stroke-linecap="round" stroke-linejoin="round"/>
<path d="M178.168 185.785C176.964 185.486 174.943 186.443 171.368 192.051C169.52 193.803 166.824 196.768 166.011 200.038C165.589 201.739 165.988 202.283 166.181 202.492C166.358 202.683 166.572 202.838 166.809 202.946C167.048 203.054 167.304 203.114 167.565 203.122C167.826 203.129 168.086 203.085 168.33 202.991C168.573 202.897 168.795 202.755 168.983 202.574L172.661 199.037L173.589 203.495C173.839 204.698 174.292 205.85 174.926 206.903L176.207 209.028C176.409 209.364 176.715 209.626 177.077 209.777C177.44 209.928 177.842 209.958 178.223 209.865C178.617 209.768 178.968 209.543 179.222 209.227C179.474 208.91 179.616 208.518 179.624 208.112L179.649 206.851L180.158 208.238C180.332 208.727 180.68 209.134 181.135 209.382C181.59 209.631 182.121 209.703 182.626 209.586C183.122 209.462 183.556 209.16 183.843 208.737C184.13 208.314 184.252 207.8 184.184 207.294L184.111 206.758L185.063 207.623C185.204 207.752 185.372 207.848 185.554 207.904C185.738 207.959 185.93 207.974 186.119 207.946C186.308 207.919 186.487 207.85 186.646 207.745C186.804 207.639 186.937 207.501 187.036 207.338C187.135 207.176 187.196 206.993 187.216 206.804C187.236 206.616 187.214 206.424 187.152 206.245L186.265 203.685C186.109 203.081 185.858 202.086 185.598 200.852C185.598 200.852 185.476 200.273 185.372 199.732C185.199 198.828 187.307 191.028 185.253 189.104C185.037 188.9 184.956 188.933 184.271 188.798C184.271 188.798 184.248 188.798 183.221 188.561C182.07 188.29 179.403 186.093 178.168 185.785Z" fill="#FF9F7D"/>
<path fill-rule="evenodd" clip-rule="evenodd" d="M178.399 199.031C178.409 198.947 178.349 198.872 178.264 198.862C178.181 198.853 178.105 198.913 178.096 198.997C178.003 199.836 177.987 200.681 178.047 201.522V201.522C178.191 203.444 178.721 205.316 179.609 207.027C179.648 207.102 179.739 207.131 179.815 207.092C179.89 207.053 179.919 206.961 179.88 206.886C179.011 205.212 178.492 203.38 178.352 201.5C178.293 200.677 178.309 199.851 178.399 199.031ZM182.063 199.053C182.064 198.968 181.997 198.899 181.912 198.898C181.828 198.897 181.759 198.964 181.758 199.049C181.746 199.892 181.812 200.735 181.953 201.567V201.567C182.282 203.465 182.991 205.276 184.039 206.892C184.084 206.963 184.179 206.983 184.249 206.937C184.321 206.891 184.341 206.797 184.295 206.726C183.27 205.145 182.575 203.372 182.255 201.516C182.116 200.702 182.052 199.878 182.063 199.053Z" fill="black"/>
<path fill-rule="evenodd" clip-rule="evenodd" d="M168.811 164.727C168.82 164.587 168.713 164.466 168.573 164.457C168.432 164.449 168.312 164.556 168.303 164.696L167.482 178.311C167.348 180.547 167.747 182.782 168.646 184.833C169.545 186.884 170.919 188.692 172.654 190.107L172.976 189.713C171.304 188.348 169.979 186.605 169.112 184.628C168.246 182.651 167.861 180.497 167.99 178.342V178.342L168.811 164.727ZM153.34 164.727C153.348 164.587 153.241 164.466 153.1 164.457C152.96 164.449 152.84 164.556 152.831 164.696L152.01 178.311C151.818 181.503 152.919 184.923 154.684 187.484C154.764 187.599 154.922 187.628 155.038 187.549C155.154 187.469 155.183 187.31 155.103 187.195C153.395 184.715 152.334 181.406 152.519 178.342L153.34 164.727Z" fill="black"/>
<path d="M177.028 165.588L199.505 166.917C203.067 167.176 206.399 168.774 208.831 171.389C211.263 174.005 212.615 177.444 212.615 181.015C212.615 184.759 211.131 188.35 208.486 191C205.842 193.65 202.255 195.143 198.511 195.152L186.732 195.177C183.016 191.596 179.299 188.015 175.584 184.433C189.975 181.553 197.18 180.156 197.199 180.24C197.218 180.325 189.769 181.952 174.852 185.12" fill="white"/>
<path fill-rule="evenodd" clip-rule="evenodd" d="M194.742 180.836C194.759 180.919 194.707 181 194.624 181.017L175.817 184.988C175.735 185.006 175.654 184.953 175.636 184.87C175.619 184.788 175.671 184.707 175.754 184.689L194.561 180.718C194.644 180.701 194.725 180.754 194.742 180.836Z" fill="black"/>
<path fill-rule="evenodd" clip-rule="evenodd" d="M94.3534 176.358C94.4939 176.362 94.604 176.48 94.5993 176.62C94.4746 180.356 94.3735 182.919 94.272 185.482L94.2667 185.616C94.167 188.134 94.0666 190.671 93.9426 194.338C93.9378 194.479 93.8201 194.589 93.6796 194.584C93.539 194.579 93.429 194.461 93.4337 194.321C93.5578 190.652 93.6583 188.114 93.758 185.596L93.7633 185.461C93.8648 182.899 93.9658 180.337 94.0905 176.603C94.0952 176.463 94.2129 176.353 94.3534 176.358Z" fill="black"/>
</svg>
