<svg width="237" height="156" viewBox="0 0 237 156" fill="none" xmlns="http://www.w3.org/2000/svg">
<ellipse cx="13.4753" cy="32.4025" rx="13.4753" ry="32.4025" transform="matrix(0.954913 -0.296884 0.296546 0.955019 0 33.7769)" fill="#FCA081"/>
<path d="M32.472 113.497C32.7766 99.9197 28.5302 67.6734 19.0659 48.7329" stroke="#000091" stroke-linecap="round"/>
<path d="M19.1505 65.3319C20.9873 66.4297 25.1552 69.2255 27.1323 71.6259C29.2236 65.1984 30.0467 62.5974 30.1968 62.1004" stroke="#000091" stroke-linecap="round"/>
<path d="M15.4028 55.4527C17.3364 56.3691 21.7531 58.752 23.9512 60.9515C25.4167 54.3529 25.9866 51.6849 26.0883 51.1758" stroke="#000091" stroke-linecap="round"/>
<path d="M74.9581 48.3275C74.9581 50.7364 73.0069 52.6871 70.6024 52.6871C68.198 52.6871 66.2468 50.7364 66.2468 48.3275C66.2468 45.9187 68.198 43.968 70.6024 43.968C73.0069 43.968 74.9581 45.9187 74.9581 48.3275Z" stroke="#FACF35" stroke-width="3.85"/>
<ellipse cx="87.0113" cy="49.1973" rx="3.09332" ry="3.09525" fill="#000091"/>
<path d="M86.212 31.52C86.212 33.7462 84.4086 35.5498 82.1853 35.5498C79.9621 35.5498 78.1587 33.7462 78.1587 31.52C78.1587 29.2938 79.9621 27.4902 82.1853 27.4902C84.4086 27.4902 86.212 29.2938 86.212 31.52Z" stroke="white" stroke-width="2"/>
<path d="M35.4952 75.7746C35.3622 72.9248 37.6369 70.5415 40.4898 70.5415H69.0065C71.8594 70.5415 74.134 72.9248 74.001 75.7746L72.955 98.1862C72.501 107.911 64.484 115.563 54.7481 115.563C45.0122 115.563 36.9952 107.911 36.5413 98.1862L35.4952 75.7746Z" fill="#000091"/>
<path d="M59.2653 66.7786C59.172 64.2638 57.0338 62.3208 54.4894 62.4388C51.945 62.5567 49.9579 64.691 50.0512 67.2057" stroke="#000091" stroke-width="3" stroke-linecap="round"/>
<line x1="1.5" y1="-1.5" x2="53.038" y2="-1.5" transform="matrix(0.99956 -0.00540082 0.99956 -0.00540082 12.5918 62.2563)" stroke="#000091" stroke-width="3" stroke-linecap="round"/>
<path d="M67.0128 83.997C66.8671 81.5831 68.7855 79.5454 71.2039 79.5454H93.7798C96.1981 79.5454 98.1165 81.5831 97.9708 83.997L96.8834 102.013C96.424 109.625 90.1172 115.563 82.4918 115.563C74.8665 115.563 68.5596 109.625 68.1002 102.013L67.0128 83.997Z" fill="white"/>
<path d="M84.8008 70.7659C84.0121 68.6046 81.5 67.5997 79.1898 68.5215C76.8796 69.4432 75.6462 71.9425 76.4349 74.1038" stroke="white" stroke-width="3" stroke-linecap="round"/>
<line x1="1.5" y1="-1.5" x2="30.8108" y2="-1.5" transform="matrix(0.937119 -0.357072 0.353814 0.925314 66.3857 80.0415)" stroke="white" stroke-width="3" stroke-linecap="round"/>
<line x1="78.7412" y1="89.2993" x2="78.7412" y2="105.058" stroke="#04A776" stroke-width="3" stroke-linecap="round"/>
<line x1="48.7471" y1="81.7944" x2="48.7471" y2="105.057" stroke="#6A6AF4" stroke-width="3" stroke-linecap="round"/>
<line x1="87.7412" y1="92.3008" x2="87.7412" y2="105.058" stroke="#04A776" stroke-width="3" stroke-linecap="round"/>
<line x1="61.4961" y1="85.5479" x2="61.4961" y2="105.059" stroke="#6A6AF4" stroke-width="3" stroke-linecap="round"/>
<path d="M144.657 69.8703C143.864 67.2978 145.788 64.6924 148.48 64.6924H198.218C199.974 64.6924 201.524 65.8369 202.041 67.5145L213.91 106.031C214.702 108.604 212.779 111.209 210.087 111.209H160.348C158.593 111.209 157.043 110.065 156.526 108.387L144.657 69.8703Z" fill="#000091"/>
<path d="M149.306 69.8703C148.513 67.2978 150.437 64.6924 153.129 64.6924H202.867C204.623 64.6924 206.173 65.8369 206.69 67.5145L218.559 106.031C219.351 108.604 217.428 111.209 214.736 111.209H164.997C163.242 111.209 161.692 110.065 161.175 108.387L149.306 69.8703Z" fill="#6672F8"/>
<rect x="157.009" y="106.557" width="79.0294" height="6.20226" rx="3.10113" fill="#000091"/>
<rect width="5.87617" height="23.8711" rx="2.93808" transform="matrix(0.858823 -0.501781 0.49338 0.864028 168.439 56.751)" fill="#FACF35"/>
<path fill-rule="evenodd" clip-rule="evenodd" d="M158.392 46.43C157.216 49.2487 157.287 52.5199 158.868 55.3105C161.594 60.1214 167.777 61.6819 172.678 58.7959C177.579 55.9099 179.342 49.6703 176.616 44.8593C174.943 41.906 171.967 40.1776 168.784 39.9508L171.696 45.088C172.22 46.0126 172.233 47.1504 171.729 48.0946L170.026 51.2849C169.476 52.3147 168.403 52.9462 167.253 52.9169L163.69 52.8259C162.635 52.799 161.674 52.2197 161.15 51.2951L158.392 46.43Z" fill="#FACF35"/>
<path fill-rule="evenodd" clip-rule="evenodd" d="M194.766 84.3743C195.942 81.5556 195.872 78.2844 194.291 75.494C191.565 70.6833 185.382 69.1232 180.481 72.0094C175.58 74.8956 173.816 81.1352 176.542 85.946C178.215 88.8991 181.191 90.6273 184.374 90.854L181.462 85.718C180.938 84.7934 180.926 83.6555 181.43 82.7113L183.133 79.5206C183.683 78.491 184.756 77.8595 185.906 77.8888L189.469 77.9795C190.524 78.0064 191.485 78.5857 192.009 79.5104L194.766 84.3743Z" fill="#FACF35"/>
<line y1="-0.75" x2="22.1817" y2="-0.75" transform="matrix(0.46153 -0.881549 0.880824 0.462239 213.38 100.641)" stroke="#000091" stroke-width="1.5"/>
<rect width="6.66938" height="34.6985" rx="3.33469" transform="matrix(0.878981 0.46679 -0.457418 0.884248 210.516 96.8218)" fill="white"/>
<path d="M222.264 75.7689C222.475 75.3578 222.869 75.0779 223.323 75.0178L225.32 74.7533C225.916 74.6744 226.499 74.9872 226.775 75.533L227.698 77.3627C227.908 77.7786 227.907 78.2699 227.697 78.681L226.584 80.852C226.225 81.5529 225.371 81.8195 224.678 81.4476L221.757 79.8824C221.064 79.5105 220.792 78.6408 221.151 77.94L222.264 75.7689Z" fill="#FACF35"/>
<ellipse cx="220.671" cy="52.3595" rx="2.81629" ry="2.81804" fill="white"/>
<path d="M217.854 52.0024C207.661 52.0024 199.397 60.2709 199.397 70.4705" stroke="#000091" stroke-width="1.5"/>
<path d="M135.816 86.9314C135.816 95.9876 145.208 103.329 156.792 103.329" stroke="#000091" stroke-width="1.5"/>
<path d="M136.016 86.4933C135.041 86.4933 134.249 85.7024 134.249 84.7254C134.249 83.7484 135.041 82.9575 136.016 82.9575C136.99 82.9575 137.782 83.7484 137.782 84.7254C137.782 85.7024 136.99 86.4933 136.016 86.4933Z" stroke="#6672F8" stroke-width="2"/>
<path d="M65.648 124.605C69.3131 135.352 86.6929 153.848 99.0748 135.076C111.457 116.305 115.701 130.763 145.825 153.688C177.534 177.818 171.841 147.552 175.49 128.837" stroke="white"/>
<path d="M65.1327 129.495C65.1652 128.934 64.9127 125.346 65.4996 124.817C66.1628 124.219 69.752 126.016 70.0479 126.653" stroke="white" stroke-linecap="round" stroke-linejoin="round"/>
<path d="M71.9083 10.5562C104.145 -15.0106 163.916 18.508 125.828 16.2383C69.0528 12.8549 147.431 -18.6151 168.619 32.3662" stroke="white"/>
<path d="M169.991 28.7985C169.874 29.2513 169.542 32.2202 168.927 32.5586C168.231 32.941 165.256 30.9 165.088 30.3328" stroke="white" stroke-linecap="round" stroke-linejoin="round"/>
<ellipse opacity="0.03" cx="123.174" cy="80.1967" rx="67.4714" ry="67.5136" stroke="white" stroke-width="60"/>
</svg>
