<svg width="190" height="156" viewBox="0 0 190 156" fill="none" xmlns="http://www.w3.org/2000/svg">
<ellipse opacity="0.03" cx="95.2565" cy="94.9473" rx="64.6745" ry="64.6672" stroke="#E8EDFF" stroke-width="60"/>
<path d="M68.9506 92.7349C67.3012 95.5641 71.3493 97.9023 72.8245 99.6C76.8782 104.265 68.4336 111.427 61.7174 110.537C55.0013 109.648 51.9853 100.044 56.267 91.5154C57.9912 88.0809 58.0882 87.0254 55.4306 79.7442C52.7729 72.4629 62.3125 71.9702 63.8569 65.8333C65.4038 59.6867 60.0772 52.9498 65.4226 47.3199C69.0403 43.5096 75.1631 50.3481 76.1303 53.5409C79.3859 64.2872 68.9592 67.2395 71.7818 71.6081C74.4548 75.2325 79.2235 78.4775 78.018 83.633C77.1207 87.4702 70.9499 89.3054 68.9506 92.7349Z" fill="#E8EDFF"/>
<path d="M70.1211 55.8062C64.4127 84.5349 62.5465 112.396 62.4341 144.638" stroke="#6672F8"/>
<path d="M161.419 103.358C160.12 105.586 163.308 107.427 164.469 108.764C167.661 112.437 161.012 118.077 155.723 117.377C150.434 116.676 148.059 109.114 151.431 102.398C152.789 99.693 152.865 98.8618 150.772 93.1281C148.679 87.3944 156.191 87.0064 157.408 82.1738C158.626 77.3335 154.431 72.0284 158.64 67.5951C161.489 64.5947 166.311 69.9797 167.072 72.4939C169.636 80.9563 161.425 83.2811 163.648 86.7212C165.753 89.5753 169.508 92.1306 168.559 96.1904C167.852 99.212 162.993 100.657 161.419 103.358Z" fill="#1EBE8E"/>
<path d="M162.34 74.3167C157.845 96.9395 156.375 118.879 156.287 144.269" stroke="#E8EDFF"/>
<path d="M34.8337 114.314C25.1309 96.8323 41.6017 86.915 26.2844 67.9711C-2.77515 32.0335 47.1312 25.4134 49.0501 50.1348C49.5755 56.8782 49.5701 68.8646 52.0257 75.3478C53.7185 79.8168 66.5575 84.8979 65.7374 104.639C64.9284 124.051 57.1805 144.615 55.7858 145.282C50.0188 140.41 36.9524 118.129 34.8337 114.314Z" fill="#1EBE8E"/>
<path d="M32.9063 45.9433C39.2501 65.6134 60.2273 98.2793 55.4802 145.034" stroke="white" stroke-linecap="round"/>
<path d="M121.615 143.393C121.309 126.137 110.506 65.8721 97.2656 42.4185" stroke="white" stroke-linecap="round"/>
<path d="M97.6133 63.4355C99.9965 64.7216 105.42 68.0288 108.046 70.9688C110.372 62.6321 111.284 59.26 111.449 58.616" stroke="white" stroke-linecap="round"/>
<path d="M92.9597 51.104C95.4747 52.1423 101.234 54.8799 104.152 57.5239C105.687 49.0905 106.279 45.6821 106.383 45.0321" stroke="white" stroke-linecap="round"/>
<path d="M119.129 54.9769C121.579 62.7575 120.653 70.849 118.651 77.1424C117.651 80.2872 116.387 82.9671 115.157 84.919C114.541 85.8955 113.94 86.6802 113.392 87.2477C112.833 87.8266 112.372 88.1353 112.041 88.2335C111.703 88.334 111.138 88.3362 110.346 88.1781C109.568 88.0228 108.625 87.7242 107.561 87.2805C105.436 86.3935 102.871 84.9427 100.258 82.9641C95.0285 79.0042 89.6553 72.9688 87.2058 65.1886C84.7486 57.384 85.091 49.5107 86.7919 43.3477C87.6423 40.2663 88.8284 37.627 90.1606 35.645C91.4988 33.6542 92.9468 32.3811 94.3014 31.9298C95.9814 31.4323 98.052 31.6078 100.324 32.438C102.596 33.2679 105.033 34.7398 107.414 36.7783C112.175 40.855 116.668 47.16 119.129 54.9769Z" stroke="white" stroke-linecap="round"/>
<path d="M16.5938 144.472H86.6928C87 148.5 90.6007 150.953 94.3721 150.953C98.1434 150.953 101.574 148.243 101.574 144.472L172.858 144.198" stroke="#B3BFFF"/>
<path fill-rule="evenodd" clip-rule="evenodd" d="M37.9662 102.64C38.2535 103.024 38.519 103.418 38.763 103.819C39.0814 104.344 38.8401 105.055 38.2957 105.292L31.9214 108.07C31.1172 108.42 30.7586 109.391 31.1205 110.237C31.4824 111.084 32.4277 111.486 33.2319 111.135L39.4911 108.408C40.0176 108.178 40.5995 108.494 40.6954 109.1C41.5472 114.481 39.4029 120.221 34.6559 123.806C29.9071 127.392 23.8168 127.866 18.9038 125.547C18.3415 125.282 18.2258 124.483 18.6473 123.972L22.6206 119.153C23.2376 118.405 23.1588 117.322 22.4446 116.735C21.7304 116.148 20.6512 116.279 20.0342 117.027L15.7645 122.206C15.4128 122.632 14.8221 122.683 14.4591 122.291C14.1188 121.923 13.7943 121.534 13.4874 121.125C12.9378 120.391 12.5165 119.51 12.2017 118.525C12.0911 118.179 12.1767 117.791 12.4058 117.513L17.4766 111.364C18.0936 110.615 18.0148 109.533 17.3006 108.946C16.5864 108.359 15.5072 108.49 14.8902 109.238L12.9885 111.544C12.4118 112.244 11.404 111.848 11.4413 110.916C11.6744 105.089 13.1904 98.9893 13.7497 96.91C13.8697 96.4639 14.2417 96.1647 14.6603 96.1715C16.7363 96.2054 23.0468 96.4254 28.7375 97.8258C29.61 98.0405 29.6413 99.3213 28.7969 99.6892L25.8635 100.967C25.0593 101.318 24.7007 102.288 25.0626 103.135C25.4245 103.981 26.3698 104.383 27.174 104.033L35.0244 100.612C35.2926 100.495 35.592 100.514 35.8327 100.676C36.6893 101.254 37.4158 101.906 37.9662 102.64ZM16.3454 103.947C16.6813 104.395 16.5804 105.041 16.12 105.388C15.6596 105.736 15.0142 105.654 14.6783 105.206C14.3424 104.757 14.4433 104.112 14.9037 103.764C15.3641 103.416 16.0095 103.498 16.3454 103.947ZM35.9021 116.268C36.8182 115.576 37.2896 114.654 36.9551 114.208C36.6205 113.761 35.6067 113.96 34.6906 114.651C33.7745 115.342 33.3031 116.265 33.6377 116.711C33.9722 117.158 34.9861 116.959 35.9021 116.268Z" fill="#6672F8"/>
<path fill-rule="evenodd" clip-rule="evenodd" d="M56.9723 120.66C56.8219 120.925 56.6615 121.181 56.4917 121.426C56.1862 121.869 55.5876 121.887 55.1872 121.506L51.5723 118.062C51.0715 117.585 50.2971 117.586 49.8425 118.063C49.388 118.541 49.4254 119.315 49.9261 119.792L53.2175 122.927C53.6972 123.384 53.6712 124.19 53.1279 124.497C49.8479 126.351 45.5842 126.403 41.9401 124.266C38.291 122.127 36.2004 118.342 36.1448 114.523C36.1357 113.897 36.6911 113.499 37.2542 113.67L41.638 115.002C42.2295 115.181 42.8524 114.821 43.0295 114.197C43.2065 113.572 42.8705 112.921 42.279 112.741L37.7283 111.359C37.171 111.19 36.8487 110.537 37.1007 109.994C37.2191 109.738 37.3488 109.486 37.4899 109.237C37.7977 108.695 38.226 108.195 38.7461 107.733C38.966 107.537 39.2666 107.484 39.5499 107.57L45.3864 109.342C45.9779 109.522 46.6009 109.161 46.7779 108.537C46.9549 107.913 46.6189 107.261 46.0274 107.082L44.4747 106.61C43.5926 106.342 43.4867 105.092 44.3389 104.801C47.9968 103.553 51.9581 102.953 53.5187 102.75C53.9285 102.696 54.3274 102.944 54.499 103.362C55.1177 104.867 56.5612 108.601 57.3204 112.395C57.5048 113.317 56.5485 113.844 55.8855 113.212L54.6003 111.988C54.0995 111.511 53.3251 111.511 52.8705 111.989C52.4159 112.467 52.4534 113.24 52.9541 113.717L57.3053 117.862C57.5597 118.104 57.6911 118.467 57.6233 118.815C57.4897 119.499 57.2782 120.122 56.9723 120.66ZM49.851 106.432C49.652 106.782 49.1941 106.892 48.8282 106.677C48.4623 106.463 48.327 106.005 48.5259 105.655C48.7248 105.304 49.1827 105.194 49.5486 105.409C49.9145 105.623 50.0499 106.081 49.851 106.432ZM47.1796 123.009C47.9042 123.433 48.6524 123.494 48.8507 123.146C49.0491 122.798 48.6225 122.172 47.8979 121.749C47.1733 121.325 46.4252 121.264 46.2268 121.612C46.0284 121.961 46.455 122.586 47.1796 123.009Z" fill="#E8EDFF"/>
<path d="M18.1875 101.421C26.8724 110.105 38.5635 129.143 41.9038 143.839" stroke="#E8EDFF" stroke-linecap="round"/>
<path d="M53.2617 105.763C33.3868 128.721 47.8671 132.64 41.9046 143.839" stroke="#6672F8" stroke-linecap="round"/>
<path d="M83.2915 98.948L83.2922 98.9484L83.2915 98.948ZM83.2915 98.948L83.2858 98.9453L83.2915 98.948ZM68.3503 108.869L82.5442 99.4018C81.7365 101.386 81.5912 103.335 81.8765 105.478C81.1559 105.883 80.3353 106.362 79.4817 106.86L79.3877 106.915C78.3765 107.505 77.3207 108.12 76.3194 108.679C75.3167 109.239 74.378 109.736 73.6008 110.093C73.212 110.271 72.8717 110.411 72.5893 110.505C72.2971 110.602 72.1045 110.637 71.9974 110.637C71.084 110.637 70.3601 110.428 69.7365 110.063C69.2375 109.771 68.7873 109.371 68.3503 108.869Z" fill="#FACF35" stroke="#FACF35"/>
<path d="M85.3739 89.6983L85.3733 89.6974C85.056 89.2145 84.3746 89.0632 83.882 89.3865C83.8817 89.3867 83.8814 89.3869 83.8812 89.387L71.7792 97.2801C71.2084 97.6524 70.4889 97.5776 70.0782 97.1189C69.533 96.51 69.6965 95.5126 70.454 95.0457L96.2746 79.1292C97.0942 78.624 98.1083 78.64 98.862 79.1904C100.45 80.3499 102.986 82.3635 105.12 84.787C107.27 87.228 108.932 89.996 108.932 92.6719C108.932 96.2788 107.733 100.077 106.485 103.048C105.292 105.887 104.073 107.929 103.871 108.265C103.863 108.28 103.856 108.291 103.851 108.3L103.851 108.3L103.845 108.31L99.2424 116.541C98.7913 117.348 97.8227 117.496 97.3009 116.956C96.6096 116.24 96.1452 115.472 95.9693 114.655C95.7953 113.846 95.8937 112.942 96.4056 111.926C96.6605 111.422 96.9508 110.898 97.2553 110.348C97.3104 110.248 97.3661 110.148 97.422 110.046C97.7844 109.39 98.1583 108.702 98.4935 107.997C99.1608 106.595 99.699 105.081 99.6819 103.547C99.6568 101.307 98.4236 99.4977 96.2894 98.462L96.2888 98.4617C94.4246 97.5602 92.3606 97.723 90.6632 98.9053L90.663 98.9055C88.7184 100.262 87.7836 102.241 88.1086 104.458C88.3134 105.859 89.0202 107.179 89.8225 108.385C90.2258 108.991 90.6614 109.58 91.0809 110.142C91.1175 110.191 91.154 110.24 91.1904 110.289C91.5729 110.801 91.9374 111.289 92.26 111.762C93.2623 113.235 92.777 114.785 91.6944 116.201C91.222 116.819 90.2139 116.773 89.6777 115.996C88.4289 114.186 86.5726 111.512 85.614 110.206C84.1756 108.248 83.4084 105.146 83.8979 102.39L83.8979 102.39C84.3875 99.6325 85.9165 97.2351 88.206 95.6362L88.2361 95.6152L88.2629 95.5899L88.3666 95.492L88.3911 95.4689L88.4123 95.4427L88.4657 95.3765L88.5199 95.3095L88.5485 95.2282L88.6289 94.9997L88.6499 94.9402L88.6554 94.8773L88.6628 94.7926L88.6688 94.7244L88.6561 94.657L88.6186 94.4565L88.6066 94.3924L88.5785 94.3335L88.5468 94.2669L88.5188 94.2081L88.4767 94.1585L88.3174 93.9707L88.2635 93.9071L88.1919 93.8644L88.0755 93.7951L88.0542 93.7824L88.0317 93.7719C87.9213 93.7202 87.7914 93.6852 87.6572 93.6802C87.5276 93.6731 87.4193 93.6916 87.3473 93.7044L87.2873 93.7151L87.2317 93.7399L87.0534 93.8193L87.0146 93.8365L86.9793 93.86L70.363 104.939C69.9669 105.203 69.5217 105.251 69.1854 105.075C68.7326 104.838 68.3149 104.537 67.9221 104.188C67.3456 103.677 67.4444 102.684 68.217 102.18L85.062 91.1907L85.0628 91.1902C85.5594 90.8647 85.699 90.1952 85.3739 89.6983Z" fill="#FACF35" stroke="#FACF35"/>
<path d="M115.722 110.857C115.855 129.991 125.819 140.817 130.785 143.839C133.433 130.621 119.529 89.0787 118.371 83.0362C117.212 76.9938 115.557 86.9387 115.722 110.857Z" fill="#E8EDFF"/>
<path d="M123.645 91.4632C122.282 115.146 127.28 136.248 129.949 143.839C136.253 143.839 132.334 131.188 135.401 120.434C138.468 109.681 127.223 95.638 128.756 68.1852C130.29 40.7324 125.349 61.8596 123.645 91.4632Z" fill="#6672F8" stroke="#6672F8"/>
<path d="M141.257 87.7951C143.143 114.686 135.708 142.991 131.537 143.914C125.104 143.576 136.76 88.5745 137.067 74.4966C137.375 60.4187 139.371 60.9046 141.257 87.7951Z" fill="#E8EDFF"/>
<path d="M150.434 98.1945C142.322 133.355 139.032 143.026 133.983 143.535C129.9 142.287 136.227 129.302 141.363 114.721C144.975 104.464 144.525 93.9242 150.163 85.6562C155.802 77.3881 158.546 63.0338 150.434 98.1945Z" stroke="#6672F8"/>
<path fill-rule="evenodd" clip-rule="evenodd" d="M172.215 144.832V94.2557C172.215 51.5367 137.584 16.906 94.8654 16.906C52.1463 16.906 17.5156 51.5367 17.5156 94.2558V144.832H16.5156V94.2558C16.5156 50.9844 51.594 15.906 94.8654 15.906C138.137 15.906 173.215 50.9844 173.215 94.2557V144.832H172.215Z" fill="#6672F8"/>
<path d="M153.549 120.077C153.413 119.913 153.313 119.889 153.204 119.907L153.204 119.907C153.093 119.927 152.882 120.05 152.612 120.484C152.354 120.897 152.101 121.501 151.864 122.273C151.391 123.814 151.011 125.93 150.756 128.299C150.278 132.739 150.25 137.975 150.84 141.819C150.895 142.091 150.939 142.353 150.973 142.605L149.986 142.763C149.939 142.511 149.896 142.254 149.855 141.99C149.228 138.879 147.192 134.385 145.136 130.802C144.026 128.867 142.932 127.237 142.084 126.263C141.692 125.813 141.394 125.553 141.202 125.442C140.054 128.44 140.797 131.717 142.531 134.705C142.585 134.798 142.639 134.891 142.692 134.983C144.072 137.36 145.271 139.426 146.595 140.924C147.954 142.462 149.392 143.339 151.229 143.339C156.802 143.339 160.377 139.368 162.475 135.019C163.519 132.854 164.179 130.629 164.521 128.833C164.692 127.936 164.782 127.154 164.804 126.548C164.814 126.245 164.807 125.993 164.787 125.797C164.784 125.762 164.78 125.731 164.775 125.701C164.756 125.711 164.736 125.723 164.714 125.736C164.419 125.906 164.003 126.239 163.486 126.73C162.462 127.703 161.131 129.209 159.722 130.998C156.9 134.58 153.82 139.223 152.288 142.865L151.36 142.492C153.726 136.342 154.733 129.942 154.34 123.586L154.34 123.585C154.296 122.856 154.199 121.811 153.962 120.988C153.842 120.571 153.7 120.262 153.549 120.077ZM141.086 125.391C141.086 125.391 141.087 125.391 141.089 125.391C141.087 125.391 141.086 125.391 141.086 125.391ZM141.246 125.317C141.247 125.316 141.247 125.315 141.247 125.315C141.247 125.315 141.247 125.316 141.246 125.317Z" fill="#FCA081" stroke="#FCA081"/>
<ellipse cx="94.5081" cy="11.953" rx="3.95343" ry="3.95298" fill="#6672F8"/>
<path d="M100.523 130.266C100.523 133.448 97.9433 136.302 94.7614 136.302C91.5795 136.302 89 133.448 89 130.266C89 130.266 91.3051 130.266 94.487 130.266C97.6689 130.266 100.523 130.266 100.523 130.266Z" fill="#B3BFFF"/>
<path d="M94.7614 116C94.0412 119.658 89 126.974 89 130.266H100.523C100.523 126.425 95.4815 119.658 94.7614 116Z" fill="#B3BFFF"/>
<path d="M78.6491 122.096C78.6491 123.289 77.6819 124.359 76.4886 124.359C75.2954 124.359 74.3281 123.289 74.3281 122.096C74.3281 122.096 75.1925 122.096 76.3858 122.096C77.579 122.096 78.6491 122.096 78.6491 122.096Z" fill="#6A6AF4"/>
<path d="M76.4886 116.746C76.2186 118.118 74.3281 120.861 74.3281 122.096H78.6491C78.6491 120.656 76.7587 118.118 76.4886 116.746Z" fill="#6A6AF4"/>
<path d="M107.321 137.35C107.321 138.543 106.354 139.613 105.161 139.613C103.967 139.613 103 138.543 103 137.35C103 137.35 103.864 137.35 105.058 137.35C106.251 137.35 107.321 137.35 107.321 137.35Z" fill="#6A6AF4"/>
<path d="M105.161 132C104.89 133.372 103 136.115 103 137.35H107.321C107.321 135.909 105.431 133.372 105.161 132Z" fill="#6A6AF4"/>
<path d="M100.243 144C100.243 147.037 97.5022 149.761 94.1214 149.761C90.7407 149.761 88 147.037 88 144C88 144 90.4492 144 93.83 144C97.2107 144 100.243 144 100.243 144Z" fill="#B3BFFF"/>
</svg>
