<svg width="268" height="239" viewBox="0 0 268 239" fill="none" xmlns="http://www.w3.org/2000/svg">
<path fill-rule="evenodd" clip-rule="evenodd" d="M135.692 159.604C135.692 159.604 135.692 159.604 135.692 159.604V159.604C135.693 159.604 135.693 159.605 135.693 159.605V183.086C135.693 184.19 134.798 185.086 133.693 185.086H92.0281C90.9236 185.086 90.0281 184.19 90.0281 183.086V160.55C90.0281 160.028 90.4514 159.604 90.9736 159.604V159.604C91.1877 159.604 91.3954 159.532 91.5628 159.398L132.446 126.828C133.756 125.784 135.692 126.717 135.692 128.392V159.604Z" fill="#6470F4"/>
<path d="M101.459 160.092C99.218 164.072 104.341 166.962 106.173 169.168C111.208 175.23 100.033 185.62 91.413 184.903C82.7928 184.185 79.2956 171.312 85.1606 159.365C87.5224 154.555 87.6903 153.108 84.5606 143.375C81.4309 133.642 93.7464 132.266 95.9862 123.783C98.2295 115.287 91.6378 106.493 98.756 98.4208C103.574 92.9577 111.187 101.831 112.304 106.114C116.064 120.528 102.505 125.324 105.966 131.073C109.264 135.818 115.279 139.891 113.515 147.01C112.203 152.309 104.175 155.268 101.459 160.092Z" fill="#1EBA8D"/>
<path fill-rule="evenodd" clip-rule="evenodd" d="M215 159.604C215 159.604 215 159.604 215 159.604V159.604C215 159.604 215.001 159.605 215.001 159.605V183.086C215.001 184.19 214.105 185.086 213.001 185.086H171.336C170.231 185.086 169.336 184.19 169.336 183.086V160.55C169.336 160.028 169.759 159.604 170.281 159.604V159.604C170.495 159.604 170.703 159.532 170.87 159.398L211.753 126.828C213.063 125.784 215 126.717 215 128.392V159.604Z" fill="#6470F4"/>
<path fill-rule="evenodd" clip-rule="evenodd" d="M175.472 159.604C175.472 159.604 175.473 159.604 175.473 159.604V159.604C175.473 159.604 175.474 159.605 175.474 159.605V183.086C175.474 184.19 174.578 185.086 173.474 185.086H131.809C130.704 185.086 129.809 184.19 129.809 183.086V160.55C129.809 160.028 130.232 159.604 130.754 159.604V159.604C130.968 159.604 131.176 159.532 131.343 159.398L172.226 126.828C173.536 125.784 175.472 126.717 175.472 128.392V159.604Z" fill="#6470F4"/>
<path d="M68.0232 45.8715C68.3706 43.6097 71.6294 43.6097 71.9768 45.8715L93.0289 182.946C93.2149 184.158 92.2776 185.25 91.0521 185.25H48.9479C47.7224 185.25 46.7851 184.158 46.9711 182.946L68.0232 45.8715Z" fill="#FCA081"/>
<path d="M145.165 106.003C142.941 106.003 141.138 104.214 141.138 102.007C141.138 99.7998 142.941 98.0107 145.165 98.0107C147.388 98.0107 149.191 99.7998 149.191 102.007C149.191 104.214 147.388 106.003 145.165 106.003Z" fill="#6672F8"/>
<path d="M158.181 139.579C157.451 135.069 157.124 130.708 158.306 127.693C159.313 125.101 161.502 123.65 164.145 122.661L187.43 115.183C190.45 114.184 193.271 112.511 193.47 109.204C193.721 104.959 189.947 102.211 186.172 103.21C186.172 103.21 164.027 110.988 145.153 110.988C126.279 110.988 104.385 103.245 104.385 103.245C99.8555 101.997 96.8356 105.493 96.8356 109.187C96.8356 112.736 99.6038 113.985 102.875 115.166L125.021 123.136C127.034 123.885 130.305 125.383 131.564 127.676C133.073 130.361 132.822 135.051 132.092 139.562L130.607 146.962L121.193 187.896C120.488 191.18 122.778 194.25 126.075 194.824C129.372 195.398 132.067 193.166 133.043 189.989L142.495 161.035C142.95 159.647 143.353 158.242 143.703 156.822L145.153 150.958L146.486 156.365C146.909 158.088 147.396 159.793 147.946 161.48L157.232 189.964C158.239 193.173 160.881 195.396 164.178 194.824C167.474 194.252 169.814 190.93 169.075 187.896L159.665 146.979L158.181 139.579Z" fill="#000091"/>
<mask id="path-8-inside-1_5895_98659" fill="white">
<ellipse cx="173.742" cy="45.0599" rx="2.51899" ry="2.50153"/>
</mask>
<path d="M172.411 45.0599C172.411 44.2899 173.032 43.7114 173.742 43.7114V51.4114C177.234 51.4114 180.111 48.5929 180.111 45.0599H172.411ZM173.742 43.7114C174.452 43.7114 175.073 44.2899 175.073 45.0599H167.373C167.373 48.5929 170.25 51.4114 173.742 51.4114V43.7114ZM175.073 45.0599C175.073 45.8298 174.452 46.4083 173.742 46.4083V38.7083C170.25 38.7083 167.373 41.5268 167.373 45.0599H175.073ZM173.742 46.4083C173.032 46.4083 172.411 45.8298 172.411 45.0599H180.111C180.111 41.5268 177.234 38.7083 173.742 38.7083V46.4083Z" fill="#FACF35" mask="url(#path-8-inside-1_5895_98659)"/>
<ellipse cx="66.9568" cy="59.6788" rx="1.08297" ry="1.07479" fill="#000091"/>
<ellipse cx="125.981" cy="26.8975" rx="1.08297" ry="1.07479" fill="#000091"/>
<path d="M109.802 63.247C109.802 64.6187 108.689 65.7316 107.314 65.7316C105.94 65.7316 104.826 64.6187 104.826 63.247C104.826 61.8753 105.94 60.7624 107.314 60.7624C108.689 60.7624 109.802 61.8753 109.802 63.247Z" stroke="white"/>
<mask id="path-13-inside-2_5895_98659" fill="white">
<path fill-rule="evenodd" clip-rule="evenodd" d="M101.16 39.5542C101.158 39.5592 101.157 39.5642 101.155 39.5692L101.144 39.6016C101.168 39.6092 101.191 39.6169 101.215 39.6248C103.853 40.506 105.273 43.3394 104.399 45.965C104.421 45.972 104.442 45.9787 104.464 45.9853C104.472 45.9608 104.48 45.9363 104.489 45.9118C105.369 43.3222 108.161 41.9076 110.771 42.7L110.786 42.6511C108.191 41.7724 106.784 39.001 107.594 36.4076L107.574 36.4009C107.558 36.3958 107.543 36.3908 107.528 36.3859C106.631 38.9958 103.791 40.406 101.16 39.5542Z"/>
</mask>
<path fill-rule="evenodd" clip-rule="evenodd" d="M101.16 39.5542C101.158 39.5592 101.157 39.5642 101.155 39.5692L101.144 39.6016C101.168 39.6092 101.191 39.6169 101.215 39.6248C103.853 40.506 105.273 43.3394 104.399 45.965C104.421 45.972 104.442 45.9787 104.464 45.9853C104.472 45.9608 104.48 45.9363 104.489 45.9118C105.369 43.3222 108.161 41.9076 110.771 42.7L110.786 42.6511C108.191 41.7724 106.784 39.001 107.594 36.4076L107.574 36.4009C107.558 36.3958 107.543 36.3908 107.528 36.3859C106.631 38.9958 103.791 40.406 101.16 39.5542Z" fill="#FCA081"/>
<path d="M101.155 39.5692L100.207 39.2514L100.206 39.2545L101.155 39.5692ZM101.16 39.5542L101.472 38.6042L100.534 38.3003L100.213 39.2335L101.16 39.5542ZM101.144 39.6016L100.195 39.287L99.8721 40.2463L100.837 40.5532L101.144 39.6016ZM101.215 39.6248L100.894 40.5719L100.894 40.5719L101.215 39.6248ZM104.399 45.965L103.449 45.6535L103.13 46.6108L104.091 46.9166L104.399 45.965ZM104.464 45.9853L104.169 46.9408L105.113 47.2275L105.417 46.2888L104.464 45.9853ZM104.489 45.9118L103.54 45.5939L103.54 45.5939L104.489 45.9118ZM110.771 42.7L110.476 43.6555L111.425 43.9436L111.725 42.9987L110.771 42.7ZM110.786 42.6511L111.741 42.9497L112.037 42.0187L111.111 41.7053L110.786 42.6511ZM107.594 36.4076L108.549 36.7015L108.84 35.7717L107.917 35.4612L107.594 36.4076ZM107.574 36.4009L107.897 35.4544L107.895 35.4538L107.574 36.4009ZM107.528 36.3859L107.84 35.4359L106.901 35.1319L106.581 36.0651L107.528 36.3859ZM102.103 39.887C102.104 39.883 102.106 39.879 102.107 39.875L100.213 39.2335C100.211 39.2394 100.209 39.2454 100.207 39.2514L102.103 39.887ZM102.093 39.9163L102.104 39.8839L100.206 39.2545L100.195 39.287L102.093 39.9163ZM101.536 38.6777C101.508 38.6683 101.48 38.6591 101.451 38.6501L100.837 40.5532C100.856 40.5593 100.875 40.5655 100.894 40.5719L101.536 38.6777ZM105.349 46.2765C106.397 43.1262 104.693 39.7323 101.536 38.6777L100.894 40.5719C103.013 41.2798 104.148 43.5527 103.449 45.6535L105.349 46.2765ZM104.759 45.0298C104.741 45.0245 104.724 45.0191 104.706 45.0135L104.091 46.9166C104.117 46.9249 104.143 46.9329 104.169 46.9408L104.759 45.0298ZM103.54 45.5939C103.53 45.6232 103.521 45.6526 103.511 45.6819L105.417 46.2888C105.423 46.269 105.43 46.2493 105.437 46.2296L103.54 45.5939ZM111.065 41.7445C107.942 40.7962 104.597 42.4876 103.54 45.5939L105.437 46.2296C106.142 44.1568 108.379 43.0189 110.476 43.6555L111.065 41.7445ZM109.832 42.3524L109.816 42.4013L111.725 42.9987L111.741 42.9497L109.832 42.3524ZM106.638 36.1137C105.666 39.2257 107.356 42.5453 110.461 43.5969L111.111 41.7053C109.027 40.9996 107.901 38.7763 108.549 36.7015L106.638 36.1137ZM107.25 37.3473L107.271 37.3541L107.917 35.4612L107.897 35.4544L107.25 37.3473ZM107.216 37.3359C107.228 37.3398 107.24 37.3439 107.252 37.348L107.895 35.4538C107.876 35.4477 107.858 35.4417 107.84 35.4359L107.216 37.3359ZM106.581 36.0651C105.863 38.1542 103.586 39.2886 101.472 38.6042L100.848 40.5042C103.996 41.5234 107.399 39.8373 108.475 36.7066L106.581 36.0651Z" fill="#FCA081" mask="url(#path-13-inside-2_5895_98659)"/>
<mask id="path-15-inside-3_5895_98659" fill="white">
<path fill-rule="evenodd" clip-rule="evenodd" d="M145.667 7.11485C145.669 7.11985 145.671 7.12484 145.673 7.12984L145.684 7.16218C145.707 7.15365 145.731 7.14528 145.754 7.13706C148.38 6.22116 151.236 7.59469 152.151 10.2064C152.172 10.1985 152.193 10.1906 152.215 10.1825C152.206 10.1582 152.197 10.1338 152.189 10.1094C151.302 7.52179 152.645 4.69556 155.195 3.72627L155.178 3.67806C152.587 4.56974 149.778 3.23804 148.833 0.69084L148.813 0.69776C148.798 0.703051 148.783 0.708408 148.768 0.713829C149.654 3.32727 148.27 6.1799 145.667 7.11485Z"/>
</mask>
<path fill-rule="evenodd" clip-rule="evenodd" d="M145.667 7.11485C145.669 7.11985 145.671 7.12484 145.673 7.12984L145.684 7.16218C145.707 7.15365 145.731 7.14528 145.754 7.13706C148.38 6.22116 151.236 7.59469 152.151 10.2064C152.172 10.1985 152.193 10.1906 152.215 10.1825C152.206 10.1582 152.197 10.1338 152.189 10.1094C151.302 7.52179 152.645 4.69556 155.195 3.72627L155.178 3.67806C152.587 4.56974 149.778 3.23804 148.833 0.69084L148.813 0.69776C148.798 0.703051 148.783 0.708408 148.768 0.713829C149.654 3.32727 148.27 6.1799 145.667 7.11485Z" fill="#FCA081"/>
<path d="M145.673 7.12984L144.728 7.45819L144.729 7.46134L145.673 7.12984ZM145.667 7.11485L145.334 6.17224L144.405 6.50584L144.722 7.44028L145.667 7.11485ZM145.684 7.16218L144.74 7.49369L145.072 8.45016L146.022 8.10304L145.684 7.16218ZM145.754 7.13706L146.079 8.08278L146.079 8.08277L145.754 7.13706ZM152.151 10.2064L151.208 10.541L151.542 11.4932L152.489 11.1472L152.151 10.2064ZM152.215 10.1825L152.566 11.1187L153.488 10.7682L153.154 9.83986L152.215 10.1825ZM152.189 10.1094L151.244 10.4377L151.244 10.4377L152.189 10.1094ZM155.195 3.72627L155.546 4.6625L156.473 4.31015L156.133 3.37888L155.195 3.72627ZM155.178 3.67806L156.115 3.33068L155.78 2.41303L154.856 2.73101L155.178 3.67806ZM148.833 0.69084L149.769 0.33877L149.43 -0.574472L148.51 -0.255543L148.833 0.69084ZM148.813 0.69776L148.49 -0.248625L148.488 -0.247954L148.813 0.69776ZM148.768 0.713829L148.434 -0.228782L147.505 0.104816L147.822 1.03926L148.768 0.713829ZM146.617 6.80148C146.616 6.79746 146.614 6.79344 146.613 6.78942L144.722 7.44028C144.724 7.44625 144.726 7.45222 144.728 7.45819L146.617 6.80148ZM146.627 6.83067L146.616 6.79833L144.729 7.46134L144.74 7.49369L146.627 6.83067ZM145.429 6.19135C145.401 6.20116 145.373 6.21115 145.345 6.22132L146.022 8.10304C146.041 8.09615 146.06 8.0894 146.079 8.08278L145.429 6.19135ZM153.093 9.87171C151.996 6.73808 148.571 5.09526 145.429 6.19135L146.079 8.08277C148.189 7.34706 150.476 8.4513 151.208 10.541L153.093 9.87171ZM151.863 9.24626C151.846 9.25278 151.829 9.25919 151.812 9.2655L152.489 11.1472C152.515 11.1379 152.54 11.1284 152.566 11.1187L151.863 9.24626ZM151.244 10.4377C151.254 10.467 151.265 10.4961 151.275 10.5251L153.154 9.83986C153.147 9.8203 153.14 9.80067 153.133 9.78099L151.244 10.4377ZM154.844 2.79003C151.793 3.94994 150.181 7.33378 151.244 10.4377L153.133 9.781C152.424 7.70981 153.498 5.44118 155.546 4.6625L154.844 2.79003ZM154.24 4.02545L154.257 4.07365L156.133 3.37888L156.115 3.33068L154.24 4.02545ZM147.897 1.04291C149.031 4.09949 152.399 5.69229 155.499 4.62511L154.856 2.73101C152.776 3.44719 150.525 2.3766 149.769 0.33877L147.897 1.04291ZM149.136 1.64414L149.156 1.63722L148.51 -0.255543L148.49 -0.248623L149.136 1.64414ZM149.102 1.65644C149.114 1.65206 149.126 1.64774 149.138 1.64347L148.488 -0.247954C148.47 -0.241633 148.452 -0.235242 148.434 -0.228782L149.102 1.65644ZM147.822 1.03926C148.532 3.1312 147.424 5.42103 145.334 6.17224L146.001 8.05746C149.115 6.93877 150.777 3.52334 149.713 0.388397L147.822 1.03926Z" fill="#FCA081" mask="url(#path-15-inside-3_5895_98659)"/>
<mask id="path-17-inside-4_5895_98659" fill="white">
<path fill-rule="evenodd" clip-rule="evenodd" d="M232.667 96.1149C232.669 96.1198 232.671 96.1248 232.673 96.1298L232.684 96.1622C232.707 96.1537 232.731 96.1453 232.754 96.1371C235.38 95.2212 238.236 96.5947 239.151 99.2064C239.172 99.1985 239.193 99.1906 239.215 99.1825C239.206 99.1582 239.197 99.1338 239.189 99.1094C238.302 96.5218 239.645 93.6956 242.195 92.7263L242.178 92.6781C239.587 93.5697 236.778 92.238 235.833 89.6908L235.813 89.6978C235.798 89.7031 235.783 89.7084 235.768 89.7138C236.654 92.3273 235.27 95.1799 232.667 96.1149Z"/>
</mask>
<path fill-rule="evenodd" clip-rule="evenodd" d="M232.667 96.1149C232.669 96.1198 232.671 96.1248 232.673 96.1298L232.684 96.1622C232.707 96.1537 232.731 96.1453 232.754 96.1371C235.38 95.2212 238.236 96.5947 239.151 99.2064C239.172 99.1985 239.193 99.1906 239.215 99.1825C239.206 99.1582 239.197 99.1338 239.189 99.1094C238.302 96.5218 239.645 93.6956 242.195 92.7263L242.178 92.6781C239.587 93.5697 236.778 92.238 235.833 89.6908L235.813 89.6978C235.798 89.7031 235.783 89.7084 235.768 89.7138C236.654 92.3273 235.27 95.1799 232.667 96.1149Z" fill="#FCA081"/>
<path d="M232.673 96.1298L231.728 96.4582L231.729 96.4613L232.673 96.1298ZM232.667 96.1149L232.334 95.1722L231.405 95.5058L231.722 96.4403L232.667 96.1149ZM232.684 96.1622L231.74 96.4937L232.072 97.4502L233.022 97.103L232.684 96.1622ZM232.754 96.1371L233.079 97.0828L233.079 97.0828L232.754 96.1371ZM239.151 99.2064L238.208 99.541L238.542 100.493L239.489 100.147L239.151 99.2064ZM239.215 99.1825L239.566 100.119L240.488 99.7682L240.154 98.8399L239.215 99.1825ZM239.189 99.1094L238.244 99.4377L238.244 99.4377L239.189 99.1094ZM242.195 92.7263L242.546 93.6625L243.473 93.3101L243.133 92.3789L242.195 92.7263ZM242.178 92.6781L243.115 92.3307L242.78 91.413L241.856 91.731L242.178 92.6781ZM235.833 89.6908L236.769 89.3388L236.43 88.4255L235.51 88.7445L235.833 89.6908ZM235.813 89.6978L235.49 88.7514L235.488 88.752L235.813 89.6978ZM235.768 89.7138L235.434 88.7712L234.505 89.1048L234.822 90.0393L235.768 89.7138ZM233.617 95.8015C233.616 95.7975 233.614 95.7934 233.613 95.7894L231.722 96.4403C231.724 96.4463 231.726 96.4522 231.728 96.4582L233.617 95.8015ZM233.627 95.8307L233.616 95.7983L231.729 96.4613L231.74 96.4937L233.627 95.8307ZM232.429 95.1913C232.401 95.2012 232.373 95.2111 232.345 95.2213L233.022 97.103C233.041 97.0962 233.06 97.0894 233.079 97.0828L232.429 95.1913ZM240.093 98.8717C238.996 95.7381 235.571 94.0953 232.429 95.1913L233.079 97.0828C235.189 96.3471 237.476 97.4513 238.208 99.541L240.093 98.8717ZM238.863 98.2463C238.846 98.2528 238.829 98.2592 238.812 98.2655L239.489 100.147C239.515 100.138 239.54 100.128 239.566 100.119L238.863 98.2463ZM238.244 99.4377C238.254 99.467 238.265 99.4961 238.275 99.5251L240.154 98.8399C240.147 98.8203 240.14 98.8007 240.133 98.781L238.244 99.4377ZM241.844 91.79C238.793 92.9499 237.181 96.3338 238.244 99.4377L240.133 98.781C239.424 96.7098 240.498 94.4412 242.546 93.6625L241.844 91.79ZM241.24 93.0254L241.257 93.0737L243.133 92.3789L243.115 92.3307L241.24 93.0254ZM234.897 90.0429C236.031 93.0995 239.399 94.6923 242.499 93.6251L241.856 91.731C239.776 92.4472 237.525 91.3766 236.769 89.3388L234.897 90.0429ZM236.136 90.6441L236.156 90.6372L235.51 88.7445L235.49 88.7514L236.136 90.6441ZM236.102 90.6564C236.114 90.6521 236.126 90.6477 236.138 90.6435L235.488 88.752C235.47 88.7584 235.452 88.7648 235.434 88.7712L236.102 90.6564ZM234.822 90.0393C235.532 92.1312 234.424 94.421 232.334 95.1722L233.001 97.0575C236.115 95.9388 237.777 92.5233 236.713 89.3884L234.822 90.0393Z" fill="#FCA081" mask="url(#path-17-inside-4_5895_98659)"/>
<mask id="path-19-inside-5_5895_98659" fill="white">
<path fill-rule="evenodd" clip-rule="evenodd" d="M157.496 37.2408C159.889 35.9775 162.865 36.8189 164.227 39.1818C164.239 39.2025 164.251 39.2232 164.262 39.244L164.285 39.2306L164.27 39.2049C162.904 36.8342 163.667 33.8096 165.966 32.3571C163.579 33.617 160.613 32.7838 159.246 30.4357C159.238 30.44 159.231 30.4444 159.223 30.4487C160.546 32.8109 159.777 35.7997 157.496 37.2408Z"/>
</mask>
<path d="M164.227 39.1818L163.362 39.6837L163.362 39.6837L164.227 39.1818ZM157.496 37.2408L156.964 36.3941L157.96 38.1266L157.496 37.2408ZM164.262 39.244L163.39 39.7338L163.888 40.6246L164.767 40.1073L164.262 39.244ZM164.285 39.2306L164.79 40.0939L165.649 39.5884L165.149 38.7262L164.285 39.2306ZM164.27 39.2049L163.405 39.7067L163.407 39.7092L164.27 39.2049ZM165.966 32.3571L166.497 33.2039L165.501 31.4714L165.966 32.3571ZM159.246 30.4357L160.109 29.9301L159.614 29.0806L158.758 29.563L159.246 30.4357ZM159.223 30.4487L158.73 29.5785L157.866 30.0714L158.352 30.9398L159.223 30.4487ZM165.092 38.68C163.46 35.8488 159.896 34.8429 157.032 36.3551L157.96 38.1266C159.882 37.1121 162.27 37.7889 163.362 39.6837L165.092 38.68ZM165.134 38.7542C165.12 38.7294 165.106 38.7047 165.092 38.68L163.362 39.6837C163.372 39.7004 163.381 39.7171 163.39 39.7338L165.134 38.7542ZM163.78 38.3673L163.758 38.3807L164.767 40.1073L164.79 40.0939L163.78 38.3673ZM163.407 39.7092L163.422 39.7349L165.149 38.7262L165.134 38.7005L163.407 39.7092ZM165.434 31.5104C162.684 33.2482 161.769 36.8673 163.405 39.7067L165.135 38.703C164.039 36.8011 164.651 34.371 166.497 33.2039L165.434 31.5104ZM158.383 30.9414C160.021 33.7547 163.573 34.7509 166.43 33.2429L165.501 31.4714C163.585 32.4831 161.205 31.8129 160.109 29.9301L158.383 30.9414ZM159.716 31.3189C159.722 31.3154 159.728 31.3119 159.734 31.3085L158.758 29.563C158.749 29.5682 158.739 29.5734 158.73 29.5785L159.716 31.3189ZM158.352 30.9398C159.413 32.8347 158.797 35.2361 156.964 36.3941L158.028 38.0876C160.756 36.3633 161.679 32.787 160.094 29.9577L158.352 30.9398Z" fill="#1EBE8E" mask="url(#path-19-inside-5_5895_98659)"/>
<mask id="path-21-inside-6_5895_98659" fill="white">
<path fill-rule="evenodd" clip-rule="evenodd" d="M72.6176 32.8703C72.6193 32.8744 72.621 32.8785 72.6227 32.8825C74.2383 32.2083 76.1043 32.9606 76.7956 34.5677C76.8019 34.5824 76.8081 34.5971 76.8142 34.6118L76.8272 34.6064L76.8426 34.5998C76.1532 32.9941 76.8965 31.1416 78.5038 30.4529L78.5029 30.4507L78.4983 30.4402C76.8993 31.0729 75.0727 30.3242 74.3858 28.7428C74.3762 28.7466 74.3666 28.7505 74.357 28.7544C75.0089 30.3526 74.2574 32.1779 72.6577 32.8537C72.6443 32.8593 72.631 32.8648 72.6176 32.8703Z"/>
</mask>
<path fill-rule="evenodd" clip-rule="evenodd" d="M72.6176 32.8703C72.6193 32.8744 72.621 32.8785 72.6227 32.8825C74.2383 32.2083 76.1043 32.9606 76.7956 34.5677C76.8019 34.5824 76.8081 34.5971 76.8142 34.6118L76.8272 34.6064L76.8426 34.5998C76.1532 32.9941 76.8965 31.1416 78.5038 30.4529L78.5029 30.4507L78.4983 30.4402C76.8993 31.0729 75.0727 30.3242 74.3858 28.7428C74.3762 28.7466 74.3666 28.7505 74.357 28.7544C75.0089 30.3526 74.2574 32.1779 72.6577 32.8537C72.6443 32.8593 72.631 32.8648 72.6176 32.8703Z" fill="#6672F8"/>
<path d="M72.6227 32.8825L71.6962 33.2591L72.0813 34.1921L73.0128 33.8033L72.6227 32.8825ZM72.6176 32.8703L72.2358 31.946L71.3136 32.3212L71.6896 33.243L72.6176 32.8703ZM76.7956 34.5677L77.7163 34.1775L77.7163 34.1775L76.7956 34.5677ZM76.8142 34.6118L75.8878 34.9884L76.2737 35.9234L77.2063 35.5318L76.8142 34.6118ZM76.8272 34.6064L77.2193 35.5263L77.2236 35.5245L76.8272 34.6064ZM76.8426 34.5998L77.239 35.518L78.1572 35.1273L77.7635 34.2103L76.8426 34.5998ZM78.5038 30.4529L78.9026 31.37L79.8178 30.9779L79.4246 30.063L78.5038 30.4529ZM78.5029 30.4507L79.4237 30.0608L79.4228 30.0589L78.5029 30.4507ZM78.4983 30.4402L79.4183 30.0484L79.0316 29.1538L78.1254 29.5124L78.4983 30.4402ZM74.3858 28.7428L75.3051 28.3494L74.9175 27.4571L74.0129 27.815L74.3858 28.7428ZM74.357 28.7544L73.9752 27.8302L73.053 28.2053L73.429 29.1271L74.357 28.7544ZM72.6577 32.8537L72.2636 31.9345L72.2636 31.9345L72.6577 32.8537ZM73.5491 32.506C73.5479 32.5032 73.5468 32.5003 73.5456 32.4975L71.6896 33.243C71.6918 33.2484 71.694 33.2537 71.6962 33.2591L73.5491 32.506ZM77.7163 34.1775C76.8068 32.0633 74.3541 31.0764 72.2326 31.9618L73.0128 33.8033C74.1225 33.3402 75.4017 33.8579 75.8749 34.9579L77.7163 34.1775ZM77.7406 34.2353C77.7327 34.216 77.7245 34.1967 77.7163 34.1775L75.8749 34.9579C75.8793 34.968 75.8836 34.9782 75.8878 34.9884L77.7406 34.2353ZM76.4351 33.6864L76.4221 33.6919L77.2063 35.5318L77.2193 35.5263L76.4351 33.6864ZM76.4461 33.6817L76.4308 33.6883L77.2236 35.5245L77.239 35.518L76.4461 33.6817ZM78.105 29.5358C75.9935 30.4405 75.0143 32.876 75.9216 34.9894L77.7635 34.2103C77.2921 33.1121 77.7995 31.8426 78.9026 31.37L78.105 29.5358ZM77.582 30.8405L77.583 30.8427L79.4246 30.063L79.4237 30.0608L77.582 30.8405ZM77.5783 30.832L77.5829 30.8425L79.4228 30.0589L79.4183 30.0484L77.5783 30.832ZM73.4665 29.1363C74.3703 31.2169 76.7711 32.199 78.8712 31.368L78.1254 29.5124C77.0275 29.9468 75.7752 29.4316 75.3051 28.3494L73.4665 29.1363ZM74.7388 29.6786C74.7454 29.6759 74.752 29.6732 74.7587 29.6706L74.0129 27.815C74.0003 27.82 73.9878 27.8251 73.9752 27.8302L74.7388 29.6786ZM73.429 29.1271C73.8747 30.2198 73.3615 31.4707 72.2636 31.9345L73.0518 33.7728C75.1533 32.885 76.1431 30.4853 75.285 28.3816L73.429 29.1271ZM72.2636 31.9345C72.2543 31.9384 72.2451 31.9423 72.2358 31.946L72.9994 33.7945C73.0169 33.7874 73.0343 33.7801 73.0518 33.7728L72.2636 31.9345Z" fill="#6672F8" mask="url(#path-21-inside-6_5895_98659)"/>
<mask id="path-23-inside-7_5895_98659" fill="white">
<path fill-rule="evenodd" clip-rule="evenodd" d="M39 85.1496C39 85.1497 39 85.1498 39 85.1499L39.0261 85.1497C39.0174 85.1497 39.0087 85.1497 39 85.1496ZM39.0388 85.1497C40.797 85.1543 42.2219 86.5669 42.2309 88.3121C42.2399 86.5741 43.653 85.1661 45.401 85.1499L45.401 85.1496C43.6572 85.1334 42.2467 83.7322 42.231 82L42.2308 82C42.215 83.7394 40.7927 85.1452 39.0388 85.1497ZM42.231 88.3578L42.2308 88.3578L42.2309 88.3418L42.231 88.3578Z"/>
</mask>
<path fill-rule="evenodd" clip-rule="evenodd" d="M39 85.1496C39 85.1497 39 85.1498 39 85.1499L39.0261 85.1497C39.0174 85.1497 39.0087 85.1497 39 85.1496ZM39.0388 85.1497C40.797 85.1543 42.2219 86.5669 42.2309 88.3121C42.2399 86.5741 43.653 85.1661 45.401 85.1499L45.401 85.1496C43.6572 85.1334 42.2467 83.7322 42.231 82L42.2308 82C42.215 83.7394 40.7927 85.1452 39.0388 85.1497ZM42.231 88.3578L42.2308 88.3578L42.2309 88.3418L42.231 88.3578Z" fill="#FCA081"/>
<path d="M39 85.1499L38 85.1409L37.9909 86.1545L39.0046 86.1499L39 85.1499ZM39 85.1496L39.0092 84.1496L38.0091 84.1404L38 85.1405L39 85.1496ZM39.0261 85.1497L39.0307 86.1497L39.0274 84.1497L39.0261 85.1497ZM42.2309 88.3121L41.2309 88.3173L43.2309 88.3173L42.2309 88.3121ZM39.0388 85.1497L39.0363 84.1497L39.0363 86.1497L39.0388 85.1497ZM45.401 85.1499L45.4103 86.1498L46.4119 86.1405L46.4009 85.1389L45.401 85.1499ZM45.401 85.1496L46.4009 85.1386L46.3902 84.1587L45.4103 84.1496L45.401 85.1496ZM42.231 82L43.2309 81.9909L43.222 81.0046L42.2356 81L42.231 82ZM42.2308 82L42.2354 81L41.2399 80.9954L41.2308 81.9909L42.2308 82ZM42.2308 88.3578L41.2308 88.3513L41.2242 89.3632L42.2362 89.3578L42.2308 88.3578ZM42.231 88.3578L42.2364 89.3578L43.2355 89.3524L43.231 88.3532L42.231 88.3578ZM42.2309 88.3418L43.2309 88.3372L41.2309 88.3353L42.2309 88.3418ZM40 85.1589L40 85.1587L38 85.1405L38 85.1409L40 85.1589ZM39.0215 84.1498L38.9954 84.1499L39.0046 86.1499L39.0307 86.1497L39.0215 84.1498ZM39.0274 84.1497C39.0213 84.1497 39.0153 84.1497 39.0092 84.1496L38.9908 86.1496C39.0021 86.1497 39.0135 86.1497 39.0248 86.1497L39.0274 84.1497ZM43.2309 88.3069C43.219 86.0063 41.3427 84.1557 39.0414 84.1497L39.0363 86.1497C40.2513 86.1529 41.2248 87.1274 41.2309 88.3173L43.2309 88.3069ZM45.3917 84.1499C43.1035 84.1711 41.2427 86.0158 41.2309 88.3069L43.2309 88.3173C43.237 87.1324 44.2024 86.161 45.4103 86.1498L45.3917 84.1499ZM44.4011 85.1606L44.4011 85.1608L46.4009 85.1389L46.4009 85.1386L44.4011 85.1606ZM41.231 82.0091C41.2518 84.2926 43.1091 86.1284 45.3917 86.1496L45.4103 84.1496C44.2053 84.1385 43.2417 83.1718 43.2309 81.9909L41.231 82.0091ZM42.2262 83L42.2264 83L42.2356 81L42.2354 81L42.2262 83ZM41.2308 81.9909C41.2201 83.1767 40.2483 84.1466 39.0363 84.1497L39.0414 86.1497C41.3371 86.1438 43.2099 84.3021 43.2308 82.0091L41.2308 81.9909ZM42.2362 89.3578L42.2364 89.3578L42.2256 87.3578L42.2254 87.3578L42.2362 89.3578ZM41.2309 88.3353L41.2308 88.3513L43.2308 88.3643L43.2309 88.3483L41.2309 88.3353ZM43.231 88.3532L43.2309 88.3372L41.2309 88.3464L41.231 88.3624L43.231 88.3532Z" fill="#FCA081" mask="url(#path-23-inside-7_5895_98659)"/>
<mask id="path-25-inside-8_5895_98659" fill="white">
<path fill-rule="evenodd" clip-rule="evenodd" d="M83.1436 79.4769C83.1471 79.4942 83.1507 79.5115 83.1544 79.5289C84.875 79.161 86.5795 80.2357 86.9736 81.9456C86.977 81.9603 86.9803 81.9751 86.9835 81.9899L87.0235 81.9811L87.0384 81.9777C86.667 80.2725 87.7402 78.5842 89.4528 78.1874L89.4442 78.149L89.4408 78.1346C87.7457 78.464 86.081 77.4016 85.6853 75.72C85.6666 75.7236 85.648 75.7274 85.6293 75.7314C85.9652 77.4217 84.8897 79.0812 83.1879 79.4671C83.1731 79.4705 83.1584 79.4737 83.1436 79.4769Z"/>
</mask>
<path fill-rule="evenodd" clip-rule="evenodd" d="M83.1436 79.4769C83.1471 79.4942 83.1507 79.5115 83.1544 79.5289C84.875 79.161 86.5795 80.2357 86.9736 81.9456C86.977 81.9603 86.9803 81.9751 86.9835 81.9899L87.0235 81.9811L87.0384 81.9777C86.667 80.2725 87.7402 78.5842 89.4528 78.1874L89.4442 78.149L89.4408 78.1346C87.7457 78.464 86.081 77.4016 85.6853 75.72C85.6666 75.7236 85.648 75.7274 85.6293 75.7314C85.9652 77.4217 84.8897 79.0812 83.1879 79.4671C83.1731 79.4705 83.1584 79.4737 83.1436 79.4769Z" fill="#FACF35"/>
<path d="M83.1544 79.5289L82.1763 79.7368L82.3875 80.7154L83.3665 80.5061L83.1544 79.5289ZM83.1436 79.4769L82.9328 78.4993L81.9704 78.7038L82.1621 79.6688L83.1436 79.4769ZM86.9736 81.9456L87.9487 81.724L87.9487 81.724L86.9736 81.9456ZM86.9835 81.9899L86.0054 82.1979L86.2179 83.1825L87.2017 82.9658L86.9835 81.9899ZM87.0235 81.9811L87.2417 82.9571L87.2499 82.9552L87.0235 81.9811ZM87.0384 81.9777L87.2649 82.9517L88.226 82.7314L88.0162 81.7679L87.0384 81.9777ZM89.4528 78.1874L89.6815 79.161L90.6457 78.9376L90.4292 77.9718L89.4528 78.1874ZM89.4442 78.149L90.4206 77.9333L90.4187 77.9252L89.4442 78.149ZM89.4408 78.1346L90.4154 77.9108L90.1961 76.9693L89.247 77.1537L89.4408 78.1346ZM85.6853 75.72L86.6594 75.494L86.4384 74.555L85.4916 74.739L85.6853 75.72ZM85.6293 75.7314L85.4185 74.7539L84.456 74.9583L84.6478 75.9233L85.6293 75.7314ZM83.1879 79.4671L83.4121 80.4417L83.4121 80.4417L83.1879 79.4671ZM84.1325 79.3209C84.1299 79.3089 84.1275 79.2969 84.1251 79.285L82.1621 79.6688C82.1667 79.6914 82.1714 79.7141 82.1763 79.7368L84.1325 79.3209ZM87.9487 81.724C87.4303 79.475 85.1923 78.0705 82.9423 78.5516L83.3665 80.5061C84.5578 80.2514 85.7286 80.9963 85.9985 82.1672L87.9487 81.724ZM87.9617 81.7819C87.9575 81.7626 87.9532 81.7433 87.9487 81.724L85.9985 82.1672C86.0009 82.1774 86.0032 82.1876 86.0054 82.1979L87.9617 81.7819ZM86.8053 81.0052L86.7654 81.014L87.2017 82.9658L87.2416 82.957L86.8053 81.0052ZM86.8119 81.0036L86.797 81.007L87.2499 82.9552L87.2649 82.9517L86.8119 81.0036ZM89.2241 77.2139C86.9843 77.7327 85.5721 79.9442 86.0607 82.1875L88.0162 81.7679C87.762 80.6008 88.4961 79.4356 89.6815 79.161L89.2241 77.2139ZM88.4677 78.3647L88.4763 78.4031L90.4292 77.9718L90.4206 77.9333L88.4677 78.3647ZM88.4662 78.3585L88.4696 78.3728L90.4187 77.9252L90.4154 77.9108L88.4662 78.3585ZM84.7113 75.946C85.2318 78.1578 87.4175 79.5464 89.6346 79.1156L89.247 77.1537C88.0739 77.3816 86.9303 76.6453 86.6594 75.494L84.7113 75.946ZM85.8401 76.7089C85.8531 76.7062 85.8661 76.7035 85.8791 76.701L85.4916 74.739C85.4672 74.7437 85.4428 74.7487 85.4185 74.7539L85.8401 76.7089ZM84.6478 75.9233C84.8777 77.08 84.1417 78.2254 82.9637 78.4926L83.4121 80.4417C85.6378 79.937 87.0527 77.7634 86.6107 75.5395L84.6478 75.9233ZM82.9637 78.4926C82.9534 78.4949 82.9431 78.4972 82.9328 78.4993L83.3544 80.4544C83.3737 80.4503 83.3929 80.4461 83.4121 80.4417L82.9637 78.4926Z" fill="#FACF35" mask="url(#path-25-inside-8_5895_98659)"/>
<path fill-rule="evenodd" clip-rule="evenodd" d="M178.662 58.4719H96.9863C96.5022 57.2285 96.2408 55.9023 96.2408 54.5255C96.2408 47.4357 103.174 41.6882 111.727 41.6882C114.519 41.6882 117.138 42.3007 119.4 43.3723C122.227 36.5939 129.994 31.7259 139.132 31.7259C146.64 31.7259 153.222 35.0119 156.899 39.9436C158.951 39.2819 161.206 38.9162 163.573 38.9162C173.083 38.9162 180.793 44.8228 180.793 52.109C180.793 54.4162 180.02 56.5851 178.662 58.4719Z" fill="#E8EDFF"/>
<path d="M184.844 57.094C184.844 70.5248 174.229 74.4313 164.073 78.231C162.715 78.739 161.292 79.2076 159.813 79.6332C158.646 79.9689 157.443 80.2779 156.208 80.5584C150.825 81.7811 144.83 82.4632 138.512 82.4632C115.164 82.4632 94.4608 70.823 94.4608 59.3336C94.4608 55.9369 95.2054 47.3941 107.907 42.172C127.326 50.3812 122.066 40.8563 138.512 40.8563C151.005 40.8563 167.394 37.9301 175.133 42.1702C181.857 45.854 184.844 51.7526 184.844 57.094Z" fill="#E8EDFF"/>
<path d="M144.675 90.8049C148.348 84.9289 150.467 79.4048 149.06 77.0145L165.062 73.5905C161.498 84.0284 149.985 89.4159 144.675 90.8049Z" fill="#E8EDFF"/>
<mask id="path-30-inside-9_5895_98659" fill="white">
<path fill-rule="evenodd" clip-rule="evenodd" d="M177.673 16.9993C177.672 17.0025 177.671 17.0056 177.67 17.0088L177.666 17.0294C177.681 17.0326 177.696 17.0358 177.711 17.0392C179.388 17.4162 180.438 19.0697 180.065 20.7387L180.106 20.7471C180.109 20.7315 180.113 20.716 180.116 20.7004C180.496 19.0532 182.124 18.009 183.778 18.3331L183.785 18.3019C182.134 17.9238 181.096 16.3077 181.432 14.6625L181.419 14.6596C181.409 14.6575 181.4 14.6553 181.39 14.6533C181.002 16.3141 179.343 17.3587 177.673 16.9993Z"/>
</mask>
<path fill-rule="evenodd" clip-rule="evenodd" d="M177.673 16.9993C177.672 17.0025 177.671 17.0056 177.67 17.0088L177.666 17.0294C177.681 17.0326 177.696 17.0358 177.711 17.0392C179.388 17.4162 180.438 19.0697 180.065 20.7387L180.106 20.7471C180.109 20.7315 180.113 20.716 180.116 20.7004C180.496 19.0532 182.124 18.009 183.778 18.3331L183.785 18.3019C182.134 17.9238 181.096 16.3077 181.432 14.6625L181.419 14.6596C181.409 14.6575 181.4 14.6553 181.39 14.6533C181.002 16.3141 179.343 17.3587 177.673 16.9993Z" fill="#FACF35"/>
<path d="M177.67 17.0088L176.695 16.7884L176.694 16.7917L177.67 17.0088ZM177.673 16.9993L177.887 16.0226L176.923 15.8151L176.698 16.776L177.673 16.9993ZM177.666 17.0294L176.69 16.8123L176.465 17.7994L177.456 18.0072L177.666 17.0294ZM177.711 17.0392L177.487 18.0139L177.487 18.0139L177.711 17.0392ZM180.065 20.7387L179.088 20.5248L178.866 21.5159L179.861 21.7178L180.065 20.7387ZM180.106 20.7471L179.903 21.7262L180.876 21.9236L181.085 20.9527L180.106 20.7471ZM180.116 20.7004L181.092 20.9208L181.092 20.9208L180.116 20.7004ZM183.778 18.3331L183.582 19.3135L184.555 19.5041L184.758 18.5337L183.778 18.3331ZM183.785 18.3019L184.765 18.5026L184.965 17.5463L184.013 17.3281L183.785 18.3019ZM181.432 14.6625L182.412 14.8583L182.607 13.9039L181.657 13.6883L181.432 14.6625ZM181.419 14.6596L181.645 13.6854L181.643 13.6849L181.419 14.6596ZM181.39 14.6533L181.605 13.6766L180.64 13.4691L180.415 14.4299L181.39 14.6533ZM178.646 17.2291C178.646 17.227 178.647 17.2248 178.647 17.2227L176.698 16.776C176.697 16.7801 176.696 16.7843 176.695 16.7884L178.646 17.2291ZM178.642 17.2465L178.646 17.2259L176.694 16.7917L176.69 16.8123L178.642 17.2465ZM177.935 16.0645C177.915 16.0601 177.895 16.0558 177.875 16.0516L177.456 18.0072C177.466 18.0094 177.477 18.0116 177.487 18.0139L177.935 16.0645ZM181.041 20.9525C181.535 18.7438 180.145 16.5616 177.935 16.0645L177.487 18.0139C178.63 18.2709 179.34 19.3955 179.088 20.5248L181.041 20.9525ZM180.309 19.768L180.268 19.7596L179.861 21.7178L179.903 21.7262L180.309 19.768ZM179.141 20.4801C179.136 20.5005 179.132 20.521 179.127 20.5415L181.085 20.9527C181.087 20.9421 181.089 20.9314 181.092 20.9208L179.141 20.4801ZM183.975 17.3527C181.794 16.9255 179.644 18.301 179.141 20.4801L181.092 20.9208C181.349 19.8054 182.454 19.0925 183.582 19.3135L183.975 17.3527ZM182.805 18.1012L182.799 18.1324L184.758 18.5337L184.765 18.5026L182.805 18.1012ZM180.451 14.4668C180.006 16.6443 181.381 18.7772 183.557 19.2757L184.013 17.3281C182.888 17.0704 182.185 15.9711 182.412 14.8583L180.451 14.4668ZM181.193 15.6339L181.206 15.6368L181.657 13.6883L181.645 13.6854L181.193 15.6339ZM181.175 15.63C181.182 15.6314 181.189 15.6329 181.195 15.6343L181.643 13.6849C181.63 13.6821 181.617 13.6793 181.605 13.6766L181.175 15.63ZM180.415 14.4299C180.152 15.5545 179.027 16.2677 177.887 16.0226L177.458 17.976C179.66 18.4497 181.851 17.0737 182.365 14.8766L180.415 14.4299Z" fill="#FACF35" mask="url(#path-30-inside-9_5895_98659)"/>
<ellipse cx="189.083" cy="37.0748" rx="1.08297" ry="1.07479" fill="#000091"/>
<ellipse opacity="0.03" cx="137.625" cy="119.488" rx="88.5" ry="89" stroke="#000091" stroke-width="60"/>
<circle cx="110" cy="8" r="1" fill="#6A6AF4"/>
<circle cx="232" cy="67" r="1" fill="#6A6AF4"/>
<path d="M254.5 141C259.5 144 264.909 150.94 263.563 154.903C259.012 168.304 198.166 164.678 127.661 146.804C57.1557 128.93 3.68982 103.577 8.24143 90.1764C9.87498 85.3669 21.5 82 26 82" stroke="#FACF35" stroke-width="1.5" stroke-linecap="round"/>
<mask id="path-37-inside-10_5895_98659" fill="white">
<path fill-rule="evenodd" clip-rule="evenodd" d="M220.408 125.04C220.408 125.045 220.407 125.05 220.407 125.055L220.404 125.09C220.429 125.091 220.454 125.093 220.479 125.095C223.251 125.32 225.307 127.732 225.086 130.49C225.109 130.492 225.131 130.493 225.154 130.494C225.156 130.469 225.158 130.443 225.16 130.417C225.397 127.692 227.769 125.651 230.492 125.796L230.496 125.745C227.766 125.512 225.737 123.158 225.903 120.446L225.882 120.444C225.866 120.443 225.85 120.442 225.834 120.441C225.587 123.189 223.167 125.238 220.408 125.04Z"/>
</mask>
<path d="M220.407 125.055L219.41 124.973L219.41 124.977L220.407 125.055ZM220.408 125.04L220.485 124.043L219.5 123.972L219.412 124.955L220.408 125.04ZM220.404 125.09L219.407 125.011L219.323 126.02L220.333 126.087L220.404 125.09ZM220.479 125.095L220.393 126.091L220.393 126.091L220.479 125.095ZM225.086 130.49L224.089 130.415L224.008 131.421L225.015 131.488L225.086 130.49ZM225.154 130.494L225.096 131.493L226.082 131.545L226.152 130.561L225.154 130.494ZM225.16 130.417L224.164 130.335L224.164 130.335L225.16 130.417ZM230.492 125.796L230.435 126.795L231.425 126.848L231.491 125.858L230.492 125.796ZM230.496 125.745L231.494 125.807L231.559 124.832L230.585 124.749L230.496 125.745ZM225.903 120.446L226.901 120.503L226.961 119.531L225.99 119.45L225.903 120.446ZM225.882 120.444L225.969 119.448L225.967 119.448L225.882 120.444ZM225.834 120.441L225.91 119.444L224.926 119.373L224.838 120.356L225.834 120.441ZM221.404 125.137C221.404 125.133 221.404 125.129 221.405 125.125L219.412 124.955C219.412 124.961 219.411 124.967 219.41 124.973L221.404 125.137ZM221.401 125.168L221.404 125.134L219.41 124.977L219.407 125.011L221.401 125.168ZM220.564 124.099C220.534 124.096 220.505 124.094 220.475 124.092L220.333 126.087C220.353 126.088 220.373 126.09 220.393 126.091L220.564 124.099ZM226.083 130.566C226.348 127.256 223.881 124.368 220.564 124.099L220.393 126.091C222.62 126.272 224.265 128.208 224.089 130.415L226.083 130.566ZM225.212 129.496C225.194 129.495 225.175 129.494 225.157 129.493L225.015 131.488C225.042 131.49 225.069 131.491 225.096 131.493L225.212 129.496ZM224.164 130.335C224.161 130.366 224.159 130.397 224.156 130.427L226.152 130.561C226.153 130.54 226.155 130.52 226.157 130.499L224.164 130.335ZM230.55 124.798C227.291 124.624 224.447 127.066 224.164 130.335L226.157 130.499C226.346 128.318 228.246 126.678 230.435 126.795L230.55 124.798ZM229.498 125.683L229.494 125.735L231.491 125.858L231.494 125.807L229.498 125.683ZM224.905 120.389C224.705 123.643 227.14 126.463 230.406 126.741L230.585 124.749C228.393 124.562 226.768 122.673 226.901 120.503L224.905 120.389ZM225.795 121.441L225.816 121.442L225.99 119.45L225.969 119.448L225.795 121.441ZM225.758 121.438C225.771 121.439 225.784 121.44 225.797 121.441L225.967 119.448C225.948 119.446 225.929 119.445 225.91 119.444L225.758 121.438ZM224.838 120.356C224.64 122.556 222.701 124.202 220.485 124.043L220.332 126.037C223.633 126.274 226.534 123.823 226.83 120.526L224.838 120.356Z" fill="#6470F4" mask="url(#path-37-inside-10_5895_98659)"/>
<path d="M212.983 175.527C212.63 178.768 212.61 182.586 213.044 185.383C213.085 185.583 213.118 185.778 213.143 185.965L212.156 186.124C212.122 185.94 212.09 185.752 212.059 185.559C211.851 184.536 211.425 183.292 210.871 181.979C210.218 180.432 209.398 178.82 208.581 177.413C207.761 175.999 206.956 174.816 206.336 174.112C206.129 173.877 205.963 173.72 205.842 173.625C205.096 175.723 205.632 178.015 206.874 180.131C206.912 180.197 206.951 180.262 206.989 180.327C208.015 182.074 208.897 183.576 209.868 184.662C210.859 185.77 211.892 186.386 213.204 186.386C217.261 186.386 219.874 183.533 221.417 180.371C222.185 178.798 222.669 177.18 222.921 175.877C223.046 175.225 223.112 174.66 223.128 174.225C223.133 174.075 223.132 173.944 223.127 173.833C222.932 173.964 222.677 174.173 222.369 174.463C221.617 175.169 220.636 176.266 219.594 177.573C217.507 180.191 215.235 183.578 214.107 186.228L213.181 185.85C214.926 181.367 215.668 176.702 215.379 172.071L215.379 172.071C215.346 171.537 215.275 170.786 215.104 170.199C215.018 169.901 214.919 169.695 214.824 169.582C214.749 169.491 214.716 169.497 214.691 169.502C214.69 169.502 214.689 169.502 214.688 169.502C214.66 169.507 214.531 169.557 214.337 169.865C214.156 170.153 213.972 170.582 213.798 171.143C213.452 172.258 213.171 173.798 212.983 175.527ZM205.663 173.513C205.663 173.513 205.664 173.514 205.666 173.514C205.664 173.514 205.662 173.513 205.663 173.513Z" fill="#1EBE8E" stroke="#1EBE8E"/>
<mask id="path-40-inside-11_5895_98659" fill="white">
<path fill-rule="evenodd" clip-rule="evenodd" d="M207.673 100.999C207.672 101.002 207.671 101.006 207.67 101.009L207.666 101.029C207.681 101.033 207.696 101.036 207.711 101.039C209.388 101.416 210.438 103.07 210.065 104.739L210.106 104.747C210.109 104.732 210.113 104.716 210.116 104.7C210.496 103.053 212.124 102.009 213.778 102.333L213.785 102.302C212.134 101.924 211.096 100.308 211.432 98.6625L211.419 98.6596C211.409 98.6575 211.4 98.6553 211.39 98.6533C211.002 100.314 209.343 101.359 207.673 100.999Z"/>
</mask>
<path fill-rule="evenodd" clip-rule="evenodd" d="M207.673 100.999C207.672 101.002 207.671 101.006 207.67 101.009L207.666 101.029C207.681 101.033 207.696 101.036 207.711 101.039C209.388 101.416 210.438 103.07 210.065 104.739L210.106 104.747C210.109 104.732 210.113 104.716 210.116 104.7C210.496 103.053 212.124 102.009 213.778 102.333L213.785 102.302C212.134 101.924 211.096 100.308 211.432 98.6625L211.419 98.6596C211.409 98.6575 211.4 98.6553 211.39 98.6533C211.002 100.314 209.343 101.359 207.673 100.999Z" fill="#FACF35"/>
<path d="M207.67 101.009L206.695 100.788L206.694 100.792L207.67 101.009ZM207.673 100.999L207.887 100.023L206.923 99.8151L206.698 100.776L207.673 100.999ZM207.666 101.029L206.69 100.812L206.465 101.799L207.456 102.007L207.666 101.029ZM207.711 101.039L207.487 102.014L207.487 102.014L207.711 101.039ZM210.065 104.739L209.088 104.525L208.866 105.516L209.861 105.718L210.065 104.739ZM210.106 104.747L209.903 105.726L210.876 105.924L211.085 104.953L210.106 104.747ZM210.116 104.7L211.092 104.921L211.092 104.921L210.116 104.7ZM213.778 102.333L213.582 103.313L214.555 103.504L214.758 102.534L213.778 102.333ZM213.785 102.302L214.765 102.503L214.965 101.546L214.013 101.328L213.785 102.302ZM211.432 98.6625L212.412 98.8583L212.607 97.9039L211.657 97.6883L211.432 98.6625ZM211.419 98.6596L211.645 97.6854L211.643 97.6849L211.419 98.6596ZM211.39 98.6533L211.605 97.6766L210.64 97.4691L210.415 98.4299L211.39 98.6533ZM208.646 101.229C208.646 101.227 208.647 101.225 208.647 101.223L206.698 100.776C206.697 100.78 206.696 100.784 206.695 100.788L208.646 101.229ZM208.642 101.247L208.646 101.226L206.694 100.792L206.69 100.812L208.642 101.247ZM207.935 100.065C207.915 100.06 207.895 100.056 207.875 100.052L207.456 102.007C207.466 102.009 207.477 102.012 207.487 102.014L207.935 100.065ZM211.041 104.953C211.535 102.744 210.145 100.562 207.935 100.065L207.487 102.014C208.63 102.271 209.34 103.396 209.088 104.525L211.041 104.953ZM210.309 103.768L210.268 103.76L209.861 105.718L209.903 105.726L210.309 103.768ZM209.141 104.48C209.136 104.501 209.132 104.521 209.127 104.541L211.085 104.953C211.087 104.942 211.089 104.931 211.092 104.921L209.141 104.48ZM213.975 101.353C211.794 100.925 209.644 102.301 209.141 104.48L211.092 104.921C211.349 103.805 212.454 103.093 213.582 103.313L213.975 101.353ZM212.805 102.101L212.799 102.132L214.758 102.534L214.765 102.503L212.805 102.101ZM210.451 98.4668C210.006 100.644 211.381 102.777 213.557 103.276L214.013 101.328C212.888 101.07 212.185 99.9711 212.412 98.8583L210.451 98.4668ZM211.193 99.6339L211.206 99.6368L211.657 97.6883L211.645 97.6854L211.193 99.6339ZM211.175 99.63C211.182 99.6314 211.189 99.6329 211.195 99.6343L211.643 97.6849C211.63 97.6821 211.617 97.6793 211.605 97.6766L211.175 99.63ZM210.415 98.4299C210.152 99.5545 209.027 100.268 207.887 100.023L207.458 101.976C209.66 102.45 211.851 101.074 212.365 98.8766L210.415 98.4299Z" fill="#FACF35" mask="url(#path-40-inside-11_5895_98659)"/>
<ellipse cx="16.5409" cy="35.7904" rx="16.5409" ry="35.7904" transform="matrix(-0.907618 -0.419797 -0.484378 0.874859 238.36 39.8106)" fill="#1EBA8D"/>
<path d="M184.26 118.888C186.339 104.222 197.352 70.4106 212.344 51.9811" stroke="#000091" stroke-linecap="round"/>
<path d="M209.244 69.8174C206.8 70.6213 201.198 72.773 198.347 74.949C196.95 67.6065 196.414 64.6401 196.32 64.0747" stroke="#000091" stroke-linecap="round"/>
<path d="M215.612 59.9604C213.082 60.5493 207.251 62.2057 204.166 64.1204C203.565 56.7223 203.35 53.7358 203.317 53.1673" stroke="#000091" stroke-linecap="round"/>
</svg>
