<svg width="384" height="216" viewBox="0 0 384 216" fill="none" xmlns="http://www.w3.org/2000/svg">
<g clip-path="url(#clip0_5382_81572)">
<circle opacity="0.03" cx="195.5" cy="120.5" r="93.5" stroke="#2A3070" stroke-width="60"/>
<path fill-rule="evenodd" clip-rule="evenodd" d="M151.017 192.814H172.351C172.387 192.566 172.406 192.314 172.406 192.057C172.406 188.673 169.177 185.93 165.193 185.93C162.711 185.93 160.522 186.995 159.224 188.616C158.394 188.167 157.409 187.906 156.352 187.906C153.396 187.906 151 189.942 151 192.452C151 192.574 151.006 192.695 151.017 192.814Z" fill="#1EBE8E"/>
<path d="M133.44 191.807C133.03 167.85 118.044 84.1922 99.6297 51.6455" stroke="#00BE8C" stroke-linecap="round"/>
<path d="M100.122 81.8116C103.428 83.5961 110.951 88.1857 114.594 92.2685C117.829 80.6799 119.098 75.9926 119.327 75.0975" stroke="#00BE8C" stroke-linecap="round"/>
<path d="M93.6488 64.6906C97.142 66.1281 105.141 69.9194 109.193 73.584C111.334 61.882 112.159 57.1527 112.304 56.2507" stroke="#00BE8C" stroke-linecap="round"/>
<path d="M130.194 69.9823C133.605 80.8297 132.304 92.1067 129.509 100.872C128.111 105.253 126.346 108.99 124.625 111.717C123.764 113.082 122.92 114.183 122.146 114.984C121.361 115.796 120.69 116.255 120.182 116.406C119.667 116.56 118.844 116.557 117.733 116.336C116.636 116.118 115.313 115.7 113.828 115.082C110.86 113.846 107.283 111.826 103.643 109.074C96.3587 103.566 88.8683 95.1632 85.457 84.3162C82.038 73.4447 82.5227 62.4755 84.9007 53.8854C86.0896 49.5904 87.7479 45.9047 89.6148 43.1307C91.4877 40.3478 93.5328 38.5372 95.4759 37.8899C97.8645 37.1804 100.787 37.4318 103.969 38.5911C107.15 39.75 110.555 41.8041 113.875 44.6428C120.514 50.3202 126.771 59.0985 130.194 69.9823Z" stroke="#00BE8C" stroke-linecap="round"/>
<path d="M176.196 111.321L177.001 109.648L148.636 128.566C150.633 131.128 152.839 132.746 156.342 132.746C159.002 132.746 168.977 126.429 174.663 123.271C174.006 118.972 174.323 115.217 176.196 111.321Z" fill="#FACF35"/>
<path fill-rule="evenodd" clip-rule="evenodd" d="M148.636 128.566C148.846 128.836 149.059 129.095 149.275 129.342C151.112 131.45 153.208 132.746 156.342 132.746C158.357 132.746 164.57 129.121 169.936 125.99C171.654 124.988 173.284 124.037 174.663 123.271C174.012 119.008 174.318 115.279 176.15 111.417C176.165 111.385 176.181 111.353 176.196 111.321L177.001 109.648L148.636 128.566ZM174.626 112.434L150.114 128.783C150.847 129.609 151.601 130.269 152.429 130.753C153.506 131.383 154.757 131.746 156.342 131.746C156.511 131.746 156.834 131.689 157.345 131.519C157.835 131.356 158.429 131.113 159.11 130.801C160.472 130.176 162.119 129.303 163.88 128.32C165.639 127.338 167.494 126.257 169.272 125.22L169.438 125.123C170.909 124.265 172.327 123.438 173.577 122.733C173.104 119.111 173.333 115.796 174.626 112.434Z" fill="#FACF35"/>
<path d="M222.145 100.289C222.145 89.4431 207.739 78.4296 202.92 75.0496C201.978 74.3886 200.75 74.3838 199.77 74.9877L151.776 104.572C150.785 105.183 150.516 106.515 151.244 107.424C151.833 108.16 152.449 108.87 153.112 109.541C153.741 110.178 154.73 110.241 155.48 109.752L177.715 95.2496C178.169 94.9511 178.824 95.0934 179.12 95.5435C179.426 96.0113 179.294 96.6437 178.827 96.9497L147.831 117.171C146.847 117.812 146.615 119.17 147.415 120.03C148.631 121.337 150.005 122.471 151.65 123.184C152.208 123.426 152.845 123.325 153.351 122.988L183.165 103.109L183.479 102.97C183.599 102.948 183.707 102.932 183.829 102.94C183.939 102.943 184.055 102.972 184.155 103.019L184.36 103.141L184.639 103.471L184.695 103.588L184.761 103.941L184.748 104.089L184.607 104.491L184.513 104.607L184.331 104.779C180.115 107.724 177.297 112.142 176.396 117.218C175.495 122.293 176.895 127.99 179.569 131.631C181.516 134.281 185.592 140.179 187.668 143.195C188.347 144.182 189.743 144.36 190.56 143.483C193.17 140.683 195.132 136.943 192.686 133.35C190.151 129.635 186.195 125.415 185.532 120.879C185.014 117.346 186.481 114.182 189.656 111.967C192.378 110.071 195.668 109.811 198.659 111.258C202.143 112.949 204.087 115.845 204.127 119.415C204.183 124.404 200.616 129.48 198.463 133.738C196.22 138.186 197.983 141.841 201.395 144.706C202.291 145.459 203.625 145.135 204.196 144.113L213.091 128.207C213.506 127.505 222.145 113.313 222.145 100.289Z" fill="#FACF35"/>
<path fill-rule="evenodd" clip-rule="evenodd" d="M213.091 128.207C213.099 128.192 213.111 128.172 213.127 128.146C213.862 126.916 222.145 113.043 222.145 100.289C222.145 89.4431 207.739 78.4296 202.92 75.0496C201.978 74.3886 200.75 74.3838 199.77 74.9877L151.776 104.572C150.785 105.183 150.516 106.515 151.244 107.424C151.833 108.16 152.449 108.87 153.112 109.541C153.741 110.178 154.73 110.241 155.48 109.752L177.715 95.2496C178.169 94.9511 178.824 95.0934 179.12 95.5435C179.426 96.0113 179.294 96.6437 178.827 96.9497L147.831 117.171C146.847 117.812 146.615 119.17 147.415 120.03C148.631 121.337 150.005 122.471 151.65 123.184C152.208 123.426 152.845 123.325 153.351 122.988L183.165 103.109L183.479 102.97C183.599 102.948 183.707 102.932 183.829 102.94C183.939 102.943 184.055 102.972 184.155 103.019L184.36 103.141L184.639 103.471L184.695 103.588L184.761 103.941L184.748 104.089L184.607 104.491L184.513 104.607L184.331 104.779C180.115 107.724 177.297 112.142 176.396 117.218C175.495 122.293 176.895 127.99 179.569 131.631C181.516 134.281 185.592 140.179 187.668 143.195C188.347 144.182 189.743 144.36 190.56 143.483C193.17 140.683 195.132 136.943 192.686 133.35C192.108 132.503 191.456 131.63 190.786 130.732C188.518 127.694 186.044 124.38 185.532 120.879C185.014 117.346 186.481 114.182 189.656 111.967C192.378 110.071 195.668 109.811 198.659 111.258C202.143 112.949 204.087 115.845 204.127 119.415C204.171 123.347 201.965 127.334 199.973 130.931C199.438 131.897 198.919 132.836 198.463 133.738C196.22 138.186 197.983 141.841 201.395 144.706C202.291 145.459 203.625 145.135 204.196 144.113L213.091 128.207ZM199.355 134.189C198.341 136.201 198.262 137.955 198.761 139.51C199.27 141.097 200.417 142.579 202.038 143.941C202.395 144.24 203.02 144.168 203.323 143.625L212.224 127.708L212.23 127.698C212.239 127.683 212.25 127.663 212.266 127.638C212.618 127.047 214.758 123.464 216.852 118.482C219.044 113.265 221.145 106.606 221.145 100.289C221.145 95.2695 217.781 90.0496 213.606 85.5497C209.471 81.0924 204.73 77.5406 202.346 75.8683C201.75 75.4497 200.954 75.4324 200.295 75.839L152.301 105.423C151.791 105.738 151.694 106.386 152.025 106.799C152.597 107.515 153.191 108.198 153.823 108.839C154.088 109.106 154.544 109.168 154.933 108.914L177.165 94.4141C177.166 94.4138 177.166 94.4134 177.167 94.4131C178.09 93.8075 179.362 94.0905 179.956 94.9944L179.957 94.9961C180.565 95.9256 180.304 97.1774 179.375 97.7861L179.374 97.7872L148.377 118.008C147.859 118.346 147.812 118.99 148.147 119.349C149.307 120.596 150.572 121.627 152.048 122.266C152.245 122.352 152.525 122.337 152.796 122.156L182.681 102.23L183.183 102.006L183.303 101.985C183.431 101.962 183.633 101.928 183.875 101.941C184.128 101.95 184.372 102.016 184.579 102.113L184.624 102.134L185.014 102.367L185.486 102.923L185.654 103.276L185.769 103.891L185.733 104.302L185.493 104.986L185.248 105.288L184.964 105.557L184.903 105.599C180.905 108.391 178.236 112.577 177.381 117.393C176.526 122.206 177.867 127.625 180.375 131.039C182.333 133.704 186.419 139.617 188.492 142.627C188.851 143.15 189.498 143.157 189.829 142.802C191.081 141.458 192.11 139.957 192.559 138.431C192.996 136.95 192.894 135.434 191.86 133.914C191.294 133.085 190.655 132.229 189.982 131.328C189.919 131.242 189.855 131.156 189.79 131.07C189.053 130.082 188.285 129.045 187.575 127.976C186.161 125.853 184.907 123.514 184.543 121.023C183.964 117.077 185.632 113.555 189.083 111.147C192.103 109.044 195.778 108.754 199.094 110.358L199.096 110.358C202.884 112.196 205.082 115.416 205.127 119.404C205.157 122.127 204.202 124.81 203.026 127.28C202.435 128.522 201.777 129.734 201.14 130.888C201.041 131.067 200.943 131.243 200.846 131.419C200.311 132.385 199.803 133.305 199.356 134.188" fill="#FACF35"/>
<path d="M206.428 163.884C206.428 169.477 201.894 174.494 196.301 174.494C190.708 174.494 186.174 169.477 186.174 163.884C186.174 163.884 190.226 163.884 195.819 163.884C201.412 163.884 206.428 163.884 206.428 163.884Z" fill="#E6EAFF"/>
<path d="M196.301 138.808C195.035 145.238 186.174 158.097 186.174 163.884H206.428C206.428 157.133 197.567 145.238 196.301 138.808Z" fill="#E6EAFF"/>
<path d="M178.579 152.009C178.579 154.107 176.878 155.988 174.781 155.988C172.684 155.988 170.983 154.107 170.983 152.009C170.983 152.009 172.503 152.009 174.6 152.009C176.698 152.009 178.579 152.009 178.579 152.009Z" fill="#6A62F4"/>
<path d="M174.781 142.605C174.306 145.017 170.983 149.839 170.983 152.009H178.579C178.579 149.477 175.256 145.017 174.781 142.605Z" fill="#6A62F4"/>
<path d="M174.595 65.4038C174.595 67.5012 172.895 69.3823 170.798 69.3823C168.7 69.3823 167 67.5012 167 65.4038C167 65.4038 168.519 65.4038 170.617 65.4038C172.714 65.4038 174.595 65.4038 174.595 65.4038Z" fill="#E3E3FD"/>
<path d="M170.798 56C170.323 58.4112 167 63.2337 167 65.4038H174.595C174.595 62.872 171.272 58.4112 170.798 56Z" fill="#E3E3FD"/>
<path d="M198 59.1905C198 60.5712 196.881 61.8095 195.5 61.8095C194.119 61.8095 193 60.5712 193 59.1905C193 59.1905 194 59.1905 195.381 59.1905C196.762 59.1905 198 59.1905 198 59.1905Z" fill="#6A62F4"/>
<path d="M195.5 53C195.188 54.5873 193 57.7619 193 59.1905H198C198 57.5238 195.812 54.5873 195.5 53Z" fill="#6A62F4"/>
<path d="M228.135 73.5959C228.135 75.2901 226.762 76.8095 225.068 76.8095C223.373 76.8095 222 75.2901 222 73.5959C222 73.5959 223.227 73.5959 224.921 73.5959C226.616 73.5959 228.135 73.5959 228.135 73.5959Z" fill="#6A62F4"/>
<path d="M225.068 66C224.684 67.9477 222 71.843 222 73.5959H228.135C228.135 71.5508 225.451 67.9477 225.068 66Z" fill="#6A62F4"/>
<path d="M224.151 178.593C224.151 180.69 222.451 182.571 220.353 182.571C218.256 182.571 216.556 180.69 216.556 178.593C216.556 178.593 218.075 178.593 220.172 178.593C222.27 178.593 224.151 178.593 224.151 178.593Z" fill="#E3E3FD"/>
<path d="M220.353 169.189C219.879 171.6 216.556 176.423 216.556 178.593H224.151C224.151 176.061 220.828 171.6 220.353 169.189Z" fill="#E3E3FD"/>
<path d="M205.188 192C205.188 196.217 201.382 200 196.688 200C191.993 200 188.188 196.217 188.188 192C188.188 192 191.588 192 196.283 192C200.977 192 205.188 192 205.188 192Z" fill="#6A62F4"/>
<path d="M271.108 117.741C268.183 128.892 267.314 140.214 268.149 149.089C268.567 153.529 269.408 157.33 270.614 160.184C271.798 162.985 273.294 164.784 275.007 165.47C279.021 164.699 283.169 160.836 287.067 154.292C290.99 147.706 294.6 138.502 297.531 127.327C300.454 116.181 301.073 105.386 300.347 97.1648C299.984 93.0518 299.286 89.6037 298.383 87.086C297.932 85.8267 297.435 84.8188 296.917 84.0806C296.397 83.3391 295.881 82.9067 295.396 82.7284C294.91 82.5494 294.258 82.5552 293.437 82.8111C292.622 83.0654 291.683 83.5537 290.652 84.2753C288.591 85.718 286.218 88.0549 283.803 91.1617C278.976 97.3724 274.028 106.603 271.108 117.741Z" stroke="#1EBE8E" stroke-linecap="round"/>
<path fill-rule="evenodd" clip-rule="evenodd" d="M137.757 187.019C141.584 180.875 147.195 174.531 147.863 175.483C148.715 177.249 145.745 193 134.568 193C130.776 193 128.689 189.452 126.026 184.925C125.97 184.83 125.914 184.735 125.858 184.639C124.158 181.748 123.386 178.496 124.571 175.483C125.114 173.57 129.815 180.721 132.337 186.875C132.973 188.427 133.471 189.916 133.728 191.18C133.515 189.818 133.386 188.276 133.33 186.662C133.075 179.275 134.369 170.35 136.372 170.012C137.636 169.798 137.927 172.527 138.013 173.909C138.279 178.16 137.878 182.431 136.826 186.624C136.38 188.399 135.818 190.161 135.139 191.901C135.782 190.394 136.702 188.714 137.757 187.019ZM134.79 191.776L135.28 191.976C135.047 191.992 134.81 192 134.568 192C134.301 192 134.043 191.979 133.793 191.937L134.79 191.776ZM132.789 191.64C131.994 191.298 131.264 190.714 130.535 189.901C129.309 188.532 128.189 186.629 126.857 184.364C126.811 184.287 126.766 184.21 126.72 184.132M132.789 191.64C132.774 191.546 132.758 191.452 132.743 191.356C132.481 190.079 131.945 188.507 131.235 186.83C130.4 184.856 129.351 182.796 128.305 180.998C127.253 179.188 126.23 177.689 125.455 176.81C125.384 176.731 125.318 176.658 125.255 176.592C124.599 179.013 125.256 181.643 126.72 184.132M136.248 191.862C140.336 191.176 143.093 188.013 144.828 184.464C145.802 182.473 146.417 180.424 146.735 178.775C146.871 178.072 146.95 177.454 146.983 176.955C146.87 177.053 146.748 177.163 146.617 177.286C145.665 178.178 144.414 179.574 143.077 181.247C140.511 184.461 137.738 188.566 136.248 191.862ZM134.628 190.415C134.165 186.924 134.209 182.353 134.637 178.432C134.878 176.22 135.237 174.266 135.673 172.861C135.893 172.155 136.118 171.636 136.329 171.303C136.382 171.218 136.429 171.154 136.467 171.108C136.53 171.223 136.603 171.398 136.674 171.642C136.882 172.356 136.972 173.288 137.015 173.971L137.015 173.971C137.36 179.487 136.555 185.043 134.628 190.415Z" fill="#A1E6D1"/>
<path d="M273.819 192C273.482 174.2 278.183 131.926 288.661 107.095" stroke="#1EBE8E" stroke-linecap="round"/>
<path d="M288.567 128.856C286.534 130.295 281.919 133.96 279.73 137.107C277.415 128.681 276.504 125.271 276.338 124.62" stroke="#1EBE8E" stroke-linecap="round"/>
<path d="M286.23 142.581C284.196 144.02 279.582 147.686 277.393 150.832C275.077 142.406 274.166 138.996 274 138.345" stroke="#1EBE8E" stroke-linecap="round"/>
<path d="M292.717 115.905C290.576 117.107 285.686 120.23 283.252 123.114C281.63 114.463 280.999 110.966 280.886 110.298" stroke="#1EBE8E" stroke-linecap="round"/>
<path d="M154.651 49.9997L244 49.4501L242.697 38.0354C242.681 37.8911 242.663 37.757 242.643 37.617C241.314 28.2045 231.333 22.6219 222.474 26.1547L217.172 28.268C217.347 27.5467 219.132 19.5335 213.552 13.41C209.577 9.04778 204.385 8.41451 203.052 8.29045L200.219 8.05532C196.757 7.76801 193.293 8.60528 190.349 10.4419C187.403 12.2785 185.134 15.0156 183.88 18.2439L181.543 24.2592C176.28 19.9058 169.601 17.6204 162.764 17.8342L156.392 18.0333C145.185 18.3838 137.422 29.3023 140.796 39.951C141.724 42.881 143.571 45.4374 146.064 47.2458C148.558 49.0541 151.567 50.0193 154.651 49.9997Z" fill="#E6EAFF"/>
<path fill-rule="evenodd" clip-rule="evenodd" d="M291.132 192.588H255.021C255.007 192.387 255 192.185 255 191.98C255 187.754 258.027 184.328 261.76 184.328C263.095 184.328 264.34 184.766 265.388 185.522C267.028 182.793 269.793 181 272.929 181C276.123 181 278.933 182.86 280.56 185.676C281.649 184.826 282.97 184.328 284.393 184.328C288.127 184.328 291.153 187.754 291.153 191.98C291.153 192.185 291.146 192.387 291.132 192.588Z" fill="#A1E6D1"/>
<path d="M88.6876 192.5H186.687C186.687 197.736 191.451 201.5 196.687 201.5C201.924 201.5 206.687 197.736 206.687 192.5L305.67 192.119" stroke="#E6EAFF"/>
</g>
<defs>
<clipPath id="clip0_5382_81572">
<rect width="384" height="216" fill="white"/>
</clipPath>
</defs>
</svg>
