<svg width="113" height="113" viewBox="0 0 113 113" fill="none" xmlns="http://www.w3.org/2000/svg">
<path d="M84.75 71.5667C92.0172 71.5667 97.9333 77.4828 97.9333 84.75C97.9333 92.0172 92.0172 97.9333 84.75 97.9333C77.4828 97.9333 71.5667 92.0172 71.5667 84.75C71.5667 77.4828 77.4828 71.5667 84.75 71.5667ZM84.75 56.5C69.146 56.5 56.5 69.146 56.5 84.75C56.5 100.354 69.146 113 84.75 113C100.354 113 113 100.354 113 84.75C113 69.146 100.354 56.5 84.75 56.5Z" fill="#00BE8C"/>
<path d="M84.75 15.0667C92.0172 15.0667 97.9333 20.9828 97.9333 28.25C97.9333 35.5172 92.0172 41.4333 84.75 41.4333C77.4828 41.4333 71.5667 35.5172 71.5667 28.25C71.5667 20.9828 77.4828 15.0667 84.75 15.0667ZM84.75 0C69.146 0 56.5 12.646 56.5 28.25C56.5 43.854 69.146 56.5 84.75 56.5C100.354 56.5 113 43.854 113 28.25C113 12.646 100.354 0 84.75 0Z" fill="#FAD214"/>
<path opacity="0.6" d="M94.066 37.5662C91.6804 39.9518 88.3808 41.4333 84.7497 41.4333C81.1137 41.4333 77.8191 39.9568 75.4335 37.5662L64.7764 48.2234C69.889 53.336 76.9502 56.5 84.7497 56.5C92.5493 56.5 99.6155 53.336 104.723 48.2234L94.066 37.5662Z" fill="url(#paint0_linear)"/>
<path opacity="0.6" d="M75.4335 75.4338C77.8191 73.0482 81.1187 71.5667 84.7497 71.5667C88.3858 71.5667 91.6804 73.0432 94.066 75.4338L104.723 64.7766C99.6105 59.664 92.5493 56.5 84.7497 56.5C76.9502 56.5 69.884 59.664 64.7764 64.7766L75.4335 75.4338Z" fill="url(#paint1_linear)"/>
<path d="M28.25 71.5667C35.5172 71.5667 41.4333 77.4828 41.4333 84.75C41.4333 92.0172 35.5172 97.9333 28.25 97.9333C20.9828 97.9333 15.0667 92.0172 15.0667 84.75C15.0667 77.4828 20.9828 71.5667 28.25 71.5667ZM28.25 56.5C12.646 56.5 0 69.146 0 84.75C0 100.354 12.646 113 28.25 113C43.854 113 56.5 100.354 56.5 84.75C56.5 69.146 43.854 56.5 28.25 56.5Z" fill="#646EFA"/>
<path d="M28.25 15.0667C35.5172 15.0667 41.4333 20.9828 41.4333 28.25C41.4333 35.5172 35.5172 41.4333 28.25 41.4333C20.9828 41.4333 15.0667 35.5172 15.0667 28.25C15.0667 20.9828 20.9828 15.0667 28.25 15.0667ZM28.25 0C12.646 0 0 12.646 0 28.25C0 43.854 12.646 56.5 28.25 56.5C43.854 56.5 56.5 43.854 56.5 28.25C56.5 12.646 43.854 0 28.25 0Z" fill="#FFA07D"/>
<path opacity="0.6" d="M37.5664 18.9338C39.952 21.3193 41.4335 24.6189 41.4335 28.25C41.4335 31.8861 39.957 35.1807 37.5664 37.5662L48.2236 48.2234C53.3362 43.1107 56.5002 36.0495 56.5002 28.25C56.5002 20.4505 53.3362 13.3842 48.2236 8.27662L37.5664 18.9338Z" fill="url(#paint2_linear)"/>
<path opacity="0.6" d="M75.4338 37.5662C73.0482 35.1807 71.5667 31.8811 71.5667 28.25C71.5667 24.6139 73.0432 21.3193 75.4338 18.9338L64.7766 8.27662C59.664 13.3842 56.5 20.4505 56.5 28.25C56.5 36.0495 59.664 43.1158 64.7766 48.2234L75.4338 37.5662Z" fill="url(#paint3_linear)"/>
<path opacity="0.6" d="M37.5664 75.4338C39.952 77.8193 41.4335 81.1189 41.4335 84.75C41.4335 88.3861 39.957 91.6807 37.5664 94.0662L48.2236 104.723C53.3362 99.6108 56.5002 92.5495 56.5002 84.75C56.5002 76.9505 53.3362 69.8842 48.2236 64.7766L37.5664 75.4338Z" fill="url(#paint4_linear)"/>
<path opacity="0.6" d="M75.4338 94.0662C73.0482 91.6807 71.5667 88.3811 71.5667 84.75C71.5667 81.1139 73.0432 77.8193 75.4338 75.4338L64.7766 64.7766C59.664 69.8892 56.5 76.9505 56.5 84.75C56.5 92.5495 59.664 99.6158 64.7766 104.723L75.4338 94.0662Z" fill="url(#paint5_linear)"/>
<path opacity="0.6" d="M37.566 37.5662C35.1804 39.9518 31.8808 41.4333 28.2497 41.4333C24.6137 41.4333 21.3191 39.9568 18.9335 37.5662L8.27637 48.2234C13.389 53.336 20.4502 56.5 28.2497 56.5C36.0493 56.5 43.1155 53.336 48.2231 48.2234L37.566 37.5662Z" fill="url(#paint6_linear)"/>
<path opacity="0.6" d="M18.9335 75.4338C21.3191 73.0482 24.6187 71.5667 28.2497 71.5667C31.8858 71.5667 35.1804 73.0432 37.566 75.4338L48.2231 64.7766C43.1155 59.664 36.0493 56.5 28.2497 56.5C20.4502 56.5 13.384 59.664 8.27637 64.7766L18.9335 75.4338Z" fill="url(#paint7_linear)"/>
<path d="M42.3469 77.1012C40.5138 77.1012 38.6807 76.4382 37.2293 75.0923L9.02952 48.9616C5.97601 46.1341 5.79521 41.368 8.62272 38.3145C11.4502 35.261 16.2163 35.0802 19.2698 37.9077L47.4696 64.0384C50.5231 66.8659 50.7039 71.632 47.8764 74.6855C46.3898 76.2876 44.3709 77.1012 42.3469 77.1012Z" fill="url(#paint8_linear)"/>
<path d="M43.4323 49.8857C41.5992 49.8857 39.7661 49.2228 38.3147 47.8768C35.2612 45.0493 35.0804 40.2832 37.9079 37.2297L64.0385 9.02995C66.866 5.97644 71.6321 5.79564 74.6856 8.62315C77.7391 11.4507 77.9199 16.2168 75.0924 19.2703L48.9618 47.47C47.4752 49.0721 45.4563 49.8857 43.4323 49.8857Z" fill="url(#paint9_linear)"/>
<path d="M43.4323 106.386C41.5992 106.386 39.7661 105.723 38.3147 104.377C35.2612 101.549 35.0804 96.7833 37.9079 93.7297L64.0385 65.53C66.866 62.4765 71.6321 62.2957 74.6856 65.1232C77.7391 67.9507 77.9199 72.7168 75.0924 75.7703L48.9618 103.97C47.4752 105.572 45.4563 106.386 43.4323 106.386Z" fill="url(#paint10_linear)"/>
<path d="M98.8469 77.1012C97.0138 77.1012 95.1807 76.4382 93.7293 75.0923L65.5295 48.9616C62.476 46.1341 62.2952 41.368 65.1227 38.3145C67.9502 35.261 72.7163 35.0802 75.7698 37.9077L103.97 64.0384C107.023 66.8659 107.204 71.632 104.376 74.6855C102.89 76.2876 100.871 77.1012 98.8469 77.1012Z" fill="url(#paint11_linear)"/>
<defs>
<linearGradient id="paint0_linear" x1="64.7739" y1="47.0337" x2="104.725" y2="47.0337" gradientUnits="userSpaceOnUse">
<stop offset="0.2" stop-color="#FF963C"/>
<stop offset="0.8" stop-color="#FF963C" stop-opacity="0"/>
</linearGradient>
<linearGradient id="paint1_linear" x1="104.726" y1="65.9662" x2="64.7741" y2="65.9662" gradientUnits="userSpaceOnUse">
<stop stop-color="#149B64"/>
<stop offset="0.7" stop-color="#149B64" stop-opacity="0"/>
</linearGradient>
<linearGradient id="paint2_linear" x1="47.0339" y1="48.2258" x2="47.0339" y2="8.27431" gradientUnits="userSpaceOnUse">
<stop offset="0.2" stop-color="#FF8C7D"/>
<stop offset="0.8" stop-color="#FF8C7D" stop-opacity="0"/>
</linearGradient>
<linearGradient id="paint3_linear" x1="65.9662" y1="8.27416" x2="65.9662" y2="48.2257" gradientUnits="userSpaceOnUse">
<stop stop-color="#FF963C"/>
<stop offset="0.7" stop-color="#FF963C" stop-opacity="0"/>
</linearGradient>
<linearGradient id="paint4_linear" x1="47.0339" y1="104.726" x2="47.0339" y2="64.7744" gradientUnits="userSpaceOnUse">
<stop stop-color="#646EFA"/>
<stop offset="0.7009" stop-color="#646EFA" stop-opacity="0"/>
</linearGradient>
<linearGradient id="paint5_linear" x1="65.9662" y1="64.7742" x2="65.9662" y2="104.726" gradientUnits="userSpaceOnUse">
<stop offset="0.2" stop-color="#149B64"/>
<stop offset="0.8" stop-color="#149B64" stop-opacity="0"/>
</linearGradient>
<linearGradient id="paint6_linear" x1="8.27391" y1="47.0337" x2="48.2254" y2="47.0337" gradientUnits="userSpaceOnUse">
<stop offset="0.2" stop-color="#FF8C7D"/>
<stop offset="0.7" stop-color="#FF8C7D" stop-opacity="0"/>
</linearGradient>
<linearGradient id="paint7_linear" x1="48.2255" y1="65.9662" x2="8.27406" y2="65.9662" gradientUnits="userSpaceOnUse">
<stop offset="0.2" stop-color="#646EFA"/>
<stop offset="0.8" stop-color="#646EFA" stop-opacity="0"/>
</linearGradient>
<linearGradient id="paint8_linear" x1="47.1595" y1="75.41" x2="9.33964" y2="37.5901" gradientUnits="userSpaceOnUse">
<stop offset="0.2" stop-color="#646EFA"/>
<stop offset="0.8" stop-color="#FFA07D"/>
</linearGradient>
<linearGradient id="paint9_linear" x1="75.4101" y1="9.34018" x2="37.5903" y2="47.1599" gradientUnits="userSpaceOnUse">
<stop offset="0.2" stop-color="#FAD214"/>
<stop offset="0.8" stop-color="#FFA07D"/>
</linearGradient>
<linearGradient id="paint10_linear" x1="75.4101" y1="65.8402" x2="37.5903" y2="103.66" gradientUnits="userSpaceOnUse">
<stop offset="0.2" stop-color="#00BE8C"/>
<stop offset="0.8" stop-color="#646EFA"/>
</linearGradient>
<linearGradient id="paint11_linear" x1="103.66" y1="75.41" x2="65.8396" y2="37.5901" gradientUnits="userSpaceOnUse">
<stop offset="0.2" stop-color="#00BE8C"/>
<stop offset="0.8" stop-color="#FAD214"/>
</linearGradient>
</defs>
</svg>