<svg width="384" height="216" viewBox="0 0 384 216" fill="none" xmlns="http://www.w3.org/2000/svg">
<g clip-path="url(#clip0_5382_81572)">
<circle opacity="0.03" cx="195.5" cy="120.5" r="93.5" stroke="#2A3070" stroke-width="60"/>
<path fill-rule="evenodd" clip-rule="evenodd" d="M151.017 192.814H172.351C172.387 192.566 172.406 192.314 172.406 192.057C172.406 188.673 169.177 185.93 165.193 185.93C162.711 185.93 160.522 186.995 159.224 188.616C158.394 188.167 157.409 187.906 156.352 187.906C153.396 187.906 151 189.942 151 192.452C151 192.574 151.006 192.695 151.017 192.814Z" fill="#1EBE8E"/>
<path d="M133.44 191.807C133.03 167.85 118.044 84.1922 99.6297 51.6455" stroke="#00BE8C" stroke-linecap="round"/>
<path d="M100.122 81.8116C103.428 83.5961 110.951 88.1857 114.594 92.2685C117.829 80.6799 119.098 75.9926 119.327 75.0975" stroke="#00BE8C" stroke-linecap="round"/>
<path d="M93.6488 64.6906C97.142 66.1281 105.141 69.9194 109.193 73.584C111.334 61.882 112.159 57.1527 112.304 56.2507" stroke="#00BE8C" stroke-linecap="round"/>
<path d="M130.194 69.9823C133.605 80.8297 132.304 92.1067 129.509 100.872C128.111 105.253 126.346 108.99 124.625 111.717C123.764 113.082 122.92 114.183 122.146 114.984C121.361 115.796 120.69 116.255 120.182 116.406C119.667 116.56 118.844 116.557 117.733 116.336C116.636 116.118 115.313 115.7 113.828 115.082C110.86 113.846 107.283 111.826 103.643 109.074C96.3587 103.566 88.8683 95.1632 85.457 84.3162C82.038 73.4447 82.5227 62.4755 84.9007 53.8854C86.0896 49.5904 87.7479 45.9047 89.6148 43.1307C91.4877 40.3478 93.5328 38.5372 95.4759 37.8899C97.8645 37.1804 100.787 37.4318 103.969 38.5911C107.15 39.75 110.555 41.8041 113.875 44.6428C120.514 50.3202 126.771 59.0985 130.194 69.9823Z" stroke="#00BE8C" stroke-linecap="round"/>
<path d="M175.745 111.105L175.745 111.105C173.87 115.004 173.518 118.768 174.118 123.002C172.802 123.739 171.279 124.628 169.687 125.557L169.524 125.652C167.747 126.689 165.888 127.772 164.124 128.756C162.359 129.741 160.699 130.622 159.319 131.255C158.629 131.572 158.017 131.823 157.502 131.994C156.978 132.168 156.593 132.246 156.342 132.246C154.674 132.246 153.335 131.862 152.177 131.185C151.146 130.582 150.24 129.735 149.368 128.679L175.758 111.078L175.745 111.105Z" fill="#FACF35" stroke="#FACF35"/>
<path d="M179.538 95.2689L179.539 95.2698C179.996 95.9684 179.799 96.9106 179.101 97.3679L179.1 97.3685L148.104 117.589C147.353 118.079 147.213 119.08 147.781 119.69C148.969 120.967 150.288 122.049 151.849 122.725C152.227 122.889 152.685 122.831 153.074 122.572L182.888 102.693L182.923 102.67L182.962 102.652L183.275 102.513L183.331 102.488L183.391 102.477C183.514 102.455 183.67 102.43 183.852 102.44C184.034 102.446 184.214 102.494 184.367 102.566L184.389 102.577L184.411 102.589L184.615 102.711L184.687 102.754L184.741 102.817L185.021 103.147L185.063 103.197L185.091 103.256L185.147 103.373L185.175 103.432L185.187 103.496L185.253 103.848L185.265 103.916L185.259 103.984L185.246 104.133L185.241 104.196L185.22 104.255L185.079 104.657L185.05 104.738L184.996 104.805L184.902 104.922L184.881 104.948L184.856 104.971L184.674 105.143L184.647 105.168L184.617 105.189C180.51 108.057 177.766 112.36 176.888 117.306L176.449 117.228L176.888 117.306C176.01 122.25 177.381 127.807 179.972 131.335C181.924 133.993 186.006 139.898 188.08 142.911C188.599 143.666 189.621 143.759 190.194 143.143C191.473 141.771 192.559 140.202 193.039 138.573C193.513 136.965 193.401 135.29 192.273 133.632C191.701 132.794 191.055 131.929 190.384 131.03C190.32 130.944 190.256 130.858 190.191 130.771C189.454 129.782 188.693 128.755 187.991 127.699C186.59 125.594 185.385 123.33 185.038 120.951C184.489 117.211 186.056 113.868 189.369 111.557L189.37 111.557C192.241 109.557 195.723 109.282 198.877 110.808L198.877 110.808C202.514 112.572 204.585 115.631 204.627 119.409C204.656 122.018 203.74 124.618 202.575 127.065C201.991 128.292 201.339 129.493 200.702 130.647C200.604 130.824 200.507 131 200.41 131.175C199.875 132.142 199.361 133.07 198.909 133.963L179.538 95.2689ZM179.538 95.2689C179.093 94.592 178.129 94.3793 177.441 94.8313C177.441 94.8315 177.44 94.8317 177.44 94.8319L155.206 109.333C154.637 109.704 153.914 109.642 153.468 109.19C152.82 108.534 152.215 107.838 151.634 107.112C151.105 106.45 151.288 105.46 152.039 104.998L200.032 75.4134C200.852 74.9081 201.864 74.9192 202.633 75.4589C205.03 77.1401 209.804 80.7152 213.973 85.2097C218.162 89.7254 221.645 95.0678 221.645 100.289C221.645 106.704 219.514 113.435 217.313 118.675C215.206 123.689 213.053 127.295 212.696 127.892C212.681 127.918 212.669 127.938 212.66 127.952L212.66 127.952M179.538 95.2689L212.66 127.952M212.66 127.952L212.654 127.963M212.66 127.952L212.654 127.963M212.654 127.963L203.76 143.869C203.322 144.651 202.343 144.85 201.717 144.323C200.053 142.926 198.833 141.37 198.285 139.663M212.654 127.963L198.285 139.663M198.285 139.663C197.742 137.971 197.841 136.081 198.909 133.963L198.285 139.663Z" fill="#FACF35" stroke="#FACF35"/>
<path d="M206.428 163.884C206.428 169.477 201.894 174.494 196.301 174.494C190.708 174.494 186.174 169.477 186.174 163.884C186.174 163.884 190.226 163.884 195.819 163.884C201.412 163.884 206.428 163.884 206.428 163.884Z" fill="#E6EAFF"/>
<path d="M196.301 138.808C195.035 145.238 186.174 158.097 186.174 163.884H206.428C206.428 157.133 197.567 145.238 196.301 138.808Z" fill="#E6EAFF"/>
<path d="M178.579 152.009C178.579 154.107 176.878 155.988 174.781 155.988C172.684 155.988 170.983 154.107 170.983 152.009C170.983 152.009 172.503 152.009 174.6 152.009C176.698 152.009 178.579 152.009 178.579 152.009Z" fill="#6A62F4"/>
<path d="M174.781 142.605C174.306 145.017 170.983 149.839 170.983 152.009H178.579C178.579 149.477 175.256 145.017 174.781 142.605Z" fill="#6A62F4"/>
<path d="M174.595 65.4038C174.595 67.5012 172.895 69.3823 170.798 69.3823C168.7 69.3823 167 67.5012 167 65.4038C167 65.4038 168.519 65.4038 170.617 65.4038C172.714 65.4038 174.595 65.4038 174.595 65.4038Z" fill="#E3E3FD"/>
<path d="M170.798 56C170.323 58.4112 167 63.2337 167 65.4038H174.595C174.595 62.872 171.272 58.4112 170.798 56Z" fill="#E3E3FD"/>
<path d="M198 59.1905C198 60.5712 196.881 61.8095 195.5 61.8095C194.119 61.8095 193 60.5712 193 59.1905C193 59.1905 194 59.1905 195.381 59.1905C196.762 59.1905 198 59.1905 198 59.1905Z" fill="#6A62F4"/>
<path d="M195.5 53C195.188 54.5873 193 57.7619 193 59.1905H198C198 57.5238 195.812 54.5873 195.5 53Z" fill="#6A62F4"/>
<path d="M228.135 73.5959C228.135 75.2901 226.762 76.8095 225.068 76.8095C223.373 76.8095 222 75.2901 222 73.5959C222 73.5959 223.227 73.5959 224.921 73.5959C226.616 73.5959 228.135 73.5959 228.135 73.5959Z" fill="#6A62F4"/>
<path d="M225.068 66C224.684 67.9477 222 71.843 222 73.5959H228.135C228.135 71.5508 225.451 67.9477 225.068 66Z" fill="#6A62F4"/>
<path d="M224.151 178.593C224.151 180.69 222.451 182.571 220.353 182.571C218.256 182.571 216.556 180.69 216.556 178.593C216.556 178.593 218.075 178.593 220.172 178.593C222.27 178.593 224.151 178.593 224.151 178.593Z" fill="#E3E3FD"/>
<path d="M220.353 169.189C219.879 171.6 216.556 176.423 216.556 178.593H224.151C224.151 176.061 220.828 171.6 220.353 169.189Z" fill="#E3E3FD"/>
<path d="M205.188 192C205.188 196.217 201.382 200 196.688 200C191.993 200 188.188 196.217 188.188 192C188.188 192 191.588 192 196.283 192C200.977 192 205.188 192 205.188 192Z" fill="#6A62F4"/>
<path d="M271.108 117.741C268.183 128.892 267.314 140.214 268.149 149.089C268.567 153.529 269.408 157.33 270.614 160.184C271.798 162.985 273.294 164.784 275.007 165.47C279.021 164.699 283.169 160.836 287.067 154.292C290.99 147.706 294.6 138.502 297.531 127.327C300.454 116.181 301.073 105.386 300.347 97.1648C299.984 93.0518 299.286 89.6037 298.383 87.086C297.932 85.8267 297.435 84.8188 296.917 84.0806C296.397 83.3391 295.881 82.9067 295.396 82.7284C294.91 82.5494 294.258 82.5552 293.437 82.8111C292.622 83.0654 291.683 83.5537 290.652 84.2753C288.591 85.718 286.218 88.0549 283.803 91.1617C278.976 97.3724 274.028 106.603 271.108 117.741Z" stroke="#1EBE8E" stroke-linecap="round"/>
<path d="M136.766 170.657C136.642 170.508 136.552 170.489 136.456 170.505L136.456 170.505C136.357 170.521 136.161 170.631 135.906 171.036C135.662 171.422 135.422 171.987 135.196 172.713C134.746 174.16 134.383 176.149 134.14 178.378C133.684 182.554 133.658 187.478 134.22 191.092C134.272 191.348 134.315 191.596 134.347 191.834L133.36 191.994C133.316 191.758 133.274 191.516 133.235 191.268C132.964 189.938 132.412 188.328 131.695 186.635C130.851 184.64 129.793 182.561 128.738 180.747C127.679 178.926 126.637 177.394 125.829 176.48C125.469 176.071 125.194 175.831 125.013 175.723C123.938 178.524 124.643 181.586 126.289 184.386C126.341 184.473 126.391 184.56 126.442 184.646C127.759 186.885 128.902 188.827 130.163 190.235C131.456 191.678 132.823 192.5 134.568 192.5C139.875 192.5 143.279 188.771 145.277 184.684C146.272 182.649 146.9 180.557 147.226 178.87C147.389 178.026 147.475 177.293 147.495 176.725C147.505 176.44 147.499 176.205 147.48 176.023C147.478 176.004 147.476 175.987 147.474 175.97C147.463 175.976 147.453 175.982 147.442 175.988C147.163 176.147 146.768 176.459 146.275 176.921C145.299 177.836 144.03 179.252 142.686 180.935C139.995 184.306 137.059 188.673 135.599 192.098L134.673 191.72C136.928 185.936 137.888 179.917 137.514 173.94L137.514 173.94C137.471 173.253 137.379 172.273 137.154 171.502C137.04 171.112 136.907 170.826 136.766 170.657ZM124.889 175.666C124.889 175.666 124.891 175.666 124.893 175.666C124.891 175.666 124.889 175.666 124.889 175.666Z" stroke="#A1E6D1"/>
<path d="M273.819 192C273.482 174.2 278.183 131.926 288.661 107.095" stroke="#1EBE8E" stroke-linecap="round"/>
<path d="M288.567 128.856C286.534 130.295 281.919 133.96 279.73 137.107C277.415 128.681 276.504 125.271 276.338 124.62" stroke="#1EBE8E" stroke-linecap="round"/>
<path d="M286.23 142.581C284.196 144.02 279.582 147.686 277.393 150.832C275.077 142.406 274.166 138.996 274 138.345" stroke="#1EBE8E" stroke-linecap="round"/>
<path d="M292.717 115.905C290.576 117.107 285.686 120.23 283.252 123.114C281.63 114.463 280.999 110.966 280.886 110.298" stroke="#1EBE8E" stroke-linecap="round"/>
<path d="M154.651 49.9997L244 49.4501L242.697 38.0354C242.681 37.8911 242.663 37.757 242.643 37.617C241.314 28.2045 231.333 22.6219 222.474 26.1547L217.172 28.268C217.347 27.5467 219.132 19.5335 213.552 13.41C209.577 9.04778 204.385 8.41451 203.052 8.29045L200.219 8.05532C196.757 7.76801 193.293 8.60528 190.349 10.4419C187.403 12.2785 185.134 15.0156 183.88 18.2439L181.543 24.2592C176.28 19.9058 169.601 17.6204 162.764 17.8342L156.392 18.0333C145.185 18.3838 137.422 29.3023 140.796 39.951C141.724 42.881 143.571 45.4374 146.064 47.2458C148.558 49.0541 151.567 50.0193 154.651 49.9997Z" fill="#E6EAFF"/>
<path fill-rule="evenodd" clip-rule="evenodd" d="M291.132 192.588H255.021C255.007 192.387 255 192.185 255 191.98C255 187.754 258.027 184.328 261.76 184.328C263.095 184.328 264.34 184.766 265.388 185.522C267.028 182.793 269.793 181 272.929 181C276.123 181 278.933 182.86 280.56 185.676C281.649 184.826 282.97 184.328 284.393 184.328C288.127 184.328 291.153 187.754 291.153 191.98C291.153 192.185 291.146 192.387 291.132 192.588Z" fill="#A1E6D1"/>
<path d="M88.6876 192.5H186.687C186.687 197.736 191.451 201.5 196.687 201.5C201.924 201.5 206.687 197.736 206.687 192.5L305.67 192.119" stroke="#E6EAFF"/>
</g>
<defs>
<clipPath id="clip0_5382_81572">
<rect width="384" height="216" fill="white"/>
</clipPath>
</defs>
</svg>
