<svg width="384" height="216" viewBox="0 0 384 216" fill="none" xmlns="http://www.w3.org/2000/svg">
<g clip-path="url(#clip0_7624_27926)">
<circle opacity="0.03" cx="195.5" cy="120.5" r="93.5" stroke="#2A3070" stroke-width="60"/>
<path fill-rule="evenodd" clip-rule="evenodd" d="M225.965 191.588H166.035C166.012 191.387 166 191.185 166 190.98C166 186.754 171.023 183.328 177.219 183.328C179.435 183.328 181.501 183.766 183.241 184.522C185.961 181.793 190.551 180 195.755 180C201.056 180 205.72 181.86 208.42 184.676C210.227 183.826 212.419 183.328 214.781 183.328C220.977 183.328 226 186.754 226 190.98C226 191.185 225.988 191.387 225.965 191.588Z" fill="#A1E6D1"/>
<path d="M161.329 120.63C159.043 124.561 164.626 127.789 166.658 130.138C172.243 136.594 160.56 146.56 151.287 145.351C142.015 144.142 137.879 130.832 143.817 118.986C146.208 114.215 146.345 112.751 142.697 102.661C139.048 92.5712 152.224 91.8522 154.375 83.3339C156.529 74.8022 149.193 65.4772 156.592 57.6482C161.599 52.3494 170.034 61.8123 171.36 66.2374C175.824 81.1316 161.417 85.2656 165.302 91.3147C168.982 96.3322 175.558 100.816 173.878 107.971C172.627 113.297 164.1 115.866 161.329 120.63Z" fill="#2A3070"/>
<path d="M163.175 69.3818C155.119 109.285 152.431 147.97 152.178 192.731" stroke="#6672F8"/>
<path d="M289.736 135.387C287.936 138.482 292.332 141.024 293.933 142.874C298.33 147.958 289.13 155.806 281.828 154.854C274.527 153.901 271.269 143.42 275.946 134.092C277.829 130.336 277.937 129.182 275.064 121.237C272.19 113.291 282.566 112.725 284.259 106.017C285.956 99.299 280.179 91.9558 286.005 85.7907C289.948 81.6182 296.591 89.0699 297.635 92.5545C301.15 104.283 289.805 107.538 292.864 112.302C295.762 116.253 300.941 119.784 299.618 125.418C298.633 129.612 291.918 131.635 289.736 135.387Z" fill="#B3BFFF"/>
<path d="M291.19 95.0857C284.846 126.508 282.729 156.971 282.53 192.219" stroke="#2A3070"/>
<path d="M114.048 149.566C100.473 125.284 123.411 111.583 102.004 85.2548C61.3912 35.3077 130.957 26.2933 133.698 60.5908C134.449 69.9463 134.473 86.5726 137.914 95.5737C140.286 101.778 158.201 108.87 157.11 136.25C156.034 163.174 145.286 191.672 143.343 192.593C135.289 185.815 117.012 154.864 114.048 149.566Z" fill="#B3BFFF"/>
<path d="M111.152 54.6864C120.046 82.0056 149.371 127.41 142.88 192.28" stroke="white" stroke-linecap="round"/>
<path d="M234.513 190.977C234.103 167.021 219.117 83.3631 200.703 50.8164" stroke="#B3BFFF" stroke-linecap="round"/>
<path d="M201.195 79.9826C204.501 81.767 212.024 86.3566 215.667 90.4394C218.902 78.8509 220.171 74.1635 220.4 73.2684" stroke="#B3BFFF" stroke-linecap="round"/>
<path d="M194.722 62.8615C198.215 64.299 206.214 68.0903 210.266 71.7549C212.407 60.0529 213.232 55.3236 213.377 54.4216" stroke="#B3BFFF" stroke-linecap="round"/>
<path d="M231.267 68.1532C234.678 79.0006 233.377 90.2776 230.581 99.043C229.184 103.424 227.419 107.161 225.698 109.888C224.837 111.252 223.993 112.354 223.219 113.155C222.434 113.967 221.763 114.426 221.255 114.577C220.74 114.731 219.917 114.727 218.806 114.507C217.709 114.289 216.386 113.871 214.901 113.253C211.932 112.017 208.356 109.997 204.716 107.245C197.432 101.737 189.941 93.3341 186.53 82.4871C183.111 71.6156 183.596 60.6464 185.973 52.0563C187.162 47.7613 188.821 44.0756 190.688 41.3016C192.56 38.5187 194.606 36.7081 196.549 36.0608C198.937 35.3513 201.86 35.6027 205.042 36.762C208.223 37.9209 211.628 39.975 214.948 42.8137C221.587 48.4911 227.844 57.2694 231.267 68.1532Z" stroke="#B3BFFF" stroke-linecap="round"/>
<path d="M88.6876 192.5H186.687H206.687L305.67 192.119" stroke="#2A3070"/>
<path fill-rule="evenodd" clip-rule="evenodd" d="M118.396 134.364C118.894 135.028 119.344 135.714 119.747 136.417C120.055 136.955 119.812 137.677 119.267 137.915L109.946 141.984C108.845 142.465 108.356 143.803 108.856 144.972C109.356 146.141 110.654 146.7 111.756 146.219L120.904 142.226C121.424 141.998 121.995 142.314 122.101 142.917C123.443 150.499 120.46 158.675 113.736 163.759C106.998 168.854 98.3309 169.461 91.4455 166.041C90.887 165.763 90.7729 164.949 91.1994 164.432L97.0524 157.334C97.9124 156.291 97.8085 154.788 96.8202 153.977C95.832 153.166 94.3336 153.353 93.4736 154.396L87.2569 161.935C86.9088 162.357 86.3326 162.41 85.9681 162.032C85.3922 161.435 84.8473 160.796 84.3377 160.116C83.5353 159.044 82.9313 157.746 82.4903 156.29C82.3832 155.936 82.4698 155.541 82.702 155.259L89.9097 146.518C90.7697 145.475 90.6658 143.972 89.6775 143.161C88.6892 142.35 87.1909 142.538 86.3308 143.581L83.0446 147.566C82.4693 148.263 81.4704 147.866 81.4926 146.932C81.6985 138.264 84.1185 128.871 84.8524 126.206C84.9753 125.76 85.3382 125.463 85.7514 125.467C88.3982 125.492 98.1827 125.742 106.617 127.975C107.483 128.204 107.507 129.515 106.662 129.883L101.535 132.122C100.433 132.603 99.9446 133.941 100.444 135.11C100.944 136.279 102.243 136.838 103.345 136.356L114.499 131.487C114.762 131.373 115.053 131.391 115.29 131.547C116.543 132.37 117.602 133.304 118.396 134.364ZM88.3471 136.224C88.8123 136.845 88.6702 137.742 88.0298 138.226C87.3894 138.71 86.4931 138.599 86.0279 137.978C85.5627 137.356 85.7048 136.46 86.3452 135.976C86.9856 135.492 87.8819 135.603 88.3471 136.224ZM115.498 153.332C116.772 152.37 117.428 151.089 116.965 150.471C116.502 149.853 115.094 150.132 113.821 151.094C112.548 152.056 111.891 153.337 112.354 153.955C112.817 154.573 114.225 154.294 115.498 153.332Z" fill="#FCA081"/>
<path fill-rule="evenodd" clip-rule="evenodd" d="M144.809 159.486C144.532 159.974 144.23 160.439 143.905 160.881C143.592 161.307 143.007 161.322 142.611 160.945L137.243 155.83C136.548 155.167 135.476 155.163 134.849 155.821C134.221 156.479 134.277 157.549 134.972 158.212L139.946 162.951C140.431 163.414 140.408 164.233 139.871 164.556C135.274 167.327 129.152 167.46 123.929 164.386C118.717 161.319 115.773 155.865 115.819 150.433C115.825 149.805 116.371 149.406 116.93 149.577L123.504 151.585C124.31 151.831 125.159 151.335 125.402 150.478C125.644 149.62 125.188 148.726 124.382 148.48L117.571 146.4C117.015 146.23 116.691 145.572 116.924 145.016C117.139 144.505 117.385 144.002 117.664 143.51C118.114 142.717 118.752 141.988 119.53 141.32C119.749 141.132 120.042 141.08 120.321 141.165L128.709 143.726C129.515 143.972 130.364 143.477 130.607 142.619C130.849 141.762 130.393 140.868 129.587 140.622L126.3 139.618C125.418 139.348 125.301 138.069 126.144 137.76C131.717 135.722 138.13 134.832 140.192 134.585C140.596 134.536 140.99 134.783 141.164 135.198C141.999 137.184 144.379 143.148 145.434 148.984C145.602 149.913 144.648 150.444 143.985 149.812L141.448 147.394C140.752 146.731 139.68 146.727 139.053 147.385C138.426 148.043 138.481 149.113 139.177 149.776L145.419 155.724C145.675 155.969 145.808 156.336 145.748 156.689C145.57 157.732 145.267 158.678 144.809 159.486ZM134.87 139.683C134.596 140.167 133.96 140.316 133.45 140.017C132.941 139.717 132.75 139.081 133.025 138.597C133.299 138.112 133.935 137.963 134.445 138.263C134.955 138.562 135.145 139.198 134.87 139.683ZM131.161 162.693C132.169 163.284 133.208 163.372 133.482 162.892C133.755 162.411 133.16 161.542 132.153 160.952C131.145 160.361 130.106 160.273 129.832 160.753C129.558 161.234 130.153 162.103 131.161 162.693Z" fill="#2A3070"/>
<path d="M90.9044 132.721C102.964 144.779 119.198 171.214 123.836 191.62" stroke="#2A3070" stroke-linecap="round"/>
<path d="M139.606 138.75C112.008 170.628 132.115 176.071 123.835 191.621" stroke="#6672F8" stroke-linecap="round"/>
<path d="M226.337 145.823C226.521 172.393 240.357 187.425 247.252 191.62C250.93 173.266 231.623 115.583 230.014 107.193C228.406 98.8023 226.107 112.611 226.337 145.823Z" fill="#2A3070"/>
<path d="M237.34 118.894C235.448 151.779 242.387 181.08 246.093 191.62C254.847 191.62 249.405 174.054 253.664 159.122C257.922 144.19 242.308 124.691 244.437 86.571C246.567 48.4511 239.706 77.7876 237.34 118.894Z" fill="#6672F8" stroke="#6672F8"/>
<path d="M261.794 113.8C264.412 151.14 254.088 190.443 248.297 191.726C239.364 191.256 255.549 114.883 255.977 95.3347C256.404 75.7867 259.175 76.4613 261.794 113.8Z" fill="#2A3070"/>
<path d="M274.537 128.241C263.273 177.064 258.704 190.492 251.694 191.199C246.024 189.466 254.81 171.436 261.941 151.189C266.957 136.947 266.332 122.311 274.161 110.831C281.991 99.3502 285.801 79.4183 274.537 128.241Z" stroke="#6672F8"/>
<path fill-rule="evenodd" clip-rule="evenodd" d="M305.169 193V122.772C305.169 63.239 256.909 14.9783 197.376 14.9783C137.843 14.9783 89.5828 63.239 89.5828 122.772V193H88.5828V122.772C88.5828 62.6867 137.291 13.9783 197.376 13.9783C257.461 13.9783 306.169 62.6867 306.169 122.772V193H305.169Z" fill="#6672F8"/>
<path d="M274.79 170.022C274.125 176.198 274.086 183.489 274.909 188.85C274.984 189.224 275.046 189.586 275.092 189.934L274.105 190.091C274.041 189.743 273.98 189.386 273.924 189.02C273.047 184.665 270.205 178.4 267.349 173.421C265.805 170.73 264.279 168.455 263.089 167.088C262.48 166.39 262.011 165.99 261.709 165.854C261.66 165.832 261.626 165.821 261.604 165.816C261.595 165.835 261.582 165.866 261.569 165.912L261.563 165.936L261.554 165.958C259.905 170.209 260.961 174.842 263.394 179.035C263.471 179.168 263.548 179.3 263.624 179.431C265.535 182.723 267.209 185.607 269.06 187.702C270.97 189.862 273.015 191.12 275.64 191.12C283.49 191.12 288.505 185.524 291.431 179.459C292.89 176.435 293.81 173.328 294.288 170.821C294.527 169.567 294.654 168.472 294.684 167.618C294.699 167.191 294.689 166.832 294.66 166.549C294.643 166.383 294.62 166.255 294.596 166.159C294.521 166.184 294.413 166.231 294.268 166.315C293.838 166.564 293.248 167.039 292.527 167.723C291.095 169.084 289.24 171.183 287.281 173.671C283.358 178.65 279.069 185.113 276.932 190.194L276.004 189.82C279.298 181.256 280.701 172.34 280.155 163.486L280.155 163.486C280.092 162.471 279.957 161.002 279.622 159.837C279.453 159.249 279.247 158.789 279.011 158.503C278.792 158.236 278.588 158.158 278.35 158.199C278.11 158.24 277.779 158.473 277.396 159.088C277.026 159.682 276.668 160.538 276.337 161.619C275.675 163.775 275.145 166.727 274.79 170.022ZM261.623 165.787C261.623 165.787 261.622 165.788 261.62 165.79C261.622 165.788 261.623 165.787 261.623 165.787Z" fill="#FCA081" stroke="#FCA081"/>
<ellipse cx="196.877" cy="8.48895" rx="5.48958" ry="5.48895" fill="#6672F8"/>
<path d="M165.814 35.813C169.056 30.1562 159.307 23.7095 158.969 31.846C158.921 32.9892 159.483 34.4499 159.056 33.6071C158.958 33.4111 158.946 33.3974 158.791 33.2126C157.326 31.4712 157.666 30.5302 157.407 30.4215C157.349 30.3984 157.284 30.4069 157.236 30.4437C156.57 30.9503 157.063 32.1857 157.53 32.8455C158.075 33.6173 158.328 33.9125 158.316 34.0075C157.646 33.9793 154.661 32.5135 154.656 33.7217C154.656 34.4602 155.596 33.5865 158.304 35.0874C157.117 35.0129 154.335 34.8384 153.323 36.8142C151.703 39.9708 156.462 44.1098 161.328 41.2475C161.924 44.2176 165.205 45.0784 165.796 42.359C165.976 41.535 165.763 40.9463 165.536 40.1514C166.521 40.2643 168.596 40.367 168.958 38.5966C169.299 36.9408 167.487 36.1356 165.812 35.813H165.814ZM162.285 40.2386C162.301 39.9973 162.605 39.4933 162.122 39.2529C161.766 39.0732 161.496 39.3196 161.243 39.6208C160.446 40.5698 159.514 41.2518 158.29 41.2073C151.654 40.5929 153.315 34.8743 158.64 36.0235C158.949 36.0903 159.237 36.2229 159.541 36.3641C160.773 36.9357 160.375 36.5275 160.746 36.9904C161.135 37.4756 161.942 38.487 163.742 39.3616C164.735 39.8459 165.209 41.4922 164.809 42.4352C164.11 44.0858 162.124 42.5961 162.286 40.2369L162.285 40.2386ZM161.433 35.8498C161.35 35.8053 161.291 35.7762 161.28 35.7762C160.518 34.4876 159.659 33.3281 159.774 31.846C159.654 29.6146 161.482 28.0932 163.406 29.3134C165.069 30.365 165.656 32.315 165.501 33.7808C165.343 35.2697 164.716 35.7531 164.301 36.0731C164.044 36.2708 163.778 36.4762 163.945 36.8381C164.128 37.2326 164.413 37.1316 164.687 37.0324C167.127 36.1579 168.979 38.1071 167.662 38.9953C166.66 39.6576 165.137 39.3367 164.411 38.422C163.078 36.7397 161.925 36.1176 161.433 35.8515V35.8498Z" fill="#000091"/>
<path d="M181.879 122.559C181.029 122.032 179.635 121.807 180.469 121.853C180.672 121.863 180.682 121.86 180.89 121.822C182.886 121.453 183.476 122.13 183.67 121.977C183.924 121.78 183.408 120.84 181.727 121.006C180.797 121.098 180.543 121.15 180.478 121.105C180.79 120.601 183.231 118.932 182.294 118.402C182.02 118.247 181.897 118.449 181.777 118.644C181.285 119.446 180.446 120.131 179.643 120.62C180.218 119.735 181.562 117.662 180.463 116.012C178.694 113.359 173.407 115.268 173.523 120.254C170.953 119.413 168.845 121.566 170.713 123.221C171.278 123.722 171.828 123.815 172.547 123.987C172.032 124.699 171.048 126.258 172.271 127.316C173.414 128.304 174.826 127.264 175.809 126.107C178.809 131.095 188.081 126.392 181.881 122.558L181.879 122.559ZM181.922 127.1C180.379 127.922 178.604 127.521 177.528 126.758C175.648 125.424 176.685 124.21 175.759 124.21C175.095 124.21 175.695 124.962 174.59 126.271C173.966 127.01 172.613 127.256 172.521 126.136C172.437 125.118 173.326 124.042 174.385 123.879C176.274 123.587 177.262 122.969 177.684 122.706C177.758 122.659 177.81 122.619 177.81 122.619C179.147 122.596 180.424 122.441 181.528 123.18C183.321 124.067 183.711 126.149 181.922 127.1ZM174.731 121.744C175.089 121.504 174.894 121.089 174.79 120.807C174.354 119.613 174.392 118.717 174.872 117.923C178.228 113.077 181.98 116.849 178.763 120.469C178.378 120.902 177.795 121.154 177.398 121.608C177.214 121.718 175.851 121.632 173.94 122.946C173.123 123.507 171.65 123.136 171.089 122.437C170.102 121.012 172.248 120.358 173.892 121.436C174.077 121.557 174.335 122.006 174.731 121.742V121.744Z" fill="#000091"/>
<path d="M251.138 57.1596C250.63 56.4108 249.889 55.5892 248.486 55.6267C251.612 51.508 250.757 49.5493 250.233 48.89C249.446 47.9007 247.889 47.7177 246.36 48.4337C243.76 49.6511 243.011 52.1343 242.454 54.812C242.395 54.7814 242.323 54.7415 242.255 54.704C241.601 54.3411 240.242 53.5869 238.557 54.3028C235.281 55.6948 237.617 60.0433 241.468 59.3197C243.068 59.0195 242.039 59.7109 243.453 59.4743C245.065 59.2025 245.75 58.652 246.301 58.2102C247.219 57.4705 247.206 57.8066 247.346 57.4736C247.402 57.3388 247.471 57.1719 248.084 57.4123C248.342 57.5134 248.842 58.1872 249.09 58.0065C249.131 57.9759 249.154 57.9269 249.151 57.8771C249.122 57.2125 248.734 56.9583 248.235 56.6106C249.291 56.0892 250.035 56.9491 250.945 57.384C251.087 57.4506 251.226 57.2875 251.138 57.1596ZM250 50.6435C249.902 52.3954 248.37 54.7584 246.945 56.031C246.625 56.3166 246.077 56.3955 245.874 56.9337C245.849 56.9391 245.813 56.9452 245.784 56.9437C242.832 56.8687 241.644 59.7569 238.852 57.9376C237.311 56.9345 237.676 55.0685 239.729 55.0348C240.92 55.0149 242.272 55.5134 242.627 56.6596C242.66 56.7684 242.803 56.8036 242.883 56.7201C243.552 56.1106 242.791 54.4353 244.327 51.6183C246.198 48.1871 250.147 47.9559 250 50.6435Z" fill="#2A3070"/>
<ellipse cx="16.5409" cy="35.7904" rx="16.5409" ry="35.7904" transform="matrix(-0.991905 -0.126979 -0.198428 0.980116 225.411 99.6413)" fill="#FCA081"/>
<path d="M197.636 191.34C195.201 176.729 195.521 141.17 204.268 119.082" stroke="#FCEAE3" stroke-linecap="round"/>
<path d="M206.683 137.024C204.594 138.526 199.901 142.265 197.837 145.198C194.294 138.618 192.889 135.951 192.629 135.44" stroke="#FCEAE3" stroke-linecap="round"/>
<path d="M209.786 125.706C207.551 127.03 202.49 130.365 200.125 133.12C197.324 126.247 196.219 123.464 196.017 122.931" stroke="#FCEAE3" stroke-linecap="round"/>
<path d="M100.399 108.94C97.7743 108.909 97.7628 104.681 100.531 104.734C103.271 104.786 103.322 108.976 100.398 108.94H100.399Z" fill="#FCA081"/>
<path d="M105.113 103.944C105.779 103.877 106.695 104.312 106.578 104.687C106.427 105.175 106.282 104.708 103.656 105.554C102.676 105.871 102.043 104.253 105.113 103.944Z" fill="#FCA081"/>
<path d="M96.0622 105.718C94.5262 105.738 94.1227 106.021 94.0079 105.577C93.7973 104.762 97.8869 104.041 97.8218 105.274C97.792 105.849 97.2828 105.702 96.0622 105.718Z" fill="#FCA081"/>
<path d="M94.975 108.355C93.4512 108.25 95.7613 106.309 97.1289 106.572C97.7506 106.691 97.7414 107.659 97.3172 107.742C96.4964 107.902 95.6993 108.139 94.975 108.355Z" fill="#FCA081"/>
<path d="M105.068 107.399C104.265 107.409 103.602 107.519 103.501 106.92C103.337 105.945 106.013 106.06 106.736 106.789C107.328 107.385 105.99 107.387 105.068 107.399Z" fill="#FCA081"/>
<path d="M103.725 108.104C105.313 108.065 106.731 110.7 105.611 110.174C103.434 109.152 102.975 109.051 103.156 108.461C103.242 108.179 103.483 108.089 103.725 108.104Z" fill="#FCA081"/>
<path d="M97.638 108.643C98.4321 108.637 98.4589 109.377 97.965 109.663C95.8402 110.898 95.8953 110.839 95.7223 110.677C95.2452 110.23 96.4711 108.652 97.638 108.643Z" fill="#FCA081"/>
<path d="M165.879 173.942C163.366 174.701 162.085 170.672 164.74 169.89C167.369 169.117 168.677 173.098 165.878 173.942L165.879 173.942Z" fill="#FCA081"/>
<path d="M168.873 167.76C169.489 167.497 170.493 167.636 170.494 168.029C170.496 168.539 170.218 168.138 167.968 169.734C167.128 170.33 166.038 168.977 168.873 167.76Z" fill="#FCA081"/>
<path d="M160.774 172.172C159.315 172.653 159.015 173.043 158.772 172.654C158.327 171.94 162.01 170.024 162.319 171.22C162.463 171.777 161.934 171.79 160.774 172.172Z" fill="#FCA081"/>
<path d="M160.53 175.014C159.044 175.371 160.665 172.826 162.048 172.666C162.677 172.593 162.959 173.519 162.579 173.725C161.844 174.125 161.156 174.59 160.53 175.014Z" fill="#FCA081"/>
<path d="M169.868 171.069C169.106 171.32 168.507 171.624 168.23 171.083C167.781 170.202 170.367 169.508 171.276 169.986C172.02 170.377 170.744 170.781 169.868 171.069Z" fill="#FCA081"/>
<path d="M168.799 172.145C170.303 171.631 172.447 173.718 171.22 173.553C168.837 173.232 168.369 173.274 168.364 172.657C168.362 172.362 168.565 172.203 168.799 172.145Z" fill="#FCA081"/>
<path d="M163.156 174.488C163.912 174.244 164.159 174.941 163.774 175.363C162.119 177.179 162.154 177.107 161.94 177.004C161.351 176.721 162.046 174.848 163.156 174.488Z" fill="#FCA081"/>
<path d="M272.216 70.4641C270.092 68.9218 272.525 65.4649 274.754 67.1068C276.96 68.7324 274.581 72.1817 272.215 70.4637L272.216 70.4641Z" fill="#FCA081"/>
<path d="M278.95 69.1101C279.532 69.4406 280.029 70.3241 279.717 70.5631C279.311 70.8736 279.463 70.4094 276.831 69.5828C275.848 69.2746 276.266 67.5882 278.95 69.1101Z" fill="#FCA081"/>
<path d="M270.538 65.3284C269.273 64.4572 268.78 64.4546 268.943 64.0258C269.242 63.2391 272.997 65.0135 272.231 65.9827C271.874 66.4348 271.543 66.0206 270.538 65.3284Z" fill="#FCA081"/>
<path d="M268.127 66.8525C266.944 65.8858 269.951 65.6364 270.915 66.6416C271.354 67.0983 270.787 67.8829 270.393 67.7053C269.631 67.3616 268.843 67.0948 268.127 66.8525Z" fill="#FCA081"/>
<path d="M276.917 71.9037C276.256 71.4481 275.651 71.155 275.915 70.6073C276.345 69.717 278.462 71.3567 278.631 72.3697C278.769 73.1985 277.676 72.427 276.917 71.9037Z" fill="#FCA081"/>
<path d="M275.413 71.7032C276.732 72.5894 276.367 75.5588 275.756 74.4821C274.57 72.39 274.254 72.0431 274.743 71.6657C274.976 71.4857 275.225 71.5514 275.413 71.7032Z" fill="#FCA081"/>
<path d="M270.134 68.6262C270.786 69.08 270.38 69.6992 269.812 69.6476C267.364 69.4278 267.443 69.4116 267.395 69.1791C267.264 68.5385 269.176 67.9594 270.134 68.6262Z" fill="#FCA081"/>
</g>
<defs>
<clipPath id="clip0_7624_27926">
<rect width="384" height="216" fill="white"/>
</clipPath>
</defs>
</svg>
