<svg width="215" height="156" viewBox="0 0 215 156" fill="none" xmlns="http://www.w3.org/2000/svg">
<mask id="path-1-inside-1_2402_38424" fill="white">
<path fill-rule="evenodd" clip-rule="evenodd" d="M35.2544 68.7007C33.8211 66.3694 33.9158 63.5837 34.5127 61.0196C35.2846 57.7043 34.8251 54.1597 32.9421 51.0935C28.9884 44.6557 20.2563 42.7648 13.4382 46.8702C6.6202 50.9756 4.29816 59.5226 8.2518 65.9604C10.0855 68.9462 12.947 70.954 16.1687 71.8391C18.8366 72.572 21.5259 73.7839 22.9212 76.0532C25.0204 79.4677 29.7037 80.6167 33.1279 78.5574L33.3627 78.4162C36.594 76.473 37.5655 72.4597 35.5845 69.2376L35.2544 68.7007Z"/>
</mask>
<path fill-rule="evenodd" clip-rule="evenodd" d="M35.2544 68.7007C33.8211 66.3694 33.9158 63.5837 34.5127 61.0196C35.2846 57.7043 34.8251 54.1597 32.9421 51.0935C28.9884 44.6557 20.2563 42.7648 13.4382 46.8702C6.6202 50.9756 4.29816 59.5226 8.2518 65.9604C10.0855 68.9462 12.947 70.954 16.1687 71.8391C18.8366 72.572 21.5259 73.7839 22.9212 76.0532C25.0204 79.4677 29.7037 80.6167 33.1279 78.5574L33.3627 78.4162C36.594 76.473 37.5655 72.4597 35.5845 69.2376L35.2544 68.7007Z" fill="white"/>
<path d="M32.9421 51.0935L34.2781 50.4078L32.9421 51.0935ZM13.4382 46.8702L14.3111 48.0978L13.4382 46.8702ZM8.2518 65.9604L6.91581 66.6461L8.2518 65.9604ZM16.1687 71.8391L15.7848 73.2286L16.1687 71.8391ZM33.3627 78.4162L32.4905 77.1882L33.3627 78.4162ZM34.5127 61.0196L32.9984 60.6602L34.5127 61.0196ZM35.2544 68.7007L33.9188 69.387L35.2544 68.7007ZM31.6061 51.7792C33.2724 54.4925 33.6971 57.6591 32.9984 60.6602L36.027 61.3791C36.872 57.7496 36.3778 53.8269 34.2781 50.4078L31.6061 51.7792ZM14.3111 48.0978C20.463 44.3936 28.151 46.1532 31.6061 51.7792L34.2781 50.4078C29.8258 43.1581 20.0496 41.1361 12.5653 45.6426L14.3111 48.0978ZM9.58779 65.2747C6.083 59.5677 8.1053 51.8346 14.3111 48.0978L12.5653 45.6426C5.1351 50.1166 2.51332 59.4774 6.91581 66.6461L9.58779 65.2747ZM16.5526 70.4495C13.7198 69.6712 11.2065 67.9104 9.58779 65.2747L6.91581 66.6461C8.96446 69.982 12.1742 72.2367 15.7848 73.2286L16.5526 70.4495ZM32.4905 77.1882L32.2557 77.3294L34.0001 79.7855L34.2349 79.6443L32.4905 77.1882ZM33.9188 69.387L34.2489 69.924L36.9201 68.5513L36.59 68.0143L33.9188 69.387ZM21.5856 76.7396C24.1389 80.8926 29.8352 82.2902 34.0001 79.7855L32.2557 77.3294C29.5722 78.9432 25.9019 78.0427 24.2568 75.3669L21.5856 76.7396ZM15.7848 73.2286C18.355 73.9347 20.5171 75.0018 21.5856 76.7396L24.2568 75.3669C22.5347 72.566 19.3183 71.2093 16.5526 70.4495L15.7848 73.2286ZM34.2349 79.6443C38.1401 77.2957 39.3142 72.4454 36.9201 68.5513L34.2489 69.924C35.8167 72.474 35.0478 75.6503 32.4905 77.1882L34.2349 79.6443ZM32.9984 60.6602C32.3731 63.3464 32.1896 66.5745 33.9188 69.387L36.59 68.0143C35.4526 66.1644 35.4585 63.8211 36.027 61.3791L32.9984 60.6602Z" fill="#FACF35" mask="url(#path-1-inside-1_2402_38424)"/>
<path d="M32.6401 75.9721C29.8451 74.0993 25.9442 70.0096 22.8085 66.98C21.1491 68.6695 17.9414 67.4329 17.5725 64.3843C17.2794 61.9621 19.6576 63.9358 22.8085 66.98C23.3876 66.3905 23.7781 65.4445 23.7935 64.0949C17.4783 63.8891 22.1511 54.9531 23.5896 62.1212C23.7372 62.8566 23.8002 63.5132 23.7935 64.0949C23.9375 64.0996 24.0872 64.0998 24.2428 64.0951C24.9867 64.0727 25.6074 63.9904 26.1201 63.8615C24.7939 60.7051 24.4119 58.6534 25.3854 58.5705C27.1373 58.4214 30.4175 62.7808 26.1201 63.8615C27.4652 67.0627 29.7815 71.4001 32.6401 75.9721Z" fill="white" stroke="#2A3070" stroke-width="1.5"/>
<path d="M44.8456 92.8924C47.8668 85.3427 54.8446 71.0581 58.5858 74.3174C62.327 77.5767 50.9845 88.0588 44.8456 92.8924Z" stroke="#2A3070" stroke-width="1.5"/>
<line x1="0.75" y1="-0.75" x2="15.7537" y2="-0.75" transform="matrix(0.601595 -0.78745 0.798077 0.606385 45.2368 92.6643)" stroke="#2A3070" stroke-width="1.5" stroke-linecap="round"/>
<ellipse cx="13.2074" cy="13.2484" rx="13.2074" ry="13.2484" transform="matrix(0.80018 0.594419 -0.599009 0.804134 182.452 29.0586)" fill="#FCA081"/>
<path d="M180.846 42.5006L190.834 49.8704L188.513 52.9942C186.458 55.7601 182.556 56.3525 179.798 54.3174C177.04 52.2823 176.47 48.3903 178.525 45.6243L180.846 42.5006Z" stroke="#2A3070" stroke-width="1.5"/>
<line x1="0.75" y1="-0.75" x2="4.53034" y2="-0.75" transform="matrix(0.59875 -0.800641 0.802344 0.587669 183.174 43.9314)" stroke="#2A3070" stroke-width="1.5" stroke-linecap="round"/>
<line x1="0.75" y1="-0.75" x2="4.53033" y2="-0.75" transform="matrix(0.598748 -0.800643 0.802342 0.587671 189.439 48.6177)" stroke="#2A3070" stroke-width="1.5" stroke-linecap="round"/>
<line y1="-0.75" x2="14.1655" y2="-0.75" transform="matrix(0.795862 0.595172 -0.590287 0.805979 178.499 44.2747)" stroke="#2A3070" stroke-width="1.5"/>
<path d="M178.769 54.7935C170.72 64.9987 154.471 95.0294 153.865 133.51" stroke="#2A3070" stroke-width="1.5"/>
<path d="M164.57 81.6866C159.086 75.5877 149.227 62.9315 153.66 61.0988C158.093 59.266 162.781 74.0604 164.57 81.6866Z" stroke="#2A3070" stroke-width="1.5" stroke-linecap="round" stroke-linejoin="bevel"/>
<line x1="0.75" y1="-0.75" x2="15.4932" y2="-0.75" transform="matrix(-0.4564 -0.897494 0.886277 -0.441882 164.484 81.1467)" stroke="#2A3070" stroke-width="1.5" stroke-linecap="round" stroke-linejoin="bevel"/>
<path d="M164.613 81.7926C171.321 77.2981 185.059 69.5845 186.342 74.6855C187.624 79.7864 172.39 81.5489 164.613 81.7926Z" stroke="#2A3070" stroke-width="1.5" stroke-linecap="round" stroke-linejoin="bevel"/>
<line x1="0.75" y1="-0.75" x2="15.7033" y2="-0.75" transform="matrix(0.947961 -0.298969 0.297002 0.95922 164.958 81.8999)" stroke="#2A3070" stroke-width="1.5" stroke-linecap="round" stroke-linejoin="bevel"/>
<path d="M32.6533 76.0166C43.9312 90.8389 57.1422 111.139 57.1422 143.635" stroke="#2A3070" stroke-width="1.5"/>
<line x1="123.209" y1="57.7976" x2="123.209" y2="85.5089" stroke="#2A3070" stroke-width="1.5"/>
<line x1="92.3271" y1="47.6892" x2="92.3271" y2="76.6894" stroke="#2A3070" stroke-width="1.5"/>
<path d="M47.2228 25.583C44.9797 22.2623 47.3588 17.7842 51.3661 17.7842H106.411C108.072 17.7842 109.624 18.609 110.554 19.9854L124.939 41.2808C127.183 44.6014 124.804 49.0796 120.796 49.0796H65.7514C64.0904 49.0796 62.5379 48.2548 61.6081 46.8784L47.2228 25.583Z" fill="#6672F8"/>
<path d="M50.0402 25.5825C47.797 22.2619 50.1761 17.7837 54.1834 17.7837H109.228C110.889 17.7837 112.442 18.6085 113.372 19.9849L127.757 41.2803C130 44.6009 127.621 49.0791 123.614 49.0791H68.5688C66.9078 49.0791 65.3553 48.2543 64.4255 46.8779L50.0402 25.5825Z" fill="#2A3070"/>
<line x1="51.6562" y1="27.3616" x2="118.628" y2="27.3616" stroke="white" stroke-width="1.5"/>
<line x1="58.856" y1="37.6924" x2="126.141" y2="37.6924" stroke="white" stroke-width="1.5"/>
<line x1="58.8517" y1="17.3672" x2="79.8197" y2="48.7657" stroke="white" stroke-width="1.5"/>
<line y1="-0.75" x2="37.7561" y2="-0.75" transform="matrix(0.555353 0.831615 -0.831615 0.555352 71.6855 17.7837)" stroke="white" stroke-width="1.5"/>
<line y1="-0.75" x2="37.7561" y2="-0.75" transform="matrix(0.555353 0.831615 -0.831615 0.555352 85.144 17.7837)" stroke="white" stroke-width="1.5"/>
<line x1="99.2228" y1="17.3672" x2="120.191" y2="48.7657" stroke="white" stroke-width="1.5"/>
<path d="M99.0322 107.284C99.0322 101.762 103.509 97.2844 109.032 97.2844H155.744V140.618C155.744 143.38 153.505 145.618 150.744 145.618H109.032C103.509 145.618 99.0322 141.141 99.0322 135.618V107.284Z" fill="#1EBE8E"/>
<path d="M106.116 97.6676L88.0326 73.7863L127.022 73.7863L155.744 97.6677L106.116 97.6676Z" fill="white"/>
<path d="M54.5645 100.135C54.5645 98.5437 55.3216 97.0477 56.6036 96.1056L85.115 75.1536C86.8766 73.859 89.275 73.859 91.0366 75.1536L119.548 96.1056C120.83 97.0477 121.587 98.5437 121.587 100.135V140.801C121.587 143.562 119.349 145.801 116.587 145.801H59.5645C56.803 145.801 54.5645 143.562 54.5645 140.801V100.135Z" fill="#2A3070"/>
<path d="M79.6982 133.695C79.6982 129.958 82.7278 126.928 86.465 126.928C90.2021 126.928 93.2317 129.958 93.2317 133.695V145.617H79.6982V133.695Z" fill="#FACF35"/>
<path d="M90.1217 42.5676C87.8786 39.247 90.2577 34.7688 94.265 34.7688H133.812C135.473 34.7688 137.025 35.5936 137.955 36.97L147.459 51.0385C149.702 54.3592 147.323 58.8374 143.315 58.8374H103.768C102.108 58.8374 100.555 58.0125 99.6252 56.6362L90.1217 42.5676Z" fill="#000091"/>
<path d="M92.2868 42.5688C90.0436 39.2482 92.4227 34.77 96.43 34.77H135.977C137.638 34.77 139.19 35.5948 140.12 36.9712L149.624 51.0398C151.867 54.3604 149.488 58.8386 145.48 58.8386H105.934C104.273 58.8386 102.72 58.0138 101.79 56.6374L92.2868 42.5688Z" fill="#6672F8"/>
<line x1="92.3125" y1="41.9636" x2="143.819" y2="41.9636" stroke="white" stroke-width="1.5"/>
<line x1="97.8501" y1="49.907" x2="149.597" y2="49.907" stroke="white" stroke-width="1.5"/>
<line x1="97.9933" y1="34.3535" x2="114.119" y2="58.5014" stroke="white" stroke-width="1.5"/>
<line y1="-0.75" x2="29.0373" y2="-0.75" transform="matrix(0.555352 0.831615 -0.831615 0.555353 107.717 34.77)" stroke="white" stroke-width="1.5"/>
<line x1="118.69" y1="34.3535" x2="134.816" y2="58.5014" stroke="white" stroke-width="1.5"/>
<line x1="129.041" y1="34.3535" x2="145.167" y2="58.5014" stroke="white" stroke-width="1.5"/>
<line x1="76.5815" y1="95.457" x2="76.5815" y2="115.224" stroke="white" stroke-width="1.5" stroke-linecap="round"/>
<line x1="87.5371" y1="95.4573" x2="87.5371" y2="115.224" stroke="white" stroke-width="1.5" stroke-linecap="round"/>
<line x1="98.4956" y1="95.4573" x2="98.4956" y2="115.224" stroke="white" stroke-width="1.5" stroke-linecap="round"/>
<path d="M130.436 4.02885C129.323 8.15244 125.079 10.5934 120.955 9.48085C116.831 8.36831 114.39 4.12359 115.503 0" stroke="#FACF35" stroke-width="6.5"/>
<circle cx="76.4757" cy="99.2133" r="2.5778" fill="#FACF35"/>
<circle cx="87.4313" cy="110.817" r="2.5778" fill="#FACF35"/>
<circle cx="98.3879" cy="108.24" r="2.5778" fill="#FACF35"/>
<path opacity="0.2" fill-rule="evenodd" clip-rule="evenodd" d="M166.766 23.3605H133.854C133.841 23.2236 133.834 23.0852 133.834 22.9455C133.834 20.0548 136.593 17.7113 139.996 17.7113C141.213 17.7113 142.347 18.0109 143.302 18.5278C144.796 16.6612 147.317 15.4351 150.174 15.4351C153.086 15.4351 155.647 16.7077 157.13 18.6338C158.123 18.052 159.326 17.7113 160.624 17.7113C164.027 17.7113 166.785 20.0548 166.785 22.9455C166.785 23.0852 166.779 23.2236 166.766 23.3605Z" fill="#6672F8"/>
<circle opacity="0.03" cx="98.9919" cy="86.5" r="63.365" stroke="#2A3070" stroke-width="60"/>
</svg>
