<svg width="195" height="104" viewBox="0 0 195 104" fill="none" xmlns="http://www.w3.org/2000/svg">
<path d="M194.727 48.1643C175.571 56.0971 142.697 59.1491 117.494 42.155C102.218 59.9942 89.0396 73.2958 77.6782 83.0234C94.0094 92.2251 107.046 99.4811 122.405 97.7977C125.54 97.5602 128.208 97.1209 130.484 96.5138C138.174 94.8974 144.217 92.4357 146.938 90.2084C155.421 83.266 170.743 70.6717 194.727 48.1643Z" fill="#E3E3FD"/>
<path d="M119.227 63.2607C120.727 61.7607 124.127 58.9608 127.727 59.7608C132.227 60.7608 139.266 62.9008 148.727 63.7607C154.228 64.2607 149.229 68.2607 145.728 73.2607L141.228 78.2607C137.728 81.7607 135.728 83.7607 132.228 83.7607C127.203 83.7607 123.227 83.2607 112.227 78.2607C111.227 77.9274 109.024 76.2607 110.224 74.2607C111.424 72.2607 111.727 72.261 113.227 70.261" stroke="#000091" stroke-width="2"/>
<path d="M122.727 66.7607C124.226 70.2607 123.726 74.7607 123.727 76.7607C123.727 77.2578 146.894 65.9274 157.728 60.7607" stroke="#1EBE8E" stroke-width="2" stroke-linecap="round"/>
<g clip-path="url(#clip0_8166_466089)">
<path fill-rule="evenodd" clip-rule="evenodd" d="M99.747 73.4122L99.7479 73.4111L98.3853 64.8666L118.305 61.6829L123.255 65.2723L119.668 70.2274L99.747 73.4122ZM90.984 73.353L90.0747 67.6554C89.9493 66.8691 90.4845 66.1298 91.2701 66.0041L95.5392 65.3226L96.9026 73.8659L92.6339 74.5494C91.8482 74.6749 91.1096 74.1393 90.984 73.353Z" fill="#00BE8B"/>
</g>
<path d="M50.7586 40.7729L48.5156 41.8523L73.8776 3.79712C77.3114 6.47681 79.481 9.43601 79.481 14.1361C79.481 17.7043 71.0126 31.0877 66.7784 38.716C61.0158 37.835 55.9813 38.2597 50.7586 40.7729Z" fill="#FAD214"/>
<path d="M35.9705 102.421C21.007 102.421 5.8062 81.9516 1.76464 76.0974C1.11116 75.1508 1.10975 73.9284 1.713 72.949L42.0977 7.38463C42.7087 6.3926 44.0386 6.12643 44.9585 6.84138C46.2877 7.87437 47.5621 8.96397 48.7386 10.1692C49.3633 10.8091 49.4267 11.7964 48.9385 12.5456L29.2142 42.8108C28.814 43.4198 29.0048 44.2995 29.6082 44.6963C30.2353 45.1069 31.0831 44.9297 31.4933 44.3033L59.0085 2.09305C59.6502 1.10869 61.0046 0.880205 61.8846 1.65886C63.9495 3.48593 65.752 5.57012 66.7904 8.14525C67.0176 8.7087 66.9202 9.34385 66.5834 9.84944L39.7507 50.1234L39.5637 50.5439C39.5351 50.7049 39.5133 50.8499 39.5238 51.0143C39.5276 51.1616 39.5673 51.3175 39.6298 51.4511L39.7931 51.7256L40.2357 52.1012L40.3928 52.1761L40.8654 52.2647L41.0649 52.2472L41.6035 52.0576L41.7593 51.9315L41.99 51.6869C45.9373 46.0303 51.8607 42.2505 58.6656 41.0413C65.4693 39.8321 73.1067 41.7107 77.9882 45.2991C81.7374 48.0551 90.3374 53.9947 94.1252 56.6018C95.1119 57.2809 95.2855 58.6709 94.4328 59.512C90.6265 63.2665 85.3512 66.3426 80.2923 62.8966C75.3125 59.4953 69.6539 54.1887 63.573 53.2992C58.8364 52.6041 54.5949 54.572 51.6263 58.831C49.084 62.4837 48.7357 66.8974 50.675 70.9105C52.9417 75.585 56.8254 78.1931 61.6105 78.2467C68.2991 78.3214 75.1035 73.5365 80.8122 70.6472C87.0211 67.5149 92.0769 70.2075 95.9863 75.1583C96.7114 76.0765 96.3904 77.4052 95.3694 77.9766L73.3976 90.2725C72.4563 90.8303 53.4309 102.421 35.9705 102.421Z" fill="#FAD214"/>
<defs>
<clipPath id="clip0_8166_466089">
<rect width="34.5917" height="34.6012" fill="white" transform="matrix(-0.809544 -0.587059 0.586383 -0.810034 109 92.3354)"/>
</clipPath>
</defs>
</svg>
