<svg width="246" height="158" viewBox="0 0 246 158" fill="none" xmlns="http://www.w3.org/2000/svg">
<path d="M246 60.6904C221.708 70.7407 180.023 74.6073 148.065 53.0771C128.694 75.678 111.984 92.5302 97.5769 104.854C118.286 116.512 134.816 125.705 154.293 123.572C158.267 123.271 161.651 122.715 164.537 121.946C174.288 119.898 181.95 116.779 185.401 113.957C196.158 105.162 215.588 89.2056 246 60.6904Z" fill="#E3E3FD"/>
<path d="M150.734 79.3171C159.261 77.7945 175.217 76.211 170.832 82.0577C165.351 89.3661 135.204 95.761 136.117 102.156C137.031 108.551 157.129 112.205 165.351 108.551" stroke="#000091"/>
<g clip-path="url(#clip0_5215_208143)">
<path fill-rule="evenodd" clip-rule="evenodd" d="M122.44 89.1739L122.441 89.1725L120.713 78.3472L145.972 74.3138L152.249 78.8612L147.7 85.139L122.44 89.1739ZM111.328 89.0989L110.175 81.8805C110.016 80.8842 110.694 79.9477 111.69 79.7884L117.104 78.925L118.833 89.7488L113.42 90.6147C112.423 90.7737 111.487 90.0951 111.328 89.0989Z" fill="#000091"/>
</g>
<path d="M63.4418 51.326L60.5977 52.6935L92.7577 4.48035C97.1119 7.87532 99.863 11.6244 99.863 17.5791C99.863 22.0997 89.1248 39.0556 83.7556 48.72C76.4484 47.6038 70.0645 48.1419 63.4418 51.326Z" fill="#FAD214"/>
<path d="M44.6908 129.429C25.3596 129.429 5.71606 102.512 1.04229 95.6809C0.392277 94.7309 0.38385 93.4971 0.987928 92.5173L52.7641 8.5326C53.3752 7.54135 54.703 7.27673 55.6285 7.98345C57.5866 9.47865 59.4586 11.0603 61.1612 12.8431C61.7792 13.4902 61.8435 14.4773 61.3547 15.2268L36.1235 53.9078C35.616 54.6793 35.8579 55.7939 36.6231 56.2967C37.4183 56.8168 38.4934 56.5923 39.0135 55.7987L74.2243 1.8303C74.866 0.846753 76.2174 0.620467 77.1082 1.38565C79.9746 3.84767 82.4944 6.67041 83.8656 10.2273C84.0843 10.7946 83.9885 11.4293 83.6512 11.9351L49.4843 63.1723L49.2471 63.7051C49.2108 63.9091 49.1832 64.0928 49.1965 64.3011C49.2013 64.4877 49.2517 64.6853 49.3309 64.8544L49.538 65.2023L50.0993 65.6781L50.2985 65.773L50.8977 65.8852L51.1506 65.8631L51.8336 65.6228L52.0312 65.4631L52.3237 65.1533C57.329 57.9867 64.8402 53.198 73.4691 51.666C82.0965 50.1341 91.781 52.5141 97.971 57.0603C102.897 60.6779 114.425 68.6254 118.929 71.7208C119.917 72.3996 120.087 73.7869 119.248 74.642C114.394 79.5854 107.498 83.8503 100.893 79.3551C94.5781 75.0458 87.4026 68.3228 79.6918 67.1959C73.6857 66.3153 68.3073 68.8085 64.543 74.2043C61.3192 78.832 60.8776 84.4238 63.3367 89.5081C66.2109 95.4304 71.1356 98.7346 77.2034 98.8026C85.6848 98.8971 94.313 92.8351 101.552 89.1745C109.614 85.1107 116.143 88.7857 121.148 95.347C121.858 96.2778 121.539 97.6059 120.517 98.1771L92.1498 114.038C90.9562 114.745 66.8313 129.429 44.6908 129.429Z" fill="#FAD214"/>
<defs>
<clipPath id="clip0_5215_208143">
<rect width="43.8505" height="43.8505" fill="white" transform="translate(134.175 113.148) rotate(-144.075)"/>
</clipPath>
</defs>
</svg>
