<svg width="206" height="165" viewBox="0 0 206 165" fill="none" xmlns="http://www.w3.org/2000/svg">
<g clip-path="url(#clip0_8771_454195)">
<path fill-rule="evenodd" clip-rule="evenodd" d="M51.7266 47.1117C51.7266 43.055 48.4372 39.7664 44.3802 39.7664C40.3232 39.7664 37.0338 43.055 37.0338 47.1117C37.0338 51.1684 40.3232 54.457 44.3802 54.457C48.4372 54.457 51.7266 51.1684 51.7266 47.1117ZM44.3802 40.1294C48.2367 40.1294 51.3635 43.2555 51.3635 47.1117C51.3635 50.9679 48.2367 54.094 44.3802 54.094C40.5237 54.094 37.3969 50.9679 37.3969 47.1117C37.3969 43.2555 40.5237 40.1294 44.3802 40.1294Z" fill="black"/>
<path fill-rule="evenodd" clip-rule="evenodd" d="M48.5312 47.1117C48.5312 44.8194 46.6724 42.961 44.3799 42.961C42.0874 42.961 40.2286 44.8194 40.2286 47.1117C40.2286 49.4042 42.0874 51.2625 44.3799 51.2625C46.6724 51.2625 48.5312 49.4042 48.5312 47.1117ZM44.3799 43.324C46.4719 43.324 48.1682 45.0199 48.1682 47.1117C48.1682 49.2037 46.4719 50.8995 44.3799 50.8995C42.2879 50.8995 40.5916 49.2037 40.5916 47.1117C40.5916 45.0199 42.2879 43.324 44.3799 43.324Z" fill="black"/>
<path fill-rule="evenodd" clip-rule="evenodd" d="M56.2266 35.5736C56.2266 33.8157 54.8012 32.3906 53.0432 32.3906H35.7174C33.9594 32.3906 32.534 33.8157 32.534 35.5736V52.8968C32.534 54.6547 33.9594 56.0797 35.7174 56.0797H53.0432C54.8012 56.0797 56.2266 54.6547 56.2266 52.8968V35.5736ZM53.0432 32.7536C54.6007 32.7536 55.8635 34.0162 55.8635 35.5736V52.8968C55.8635 54.4542 54.6007 55.7167 53.0432 55.7167H35.7174C34.1599 55.7167 32.8971 54.4542 32.8971 52.8968V35.5736C32.8971 34.0162 34.1599 32.7536 35.7174 32.7536H53.0432Z" fill="black"/>
<path fill-rule="evenodd" clip-rule="evenodd" d="M56.5078 36.8848C56.5078 36.7845 56.4265 36.7032 56.3263 36.7032H32.9939C32.8937 36.7032 32.8124 36.7845 32.8124 36.8848C32.8124 36.985 32.8937 37.0663 32.9939 37.0663H56.3263C56.4265 37.0663 56.5078 36.985 56.5078 36.8848Z" fill="black"/>
<path fill-rule="evenodd" clip-rule="evenodd" d="M53.5859 34.8577C53.5859 34.4567 53.2606 34.1317 52.8598 34.1317C52.4589 34.1317 52.1337 34.4567 52.1337 34.8577C52.1337 35.2587 52.4589 35.5837 52.8598 35.5837C53.2606 35.5837 53.5859 35.2587 53.5859 34.8577ZM52.8598 34.4947C53.0602 34.4947 53.2229 34.6572 53.2229 34.8577C53.2229 35.0581 53.0602 35.2207 52.8598 35.2207C52.6594 35.2207 52.4967 35.0581 52.4967 34.8577C52.4967 34.6572 52.6594 34.4947 52.8598 34.4947Z" fill="black"/>
<path fill-rule="evenodd" clip-rule="evenodd" d="M51.3477 34.8577C51.3477 34.4567 51.0224 34.1317 50.6215 34.1317C50.2207 34.1317 49.8954 34.4567 49.8954 34.8577C49.8954 35.2587 50.2207 35.5837 50.6215 35.5837C51.0224 35.5837 51.3477 35.2587 51.3477 34.8577ZM50.6215 34.4947C50.8219 34.4947 50.9846 34.6572 50.9846 34.8577C50.9846 35.0581 50.8219 35.2207 50.6215 35.2207C50.4211 35.2207 50.2584 35.0581 50.2584 34.8577C50.2584 34.6572 50.4211 34.4947 50.6215 34.4947Z" fill="black"/>
<path fill-rule="evenodd" clip-rule="evenodd" d="M49.1133 34.8577C49.1133 34.4567 48.788 34.1317 48.3871 34.1317C47.9863 34.1317 47.661 34.4567 47.661 34.8577C47.661 35.2587 47.9863 35.5837 48.3871 35.5837C48.788 35.5837 49.1133 35.2587 49.1133 34.8577ZM48.3871 34.4947C48.5875 34.4947 48.7502 34.6572 48.7502 34.8577C48.7502 35.0581 48.5875 35.2207 48.3871 35.2207C48.1867 35.2207 48.0241 35.0581 48.0241 34.8577C48.0241 34.6572 48.1867 34.4947 48.3871 34.4947Z" fill="black"/>
<path d="M48.6698 113.416H70.3088C72.7552 113.416 74.7383 115.399 74.7383 117.845C74.7383 120.291 72.7552 122.274 70.3088 122.274H48.6698C46.2234 122.274 44.2404 120.291 44.2404 117.845C44.2404 115.399 46.2234 113.416 48.6698 113.416Z" fill="#6672F8"/>
<path d="M46.0693 98.7074H56.8765C59.7927 98.7074 62.1562 101.071 62.1562 103.986V106.8C62.1562 109.716 59.7927 112.079 56.8765 112.079H46.0693C43.1531 112.079 40.7895 109.716 40.7895 106.8V103.986C40.7895 101.071 43.1531 98.7074 46.0693 98.7074Z" fill="#6672F8"/>
<path d="M48.9128 119.251L48.9695 119.236L49.0421 119.267C49.1655 119.267 49.3137 119.263 49.3667 119.267C49.3289 119.267 49.3347 119.276 49.334 119.281C49.3877 119.281 49.4669 119.319 49.4879 119.286C49.6077 119.31 49.4959 119.333 49.6172 119.346L49.5257 119.336L49.5315 119.302C49.4168 119.293 49.4589 119.353 49.3325 119.337L49.2454 119.304C49.1975 119.311 49.1786 119.333 49.1263 119.324C49.135 119.316 49.159 119.31 49.1539 119.295L49.0987 119.304C49.1256 119.28 49.0109 119.32 49.1111 119.272L49.0537 119.293C48.9564 119.274 48.9281 119.304 48.8511 119.301L48.7879 119.262L48.9128 119.251Z" fill="#1D1D1D"/>
<path d="M47.6565 118.018H47.7109C47.6449 118.046 47.6027 118.018 47.5076 118.037L47.6565 118.018Z" fill="#1D1D1D"/>
<path fill-rule="evenodd" clip-rule="evenodd" d="M66.683 140.738L62.2086 122.159L61.8557 122.244L63.7589 130.147H56.6383L58.5415 122.244L58.1886 122.159L53.7142 140.739C53.2516 140.76 52.8827 141.142 52.8827 141.61C52.8827 141.933 53.0599 142.217 53.322 142.366L53.2872 142.511L53.6401 142.596L53.6691 142.476C53.6967 142.479 53.7251 142.481 53.7541 142.481C54.2355 142.481 54.6255 142.091 54.6255 141.61C54.6255 141.241 54.3967 140.926 54.0729 140.799L56.5512 130.51H63.8467L66.3272 140.812C66.0215 140.947 65.808 141.254 65.808 141.61C65.808 142.091 66.198 142.481 66.6794 142.481C66.6961 142.481 66.7128 142.48 66.7288 142.479L66.7571 142.596L67.11 142.511L67.0795 142.383C67.3598 142.239 67.5508 141.946 67.5508 141.61C67.5508 141.13 67.163 140.74 66.683 140.738Z" fill="black"/>
<path d="M63.5718 118.6L63.5399 118.609C63.5333 118.601 63.5725 118.594 63.5399 118.587C63.476 118.607 63.5326 118.587 63.4477 118.587L63.5203 118.582L63.4934 118.557C63.6539 118.551 63.81 118.586 63.9189 118.568L63.9247 118.583C63.9821 118.548 64.1005 118.583 64.1491 118.556C64.2733 118.534 64.3815 118.588 64.4846 118.562C64.5027 118.534 64.4163 118.556 64.4178 118.538L64.4904 118.548L64.5085 118.519C64.563 118.535 64.6218 118.535 64.6763 118.519V118.525C64.7845 118.507 65.0394 118.598 65.1555 118.525L65.2884 118.493C65.332 118.513 65.361 118.52 65.3763 118.527C65.3538 118.527 65.3385 118.527 65.316 118.527C65.3058 118.552 65.3886 118.527 65.3436 118.551L65.271 118.569V118.562C65.2303 118.593 65.1199 118.55 65.0778 118.591C65.0597 118.62 65.1817 118.62 65.2405 118.634L65.2347 118.625C65.2274 118.616 65.3872 118.62 65.3697 118.643C65.3465 118.643 65.353 118.654 65.3523 118.665C65.4445 118.658 65.5048 118.66 65.5818 118.658L65.5876 118.673C65.629 118.643 65.7386 118.691 65.7415 118.657L65.7626 118.678C65.8897 118.705 65.9804 118.653 66.1119 118.689C66.1344 118.681 66.1591 118.678 66.183 118.684C66.207 118.689 66.2288 118.701 66.2462 118.718C66.2324 118.718 66.2193 118.72 66.207 118.725C66.1946 118.73 66.183 118.737 66.1736 118.747C66.1968 118.747 66.2302 118.711 66.2578 118.742C66.1736 118.747 66.1547 118.781 66.0552 118.784C66.0552 118.773 66.0037 118.762 66.0116 118.76C65.8889 118.766 65.7212 118.746 65.6602 118.772C65.5992 118.798 65.7118 118.79 65.6319 118.827L65.6094 118.816C65.6166 118.816 65.5462 118.843 65.5912 118.845C65.5331 118.84 65.4743 118.84 65.4162 118.845L65.4264 118.819C65.2557 118.846 65.1192 118.835 64.9994 118.892L65.0139 118.898L64.8796 118.868C64.852 118.88 64.823 118.888 64.7932 118.89L64.8288 118.918L64.8447 118.913C64.8571 118.937 64.8491 118.939 64.8934 118.953C64.9188 118.952 64.9435 118.946 64.966 118.936L64.8752 118.926C64.9152 118.907 65.0118 118.933 65.0423 118.934C65.0263 118.939 65.0321 118.96 65.0081 118.967C65.0626 118.956 65.1323 118.95 65.194 118.941L65.165 118.928C65.2107 118.928 65.2311 118.952 65.2064 118.971C65.1795 119.008 65.0452 118.971 64.9609 118.977V118.971C64.9609 118.994 64.8622 118.971 64.7859 118.965C64.7939 118.964 64.8026 118.962 64.8092 118.958C64.8164 118.954 64.823 118.949 64.8273 118.941C64.7533 118.928 64.677 118.931 64.6044 118.95L64.6559 118.973C64.6138 119.003 64.5499 118.962 64.4955 118.973C64.5216 118.943 64.526 118.973 64.5732 118.954V118.96C64.6342 118.96 64.5608 118.936 64.6073 118.927C64.5565 118.904 64.5071 118.936 64.457 118.908C64.3815 118.909 64.3067 118.918 64.2326 118.934C64.2515 118.906 64.2275 118.914 64.2326 118.879H64.1869C64.2595 118.868 64.3248 118.874 64.3321 118.86H64.3241C64.3241 118.877 64.3619 118.86 64.3844 118.869C64.3844 118.858 64.3844 118.84 64.433 118.843L64.3967 118.82C64.4947 118.834 64.3728 118.761 64.5151 118.783L64.4998 118.787C64.5434 118.808 64.6073 118.782 64.6683 118.779L64.6523 118.784C64.7583 118.795 64.8375 118.77 64.9798 118.797C65.0742 118.769 65.1715 118.751 65.2703 118.744C65.2594 118.77 65.361 118.744 65.3211 118.773C65.3799 118.787 65.3458 118.753 65.4053 118.768C65.377 118.743 65.462 118.733 65.4482 118.715H65.5092C65.4024 118.715 65.56 118.737 65.4896 118.755C65.4533 118.744 65.4445 118.755 65.4431 118.77C65.4816 118.763 65.5404 118.783 65.5433 118.754L65.5288 118.747C65.56 118.743 65.6203 118.752 65.6224 118.729L65.6079 118.722C65.6442 118.738 65.6682 118.722 65.6885 118.752C65.7306 118.715 65.8766 118.781 65.8744 118.726H65.7974C65.8388 118.695 65.7306 118.708 65.7248 118.687L65.7067 118.71C65.6943 118.686 65.6471 118.701 65.6253 118.691V118.709V118.703C65.5818 118.684 65.5927 118.725 65.5491 118.703C65.5491 118.68 65.6217 118.698 65.6275 118.684C65.6333 118.669 65.568 118.669 65.5687 118.657C65.5978 118.67 65.4293 118.68 65.4961 118.686L65.4685 118.668C65.4438 118.681 65.4366 118.672 65.3908 118.676L65.3857 118.655C65.3131 118.672 65.2035 118.646 65.1976 118.626C65.1091 118.672 65.0372 118.633 64.9849 118.694C65.0386 118.689 64.9566 118.676 65.011 118.664C64.9072 118.665 64.8034 118.661 64.6995 118.651L64.7242 118.632C64.6734 118.631 64.6233 118.626 64.5732 118.618C64.7039 118.61 64.8201 118.59 64.8411 118.606C64.8338 118.606 64.8411 118.617 64.8411 118.623C64.8752 118.59 65.0328 118.612 65.0067 118.57C64.9282 118.596 64.8135 118.519 64.7888 118.583L64.738 118.559C64.7278 118.58 64.661 118.559 64.6284 118.589L64.6378 118.57H64.5695C64.5608 118.578 64.5833 118.582 64.5906 118.585L64.5042 118.612L64.4446 118.592C64.3423 118.625 64.1658 118.564 64.0772 118.609H64.0852C64.0242 118.589 63.9618 118.577 63.8979 118.573C63.9414 118.593 63.8979 118.623 63.8768 118.631C63.9349 118.583 63.7926 118.635 63.7563 118.618C63.7708 118.618 63.7642 118.618 63.7642 118.61H63.7033C63.7163 118.634 63.7091 118.625 63.7033 118.648C63.6495 118.651 63.5965 118.644 63.545 118.631C63.5762 118.626 63.6364 118.612 63.5718 118.6Z" fill="#1D1D1D"/>
<path d="M62.01 89.2465L54.657 89.8753C52.5796 91.5611 49.9371 94.3527 48.8479 98.3764C48.1661 100.911 48.19 103.615 48.8479 106.311C51.165 115.783 61.2816 121.078 70.447 117.746L101.434 93.0015C103.411 90.9203 105.387 88.8411 107.363 86.7642L62.01 89.2465Z" fill="#FAD214"/>
<path fill-rule="evenodd" clip-rule="evenodd" d="M72.5812 142.537C73.2347 135.879 73.8883 129.221 74.5418 122.562L92.5857 122.204C90.2265 128.752 91.063 131.762 92.349 133.286C92.8224 133.849 93.3597 134.215 93.9269 134.601C94.6842 135.117 95.4939 135.669 96.2701 136.771C97.6955 138.795 97.9068 141.107 97.8676 142.725L72.5812 142.537ZM132.703 142.699C131.374 136.068 130.045 129.436 128.716 122.805L149.484 122.227C151.203 126.078 153.792 129.476 157.048 132.157C160.304 134.837 164.138 136.725 168.247 137.672L175.209 138.435C175.742 138.493 176.232 138.753 176.579 139.161C176.926 139.569 177.104 140.095 177.075 140.63C177.047 141.165 176.814 141.669 176.426 142.039C176.038 142.407 175.523 142.614 174.987 142.615L144.432 142.701L144.133 132.789C144.124 132.501 144.05 132.218 143.917 131.963C143.783 131.708 143.593 131.486 143.361 131.314C143.129 131.143 142.862 131.027 142.578 130.974C142.295 130.921 142.003 130.933 141.725 131.009C141.302 131.126 140.932 131.384 140.677 131.741C140.423 132.098 140.299 132.532 140.328 132.97L140.977 142.699H132.703Z" fill="black"/>
<path d="M72.0348 78.1221C87.7434 69.4228 100.882 57.0352 119.203 45.8963C127.667 40.7509 138.053 44.7993 143.038 54.5775C143.049 54.6015 143.11 54.7322 143.207 54.9151C145.463 59.365 147.742 62.2982 148.055 62.7229C149.558 64.7558 151.006 70.1793 151.322 84.0683C154.087 86.6436 164.425 96.8792 165.7 113.255C166.487 123.36 163.471 131.267 161.633 135.202H130.816C126.903 116.342 122.991 97.4804 119.078 78.6158L72.2381 116.526" fill="#FAD214"/>
<path fill-rule="evenodd" clip-rule="evenodd" d="M156.18 72.5251C152.575 64.8384 148.973 57.1513 145.374 49.4641L115.572 60.1186C114.178 60.6167 112.669 60.6973 111.229 60.3502L81.4408 53.1625C81.4401 53.2015 81.4394 53.2404 81.4386 53.2794L72.1724 51.057C64.8086 51.057 58.9566 57.2413 59.3632 64.5924L66.7299 83.1063L90.6773 81.7813L91.2517 75.5756L105.645 81.6957C109.784 82.2623 113.961 82.5106 118.139 82.4385C134.567 82.1494 147.723 76.9271 156.18 72.5251Z" fill="white"/>
<path d="M81.0586 57.7598L51.9679 92.5056C55.526 93.9468 63.0902 96.3848 72.0508 94.418C91.03 90.252 98.0133 70.3391 98.4453 69.0402" fill="#FAD214"/>
<path d="M78.3398 53.1705C59.6976 42.5587 39.9386 41.1096 28.1127 50.3484C27.8905 50.5219 27.5318 50.8014 27.0786 51.1811C25.3359 52.6405 17.5706 59.2677 17.6061 69.1222C17.6134 70.9689 17.8959 72.8042 18.4448 74.5675C20.5223 81.2746 26.1383 86.2864 33.0112 87.7254L59.0332 93.175C60.7759 85.0158 62.5209 76.8572 64.2687 68.6989L38.1276 65.2139L64.1786 73.429L78.3398 53.1705Z" fill="white"/>
<path d="M103.575 97.0644C104.454 101.461 104.76 105.953 104.484 110.428C103.767 121.946 99.3283 130.588 96.4237 135.259L73.3324 135.204C70.5063 122.8 69.5522 110.043 70.5005 97.3562C71.2462 87.4531 73.1487 77.6712 76.1687 68.2103C76.1862 67.127 76.4447 62.8376 79.7944 59.0259C81.9241 56.6024 84.8381 54.9725 88.1239 54.6051C93.1343 54.9485 96.3235 56.6344 98.2173 57.995C107.29 64.5307 109.747 80.3227 103.575 97.0644Z" fill="#FAD214"/>
<path d="M87.0619 93.9439C87.0372 92.775 87.0495 89.7329 87.0619 85.6177L86.807 80.3308C86.6269 74.4324 81.6253 70.1343 75.7304 69.825L64.2342 69.2224C63.2474 73.7166 62.2605 78.2109 61.2744 82.7056L73.6457 80.4092L71.9131 85.1596C71.9727 86.3213 72.7373 87.2579 73.6377 87.4357C74.8104 87.6673 76.2373 86.6175 76.3114 84.9839L77.2198 83.3765L78.9567 84.5693L76.5996 87.9999C76.5103 88.1291 76.4399 88.2701 76.3898 88.4188C76.2627 88.7965 76.27 89.2064 76.4101 89.5793C76.551 89.9522 76.816 90.2651 77.1609 90.465C77.5051 90.6649 77.9089 90.7396 78.3024 90.6762C78.696 90.6129 79.0554 90.4157 79.3198 90.1177L80.6399 89.0708L83.2409 86.9979L83.6301 93.994C83.6352 94.2329 83.681 94.8652 84.1384 95.2573C84.9372 95.9427 86.4418 95.4366 86.8978 94.6322C87.0125 94.4216 87.0691 94.1835 87.0619 93.9439Z" fill="#FCA081"/>
<path fill-rule="evenodd" clip-rule="evenodd" d="M79.804 78.8222C79.7213 78.7656 79.7002 78.6526 79.7568 78.5699C79.8135 78.4872 79.926 78.4661 80.0088 78.5227L80.2506 78.6883L80.2513 78.6884C80.7633 79.0401 81.1176 79.5772 81.2403 80.186C81.3623 80.7948 81.2425 81.4272 80.9063 81.9493L79.1207 84.7221C79.067 84.8063 78.9544 84.8307 78.8702 84.7764C78.786 84.7221 78.7613 84.6098 78.8158 84.5255L80.6013 81.7528C80.8867 81.31 80.9876 80.7737 80.8838 80.2575C80.78 79.7414 80.4793 79.2859 80.0458 78.9877V78.9876L79.804 78.8222ZM84.8355 84.7939C84.8994 84.7168 85.0134 84.7062 85.0911 84.7702C85.168 84.8342 85.1782 84.9486 85.1143 85.0258L83.397 87.095C83.3331 87.1721 83.2191 87.1827 83.1414 87.1188C83.0644 87.0547 83.0535 86.9403 83.1181 86.8631L84.8355 84.7939Z" fill="black"/>
<path d="M78.3498 49.6841C78.6605 49.9728 78.9975 50.2317 79.3562 50.4573C80.8557 51.4012 82.3907 51.5326 83.2773 51.5282" stroke="black" stroke-width="5" stroke-linecap="round" stroke-linejoin="round"/>
<path fill-rule="evenodd" clip-rule="evenodd" d="M38.8214 64.3198C38.8015 64.4181 38.865 64.5138 38.9633 64.5337L63.9113 69.5811C64.0096 69.601 64.1054 69.5374 64.1253 69.4392C64.1451 69.3409 64.0816 69.2452 63.9833 69.2253L39.0353 64.1779C38.937 64.158 38.8413 64.2215 38.8214 64.3198Z" fill="black"/>
<path fill-rule="evenodd" clip-rule="evenodd" d="M73.021 87.4606C72.9208 87.4654 72.8435 87.5504 72.8483 87.6505L73.1269 93.4924C73.1096 93.5248 73.0922 93.5574 73.0748 93.5901C71.9727 95.6555 70.5537 98.3144 70.0682 101.644L70.0682 101.644C69.5276 105.353 69.7477 108.91 70.0203 113.316C70.1061 114.702 70.1971 116.172 70.2712 117.758C70.2759 117.858 70.3609 117.935 70.461 117.93C70.5612 117.926 70.6386 117.841 70.6339 117.741C70.559 116.138 70.4674 114.658 70.3814 113.267C70.1096 108.872 69.8928 105.365 70.4274 101.697C70.9038 98.4302 72.297 95.8191 73.4011 93.7498C73.4245 93.706 73.4477 93.6624 73.4708 93.6191C73.4862 93.5902 73.4935 93.5577 73.492 93.525L73.211 87.6333C73.2062 87.5331 73.1211 87.4558 73.021 87.4606Z" fill="black"/>
<path d="M79.2981 37.5636C76.4299 37.5636 74.104 35.2385 74.104 32.3703C74.104 29.5021 76.4299 27.1769 79.2981 27.1769C82.1671 27.1769 84.4922 29.5021 84.4922 32.3703C84.4922 35.2385 82.1671 37.5636 79.2981 37.5636Z" fill="#6672F8"/>
<path fill-rule="evenodd" clip-rule="evenodd" d="M91.5859 50.201C91.5859 48.2647 90.0161 46.6949 88.0794 46.6949C86.1427 46.6949 84.5729 48.2647 84.5729 50.201C84.5729 52.1373 86.1427 53.707 88.0794 53.707C90.0161 53.707 91.5859 52.1373 91.5859 50.201ZM88.0794 47.058C89.8155 47.058 91.2229 48.4651 91.2229 50.201C91.2229 51.9368 89.8155 53.344 88.0794 53.344C86.3433 53.344 84.9359 51.9368 84.9359 50.201C84.9359 48.4651 86.3433 47.058 88.0794 47.058Z" fill="black"/>
<path d="M76.122 48.171L75.2601 48.0621C74.5398 48.0562 73.8383 47.8369 73.2429 47.4319C72.1624 46.6783 71.4907 45.2712 71.7543 43.8613C71.787 43.6848 72.1108 42.0738 73.2908 41.588C74.0169 41.2889 74.555 41.2606 76.5846 41.4537C77.6643 40.7098 78.8429 40.1197 80.086 39.7003C82.5048 38.8908 84.2613 39.0607 84.8611 37.9143C85.1705 37.3219 85.0361 36.6379 84.8844 36.1718C85.3142 36.2124 85.7412 36.2801 86.1624 36.3744C86.4957 36.4513 88.0627 37.0605 88.4061 37.6086C88.7118 38.098 88.5034 38.2083 88.669 39.0752C88.7213 39.3497 88.7322 39.4658 88.8251 39.5508C88.9478 39.6619 89.0989 39.6517 89.2165 39.6662C89.7887 39.7388 90.1605 40.4765 90.252 40.6551C90.5258 41.1982 90.4829 41.7158 90.4582 41.9692C90.3631 42.9624 89.7829 43.4837 89.7321 44.2235C89.7321 44.2758 89.7081 44.543 89.6704 44.9126C89.6587 45.0251 89.6428 45.1565 89.6188 45.3213C89.5324 45.9387 89.3915 46.5472 89.1991 47.14C89.1918 47.1662 89.1824 47.1916 89.1737 47.2184C89.1461 47.2983 89.1185 47.3767 89.0887 47.4559C89.0401 47.5948 88.9856 47.731 88.9239 47.8646C88.7423 48.2874 88.5187 48.6909 88.2566 49.0691C87.8114 49.7189 87.2298 50.264 86.5523 50.6664C84.9366 51.6182 83.1017 51.5376 82.7263 51.5158C80.3895 51.3793 78.8465 50.1298 78.3694 49.7095L76.1569 49.1918C76.1445 48.8702 76.1351 48.5311 76.122 48.171Z" fill="#FCA081"/>
<path d="M83.3828 51.5666L82.4388 54.7612C82.3154 55.1844 82.0729 55.5632 81.7403 55.8526C81.4077 56.142 80.9989 56.3296 80.5625 56.3933C79.6998 56.5155 78.8234 56.5067 77.9629 56.3672C76.2151 56.0726 74.5958 55.2596 73.3156 54.0337L75.5441 46.5977L83.3828 51.5666Z" fill="#FCA081"/>
<path d="M90.7164 47.3106C89.8748 47.6835 88.9628 47.8714 88.042 47.8617C87.9142 47.8573 87.8148 47.8537 87.7516 47.853C87.7559 47.8791 87.8692 47.9067 88.0166 47.9336C87.989 48.0062 87.9615 48.0788 87.9317 48.1514C87.8801 48.2792 87.8249 48.4051 87.7668 48.5289C87.5831 48.9208 87.3595 49.2926 87.0995 49.6383C84.977 49.027 83.5748 47.0805 83.874 44.9793C84.0918 43.4401 85.1716 42.1994 86.6043 41.6113C86.6696 41.6251 86.7197 41.633 86.7539 41.6396C86.9187 41.6657 87.1758 41.7057 87.4916 41.7405C87.8307 41.779 88.1277 41.8 88.3921 41.8131C89.6606 41.8654 90.1588 41.6759 90.7818 41.9256C91.9523 42.3947 92.2442 43.8859 92.274 44.0478C92.5107 45.3511 91.8971 46.7712 90.7164 47.3106Z" fill="#FCA081"/>
<path fill-rule="evenodd" clip-rule="evenodd" d="M81.6452 45.5453L81.646 45.5455C81.776 45.5664 81.8979 45.4781 81.919 45.3483V45.3476C81.9401 45.2177 81.8515 45.0955 81.7215 45.0745L81.7208 45.0744C81.5915 45.0535 81.4688 45.1418 81.4477 45.2716V45.2724C81.4267 45.4022 81.5153 45.5244 81.6452 45.5453ZM87.5161 45.8704L87.5168 45.8705C87.6468 45.8914 87.7688 45.8032 87.7899 45.6733V45.6725C87.8109 45.5427 87.723 45.4205 87.5931 45.3996L87.5923 45.3994C87.4624 45.3785 87.3404 45.4668 87.3193 45.5966V45.5973C87.2983 45.7272 87.3861 45.8494 87.5161 45.8704Z" fill="black"/>
<path fill-rule="evenodd" clip-rule="evenodd" d="M84.8829 36.1377C84.8909 36.142 84.9068 36.1511 84.9301 36.1648C85.0847 36.1782 85.2641 36.1916 85.4427 36.2049C85.7172 36.2254 85.991 36.2459 86.1783 36.2662C86.3482 36.2974 86.5174 36.3344 86.6866 36.3758C88.494 36.8308 89.3559 38.0924 89.6769 38.5622L89.6863 38.5764C89.7822 38.7166 89.8707 38.862 89.9506 39.0121C90.5054 40.0416 90.5584 41.0576 90.5214 41.7192C90.5628 42.0186 90.6092 42.3578 90.671 42.8063C90.7436 43.3029 90.3522 43.7291 89.91 43.6427H89.8969C89.764 43.6124 89.6435 43.5436 89.5498 43.4451C89.4561 43.3466 89.3937 43.2226 89.3704 43.0887L88.9899 41.2899C88.8621 41.2199 88.7452 41.1485 88.6392 41.0778L88.6102 41.9213C88.5906 42.4738 88.1592 42.8934 87.6662 42.839C87.2719 42.7947 86.956 42.4542 86.9016 42.0149C86.813 41.302 86.7244 40.5893 86.6365 39.8768L86.1965 41.8705C86.0854 42.3787 85.6468 42.7032 85.1871 42.6241C84.7253 42.5442 84.3949 42.081 84.4269 41.559C84.4654 40.9337 84.5038 40.3084 84.543 39.6831C83.9752 39.9586 83.3718 40.0724 82.6333 40.2119C82.1352 40.3059 81.5753 40.4115 80.9232 40.5861C80.0519 40.8205 79.2016 41.1277 78.3817 41.5045L77.4378 42.2306C76.7218 41.8429 75.1816 41.1183 73.7954 41.4203C73.6219 41.4586 73.4534 41.5146 73.2915 41.5873C73.1419 41.649 72.0215 42.3961 71.755 43.8605C71.755 43.8605 71.5081 45.2168 72.256 46.3835C72.3664 46.5513 72.4876 46.7117 72.6191 46.8634C72.8057 47.0748 73.0148 47.2652 73.2428 47.4312C73.9392 47.9169 74.9965 47.8494 75.1744 47.8363L74.8469 48.9319C74.279 48.8331 72.988 48.5231 71.9997 47.4232C70.5307 45.7887 70.8233 43.6232 70.9388 42.7692L70.9395 42.7628C71.4848 38.7202 75.3269 36.7047 76.3856 36.386C76.7668 36.2682 77.1582 36.1887 77.5554 36.1486C77.7086 36.1348 78.3541 36.0861 79.1667 36.0535C80.7831 35.9886 80.9835 35.9988 81.3408 36.0168C81.4918 36.0244 81.6712 36.0335 81.9986 36.0389C82.756 36.0527 83.7348 36.0789 84.8829 36.1377Z" fill="#6672F8"/>
<path fill-rule="evenodd" clip-rule="evenodd" d="M73.9794 42.6068C73.9119 42.5326 73.9177 42.4178 73.9918 42.3503C74.0658 42.2829 74.1806 42.2884 74.2481 42.3626L76.3735 44.7012C76.4214 44.7544 76.4345 44.831 76.4047 44.8967C76.3757 44.9624 76.3111 45.0048 76.2392 45.0048H73.4755C73.3753 45.0048 73.2939 44.9235 73.2939 44.8233C73.2939 44.723 73.3753 44.6418 73.4755 44.6418H75.8289L73.9794 42.6068ZM81.9568 48.1336C81.8784 48.0712 81.8653 47.957 81.9278 47.8786C81.9909 47.8002 82.1049 47.7873 82.1834 47.8498C82.4978 48.1004 82.8638 48.2791 83.2544 48.3732C83.6458 48.4674 84.0524 48.4747 84.4467 48.3946C84.5455 48.3747 84.6414 48.4382 84.661 48.5364C84.6806 48.6347 84.6174 48.7305 84.5194 48.7504C84.0728 48.841 83.6124 48.8327 83.1695 48.7261C82.7272 48.6196 82.3133 48.4174 81.9568 48.1336ZM85.7008 45.1058C85.6776 45.1262 85.6594 45.1429 85.6463 45.1551C85.6311 45.1893 85.6144 45.2254 85.5962 45.2637C85.5105 45.4443 85.4023 45.6716 85.3668 45.9499V45.9501C85.2862 46.5749 85.3254 47.0714 85.3951 47.3449C85.4111 47.4074 85.3929 47.4738 85.3464 47.5191C85.3007 47.5644 85.2339 47.5818 85.1714 47.5649C84.621 47.4154 84.0851 47.2154 83.571 46.9673C83.481 46.9238 83.4432 46.8152 83.4868 46.725C83.5304 46.6347 83.6385 46.5968 83.7293 46.6404C84.136 46.8367 84.5571 47.0017 84.9885 47.1341C84.9478 46.813 84.9442 46.3891 85.0066 45.9037C85.0509 45.5598 85.1947 45.26 85.2796 45.082C85.2978 45.0433 85.3138 45.0104 85.3254 44.9839C85.3319 44.9667 85.3414 44.9502 85.3537 44.9352C85.3581 44.9297 85.3631 44.9245 85.3682 44.9196C85.3689 44.9184 85.3704 44.9169 85.3726 44.9149C85.3769 44.9106 85.3835 44.9047 85.3915 44.8971C85.4067 44.882 85.4299 44.8607 85.459 44.8346C85.5178 44.7825 85.602 44.7113 85.7073 44.6331C85.9172 44.4773 86.2156 44.2893 86.5627 44.1716C86.9098 44.0537 87.315 44.0034 87.7275 44.1382C88.1421 44.2737 88.5393 44.588 88.8835 45.1528C88.9358 45.2384 88.9089 45.3501 88.8232 45.4023C88.7375 45.4544 88.6257 45.4273 88.5734 45.3417C88.2641 44.8331 87.9293 44.5861 87.6149 44.4833C87.2983 44.3798 86.9766 44.4143 86.6796 44.5154C86.3812 44.6166 86.1161 44.7817 85.9237 44.9245C85.8286 44.9954 85.7523 45.0597 85.7008 45.1058ZM79.2991 44.7826C79.1699 44.6551 79.1699 44.6549 79.1699 44.6549L79.1706 44.6548V44.6542L79.1728 44.6525C79.1735 44.6511 79.1757 44.6492 79.1779 44.6468C79.183 44.6421 79.1902 44.6353 79.1989 44.6268C79.2171 44.6098 79.2425 44.5859 79.2759 44.5567C79.342 44.4986 79.4371 44.4195 79.5555 44.3341C79.7907 44.1646 80.1248 43.9648 80.5089 43.8611C80.8952 43.7565 81.3396 43.7479 81.7767 43.9738C82.2124 44.1987 82.6161 44.6426 82.9502 45.3918C82.9908 45.4834 82.9502 45.5907 82.8587 45.6316C82.7672 45.6724 82.6597 45.6314 82.6191 45.5398C82.3061 44.8384 81.9496 44.4717 81.6104 44.2964C81.2728 44.1222 80.9264 44.1241 80.604 44.2114C80.278 44.2995 79.9839 44.4729 79.7675 44.6286C79.6608 44.7059 79.5743 44.7774 79.5155 44.8292C79.4865 44.8551 79.464 44.8759 79.4487 44.89C79.4415 44.897 79.4364 44.9024 79.4327 44.9058C79.4306 44.9076 79.4298 44.9088 79.4291 44.9095L79.4284 44.9102V44.9103C79.3579 44.9815 79.2425 44.9822 79.1713 44.9118C79.1002 44.8414 79.0994 44.7264 79.1699 44.6551L79.2991 44.7826ZM74.8116 47.0238C74.7143 46.9985 74.6562 46.8993 74.6816 46.8023C74.707 46.7054 74.8065 46.6472 74.9031 46.6726C75.7076 46.8827 76.4113 47.3717 76.8883 48.0524C77.3654 48.733 77.5854 49.5612 77.5085 50.3889C77.4315 51.2166 77.0633 51.9901 76.4686 52.5714C75.8746 53.1526 75.0926 53.5038 74.2633 53.5622C73.4341 53.6206 72.6106 53.3825 71.9411 52.8903C71.2709 52.3981 70.7975 51.6839 70.6058 50.8751C70.4133 50.0664 70.515 49.2156 70.8919 48.4748C71.2687 47.7339 71.8969 47.1511 72.6637 46.8303C72.7566 46.7916 72.8626 46.8353 72.9018 46.9278C72.9403 47.0202 72.8967 47.1265 72.8038 47.1652C72.1161 47.4528 71.5534 47.9752 71.2157 48.6394C70.8773 49.3036 70.7866 50.0662 70.9587 50.7913C71.1308 51.5163 71.5556 52.1565 72.1561 52.5977C72.7566 53.0389 73.4944 53.2524 74.2379 53.2001C74.9815 53.1477 75.6822 52.8329 76.2152 52.3118C76.7475 51.7907 77.0779 51.0974 77.1469 50.3554C77.2158 49.6133 77.0191 48.871 76.5914 48.2608C76.1629 47.6505 75.5326 47.2121 74.8116 47.0238Z" fill="black"/>
<path fill-rule="evenodd" clip-rule="evenodd" d="M154.092 98.7125H146.774V141.825C146.774 141.925 146.693 142.007 146.593 142.007C146.493 142.007 146.411 141.925 146.411 141.825V100.078L136.312 142.523C136.289 142.62 136.191 142.68 136.094 142.657C135.996 142.634 135.936 142.536 135.959 142.439L146.363 98.7125H84.1942V141.825C84.1942 141.925 84.1129 142.007 84.0127 142.007C83.9125 142.007 83.8311 141.925 83.8311 141.825V100.078L73.732 142.523C73.7087 142.62 73.6114 142.68 73.5134 142.657C73.4161 142.634 73.3558 142.536 73.3791 142.439L83.7832 98.7125H74.0144C73.9142 98.7125 73.8329 98.6312 73.8329 98.531C73.8329 98.4308 73.9142 98.3495 74.0144 98.3495H84.0105C84.0119 98.3495 84.0134 98.3495 84.0149 98.3495H146.591C146.592 98.3495 146.593 98.3495 146.595 98.3495H154.092C154.192 98.3495 154.273 98.4308 154.273 98.531C154.273 98.6312 154.192 98.7125 154.092 98.7125Z" fill="black"/>
<path d="M95.1316 72.3893H123.373C125.436 72.3893 127.109 74.0621 127.109 76.1255V91.6845C127.109 93.7478 125.436 95.4206 123.373 95.4206H95.1316C93.068 95.4206 91.3949 93.7478 91.3949 91.6845V76.1255C91.3949 74.0621 93.068 72.3893 95.1316 72.3893Z" fill="black"/>
<path d="M81.6799 95.4207H125.466C126.374 95.4207 127.109 96.1561 127.109 97.0637V97.0644C127.109 97.9719 126.374 98.7074 125.466 98.7074H81.6799C80.7722 98.7074 80.0366 97.9719 80.0366 97.0644V97.0637C80.0366 96.1561 80.7722 95.4207 81.6799 95.4207Z" fill="#2D2D2D"/>
<path d="M108.434 83.9696C108.257 83.8049 108.133 83.5907 108.08 83.3549C108.026 83.1192 108.045 82.8727 108.133 82.6476C108.222 82.4226 108.376 82.2294 108.576 82.0932C108.776 81.9571 109.012 81.8843 109.254 81.8843C109.496 81.8843 109.732 81.9571 109.932 82.0932C110.132 82.2294 110.286 82.4226 110.374 82.6476C110.463 82.8727 110.482 83.1192 110.428 83.3549C110.374 83.5907 110.251 83.8049 110.074 83.9696C110.339 84.1456 110.539 84.4021 110.647 84.7012C110.755 85.0003 110.763 85.3262 110.671 85.6305C110.579 85.9348 110.392 86.2014 110.137 86.3908C109.881 86.5803 109.572 86.6827 109.254 86.6827C108.936 86.6827 108.626 86.5803 108.371 86.3908C108.116 86.2014 107.929 85.9348 107.836 85.6305C107.745 85.3262 107.753 85.0003 107.86 84.7012C107.969 84.4021 108.169 84.1456 108.434 83.9696Z" fill="white"/>
<path fill-rule="evenodd" clip-rule="evenodd" d="M125.574 29.6643C125.574 28.0039 124.228 26.6578 122.567 26.6578H106.159C104.498 26.6578 103.152 28.0039 103.152 29.6643V46.0706C103.152 47.7311 104.498 49.0771 106.159 49.0771H122.567C124.228 49.0771 125.574 47.7311 125.574 46.0706V29.6643ZM122.567 27.0209C124.027 27.0209 125.211 28.2044 125.211 29.6643V46.0706C125.211 47.5306 124.027 48.7141 122.567 48.7141H106.159C104.698 48.7141 103.515 47.5306 103.515 46.0706V29.6643C103.515 28.2044 104.698 27.0209 106.159 27.0209H122.567Z" fill="black"/>
<path fill-rule="evenodd" clip-rule="evenodd" d="M125.574 30.9509C125.574 30.8507 125.493 30.7694 125.393 30.7694H103.333C103.233 30.7694 103.152 30.8507 103.152 30.9509C103.152 31.0512 103.233 31.1324 103.333 31.1324H125.393C125.493 31.1324 125.574 31.0512 125.574 30.9509Z" fill="black"/>
<path fill-rule="evenodd" clip-rule="evenodd" d="M122.941 28.9855C122.941 28.5845 122.616 28.2595 122.215 28.2595C121.814 28.2595 121.489 28.5845 121.489 28.9855C121.489 29.3865 121.814 29.7115 122.215 29.7115C122.616 29.7115 122.941 29.3865 122.941 28.9855ZM122.215 28.6225C122.416 28.6225 122.578 28.785 122.578 28.9855C122.578 29.186 122.416 29.3485 122.215 29.3485C122.015 29.3485 121.852 29.186 121.852 28.9855C121.852 28.785 122.015 28.6225 122.215 28.6225Z" fill="black"/>
<path fill-rule="evenodd" clip-rule="evenodd" d="M120.703 28.9855C120.703 28.5845 120.378 28.2595 119.977 28.2595C119.576 28.2595 119.251 28.5845 119.251 28.9855C119.251 29.3865 119.576 29.7115 119.977 29.7115C120.378 29.7115 120.703 29.3865 120.703 28.9855ZM119.977 28.6225C120.177 28.6225 120.34 28.785 120.34 28.9855C120.34 29.186 120.177 29.3485 119.977 29.3485C119.776 29.3485 119.614 29.186 119.614 28.9855C119.614 28.785 119.776 28.6225 119.977 28.6225Z" fill="black"/>
<path fill-rule="evenodd" clip-rule="evenodd" d="M118.469 28.9855C118.469 28.5845 118.144 28.2595 117.743 28.2595C117.342 28.2595 117.016 28.5845 117.016 28.9855C117.016 29.3865 117.342 29.7115 117.743 29.7115C118.144 29.7115 118.469 29.3864 118.469 28.9855ZM117.743 28.6225C117.943 28.6225 118.106 28.785 118.106 28.9855C118.106 29.186 117.943 29.3485 117.743 29.3485C117.542 29.3485 117.38 29.186 117.38 28.9855C117.38 28.785 117.542 28.6225 117.743 28.6225Z" fill="black"/>
<path fill-rule="evenodd" clip-rule="evenodd" d="M122.941 36.2676C122.941 36.1674 122.86 36.0861 122.76 36.0861H112.594C112.494 36.0861 112.412 36.1674 112.412 36.2676C112.412 36.3679 112.494 36.4491 112.594 36.4491H122.76C122.86 36.4491 122.941 36.3679 122.941 36.2676Z" fill="black"/>
<path fill-rule="evenodd" clip-rule="evenodd" d="M122.941 39.4971C122.941 39.3968 122.86 39.3156 122.76 39.3156H106.985C106.884 39.3156 106.803 39.3968 106.803 39.4971C106.803 39.5973 106.884 39.6786 106.985 39.6786H122.76C122.86 39.6786 122.941 39.5973 122.941 39.4971Z" fill="black"/>
<path fill-rule="evenodd" clip-rule="evenodd" d="M122.941 42.7265C122.941 42.6262 122.86 42.545 122.76 42.545H115.716C115.616 42.545 115.535 42.6262 115.535 42.7265C115.535 42.8267 115.616 42.908 115.716 42.908H122.76C122.86 42.908 122.941 42.8267 122.941 42.7265Z" fill="black"/>
<path fill-rule="evenodd" clip-rule="evenodd" d="M176.547 80.3924C176.547 78.3331 174.877 76.6635 172.817 76.6635H159.642C157.582 76.6635 155.912 78.3331 155.912 80.3924V93.5663C155.912 95.6262 157.582 97.2953 159.642 97.2953H172.817C174.877 97.2953 176.547 95.6262 176.547 93.5663V80.3924ZM172.817 77.0265C174.677 77.0265 176.184 78.5335 176.184 80.3924V93.5663C176.184 95.4257 174.677 96.9322 172.817 96.9322H159.642C157.782 96.9322 156.275 95.4257 156.275 93.5663V80.3924C156.275 78.5335 157.782 77.0265 159.642 77.0265H172.817Z" fill="black"/>
<path fill-rule="evenodd" clip-rule="evenodd" d="M173.77 80.8034C173.77 80.7032 173.688 80.6219 173.588 80.6219H168.54C168.44 80.6219 168.358 80.7032 168.358 80.8034V85.8508C168.358 85.951 168.44 86.0323 168.54 86.0323H173.588C173.688 86.0323 173.77 85.951 173.77 85.8508V80.8034ZM173.406 80.9849V85.6693H168.721V80.9849H173.406Z" fill="black"/>
<path fill-rule="evenodd" clip-rule="evenodd" d="M168.684 80.8034C168.684 80.7032 168.602 80.6219 168.502 80.6219H159.019C158.918 80.6219 158.837 80.7032 158.837 80.8034V85.8508C158.837 85.951 158.918 86.0323 159.019 86.0323H168.502C168.602 86.0323 168.684 85.951 168.684 85.8508V80.8034ZM168.321 80.9849V85.6693H159.2V80.9849H168.321Z" fill="black"/>
<path fill-rule="evenodd" clip-rule="evenodd" d="M173.77 88.1073C173.77 88.007 173.688 87.9258 173.588 87.9258H168.54C168.44 87.9258 168.358 88.007 168.358 88.1073V93.1547C168.358 93.2549 168.44 93.3362 168.54 93.3362H173.588C173.688 93.3362 173.77 93.2549 173.77 93.1547V88.1073ZM173.406 88.2888V92.9732H168.721V88.2888H173.406Z" fill="black"/>
<path fill-rule="evenodd" clip-rule="evenodd" d="M168.684 88.1073C168.684 88.007 168.602 87.9258 168.502 87.9258H159.019C158.918 87.9258 158.837 88.007 158.837 88.1073V93.1547C158.837 93.2549 158.918 93.3362 159.019 93.3362H168.502C168.602 93.3362 168.684 93.2549 168.684 93.1547V88.1073ZM168.321 88.2888V92.9732H159.2V88.2888H168.321Z" fill="black"/>
<path fill-rule="evenodd" clip-rule="evenodd" d="M172.561 89.6849C172.485 89.6198 172.371 89.6288 172.305 89.7051L170.926 91.3205C170.861 91.3967 170.87 91.5113 170.946 91.5764C171.022 91.6415 171.137 91.6325 171.202 91.5562L172.582 89.9408C172.647 89.8646 172.638 89.75 172.561 89.6849Z" fill="black"/>
<path fill-rule="evenodd" clip-rule="evenodd" d="M169.567 89.6849C169.491 89.75 169.482 89.8646 169.547 89.9408L170.927 91.5562C170.992 91.6325 171.106 91.6415 171.182 91.5764C171.259 91.5113 171.268 91.3967 171.203 91.3205L169.823 89.7051C169.758 89.6288 169.643 89.6198 169.567 89.6849Z" fill="black"/>
<path fill-rule="evenodd" clip-rule="evenodd" d="M172.561 82.3817C172.485 82.3166 172.371 82.3256 172.305 82.4018L170.926 84.0173C170.861 84.0935 170.87 84.2081 170.946 84.2732C171.022 84.3383 171.137 84.3292 171.202 84.253L172.582 82.6376C172.647 82.5613 172.638 82.4468 172.561 82.3817Z" fill="black"/>
<path fill-rule="evenodd" clip-rule="evenodd" d="M169.567 82.3817C169.491 82.4468 169.482 82.5613 169.547 82.6376L170.927 84.253C170.992 84.3292 171.106 84.3383 171.182 84.2732C171.259 84.2081 171.268 84.0935 171.203 84.0173L169.823 82.4018C169.758 82.3256 169.643 82.3166 169.567 82.3817Z" fill="black"/>
<path fill-rule="evenodd" clip-rule="evenodd" d="M111.145 112.202C111.145 109.831 109.222 107.909 106.851 107.909H100.962C98.5902 107.909 96.6682 109.831 96.6682 112.202V118.09C96.6682 120.462 98.5902 122.383 100.962 122.383H106.851C109.222 122.383 111.145 120.462 111.145 118.09V112.202ZM106.851 108.272C109.022 108.272 110.781 110.031 110.781 112.202V118.09C110.781 120.261 109.022 122.02 106.851 122.02H100.962C98.7907 122.02 97.0313 120.261 97.0313 118.09V112.202C97.0313 110.031 98.7907 108.272 100.962 108.272H106.851Z" fill="black"/>
<path fill-rule="evenodd" clip-rule="evenodd" d="M100.063 111.248C100.003 111.296 99.979 111.376 100.003 111.448C100.476 112.863 100.949 114.114 101.42 115.362L101.422 115.366C101.894 116.615 102.364 117.861 102.835 119.27C102.859 119.341 102.924 119.391 102.999 119.394C103.074 119.398 103.143 119.355 103.173 119.286C103.52 118.505 103.867 117.884 104.218 117.257L104.22 117.254C104.522 116.712 104.827 116.165 105.133 115.512C105.521 116.162 105.909 116.704 106.292 117.24L106.295 117.243C106.738 117.863 107.176 118.475 107.614 119.248C107.663 119.336 107.774 119.366 107.861 119.317C107.948 119.268 107.979 119.157 107.93 119.07C107.482 118.278 107.034 117.652 106.591 117.034L106.59 117.032C106.147 116.413 105.709 115.801 105.271 115.028C105.237 114.968 105.173 114.933 105.104 114.936C105.036 114.939 104.975 114.981 104.947 115.044C104.601 115.827 104.254 116.448 103.903 117.076L103.898 117.084C103.612 117.597 103.323 118.114 103.033 118.722C102.609 117.481 102.184 116.357 101.761 115.237L101.761 115.236C101.343 114.13 100.926 113.025 100.509 111.809L101.968 112.707C102.054 112.759 102.165 112.733 102.218 112.647C102.271 112.562 102.244 112.45 102.158 112.398L100.271 111.236C100.205 111.196 100.122 111.201 100.063 111.248Z" fill="black"/>
<path fill-rule="evenodd" clip-rule="evenodd" d="M100.259 111.228C100.169 111.183 100.06 111.22 100.015 111.309L99.0954 113.148C99.0506 113.238 99.0869 113.347 99.1766 113.392C99.2662 113.437 99.3753 113.4 99.4201 113.311L100.34 111.472C100.385 111.382 100.349 111.273 100.259 111.228Z" fill="black"/>
<circle cx="168.062" cy="32.0621" r="12" transform="rotate(-32.4012 168.062 32.0621)" fill="#D2D0FC"/>
<path d="M162.041 26.3119L168.342 32.1369L176.127 29.4091" stroke="black" stroke-width="0.4"/>
<path fill-rule="evenodd" clip-rule="evenodd" d="M176.277 28.9979C176.371 29.0199 176.431 29.114 176.411 29.2082L174.368 38.5877C174.347 38.6819 174.254 38.7405 174.16 38.7185L160.052 35.4426C160.006 35.4321 159.967 35.404 159.942 35.3646C159.917 35.3251 159.908 35.2776 159.918 35.2323L161.961 25.8526C161.981 25.7584 162.074 25.6998 162.169 25.7218L176.277 28.9979ZM162.266 26.1026L160.297 35.1412L174.063 38.3377L176.031 29.2993L162.266 26.1026Z" fill="black"/>
<path d="M158.365 57.1738L164.9 51.8193C165.249 51.534 165.488 51.136 165.575 50.6938C165.662 50.2516 165.593 49.7928 165.379 49.3963C165.164 48.9997 164.819 48.6902 164.401 48.5209C163.983 48.3516 163.519 48.3332 163.089 48.4687L162.94 48.5151C163.192 48.2025 163.326 47.8107 163.318 47.4089C163.309 47.0072 163.159 46.6213 162.893 46.3196L162.278 45.6197C162.098 45.4149 161.871 45.2564 161.616 45.1574C161.362 45.0586 161.088 45.0221 160.816 45.0512L160.607 45.073L164.717 42.5195C165.174 42.2359 165.504 41.7846 165.634 41.262C165.764 40.7394 165.685 40.1865 165.414 39.721C165.143 39.2557 164.701 38.9143 164.182 38.7699C163.663 38.6254 163.108 38.6891 162.635 38.9474L152.899 44.2475L152.501 44.148C151.935 44.0074 151.345 43.9985 150.776 44.122C150.207 44.2455 149.673 44.4982 149.217 44.8605C148.761 45.2229 148.394 45.6851 148.145 46.2116C147.896 46.7382 147.771 47.3149 147.781 47.8973L144.954 50.2206C147.218 54.3183 149.482 58.4166 151.745 62.5153L158.365 57.1738Z" fill="#FCA081"/>
<path fill-rule="evenodd" clip-rule="evenodd" d="M153.688 45.021L153.265 44.7555C153.18 44.7022 153.154 44.5902 153.208 44.5053C153.261 44.4204 153.373 44.3948 153.458 44.4481L156.798 46.5449C156.872 46.5909 156.941 46.6417 157.007 46.6967L160.312 45.0122C160.401 44.9667 160.51 45.0021 160.556 45.0915C160.601 45.1808 160.566 45.2901 160.477 45.3356L157.273 46.9688C157.437 47.1748 157.558 47.4146 157.625 47.6742C157.746 48.1423 157.684 48.6391 157.451 49.0629L157.187 48.7793V48.7795L157.451 49.0629C157.33 49.2838 157.166 49.4783 156.968 49.6349C156.771 49.7916 156.544 49.9072 156.301 49.9751C156.129 50.0233 155.951 50.0468 155.772 50.0451C156.122 50.3848 156.566 50.6121 157.048 50.6965C157.557 50.7857 158.081 50.7105 158.544 50.4819L159.082 50.2161C159.089 50.212 159.096 50.2085 159.104 50.2053L162.855 48.3524C162.945 48.3081 163.054 48.3449 163.098 48.4348C163.143 48.5246 163.106 48.6335 163.016 48.6779L159.289 50.5188L158.841 51.0743L158.841 51.0744C158.676 51.2789 158.584 51.5325 158.579 51.7952C158.574 52.0579 158.657 52.3148 158.814 52.5253C158.967 52.7299 159.182 52.8796 159.427 52.9518C159.672 53.0241 159.934 53.0151 160.173 52.9263V52.9262L163.201 51.8038C163.295 51.7689 163.399 51.8169 163.434 51.9109C163.469 52.0049 163.421 52.1093 163.327 52.1441L160.3 53.2666C159.987 53.3828 159.644 53.3945 159.324 53.3C159.004 53.2055 158.723 53.01 158.523 52.7426L158.523 52.7425C158.318 52.4675 158.21 52.1317 158.216 51.7885C158.222 51.4626 158.331 51.1475 158.527 50.8877C158.04 51.0869 157.506 51.1453 156.985 51.0541C156.4 50.9516 155.863 50.6656 155.452 50.2377C155.357 50.1399 155.276 50.0577 155.214 49.9992C155.183 49.9696 155.159 49.948 155.142 49.9338C155.14 49.9322 155.139 49.9308 155.137 49.9296L155.136 49.9284C155.035 49.8913 154.938 49.8457 154.844 49.7919L153.851 49.2204C154.122 49.4593 154.313 49.7766 154.397 50.1293C154.487 50.5066 154.45 50.9032 154.29 51.2569L154.29 51.2572L154.073 51.7445C154.032 51.836 153.924 51.8771 153.833 51.8362C153.741 51.7954 153.7 51.6881 153.741 51.5965L153.959 51.1086L153.959 51.108C154.086 50.8274 154.116 50.5128 154.044 50.2135C153.973 49.9142 153.804 49.647 153.565 49.4538L153.565 49.4535L151.815 48.046C151.741 47.9866 151.725 47.8803 151.779 47.8021C151.832 47.7238 151.937 47.6999 152.019 47.7472L155.026 49.4773L155.026 49.4774C155.101 49.5208 155.179 49.5576 155.26 49.5875C155.263 49.5882 155.266 49.5891 155.269 49.59C155.275 49.5921 155.282 49.5947 155.288 49.5973C155.389 49.6323 155.493 49.6568 155.599 49.6702C155.802 49.6956 156.007 49.6804 156.203 49.6255C156.399 49.5706 156.583 49.4771 156.742 49.3505C156.902 49.2239 157.035 49.0666 157.133 48.8881L157.292 48.9754L157.133 48.888C157.153 48.8524 157.171 48.8162 157.187 48.7795L153.688 45.0211V45.021ZM153.688 45.0211L157.187 48.7793C157.33 48.4622 157.362 48.1044 157.274 47.7653C157.175 47.3868 156.936 47.0602 156.605 46.8523L153.688 45.0211Z" fill="black"/>
</g>
<defs>
<clipPath id="clip0_8771_454195">
<rect width="175" height="128" fill="white" transform="matrix(-1 0 0 1 186.137 18.5001)"/>
</clipPath>
</defs>
</svg>
