<svg width="230" height="169" viewBox="0 0 230 169" fill="none" xmlns="http://www.w3.org/2000/svg">
<path d="M65.3601 117.198H39.6039C36.6923 117.198 34.332 119.568 34.332 122.493C34.332 125.418 36.6923 127.788 39.6039 127.788H65.3601C68.2716 127.788 70.6319 125.418 70.6319 122.493C70.6319 119.568 68.2716 117.198 65.3601 117.198Z" fill="black"/>
<path fill-rule="evenodd" clip-rule="evenodd" d="M40.2734 159.245L46.1074 127.744L46.5766 127.832L44.7882 137.488H59.0451L57.2571 127.832L57.7262 127.744L63.5593 159.245L63.0901 159.334L59.1338 137.968H44.6995L40.7426 159.334L40.2734 159.245Z" fill="black"/>
<path d="M136.494 61.6049C142.456 73.7934 128.922 90.1259 124.27 89.0974C121.439 88.4723 122.784 81.6347 116.41 75.8831C112.7 72.5367 110.426 73.2106 109.039 70.5457C106.425 65.5207 110.239 54.9532 118.316 52.2874C125.609 49.8803 133.532 55.5495 136.494 61.6049Z" fill="white"/>
<path d="M22.1016 81.7959H85.4814" stroke="black" stroke-width="5" stroke-miterlimit="10"/>
<path fill-rule="evenodd" clip-rule="evenodd" d="M190.072 159.905L166.585 154.249C169.833 146.637 173.083 139.028 176.332 131.423C181.352 131.489 186.319 130.385 190.841 128.196C195.364 126.007 199.319 122.794 202.396 118.809L206.698 111.638C207.027 111.091 207.553 110.691 208.167 110.52C208.78 110.35 209.436 110.421 209.999 110.72C210.562 111.019 210.991 111.523 211.196 112.128C211.401 112.734 211.368 113.395 211.103 113.977L195.929 147.179L185.071 142.524C184.755 142.389 184.413 142.327 184.069 142.345C183.727 142.362 183.392 142.457 183.091 142.623C182.789 142.789 182.53 143.022 182.331 143.304C182.134 143.586 182.001 143.909 181.946 144.249C181.86 144.767 181.954 145.299 182.214 145.754C182.474 146.211 182.882 146.562 183.37 146.75L194.204 150.928L190.072 159.905ZM83.875 159.463L88.7088 135.456L111.087 135.007C111.726 139.706 113.911 144.057 117.294 147.366C120.677 150.675 125.064 152.754 129.759 153.271L138.044 154.183C138.677 154.254 139.26 154.565 139.672 155.054C140.084 155.541 140.295 156.169 140.261 156.808C140.227 157.447 139.951 158.049 139.489 158.49C139.028 158.931 138.416 159.178 137.779 159.181L101.412 159.284L101.056 147.432C101.046 147.088 100.958 146.75 100.799 146.445C100.64 146.141 100.414 145.875 100.138 145.671C99.8634 145.466 99.5447 145.327 99.2078 145.263C98.8709 145.2 98.5235 145.214 98.1933 145.305C97.6894 145.444 97.2485 145.753 96.945 146.181C96.6425 146.608 96.4955 147.129 96.5308 147.652L97.3029 159.284L83.875 159.463Z" fill="black"/>
<path fill-rule="evenodd" clip-rule="evenodd" d="M76.876 84.2387L89.6438 81.3396L83.5426 59.1961C82.8539 56.6968 81.3646 54.4951 79.305 52.9314C77.2454 51.3678 74.7302 50.5293 72.1485 50.5458L57.9467 50.5975C56.8666 51.5745 55.5149 52.1963 54.0731 52.3797C50.8025 52.7631 48.5053 50.6043 48.1771 50.2842L33.1803 50.6321C29.9355 50.7079 26.0121 52.2991 22.0897 55.4251L22.0877 55.4266C20.8037 56.4517 13.9728 61.9048 13.7629 70.4348C13.5721 78.045 18.7256 85.4061 26.7031 88.9462H79.5248L76.876 84.2387Z" fill="white"/>
<path fill-rule="evenodd" clip-rule="evenodd" d="M32.0762 105.734C31.1104 97.6297 35.195 91.5993 36.3106 90.0569L55.1086 88.1695L78.9284 59.0311C83.2421 54.3896 88.4758 50.6099 94.494 50.6099H102.048C106.416 50.6099 110.468 52.344 113.617 55.2677C117.951 59.2871 119.229 64.4922 119.774 67.0584C121.235 73.9487 124.291 89.2625 128.25 110.468C131.293 111.019 134.334 111.572 137.376 112.127C153.528 115.076 169.668 118.088 185.793 121.162C180.385 133.472 174.978 145.78 169.569 158.088L126.657 143.794L84.7385 136.857L85.8044 130.186L63.1719 122.647C61.9657 123.055 60.7148 123.398 59.4137 123.666C58.1969 123.919 56.6241 124.134 54.5007 124.241C46.487 124.647 38.8378 120.641 34.7646 113.697C33.326 111.26 32.4103 108.547 32.0762 105.734ZM87.2527 103.183C88.1821 103.345 89.1116 103.507 90.0409 103.669L90.8187 98.8011C89.8037 100.118 88.6163 101.595 87.2527 103.183Z" fill="#E3E3FD"/>
<path d="M40.1211 85.8696L42.9403 84.4375V87.8664" stroke="black" stroke-width="5" stroke-linecap="round" stroke-linejoin="round"/>
<path d="M79.6261 81.9978C78.9869 81.8977 78.4134 81.5467 78.0319 81.0218C77.6503 80.4971 77.492 79.8415 77.5916 79.1995L82.684 46.3862L87.5044 47.141L82.4121 79.9543C82.3124 80.5963 81.9629 81.1723 81.4404 81.5556C80.9179 81.9388 80.2653 82.0979 79.6261 81.9978Z" fill="black"/>
<path fill-rule="evenodd" clip-rule="evenodd" d="M92.4946 88.0264C92.439 88.033 92.3569 88.0703 92.3303 88.0922C92.3163 88.1068 92.2963 88.1327 92.2896 88.1434C92.2782 88.1626 92.2721 88.1792 92.2704 88.1838C92.2659 88.196 92.2634 88.2061 92.2626 88.209V88.2091C92.2606 88.2169 92.2592 88.224 92.2585 88.2277C92.2568 88.2363 92.255 88.2468 92.2532 88.2578C92.2494 88.2805 92.2442 88.3133 92.2377 88.3555C92.2249 88.4402 92.2061 88.5667 92.1816 88.7346C92.1327 89.0705 92.0604 89.5741 91.965 90.2452C91.774 91.5874 91.4901 93.6007 91.1131 96.2847C91.1046 96.3451 91.1193 96.4036 91.1503 96.4506L91.1283 96.6116C90.3648 102.195 89.2145 110.57 87.6773 121.734C87.6593 121.865 87.7505 121.987 87.881 122.005C88.0116 122.022 88.132 121.931 88.15 121.8C89.6872 110.635 90.8375 102.261 91.601 96.6768C91.9827 93.8855 92.2678 91.7911 92.4562 90.3945C92.5504 89.6962 92.6204 89.1721 92.6662 88.8222C92.6892 88.6474 92.7061 88.5156 92.7171 88.4273C92.7225 88.3832 92.7266 88.3489 92.7291 88.3252C92.7305 88.3137 92.7315 88.3025 92.7323 88.2934C92.7326 88.2896 92.7331 88.2819 92.7333 88.2733C92.7334 88.2701 92.7336 88.2588 92.7324 88.2449C92.7315 88.2364 92.7273 88.2126 92.7233 88.1975C92.7108 88.1644 92.6295 88.0683 92.5456 88.0319C92.5288 88.0282 92.5117 88.0264 92.4946 88.0264ZM86.5654 104.003C86.6584 104.097 86.658 104.249 86.5647 104.342L74.7507 116.152C74.6572 116.246 74.5062 116.245 74.4132 116.151C74.3203 116.058 74.3206 115.905 74.4141 115.812L86.2281 104.002C86.3214 103.908 86.4725 103.909 86.5654 104.003ZM127.239 110.06C127.368 110.031 127.496 110.113 127.523 110.242C129.946 121.337 132.368 132.429 134.791 143.521C134.819 143.651 134.737 143.779 134.609 143.807C134.481 143.836 134.353 143.753 134.325 143.625C131.902 132.532 129.48 121.439 127.058 110.345C127.029 110.216 127.111 110.088 127.239 110.06Z" fill="black"/>
<path d="M92.6787 69.0233C93.0101 68.8378 93.2965 68.5809 93.5173 68.271C93.7381 67.9611 93.8878 67.6059 93.9557 67.2309C94.0236 66.856 94.0079 66.4707 93.9099 66.1025C93.8119 65.7344 93.6339 65.3925 93.3887 65.1017C93.1184 64.7815 92.773 64.5339 92.3836 64.3809C91.9943 64.228 91.5734 64.1746 91.1584 64.2255L90.9551 64.2505C91.3568 63.9031 91.6241 63.4249 91.7105 62.8997C91.7969 62.3744 91.6967 61.8353 91.4275 61.3766L90.8053 60.3164C90.6239 60.0063 90.3704 59.7448 90.0667 59.5541C89.763 59.3635 89.4179 59.2495 89.0607 59.2217L88.7868 59.1996L88.344 59.3367C88.7188 59.1869 89.056 58.9557 89.3315 58.6597C89.6069 58.3637 89.8139 58.0102 89.9375 57.6246C90.0612 57.2389 90.0985 56.8306 90.0467 56.4287C89.995 56.0269 89.8554 55.6415 89.6381 55.3001C89.3173 54.7937 88.8377 54.409 88.275 54.2066C87.7124 54.0042 87.0988 53.9957 86.5307 54.1823L79.0753 56.2596L78.5876 56.0334C77.8848 55.7085 77.116 55.5539 76.3429 55.5821C75.5698 55.6102 74.814 55.8203 74.1365 56.1954C73.7548 56.3641 72.9493 56.7897 72.4702 57.6898C71.7783 58.9897 72.0541 60.7391 73.1822 62.0812L59.9414 72.2164C61.68 74.1811 62.8766 76.5684 63.4124 79.1412C64.5357 84.6436 62.1422 88.986 61.4922 90.0865C67.1554 87.3372 87.0146 71.7725 92.6787 69.0233Z" fill="#FCA081"/>
<path fill-rule="evenodd" clip-rule="evenodd" d="M79.1189 56.6714C79.2435 56.6284 79.3098 56.492 79.2669 56.3668C79.2241 56.2417 79.0884 56.1751 78.9637 56.2182L76.1064 57.2055C75.9817 57.2486 75.9155 57.3849 75.9584 57.5101C76.0012 57.6353 76.137 57.7018 76.2615 57.6587L79.1189 56.6714ZM88.7165 59.1928C88.7646 59.316 88.7042 59.4551 88.5815 59.5034L83.3755 61.5548C83.2528 61.6031 83.1144 61.5424 83.0662 61.4192C83.0181 61.296 83.0785 61.1569 83.2013 61.1086L88.4073 59.0572C88.5299 59.0088 88.6684 59.0695 88.7165 59.1928ZM91.1851 64.1814C91.221 64.3087 91.1474 64.4412 91.0207 64.4773L84.9643 66.2037C84.8376 66.2399 84.7056 66.166 84.6697 66.0387C84.6337 65.9114 84.7073 65.7788 84.8341 65.7427L90.8904 64.0162C91.0171 63.9801 91.1491 64.0541 91.1851 64.1814Z" fill="black"/>
<path d="M18.9258 69.6255C20.3392 76.1133 23.0581 87.5646 24.4716 94.0524C24.4849 94.1549 24.5002 94.2566 24.5164 94.3572C26.0548 104.215 37.7447 108.61 45.4493 102.314C46.4456 101.5 49.658 99.851 55.5654 95.6992C59.1367 93.1896 62.0551 91.1037 64.0077 89.7004C70.0793 93.0631 76.7961 91.5725 79.4635 87.4841C81.7749 83.9373 80.332 79.5096 80.081 78.7762L70.0268 62.854L46.0286 78.7005C44.8013 74.1632 43.5742 69.6259 42.3476 65.0885C36.1968 66.5149 25.0776 68.1982 18.9258 69.6255Z" fill="white"/>
<path d="M47.9685 50.2705L38.6931 42.1406L40.2592 48.6591L33.5195 45.9951C35.1483 48.3226 36.777 50.6498 38.4058 52.9766C38.4287 55.4619 38.4514 57.9473 38.4736 60.4325L49.9259 56.8857C51.638 59.8165 53.3494 62.7469 55.0603 65.677C55.8689 62.4817 56.677 59.2886 57.4844 56.0977L67.6101 62.2462L68.2085 55.142C69.9041 52.6094 71.5993 50.0762 73.2943 47.5423L66.7521 50.1688L68.6055 45.8552L57.1065 51.1955C55.6257 51.8111 54.0162 52.0487 52.4216 51.8874C50.8272 51.726 49.2972 51.1705 47.9685 50.2705Z" fill="white"/>
<path d="M91.0132 37.7418C90.8807 39.6914 90.3725 41.5965 89.5167 43.3515C88.9021 44.615 88.2866 45.8787 87.6701 47.1428L82.4803 46.3308C82.3562 44.7396 82.2312 43.1483 82.1052 41.557C82.0279 40.5721 82.0468 39.582 82.1615 38.6007C82.3362 37.1111 82.4736 35.6387 83.3344 34.2794C83.9862 33.2508 84.6858 32.8415 85.3109 32.3124C86.4055 31.3854 87.6577 29.7625 88.3782 26.695C88.3917 26.6358 88.4247 26.5829 88.4716 26.5446C88.5186 26.5064 88.5769 26.485 88.6374 26.4839C88.6978 26.4828 88.7569 26.5021 88.8053 26.5386C88.8536 26.5751 88.8883 26.6268 88.904 26.6854L90.535 32.7926C90.9655 34.4045 91.127 36.0769 91.0132 37.7418Z" fill="#FAD214"/>
<path d="M123.511 61.533C124.933 61.533 126.085 60.3755 126.085 58.9476C126.085 57.5198 124.933 56.3623 123.511 56.3623C122.09 56.3623 120.938 57.5198 120.938 58.9476C120.938 60.3755 122.09 61.533 123.511 61.533Z" fill="#6672F8"/>
<path d="M129.859 68.9026C131.281 68.9026 132.433 67.7451 132.433 66.3173C132.433 64.8894 131.281 63.7319 129.859 63.7319C128.438 63.7319 127.285 64.8894 127.285 66.3173C127.285 67.7451 128.438 68.9026 129.859 68.9026Z" fill="#1EBE8E"/>
<path d="M129.64 78.8806C131.061 78.8806 132.214 77.7232 132.214 76.2953C132.214 74.8675 131.061 73.71 129.64 73.71C128.218 73.71 127.066 74.8675 127.066 76.2953C127.066 77.7232 128.218 78.8806 129.64 78.8806Z" fill="#FAD214"/>
<path d="M91.0147 37.742L88.1192 33.0114L86.4863 35.6839L85.9413 33.0114L83.3359 34.2796C83.9878 33.251 84.6873 32.8417 85.3124 32.3126C86.4147 31.3799 87.6744 29.7426 88.394 26.6377C88.4063 26.5816 88.4371 26.5313 88.4813 26.495C88.5256 26.4585 88.5807 26.4381 88.6379 26.4371C88.695 26.4359 88.751 26.4541 88.7966 26.4888C88.8422 26.5234 88.8748 26.5725 88.8893 26.6281L90.5366 32.7928C90.967 34.4047 91.1285 36.0771 91.0147 37.742Z" fill="#1EBE8E"/>
<path fill-rule="evenodd" clip-rule="evenodd" d="M71.3674 50.4139C71.4767 50.4877 71.5058 50.6366 71.4323 50.7464L68.4022 55.2738C68.3287 55.3837 68.1805 55.4129 68.0711 55.339C67.9617 55.2652 67.9327 55.1164 68.0062 55.0065L71.0363 50.4791C71.1098 50.3692 71.258 50.34 71.3674 50.4139ZM36.617 50.4167C36.7249 50.3405 36.8737 50.3666 36.9494 50.4749L38.6005 52.835C38.6763 52.9433 38.6503 53.0928 38.5425 53.1689C38.4346 53.245 38.2858 53.2189 38.2101 53.1106L36.559 50.7505C36.4832 50.6422 36.5093 50.4928 36.617 50.4167ZM61.2386 59.4453C62.2576 59.1176 65.1285 58.2032 67.6883 59.8789C69.7219 61.2101 70.335 63.3726 70.4919 64.0179L70.9555 63.9043C70.7917 63.2306 70.1413 60.9126 67.9489 59.4774C65.1899 57.6713 62.12 58.6585 61.1024 58.9858L61.0931 58.9888C57.3003 60.2075 55.5674 63.4563 55.18 64.2269L55.1727 64.2412L55.1675 64.2563C54.5163 66.1404 53.8654 68.0248 53.2148 69.9094L43.5623 77.2175L41.7611 70.5501L41.3006 70.6756L43.1941 77.6848L43.2864 78.0265L43.5679 77.8134L53.56 70.2482L53.618 70.2042L53.6418 70.1353C54.2986 68.2328 54.9557 66.3306 55.613 64.4288C56.0025 63.6568 57.6613 60.5947 61.2385 59.4453H61.2386Z" fill="black"/>
<path d="M87.3877 47.014L82.7379 46.286C82.238 46.2077 81.7695 46.5514 81.6915 47.0535L81.64 47.386C81.562 47.8881 81.9041 48.3587 82.4041 48.437L87.0539 49.165C87.5538 49.2433 88.0223 48.8996 88.1002 48.3974L88.1518 48.065C88.2298 47.5629 87.8877 47.0923 87.3877 47.014Z" fill="black"/>
<path d="M82.4062 48.4321L85.2847 48.8827" stroke="white" stroke-width="5" stroke-linecap="round" stroke-linejoin="round"/>
<path d="M58.4358 45.7776C58.286 47.1877 58.0798 48.6688 57.804 50.2111C57.6628 51.0004 57.511 51.7673 57.3488 52.5118C54.165 52.5913 50.9941 52.0785 47.9961 50.9991C48.8537 47.0408 49.7126 43.0827 50.5729 39.125" fill="#FCA081"/>
<path d="M32.0297 40.7405C32.3485 44.8462 36.018 47.9079 40.2258 47.5782C44.4335 47.2484 47.9093 43.6163 47.267 39.5452C46.5799 35.1701 42.8703 32.0796 39.071 32.7075C34.9071 33.3948 31.711 36.632 32.0297 40.7405Z" fill="black"/>
<path d="M20.8227 45.9696C23.9387 48.6469 28.6885 48.205 31.4313 44.9841C34.1741 41.7632 33.8726 36.9808 30.7566 34.3044C27.6406 31.628 22.8173 31.5456 20.147 35.2899C17.6895 38.736 17.7067 43.2922 20.8227 45.9696Z" fill="black"/>
<path fill-rule="evenodd" clip-rule="evenodd" d="M60.2991 46.8898C60.6751 46.9435 62.5074 47.1755 64.2062 46.3501C66.5947 45.1897 67.6597 42.4543 67.9814 39.7009C68.9337 39.2445 69.8221 38.6617 70.6223 37.9672C69.9709 37.7276 69.3831 37.3405 68.9045 36.8361C68.4496 36.3469 68.1074 35.7691 67.896 35.1435C67.7572 34.2605 67.5555 33.5175 67.3269 33.0103L67.3119 32.9769C67.0208 32.3271 66.3673 30.8688 64.9792 30.4308C64.8485 30.3895 64.7149 30.355 64.5793 30.3263L58.3894 29.0437C57.2388 28.802 56.0534 28.7792 54.8945 28.9766C54.1377 29.1088 51.603 29.6485 49.9271 31.9703L49.9267 31.9706C49.6682 32.3295 48.1302 34.4636 48.6368 36.8955C48.6817 37.1106 48.7413 37.3223 48.8153 37.5291L50.9731 41.4651L52.6804 41.6933L56.076 44.709C57.2063 45.8831 58.6907 46.6497 60.2991 46.8898Z" fill="#FCA081"/>
<path d="M66.7218 36.54C66.743 36.2816 66.5517 36.0551 66.2946 36.0338C66.0374 36.0126 65.8118 36.2048 65.7907 36.463C65.7696 36.7213 65.9608 36.9479 66.2179 36.9691C66.4751 36.9904 66.7007 36.7982 66.7218 36.54Z" fill="black"/>
<path fill-rule="evenodd" clip-rule="evenodd" d="M63.9942 36.279L63.9947 36.2786L63.9979 36.275C64.0011 36.2716 64.0062 36.2661 64.0131 36.2589C64.0269 36.2444 64.0481 36.2228 64.0759 36.1957C64.1315 36.1417 64.2133 36.0666 64.3159 35.9848C64.5231 35.8197 64.8047 35.635 65.1194 35.5335C65.4305 35.4332 65.7639 35.4166 66.0954 35.5693C66.4298 35.7232 66.7969 36.0653 67.1407 36.7516C67.2 36.8698 67.3434 36.9175 67.4611 36.8579C67.5788 36.7985 67.6262 36.6544 67.567 36.5361C67.1921 35.7879 66.7578 35.3471 66.2943 35.1336C65.828 34.9188 65.3669 34.9502 64.9735 35.0771C64.5836 35.2029 64.2505 35.4249 64.0192 35.6095C63.9024 35.7026 63.809 35.7883 63.7442 35.8512C63.7118 35.8827 63.6864 35.9086 63.6688 35.927C63.66 35.9362 63.6531 35.9436 63.6481 35.9489C63.6469 35.9503 63.6458 35.9516 63.6447 35.9527C63.6438 35.9537 63.6431 35.9545 63.6424 35.9552L63.6406 35.9572L63.64 35.9578L63.6398 35.9581C63.6397 35.9582 63.6396 35.9583 63.817 36.1186L63.6397 35.9583C63.5515 36.0566 63.5595 36.2082 63.6574 36.2968C63.7553 36.3851 63.906 36.3772 63.9942 36.279ZM52.5958 36.9282C52.5155 36.8233 52.3657 36.8037 52.2612 36.8844C52.1568 36.9651 52.1374 37.1156 52.2177 37.2205L53.829 39.3237L51.5941 39.139C51.4628 39.1282 51.3476 39.2263 51.3368 39.3582C51.326 39.4901 51.4237 39.6058 51.555 39.6167L54.3274 39.8458C54.4215 39.8535 54.5114 39.8048 54.5566 39.7215C54.6017 39.6382 54.5937 39.5359 54.536 39.4608L52.5958 36.9282ZM56.6347 44.6156C56.5451 44.5186 56.3941 44.513 56.2975 44.6031C56.201 44.6931 56.1954 44.8447 56.2851 44.9417C56.8547 45.5578 57.5196 46.0775 58.2542 46.4806C58.3699 46.544 58.5149 46.5013 58.578 46.3851C58.6411 46.2689 58.5986 46.1234 58.483 46.0599C57.7935 45.6816 57.1693 45.1939 56.6347 44.6156ZM65.4452 41.5525C65.9397 41.1473 66.7026 40.6837 67.5493 40.7806L67.5503 40.7807C67.6035 40.7865 67.6561 40.7951 67.7104 40.8056C67.8397 40.8307 67.9649 40.7458 67.9899 40.6158C68.015 40.4859 67.9303 40.3601 67.801 40.335C67.7372 40.3226 67.6715 40.3119 67.6027 40.3044C66.5581 40.1849 65.6644 40.7544 65.1436 41.1812C65.0415 41.2649 65.0262 41.4158 65.1095 41.5184C65.1928 41.6209 65.3431 41.6362 65.4452 41.5525Z" fill="black"/>
<path fill-rule="evenodd" clip-rule="evenodd" d="M64.5699 33.0801C65.033 32.3325 65.3229 31.4899 65.4183 30.6146C63.9107 30.1105 62.3747 29.6963 60.8183 29.3742C58.7388 28.9429 57.6957 28.7272 56.8301 28.7732C53.1551 28.9695 49.9205 32.1427 48.7599 34.7618C48.7442 33.9829 48.7281 33.2037 48.7115 32.4246C45.9114 34.3312 44.4665 37.601 45.0372 40.7164C45.6795 44.2229 48.5826 45.9599 49.0321 46.2187C49.7679 46.6428 50.8696 46.707 52.7788 46.8184C53.1829 46.842 53.6231 46.8677 54.1036 46.8993H54.1379C54.3954 46.9159 54.6524 46.8599 54.8801 46.7379C55.1078 46.6158 55.297 46.4324 55.4265 46.2083C55.5561 45.9841 55.6209 45.7281 55.6137 45.469C55.6063 45.2099 55.5273 44.958 55.3853 44.7415L53.4021 41.7181L52.3412 41.6078C51.7629 41.4319 51.2351 41.1145 50.8062 40.6818C49.8833 39.7232 49.493 38.1952 50.0255 36.8474C50.0876 36.6912 50.6459 35.3453 51.982 34.89C52.7215 34.6389 53.2802 34.8022 54.2105 35.0739C54.5624 35.1767 54.9676 35.2951 55.4558 35.4124L55.4796 35.4181C57.0045 35.7813 58.4415 36.1235 59.989 35.8917C60.5616 35.8064 63.1498 35.3453 64.5699 33.0801Z" fill="black"/>
<path fill-rule="evenodd" clip-rule="evenodd" d="M53.7479 25.5295C53.8199 25.471 53.9047 25.4303 53.9952 25.4106C54.0739 25.3934 54.1551 25.3925 54.234 25.4077C54.3129 25.4231 54.3879 25.4544 54.4545 25.4998C54.521 25.5452 54.5776 25.6037 54.6209 25.6717C54.6641 25.7398 54.6932 25.816 54.7062 25.8957C54.805 26.4817 54.9485 27.3697 55.0468 28.0243C56.0802 27.6721 56.9607 27.236 57.771 26.8346C59.1403 26.1563 60.309 25.5774 61.676 25.6713C62.007 25.696 62.3349 25.7524 62.6552 25.8401C63.0884 25.9599 64.9437 26.4746 65.2949 27.8368C65.6299 29.1347 64.3873 30.4662 64.081 30.7883C63.0628 31.8576 62.0748 32.0412 59.9765 32.431C58.9297 32.6254 57.6067 32.871 55.8659 33.3037C55.4765 33.4004 55.0922 33.4999 54.7114 33.5984C52.3813 34.2019 50.183 34.7711 47.7491 34.4473C47.185 34.3725 46.349 34.2143 46.0236 33.6286C45.5626 32.7966 46.3586 31.4996 47.0381 30.7758C47.317 30.4895 47.6313 30.2402 47.9733 30.0339C49.2311 29.1926 50.4615 28.9895 51.8574 28.7591C52.7159 28.6173 53.637 28.4653 54.6655 28.1481C54.3361 27.5926 53.9085 26.8318 53.603 26.2829C53.5578 26.2016 53.5322 26.1109 53.5283 26.0179C53.5243 25.9249 53.5421 25.8323 53.5803 25.7475C53.6184 25.6626 53.6758 25.5879 53.7479 25.5295Z" fill="#1EBE8E"/>
<path fill-rule="evenodd" clip-rule="evenodd" d="M178.604 4.64648C178.488 4.64648 178.389 4.72962 178.369 4.84384L176.869 13.2488L147.338 13.0609C147.216 13.0602 147.113 13.1521 147.099 13.2739L137.683 97.791H130.924C130.792 97.791 130.685 97.8984 130.685 98.0307V104.493C130.685 104.626 130.792 104.733 130.924 104.733H152.179L145.839 159.175C145.823 159.307 145.917 159.426 146.048 159.441C146.178 159.456 146.297 159.362 146.312 159.231L152.66 104.733H180.919C183.892 123.136 186.864 141.54 189.836 159.943C189.857 160.074 189.981 160.163 190.11 160.142C190.24 160.121 190.329 159.997 190.308 159.867C187.339 141.488 184.371 123.111 181.403 104.733H194.109L207.281 159.26C207.313 159.388 207.441 159.468 207.569 159.436C207.697 159.405 207.776 159.275 207.745 159.147L194.601 104.733H202.717H202.718H207.512C207.644 104.733 207.751 104.626 207.751 104.493V98.0307C207.751 97.8984 207.644 97.791 207.512 97.791H202.718H202.717H200.903C202.311 84.4526 203.93 71.1136 205.55 57.7722L205.556 57.7294C207.184 44.3146 208.813 30.8977 210.228 17.4804C210.235 17.4137 210.214 17.3472 210.17 17.2969L206.866 13.52C206.817 13.4652 206.75 13.4376 206.683 13.4386L186.914 13.3128C187.04 11.9646 187.265 10.6144 187.492 9.25431L187.493 9.24871V9.24861C187.732 7.80913 187.974 6.35844 188.096 4.90628C188.101 4.83946 188.078 4.77333 188.034 4.72396C187.989 4.67458 187.925 4.64648 187.858 4.64648H185.231H178.604ZM202.479 98.2703H131.163V104.254H202.479V98.2703ZM202.957 104.254V98.2703H207.273V104.254H202.957ZM200.423 97.791H196.926L206.86 14.2396L209.742 17.5343C208.331 30.9128 206.707 44.2917 205.081 57.6726V57.6728V57.673V57.6732L205.077 57.7142C203.455 71.0718 201.833 84.4314 200.423 97.791ZM187.02 9.17942C186.792 10.5487 186.563 11.9282 186.436 13.3098L184.064 13.2947L185.433 5.12578H187.597C187.472 6.47074 187.247 7.81792 187.021 9.17525L187.02 9.17942ZM183.549 13.2914C184.015 10.5692 184.481 7.84735 184.947 5.12578H178.803L177.352 13.252L183.549 13.2914ZM183.665 13.7715C183.687 13.7835 183.712 13.7923 183.739 13.7968C183.792 13.8058 183.844 13.7963 183.889 13.7729L206.418 13.9162L196.445 97.791H138.164L147.549 13.5416L183.665 13.7715ZM142.438 21.9316L131.086 11.3353L130.762 11.6864L142.114 22.2827L142.438 21.9316ZM137.955 32.3981L125.123 29.1667L125.007 29.6316L137.838 32.863L137.955 32.3981ZM123.039 45.3179L136.535 41.4874L136.664 41.9485L123.169 45.7791L123.039 45.3179Z" fill="black"/>
<path d="M167.941 43.6859C168.668 42.6962 169.677 41.9522 170.835 41.553C171.587 41.3002 172.376 41.177 173.169 41.1888C175.205 41.2166 177.165 42.1272 178.379 43.7664C178.589 44.0491 178.773 44.3496 178.931 44.6646C180.67 48.1328 178.68 52.3334 174.944 53.3236L174.122 53.5412C173.466 53.7158 172.879 54.0874 172.44 54.6061C172 55.1248 171.728 55.7659 171.661 56.4438C171.426 58.8326 171.19 61.2217 170.953 63.6112" stroke="black" stroke-linecap="round" stroke-linejoin="round"/>
<path d="M170.738 65.7588L170.652 66.6282" stroke="black" stroke-linecap="round" stroke-linejoin="round"/>
</svg>
