<svg width="195" height="156" viewBox="0 0 195 156" fill="none" xmlns="http://www.w3.org/2000/svg">
  <ellipse opacity="0.03" cx="97.1562" cy="91.8163" rx="67.1562" ry="67.1837" stroke="#2A3070" stroke-width="60"/>
  <rect x="57.3516" y="108.535" width="35.8572" height="30.3999" rx="5" fill="#1EBE8E"/>
  <rect x="100.711" y="71.9749" width="1.98815" height="5.30393" rx="0.994077" fill="#1EBE8E"/>
  <rect x="100.711" y="56.0624" width="1.98815" height="5.30393" rx="0.994077" fill="#1EBE8E"/>
  <rect x="100.711" y="40.1509" width="1.98817" height="5.30394" rx="0.994086" fill="#1EBE8E"/>
  <rect x="100.711" y="87.8857" width="1.98815" height="5.30395" rx="0.994077" fill="#1EBE8E"/>
  <rect x="100.711" y="103.799" width="1.98815" height="5.30395" rx="0.994077" fill="#1EBE8E"/>
  <rect x="100.711" y="119.71" width="1.98815" height="5.30394" rx="0.994077" fill="#1EBE8E"/>
  <rect x="107.34" y="71.9749" width="1.98817" height="5.30393" rx="0.994086" fill="#1EBE8E"/>
  <rect x="107.34" y="56.0624" width="1.98817" height="5.30393" rx="0.994086" fill="#1EBE8E"/>
  <rect x="107.34" y="40.1509" width="1.98817" height="5.30394" rx="0.994086" fill="#1EBE8E"/>
  <rect x="107.34" y="87.8857" width="1.98817" height="5.30395" rx="0.994086" fill="#1EBE8E"/>
  <rect x="107.34" y="103.799" width="1.98817" height="5.30395" rx="0.994086" fill="#1EBE8E"/>
  <rect x="107.34" y="119.71" width="1.98817" height="5.30394" rx="0.994086" fill="#1EBE8E"/>
  <path d="M87.7383 29.8173C87.7383 28.0136 88.7097 26.3497 90.2804 25.4631L115.53 11.21C118.863 9.32843 122.988 11.7366 122.988 15.5641V133.328C122.988 136.089 120.749 138.327 117.988 138.327H92.7383C89.9769 138.327 87.7383 136.089 87.7383 133.327V29.8173Z" stroke="#1EBE8E" stroke-width="1.5"/>
  <rect x="100.711" y="71.9749" width="1.98815" height="5.30393" rx="0.994077" fill="#1EBE8E"/>
  <rect x="100.711" y="56.0624" width="1.98815" height="5.30393" rx="0.994077" fill="#1EBE8E"/>
  <rect x="100.711" y="40.1509" width="1.98817" height="5.30394" rx="0.994086" fill="#1EBE8E"/>
  <rect x="100.711" y="87.8857" width="1.98815" height="5.30395" rx="0.994077" fill="#1EBE8E"/>
  <rect x="100.711" y="103.799" width="1.98815" height="5.30395" rx="0.994077" fill="#1EBE8E"/>
  <rect x="100.711" y="119.71" width="1.98815" height="5.30394" rx="0.994077" fill="#1EBE8E"/>
  <rect x="107.34" y="71.9749" width="1.98817" height="5.30393" rx="0.994086" fill="#1EBE8E"/>
  <rect x="107.34" y="56.0624" width="1.98817" height="5.30393" rx="0.994086" fill="#1EBE8E"/>
  <rect x="107.34" y="40.1509" width="1.98817" height="5.30394" rx="0.994086" fill="#1EBE8E"/>
  <rect x="107.34" y="87.8857" width="1.98817" height="5.30395" rx="0.994086" fill="#1EBE8E"/>
  <rect x="107.34" y="103.799" width="1.98817" height="5.30395" rx="0.994086" fill="#1EBE8E"/>
  <rect x="107.34" y="119.71" width="1.98817" height="5.30394" rx="0.994086" fill="#1EBE8E"/>
  <path d="M87.7383 29.8173C87.7383 28.0136 88.7097 26.3497 90.2804 25.4631L115.53 11.21C118.863 9.32843 122.988 11.7366 122.988 15.5641V133.328C122.988 136.089 120.749 138.327 117.988 138.327H92.7383C89.9769 138.327 87.7383 136.089 87.7383 133.327V29.8173Z" stroke="#1EBE8E" stroke-width="1.5"/>
  <path d="M142.434 68.2115C142.434 66.3407 141.389 64.6263 139.727 63.7683L124.201 55.7559C120.873 54.0385 116.908 56.4542 116.908 60.1991V133.936C116.908 136.697 119.147 138.936 121.908 138.936H137.434C140.195 138.936 142.434 136.697 142.434 133.936V68.2115Z" fill="#FACF35"/>
  <rect x="68.8945" y="78.135" width="35.8572" height="30.3999" rx="5" fill="#2A3070"/>
  <rect x="57.3516" y="47.7369" width="35.8572" height="30.3999" rx="5" fill="#FACF35"/>
  <path d="M72.2694 31.5046C74.1364 29.9872 76.8193 30.0145 78.6549 31.5697L95.728 46.0336C97.1491 47.2376 96.2977 49.5596 94.4352 49.5596H55.6865C53.8037 49.5596 52.964 47.1951 54.4251 46.0076L72.2694 31.5046Z" fill="#2A3070"/>
  <rect x="125.23" y="71.9727" width="1.98817" height="5.30393" rx="0.994086" fill="white"/>
  <rect x="125.23" y="87.884" width="1.98815" height="5.30394" rx="0.994077" fill="white"/>
  <rect x="125.23" y="103.796" width="1.98815" height="5.30394" rx="0.994077" fill="white"/>
  <rect x="125.23" y="119.707" width="1.98815" height="5.30392" rx="0.994077" fill="white"/>
  <rect x="131.859" y="71.9727" width="1.98815" height="5.30393" rx="0.994077" fill="white"/>
  <rect x="131.859" y="87.884" width="1.98815" height="5.30394" rx="0.994077" fill="white"/>
  <rect x="131.859" y="103.796" width="1.98815" height="5.30394" rx="0.994077" fill="white"/>
  <rect x="131.859" y="119.707" width="1.98815" height="5.30392" rx="0.994077" fill="white"/>
  <line x1="150.66" y1="117.719" x2="150.66" y2="138.935" stroke="#2A3070" stroke-width="1.5"/>
  <path d="M126.683 107.616C124.441 104.296 126.82 99.8184 130.827 99.8184H158.356C160.017 99.8184 161.57 100.644 162.5 102.02L168.22 110.492C170.462 113.812 168.083 118.29 164.076 118.29H136.547C134.886 118.29 133.333 117.464 132.404 116.088L126.683 107.616Z" fill="#000091"/>
  <path d="M128.344 107.616C126.101 104.295 128.481 99.8181 132.487 99.8181H160.016C161.678 99.8181 163.23 100.643 164.16 102.02L169.88 110.491C172.122 113.812 169.743 118.289 165.736 118.289H138.208C136.546 118.289 134.993 117.464 134.064 116.087L128.344 107.616Z" fill="#6672F8"/>
  <line x1="127.141" y1="105.163" x2="166.653" y2="105.163" stroke="white" stroke-width="1.5"/>
  <line x1="131.391" y1="111.26" x2="171.087" y2="111.26" stroke="white" stroke-width="1.5"/>
  <line y1="-0.75" x2="22.2816" y2="-0.75" transform="matrix(0.555195 0.83172 -0.83151 0.55551 131.02 99.8181)" stroke="white" stroke-width="1.5"/>
  <line y1="-0.75" x2="22.2816" y2="-0.75" transform="matrix(0.555195 0.83172 -0.83151 0.55551 138.961 99.8181)" stroke="white" stroke-width="1.5"/>
  <line y1="-0.75" x2="22.2816" y2="-0.75" transform="matrix(0.555195 0.831721 -0.83151 0.55551 146.898 99.8181)" stroke="white" stroke-width="1.5"/>
  <line y1="-0.75" x2="22.2816" y2="-0.75" transform="matrix(0.555194 0.831721 -0.831509 0.555511 154.84 99.8181)" stroke="white" stroke-width="1.5"/>
  <path fill-rule="evenodd" clip-rule="evenodd" d="M138.196 139.186H158.585C158.62 138.949 158.637 138.708 158.637 138.462C158.637 135.227 155.551 132.605 151.745 132.605C149.373 132.605 147.281 133.623 146.04 135.173C145.247 134.743 144.305 134.494 143.294 134.494C140.469 134.494 138.18 136.439 138.18 138.84C138.18 138.956 138.185 139.072 138.196 139.186Z" fill="#1EBE8E"/>
</svg>
