<svg width="188" height="182" viewBox="0 0 188 182" fill="none" xmlns="http://www.w3.org/2000/svg">
<path d="M140.5 50.5L124 54L108.5 57.5" stroke="white" stroke-width="1.5"/>
<path d="M72.5 68L58.5 72.5" stroke="white" stroke-width="1.5" stroke-linecap="round"/>
<path d="M132.5 48L141.5 50L136.5 57" stroke="white" stroke-width="1.5" stroke-linecap="round"/>
<path d="M72.9922 118.408L64.095 115.992L69.4152 109.232" stroke="white" stroke-width="1.5" stroke-linecap="round"/>
<path d="M34.7529 86.5468C15.2267 97.4839 3.8239 108.093 6.13632 114.816C10.0504 126.195 51.7762 122.131 99.3336 105.739C146.891 89.3464 182.271 66.8332 178.357 55.4541C176.114 48.9345 161.459 47.4843 140.407 50.5176" stroke="white" stroke-width="1.5"/>
<ellipse opacity="0.03" cx="95.5" cy="91" rx="62.5" ry="61" stroke="#000091" stroke-width="60"/>
<path d="M145.34 23.2041C139.02 23.2041 132.762 24.4777 126.924 26.9523C121.085 29.4269 115.78 33.054 111.311 37.6265C106.843 42.199 103.298 47.6273 100.879 53.6015C98.4608 59.5757 97.2161 65.9789 97.2161 72.4453" stroke="#000091" stroke-linecap="round" stroke-dasharray="1 5"/>
<path d="M10.043 76.6776C13.4363 76.6776 16.7965 77.3705 19.9315 78.7167C23.0666 80.0629 25.9151 82.036 28.3146 84.5234C30.7141 87.0108 32.6174 89.9638 33.916 93.2138C35.2146 96.4638 35.883 99.9471 35.883 103.465" stroke="#000091" stroke-linecap="round" stroke-dasharray="1 5"/>
<path d="M43.3781 87.668V72.6348L30.3047 87.668H43.3781Z" fill="#000091" stroke="#000091" stroke-linecap="round" stroke-linejoin="round"/>
<path d="M125.552 87.668V72.6348L137.691 87.668H125.552Z" fill="#000091" stroke="#000091" stroke-linecap="round" stroke-linejoin="round"/>
<path d="M44.3203 72.6348H125.562V147.801H44.3203V72.6348Z" stroke="#000091" stroke-width="1.3"/>
<mask id="path-12-inside-1_5778_113222" fill="white">
<path d="M145.503 133.893C145.944 131.525 148.011 129.809 150.419 129.809H154.257C155.885 129.809 157.412 130.601 158.348 131.933L165.941 142.736C166.532 143.578 166.85 144.582 166.85 145.611V147.507C166.85 150.269 164.611 152.507 161.85 152.507H148.052C144.924 152.507 142.564 149.667 143.137 146.591L145.503 133.893Z"/>
</mask>
<path d="M165.941 142.736L166.759 142.161L165.941 142.736ZM143.137 146.591L144.12 146.774L143.137 146.591ZM158.348 131.933L157.53 132.508L158.348 131.933ZM145.503 133.893L144.52 133.709L145.503 133.893ZM150.419 130.809H154.257V128.809H150.419V130.809ZM161.85 151.507H148.052V153.507H161.85V151.507ZM144.12 146.774L146.486 134.076L144.52 133.709L142.154 146.408L144.12 146.774ZM157.53 132.508L165.122 143.311L166.759 142.161L159.166 131.358L157.53 132.508ZM165.85 145.611V147.507H167.85V145.611H165.85ZM165.122 143.311C165.596 143.984 165.85 144.788 165.85 145.611H167.85C167.85 144.376 167.469 143.171 166.759 142.161L165.122 143.311ZM148.052 151.507C145.55 151.507 143.661 149.235 144.12 146.774L142.154 146.408C141.466 150.099 144.298 153.507 148.052 153.507V151.507ZM161.85 153.507C165.164 153.507 167.85 150.821 167.85 147.507H165.85C165.85 149.716 164.059 151.507 161.85 151.507V153.507ZM154.257 130.809C155.56 130.809 156.781 131.443 157.53 132.508L159.166 131.358C158.042 129.76 156.211 128.809 154.257 128.809V130.809ZM150.419 128.809C147.529 128.809 145.05 130.869 144.52 133.709L146.486 134.076C146.839 132.182 148.492 130.809 150.419 130.809V128.809Z" fill="#000091" mask="url(#path-12-inside-1_5778_113222)"/>
<path d="M104.183 126.249C104.544 124.364 106.193 123 108.112 123H141.702C144.213 123 146.103 125.285 145.631 127.751L141.52 149.259C141.16 151.145 139.511 152.508 137.592 152.508H104.001C101.491 152.508 99.6011 150.223 100.072 147.757L104.183 126.249Z" fill="#FCA081"/>
<path d="M155.433 152.55C155.433 155.117 153.548 157.116 151.318 157.116C149.088 157.116 147.203 155.117 147.203 152.55C147.203 149.984 149.088 147.984 151.318 147.984C153.548 147.984 155.433 149.984 155.433 152.55Z" fill="white" stroke="#000091"/>
<path d="M116.707 152.55C116.707 155.117 114.822 157.116 112.592 157.116C110.362 157.116 108.477 155.117 108.477 152.55C108.477 149.984 110.362 147.984 112.592 147.984C114.822 147.984 116.707 149.984 116.707 152.55Z" fill="white" stroke="#000091"/>
<path d="M124.316 131.357C127.35 131.357 129.81 134.032 129.81 137.331C129.81 139.477 128.769 141.358 127.208 142.411" stroke="white" stroke-linecap="round" stroke-linejoin="round"/>
<path d="M129.809 142.41L127.062 142.41L127.062 139.646" stroke="white" stroke-linecap="round"/>
<path d="M121.562 143.795C118.529 143.795 116.069 141.12 116.069 137.821C116.069 135.676 117.11 133.794 118.671 132.741" stroke="white" stroke-linecap="round" stroke-linejoin="round"/>
<path d="M116.07 132.742L118.817 132.742L118.817 135.506" stroke="white" stroke-linecap="round"/>
<mask id="path-21-inside-2_5778_113222" fill="white">
<path fill-rule="evenodd" clip-rule="evenodd" d="M3.54951 81.9495C4.92419 80.5443 6.94624 78.4775 6.94624 76.5518C6.94624 74.5902 5.39127 73 3.47312 73C1.55497 73 0 74.5902 0 76.5518C0 78.4776 2.1619 80.6873 3.40476 81.9577C3.42787 81.9813 3.45066 82.0046 3.47312 82.0276C3.49834 82.0018 3.52381 81.9757 3.54951 81.9495ZM3.40244 77.9035C4.19772 77.9035 4.84243 77.2549 4.84243 76.4547C4.84243 75.6545 4.19772 75.0058 3.40244 75.0058C2.60716 75.0058 1.96245 75.6545 1.96245 76.4547C1.96245 77.2549 2.60716 77.9035 3.40244 77.9035Z"/>
</mask>
<path fill-rule="evenodd" clip-rule="evenodd" d="M3.54951 81.9495C4.92419 80.5443 6.94624 78.4775 6.94624 76.5518C6.94624 74.5902 5.39127 73 3.47312 73C1.55497 73 0 74.5902 0 76.5518C0 78.4776 2.1619 80.6873 3.40476 81.9577C3.42787 81.9813 3.45066 82.0046 3.47312 82.0276C3.49834 82.0018 3.52381 81.9757 3.54951 81.9495ZM3.40244 77.9035C4.19772 77.9035 4.84243 77.2549 4.84243 76.4547C4.84243 75.6545 4.19772 75.0058 3.40244 75.0058C2.60716 75.0058 1.96245 75.6545 1.96245 76.4547C1.96245 77.2549 2.60716 77.9035 3.40244 77.9035Z" fill="#000091"/>
<path d="M3.54951 81.9495L4.26432 82.6488L4.26432 82.6488L3.54951 81.9495ZM3.40476 81.9577L2.68996 82.657L2.68996 82.657L3.40476 81.9577ZM3.47312 82.0276L2.75813 82.7267L3.47312 83.4579L4.18811 82.7267L3.47312 82.0276ZM5.94624 76.5518C5.94624 77.1898 5.5974 77.9722 4.95413 78.8584C4.32694 79.7223 3.53019 80.5392 2.8347 81.2502L4.26432 82.6488C4.94352 81.9545 5.84513 81.0354 6.57263 80.0333C7.28405 79.0533 7.94624 77.8395 7.94624 76.5518H5.94624ZM3.47312 74C4.81798 74 5.94624 75.1212 5.94624 76.5518H7.94624C7.94624 74.0592 5.96456 72 3.47312 72V74ZM1 76.5518C1 75.1212 2.12826 74 3.47312 74V72C0.981676 72 -1 74.0592 -1 76.5518H1ZM4.11955 81.2583C3.49202 80.6169 2.69074 79.7957 2.04363 78.9104C1.37334 77.9934 1 77.1801 1 76.5518H-1C-1 77.8493 -0.292384 79.1038 0.428991 80.0907C1.17354 81.1093 2.07464 82.0281 2.68996 82.657L4.11955 81.2583ZM4.18811 81.3284C4.16554 81.3053 4.14264 81.2819 4.11955 81.2583L2.68996 82.657C2.7131 82.6807 2.73579 82.7039 2.75813 82.7267L4.18811 81.3284ZM2.8347 81.2501C2.80901 81.2764 2.78346 81.3025 2.75813 81.3284L4.18811 82.7267C4.21323 82.701 4.23862 82.6751 4.26432 82.6488L2.8347 81.2501ZM3.84243 76.4547C3.84243 76.7084 3.63965 76.9035 3.40244 76.9035V78.9035C4.7558 78.9035 5.84243 77.8013 5.84243 76.4547H3.84243ZM3.40244 76.0058C3.63965 76.0058 3.84243 76.201 3.84243 76.4547H5.84243C5.84243 75.108 4.7558 74.0058 3.40244 74.0058V76.0058ZM2.96245 76.4547C2.96245 76.201 3.16523 76.0058 3.40244 76.0058V74.0058C2.04908 74.0058 0.962453 75.108 0.962453 76.4547H2.96245ZM3.40244 76.9035C3.16523 76.9035 2.96245 76.7084 2.96245 76.4547H0.962453C0.962453 77.8013 2.04908 78.9035 3.40244 78.9035V76.9035Z" fill="#2A3070" mask="url(#path-21-inside-2_5778_113222)"/>
<mask id="path-23-inside-3_5778_113222" fill="white">
<path fill-rule="evenodd" clip-rule="evenodd" d="M152.155 27.9495C153.53 26.5443 155.552 24.4775 155.552 22.5518C155.552 20.5902 153.997 19 152.079 19C150.16 19 148.605 20.5902 148.605 22.5518C148.605 24.4776 150.767 26.6873 152.01 27.9577C152.033 27.9813 152.056 28.0046 152.079 28.0276C152.104 28.0018 152.129 27.9757 152.155 27.9495ZM152.008 23.9035C152.803 23.9035 153.448 23.2549 153.448 22.4547C153.448 21.6545 152.803 21.0058 152.008 21.0058C151.213 21.0058 150.568 21.6545 150.568 22.4547C150.568 23.2549 151.213 23.9035 152.008 23.9035Z"/>
</mask>
<path fill-rule="evenodd" clip-rule="evenodd" d="M152.155 27.9495C153.53 26.5443 155.552 24.4775 155.552 22.5518C155.552 20.5902 153.997 19 152.079 19C150.16 19 148.605 20.5902 148.605 22.5518C148.605 24.4776 150.767 26.6873 152.01 27.9577C152.033 27.9813 152.056 28.0046 152.079 28.0276C152.104 28.0018 152.129 27.9757 152.155 27.9495ZM152.008 23.9035C152.803 23.9035 153.448 23.2549 153.448 22.4547C153.448 21.6545 152.803 21.0058 152.008 21.0058C151.213 21.0058 150.568 21.6545 150.568 22.4547C150.568 23.2549 151.213 23.9035 152.008 23.9035Z" fill="#FACF35"/>
<path d="M152.155 27.9495L152.87 28.6488L152.87 28.6488L152.155 27.9495ZM152.01 27.9577L151.295 28.657L151.295 28.657L152.01 27.9577ZM152.079 28.0276L151.364 28.7267L152.079 29.4579L152.794 28.7267L152.079 28.0276ZM154.552 22.5518C154.552 23.1898 154.203 23.9722 153.56 24.8584C152.932 25.7223 152.136 26.5392 151.44 27.2501L152.87 28.6488C153.549 27.9545 154.451 27.0354 155.178 26.0333C155.89 25.0533 156.552 23.8395 156.552 22.5518H154.552ZM152.079 20C153.423 20 154.552 21.1212 154.552 22.5518H156.552C156.552 20.0592 154.57 18 152.079 18V20ZM149.605 22.5518C149.605 21.1212 150.734 20 152.079 20V18C149.587 18 147.605 20.0592 147.605 22.5518H149.605ZM152.725 27.2583C152.097 26.6169 151.296 25.7957 150.649 24.9104C149.979 23.9934 149.605 23.1801 149.605 22.5518H147.605C147.605 23.8493 148.313 25.1038 149.034 26.0907C149.779 27.1093 150.68 28.0281 151.295 28.657L152.725 27.2583ZM152.794 27.3284C152.771 27.3053 152.748 27.282 152.725 27.2583L151.295 28.657C151.319 28.6806 151.341 28.7038 151.364 28.7267L152.794 27.3284ZM151.44 27.2501C151.414 27.2764 151.389 27.3025 151.364 27.3284L152.794 28.7267C152.819 28.701 152.844 28.6751 152.87 28.6488L151.44 27.2501ZM152.448 22.4547C152.448 22.7084 152.245 22.9035 152.008 22.9035V24.9035C153.361 24.9035 154.448 23.8013 154.448 22.4547H152.448ZM152.008 22.0058C152.245 22.0058 152.448 22.201 152.448 22.4547H154.448C154.448 21.108 153.361 20.0058 152.008 20.0058V22.0058ZM151.568 22.4547C151.568 22.201 151.771 22.0058 152.008 22.0058V20.0058C150.655 20.0058 149.568 21.108 149.568 22.4547H151.568ZM152.008 22.9035C151.771 22.9035 151.568 22.7084 151.568 22.4547H149.568C149.568 23.8013 150.655 24.9035 152.008 24.9035V22.9035Z" fill="#FACF35" mask="url(#path-23-inside-3_5778_113222)"/>
<path d="M61.2258 40.9983C62.9629 36.8549 67.7294 34.9056 71.872 36.6444" stroke="white" stroke-width="1.5"/>
<path opacity="0.7" d="M56.6168 38.4255C59.3482 31.9104 66.8431 28.8453 73.3571 31.5794" stroke="white" stroke-width="1.5"/>
<path opacity="0.4" d="M51.8195 36.4107C55.6622 27.2448 66.2064 22.9327 75.3707 26.7791" stroke="white" stroke-width="1.5"/>
<path d="M66.5955 47.1779C65.8028 44.6054 67.7263 42 70.4182 42H98.2574C100.013 42 101.563 43.1445 102.08 44.8221L108.547 65.8085C109.34 68.3811 107.416 70.9864 104.724 70.9864H76.8849C75.1295 70.9864 73.5792 69.8419 73.0623 68.1644L66.5955 47.1779Z" fill="#000091"/>
<path d="M69.494 47.1779C68.7013 44.6054 70.6247 42 73.3166 42H101.156C102.911 42 104.462 43.1445 104.978 44.8221L111.445 65.8085C112.238 68.3811 110.314 70.9864 107.623 70.9864H79.7834C78.028 70.9864 76.4777 69.8419 75.9607 68.1643L69.494 47.1779Z" fill="#6672F8"/>
<rect x="73.6914" y="68.0879" width="49.2462" height="3.86486" rx="1.93243" fill="#000091"/>
<path d="M55.7379 118.52V144.239C55.7379 146.725 53.7232 148.739 51.2379 148.739H15C12.5147 148.739 10.5 146.725 10.5 144.239V118.52C10.5 117.088 11.1814 115.742 12.3353 114.894L30.4542 101.579C32.0397 100.414 34.1982 100.414 35.7837 101.579L53.9027 114.894C55.0565 115.742 55.7379 117.088 55.7379 118.52Z" fill="#1EBE8E" stroke="#000091"/>
<path d="M32.4075 123.551C31.6984 123.551 31.1235 122.98 31.1235 122.276C31.1235 121.571 31.6984 121 32.4075 121C33.1166 121 33.6914 121.571 33.6914 122.276C33.6914 122.98 33.1166 123.551 32.4075 123.551Z" fill="#FACF35"/>
<path d="M36.5635 134.269C36.3308 132.829 36.2265 131.437 36.6036 130.475C36.9246 129.647 37.6228 129.184 38.4654 128.868L45.8906 126.481C46.8536 126.162 47.7531 125.628 47.8165 124.573C47.8968 123.217 46.6931 122.34 45.4894 122.659C45.4894 122.659 38.4276 125.142 32.4091 125.142C26.3906 125.142 19.4092 122.67 19.4092 122.67C17.9647 122.272 17.0018 123.388 17.0018 124.567C17.0018 125.7 17.8845 126.099 18.9277 126.476L25.9894 129.02C26.6314 129.259 27.6746 129.737 28.0758 130.469C28.5573 131.326 28.4771 132.824 28.2443 134.264L27.7709 136.626L24.7689 149.694C24.5442 150.742 25.2744 151.722 26.3256 151.906C27.3769 152.089 28.2363 151.376 28.5477 150.362L31.5617 141.119C31.7067 140.676 31.8351 140.227 31.9469 139.774L32.4091 137.902L32.8345 139.628C32.9693 140.178 33.1244 140.722 33.2999 141.261L36.261 150.354C36.582 151.379 37.4246 152.088 38.4758 151.906C39.527 151.723 40.2733 150.663 40.0374 149.694L37.037 136.632L36.5635 134.269Z" fill="#FACF35"/>
<path d="M54.3666 150C63.2146 150 65.5663 137.673 64.8916 136.291C64.2169 135.341 57.1707 143.686 54.8185 149.14C56.6235 144.563 57.3932 139.795 57.0935 135.059C57.0254 133.978 56.7952 131.842 55.7948 132.009C53.799 132.342 52.6933 143.312 53.799 149.14C53.1519 144.418 47.0121 134.341 46.4517 136.291C45.514 138.649 46.1247 141.194 47.4711 143.457C49.6437 147.106 51.3015 150 54.3666 150Z" fill="#6672F8"/>
</svg>
