<svg width="190" height="156" viewBox="0 0 190 156" fill="none" xmlns="http://www.w3.org/2000/svg">
<ellipse opacity="0.03" cx="95.072" cy="93.947" rx="64.6745" ry="64.6672" stroke="#2A3070" stroke-width="60"/>
<path d="M68.7229 91.7133C67.0765 94.544 71.0975 96.8689 72.561 98.5608C76.5827 103.21 68.1688 110.387 61.4912 109.516C54.8136 108.646 51.8347 99.0602 56.1112 90.5291C57.8334 87.0935 57.9321 86.0389 55.3045 78.7724C52.6769 71.5059 62.1655 70.9882 63.7146 64.8535C65.2662 58.7093 59.9831 51.9937 65.3113 46.3554C68.9174 42.5394 74.9922 49.3543 75.9473 52.5411C79.1621 63.2675 68.7861 66.2447 71.5839 70.6011C74.2346 74.2145 78.9703 77.4434 77.7603 82.5966C76.8597 86.4322 70.7187 88.282 68.7229 91.7133Z" fill="#2A3070"/>
<path d="M70.0527 54.8062C64.251 83.5436 62.3148 111.403 62.1328 143.638" stroke="#6672F8"/>
<path d="M161.198 102.341C159.901 104.57 163.068 106.401 164.22 107.733C167.387 111.395 160.761 117.046 155.503 116.361C150.245 115.675 147.899 108.127 151.267 101.409C152.623 98.7033 152.7 97.8729 150.631 92.1508C148.562 86.4287 156.034 86.021 157.254 81.1901C158.476 76.3517 154.316 71.0634 158.511 66.6235C161.351 63.6185 166.135 68.985 166.887 71.4946C169.418 79.9412 161.248 82.2856 163.451 85.7161C165.538 88.5616 169.267 91.1042 168.314 95.1622C167.605 98.1826 162.769 99.6392 161.198 102.341Z" fill="#1EBE8E"/>
<path d="M162.245 73.3169C157.676 95.9466 156.152 117.885 156.008 143.269" stroke="#2A3070"/>
<path d="M34.6725 113.273C24.8963 95.7858 41.4158 85.9189 25.9991 66.9578C-3.24907 30.9875 46.85 24.4956 48.8242 49.1956C49.3647 55.9331 49.3823 67.9069 51.8605 74.3892C53.5689 78.8577 66.4705 83.9646 65.6849 103.683C64.9098 123.073 57.1695 143.596 55.7703 144.259C49.9702 139.378 36.8073 117.088 34.6725 113.273Z" fill="#1EBE8E"/>
<path d="M32.5875 44.9433C38.993 64.6178 60.1119 97.3166 55.4367 144.034" stroke="white" stroke-linecap="round"/>
<path d="M121.428 142.375C121.133 125.122 110.34 64.8747 97.0786 41.4355" stroke="white" stroke-linecap="round"/>
<path d="M97.4335 62.4403C99.8145 63.7255 105.232 67.0308 107.856 69.971C110.186 61.6253 111.099 58.2497 111.265 57.605" stroke="white" stroke-linecap="round"/>
<path d="M92.7716 50.1101C95.2873 51.1454 101.048 53.8758 103.966 56.5149C105.508 48.0875 106.102 44.6816 106.207 44.032" stroke="white" stroke-linecap="round"/>
<path d="M118.957 53.9642C121.402 61.7411 120.47 69.8317 118.463 76.1257C117.46 79.2707 116.194 81.9513 114.961 83.9038C114.345 84.8807 113.743 85.6658 113.194 86.2336C112.634 86.8129 112.172 87.1221 111.841 87.2206C111.503 87.3215 110.937 87.3241 110.144 87.1666C109.366 87.0121 108.422 86.7143 107.359 86.2716C105.233 85.3866 102.667 83.9383 100.054 81.9622C94.8236 78.0075 89.4512 71.9779 87.0056 64.2014C84.5522 56.4004 84.9001 48.5284 86.6062 42.3651C87.4593 39.2835 88.6479 36.6438 89.9823 34.661C91.3226 32.6694 92.7725 31.3952 94.1285 30.9427C95.81 30.4438 97.882 30.6175 100.155 31.4457C102.427 32.2735 104.865 33.7431 107.246 35.7791C112.008 39.851 116.499 46.1509 118.957 53.9642Z" stroke="white" stroke-linecap="round"/>
<path d="M16.4092 143.472H86.9858C86.9858 147.243 90.4161 149.953 94.1875 149.953C97.9589 149.953 101.389 147.243 101.389 143.472L172.674 143.198" stroke="#2A3070"/>
<path fill-rule="evenodd" clip-rule="evenodd" d="M37.8042 101.605C38.0951 101.993 38.3635 102.392 38.6097 102.799C38.9294 103.328 38.686 104.051 38.1407 104.289L31.719 107.092C30.9254 107.439 30.5739 108.402 30.9338 109.244C31.2938 110.087 32.2289 110.489 33.0225 110.142L39.3391 107.385C39.8595 107.158 40.4309 107.473 40.5247 108.079C41.3556 113.45 39.1978 119.183 34.4482 122.774C29.6965 126.367 23.6131 126.861 18.7065 124.568C18.1424 124.304 18.028 123.49 18.4545 122.973L22.4331 118.148C23.0525 117.397 22.9776 116.314 22.2659 115.73C21.5542 115.146 20.4751 115.281 19.8557 116.032L15.553 121.25C15.205 121.672 14.628 121.725 14.2697 121.34C13.9213 120.965 13.5896 120.569 13.2763 120.151C12.7279 119.418 12.3082 118.539 11.9954 117.555C11.8836 117.203 11.9712 116.807 12.2034 116.526L17.2891 110.358C17.9085 109.607 17.8336 108.525 17.1219 107.94C16.4102 107.356 15.3311 107.491 14.7117 108.242L12.7776 110.588C12.2023 111.286 11.2113 110.888 11.2506 109.953C11.4955 104.126 13.0252 98.0223 13.5893 95.9411C13.7105 95.494 14.0794 95.1942 14.4926 95.1997C16.5592 95.2276 22.88 95.4291 28.5777 96.8152C29.4477 97.0268 29.4749 98.3251 28.6305 98.6937L25.6611 99.9899C24.8675 100.336 24.516 101.3 24.8759 102.142C25.2359 102.984 26.171 103.386 26.9646 103.04L34.8815 99.5838C35.1441 99.4692 35.4359 99.4872 35.6716 99.6455C36.5283 100.221 37.2547 100.871 37.8042 101.605ZM16.1638 102.944C16.4988 103.392 16.3965 104.037 15.9353 104.386C15.4741 104.735 14.8286 104.655 14.4936 104.207C14.1586 103.76 14.2609 103.115 14.7221 102.766C15.1833 102.417 15.8288 102.497 16.1638 102.944ZM35.7171 115.265C36.6342 114.572 37.1073 113.65 36.7738 113.205C36.4403 112.76 35.4264 112.96 34.5093 113.653C33.5922 114.346 33.1191 115.269 33.4526 115.714C33.7862 116.159 34.8 115.958 35.7171 115.265Z" fill="#6672F8"/>
<path fill-rule="evenodd" clip-rule="evenodd" d="M56.8257 119.696C56.6709 119.969 56.5051 120.232 56.3293 120.485C56.0268 120.92 55.4407 120.935 55.0441 120.557L51.3775 117.063C50.8767 116.586 50.1045 116.583 49.6528 117.056C49.2012 117.53 49.2411 118.301 49.742 118.778L53.0546 121.935C53.5398 122.398 53.5159 123.217 52.9696 123.522C49.6955 125.347 45.4376 125.372 41.789 123.225C38.1413 121.078 36.036 117.309 35.9508 113.508C35.9368 112.879 36.4842 112.479 37.0436 112.65L41.483 114.006C42.063 114.183 42.6748 113.826 42.8494 113.209C43.024 112.591 42.6953 111.947 42.1153 111.77L37.5024 110.361C36.9464 110.192 36.6214 109.532 36.871 108.985C36.9936 108.717 37.1288 108.452 37.2768 108.191C37.582 107.652 38.0075 107.155 38.5246 106.697C38.7408 106.506 39.0348 106.454 39.3131 106.539L45.2314 108.347C45.8115 108.524 46.4233 108.167 46.5979 107.549C46.7724 106.932 46.4438 106.288 45.8637 106.111L44.2462 105.617C43.3642 105.347 43.2539 104.083 44.1045 103.797C47.7754 102.561 51.7582 101.98 53.3129 101.786C53.7168 101.735 54.1099 101.983 54.2828 102.4C54.906 103.902 56.363 107.631 57.139 111.421C57.3285 112.346 56.3863 112.876 55.7235 112.245L54.4055 110.989C53.9046 110.511 53.1324 110.508 52.6808 110.982C52.2291 111.456 52.269 112.227 52.7699 112.704L57.1496 116.878C57.4061 117.122 57.5401 117.49 57.4733 117.841C57.3423 118.529 57.1321 119.155 56.8257 119.696ZM49.6686 105.434C49.4708 105.783 49.0129 105.89 48.6459 105.674C48.2788 105.458 48.1416 105.001 48.3394 104.652C48.5372 104.303 48.9951 104.195 49.3622 104.411C49.7292 104.627 49.8664 105.085 49.6686 105.434ZM46.9974 122.006C47.7231 122.431 48.4713 122.495 48.6685 122.149C48.8657 121.803 48.4371 121.177 47.7114 120.752C46.9856 120.327 46.2374 120.263 46.0402 120.609C45.8431 120.955 46.2716 121.581 46.9974 122.006Z" fill="#2A3070"/>
<path d="M18.0054 100.421C26.6902 109.105 38.3814 128.143 41.7217 142.838" stroke="#2A3070" stroke-linecap="round"/>
<path d="M53.0786 104.763C33.2037 127.72 47.684 131.64 41.7215 142.839" stroke="#6672F8" stroke-linecap="round"/>
<path d="M83.1084 97.948L83.1091 97.9484L83.1084 97.948ZM83.1084 97.948L83.1027 97.9453L83.1084 97.948ZM68.1672 107.869L82.3611 98.4018C81.5534 100.386 81.408 102.335 81.6934 104.478C80.9728 104.883 80.1522 105.362 79.2986 105.86L79.2046 105.915C78.1934 106.505 77.1376 107.12 76.1363 107.679C75.1336 108.239 74.1949 108.736 73.4177 109.093C73.0289 109.271 72.6886 109.411 72.4062 109.505C72.114 109.602 71.9214 109.637 71.8143 109.637C70.9009 109.637 70.177 109.428 69.5534 109.063C69.0544 108.771 68.6042 108.371 68.1672 107.869Z" fill="#FACF35" stroke="#FACF35"/>
<path d="M85.1913 88.6983L85.1907 88.6974C84.8734 88.2145 84.192 88.0632 83.6993 88.3865C83.6991 88.3867 83.6988 88.3869 83.6985 88.387L71.5966 96.2801C71.0258 96.6524 70.3062 96.5776 69.8956 96.1189C69.3504 95.51 69.5139 94.5126 70.2714 94.0457L96.092 78.1292C96.9116 77.624 97.9257 77.64 98.6794 78.1904C100.267 79.3499 102.803 81.3635 104.938 83.787C107.087 86.228 108.75 88.996 108.75 91.6719C108.75 95.2788 107.55 99.0775 106.302 102.048C105.109 104.887 103.89 106.929 103.689 107.265C103.68 107.28 103.673 107.291 103.668 107.3L103.668 107.3L103.662 107.31L99.0597 115.541C98.6086 116.348 97.6401 116.496 97.1183 115.956C96.427 115.24 95.9626 114.472 95.7867 113.655C95.6126 112.846 95.7111 111.942 96.223 110.926C96.4779 110.422 96.7682 109.898 97.0727 109.348C97.1278 109.248 97.1834 109.148 97.2394 109.046C97.6018 108.39 97.9757 107.702 98.3109 106.997C98.9781 105.595 99.5164 104.081 99.4993 102.547C99.4742 100.307 98.241 98.4977 96.1068 97.462L96.1062 97.4617C94.242 96.5602 92.178 96.723 90.4806 97.9053L90.4803 97.9055C88.5358 99.2619 87.601 101.241 87.926 103.458C88.1308 104.859 88.8376 106.179 89.6399 107.385C90.0431 107.991 90.4788 108.58 90.8983 109.142C90.9349 109.191 90.9714 109.24 91.0077 109.289C91.3903 109.801 91.7548 110.289 92.0774 110.762C93.0797 112.235 92.5944 113.785 91.5118 115.201C91.0394 115.819 90.0313 115.773 89.4951 114.996C88.2463 113.186 86.39 110.512 85.4314 109.206C83.993 107.248 83.2258 104.146 83.7153 101.39L83.7153 101.39C84.2049 98.6325 85.7339 96.2351 88.0234 94.6362L88.0535 94.6152L88.0803 94.5899L88.184 94.492L88.2085 94.4689L88.2297 94.4427L88.2831 94.3765L88.3373 94.3095L88.3659 94.2282L88.4463 93.9997L88.4673 93.9402L88.4728 93.8773L88.4802 93.7926L88.4861 93.7244L88.4735 93.657L88.4359 93.4565L88.4239 93.3924L88.3959 93.3335L88.3642 93.2669L88.3362 93.2081L88.2941 93.1585L88.1348 92.9707L88.0809 92.9071L88.0093 92.8644L87.8929 92.7951L87.8716 92.7824L87.8491 92.7719C87.7387 92.7202 87.6087 92.6852 87.4746 92.6802C87.345 92.6731 87.2366 92.6916 87.1647 92.7044L87.1047 92.7151L87.0491 92.7399L86.8708 92.8193L86.832 92.8365L86.7967 92.86L70.1803 103.939C69.7843 104.203 69.3391 104.251 69.0028 104.075C68.5499 103.838 68.1323 103.537 67.7395 103.188C67.163 102.677 67.2618 101.684 68.0344 101.18L84.8793 90.1907L84.8802 90.1902C85.3768 89.8647 85.5163 89.1952 85.1913 88.6983Z" fill="#FACF35" stroke="#FACF35"/>
<path d="M115.54 109.857C115.673 128.992 125.637 139.818 130.603 142.839C133.251 129.621 119.347 88.0792 118.189 82.0367C117.03 75.9943 115.375 85.9392 115.54 109.857Z" fill="#2A3070"/>
<path d="M123.465 90.4636C122.102 114.146 127.099 135.248 129.768 142.839C136.072 142.839 132.154 130.188 135.22 119.435C138.287 108.681 127.042 94.6385 128.576 67.1857C130.109 39.7328 125.168 60.8601 123.465 90.4636Z" fill="#6672F8" stroke="#6672F8"/>
<path d="M141.075 86.7954C142.961 113.686 135.526 141.991 131.355 142.915C124.922 142.577 136.578 87.5748 136.886 73.4969C137.194 59.419 139.189 59.9048 141.075 86.7954Z" fill="#2A3070"/>
<path d="M150.252 97.1947C142.14 132.355 138.85 142.026 133.802 142.536C129.718 141.287 136.046 128.302 141.181 113.721C144.793 103.465 144.343 92.9244 149.982 84.6564C155.62 76.3884 158.364 62.034 150.252 97.1947Z" stroke="#6672F8"/>
<path fill-rule="evenodd" clip-rule="evenodd" d="M172.033 143.832V93.256C172.033 50.5369 137.402 15.9062 94.6832 15.9062C51.9642 15.9062 17.3335 50.5369 17.3335 93.256V143.832H16.3335V93.256C16.3335 49.9847 51.4119 14.9062 94.6832 14.9062C137.955 14.9062 173.033 49.9846 173.033 93.256V143.832H172.033Z" fill="#6672F8"/>
<path d="M153.366 119.077C153.231 118.913 153.131 118.889 153.022 118.908L153.022 118.908C152.91 118.927 152.7 119.05 152.43 119.484C152.172 119.897 151.919 120.501 151.682 121.274C151.209 122.814 150.828 124.931 150.573 127.299C150.096 131.739 150.068 136.976 150.658 140.82C150.713 141.091 150.757 141.354 150.791 141.606L149.803 141.763C149.757 141.512 149.713 141.254 149.673 140.99C149.045 137.879 147.01 133.385 144.954 129.802C143.844 127.867 142.75 126.238 141.902 125.263C141.51 124.813 141.212 124.553 141.019 124.442C139.872 127.44 140.615 130.717 142.349 133.705C142.403 133.798 142.456 133.891 142.51 133.983C143.89 136.361 145.089 138.427 146.413 139.924C147.772 141.462 149.21 142.339 151.047 142.339C156.62 142.339 160.195 138.368 162.293 134.02C163.337 131.854 163.996 129.629 164.339 127.834C164.51 126.936 164.6 126.154 164.621 125.548C164.632 125.245 164.625 124.993 164.605 124.797C164.601 124.763 164.597 124.731 164.593 124.702C164.574 124.712 164.554 124.723 164.532 124.736C164.237 124.906 163.821 125.239 163.304 125.73C162.28 126.704 160.949 128.21 159.54 129.999C156.718 133.58 153.638 138.223 152.106 141.866L151.178 141.492C153.543 135.343 154.551 128.942 154.158 122.586L154.158 122.586C154.113 121.856 154.017 120.811 153.78 119.988C153.66 119.571 153.518 119.262 153.366 119.077ZM140.904 124.391C140.904 124.391 140.905 124.391 140.907 124.392C140.905 124.391 140.904 124.391 140.904 124.391ZM141.064 124.318C141.065 124.316 141.065 124.315 141.065 124.315C141.065 124.315 141.064 124.316 141.064 124.318Z" fill="#FCA081" stroke="#FCA081"/>
<ellipse cx="94.324" cy="10.953" rx="3.95343" ry="3.95298" fill="#6672F8"/>
<path d="M100.309 127.852C100.309 131.034 97.7294 133.888 94.5475 133.888C91.3656 133.888 88.7861 131.034 88.7861 127.852C88.7861 127.852 91.0912 127.852 94.2731 127.852C97.4551 127.852 100.309 127.852 100.309 127.852Z" fill="#6A6AF4"/>
<path d="M94.5475 113.585C93.8273 117.243 88.7861 124.559 88.7861 127.852H100.309C100.309 124.011 95.2677 117.243 94.5475 113.585Z" fill="#6A6AF4"/>
<path d="M84.4651 121.096C84.4651 122.289 83.4978 123.36 82.3046 123.36C81.1113 123.36 80.144 122.289 80.144 121.096C80.144 121.096 81.0085 121.096 82.2017 121.096C83.3949 121.096 84.4651 121.096 84.4651 121.096Z" fill="#6A6AF4"/>
<path d="M82.3046 115.746C82.0345 117.118 80.144 119.861 80.144 121.096H84.4651C84.4651 119.656 82.5746 117.118 82.3046 115.746Z" fill="#6A6AF4"/>
<path d="M110.391 136.219C110.391 137.412 109.424 138.483 108.231 138.483C107.038 138.483 106.07 137.412 106.07 136.219C106.07 136.219 106.935 136.219 108.128 136.219C109.321 136.219 110.391 136.219 110.391 136.219Z" fill="#6A6AF4"/>
<path d="M108.231 130.87C107.961 132.241 106.07 134.985 106.07 136.219H110.391C110.391 134.779 108.501 132.241 108.231 130.87Z" fill="#6A6AF4"/>
<path d="M100.309 143.112C100.309 146.15 97.5681 148.874 94.1874 148.874C90.8066 148.874 88.0659 146.15 88.0659 143.112C88.0659 143.112 90.5151 143.112 93.8959 143.112C97.2767 143.112 100.309 143.112 100.309 143.112Z" fill="#6A6AF4"/>
</svg>
