<svg width="257" height="213" viewBox="0 0 257 213" fill="none" xmlns="http://www.w3.org/2000/svg">
<path fill-rule="evenodd" clip-rule="evenodd" d="M114.935 140.711C114.935 140.711 114.936 140.711 114.936 140.711V140.711C114.936 140.711 114.936 140.712 114.936 140.712V158.719C114.936 159.823 114.041 160.719 112.936 160.719H81.0811C79.9765 160.719 79.0811 159.823 79.0811 158.719V141.454C79.0811 141.044 79.4134 140.711 79.8234 140.711V140.711C79.9914 140.711 80.1545 140.654 80.2859 140.55L111.689 115.532C112.999 114.488 114.935 115.421 114.935 117.096V140.711Z" fill="#6470F4"/>
<path d="M94.3676 141.255C92.6079 144.38 96.6328 146.651 98.0728 148.385C102.03 153.148 93.2521 161.303 86.4797 160.736C79.7073 160.169 76.9576 150.058 81.5632 140.678C83.4179 136.901 83.5495 135.765 81.0891 128.12C78.6286 120.475 88.3037 119.399 90.0619 112.738C91.8228 106.067 86.6427 99.1582 92.2335 92.8218C96.0174 88.5333 102.001 95.5049 102.879 98.8685C105.835 110.19 95.1838 113.951 97.9035 118.467C100.495 122.195 105.221 125.396 103.837 130.987C102.807 135.148 96.5006 137.468 94.3676 141.255Z" fill="#1EBA8D"/>
<path fill-rule="evenodd" clip-rule="evenodd" d="M166.999 140.711C166.999 140.711 166.999 140.711 166.999 140.711V140.711C167 140.711 167 140.712 167 140.712V158.719C167 159.823 166.104 160.719 165 160.719H133.145C132.04 160.719 131.145 159.823 131.145 158.719V141.454C131.145 141.044 131.477 140.711 131.887 140.711V140.711C132.055 140.711 132.218 140.654 132.349 140.55L163.753 115.532C165.063 114.488 166.999 115.421 166.999 117.096V140.711Z" fill="#6470F4"/>
<path fill-rule="evenodd" clip-rule="evenodd" d="M141.459 140.711C141.459 140.711 141.46 140.711 141.46 140.711V140.711C141.46 140.711 141.46 140.712 141.46 140.712V158.719C141.46 159.823 140.565 160.719 139.46 160.719H107.605C106.5 160.719 105.605 159.823 105.605 158.719V141.454C105.605 141.044 105.937 140.711 106.347 140.711V140.711C106.515 140.711 106.678 140.654 106.81 140.55L138.213 115.532C139.523 114.488 141.459 115.421 141.459 117.096V140.711Z" fill="#6470F4"/>
<path d="M75.6432 80.7446C75.9934 78.4866 79.2458 78.4866 79.596 80.7446L91.6549 158.506C91.8429 159.719 90.9053 160.813 89.6785 160.813H65.5607C64.3339 160.813 63.3963 159.719 63.5843 158.506L75.6432 80.7446Z" fill="#FCA081"/>
<path d="M136.626 100.198C134.707 100.198 133.151 98.6581 133.151 96.7583C133.151 94.8586 134.707 93.3185 136.626 93.3185C138.545 93.3185 140.1 94.8586 140.1 96.7583C140.1 98.6581 138.545 100.198 136.626 100.198Z" fill="#6672F8"/>
<path d="M147.857 129.102C147.227 125.219 146.945 121.465 147.966 118.87C148.834 116.639 150.723 115.389 153.004 114.538L173.096 108.101C175.702 107.241 178.137 105.801 178.308 102.954C178.525 99.2994 175.268 96.9345 172.011 97.7945C172.011 97.7945 152.901 104.489 136.615 104.489C120.329 104.489 101.437 97.8246 101.437 97.8246C97.528 96.7496 94.9222 99.7595 94.9222 102.939C94.9222 105.994 97.3109 107.069 100.134 108.086L119.243 114.947C120.98 115.592 123.803 116.881 124.889 118.855C126.192 121.166 125.975 125.204 125.345 129.087L124.064 135.457L115.94 170.694C115.332 173.521 117.308 176.163 120.153 176.658C122.998 177.152 125.323 175.23 126.166 172.496L134.322 147.572C134.714 146.376 135.062 145.167 135.364 143.945L136.615 138.897L137.766 143.551C138.131 145.035 138.551 146.502 139.026 147.954L147.038 172.474C147.907 175.237 150.187 177.15 153.032 176.658C155.876 176.165 157.896 173.306 157.257 170.694L149.138 135.472L147.857 129.102Z" fill="#000091"/>
<mask id="path-8-inside-1_5876_106663" fill="white">
<ellipse cx="161.284" cy="47.7371" rx="2.17365" ry="2.15338"/>
</mask>
<path d="M159.608 47.7371C159.608 46.7662 160.393 46.0405 161.284 46.0405V53.7405C164.577 53.7405 167.308 51.0866 167.308 47.7371H159.608ZM161.284 46.0405C162.176 46.0405 162.961 46.7662 162.961 47.7371H155.261C155.261 51.0866 157.992 53.7405 161.284 53.7405V46.0405ZM162.961 47.7371C162.961 48.7081 162.176 49.4337 161.284 49.4337V41.7337C157.992 41.7337 155.261 44.3876 155.261 47.7371H162.961ZM161.284 49.4337C160.393 49.4337 159.608 48.7081 159.608 47.7371H167.308C167.308 44.3876 164.577 41.7337 161.284 41.7337V49.4337Z" fill="#FACF35" mask="url(#path-8-inside-1_5876_106663)"/>
<ellipse cx="69.1396" cy="60.3214" rx="0.934498" ry="0.925205" fill="#000091"/>
<ellipse cx="120.071" cy="32.1026" rx="0.934497" ry="0.925207" fill="#000091"/>
<path d="M106.042 63.3931C106.042 64.5342 105.114 65.4623 103.964 65.4623C102.815 65.4623 101.886 64.5342 101.886 63.3931C101.886 62.2519 102.815 61.3239 103.964 61.3239C105.114 61.3239 106.042 62.2519 106.042 63.3931Z" stroke="white"/>
<mask id="path-13-inside-2_5876_106663" fill="white">
<path fill-rule="evenodd" clip-rule="evenodd" d="M98.6553 43.0008C98.6539 43.0047 98.6526 43.0086 98.6512 43.0126L98.643 43.037C98.6631 43.0433 98.6831 43.0498 98.7031 43.0565C100.979 43.8144 102.203 46.2556 101.445 48.5179C101.466 48.5243 101.486 48.5306 101.506 48.5368C101.513 48.5153 101.52 48.4938 101.528 48.4724C102.289 46.2434 104.695 45.024 106.945 45.7027L106.957 45.6652C104.719 44.909 103.506 42.5216 104.208 40.2875L104.19 40.2813C104.175 40.2765 104.161 40.2718 104.147 40.2672C103.373 42.5145 100.924 43.7307 98.6553 43.0008Z"/>
</mask>
<path fill-rule="evenodd" clip-rule="evenodd" d="M98.6553 43.0008C98.6539 43.0047 98.6526 43.0086 98.6512 43.0126L98.643 43.037C98.6631 43.0433 98.6831 43.0498 98.7031 43.0565C100.979 43.8144 102.203 46.2556 101.445 48.5179C101.466 48.5243 101.486 48.5306 101.506 48.5368C101.513 48.5153 101.52 48.4938 101.528 48.4724C102.289 46.2434 104.695 45.024 106.945 45.7027L106.957 45.6652C104.719 44.909 103.506 42.5216 104.208 40.2875L104.19 40.2813C104.175 40.2765 104.161 40.2718 104.147 40.2672C103.373 42.5145 100.924 43.7307 98.6553 43.0008Z" fill="#FCA081"/>
<path d="M98.6512 43.0126L97.703 42.6951L97.7021 42.6979L98.6512 43.0126ZM98.6553 43.0008L98.9671 42.0507L98.029 41.7488L97.708 42.6807L98.6553 43.0008ZM98.643 43.037L97.6939 42.7223L97.3694 43.6819L98.335 43.9883L98.643 43.037ZM98.7031 43.0565L99.0246 42.1095L99.0246 42.1095L98.7031 43.0565ZM101.445 48.5179L100.495 48.206L100.174 49.1637L101.137 49.4692L101.445 48.5179ZM101.506 48.5368L101.212 49.4924L102.155 49.7769L102.459 48.8396L101.506 48.5368ZM101.528 48.4724L102.476 48.7899L102.476 48.7899L101.528 48.4724ZM106.945 45.7027L106.651 46.6583L107.599 46.9441L107.9 46.0012L106.945 45.7027ZM106.957 45.6652L107.911 45.9637L108.209 45.0324L107.283 44.7196L106.957 45.6652ZM104.208 40.2875L105.164 40.5818L105.456 39.6513L104.532 39.3412L104.208 40.2875ZM104.19 40.2813L104.513 39.335L104.511 39.3343L104.19 40.2813ZM104.147 40.2672L104.459 39.3171L103.52 39.0152L103.199 39.9471L104.147 40.2672ZM99.5994 43.33C99.6005 43.327 99.6015 43.3239 99.6026 43.3209L97.708 42.6807C97.7063 42.6855 97.7047 42.6903 97.703 42.6951L99.5994 43.33ZM99.5921 43.3517L99.6004 43.3273L97.7021 42.6979L97.6939 42.7223L99.5921 43.3517ZM99.0246 42.1095C99.0001 42.1014 98.9756 42.0934 98.951 42.0856L98.335 43.9883C98.3505 43.9933 98.3661 43.9983 98.3816 44.0035L99.0246 42.1095ZM102.395 48.8298C103.329 46.0418 101.82 43.0402 99.0246 42.1095L98.3816 44.0035C100.139 44.5886 101.077 46.4694 100.495 48.206L102.395 48.8298ZM101.801 47.5812C101.785 47.5764 101.769 47.5715 101.753 47.5665L101.137 49.4692C101.162 49.4771 101.187 49.4849 101.212 49.4924L101.801 47.5812ZM100.58 48.1549C100.571 48.1813 100.562 48.2077 100.553 48.2339L102.459 48.8396C102.465 48.8229 102.47 48.8064 102.476 48.7899L100.58 48.1549ZM107.239 44.7471C104.477 43.9139 101.517 45.4092 100.58 48.1549L102.476 48.7899C103.06 47.0777 104.913 46.1341 106.651 46.6583L107.239 44.7471ZM106.003 45.3667L105.991 45.4042L107.9 46.0012L107.911 45.9637L106.003 45.3667ZM103.252 39.9931C102.387 42.7468 103.882 45.6822 106.631 46.6108L107.283 44.7196C105.555 44.1359 104.625 42.2964 105.164 40.5818L103.252 39.9931ZM103.866 41.2276L103.885 41.2338L104.532 39.3412L104.513 39.335L103.866 41.2276ZM103.835 41.2173C103.846 41.2209 103.857 41.2246 103.868 41.2283L104.511 39.3343C104.494 39.3285 104.476 39.3227 104.459 39.3171L103.835 41.2173ZM103.199 39.9471C102.605 41.6734 100.719 42.6145 98.9671 42.0507L98.3434 43.9509C101.128 44.8469 104.14 43.3556 105.094 40.5873L103.199 39.9471Z" fill="#FCA081" mask="url(#path-13-inside-2_5876_106663)"/>
<mask id="path-15-inside-3_5876_106663" fill="white">
<path fill-rule="evenodd" clip-rule="evenodd" d="M153.801 32.7502C155.857 31.6983 158.396 32.4283 159.563 34.4482C159.574 34.4665 159.584 34.4848 159.594 34.5032L159.618 34.4893L159.604 34.4647C158.432 32.4378 159.072 29.8569 161.021 28.5971C158.97 29.6464 156.439 28.9228 155.268 26.9146C155.26 26.919 155.252 26.9235 155.244 26.928C156.38 28.9479 155.736 31.4998 153.801 32.7502Z"/>
</mask>
<path d="M159.563 34.4482L160.429 33.9472L160.429 33.9472L159.563 34.4482ZM153.801 32.7502L153.259 31.91L154.256 33.6408L153.801 32.7502ZM159.594 34.5032L158.722 34.9919L159.22 35.8826L160.1 35.366L159.594 34.5032ZM159.618 34.4893L160.124 35.3521L160.984 34.8473L160.482 33.9855L159.618 34.4893ZM159.604 34.4647L158.738 34.9657L158.74 34.9685L159.604 34.4647ZM161.021 28.5971L161.563 29.4374L160.566 27.7065L161.021 28.5971ZM155.268 26.9146L156.131 26.4101L155.636 25.5615L154.779 26.042L155.268 26.9146ZM155.244 26.928L154.75 26.0584L153.884 26.5508L154.373 27.4189L155.244 26.928ZM160.429 33.9472C158.993 31.4628 155.872 30.5673 153.346 31.8595L154.256 33.6408C155.842 32.8293 157.799 33.3938 158.698 34.9493L160.429 33.9472ZM160.467 34.0145C160.454 33.992 160.442 33.9696 160.429 33.9472L158.698 34.9493C158.706 34.9634 158.714 34.9777 158.722 34.9919L160.467 34.0145ZM159.113 33.6265L159.089 33.6404L160.1 35.366L160.124 35.3521L159.113 33.6265ZM158.74 34.9685L158.754 34.9931L160.482 33.9855L160.468 33.9608L158.74 34.9685ZM160.479 27.7569C158.085 29.3038 157.298 32.4735 158.738 34.9657L160.469 33.9636C159.567 32.4021 160.058 30.4099 161.563 29.4374L160.479 27.7569ZM154.404 27.4191C155.845 29.8892 158.956 30.7767 161.476 29.4878L160.566 27.7065C158.984 28.516 157.033 27.9564 156.131 26.4101L154.404 27.4191ZM155.738 27.7976C155.744 27.7941 155.75 27.7906 155.756 27.7872L154.779 26.042C154.769 26.0474 154.76 26.0529 154.75 26.0584L155.738 27.7976ZM154.373 27.4189C155.248 28.9748 154.752 30.9447 153.259 31.91L154.343 33.5904C156.719 32.0549 157.512 28.9209 156.115 26.4371L154.373 27.4189Z" fill="#1EBE8E" mask="url(#path-15-inside-3_5876_106663)"/>
<mask id="path-17-inside-4_5876_106663" fill="white">
<path fill-rule="evenodd" clip-rule="evenodd" d="M74.0264 37.2449C74.0275 37.2474 74.0285 37.25 74.0295 37.2525C75.4225 36.6743 77.0313 37.3231 77.6282 38.7065C77.6338 38.7194 77.6393 38.7324 77.6447 38.7454L77.658 38.7398L77.6722 38.7338L77.6721 38.7336C77.0753 37.3504 77.7151 35.755 79.1013 35.1622L79.0979 35.1542C77.719 35.6968 76.1438 35.0508 75.551 33.689C75.5417 33.6926 75.5324 33.6963 75.5231 33.7001C76.0879 35.077 75.4406 36.6497 74.0601 37.231C74.0489 37.2357 74.0377 37.2404 74.0264 37.2449Z"/>
</mask>
<path fill-rule="evenodd" clip-rule="evenodd" d="M74.0264 37.2449C74.0275 37.2474 74.0285 37.25 74.0295 37.2525C75.4225 36.6743 77.0313 37.3231 77.6282 38.7065C77.6338 38.7194 77.6393 38.7324 77.6447 38.7454L77.658 38.7398L77.6722 38.7338L77.6721 38.7336C77.0753 37.3504 77.7151 35.755 79.1013 35.1622L79.0979 35.1542C77.719 35.6968 76.1438 35.0508 75.551 33.689C75.5417 33.6926 75.5324 33.6963 75.5231 33.7001C76.0879 35.077 75.4406 36.6497 74.0601 37.231C74.0489 37.2357 74.0377 37.2404 74.0264 37.2449Z" fill="#6672F8"/>
<path d="M74.0295 37.2525L73.1027 37.6281L73.4881 38.5599L74.4194 38.1733L74.0295 37.2525ZM74.0264 37.2449L73.6438 36.3211L72.7203 36.6959L73.0985 37.6179L74.0264 37.2449ZM77.6282 38.7065L78.5491 38.3168L78.5491 38.3168L77.6282 38.7065ZM77.6447 38.7454L76.7179 39.1211L77.1043 40.0552L78.0369 39.6652L77.6447 38.7454ZM77.658 38.7398L78.0503 39.6597L78.0552 39.6576L77.658 38.7398ZM77.6722 38.7338L78.0694 39.6516L78.9902 39.2609L78.5925 38.3429L77.6722 38.7338ZM77.6721 38.7336L76.7512 39.1232L76.7518 39.1245L77.6721 38.7336ZM79.1013 35.1622L79.501 36.079L80.4185 35.6867L80.0216 34.771L79.1013 35.1622ZM79.0979 35.1542L80.0181 34.763L79.631 33.87L78.7252 34.2264L79.0979 35.1542ZM75.551 33.689L76.4706 33.2964L76.0827 32.4053L75.1783 32.7611L75.551 33.689ZM75.5231 33.7001L75.1404 32.7762L74.217 33.1511L74.5952 34.0731L75.5231 33.7001ZM74.0601 37.231L73.6655 36.3121L73.6655 36.3121L74.0601 37.231ZM74.9563 36.8768C74.9557 36.8752 74.955 36.8736 74.9543 36.872L73.0985 37.6179C73.0999 37.6213 73.1013 37.6247 73.1027 37.6281L74.9563 36.8768ZM78.5491 38.3168C77.7334 36.4265 75.538 35.5437 73.6396 36.3316L74.4194 38.1733C75.307 37.8049 76.3291 38.2196 76.7073 39.0961L78.5491 38.3168ZM78.5715 38.3697C78.5641 38.352 78.5567 38.3344 78.5491 38.3168L76.7073 39.0961C76.7109 39.1044 76.7144 39.1127 76.7179 39.1211L78.5715 38.3697ZM77.2657 37.8199L77.2524 37.8255L78.0369 39.6652L78.0503 39.6597L77.2657 37.8199ZM77.275 37.8159L77.2609 37.8219L78.0552 39.6576L78.0694 39.6516L77.275 37.8159ZM76.7518 39.1245L76.7518 39.1247L78.5925 38.3429L78.5925 38.3427L76.7518 39.1245ZM78.7016 34.2455C76.8112 35.0538 75.9352 37.2321 76.7512 39.1232L78.593 38.3439C78.2154 37.4688 78.619 36.4561 79.501 36.079L78.7016 34.2455ZM78.1777 35.5454L78.1811 35.5534L80.0216 34.771L80.0181 34.763L78.1777 35.5454ZM74.6313 34.0815C75.4415 35.9425 77.591 36.8216 79.4705 36.0821L78.7252 34.2264C77.8469 34.572 76.8461 34.1591 76.4706 33.2964L74.6313 34.0815ZM75.9057 34.624C75.9117 34.6215 75.9177 34.6191 75.9236 34.6168L75.1783 32.7611C75.1657 32.7661 75.153 32.7711 75.1404 32.7762L75.9057 34.624ZM74.5952 34.0731C74.9524 34.9439 74.5439 35.9422 73.6655 36.3121L74.4548 38.1499C76.3373 37.3571 77.2234 35.2101 76.451 33.3271L74.5952 34.0731ZM73.6655 36.3121C73.6582 36.3151 73.651 36.3181 73.6438 36.3211L74.4091 38.1688C74.4243 38.1626 74.4396 38.1563 74.4548 38.1499L73.6655 36.3121Z" fill="#6672F8" mask="url(#path-17-inside-4_5876_106663)"/>
<mask id="path-19-inside-5_5876_106663" fill="white">
<path fill-rule="evenodd" clip-rule="evenodd" d="M74.2788 84.3122C74.2788 84.3123 74.2788 84.3124 74.2788 84.3125L74.3013 84.3123C74.2938 84.3123 74.2863 84.3123 74.2788 84.3122ZM74.3124 84.3123C75.8295 84.3163 77.059 85.5322 77.0668 87.0346C77.0745 85.5385 78.2939 84.3264 79.8023 84.3125L79.8022 84.3122C78.2975 84.2983 77.0804 83.092 77.0668 81.601L77.0667 81.601C77.0531 83.0983 75.8258 84.3084 74.3124 84.3123ZM77.0668 87.0739L77.0667 87.0739L77.0668 87.0602L77.0668 87.0739Z"/>
</mask>
<path fill-rule="evenodd" clip-rule="evenodd" d="M74.2788 84.3122C74.2788 84.3123 74.2788 84.3124 74.2788 84.3125L74.3013 84.3123C74.2938 84.3123 74.2863 84.3123 74.2788 84.3122ZM74.3124 84.3123C75.8295 84.3163 77.059 85.5322 77.0668 87.0346C77.0745 85.5385 78.2939 84.3264 79.8023 84.3125L79.8022 84.3122C78.2975 84.2983 77.0804 83.092 77.0668 81.601L77.0667 81.601C77.0531 83.0983 75.8258 84.3084 74.3124 84.3123ZM77.0668 87.0739L77.0667 87.0739L77.0668 87.0602L77.0668 87.0739Z" fill="#FCA081"/>
<path d="M74.2788 84.3125L73.2788 84.3034L73.2697 85.3171L74.2834 85.3124L74.2788 84.3125ZM74.2788 84.3122L74.288 83.3123L73.288 83.3031L73.2789 84.3031L74.2788 84.3122ZM74.3013 84.3123L74.3059 85.3123L74.3026 83.3124L74.3013 84.3123ZM77.0668 87.0346L76.0668 87.0398L78.0668 87.0398L77.0668 87.0346ZM74.3124 84.3123L74.3098 83.3123L74.3098 85.3123L74.3124 84.3123ZM79.8023 84.3125L79.8115 85.3124L80.8128 85.3031L80.8022 84.3018L79.8023 84.3125ZM79.8022 84.3122L80.8022 84.3016L80.7918 83.3213L79.8115 83.3123L79.8022 84.3122ZM77.0668 81.601L78.0668 81.5918L78.0578 80.6055L77.0715 80.601L77.0668 81.601ZM77.0667 81.601L77.0713 80.601L76.0758 80.5964L76.0667 81.5918L77.0667 81.601ZM77.0667 87.0739L76.0667 87.0674L76.0601 88.0771L77.0698 88.0739L77.0667 87.0739ZM77.0668 87.0739L77.07 88.0739L78.0714 88.0708L78.0668 87.0693L77.0668 87.0739ZM77.0668 87.0602L78.0668 87.0556L76.0668 87.0536L77.0668 87.0602ZM75.2788 84.3215L75.2788 84.3213L73.2789 84.3031L73.2788 84.3034L75.2788 84.3215ZM74.2967 83.3124L74.2742 83.3125L74.2834 85.3124L74.3059 85.3123L74.2967 83.3124ZM74.3026 83.3124C74.2977 83.3123 74.2928 83.3123 74.288 83.3123L74.2696 85.3122C74.2798 85.3123 74.2899 85.3123 74.3 85.3123L74.3026 83.3124ZM78.0668 87.0294C78.0561 84.9694 76.3729 83.3177 74.315 83.3123L74.3098 85.3123C75.2861 85.3149 76.0619 86.0951 76.0668 87.0398L78.0668 87.0294ZM79.793 83.3125C77.7467 83.3314 76.0774 84.978 76.0668 87.0294L78.0668 87.0398C78.0716 86.099 78.841 85.3214 79.8115 85.3124L79.793 83.3125ZM78.8023 84.3228L78.8023 84.3231L80.8022 84.3018L80.8022 84.3016L78.8023 84.3228ZM76.0669 81.6101C76.0855 83.6547 77.7516 85.2933 79.793 85.3122L79.8115 83.3123C78.8434 83.3033 78.0753 82.5294 78.0668 81.5918L76.0669 81.6101ZM77.0621 82.6009L77.0622 82.6009L77.0715 80.601L77.0713 80.601L77.0621 82.6009ZM76.0667 81.5918C76.0582 82.5334 75.2837 83.3098 74.3098 83.3123L74.315 85.3123C76.368 85.307 78.048 83.6632 78.0667 81.6101L76.0667 81.5918ZM77.0698 88.0739L77.07 88.0739L77.0637 86.0739L77.0636 86.0739L77.0698 88.0739ZM76.0668 87.0536L76.0667 87.0674L78.0667 87.0804L78.0668 87.0667L76.0668 87.0536ZM78.0668 87.0693L78.0668 87.0556L76.0668 87.0648L76.0669 87.0785L78.0668 87.0693Z" fill="#FCA081" mask="url(#path-19-inside-5_5876_106663)"/>
<mask id="path-21-inside-6_5876_106663" fill="white">
<path fill-rule="evenodd" clip-rule="evenodd" d="M83.1084 77.3651C83.1112 77.3792 83.1141 77.3933 83.1172 77.4074C84.6007 77.0926 86.0703 78.0185 86.4108 79.4903L86.4195 79.5289L86.4559 79.5209L86.4693 79.5178C86.1469 78.0489 87.0721 76.5945 88.5497 76.2532L88.5427 76.2221L88.5399 76.2101C87.0782 76.4918 85.6429 75.5764 85.3012 74.1287C85.2843 74.132 85.2673 74.1354 85.2504 74.139C85.5421 75.5953 84.6148 77.025 83.1462 77.3568C83.1336 77.3597 83.121 77.3624 83.1084 77.3651Z"/>
</mask>
<path fill-rule="evenodd" clip-rule="evenodd" d="M83.1084 77.3651C83.1112 77.3792 83.1141 77.3933 83.1172 77.4074C84.6007 77.0926 86.0703 78.0185 86.4108 79.4903L86.4195 79.5289L86.4559 79.5209L86.4693 79.5178C86.1469 78.0489 87.0721 76.5945 88.5497 76.2532L88.5427 76.2221L88.5399 76.2101C87.0782 76.4918 85.6429 75.5764 85.3012 74.1287C85.2843 74.132 85.2673 74.1354 85.2504 74.139C85.5421 75.5953 84.6148 77.025 83.1462 77.3568C83.1336 77.3597 83.121 77.3624 83.1084 77.3651Z" fill="#FACF35"/>
<path d="M83.1172 77.4074L82.139 77.6151L82.3506 78.5924L83.3288 78.3848L83.1172 77.4074ZM83.1084 77.3651L82.8972 76.3876L81.9335 76.5917L82.127 77.5575L83.1084 77.3651ZM86.4108 79.4903L87.3876 79.2758L87.386 79.2689L86.4108 79.4903ZM86.4195 79.5289L85.4428 79.7434L85.6612 80.7187L86.6375 80.5048L86.4195 79.5289ZM86.4559 79.5209L86.674 80.4969L86.6827 80.4949L86.4559 79.5209ZM86.4693 79.5178L86.696 80.4919L87.6585 80.272L87.4469 79.3075L86.4693 79.5178ZM88.5497 76.2532L88.7787 77.2267L89.7439 77.0038L89.5261 76.0374L88.5497 76.2532ZM88.5427 76.2221L89.5191 76.0063L89.5172 75.9983L88.5427 76.2221ZM88.5399 76.2101L89.5144 75.9863L89.2945 75.0463L88.3466 75.2291L88.5399 76.2101ZM85.3012 74.1287L86.2753 73.903L86.0539 72.9653L85.1079 73.1477L85.3012 74.1287ZM85.2504 74.139L85.0393 73.1615L84.0756 73.3656L84.269 74.3314L85.2504 74.139ZM83.1462 77.3568L83.3706 78.3314L83.3706 78.3314L83.1462 77.3568ZM84.0954 77.1998C84.0934 77.1908 84.0916 77.1817 84.0898 77.1727L82.127 77.5575C82.1308 77.5767 82.1348 77.5959 82.139 77.6151L84.0954 77.1998ZM87.386 79.2689C86.9205 77.2574 84.9169 76.0032 82.9056 76.4301L83.3288 78.3848C84.2845 78.182 85.22 78.7796 85.4357 79.7117L87.386 79.2689ZM87.3962 79.3143L87.3875 79.2758L85.4342 79.7048L85.4428 79.7434L87.3962 79.3143ZM86.2379 78.5449L86.2015 78.5529L86.6375 80.5048L86.674 80.4969L86.2379 78.5449ZM86.2425 78.5438L86.2292 78.5469L86.6827 80.4949L86.696 80.4919L86.2425 78.5438ZM88.3206 75.2797C86.3166 75.7426 85.0509 77.7196 85.4916 79.7281L87.4469 79.3075C87.243 78.3782 87.8275 77.4464 88.7787 77.2267L88.3206 75.2797ZM87.5663 76.438L87.5733 76.4691L89.5261 76.0374L89.5191 76.0063L87.5663 76.438ZM87.5653 76.434L87.5681 76.446L89.5172 75.9983L89.5144 75.9863L87.5653 76.434ZM84.3271 74.3545C84.7941 76.333 86.751 77.5732 88.7331 77.1912L88.3466 75.2291C87.4055 75.4104 86.4917 74.8197 86.2753 73.903L84.3271 74.3545ZM85.4615 75.1165C85.4725 75.1141 85.4835 75.1119 85.4944 75.1098L85.1079 73.1477C85.085 73.1521 85.0621 73.1567 85.0393 73.1615L85.4615 75.1165ZM84.269 74.3314C84.4536 75.2525 83.8672 76.1687 82.9218 76.3823L83.3706 78.3314C85.3625 77.8813 86.6307 75.938 86.2318 73.9466L84.269 74.3314ZM82.9218 76.3823C82.9136 76.3841 82.9054 76.3859 82.8972 76.3876L83.3195 78.3425C83.3365 78.3389 83.3536 78.3352 83.3706 78.3314L82.9218 76.3823Z" fill="#FACF35" mask="url(#path-21-inside-6_5876_106663)"/>
<path fill-rule="evenodd" clip-rule="evenodd" d="M165.53 59.2825H95.0525C94.6348 58.2122 94.4092 57.0706 94.4092 55.8854C94.4092 49.7823 100.392 44.8347 107.772 44.8347C110.181 44.8347 112.441 45.3619 114.393 46.2845C116.833 40.4495 123.535 36.2589 131.42 36.2589C137.898 36.2589 143.578 39.0876 146.751 43.3329C148.522 42.7633 150.468 42.4485 152.51 42.4485C160.717 42.4485 167.37 47.5331 167.37 53.8052C167.37 55.7913 166.703 57.6583 165.53 59.2825Z" fill="#E8EDFF"/>
<path d="M170.865 58.0964C170.865 69.6579 161.705 73.0208 152.942 76.2916C151.77 76.729 150.542 77.1324 149.265 77.4987C148.258 77.7877 147.22 78.0536 146.155 78.2951C141.51 79.3477 136.337 79.9349 130.885 79.9349C110.738 79.9349 92.873 69.9147 92.873 60.0243C92.873 57.1003 93.5155 49.7465 104.475 45.2512C121.232 52.3179 116.694 44.1186 130.885 44.1186C141.665 44.1186 155.807 41.5997 162.485 45.2497C168.287 48.4208 170.865 53.4984 170.865 58.0964Z" fill="#E8EDFF"/>
<path d="M136.203 87.1156C139.373 82.0574 141.201 77.3021 139.987 75.2445L153.795 72.297C150.719 81.2822 140.785 85.9199 136.203 87.1156Z" fill="#E8EDFF"/>
<ellipse cx="15.1347" cy="32.7476" rx="15.1347" ry="32.7476" transform="matrix(-0.964583 -0.263778 -0.33289 0.942966 206 32.9844)" fill="#1EBA8D"/>
<path d="M169.158 112.535C168.813 98.9857 173.63 66.8073 184.368 47.9067" stroke="#000091" stroke-linecap="round"/>
<path d="M184.271 64.4711C182.187 65.5666 177.458 68.3565 175.215 70.7519C172.843 64.3379 171.909 61.7424 171.739 61.2464" stroke="#000091" stroke-linecap="round"/>
<path d="M188.524 54.6121C186.331 55.5267 181.32 57.9045 178.826 60.0994C177.164 53.5147 176.517 50.8523 176.402 50.3442" stroke="#000091" stroke-linecap="round"/>
<ellipse opacity="0.03" cx="130.625" cy="119.488" rx="88.5" ry="89" stroke="#000091" stroke-width="60"/>
<mask id="path-31-inside-7_5876_106663" fill="white">
<path fill-rule="evenodd" clip-rule="evenodd" d="M142.769 19.2079C142.198 19.9252 141.2 20.0958 140.246 19.545C140.151 19.4903 140.059 19.4302 139.971 19.3652C139.948 19.426 139.927 19.4888 139.909 19.5538C139.874 19.6745 139.849 19.7981 139.832 19.9234C139.865 19.9407 139.898 19.9588 139.931 19.9777C140.801 20.4801 141.402 21.4474 141.544 22.4325C142.115 21.715 143.113 21.5444 144.067 22.0952C144.15 22.1427 144.229 22.1943 144.307 22.2497C144.322 22.2061 144.336 22.1615 144.349 22.1159C144.389 21.978 144.417 21.8364 144.433 21.6926C144.416 21.6833 144.399 21.6738 144.382 21.6641C143.511 21.1615 142.91 20.1935 142.769 19.2079Z"/>
</mask>
<path fill-rule="evenodd" clip-rule="evenodd" d="M142.769 19.2079C142.198 19.9252 141.2 20.0958 140.246 19.545C140.151 19.4903 140.059 19.4302 139.971 19.3652C139.948 19.426 139.927 19.4888 139.909 19.5538C139.874 19.6745 139.849 19.7981 139.832 19.9234C139.865 19.9407 139.898 19.9588 139.931 19.9777C140.801 20.4801 141.402 21.4474 141.544 22.4325C142.115 21.715 143.113 21.5444 144.067 22.0952C144.15 22.1427 144.229 22.1943 144.307 22.2497C144.322 22.2061 144.336 22.1615 144.349 22.1159C144.389 21.978 144.417 21.8364 144.433 21.6926C144.416 21.6833 144.399 21.6738 144.382 21.6641C143.511 21.1615 142.91 20.1935 142.769 19.2079Z" fill="#FCA081"/>
<path d="M142.769 19.2079L143.699 19.1581L143.36 16.7943L142.035 18.4574L142.769 19.2079ZM140.246 19.545L140.599 18.6181L140.599 18.6181L140.246 19.545ZM139.971 19.3652L140.425 18.5043L139.495 17.8169L139.098 18.8624L139.971 19.3652ZM139.909 19.5538L139.009 19.1309L139.909 19.5538ZM139.832 19.9234L138.9 19.6533L138.788 20.4895L139.516 20.8705L139.832 19.9234ZM139.931 19.9777L139.578 20.9046L139.578 20.9046L139.931 19.9777ZM141.544 22.4325L140.614 22.4829L140.954 24.8455L142.278 23.1829L141.544 22.4325ZM144.067 22.0952L144.42 21.1683L144.42 21.1683L144.067 22.0952ZM144.307 22.2497L143.866 23.1199L144.813 23.799L145.189 22.729L144.307 22.2497ZM144.349 22.1159L143.449 21.693L143.449 21.693L144.349 22.1159ZM144.433 21.6926L145.368 21.9409L145.459 21.1353L144.767 20.7551L144.433 21.6926ZM144.382 21.6641L144.735 20.7372L144.735 20.7372L144.382 21.6641ZM142.035 18.4574C141.739 18.8292 141.191 18.9598 140.599 18.6181L139.893 20.4719C141.21 21.2318 142.656 21.0212 143.503 19.9584L142.035 18.4574ZM140.599 18.6181C140.539 18.5836 140.481 18.5455 140.425 18.5043L139.518 20.2261C139.638 20.3149 139.763 20.3971 139.893 20.4719L140.599 18.6181ZM140.809 19.9766C140.82 19.9387 140.832 19.9025 140.845 19.8679L139.098 18.8624C139.065 18.9494 139.035 19.039 139.009 19.1309L140.809 19.9766ZM140.764 20.1936C140.774 20.1195 140.789 20.047 140.809 19.9766L139.009 19.1309C138.96 19.302 138.924 19.4766 138.9 19.6533L140.764 20.1936ZM140.284 19.0508C140.239 19.0249 140.194 19.0001 140.148 18.9764L139.516 20.8705C139.536 20.8813 139.557 20.8927 139.578 20.9046L140.284 19.0508ZM142.473 22.3821C142.281 21.0432 141.471 19.736 140.284 19.0508L139.578 20.9046C140.131 21.2242 140.523 21.8516 140.614 22.4829L142.473 22.3821ZM144.42 21.1683C143.103 20.4083 141.656 20.619 140.81 21.6821L142.278 23.1829C142.574 22.811 143.122 22.6804 143.714 23.0221L144.42 21.1683ZM144.748 21.3796C144.642 21.3039 144.533 21.2333 144.42 21.1683L143.714 23.0221C143.766 23.0521 143.817 23.0848 143.866 23.1199L144.748 21.3796ZM143.449 21.693C143.442 21.7197 143.433 21.7455 143.425 21.7705L145.189 22.729C145.211 22.6668 145.231 22.6033 145.25 22.5387L143.449 21.693ZM143.498 21.4443C143.489 21.5295 143.472 21.6126 143.449 21.693L145.25 22.5387C145.306 22.3433 145.345 22.1432 145.368 21.9409L143.498 21.4443ZM144.029 22.591C144.052 22.6043 144.075 22.6173 144.099 22.63L144.767 20.7551C144.757 20.7493 144.746 20.7433 144.735 20.7372L144.029 22.591ZM141.839 19.2578C142.031 20.5974 142.841 21.9055 144.029 22.591L144.735 20.7372C144.181 20.4175 143.789 19.7896 143.699 19.1581L141.839 19.2578Z" fill="#FCA081" mask="url(#path-31-inside-7_5876_106663)"/>
<circle cx="110" cy="21" r="1" fill="#6A6AF4"/>
<path d="M246.443 137.383C254.182 142.933 257.908 147.94 256.563 151.903C252.011 165.304 191.165 161.678 120.66 143.804C50.1551 125.93 -3.31078 100.577 1.24083 87.1764C2.87438 82.3669 11.7589 79.7506 25.7386 79.1989" stroke="#FACF35" stroke-width="1.5"/>
</svg>
