<svg width="117" height="66" viewBox="0 0 117 66" fill="none" xmlns="http://www.w3.org/2000/svg">
<path d="M38.2129 63.3391V59.8111H38.8079V60.2521C39.0669 59.9441 39.3889 59.7411 39.8369 59.7411C39.9489 59.7411 40.0539 59.7551 40.1379 59.7831V60.3641C40.0329 60.3361 39.9279 60.3221 39.7879 60.3221C39.3259 60.3221 39.0249 60.5601 38.8079 60.9171V63.3391H38.2129Z" fill="black"/>
<path d="M35.2413 63.4371C34.5483 63.4371 34.0793 63.0521 34.0793 62.4501C34.0793 61.9181 34.4853 61.5401 35.2343 61.4141L36.4243 61.2181V60.9731C36.4243 60.4831 36.0743 60.2031 35.5703 60.2031C35.1643 60.2031 34.8353 60.3921 34.6183 60.6931L34.1703 60.3501C34.4783 59.9301 34.9753 59.6711 35.5913 59.6711C36.4873 59.6711 37.0193 60.1961 37.0193 60.9731V63.3391H36.4243V62.8911C36.1583 63.2341 35.6963 63.4371 35.2413 63.4371ZM34.6813 62.4291C34.6813 62.7301 34.9263 62.9471 35.3393 62.9471C35.8083 62.9471 36.1933 62.7231 36.4243 62.3451V61.6521L35.3813 61.8271C34.8983 61.9111 34.6813 62.1281 34.6813 62.4291Z" fill="black"/>
<path d="M29.7227 65.0611V59.8111H30.3177V60.2311C30.6327 59.8741 31.0457 59.6711 31.5707 59.6711C32.6767 59.6711 33.3837 60.5461 33.3837 61.5751C33.3837 62.6041 32.6767 63.4791 31.5707 63.4791C31.0457 63.4791 30.6327 63.2761 30.3177 62.9191V65.0611H29.7227ZM31.5007 60.2311C31.0107 60.2311 30.5837 60.4691 30.3177 60.8891V62.2611C30.5907 62.6881 31.0177 62.9191 31.5007 62.9191C32.2497 62.9191 32.7607 62.3241 32.7607 61.5751C32.7607 60.8261 32.2497 60.2311 31.5007 60.2311Z" fill="black"/>
<path d="M25.5608 59.2511H24.9798L25.7078 58.0891H26.3798L25.5608 59.2511ZM26.9048 62.7581C26.5758 63.1991 26.0508 63.4791 25.3928 63.4791C24.2028 63.4791 23.4678 62.6041 23.4678 61.5751C23.4678 60.5041 24.1538 59.6711 25.2458 59.6711C26.2048 59.6711 26.8278 60.3431 26.8278 61.2111C26.8278 61.3511 26.8068 61.4841 26.7858 61.5821H24.0768C24.0978 62.4291 24.6368 62.9401 25.3928 62.9401C25.8478 62.9401 26.2328 62.7301 26.4638 62.4151L26.9048 62.7581ZM25.2318 60.1751C24.6508 60.1751 24.2448 60.5181 24.1188 61.1271H26.2328C26.2118 60.6091 25.8548 60.1751 25.2318 60.1751Z" fill="black"/>
<path d="M20.3281 62.8561L20.7481 62.4991C20.9931 62.8071 21.2871 62.9821 21.6441 62.9821C22.0361 62.9821 22.2601 62.7441 22.2601 62.4361C22.2601 61.6451 20.4961 61.9251 20.4961 60.6791C20.4961 60.1261 20.9651 59.6711 21.6441 59.6711C22.1481 59.6711 22.5821 59.9091 22.8271 60.2521L22.4141 60.6021C22.2251 60.3361 21.9591 60.1681 21.6511 60.1681C21.2731 60.1681 21.0701 60.3921 21.0701 60.6651C21.0701 61.4561 22.8411 61.2041 22.8411 62.4081C22.8341 63.0661 22.3091 63.4791 21.6511 63.4791C21.0911 63.4791 20.6501 63.2551 20.3281 62.8561Z" fill="black"/>
<path d="M17.9344 59.6711C19.0684 59.6711 19.8454 60.5461 19.8454 61.5751C19.8454 62.6041 19.0684 63.4791 17.9344 63.4791C16.7934 63.4791 16.0234 62.6041 16.0234 61.5751C16.0234 60.5461 16.7934 59.6711 17.9344 59.6711ZM17.9414 62.9191C18.6764 62.9191 19.2154 62.3031 19.2154 61.5751C19.2154 60.8401 18.6764 60.2311 17.9414 60.2311C17.1854 60.2311 16.6464 60.8401 16.6464 61.5751C16.6464 62.3101 17.1854 62.9191 17.9414 62.9191Z" fill="black"/>
<path d="M11.6689 65.0611V59.8111H12.2639V60.2311C12.5789 59.8741 12.9919 59.6711 13.5169 59.6711C14.6229 59.6711 15.3299 60.5461 15.3299 61.5751C15.3299 62.6041 14.6229 63.4791 13.5169 63.4791C12.9919 63.4791 12.5789 63.2761 12.2639 62.9191V65.0611H11.6689ZM13.4469 60.2311C12.9569 60.2311 12.5299 60.4691 12.2639 60.8891V62.2611C12.5369 62.6881 12.9639 62.9191 13.4469 62.9191C14.1959 62.9191 14.7069 62.3241 14.7069 61.5751C14.7069 60.8261 14.1959 60.2311 13.4469 60.2311Z" fill="black"/>
<path d="M8.80162 59.6711C9.93562 59.6711 10.7126 60.5461 10.7126 61.5751C10.7126 62.6041 9.93562 63.4791 8.80162 63.4791C7.66062 63.4791 6.89062 62.6041 6.89062 61.5751C6.89062 60.5461 7.66062 59.6711 8.80162 59.6711ZM8.80862 62.9191C9.54362 62.9191 10.0826 62.3031 10.0826 61.5751C10.0826 60.8401 9.54362 60.2311 8.80862 60.2311C8.05262 60.2311 7.51362 60.8401 7.51362 61.5751C7.51362 62.3101 8.05262 62.9191 8.80862 62.9191Z" fill="black"/>
<path d="M4.62109 63.3391V59.8111H5.21609V60.2521C5.47509 59.9441 5.79709 59.7411 6.24509 59.7411C6.35709 59.7411 6.46209 59.7551 6.54609 59.7831V60.3641C6.44109 60.3361 6.33609 60.3221 6.19609 60.3221C5.73409 60.3221 5.43309 60.5601 5.21609 60.9171V63.3391H4.62109Z" fill="black"/>
<path d="M0 65.0611V59.8111H0.595V60.2311C0.91 59.8741 1.323 59.6711 1.848 59.6711C2.954 59.6711 3.661 60.5461 3.661 61.5751C3.661 62.6041 2.954 63.4791 1.848 63.4791C1.323 63.4791 0.91 63.2761 0.595 62.9191V65.0611H0ZM1.778 60.2311C1.288 60.2311 0.861 60.4691 0.595 60.8891V62.2611C0.868 62.6881 1.295 62.9191 1.778 62.9191C2.527 62.9191 3.038 62.3241 3.038 61.5751C3.038 60.8261 2.527 60.2311 1.778 60.2311Z" fill="black"/>
<g clip-path="url(#clip0_9727_124035)">
<path d="M71.9593 22.6655C72.0629 22.4575 72.2053 22.386 72.1665 22.4185C72.1665 22.4575 72.1017 22.802 71.9593 23.1855C71.7197 23.985 70.7096 27.8785 70.2953 29.822C69.8032 32.084 69.078 35.8345 68.7607 37.96C68.4176 40.0075 68.1715 42.1265 67.4075 47.931C67.0967 50.2645 66.8895 51.8635 66.7147 52.624C66.0219 55.757 65.3615 57.46 64.1442 59.228C63.2053 60.5865 62.5061 61.282 60.842 62.2895C59.3463 63.2645 57.6435 63.7845 55.9082 63.921C55.2802 63.921 53.6809 63.7845 53.0917 63.5765C51.1816 63.0565 49.9643 61.3145 49.3751 58.2205C49.1291 56.9335 49.0967 56.1015 49.2003 54.8535C49.3363 52.5915 50.3787 49.3935 51.4924 47.827C52.1528 46.9235 53.3377 45.8445 54.2377 45.4285C54.8981 45.084 56.2902 44.876 56.7758 44.941C56.9507 44.98 57.1579 45.045 57.2615 45.0125C57.4686 45.0125 57.5075 45.0125 57.5399 45.1555C57.5722 45.292 57.7147 45.3245 58.0255 45.2595C58.1679 45.2205 58.1679 45.292 58.0643 45.4675C58.0255 45.5715 58.0643 45.6365 58.1679 45.708C58.2327 45.812 58.3751 45.8835 58.4075 45.8835C58.6535 45.955 58.4787 46.644 58.2003 46.7545C58.0967 46.787 57.9543 46.8585 57.8183 46.995C57.7471 47.1315 57.6435 47.203 57.6111 47.203C57.3327 47.2745 56.3615 48.3145 55.8694 49.0425C55.4226 49.738 54.8981 50.9925 54.6197 52.0325C53.8557 54.8145 54.1017 57.629 55.3514 59.6115C55.5909 60.0275 56.1866 60.5865 56.3226 60.554C56.465 60.5865 57.1902 60.0665 57.5722 59.683C57.9543 59.2995 58.6859 58.4675 58.932 58.1165C59.5535 57.109 60.1816 55.3735 60.46 53.6705C60.6996 52.2795 61.0492 49.1465 61.2953 45.8835C61.6773 41.054 61.9557 38.441 62.0593 37.6415C62.0917 37.5375 61.8845 37.7845 61.6384 38.129C60.7384 39.3835 60.4924 39.663 59.6248 40.079C58.9643 40.4235 58.2715 40.5665 56.9118 40.599C56.601 40.6315 55.455 40.3195 55.1053 40.079C54.8981 39.975 54.7233 39.7995 54.5874 39.624C54.4838 39.7995 54.3413 39.975 54.2377 40.144C53.124 41.743 52.6773 42.2695 51.6672 42.965C50.9032 43.5175 50.4888 43.7645 49.5499 44.0375C48.7147 44.2845 48.5399 44.317 47.8794 44.356C46.5262 44.3885 44.8233 44.1415 44.2341 43.797C44.0917 43.7255 43.7809 43.589 43.5737 43.5175C42.5636 43.1015 41.7607 42.2695 41.1715 41.015C41.0679 40.703 40.9643 40.4235 40.932 40.3195C40.8931 40.2155 40.4787 40.7355 38.7046 43.381C36.5874 46.475 35.9593 47.307 35.2989 47.97C34.8845 48.4185 34.2953 48.8345 33.9133 49.01C33.596 49.114 32.5924 49.426 32.5212 49.3935H31.9967C30.9931 49.3935 29.3615 49.0815 28.5586 48.698C27.9694 48.386 27.4125 47.6905 27.0305 46.8195C26.7521 46.267 26.4025 44.4925 26.4025 43.6215C26.3701 41.886 26.6809 39.52 27.1341 37.7845C27.6586 35.8735 28.7658 33.579 30.0866 31.876C31.4075 30.069 32.4888 28.9185 33.46 28.327C35.3701 27.079 38.8794 27.2155 40.8607 28.7105C41.2427 28.9575 41.5535 29.2305 41.696 29.4775C41.832 29.6465 41.9744 29.7895 41.9744 29.7895C42.0392 29.7895 42.1492 29.5815 42.2528 29.3345C42.842 28.119 44.124 26.7995 44.9981 26.416C45.4838 26.208 46.3838 26.104 46.4226 26.2405C46.4226 26.2795 46.455 26.2795 46.6622 26.2405C46.8694 26.208 47.0442 26.208 47.083 26.208C47.1866 26.2405 47.1866 26.2795 47.1154 26.455C47.0118 26.7995 47.0118 26.832 47.2514 26.6955C47.3938 26.624 47.5298 26.559 47.6334 26.52C47.7758 26.455 48.1255 26.559 48.1255 26.5915C48.1255 26.624 48.0219 26.7995 47.8471 27.04C47.6722 27.287 47.4262 27.7355 47.219 28.0865C47.219 28.158 47.1866 28.1905 47.1478 28.262C47.1478 28.327 47.1866 28.3985 47.1866 28.47C47.5686 27.8395 47.9507 27.287 48.1255 27.079C48.3327 26.871 48.6111 26.767 48.7471 26.9035C48.8895 27.0075 48.8183 27.0075 48.7147 27.183C48.365 27.495 48.2291 27.7745 47.8794 28.47C47.5686 29.1655 47.465 29.51 47.7435 29.0615C48.0866 28.431 48.9931 27.3195 49.2003 27.287C49.3039 27.2545 49.2327 27.495 48.9931 27.8395C48.7859 28.158 48.4686 28.886 48.2938 29.3345C48.2938 29.406 48.5075 29.094 48.7859 28.678C49.2327 27.9825 49.4075 27.8395 49.4463 27.9825C49.4463 28.0865 49.3751 28.262 48.8507 29.302C48.4363 30.2055 48.0543 31.356 47.601 33.059C47.0442 35.0025 46.8694 36.257 46.8046 37.713C46.8046 38.233 47.0118 39.9035 47.1154 39.871C47.219 39.832 47.7435 39.3835 48.2615 38.8635C48.9219 38.168 49.5823 37.2645 50.8708 35.3535C52.5348 32.8445 53.5449 31.1415 54.937 28.3985C55.2478 27.807 55.5262 27.2545 55.6622 27.0075C56.3615 25.272 57.1579 23.53 57.8507 22.5225C58.8607 21.0275 59.7996 20.1955 60.7708 19.8445C61.5348 19.5715 62.5061 19.5 63.2053 19.5715C63.5161 19.604 63.8269 19.6755 63.937 19.6365C63.9694 19.604 64.3838 19.6755 64.837 19.812C65.7435 20.124 66.7147 20.644 67.0643 21.0665L67.2003 21.2355L67.3751 21.099C67.4075 21.0665 67.6535 20.8585 67.8284 20.7155C67.9643 20.644 68.1391 20.436 68.1715 20.436C68.2427 20.332 68.4499 20.436 68.4176 20.6115C68.3787 20.787 68.4499 20.787 68.6571 20.579C68.7607 20.4035 69.0391 20.2995 69.078 20.4035C69.078 20.4035 69.078 20.5075 69.0391 20.683C69.0068 20.9625 69.0068 21.0275 69.1816 20.8585C69.4212 20.579 69.6672 20.436 69.7708 20.475C69.9132 20.54 69.9132 20.6115 69.7708 20.995C69.6348 21.307 69.5636 21.762 69.6348 21.7945C69.6672 21.7945 69.842 21.619 70.0492 21.307C70.3989 20.8195 70.4636 20.7545 70.742 20.8195C70.9168 20.9235 70.9557 20.995 70.742 21.307C70.2953 21.931 69.5312 23.673 69.7384 23.634C69.7384 23.634 69.842 23.465 70.0168 23.218C70.5025 22.3145 71.0593 21.411 71.1953 21.3395C71.3377 21.2355 71.3701 21.203 71.5061 21.3395C71.5773 21.411 71.5773 21.4825 71.4737 21.658C71.2989 21.8985 70.9557 22.7695 70.9557 22.802C70.9557 22.802 71.124 22.7305 71.2341 22.5615C71.3701 22.3535 71.5773 22.1065 71.7197 22.035C71.9593 21.827 71.9981 21.762 72.0629 21.866C72.1341 21.8985 72.1017 22.035 72.0305 22.139C71.8945 22.3145 71.7197 22.7695 71.7521 22.8735L71.9593 22.6655ZM38.9118 32.6755L38.9507 32.708C38.9507 32.708 38.9507 32.6755 38.9118 32.6755ZM32.5924 43.2055C32.5924 43.238 32.7996 42.9975 34.0168 41.366C34.4636 40.703 35.6485 39.0715 36.6197 37.6805C37.5586 36.322 38.465 35.1065 38.5298 34.931C38.6334 34.762 38.6722 34.658 38.6334 34.1315C38.601 33.267 38.083 31.5965 37.8046 31.4925C37.8046 31.46 37.5909 31.668 37.319 31.9085C36.7622 32.5 35.7521 33.891 35.2341 34.866C34.4312 36.426 33.5636 38.792 33.078 40.6315C32.9032 41.535 32.5535 43.1015 32.5924 43.2055ZM59.5924 32.3245C59.2104 34.0275 59.3787 33.891 59.8708 32.084C60.8032 28.886 61.6773 26.455 62.4413 24.96C62.5773 24.6805 62.7197 24.401 62.6809 24.401C62.6161 24.3295 61.8845 25.545 61.6061 26.2795C60.9456 27.807 60.0392 30.6215 59.5924 32.3245ZM63.6909 26.1755L63.8269 25.896L63.6586 25.3045C63.5874 24.9925 63.4838 24.713 63.4125 24.609C63.3413 24.4725 63.3413 24.5375 63.0629 24.9925C62.6161 25.7205 62.2665 26.559 61.8133 27.7355C61.3989 28.9185 60.6348 31.356 60.6348 31.3885C60.6348 31.46 60.6672 31.3885 60.6996 31.2845C60.7708 31.1805 61.3989 30.069 62.124 28.782C62.8233 27.5665 63.4838 26.416 63.6909 26.1755ZM79.6061 7.43601C79.5737 7.54001 79.3276 7.12401 79.36 6.84451C79.2953 6.53251 79.4636 4.97251 79.6061 4.10151C79.9168 2.43101 80.6161 0.695511 81.0629 0.344511C81.2053 0.240511 81.2053 0.279511 81.2377 0.383511C81.2766 0.487511 81.2766 0.695511 81.2377 0.871011C81.2053 0.936011 81.2053 1.00751 81.2053 1.07901H81.3089C81.3413 1.04001 81.3413 0.975011 81.3802 0.903511C81.4838 0.728011 81.5873 0.455011 81.7233 0.312011C81.8269 0.0715108 81.8658 0.0325109 82.073 0.0325109C82.1442 1.08496e-05 82.2802 0.0325109 82.319 0.0325109C82.319 0.104011 82.2802 0.240511 82.1766 0.487511C82.1053 0.695511 82.0017 0.975011 81.9694 1.07901C82.0017 1.18301 81.9694 1.25451 81.937 1.28701C81.9694 1.31951 82.0406 1.35851 82.073 1.39101V1.35851C82.455 0.559011 82.701 0.208011 82.837 0.175511C82.9794 0.136511 83.219 0.279511 83.219 0.312011C83.219 0.383511 83.1154 0.591511 82.9406 0.832011C82.7658 1.14401 82.5909 1.52751 82.455 1.91101C82.4874 2.01501 82.5262 2.15801 82.5262 2.29451C82.5586 2.32701 82.5586 2.39851 82.5909 2.43101C83.0118 1.52751 83.3938 0.767011 83.5686 0.624011C83.7046 0.520011 83.7435 0.559011 83.983 0.663011L84.2291 0.832011L83.9507 1.28701C83.465 2.01501 83.219 2.67801 83.4262 2.63901C83.4974 2.63901 83.601 2.50251 83.7758 2.26201C84.2938 1.70301 84.7471 1.28701 84.8507 1.31951C85.0255 1.28701 85.3751 1.63151 85.4075 1.73551C85.4075 1.73551 85.3363 1.83951 85.2003 1.98251C84.9931 2.15801 84.4686 3.02251 84.5399 3.06151C84.5399 3.06151 84.8183 2.88601 85.0967 2.63901C85.4075 2.43101 85.6859 2.22301 85.7895 2.19051C85.8607 2.19051 85.9643 2.22301 86.0356 2.36601C86.2104 2.57401 86.2427 2.67801 85.9967 2.78201C85.932 2.81451 85.7571 2.99001 85.5823 3.23051C85.4463 3.47751 85.3363 3.64651 85.3363 3.64651C85.3363 3.68551 85.5823 3.58151 85.8284 3.43851C86.3463 3.16551 86.5535 3.12651 86.5924 3.33451C86.5924 3.43851 86.5535 3.51001 86.3787 3.64651C86.1715 3.78951 85.6535 4.41351 85.7571 4.38101C85.8284 4.38101 85.9643 4.34201 86.1068 4.27701C86.314 4.13401 86.6248 4.03001 86.6248 4.06901C86.6571 4.20551 86.3463 4.66051 86.0679 4.90101C85.5499 5.31701 84.8895 6.74051 84.4039 8.58651C84.2291 9.13901 84.0866 9.38601 83.7435 9.66551C83.4974 9.80201 83.3615 9.87351 83.2514 9.80201C83.1154 9.76951 83.1154 9.69801 83.1866 9.49001C83.2902 9.00251 83.219 8.97001 82.8046 9.41851C82.4226 9.69801 82.4226 9.73051 82.319 9.66551C82.2802 9.62651 82.2478 9.52251 82.319 9.31451C82.4226 8.79451 82.3514 8.79451 81.9694 9.17801C81.5874 9.45751 81.5161 9.41851 81.5873 8.89851C81.6197 8.82701 81.6197 8.76201 81.6197 8.69051L81.4125 8.58651L81.3413 8.65801C81.2053 8.76201 81.0629 8.89851 81.0629 8.89851C80.9981 8.93101 80.8945 8.89851 80.8945 8.86601C80.8233 8.79451 80.7845 8.58651 80.8945 7.99501V7.92351C80.8557 7.81951 80.7845 7.68301 80.7197 7.57901C80.6485 7.78701 80.6161 8.02751 80.5773 8.20301L80.4737 8.51501L80.3377 8.37851C80.124 8.20301 80.124 8.20301 80.1953 7.40351C80.2341 7.22801 80.2341 6.98751 80.2665 6.70801C80.1953 6.57151 80.124 6.46751 80.0593 6.32451C79.9881 6.18801 79.9168 6.04501 79.8845 5.90851C79.8456 6.04501 79.8133 6.18801 79.8133 6.32451C79.7097 6.91601 79.6384 7.43601 79.6061 7.43601ZM106.431 18.0765C106.464 18.1415 106.328 18.668 106.256 19.1165C104.903 20.8585 101.951 22.594 99.6909 22.5225C98.6809 22.4575 97.4636 22.2105 96.6672 21.8985C96.0068 21.619 93.2291 20.332 92.601 19.8835C91.7334 21.7945 91.701 23.569 91.8694 28.6065L92.7758 38.233C92.2902 38.9675 92.1478 39.1365 91.9082 39.3445C91.701 39.559 91.5909 39.5915 91.5262 39.4875C91.5262 39.4875 91.5262 39.3835 91.5586 39.312C91.6298 39.104 91.8694 38.6165 92.1478 38.168C92.083 38.168 91.9794 38.2005 91.9082 38.2005C91.7658 38.48 91.6298 38.7595 91.5586 38.8635C91.455 38.9675 91.455 39.0715 91.4874 39.0715C91.5262 39.104 91.5262 39.104 91.455 39.0715C91.455 39.0715 91.319 39.1365 91.1766 39.2795C90.8981 39.52 90.6909 39.5915 90.7233 39.416C90.7622 39.3445 90.7233 39.2405 90.7233 39.208C90.7233 39.1755 90.7945 38.9675 90.8981 38.7205C91.0406 38.48 91.0406 38.272 91.0406 38.272C90.9694 38.233 90.8269 38.5125 90.6197 38.8245C90.2053 39.52 90.0629 39.5915 89.9593 39.104C89.9269 38.896 89.8557 38.7595 89.8557 38.7595C89.7845 38.7205 89.7521 38.8245 89.6809 39C89.6161 39.1755 89.5449 39.2795 89.4737 39.2405C89.2665 39.1755 89.124 39.0325 89.0917 38.896C89.0593 38.688 88.5737 38.337 88.5025 38.441C88.4636 38.5125 88.5025 38.6165 88.5025 38.6555C88.5025 38.7595 88.36 38.7205 88.1204 38.6165C87.8744 38.48 87.5636 37.9925 87.3888 37.5765L87.214 37.2255L87.4212 38.337L87.214 38.272C86.8708 38.168 86.5535 37.609 86.1391 36.4975C85.8931 35.6655 85.3363 34.4435 85.3039 34.515C85.2003 34.5865 85.3363 35.5225 85.4463 35.802C85.5499 36.01 85.7183 36.4975 85.8607 36.881C86.0356 37.2645 86.1715 37.6805 86.1715 37.713C86.2427 37.7845 86.2104 37.7455 85.9643 37.6415C85.6147 37.401 85.1291 36.8095 84.8507 36.1465C84.7859 36.01 84.7147 35.802 84.6435 35.5615C83.5686 37.1215 82.4874 38.545 81.6586 39.455C81.0305 40.183 80.5773 40.495 79.8456 40.7745C79.224 41.054 79.0816 41.0865 78.3564 41.119C77.696 41.1905 76.0255 41.0865 75.365 40.8395C75.0219 40.7355 74.3938 40.287 73.9794 39.6955C73.5909 39.1755 73.3838 38.6165 73.1766 37.609C72.7945 35.6265 72.8658 33.5075 73.2802 30.8295C73.8694 26.975 74.9507 22.802 76.0967 19.6365C77.1392 16.718 77.6248 15.47 78.0068 14.9825C78.46 14.3585 79.7097 13.5915 79.7809 13.9035C79.8132 14.0075 79.8132 13.975 79.9881 13.9035C80.1629 13.832 80.5061 13.767 80.5773 13.7995C80.6485 13.832 80.6161 13.936 80.5773 14.04C80.4737 14.144 80.5061 14.2545 80.5061 14.2545C80.5061 14.2545 80.6485 14.2155 80.7845 14.079C81.0305 13.871 81.1665 13.832 81.4449 13.936L81.6197 14.0075L81.4838 14.391C81.2377 14.911 81.1017 15.366 81.1665 15.3985C81.2053 15.431 81.3089 15.262 81.4125 15.0865C81.8658 14.391 82.1766 14.144 82.5909 14.391L82.837 14.5665L82.701 14.703C82.5909 14.7745 82.4873 14.9435 82.3514 15.0865C82.1442 15.3985 81.8269 15.9575 81.5873 16.5815L81.4125 16.965L81.6586 16.6465C81.7945 16.4775 82.073 16.094 82.319 15.743C82.5586 15.3985 82.837 15.0865 82.9406 15.015C83.1866 14.8785 83.1866 14.8785 83.3614 14.9435C83.6334 15.119 83.6722 15.223 83.4262 15.366C83.219 15.5025 82.8046 16.1655 82.701 16.4775C82.6298 16.6855 82.6298 16.6855 83.219 16.1655C83.6722 15.639 83.983 15.535 84.0543 15.678C84.1255 15.782 84.0543 15.8535 84.0219 15.8535C83.9118 15.9185 83.2514 16.861 83.2902 16.965C83.2902 16.9975 83.4262 16.861 83.601 16.6855C83.9507 16.3345 84.0219 16.2695 84.1579 16.406C84.2291 16.5425 83.983 17.1015 83.7046 17.3095C83.0118 17.9725 80.9593 24.8885 80.0204 29.8935C79.742 31.1805 79.3276 34.0665 79.36 34.2745C79.3989 34.3395 79.7809 33.8585 80.7845 32.4285C82.1442 30.446 83.2902 28.6065 84.9543 25.6555C85.2715 23.738 85.6859 21.723 86.1391 19.812C86.7284 17.4135 87.1492 16.198 87.596 15.535C87.8744 15.119 88.4636 14.391 89.0204 14.079C89.2989 13.9035 89.5449 13.7995 89.9593 13.728C90.5485 13.624 90.8981 13.5915 91.0406 13.5915C92.2902 13.5915 93.8183 13.416 96.1104 15.054C96.6348 15.431 96.6996 15.431 97.1204 16.198C97.3989 16.6465 97.6384 17.3095 97.8132 17.589C98.1629 18.0765 98.6161 18.564 98.7197 18.5965C98.8233 18.629 99.2766 18.5965 99.7622 18.317C100.487 17.901 101.219 17.5565 101.847 17.03C102.19 16.7895 102.507 16.5815 102.507 16.5815C102.54 16.5425 102.54 16.614 102.611 16.6465L102.676 16.7895L102.89 16.5815C103.097 16.406 103.233 16.406 103.2 16.6855C103.129 16.822 103.272 16.861 103.55 16.6465C103.686 16.51 103.79 16.4385 103.893 16.4775L104.068 16.51L104.036 16.7895C103.932 17.069 103.964 17.2055 103.997 17.2055C104.036 17.2055 104.172 17.069 104.346 16.926C104.625 16.614 104.696 16.614 104.871 16.718L105.078 16.7895L104.8 17.2055C104.379 17.9725 104.45 17.9725 105.389 17.1015C105.46 16.9975 105.531 16.9975 105.635 17.069C105.771 17.2055 105.771 17.2055 105.389 17.693C105.182 18.005 104.974 18.2845 104.936 18.356C104.903 18.4925 104.903 18.4925 105.039 18.421C105.149 18.3885 105.356 18.1415 105.635 17.9335C106.12 17.446 106.153 17.446 106.192 17.5565C106.224 17.5565 106.082 17.8295 105.874 18.1415C105.253 18.98 105.318 19.084 105.978 18.421C106.192 18.213 106.431 18.0375 106.431 18.0765Z" fill="#00AC8B"/>
<path d="M74.7048 46.059C75.676 46.059 76.2717 46.579 76.2717 47.3785C76.2717 48.178 75.676 48.698 74.7048 48.698H74.0443V50.6415H73.2803V46.059H74.7048ZM74.0119 46.7155V48.074H74.7048C75.158 48.074 75.4364 47.827 75.4364 47.3785C75.4364 46.9625 75.158 46.7155 74.7048 46.7155H74.0119ZM81.6587 48.3535C81.6587 49.673 80.681 50.7845 79.2242 50.7845C77.7997 50.7845 76.7896 49.673 76.7896 48.3535C76.7896 47.0275 77.7609 45.916 79.2242 45.916C80.6486 45.955 81.6587 47.0665 81.6587 48.3535ZM80.8558 48.3535C80.8558 47.3785 80.163 46.644 79.2242 46.644C78.253 46.644 77.5925 47.411 77.5925 48.3535C77.5925 49.322 78.2853 50.0565 79.2242 50.0565C80.1954 50.089 80.8558 49.322 80.8558 48.3535ZM85.4465 46.059H86.2105V48.8735C86.2105 50.0565 85.5112 50.7455 84.404 50.7455C83.2904 50.7455 82.5911 50.0565 82.5911 48.8735V46.059H83.3227V48.9385C83.3227 49.673 83.7436 50.0565 84.404 50.0565C85.0256 50.0565 85.4465 49.634 85.4465 48.9385V46.059ZM88.781 46.059C89.7522 46.059 90.3414 46.579 90.3414 47.3785C90.3414 47.931 90.063 48.3535 89.6163 48.5615L91.0731 50.6415H90.1666L88.8846 48.698H88.2242V50.6415H87.4925V46.059H88.781ZM88.2242 46.7155V48.074H88.8134C89.2666 48.074 89.545 47.827 89.545 47.3785C89.545 46.9625 89.2666 46.7155 88.8134 46.7155H88.2242ZM94.2717 46.059V49.946H96.0781V50.6415H93.5076V46.059H94.2717ZM98.4026 46.059H99.4127L101.187 50.6415H100.384L99.8983 49.361H97.8846L97.399 50.6415H96.5961L98.4026 46.059ZM99.6587 48.7305L98.8947 46.7545L98.1242 48.7305H99.6587ZM76.5112 52.6955V53.391H75.022V57.2845H74.2515V53.391H72.7947V52.6955H76.5112ZM78.6997 52.6955C79.6774 52.6955 80.2666 53.2155 80.2666 54.015C80.2666 54.574 79.9882 54.99 79.535 55.198L80.9983 57.2845H80.0918L78.8033 55.3345H78.1817V57.2845H77.4501V52.6955H78.6997ZM78.1817 53.3585V54.7105H78.7709C79.2242 54.7105 79.5026 54.47 79.5026 54.015C79.5026 53.599 79.2242 53.3585 78.7709 53.3585H78.1817ZM83.0832 52.6955H84.0868L85.8609 57.2845H85.0645L84.5724 55.9975H82.5587L82.0731 57.2845H81.2767L83.0832 52.6955ZM83.5688 53.391L82.8048 55.3735H84.3328L83.5688 53.391ZM87.6997 52.6955L90.063 56.3095V52.6955H90.8271V57.2845H89.8558L87.4925 53.6705V57.2845H86.7609V52.6955H87.6997ZM92.3616 56.134C92.6335 56.5175 93.022 56.7255 93.4364 56.7255C93.8896 56.7255 94.1292 56.446 94.1292 56.1015C94.1292 55.198 91.9796 55.3345 91.9796 53.8395C91.9796 53.144 92.5299 52.559 93.3652 52.559C94.0256 52.559 94.5112 52.871 94.8932 53.3195L94.3364 53.807C94.0645 53.4235 93.7472 53.2155 93.3652 53.2155C92.9832 53.2155 92.7436 53.4625 92.7436 53.807C92.7436 54.7105 94.8932 54.574 94.8932 56.069C94.8932 56.8685 94.2717 57.3885 93.4364 57.3885C92.7048 57.3885 92.2191 57.109 91.8048 56.6215L92.3616 56.134ZM96.0393 52.6955H96.7709V57.2845H96.0393V52.6955ZM101.426 52.6955V53.391H99.9695V57.2845H99.2055V53.391H97.7422V52.6955H101.426ZM102.365 52.6955H103.097V57.2845H102.365V52.6955ZM108.97 54.99C108.97 56.3095 107.998 57.421 106.535 57.421C105.111 57.421 104.107 56.3095 104.107 54.99C104.107 53.6705 105.078 52.559 106.535 52.559C107.998 52.559 108.97 53.6705 108.97 54.99ZM108.167 54.99C108.167 54.015 107.474 53.287 106.535 53.287C105.564 53.287 104.903 54.054 104.903 54.99C104.903 55.965 105.596 56.693 106.535 56.693C107.506 56.693 108.167 55.965 108.167 54.99ZM110.951 52.6955L113.314 56.3095V52.6955H114.078V57.2845H113.107L110.744 53.6705V57.2845H110.012V52.6955H110.951ZM73.2803 59.332H75.8508V59.995H74.0443V61.282H75.5724V61.9385H74.0443V63.297H75.8508V63.96H73.2803V59.332ZM74.2191 58.916L74.9508 58.045H75.7472L74.9119 58.916H74.2191ZM80.2666 62.634L80.8558 63.089C80.4414 63.6415 79.7422 64.025 78.9134 64.025C77.4889 64.025 76.4789 62.9135 76.4789 61.594C76.4789 60.2745 77.4501 59.163 78.9134 59.163C79.7422 59.163 80.4026 59.54 80.8558 60.099L80.2666 60.554C80.1212 60.3372 79.9243 60.1602 79.6937 60.0388C79.4631 59.9174 79.2061 59.8554 78.9458 59.8585C77.9745 59.8585 77.3141 60.619 77.3141 61.5615C77.3141 62.53 78.0069 63.2645 78.9458 63.2645C79.5026 63.3295 79.9882 63.0565 80.2666 62.634ZM86.2105 61.6265C86.2105 62.946 85.2328 64.064 83.776 64.064C82.3515 64.064 81.3414 62.946 81.3414 61.6265C81.3414 60.307 82.3191 59.1955 83.776 59.1955C85.2328 59.1955 86.2105 60.307 86.2105 61.6265ZM85.4465 61.6265C85.4465 60.658 84.7472 59.9235 83.8083 59.9235C82.8371 59.9235 82.1767 60.6905 82.1767 61.6265C82.1767 62.6015 82.8695 63.3295 83.8083 63.3295C84.7472 63.3295 85.4465 62.569 85.4465 61.6265ZM87.9781 59.332V63.2255H89.7846V63.921H87.2141V59.332H87.9781ZM94.9645 61.6265C94.9645 62.946 93.9932 64.064 92.5299 64.064C91.1055 64.064 90.1019 62.946 90.1019 61.6265C90.1019 60.307 91.0731 59.1955 92.5299 59.1955C93.9932 59.1955 94.9645 60.307 94.9645 61.6265ZM94.2004 61.6265C94.2004 60.658 93.5076 59.9235 92.5688 59.9235C91.5911 59.9235 90.9371 60.6905 90.9371 61.6265C90.9371 62.6015 91.6299 63.3295 92.5688 63.3295C93.5076 63.3295 94.2004 62.569 94.2004 61.6265ZM99.445 62.8095V61.906H98.1954V61.2105H100.209V63.089C99.7947 63.6415 99.063 64.025 98.1954 64.025C96.6997 64.025 95.7285 62.9135 95.7285 61.594C95.7285 60.2745 96.6997 59.163 98.163 59.163C98.9983 59.163 99.6587 59.54 100.105 60.099L99.5163 60.554C99.3708 60.3372 99.1739 60.1602 98.9433 60.0388C98.7128 59.9174 98.4557 59.8554 98.1954 59.8585C97.2242 59.8585 96.5637 60.619 96.5637 61.5615C96.5637 62.53 97.2954 63.2645 98.2666 63.2645C98.7199 63.3295 99.1342 63.1215 99.445 62.8095ZM101.362 59.332H102.087V63.921H101.362V59.332ZM108.659 64.3045V64.9285C108.516 64.9675 108.38 65 108.205 65C107.752 65 107.267 64.8245 106.813 64.4085L106.257 63.921C106.017 63.9925 105.803 64.025 105.531 64.025C104.107 64.025 103.097 62.9135 103.097 61.594C103.097 60.2745 104.068 59.163 105.531 59.163C106.956 59.163 107.959 60.2745 107.959 61.594C107.959 62.3935 107.577 63.1215 106.988 63.5765L107.338 63.8885C107.72 64.233 108.031 64.337 108.341 64.337C108.445 64.337 108.587 64.337 108.659 64.3045ZM107.195 61.6265C107.195 60.658 106.503 59.9235 105.564 59.9235C104.593 59.9235 103.932 60.6905 103.932 61.6265C103.932 62.6015 104.625 63.3295 105.564 63.3295C106.503 63.3295 107.195 62.569 107.195 61.6265ZM112.55 59.332V62.1465C112.55 63.3295 111.851 64.025 110.744 64.025C109.63 64.025 108.937 63.3295 108.937 62.1465V59.332H109.662V62.218C109.662 62.946 110.083 63.3295 110.744 63.3295C111.365 63.3295 111.786 62.9135 111.786 62.218V59.332H112.55ZM113.8 59.332H116.37V59.995H114.564V61.282H116.124V61.9385H114.564V63.297H116.37V63.96H113.8V59.332Z" fill="#000091"/>
</g>
<defs>
<clipPath id="clip0_9727_124035">
<rect width="90" height="65" fill="white" transform="translate(26.3701)"/>
</clipPath>
</defs>
</svg>
