<svg width="125" height="66" viewBox="0 0 125 66" fill="none" xmlns="http://www.w3.org/2000/svg">
<path d="M47.2732 62.9308V58.5663H48.0093V59.1119C48.3297 58.7309 48.728 58.4797 49.2822 58.4797C49.4208 58.4797 49.5507 58.4971 49.6546 58.5317V59.2505C49.5247 59.2158 49.3948 59.1985 49.2216 59.1985C48.6501 59.1985 48.2777 59.4929 48.0093 59.9346V62.9308H47.2732Z" fill="black"/>
<path d="M43.5969 63.0521C42.7396 63.0521 42.1594 62.5758 42.1594 61.8311C42.1594 61.173 42.6617 60.7053 43.5883 60.5495L45.0604 60.307V60.0039C45.0604 59.3977 44.6274 59.0513 44.0039 59.0513C43.5017 59.0513 43.0947 59.2851 42.8262 59.6575L42.272 59.2332C42.653 58.7136 43.2679 58.3932 44.0299 58.3932C45.1384 58.3932 45.7965 59.0427 45.7965 60.0039V62.9309H45.0604V62.3767C44.7314 62.801 44.1598 63.0521 43.5969 63.0521ZM42.9042 61.8051C42.9042 62.1775 43.2073 62.4459 43.7182 62.4459C44.2984 62.4459 44.7747 62.1688 45.0604 61.7012V60.8439L43.7701 61.0604C43.1726 61.1643 42.9042 61.4327 42.9042 61.8051Z" fill="black"/>
<path d="M36.7698 65.0612V58.5664H37.5059V59.086C37.8955 58.6443 38.4065 58.3932 39.0559 58.3932C40.4242 58.3932 41.2988 59.4757 41.2988 60.7486C41.2988 62.0216 40.4242 63.1041 39.0559 63.1041C38.4065 63.1041 37.8955 62.8529 37.5059 62.4113V65.0612H36.7698ZM38.9693 59.086C38.3632 59.086 37.8349 59.3804 37.5059 59.9V61.5973C37.8436 62.1255 38.3718 62.4113 38.9693 62.4113C39.8959 62.4113 40.5281 61.6752 40.5281 60.7486C40.5281 59.822 39.8959 59.086 38.9693 59.086Z" fill="black"/>
<path d="M31.6212 57.8735H30.9025L31.8031 56.436H32.6344L31.6212 57.8735ZM33.2839 62.2121C32.8769 62.7576 32.2274 63.104 31.4134 63.104C29.9413 63.104 29.032 62.0215 29.032 60.7486C29.032 59.4236 29.8806 58.3931 31.2315 58.3931C32.4179 58.3931 33.1886 59.2245 33.1886 60.2983C33.1886 60.4715 33.1627 60.636 33.1367 60.7572H29.7854C29.8114 61.8051 30.4782 62.4372 31.4134 62.4372C31.9763 62.4372 32.4526 62.1774 32.7383 61.7877L33.2839 62.2121ZM31.2142 59.0166C30.4955 59.0166 29.9932 59.441 29.8373 60.1943H32.4526C32.4266 59.5535 31.9849 59.0166 31.2142 59.0166Z" fill="black"/>
<path d="M25.1479 62.3334L25.6675 61.8917C25.9706 62.2727 26.3343 62.4892 26.776 62.4892C27.2609 62.4892 27.538 62.1948 27.538 61.8138C27.538 60.8352 25.3558 61.1816 25.3558 59.6402C25.3558 58.9561 25.936 58.3932 26.776 58.3932C27.3995 58.3932 27.9364 58.6876 28.2395 59.1119L27.7285 59.5449C27.4947 59.2159 27.1657 59.008 26.7846 59.008C26.317 59.008 26.0659 59.2851 26.0659 59.6229C26.0659 60.6014 28.2568 60.2897 28.2568 61.7791C28.2481 62.5931 27.5986 63.1041 26.7846 63.1041C26.0919 63.1041 25.5463 62.827 25.1479 62.3334Z" fill="black"/>
<path d="M22.1866 58.3932C23.5895 58.3932 24.5507 59.4757 24.5507 60.7486C24.5507 62.0216 23.5895 63.1041 22.1866 63.1041C20.7751 63.1041 19.8225 62.0216 19.8225 60.7486C19.8225 59.4757 20.7751 58.3932 22.1866 58.3932ZM22.1953 62.4113C23.1045 62.4113 23.7713 61.6492 23.7713 60.7486C23.7713 59.8394 23.1045 59.086 22.1953 59.086C21.26 59.086 20.5932 59.8394 20.5932 60.7486C20.5932 61.6579 21.26 62.4113 22.1953 62.4113Z" fill="black"/>
<path d="M14.4355 65.0612V58.5664H15.1716V59.086C15.5613 58.6443 16.0722 58.3932 16.7217 58.3932C18.0899 58.3932 18.9646 59.4757 18.9646 60.7486C18.9646 62.0216 18.0899 63.1041 16.7217 63.1041C16.0722 63.1041 15.5613 62.8529 15.1716 62.4113V65.0612H14.4355ZM16.6351 59.086C16.0289 59.086 15.5007 59.3804 15.1716 59.9V61.5973C15.5094 62.1255 16.0376 62.4113 16.6351 62.4113C17.5617 62.4113 18.1939 61.6752 18.1939 60.7486C18.1939 59.822 17.5617 59.086 16.6351 59.086Z" fill="black"/>
<path d="M10.8885 58.3932C12.2914 58.3932 13.2526 59.4757 13.2526 60.7486C13.2526 62.0216 12.2914 63.1041 10.8885 63.1041C9.47698 63.1041 8.52441 62.0216 8.52441 60.7486C8.52441 59.4757 9.47698 58.3932 10.8885 58.3932ZM10.8972 62.4113C11.8064 62.4113 12.4732 61.6492 12.4732 60.7486C12.4732 59.8394 11.8064 59.086 10.8972 59.086C9.96193 59.086 9.29513 59.8394 9.29513 60.7486C9.29513 61.6579 9.96193 62.4113 10.8972 62.4113Z" fill="black"/>
<path d="M5.7168 62.9308V58.5663H6.45287V59.1119C6.77328 58.7309 7.17163 58.4797 7.72585 58.4797C7.8644 58.4797 7.9943 58.4971 8.09822 58.5317V59.2505C7.96832 59.2158 7.83843 59.1985 7.66523 59.1985C7.09369 59.1985 6.72132 59.4929 6.45287 59.9346V62.9308H5.7168Z" fill="black"/>
<path d="M0 65.0612V58.5664H0.736075V59.086C1.12576 58.6443 1.63668 58.3932 2.28616 58.3932C3.6544 58.3932 4.52903 59.4757 4.52903 60.7486C4.52903 62.0216 3.6544 63.1041 2.28616 63.1041C1.63668 63.1041 1.12576 62.8529 0.736075 62.4113V65.0612H0ZM2.19957 59.086C1.59339 59.086 1.06514 59.3804 0.736075 59.9V61.5973C1.0738 62.1255 1.60205 62.4113 2.19957 62.4113C3.12615 62.4113 3.75831 61.6752 3.75831 60.7486C3.75831 59.822 3.12615 59.086 2.19957 59.086Z" fill="black"/>
<g clip-path="url(#clip0_9734_12981)">
<path d="M79.9542 22.6655C80.0578 22.4575 80.2002 22.386 80.1614 22.4185C80.1614 22.4575 80.0966 22.802 79.9542 23.1855C79.7146 23.985 78.7045 27.8785 78.2901 29.822C77.798 32.084 77.0729 35.8345 76.7556 37.96C76.4124 40.0075 76.1664 42.1265 75.4024 47.931C75.0916 50.2645 74.8844 51.8635 74.7096 52.624C74.0168 55.757 73.3563 57.46 72.1391 59.228C71.2002 60.5865 70.5009 61.282 68.8369 62.2895C67.3412 63.2645 65.6383 63.7845 63.9031 63.921C63.275 63.921 61.6758 63.7845 61.0865 63.5765C59.1765 63.0565 57.9592 61.3145 57.37 58.2205C57.124 56.9335 57.0916 56.1015 57.1952 54.8535C57.3311 52.5915 58.3736 49.3935 59.4873 47.827C60.1477 46.9235 61.3326 45.8445 62.2326 45.4285C62.893 45.084 64.2851 44.876 64.7707 44.941C64.9455 44.98 65.1527 45.045 65.2563 45.0125C65.4635 45.0125 65.5024 45.0125 65.5347 45.1555C65.5671 45.292 65.7096 45.3245 66.0204 45.2595C66.1628 45.2205 66.1628 45.292 66.0592 45.4675C66.0204 45.5715 66.0592 45.6365 66.1628 45.708C66.2275 45.812 66.37 45.8835 66.4024 45.8835C66.6484 45.955 66.4736 46.644 66.1952 46.7545C66.0916 46.787 65.9491 46.8585 65.8132 46.995C65.7419 47.1315 65.6383 47.203 65.606 47.203C65.3275 47.2745 64.3563 48.3145 63.8642 49.0425C63.4175 49.738 62.893 50.9925 62.6146 52.0325C61.8506 54.8145 62.0966 57.629 63.3463 59.6115C63.5858 60.0275 64.1815 60.5865 64.3175 60.554C64.4599 60.5865 65.1851 60.0665 65.5671 59.683C65.9491 59.2995 66.6808 58.4675 66.9268 58.1165C67.5484 57.109 68.1765 55.3735 68.4549 53.6705C68.6945 52.2795 69.0441 49.1465 69.2901 45.8835C69.6722 41.054 69.9506 38.441 70.0542 37.6415C70.0865 37.5375 69.8793 37.7845 69.6333 38.129C68.7333 39.3835 68.4873 39.663 67.6196 40.079C66.9592 40.4235 66.2664 40.5665 64.9067 40.599C64.5959 40.6315 63.4499 40.3195 63.1002 40.079C62.893 39.975 62.7182 39.7995 62.5822 39.624C62.4786 39.7995 62.3362 39.975 62.2326 40.144C61.1189 41.743 60.6722 42.2695 59.6621 42.965C58.8981 43.5175 58.4837 43.7645 57.5448 44.0375C56.7096 44.2845 56.5347 44.317 55.8743 44.356C54.5211 44.3885 52.8182 44.1415 52.229 43.797C52.0865 43.7255 51.7757 43.589 51.5686 43.5175C50.5585 43.1015 49.7556 42.2695 49.1664 41.015C49.0628 40.703 48.9592 40.4235 48.9268 40.3195C48.888 40.2155 48.4736 40.7355 46.6995 43.381C44.5822 46.475 43.9542 47.307 43.2937 47.97C42.8793 48.4185 42.2901 48.8345 41.9081 49.01C41.5909 49.114 40.5873 49.426 40.516 49.3935H39.9916C38.988 49.3935 37.3563 49.0815 36.5534 48.698C35.9642 48.386 35.4074 47.6905 35.0254 46.8195C34.747 46.267 34.3973 44.4925 34.3973 43.6215C34.365 41.886 34.6757 39.52 35.129 37.7845C35.6534 35.8735 36.7606 33.579 38.0815 31.876C39.4024 30.069 40.4837 28.9185 41.4549 28.327C43.365 27.079 46.8743 27.2155 48.8556 28.7105C49.2376 28.9575 49.5484 29.2305 49.6909 29.4775C49.8268 29.6465 49.9693 29.7895 49.9693 29.7895C50.034 29.7895 50.1441 29.5815 50.2477 29.3345C50.8369 28.119 52.1189 26.7995 52.993 26.416C53.4786 26.208 54.3786 26.104 54.4175 26.2405C54.4175 26.2795 54.4499 26.2795 54.657 26.2405C54.8642 26.208 55.0391 26.208 55.0779 26.208C55.1815 26.2405 55.1815 26.2795 55.1103 26.455C55.0067 26.7995 55.0067 26.832 55.2463 26.6955C55.3887 26.624 55.5247 26.559 55.6283 26.52C55.7707 26.455 56.1204 26.559 56.1204 26.5915C56.1204 26.624 56.0168 26.7995 55.8419 27.04C55.6671 27.287 55.4211 27.7355 55.2139 28.0865C55.2139 28.158 55.1815 28.1905 55.1427 28.262C55.1427 28.327 55.1815 28.3985 55.1815 28.47C55.5635 27.8395 55.9455 27.287 56.1204 27.079C56.3275 26.871 56.606 26.767 56.7419 26.9035C56.8844 27.0075 56.8132 27.0075 56.7096 27.183C56.3599 27.495 56.224 27.7745 55.8743 28.47C55.5635 29.1655 55.4599 29.51 55.7383 29.0615C56.0815 28.431 56.988 27.3195 57.1952 27.287C57.2988 27.2545 57.2275 27.495 56.988 27.8395C56.7808 28.158 56.4635 28.886 56.2887 29.3345C56.2887 29.406 56.5024 29.094 56.7808 28.678C57.2275 27.9825 57.4024 27.8395 57.4412 27.9825C57.4412 28.0865 57.37 28.262 56.8455 29.302C56.4311 30.2055 56.0491 31.356 55.5959 33.059C55.0391 35.0025 54.8642 36.257 54.7995 37.713C54.7995 38.233 55.0067 39.9035 55.1103 39.871C55.2139 39.832 55.7383 39.3835 56.2563 38.8635C56.9168 38.168 57.5772 37.2645 58.8657 35.3535C60.5297 32.8445 61.5398 31.1415 62.9319 28.3985C63.2427 27.807 63.5211 27.2545 63.657 27.0075C64.3563 25.272 65.1527 23.53 65.8455 22.5225C66.8556 21.0275 67.7945 20.1955 68.7657 19.8445C69.5297 19.5715 70.5009 19.5 71.2002 19.5715C71.511 19.604 71.8218 19.6755 71.9319 19.6365C71.9642 19.604 72.3786 19.6755 72.8319 19.812C73.7383 20.124 74.7096 20.644 75.0592 21.0665L75.1952 21.2355L75.37 21.099C75.4024 21.0665 75.6484 20.8585 75.8232 20.7155C75.9592 20.644 76.134 20.436 76.1664 20.436C76.2376 20.332 76.4448 20.436 76.4124 20.6115C76.3736 20.787 76.4448 20.787 76.652 20.579C76.7556 20.4035 77.034 20.2995 77.0729 20.4035C77.0729 20.4035 77.0729 20.5075 77.034 20.683C77.0016 20.9625 77.0016 21.0275 77.1765 20.8585C77.416 20.579 77.6621 20.436 77.7657 20.475C77.9081 20.54 77.9081 20.6115 77.7657 20.995C77.6297 21.307 77.5585 21.762 77.6297 21.7945C77.6621 21.7945 77.8369 21.619 78.0441 21.307C78.3937 20.8195 78.4585 20.7545 78.7369 20.8195C78.9117 20.9235 78.9506 20.995 78.7369 21.307C78.2901 21.931 77.5261 23.673 77.7333 23.634C77.7333 23.634 77.8369 23.465 78.0117 23.218C78.4973 22.3145 79.0542 21.411 79.1901 21.3395C79.3326 21.2355 79.365 21.203 79.5009 21.3395C79.5722 21.411 79.5722 21.4825 79.4686 21.658C79.2937 21.8985 78.9506 22.7695 78.9506 22.802C78.9506 22.802 79.1189 22.7305 79.229 22.5615C79.365 22.3535 79.5722 22.1065 79.7146 22.035C79.9542 21.827 79.993 21.762 80.0578 21.866C80.129 21.8985 80.0966 22.035 80.0254 22.139C79.8894 22.3145 79.7146 22.7695 79.747 22.8735L79.9542 22.6655ZM46.9067 32.6755L46.9455 32.708C46.9455 32.708 46.9455 32.6755 46.9067 32.6755ZM40.5873 43.2055C40.5873 43.238 40.7945 42.9975 42.0117 41.366C42.4585 40.703 43.6434 39.0715 44.6146 37.6805C45.5534 36.322 46.4599 35.1065 46.5247 34.931C46.6283 34.762 46.6671 34.658 46.6283 34.1315C46.5959 33.267 46.0779 31.5965 45.7995 31.4925C45.7995 31.46 45.5858 31.668 45.3139 31.9085C44.757 32.5 43.747 33.891 43.229 34.866C42.4261 36.426 41.5585 38.792 41.0729 40.6315C40.8981 41.535 40.5484 43.1015 40.5873 43.2055ZM67.5873 32.3245C67.2052 34.0275 67.3736 33.891 67.8657 32.084C68.7981 28.886 69.6722 26.455 70.4362 24.96C70.5722 24.6805 70.7146 24.401 70.6758 24.401C70.611 24.3295 69.8793 25.545 69.6009 26.2795C68.9405 27.807 68.034 30.6215 67.5873 32.3245ZM71.6858 26.1755L71.8218 25.896L71.6535 25.3045C71.5822 24.9925 71.4786 24.713 71.4074 24.609C71.3362 24.4725 71.3362 24.5375 71.0578 24.9925C70.611 25.7205 70.2614 26.559 69.8081 27.7355C69.3937 28.9185 68.6297 31.356 68.6297 31.3885C68.6297 31.46 68.6621 31.3885 68.6945 31.2845C68.7657 31.1805 69.3937 30.069 70.1189 28.782C70.8182 27.5665 71.4786 26.416 71.6858 26.1755ZM87.6009 7.43601C87.5686 7.54001 87.3225 7.12401 87.3549 6.84451C87.2901 6.53251 87.4585 4.97251 87.6009 4.10151C87.9117 2.43101 88.611 0.695511 89.0578 0.344511C89.2002 0.240511 89.2002 0.279511 89.2326 0.383511C89.2714 0.487511 89.2714 0.695511 89.2326 0.871011C89.2002 0.936011 89.2002 1.00751 89.2002 1.07901H89.3038C89.3362 1.04001 89.3362 0.975011 89.375 0.903511C89.4786 0.728011 89.5822 0.455011 89.7182 0.312011C89.8218 0.0715108 89.8606 0.0325109 90.0678 0.0325109C90.1391 1.08499e-05 90.275 0.0325109 90.3139 0.0325109C90.3139 0.104011 90.275 0.240511 90.1714 0.487511C90.1002 0.695511 89.9966 0.975011 89.9642 1.07901C89.9966 1.18301 89.9642 1.25451 89.9319 1.28701C89.9642 1.31951 90.0355 1.35851 90.0678 1.39101V1.35851C90.4498 0.559011 90.6959 0.208011 90.8319 0.175511C90.9743 0.136511 91.2139 0.279511 91.2139 0.312011C91.2139 0.383511 91.1103 0.591511 90.9355 0.832011C90.7606 1.14401 90.5858 1.52751 90.4499 1.91101C90.4822 2.01501 90.5211 2.15801 90.5211 2.29451C90.5534 2.32701 90.5534 2.39851 90.5858 2.43101C91.0067 1.52751 91.3887 0.767011 91.5635 0.624011C91.6995 0.520011 91.7383 0.559011 91.9779 0.663011L92.2239 0.832011L91.9455 1.28701C91.4599 2.01501 91.2139 2.67801 91.4211 2.63901C91.4923 2.63901 91.5959 2.50251 91.7707 2.26201C92.2887 1.70301 92.7419 1.28701 92.8455 1.31951C93.0204 1.28701 93.37 1.63151 93.4024 1.73551C93.4024 1.73551 93.3311 1.83951 93.1952 1.98251C92.988 2.15801 92.4635 3.02251 92.5347 3.06151C92.5347 3.06151 92.8132 2.88601 93.0916 2.63901C93.4024 2.43101 93.6808 2.22301 93.7844 2.19051C93.8556 2.19051 93.9592 2.22301 94.0304 2.36601C94.2052 2.57401 94.2376 2.67801 93.9916 2.78201C93.9268 2.81451 93.752 2.99001 93.5772 3.23051C93.4412 3.47751 93.3311 3.64651 93.3311 3.64651C93.3311 3.68551 93.5772 3.58151 93.8232 3.43851C94.3412 3.16551 94.5484 3.12651 94.5873 3.33451C94.5873 3.43851 94.5484 3.51001 94.3736 3.64651C94.1664 3.78951 93.6484 4.41351 93.752 4.38101C93.8232 4.38101 93.9592 4.34201 94.1017 4.27701C94.3088 4.13401 94.6196 4.03001 94.6196 4.06901C94.652 4.20551 94.3412 4.66051 94.0628 4.90101C93.5448 5.31701 92.8844 6.74051 92.3988 8.58651C92.2239 9.13901 92.0815 9.38601 91.7383 9.66551C91.4923 9.80201 91.3563 9.87351 91.2463 9.80201C91.1103 9.76951 91.1103 9.69801 91.1815 9.49001C91.2851 9.00251 91.2139 8.97001 90.7995 9.41851C90.4175 9.69801 90.4175 9.73051 90.3139 9.66551C90.275 9.62651 90.2427 9.52251 90.3139 9.31451C90.4175 8.79451 90.3463 8.79451 89.9642 9.17801C89.5822 9.45751 89.511 9.41851 89.5822 8.89851C89.6146 8.82701 89.6146 8.76201 89.6146 8.69051L89.4074 8.58651L89.3362 8.65801C89.2002 8.76201 89.0578 8.89851 89.0578 8.89851C88.993 8.93101 88.8894 8.89851 88.8894 8.86601C88.8182 8.79451 88.7793 8.58651 88.8894 7.99501V7.92351C88.8506 7.81951 88.7793 7.68301 88.7146 7.57901C88.6434 7.78701 88.611 8.02751 88.5722 8.20301L88.4686 8.51501L88.3326 8.37851C88.1189 8.20301 88.1189 8.20301 88.1901 7.40351C88.229 7.22801 88.229 6.98751 88.2614 6.70801C88.1901 6.57151 88.1189 6.46751 88.0542 6.32451C87.9829 6.18801 87.9117 6.04501 87.8793 5.90851C87.8405 6.04501 87.8081 6.18801 87.8081 6.32451C87.7045 6.91601 87.6333 7.43601 87.6009 7.43601ZM114.426 18.0765C114.458 18.1415 114.323 18.668 114.251 19.1165C112.898 20.8585 109.946 22.594 107.686 22.5225C106.676 22.4575 105.458 22.2105 104.662 21.8985C104.002 21.619 101.224 20.332 100.596 19.8835C99.7283 21.7945 99.6959 23.569 99.8642 28.6065L100.771 38.233C100.285 38.9675 100.143 39.1365 99.9031 39.3445C99.6959 39.559 99.5858 39.5915 99.5211 39.4875C99.5211 39.4875 99.5211 39.3835 99.5534 39.312C99.6247 39.104 99.8642 38.6165 100.143 38.168C100.078 38.168 99.9743 38.2005 99.9031 38.2005C99.7606 38.48 99.6247 38.7595 99.5534 38.8635C99.4499 38.9675 99.4499 39.0715 99.4822 39.0715C99.5211 39.104 99.5211 39.104 99.4498 39.0715C99.4498 39.0715 99.3139 39.1365 99.1714 39.2795C98.893 39.52 98.6858 39.5915 98.7182 39.416C98.757 39.3445 98.7182 39.2405 98.7182 39.208C98.7182 39.1755 98.7894 38.9675 98.893 38.7205C99.0355 38.48 99.0355 38.272 99.0355 38.272C98.9642 38.233 98.8218 38.5125 98.6146 38.8245C98.2002 39.52 98.0578 39.5915 97.9542 39.104C97.9218 38.896 97.8506 38.7595 97.8506 38.7595C97.7793 38.7205 97.747 38.8245 97.6757 39C97.611 39.1755 97.5398 39.2795 97.4686 39.2405C97.2614 39.1755 97.1189 39.0325 97.0865 38.896C97.0542 38.688 96.5686 38.337 96.4973 38.441C96.4585 38.5125 96.4973 38.6165 96.4973 38.6555C96.4973 38.7595 96.3549 38.7205 96.1153 38.6165C95.8693 38.48 95.5585 37.9925 95.3837 37.5765L95.2088 37.2255L95.416 38.337L95.2088 38.272C94.8657 38.168 94.5484 37.609 94.134 36.4975C93.888 35.6655 93.3311 34.4435 93.2988 34.515C93.1952 34.5865 93.3311 35.5225 93.4412 35.802C93.5448 36.01 93.7132 36.4975 93.8556 36.881C94.0304 37.2645 94.1664 37.6805 94.1664 37.713C94.2376 37.7845 94.2052 37.7455 93.9592 37.6415C93.6096 37.401 93.124 36.8095 92.8455 36.1465C92.7808 36.01 92.7096 35.802 92.6383 35.5615C91.5635 37.1215 90.4822 38.545 89.6534 39.455C89.0254 40.183 88.5721 40.495 87.8405 40.7745C87.2189 41.054 87.0765 41.0865 86.3513 41.119C85.6909 41.1905 84.0204 41.0865 83.3599 40.8395C83.0168 40.7355 82.3887 40.287 81.9743 39.6955C81.5858 39.1755 81.3786 38.6165 81.1714 37.609C80.7894 35.6265 80.8606 33.5075 81.275 30.8295C81.8642 26.975 82.9455 22.802 84.0916 19.6365C85.134 16.718 85.6196 15.47 86.0016 14.9825C86.4549 14.3585 87.7045 13.5915 87.7757 13.9035C87.8081 14.0075 87.8081 13.975 87.9829 13.9035C88.1578 13.832 88.5009 13.767 88.5722 13.7995C88.6434 13.832 88.611 13.936 88.5722 14.04C88.4686 14.144 88.5009 14.2545 88.5009 14.2545C88.5009 14.2545 88.6434 14.2155 88.7793 14.079C89.0254 13.871 89.1614 13.832 89.4398 13.936L89.6146 14.0075L89.4786 14.391C89.2326 14.911 89.0966 15.366 89.1614 15.3985C89.2002 15.431 89.3038 15.262 89.4074 15.0865C89.8606 14.391 90.1714 14.144 90.5858 14.391L90.8319 14.5665L90.6959 14.703C90.5858 14.7745 90.4822 14.9435 90.3463 15.0865C90.1391 15.3985 89.8218 15.9575 89.5822 16.5815L89.4074 16.965L89.6534 16.6465C89.7894 16.4775 90.0678 16.094 90.3139 15.743C90.5534 15.3985 90.8319 15.0865 90.9355 15.015C91.1815 14.8785 91.1815 14.8785 91.3563 14.9435C91.6283 15.119 91.6671 15.223 91.4211 15.366C91.2139 15.5025 90.7995 16.1655 90.6959 16.4775C90.6247 16.6855 90.6247 16.6855 91.2139 16.1655C91.6671 15.639 91.9779 15.535 92.0491 15.678C92.1203 15.782 92.0491 15.8535 92.0168 15.8535C91.9067 15.9185 91.2463 16.861 91.2851 16.965C91.2851 16.9975 91.4211 16.861 91.5959 16.6855C91.9455 16.3345 92.0168 16.2695 92.1527 16.406C92.2239 16.5425 91.9779 17.1015 91.6995 17.3095C91.0067 17.9725 88.9542 24.8885 88.0153 29.8935C87.7369 31.1805 87.3225 34.0665 87.3549 34.2745C87.3937 34.3395 87.7757 33.8585 88.7793 32.4285C90.1391 30.446 91.2851 28.6065 92.9491 25.6555C93.2664 23.738 93.6808 21.723 94.134 19.812C94.7232 17.4135 95.1441 16.198 95.5909 15.535C95.8693 15.119 96.4585 14.391 97.0153 14.079C97.2937 13.9035 97.5398 13.7995 97.9542 13.728C98.5434 13.624 98.893 13.5915 99.0355 13.5915C100.285 13.5915 101.813 13.416 104.105 15.054C104.63 15.431 104.694 15.431 105.115 16.198C105.394 16.6465 105.633 17.3095 105.808 17.589C106.158 18.0765 106.611 18.564 106.715 18.5965C106.818 18.629 107.271 18.5965 107.757 18.317C108.482 17.901 109.214 17.5565 109.842 17.03C110.185 16.7895 110.502 16.5815 110.502 16.5815C110.535 16.5425 110.535 16.614 110.606 16.6465L110.671 16.7895L110.884 16.5815C111.092 16.406 111.228 16.406 111.195 16.6855C111.124 16.822 111.266 16.861 111.545 16.6465C111.681 16.51 111.784 16.4385 111.888 16.4775L112.063 16.51L112.03 16.7895C111.927 17.069 111.959 17.2055 111.992 17.2055C112.03 17.2055 112.166 17.069 112.341 16.926C112.62 16.614 112.691 16.614 112.866 16.718L113.073 16.7895L112.794 17.2055C112.374 17.9725 112.445 17.9725 113.384 17.1015C113.455 16.9975 113.526 16.9975 113.63 17.069C113.766 17.2055 113.766 17.2055 113.384 17.693C113.176 18.005 112.969 18.2845 112.93 18.356C112.898 18.4925 112.898 18.4925 113.034 18.421C113.144 18.3885 113.351 18.1415 113.63 17.9335C114.115 17.446 114.148 17.446 114.187 17.5565C114.219 17.5565 114.076 17.8295 113.869 18.1415C113.248 18.98 113.312 19.084 113.973 18.421C114.187 18.213 114.426 18.0375 114.426 18.0765Z" fill="#00AC8B"/>
<path d="M82.6996 46.059C83.6708 46.059 84.2665 46.579 84.2665 47.3785C84.2665 48.178 83.6708 48.698 82.6996 48.698H82.0392V50.6415H81.2752V46.059H82.6996ZM82.0068 46.7155V48.074H82.6996C83.1529 48.074 83.4313 47.827 83.4313 47.3785C83.4313 46.9625 83.1529 46.7155 82.6996 46.7155H82.0068ZM89.6536 48.3535C89.6536 49.673 88.6759 50.7845 87.219 50.7845C85.7946 50.7845 84.7845 49.673 84.7845 48.3535C84.7845 47.0275 85.7557 45.916 87.219 45.916C88.6435 45.955 89.6536 47.0665 89.6536 48.3535ZM88.8507 48.3535C88.8507 47.3785 88.1579 46.644 87.219 46.644C86.2478 46.644 85.5874 47.411 85.5874 48.3535C85.5874 49.322 86.2802 50.0565 87.219 50.0565C88.1903 50.089 88.8507 49.322 88.8507 48.3535ZM93.4413 46.059H94.2054V48.8735C94.2054 50.0565 93.5061 50.7455 92.3989 50.7455C91.2852 50.7455 90.586 50.0565 90.586 48.8735V46.059H91.3176V48.9385C91.3176 49.673 91.7385 50.0565 92.3989 50.0565C93.0205 50.0565 93.4413 49.634 93.4413 48.9385V46.059ZM96.7759 46.059C97.7471 46.059 98.3363 46.579 98.3363 47.3785C98.3363 47.931 98.0579 48.3535 97.6111 48.5615L99.068 50.6415H98.1615L96.8795 48.698H96.219V50.6415H95.4874V46.059H96.7759ZM96.219 46.7155V48.074H96.8083C97.2615 48.074 97.5399 47.827 97.5399 47.3785C97.5399 46.9625 97.2615 46.7155 96.8083 46.7155H96.219ZM102.267 46.059V49.946H104.073V50.6415H101.503V46.059H102.267ZM106.397 46.059H107.408L109.182 50.6415H108.379L107.893 49.361H105.879L105.394 50.6415H104.591L106.397 46.059ZM107.654 48.7305L106.89 46.7545L106.119 48.7305H107.654ZM84.5061 52.6955V53.391H83.0169V57.2845H82.2464V53.391H80.7896V52.6955H84.5061ZM86.6946 52.6955C87.6723 52.6955 88.2615 53.2155 88.2615 54.015C88.2615 54.574 87.9831 54.99 87.5298 55.198L88.9932 57.2845H88.0867L86.7982 55.3345H86.1766V57.2845H85.4449V52.6955H86.6946ZM86.1766 53.3585V54.7105H86.7658C87.219 54.7105 87.4975 54.47 87.4975 54.015C87.4975 53.599 87.219 53.3585 86.7658 53.3585H86.1766ZM91.078 52.6955H92.0816L93.8557 57.2845H93.0593L92.5673 55.9975H90.5536L90.068 57.2845H89.2716L91.078 52.6955ZM91.5637 53.391L90.7996 55.3735H92.3277L91.5637 53.391ZM95.6946 52.6955L98.0579 56.3095V52.6955H98.8219V57.2845H97.8507L95.4874 53.6705V57.2845H94.7557V52.6955H95.6946ZM100.356 56.134C100.628 56.5175 101.017 56.7255 101.431 56.7255C101.885 56.7255 102.124 56.446 102.124 56.1015C102.124 55.198 99.9744 55.3345 99.9744 53.8395C99.9744 53.144 100.525 52.559 101.36 52.559C102.02 52.559 102.506 52.871 102.888 53.3195L102.331 53.807C102.059 53.4235 101.742 53.2155 101.36 53.2155C100.978 53.2155 100.738 53.4625 100.738 53.807C100.738 54.7105 102.888 54.574 102.888 56.069C102.888 56.8685 102.267 57.3885 101.431 57.3885C100.7 57.3885 100.214 57.109 99.7996 56.6215L100.356 56.134ZM104.034 52.6955H104.766V57.2845H104.034V52.6955ZM109.421 52.6955V53.391H107.964V57.2845H107.2V53.391H105.737V52.6955H109.421ZM110.36 52.6955H111.092V57.2845H110.36V52.6955ZM116.964 54.99C116.964 56.3095 115.993 57.421 114.53 57.421C113.105 57.421 112.102 56.3095 112.102 54.99C112.102 53.6705 113.073 52.559 114.53 52.559C115.993 52.559 116.964 53.6705 116.964 54.99ZM116.161 54.99C116.161 54.015 115.469 53.287 114.53 53.287C113.559 53.287 112.898 54.054 112.898 54.99C112.898 55.965 113.591 56.693 114.53 56.693C115.501 56.693 116.161 55.965 116.161 54.99ZM118.946 52.6955L121.309 56.3095V52.6955H122.073V57.2845H121.102L118.738 53.6705V57.2845H118.007V52.6955H118.946ZM81.2752 59.332H83.8457V59.995H82.0392V61.282H83.5672V61.9385H82.0392V63.297H83.8457V63.96H81.2752V59.332ZM82.214 58.916L82.9457 58.045H83.7421L82.9068 58.916H82.214ZM88.2615 62.634L88.8507 63.089C88.4363 63.6415 87.737 64.025 86.9083 64.025C85.4838 64.025 84.4737 62.9135 84.4737 61.594C84.4737 60.2745 85.4449 59.163 86.9083 59.163C87.737 59.163 88.3975 59.54 88.8507 60.099L88.2615 60.554C88.116 60.3372 87.9192 60.1602 87.6886 60.0388C87.458 59.9174 87.201 59.8554 86.9406 59.8585C85.9694 59.8585 85.309 60.619 85.309 61.5615C85.309 62.53 86.0018 63.2645 86.9406 63.2645C87.4975 63.3295 87.9831 63.0565 88.2615 62.634ZM94.2054 61.6265C94.2054 62.946 93.2277 64.064 91.7709 64.064C90.3464 64.064 89.3363 62.946 89.3363 61.6265C89.3363 60.307 90.314 59.1955 91.7709 59.1955C93.2277 59.1955 94.2054 60.307 94.2054 61.6265ZM93.4413 61.6265C93.4413 60.658 92.7421 59.9235 91.8032 59.9235C90.832 59.9235 90.1716 60.6905 90.1716 61.6265C90.1716 62.6015 90.8644 63.3295 91.8032 63.3295C92.7421 63.3295 93.4413 62.569 93.4413 61.6265ZM95.973 59.332V63.2255H97.7795V63.921H95.209V59.332H95.973ZM102.959 61.6265C102.959 62.946 101.988 64.064 100.525 64.064C99.1003 64.064 98.0967 62.946 98.0967 61.6265C98.0967 60.307 99.068 59.1955 100.525 59.1955C101.988 59.1955 102.959 60.307 102.959 61.6265ZM102.195 61.6265C102.195 60.658 101.503 59.9235 100.564 59.9235C99.586 59.9235 98.932 60.6905 98.932 61.6265C98.932 62.6015 99.6248 63.3295 100.564 63.3295C101.503 63.3295 102.195 62.569 102.195 61.6265ZM107.44 62.8095V61.906H106.19V61.2105H108.204V63.089C107.79 63.6415 107.058 64.025 106.19 64.025C104.695 64.025 103.723 62.9135 103.723 61.594C103.723 60.2745 104.695 59.163 106.158 59.163C106.993 59.163 107.654 59.54 108.1 60.099L107.511 60.554C107.366 60.3372 107.169 60.1602 106.938 60.0388C106.708 59.9174 106.451 59.8554 106.19 59.8585C105.219 59.8585 104.559 60.619 104.559 61.5615C104.559 62.53 105.29 63.2645 106.261 63.2645C106.715 63.3295 107.129 63.1215 107.44 62.8095ZM109.356 59.332H110.082V63.921H109.356V59.332ZM116.654 64.3045V64.9285C116.511 64.9675 116.375 65 116.2 65C115.747 65 115.261 64.8245 114.808 64.4085L114.251 63.921C114.012 63.9925 113.798 64.025 113.526 64.025C112.102 64.025 111.092 62.9135 111.092 61.594C111.092 60.2745 112.063 59.163 113.526 59.163C114.951 59.163 115.954 60.2745 115.954 61.594C115.954 62.3935 115.572 63.1215 114.983 63.5765L115.333 63.8885C115.715 64.233 116.026 64.337 116.336 64.337C116.44 64.337 116.582 64.337 116.654 64.3045ZM115.19 61.6265C115.19 60.658 114.497 59.9235 113.559 59.9235C112.587 59.9235 111.927 60.6905 111.927 61.6265C111.927 62.6015 112.62 63.3295 113.559 63.3295C114.497 63.3295 115.19 62.569 115.19 61.6265ZM120.545 59.332V62.1465C120.545 63.3295 119.846 64.025 118.738 64.025C117.625 64.025 116.932 63.3295 116.932 62.1465V59.332H117.657V62.218C117.657 62.946 118.078 63.3295 118.738 63.3295C119.36 63.3295 119.781 62.9135 119.781 62.218V59.332H120.545ZM121.795 59.332H124.365V59.995H122.559V61.282H124.119V61.9385H122.559V63.297H124.365V63.96H121.795V59.332Z" fill="#000091"/>
</g>
<defs>
<clipPath id="clip0_9734_12981">
<rect width="90" height="65" fill="white" transform="translate(34.365)"/>
</clipPath>
</defs>
</svg>
