<svg width="154" height="45" viewBox="0 0 154 45" fill="none" xmlns="http://www.w3.org/2000/svg">
  <g clip-path="url(#clip0_911_830)">
    <path fill-rule="evenodd" clip-rule="evenodd"
      d="M80.3844 38.3757V37.6326C80.3844 35.9465 79.5871 35.3353 77.9416 35.3353C76.0829 35.3353 75.4463 36.0514 75.4463 37.7511C75.4463 40.9117 78.4867 40.7119 78.4986 42.6773C78.4986 43.2343 78.3395 43.4611 77.9399 43.4611C77.5404 43.4611 77.383 43.2207 77.383 42.6773V42.0137H75.4446V42.9025C75.4446 44.6546 76.1607 45.1862 77.9281 45.1862C79.8258 45.1862 80.4369 44.575 80.4369 42.5961C80.4369 39.5032 77.3847 39.5032 77.3847 37.8442C77.3847 37.2872 77.5438 37.0604 77.9416 37.0604C78.3395 37.0604 78.5003 37.2991 78.5003 37.8442V38.3757H80.3861H80.3844ZM81.7997 45H85.783V43.2749H83.738V40.9117H85.6899V39.1849H83.738V37.2466H85.783V35.5215H81.7997V45ZM89.2263 45V40.9117H89.7173C90.1151 40.9117 90.3403 41.0708 90.3403 41.389V44.6157C90.3403 44.7223 90.3809 44.8544 90.4604 45.0016H92.4106C92.2786 44.8561 92.2786 44.6969 92.2786 43.9673V41.9088C92.2786 40.7 91.9062 40.1702 91.1105 40.0364C91.9857 39.8773 92.2261 39.1595 92.2261 38.589V37.4616C92.2261 35.9481 91.4694 35.5232 89.7698 35.5232H87.288V45.0016H89.2263V45ZM89.2263 37.2466H89.7173C90.1811 37.2466 90.2878 37.4328 90.2878 38.2149C90.2878 39.0512 90.1269 39.1832 89.7173 39.1832H89.2263V37.2449V37.2466ZM96.7986 35.5215L95.8963 42.8635L94.994 35.5215H92.9896L94.5961 45H97.171L98.7775 35.5215H96.8003H96.7986ZM101.98 35.5215H100.042V45H101.98V35.5215ZM105.705 45V40.9117H106.196C106.595 40.9117 106.82 41.0708 106.82 41.389V44.6157C106.82 44.7223 106.859 44.8544 106.939 45.0016H108.891C108.759 44.8561 108.759 44.6969 108.759 43.9673V41.9088C108.759 40.7 108.386 40.1702 107.591 40.0364C108.466 39.8773 108.706 39.1595 108.706 38.589V37.4616C108.706 35.9481 107.95 35.5232 106.25 35.5232H103.766V45.0016H105.705V45ZM105.705 37.2466H106.196C106.661 37.2466 106.768 37.4328 106.768 38.2149C106.768 39.0512 106.609 39.1832 106.196 39.1832H105.705V37.2449V37.2466ZM116.73 45V43.2749H114.687V35.5215H112.749V45H116.73ZM115.794 35.5215V37.2466H116.458L115.662 38.9716H116.631L117.521 37.2466V35.5215H115.796H115.794ZM120.504 45L120.702 43.3274H122.043L122.27 45H124.274L122.667 35.5215H120.093L118.486 45H120.504ZM121.393 37.1145L121.829 41.6024H120.9L121.391 37.1145H121.393ZM128.035 35.5215L127.133 42.8635L126.231 35.5215H124.227L125.833 45H128.408L130.014 35.5215H128.035ZM131.227 45H135.208V43.2749H133.165V40.9117H135.115V39.1849H133.165V37.2466H135.208V35.5215H131.227V45ZM140.844 42.1982L139.171 35.5215H136.717V45H138.548V38.3757L140.246 45H142.675V35.5215H140.844V42.1982ZM146.412 35.5215H144.473V45H146.412V35.5215ZM150.136 45V40.9117H150.627C151.025 40.9117 151.25 41.0708 151.25 41.389V44.6157C151.25 44.7223 151.291 44.8544 151.368 45.0016H153.32C153.187 44.8561 153.187 44.6969 153.187 43.9673V41.9088C153.187 40.7 152.814 40.1702 152.018 40.0364C152.894 39.8773 153.132 39.1595 153.132 38.589V37.4616C153.132 35.9481 152.376 35.5232 150.676 35.5232H148.194V45.0016H150.133L150.136 45ZM150.136 37.2466H150.627C151.091 37.2466 151.197 37.4328 151.197 38.2149C151.197 39.0512 151.038 39.1832 150.627 39.1832H150.136V37.2449V37.2466Z"
      fill="#4C3E3D"></path>
    <path
      d="M126.209 14.6095C124.179 14.6095 123.221 18.212 123.83 23.531C124.575 30.0079 130.356 29.9859 134.269 28.3472L134.264 31.5434C131.858 32.2002 129.898 32.3627 128.195 32.3627C118.327 32.3627 117.325 24.2488 117.325 21.8229C117.325 17.7041 118.786 12.0093 126.607 12.0093C131.792 12.0093 134.751 15.3832 134.8 19.9048H128.562C128.547 17.0777 127.953 14.6061 126.209 14.6061"
      fill="#4C3E3D"></path>
    <path
      d="M147.151 19.2514V18.8485C147.067 16.8712 146.664 14.6095 144.971 14.6095C143.278 14.6095 142.777 16.5055 142.545 19.1278L142.535 19.2514H147.151ZM153.744 22.0768H142.459L142.464 22.1953C142.863 30.1704 148.804 30.0045 152.992 28.3421L152.989 31.5434C150.586 32.2002 148.919 32.3627 147.062 32.3627C137.468 32.3627 136.041 25.2391 136.041 21.5943C136.041 17.3825 137.878 12.0008 145.205 12.0076C150.613 12.011 153.744 15.4204 153.744 20.1588V22.0768Z"
      fill="#4C3E3D"></path>
    <path
      d="M86.2604 29.0683L86.2384 21.5486L86.1148 21.5604C84.4947 21.7043 82.1298 22.4323 82.1264 25.6911C82.1247 28.7416 83.6128 29.0074 85.0229 29.0667L86.2604 29.07V29.0683ZM92.7746 31.7617H82.2297C78.3428 31.7549 75.5428 30.1755 75.5513 25.8671C75.5581 22.3612 77.5861 20.6768 79.924 19.8591C81.0971 19.4511 82.3465 19.2598 83.4553 19.1718C84.5658 19.0838 85.5308 19.099 86.1301 19.0973H86.2435V18.4862C86.2486 13.9781 81.7489 14.4605 79.2062 15.2037C78.7237 15.351 78.2836 15.5084 77.9112 15.6642L77.9145 12.7152C80.1593 12.1853 81.6897 12.0059 84.0732 12.0059C89.7139 12.0059 92.778 14.6518 92.778 19.077V31.7617H92.7746Z"
      fill="#4C3E3D"></path>
    <path d="M48.6008 12.6661L48.5923 31.7618H42.0578L42.0612 12.6661H48.6008Z" fill="#4C3E3D"></path>
    <path
      d="M75.4277 14.8279C73.8872 14.8973 71.5239 15.4441 71.5189 19.0482L71.507 31.7617H64.9708L64.9793 18.8417C64.9844 14.9582 68.5394 12.0093 74.0971 12.0076H75.4243L75.4277 14.8279Z"
      fill="#4C3E3D"></path>
    <path
      d="M64.8777 4.60803V7.37588C64.2327 7.37588 63.5827 7.37588 62.9682 7.42498C62.3147 7.47746 61.6917 7.58411 61.1517 7.80926C60.0547 8.26633 59.3217 9.19911 59.32 11.0359V12.6661H63.9297L63.9263 15.4729H59.3065L59.3099 31.7634H52.7787V12.5442C52.7787 5.44262 57.6491 4.60973 63.5505 4.60973H64.8777V4.60803Z"
      fill="#4C3E3D"></path>
    <path
      d="M114.416 31.7618H107.845L107.831 20.2587C107.831 15.7252 106.111 15.4865 103.717 15.4729H103.255L103.259 31.7618H96.7139L96.7089 12.5764C97.2387 12.6103 99.0095 12.6678 104.914 12.6678C114.386 12.6678 114.411 17.0608 114.411 20.6328L114.415 31.7618H114.416Z"
      fill="#4C3E3D"></path>
    <path
      d="M45.3301 8.72001C43.0075 8.72001 41.1233 6.83415 41.1233 4.50983C41.1233 2.18551 43.0075 0.296265 45.3301 0.296265C47.6527 0.296265 49.5352 2.18213 49.5352 4.50983C49.5352 6.83753 47.6527 8.72001 45.3301 8.72001Z"
      fill="#4C3E3D"></path>
    <path
      d="M45.3301 44.1553C43.0075 44.1553 41.1233 42.2678 41.1233 39.9434C41.1233 37.6191 43.0075 35.7316 45.3301 35.7316C47.6527 35.7316 49.5352 37.6174 49.5352 39.9434C49.5352 42.2694 47.6527 44.1553 45.3301 44.1553Z"
      fill="white"></path>
    <path
      d="M12.0059 21.9837C12.0059 17.8158 11.0375 15.2494 8.03777 15.2494H7.50282V29.1276H8.13426C11.0443 29.1259 12.0059 26.3462 12.0059 21.9837ZM0.93277 31.7617V4.60803H7.50282V12.6661H9.58336C14.1355 12.6661 16.3887 14.4436 17.5111 16.4852C18.6402 18.5387 18.6402 20.8799 18.6402 22.0311C18.6402 25.0597 17.6838 31.7617 10.1742 31.7617H0.93277Z"
      fill="#4C3E3D"></path>
    <path
      d="M28.0679 15.2478V29.1277H28.6045C31.6043 29.1277 32.5709 26.5613 32.5709 22.3917C32.5709 18.2222 31.6094 15.2495 28.701 15.2495L28.0679 15.2461V15.2478ZM39.2087 22.3968C39.2087 23.5479 39.2087 25.8892 38.0778 27.9443C36.9538 29.9859 34.7022 31.7618 30.1501 31.7618H28.0679V39.8198H21.4995V12.6661H30.7426C38.2522 12.6661 39.2087 19.3665 39.2087 22.3968Z"
      fill="#4C3E3D"></path>
  </g>
  <defs>
    <clipPath id="clip0_911_830">
      <rect width="154.256" height="45" fill="white"></rect>
    </clipPath>
  </defs>
</svg>
