<svg width="62" height="42" viewBox="0 0 62 42" fill="none" xmlns="http://www.w3.org/2000/svg">
<mask id="mask0_9917_294226" style="mask-type:luminance" maskUnits="userSpaceOnUse" x="0" y="0" width="62" height="42">
<path d="M61.88 0H0V41.5H61.88V0Z" fill="white"/>
</mask>
<g mask="url(#mask0_9917_294226)">
<path d="M30.2719 13.9237C30.3374 13.7914 30.4274 13.7459 30.4029 13.7665C30.4029 13.7914 30.3619 14.0106 30.2719 14.2546C30.1205 14.7634 29.4821 17.2411 29.2202 18.4779C28.9092 19.9173 28.4509 22.304 28.2504 23.6566C28.0335 24.9595 27.878 26.308 27.3952 30.0018C27.1988 31.4867 27.0678 32.5043 26.9573 32.9882C26.5195 34.9819 26.1021 36.0657 25.3328 37.1908C24.7394 38.0553 24.2974 38.4979 23.2458 39.139C22.3005 39.7594 21.2243 40.0904 20.1276 40.1772C19.7307 40.1772 18.72 40.0904 18.3475 39.958C17.1404 39.6271 16.3711 38.5185 15.9987 36.5496C15.8432 35.7306 15.8228 35.2012 15.8882 34.407C15.9741 32.9675 16.633 30.9324 17.3369 29.9356C17.7542 29.3606 18.5031 28.674 19.0719 28.4093C19.4893 28.19 20.3691 28.0577 20.676 28.099C20.7864 28.1239 20.9174 28.1652 20.9829 28.1445C21.1138 28.1445 21.1384 28.1445 21.1588 28.2355C21.1793 28.3224 21.2693 28.3431 21.4658 28.3017C21.5558 28.2769 21.5558 28.3224 21.4903 28.4341C21.4658 28.5003 21.4903 28.5416 21.5558 28.5871C21.5967 28.6533 21.6867 28.6988 21.7072 28.6988C21.8627 28.7443 21.7522 29.1828 21.5762 29.2531C21.5108 29.2738 21.4207 29.3193 21.3348 29.4061C21.2898 29.493 21.2243 29.5385 21.2039 29.5385C21.0279 29.584 20.4141 30.2458 20.1031 30.7091C19.8207 31.1517 19.4893 31.95 19.3133 32.6118C18.8305 34.3822 18.9859 36.1732 19.7757 37.4348C19.9271 37.6995 20.3036 38.0553 20.3895 38.0346C20.4795 38.0553 20.9379 37.7244 21.1793 37.4803C21.4207 37.2363 21.8831 36.7068 22.0386 36.4834C22.4315 35.8423 22.8284 34.7379 23.0044 33.6542C23.1558 32.769 23.3767 30.7753 23.5322 28.6988C23.7737 25.6255 23.9497 23.9627 24.0151 23.4539C24.0355 23.3877 23.9046 23.5449 23.7491 23.7641C23.1803 24.5625 23.0248 24.7403 22.4765 25.005C22.0591 25.2243 21.6212 25.3153 20.7619 25.3359C20.5655 25.3566 19.8412 25.1581 19.6202 25.005C19.4893 24.9389 19.3788 24.8272 19.2928 24.7155C19.2274 24.8272 19.1374 24.9389 19.0719 25.0464C18.368 26.0639 18.0857 26.399 17.4473 26.8416C16.9645 27.1932 16.7026 27.3504 16.1092 27.5241C15.5813 27.6813 15.4708 27.7019 15.0534 27.7268C14.1982 27.7474 13.122 27.5903 12.7496 27.371C12.6595 27.3255 12.4631 27.2387 12.3322 27.1932C11.6938 26.9284 11.1864 26.399 10.814 25.6007C10.7486 25.4021 10.6831 25.2243 10.6626 25.1581C10.6381 25.0919 10.3762 25.4228 9.25496 27.1063C7.91683 29.0752 7.51993 29.6047 7.1025 30.0266C6.84059 30.312 6.46822 30.5767 6.2268 30.6884C6.02633 30.7546 5.39205 30.9531 5.34699 30.9324H5.01557C4.38129 30.9324 3.35006 30.7339 2.84262 30.4899C2.47025 30.2913 2.11835 29.8487 1.87693 29.2944C1.70098 28.9429 1.47997 27.8136 1.47997 27.2594C1.45956 26.1549 1.65592 24.6493 1.94241 23.5449C2.27383 22.3288 2.97358 20.8687 3.80839 19.7849C4.64319 18.635 5.32657 17.9029 5.94037 17.5265C7.14756 16.7323 9.36543 16.8192 10.6176 17.7705C10.859 17.9277 11.0555 18.1014 11.1455 18.2586C11.2314 18.3662 11.3215 18.4572 11.3215 18.4572C11.3624 18.4572 11.4319 18.3248 11.4974 18.1676C11.8698 17.3941 12.68 16.5544 13.2325 16.3104C13.5394 16.178 14.1082 16.1119 14.1327 16.1987C14.1327 16.2235 14.1532 16.2235 14.2841 16.1987C14.4151 16.178 14.5256 16.178 14.5501 16.178C14.6156 16.1987 14.6156 16.2235 14.5706 16.3352C14.5051 16.5544 14.5051 16.5751 14.6565 16.4883C14.7465 16.4428 14.8325 16.4014 14.898 16.3766C14.988 16.3352 15.209 16.4014 15.209 16.4221C15.209 16.4428 15.1435 16.5544 15.033 16.7075C14.9225 16.8647 14.767 17.1501 14.6361 17.3734C14.6361 17.4189 14.6156 17.4396 14.5911 17.4851C14.5911 17.5265 14.6156 17.572 14.6156 17.6175C14.857 17.2163 15.0984 16.8647 15.209 16.7323C15.3399 16.5999 15.5159 16.5338 15.6018 16.6206C15.6918 16.6868 15.6468 16.6868 15.5813 16.7985C15.3603 16.997 15.2744 17.1749 15.0534 17.6175C14.857 18.0601 14.7915 18.2793 14.9675 17.9939C15.1844 17.5927 15.7573 16.8854 15.8882 16.8647C15.9537 16.844 15.9087 16.997 15.7573 17.2163C15.6263 17.4189 15.4258 17.8822 15.3153 18.1676C15.3153 18.2131 15.4504 18.0146 15.6263 17.7499C15.9087 17.3073 16.0192 17.2163 16.0437 17.3073C16.0437 17.3734 15.9987 17.4851 15.6672 18.1469C15.4053 18.7219 15.1639 19.454 14.8775 20.5378C14.5256 21.7745 14.4151 22.5729 14.3742 23.4994C14.3742 23.8303 14.5051 24.8934 14.5706 24.8727C14.6361 24.8479 14.9675 24.5624 15.2949 24.2315C15.7123 23.7889 16.1297 23.214 16.944 21.9979C17.9956 20.4013 18.634 19.3175 19.5138 17.572C19.7103 17.1956 19.8862 16.844 19.9721 16.6868C20.4141 15.5824 20.9174 14.4739 21.3552 13.8327C21.9936 12.8814 22.587 12.3519 23.2008 12.1285C23.6836 11.9548 24.2974 11.9093 24.7394 11.9548C24.9358 11.9755 25.1323 12.021 25.2018 11.9962C25.2223 11.9755 25.4842 12.021 25.7706 12.1079C26.3435 12.3064 26.9573 12.6373 27.1783 12.9062L27.2642 13.0137L27.3747 12.9269C27.3952 12.9062 27.5507 12.7738 27.6611 12.6828C27.7471 12.6373 27.8576 12.5049 27.878 12.5049C27.923 12.4388 28.054 12.5049 28.0335 12.6166C28.009 12.7283 28.054 12.7283 28.1849 12.5959C28.2504 12.4843 28.4264 12.4181 28.4509 12.4843C28.4509 12.4843 28.4509 12.5504 28.4264 12.6621C28.4059 12.84 28.4059 12.8814 28.5164 12.7738C28.6678 12.5959 28.8233 12.5049 28.8888 12.5298C28.9788 12.5711 28.9788 12.6166 28.8888 12.8607C28.8028 13.0592 28.7578 13.3488 28.8028 13.3694C28.8233 13.3694 28.9338 13.2578 29.0647 13.0592C29.2857 12.749 29.3266 12.7076 29.5026 12.749C29.6131 12.8152 29.6377 12.8607 29.5026 13.0592C29.2202 13.4563 28.7374 14.5649 28.8683 14.54C28.8683 14.54 28.9338 14.4325 29.0443 14.2753C29.3512 13.7004 29.7031 13.1254 29.789 13.0799C29.8791 13.0137 29.8996 12.993 29.9854 13.0799C30.0305 13.1254 30.0305 13.1709 29.965 13.2826C29.8545 13.4356 29.6377 13.9899 29.6377 14.0106C29.6377 14.0106 29.744 13.9651 29.8136 13.8575C29.8996 13.7252 30.0305 13.568 30.1205 13.5225C30.2719 13.3901 30.2965 13.3488 30.3374 13.4149C30.3824 13.4356 30.3619 13.5225 30.3169 13.5887C30.231 13.7004 30.1205 13.9899 30.141 14.0561L30.2719 13.9237ZM9.38591 20.2937L9.41043 20.3144C9.41043 20.3144 9.41043 20.2937 9.38591 20.2937ZM5.39205 26.9946C5.39205 27.0153 5.523 26.8623 6.29227 25.824C6.57465 25.4021 7.32351 24.3639 7.9373 23.4787C8.53063 22.6142 9.10353 21.8407 9.14449 21.729C9.20996 21.6215 9.23448 21.5553 9.20996 21.2203C9.18948 20.6701 8.86211 19.6071 8.68616 19.5409C8.68616 19.5202 8.5511 19.6526 8.37926 19.8056C8.0273 20.182 7.38898 21.0672 7.0616 21.6877C6.55417 22.6804 6.00585 24.186 5.69895 25.3566C5.58848 25.9316 5.36747 26.9284 5.39205 26.9946ZM22.4561 20.0704C22.2146 21.1541 22.321 21.0672 22.632 19.9173C23.2213 17.8822 23.7737 16.3352 24.2566 15.3839C24.3425 15.206 24.4325 15.0281 24.408 15.0281C24.367 14.9826 23.9046 15.7561 23.7286 16.2235C23.3113 17.1956 22.7384 18.9866 22.4561 20.0704ZM25.0463 16.1574L25.1323 15.9795L25.0259 15.6031C24.9808 15.4045 24.9154 15.2267 24.8704 15.1605C24.8254 15.0736 24.8254 15.115 24.6494 15.4045C24.367 15.8678 24.1461 16.4014 23.8596 17.1501C23.5977 17.9029 23.1148 19.454 23.1148 19.4747C23.1148 19.5202 23.1353 19.4747 23.1558 19.4085C23.2008 19.3424 23.5977 18.635 24.056 17.816C24.498 17.0425 24.9153 16.3104 25.0463 16.1574ZM35.1046 4.23223C35.0842 4.29841 34.9287 4.03368 34.9492 3.85582C34.9082 3.65727 35.0146 2.66455 35.1046 2.11027C35.3011 1.04723 35.743 -0.0571802 36.0254 -0.280544C36.1154 -0.346726 36.1154 -0.321907 36.1359 -0.255726C36.1604 -0.189544 36.1604 -0.0571802 36.1359 0.0545017C36.1154 0.0958653 36.1154 0.141365 36.1154 0.186865H36.1809C36.2014 0.162046 36.2014 0.120683 36.2259 0.0751835C36.2914 -0.0364984 36.3568 -0.210226 36.4428 -0.301226C36.5083 -0.454271 36.5328 -0.479089 36.6637 -0.479089C36.7088 -0.499771 36.7947 -0.479089 36.8193 -0.479089C36.8193 -0.433589 36.7947 -0.346726 36.7292 -0.189544C36.6842 -0.0571802 36.6187 0.120683 36.5983 0.186865C36.6187 0.253047 36.5982 0.298546 36.5778 0.319228C36.5982 0.33991 36.6433 0.364728 36.6637 0.38541V0.364728C36.9052 -0.144044 37.0607 -0.367407 37.1466 -0.388089C37.2366 -0.412907 37.3881 -0.321907 37.3881 -0.301226C37.3881 -0.255726 37.3226 -0.123362 37.2121 0.0296835C37.1016 0.228228 36.9911 0.472274 36.9052 0.716319C36.9256 0.782501 36.9502 0.873501 36.9502 0.960365C36.9706 0.981046 36.9706 1.02655 36.9911 1.04723C37.2571 0.472274 37.4985 -0.0116802 37.609 -0.10268C37.695 -0.168862 37.7195 -0.144044 37.8709 -0.077862L38.0264 0.0296835L37.8504 0.319228C37.5435 0.782501 37.3881 1.20441 37.519 1.17959C37.564 1.17959 37.6295 1.09273 37.74 0.939683C38.0673 0.583956 38.3538 0.319228 38.4192 0.33991C38.5298 0.319228 38.7507 0.538456 38.7712 0.604637C38.7712 0.604637 38.7261 0.670819 38.6402 0.761819C38.5093 0.873501 38.1778 1.42364 38.2228 1.44846C38.2228 1.44846 38.3988 1.33677 38.5748 1.17959C38.7712 1.04723 38.9471 0.914865 39.0126 0.894183C39.0576 0.894183 39.1231 0.914865 39.1681 1.00586C39.2786 1.13823 39.299 1.20441 39.1436 1.27059C39.1026 1.29127 38.9921 1.40296 38.8817 1.556C38.7957 1.71318 38.7261 1.82073 38.7261 1.82073C38.7261 1.84555 38.8817 1.77936 39.0371 1.68836C39.3645 1.51464 39.4955 1.48982 39.5201 1.62218C39.5201 1.68836 39.4955 1.73386 39.385 1.82073C39.254 1.91173 38.9267 2.30882 38.9921 2.28814C39.0371 2.28814 39.1231 2.26332 39.2132 2.22196C39.344 2.13096 39.5405 2.06477 39.5405 2.08959C39.5609 2.17646 39.3645 2.466 39.1886 2.61905C38.8612 2.88377 38.4438 3.78964 38.1369 4.96436C38.0264 5.31596 37.9364 5.47314 37.7195 5.651C37.564 5.73786 37.4781 5.78336 37.4085 5.73786C37.3226 5.71718 37.3226 5.67168 37.3676 5.53932C37.4331 5.22909 37.3881 5.20841 37.1262 5.49382C36.8847 5.67168 36.8847 5.69236 36.8193 5.651C36.7947 5.62618 36.7743 5.56 36.8193 5.42764C36.8847 5.09673 36.8397 5.09673 36.5983 5.34077C36.3568 5.51864 36.3118 5.49382 36.3568 5.16291C36.3773 5.11741 36.3773 5.07605 36.3773 5.03055L36.2464 4.96436L36.2014 5.00986C36.1154 5.07605 36.0254 5.16291 36.0254 5.16291C35.9845 5.18359 35.919 5.16291 35.919 5.14223C35.874 5.09673 35.8494 4.96436 35.919 4.58796V4.54246C35.8945 4.47627 35.8494 4.38941 35.8085 4.32323C35.7635 4.45559 35.743 4.60864 35.7185 4.72032L35.653 4.91886L35.5671 4.832C35.432 4.72032 35.432 4.72032 35.477 4.21155C35.5016 4.09986 35.5016 3.94682 35.5221 3.76896C35.477 3.68209 35.432 3.61591 35.3911 3.52491C35.3461 3.43805 35.3011 3.34705 35.2806 3.26018C35.2561 3.34705 35.2356 3.43805 35.2356 3.52491C35.1701 3.90132 35.1251 4.23223 35.1046 4.23223ZM52.0581 11.0034C52.0783 11.0448 51.993 11.3799 51.9475 11.6653C51.0924 12.7738 49.2267 13.8782 47.7984 13.8327C47.1601 13.7914 46.3903 13.6342 45.8873 13.4356C45.4701 13.2578 43.7144 12.4388 43.3175 12.1534C42.7692 13.3694 42.7487 14.4987 42.855 17.7044L43.4282 23.8303C43.121 24.2977 43.0312 24.4053 42.8796 24.5376C42.7487 24.6741 42.6791 24.6948 42.6382 24.6286C42.6382 24.6286 42.6382 24.5624 42.6586 24.5169C42.7037 24.3846 42.855 24.0744 43.0312 23.7889C42.9902 23.7889 42.9246 23.8096 42.8796 23.8096C42.7896 23.9875 42.7037 24.1654 42.6586 24.2315C42.5932 24.2977 42.5932 24.3639 42.6136 24.3639C42.6382 24.3846 42.6382 24.3846 42.5931 24.3639C42.5931 24.3639 42.5073 24.4053 42.4172 24.4963C42.2413 24.6493 42.1103 24.6948 42.1308 24.5831C42.1553 24.5376 42.1308 24.4714 42.1308 24.4508C42.1308 24.4301 42.1758 24.2977 42.2412 24.1405C42.3313 23.9875 42.3313 23.8551 42.3313 23.8551C42.2862 23.8303 42.1963 24.0082 42.0653 24.2067C41.8034 24.6493 41.7134 24.6948 41.6479 24.3846C41.6275 24.2522 41.5825 24.1654 41.5825 24.1654C41.5374 24.1405 41.517 24.2067 41.4719 24.3184C41.431 24.4301 41.386 24.4963 41.341 24.4714C41.2101 24.4301 41.12 24.3391 41.0995 24.2522C41.0791 24.1199 40.7722 23.8965 40.7272 23.9627C40.7026 24.0082 40.7272 24.0744 40.7272 24.0992C40.7272 24.1654 40.6372 24.1405 40.4857 24.0744C40.3303 23.9875 40.1338 23.6773 40.0234 23.4125L39.9128 23.1892L40.0438 23.8965L39.9128 23.8551C39.696 23.7889 39.4955 23.4332 39.2336 22.7259C39.0781 22.1964 38.7261 21.4188 38.7057 21.4643C38.6402 21.5098 38.7261 22.1054 38.7957 22.2833C38.8612 22.4157 38.9676 22.7259 39.0576 22.9699C39.1681 23.214 39.254 23.4787 39.254 23.4994C39.299 23.5449 39.2786 23.5201 39.1231 23.4539C38.9021 23.3009 38.5952 22.9244 38.4192 22.5025C38.3783 22.4157 38.3333 22.2833 38.2883 22.1303C37.609 23.123 36.9256 24.0289 36.4018 24.608C36.0049 25.0712 35.7184 25.2698 35.2561 25.4476C34.8632 25.6255 34.7732 25.6462 34.3149 25.6669C33.8975 25.7124 32.8418 25.6462 32.4243 25.489C32.2075 25.4228 31.8105 25.1374 31.5486 24.761C31.3031 24.4301 31.1722 24.0744 31.0412 23.4332C30.7998 22.1716 30.8448 20.8232 31.1067 19.119C31.4791 16.6661 32.1624 14.0106 32.8868 11.9962C33.5456 10.1389 33.8525 9.34477 34.0939 9.03454C34.3804 8.63745 35.1701 8.14936 35.2151 8.3479C35.2356 8.41409 35.2356 8.3934 35.3461 8.3479C35.4566 8.3024 35.6734 8.26104 35.7185 8.28172C35.7635 8.3024 35.743 8.36858 35.7185 8.43477C35.653 8.50095 35.6734 8.57127 35.6734 8.57127C35.6734 8.57127 35.7635 8.54645 35.8494 8.45959C36.0049 8.32722 36.0909 8.3024 36.2668 8.36859L36.3773 8.41409L36.2914 8.65813C36.1359 8.98904 36.0499 9.27859 36.0909 9.29927C36.1154 9.31995 36.1809 9.2124 36.2464 9.10072C36.5328 8.65813 36.7292 8.50095 36.9911 8.65813L37.1466 8.76981L37.0607 8.85668C36.9911 8.90218 36.9256 9.00972 36.8397 9.10072C36.7088 9.29927 36.5083 9.65499 36.3568 10.0521L36.2464 10.2961L36.4018 10.0934C36.4878 9.9859 36.6637 9.74186 36.8193 9.51849C36.9706 9.29927 37.1466 9.10072 37.2121 9.05522C37.3676 8.96836 37.3676 8.96836 37.4781 9.00972C37.65 9.1214 37.6745 9.18759 37.519 9.27859C37.3881 9.36545 37.1262 9.78736 37.0607 9.9859C37.0157 10.1183 37.0157 10.1183 37.3881 9.78736C37.6745 9.45231 37.8709 9.38613 37.9159 9.47713C37.9609 9.54331 37.9159 9.58881 37.8955 9.58881C37.8259 9.63018 37.4085 10.2299 37.4331 10.2961C37.4331 10.3168 37.519 10.2299 37.6295 10.1183C37.8504 9.8949 37.8955 9.85354 37.9814 9.9404C38.0264 10.0273 37.8709 10.383 37.695 10.5154C37.2571 10.9373 35.9599 15.3384 35.3665 18.5234C35.1906 19.3424 34.9287 21.1789 34.9492 21.3113C34.9737 21.3526 35.2151 21.0465 35.8494 20.1365C36.7088 18.875 37.4331 17.7044 38.4847 15.8264C38.6852 14.6062 38.9471 13.3239 39.2336 12.1079C39.6059 10.5815 39.8719 9.80804 40.1543 9.38613C40.3303 9.1214 40.7026 8.65813 41.0545 8.45959C41.2305 8.3479 41.386 8.28172 41.6479 8.23622C42.0203 8.17004 42.2412 8.14936 42.3313 8.14936C43.121 8.14936 44.0867 8.03768 45.5352 9.08004C45.867 9.31995 45.9075 9.31995 46.1736 9.80804C46.3499 10.0934 46.5009 10.5154 46.6115 10.6932C46.8327 11.0034 47.119 11.3137 47.1848 11.3344C47.2499 11.355 47.5362 11.3344 47.8433 11.1565C48.3015 10.8918 48.7641 10.6725 49.161 10.3375C49.3778 10.1844 49.5781 10.0521 49.5781 10.0521C49.599 10.0273 49.599 10.0728 49.6439 10.0934L49.6849 10.1844L49.8196 10.0521C49.951 9.9404 50.037 9.9404 50.0161 10.1183C49.9712 10.2051 50.061 10.2299 50.2373 10.0934C50.3233 10.0066 50.3884 9.96109 50.4541 9.9859L50.5647 10.0066L50.5438 10.1844C50.4787 10.3623 50.499 10.4492 50.5198 10.4492C50.5438 10.4492 50.6298 10.3623 50.7404 10.2713C50.9167 10.0728 50.9616 10.0728 51.0722 10.1389L51.203 10.1844L51.0267 10.4492C50.7612 10.9373 50.8061 10.9373 51.3996 10.383C51.4444 10.3168 51.4893 10.3168 51.555 10.3623C51.641 10.4492 51.641 10.4492 51.3996 10.7594C51.2681 10.9579 51.1373 11.1358 51.1126 11.1813C51.0924 11.2682 51.0924 11.2682 51.1784 11.2227C51.2479 11.202 51.3787 11.0448 51.555 10.9124C51.8616 10.6022 51.8824 10.6022 51.9071 10.6725C51.9273 10.6725 51.8369 10.8463 51.7061 11.0448C51.3136 11.5784 51.3541 11.6446 51.7718 11.2227C51.9071 11.0903 52.0581 10.9786 52.0581 11.0034Z" fill="#00AC8B"/>
<path d="M32.0079 28.8107C32.6217 28.8107 32.9982 29.1416 32.9982 29.6504C32.9982 30.1592 32.6217 30.4901 32.0079 30.4901H31.5905V31.7269H31.1077V28.8107H32.0079ZM31.5701 29.2285V30.093H32.0079C32.2944 30.093 32.4703 29.9358 32.4703 29.6504C32.4703 29.3857 32.2944 29.2285 32.0079 29.2285H31.5701ZM36.4028 30.2709C36.4028 31.1105 35.7849 31.8179 34.8642 31.8179C33.9639 31.8179 33.3256 31.1105 33.3256 30.2709C33.3256 29.427 33.9394 28.7197 34.8642 28.7197C35.7644 28.7445 36.4028 29.4519 36.4028 30.2709ZM35.8954 30.2709C35.8954 29.6504 35.4576 29.183 34.8642 29.183C34.2504 29.183 33.833 29.6711 33.833 30.2709C33.833 30.8872 34.2708 31.3546 34.8642 31.3546C35.478 31.3753 35.8954 30.8872 35.8954 30.2709ZM38.7967 28.8107H39.2796V30.6018C39.2796 31.3546 38.8376 31.793 38.1379 31.793C37.434 31.793 36.9921 31.3546 36.9921 30.6018V28.8107H37.4545V30.6431C37.4545 31.1105 37.7205 31.3546 38.1379 31.3546C38.5307 31.3546 38.7967 31.0857 38.7967 30.6431V28.8107ZM40.9041 28.8107C41.5179 28.8107 41.8903 29.1416 41.8903 29.6504C41.8903 30.002 41.7143 30.2709 41.432 30.4032L42.3527 31.7269H41.7798L40.9696 30.4901H40.5522V31.7269H40.0898V28.8107H40.9041ZM40.5522 29.2285V30.093H40.9246C41.211 30.093 41.387 29.9358 41.387 29.6504C41.387 29.3857 41.211 29.2285 40.9246 29.2285H40.5522ZM44.3745 28.8107V31.2843H45.5159V31.7269H43.8917V28.8107H44.3745ZM46.9847 28.8107H47.6236L48.7448 31.7269H48.2373L47.9301 30.912H46.6573L46.3508 31.7269H45.8433L46.9847 28.8107ZM47.7791 30.5108L47.2962 29.2533L46.809 30.5108H47.7791ZM33.1496 33.034V33.4765H32.2084V35.9542H31.7215V33.4765H30.8008V33.034H33.1496ZM34.5327 33.034C35.1507 33.034 35.523 33.3649 35.523 33.8736C35.523 34.2294 35.3471 34.4941 35.0606 34.6265L35.9855 35.9542H35.4126L34.5982 34.7133H34.2054V35.9542H33.7429V33.034H34.5327ZM34.2054 33.4559V34.3162H34.5777C34.8642 34.3162 35.0402 34.1632 35.0402 33.8736C35.0402 33.6089 34.8642 33.4559 34.5777 33.4559H34.2054ZM37.3031 33.034H37.9373L39.0586 35.9542H38.5552L38.2443 35.1352H36.9716L36.6647 35.9542H36.1614L37.3031 33.034ZM37.61 33.4765L37.1271 34.7381H38.0929L37.61 33.4765ZM40.2207 33.034L41.7143 35.3338V33.034H42.1972V35.9542H41.5834L40.0898 33.6544V35.9542H39.6274V33.034H40.2207ZM43.1668 35.2221C43.3387 35.4661 43.5845 35.5985 43.8461 35.5985C44.1331 35.5985 44.2841 35.4206 44.2841 35.2014C44.2841 34.6265 42.9256 34.7133 42.9256 33.762C42.9256 33.3194 43.2736 32.9471 43.8013 32.9471C44.2184 32.9471 44.5255 33.1456 44.767 33.431L44.4149 33.7413C44.243 33.4972 44.0427 33.3649 43.8013 33.3649C43.5599 33.3649 43.4082 33.522 43.4082 33.7413C43.4082 34.3162 44.767 34.2294 44.767 35.1807C44.767 35.6895 44.3745 36.0204 43.8461 36.0204C43.3842 36.0204 43.077 35.8425 42.8151 35.5323L43.1668 35.2221ZM45.4912 33.034H45.9539V35.9542H45.4912V33.034ZM48.8958 33.034V33.4765H47.975V35.9542H47.4922V33.4765H46.5675V33.034H48.8958ZM49.4893 33.034H49.9519V35.9542H49.4893V33.034ZM53.663 34.4941C53.663 35.3338 53.0493 36.0411 52.1247 36.0411C51.2241 36.0411 50.5902 35.3338 50.5902 34.4941C50.5902 33.6544 51.2039 32.9471 52.1247 32.9471C53.0493 32.9471 53.663 33.6544 53.663 34.4941ZM53.1555 34.4941C53.1555 33.8736 52.7182 33.4104 52.1247 33.4104C51.511 33.4104 51.0933 33.8985 51.0933 34.4941C51.0933 35.1145 51.5313 35.5778 52.1247 35.5778C52.7384 35.5778 53.1555 35.1145 53.1555 34.4941ZM54.9156 33.034L56.409 35.3338V33.034H56.8919V35.9542H56.2782L54.7842 33.6544V35.9542H54.3222V33.034H54.9156ZM31.1077 37.2572H32.7322V37.6791H31.5905V38.4981H32.5562V38.9159H31.5905V39.7804H32.7322V40.2023H31.1077V37.2572ZM31.701 36.9925L32.1634 36.4382H32.6668L32.1389 36.9925H31.701ZM35.523 39.3585L35.8954 39.648C35.6335 39.9996 35.1915 40.2436 34.6678 40.2436C33.7675 40.2436 33.1291 39.5363 33.1291 38.6966C33.1291 37.857 33.7429 37.1496 34.6678 37.1496C35.1915 37.1496 35.609 37.3895 35.8954 37.7453L35.523 38.0348C35.4311 37.8969 35.3067 37.7842 35.161 37.707C35.0152 37.6297 34.8528 37.5903 34.6882 37.5922C34.0744 37.5922 33.657 38.0762 33.657 38.676C33.657 39.2923 34.0949 39.7597 34.6882 39.7597C35.0402 39.801 35.3471 39.6273 35.523 39.3585ZM39.2796 38.7173C39.2796 39.557 38.6617 40.2685 37.741 40.2685C36.8407 40.2685 36.2023 39.557 36.2023 38.7173C36.2023 37.8776 36.8202 37.1703 37.741 37.1703C38.6617 37.1703 39.2796 37.8776 39.2796 38.7173ZM38.7967 38.7173C38.7967 38.101 38.3548 37.6336 37.7614 37.6336C37.1476 37.6336 36.7302 38.1217 36.7302 38.7173C36.7302 39.3378 37.1681 39.801 37.7614 39.801C38.3548 39.801 38.7967 39.3171 38.7967 38.7173ZM40.3967 37.2572V39.7349H41.5384V40.1775H39.9138V37.2572H40.3967ZM44.8118 38.7173C44.8118 39.557 44.1982 40.2685 43.2736 40.2685C42.3731 40.2685 41.7389 39.557 41.7389 38.7173C41.7389 37.8776 42.3527 37.1703 43.2736 37.1703C44.1982 37.1703 44.8118 37.8776 44.8118 38.7173ZM44.329 38.7173C44.329 38.101 43.8917 37.6336 43.2982 37.6336C42.6801 37.6336 42.2668 38.1217 42.2668 38.7173C42.2668 39.3378 42.7046 39.801 43.2982 39.801C43.8917 39.801 44.329 39.3171 44.329 38.7173ZM47.6438 39.4701V38.8952H46.8538V38.4526H48.1267V39.648C47.865 39.9996 47.4024 40.2436 46.8538 40.2436C45.909 40.2436 45.2947 39.5363 45.2947 38.6966C45.2947 37.857 45.909 37.1496 46.8336 37.1496C47.3613 37.1496 47.7791 37.3895 48.061 37.7453L47.6887 38.0348C47.5971 37.8969 47.4726 37.7842 47.3266 37.707C47.1812 37.6297 47.0188 37.5903 46.8538 37.5922C46.2402 37.5922 45.823 38.0762 45.823 38.676C45.823 39.2923 46.285 39.7597 46.8987 39.7597C47.1856 39.801 47.4473 39.6687 47.6438 39.4701ZM48.8548 37.2572H49.3136V40.1775H48.8548V37.2572ZM53.4671 40.4215V40.8186C53.3767 40.8434 53.2908 40.8641 53.1802 40.8641C52.8939 40.8641 52.5867 40.7524 52.3004 40.4877L51.9484 40.1775C51.7973 40.223 51.6621 40.2436 51.4902 40.2436C50.5902 40.2436 49.9519 39.5363 49.9519 38.6966C49.9519 37.857 50.5656 37.1496 51.4902 37.1496C52.3908 37.1496 53.0247 37.857 53.0247 38.6966C53.0247 39.2054 52.7833 39.6687 52.411 39.9582L52.6322 40.1568C52.8736 40.376 53.0702 40.4422 53.2661 40.4422C53.3318 40.4422 53.4216 40.4422 53.4671 40.4215ZM52.5418 38.7173C52.5418 38.101 52.1039 37.6336 51.511 37.6336C50.8967 37.6336 50.4796 38.1217 50.4796 38.7173C50.4796 39.3378 50.9176 39.801 51.511 39.801C52.1039 39.801 52.5418 39.3171 52.5418 38.7173ZM55.9262 37.2572V39.0482C55.9262 39.801 55.4844 40.2436 54.7842 40.2436C54.0808 40.2436 53.6428 39.801 53.6428 39.0482V37.2572H54.101V39.0937C54.101 39.557 54.3671 39.801 54.7842 39.801C55.1773 39.801 55.4433 39.5363 55.4433 39.0937V37.2572H55.9262ZM56.7162 37.2572H58.3404V37.6791H57.199V38.4981H58.185V38.9159H57.199V39.7804H58.3404V40.2023H56.7162V37.2572Z" fill="#000091"/>
</g>
</svg>
