<svg width="56" height="56" viewBox="0 0 56 56" fill="none" xmlns="http://www.w3.org/2000/svg">
<path d="M42 35.4667C45.6015 35.4667 48.5334 38.3987 48.5334 42C48.5334 45.6015 45.6015 48.5334 42 48.5334C38.3986 48.5334 35.4667 45.6015 35.4667 42C35.4667 38.3987 38.3986 35.4667 42 35.4667ZM42 28C34.2671 28 28 34.2671 28 42C28 49.7331 34.2671 56 42 56C49.733 56 56 49.7331 56 42C56 34.2671 49.733 28 42 28Z" fill="#00BE8C"/>
<path d="M42 7.46667C45.6015 7.46667 48.5334 10.3986 48.5334 14C48.5334 17.6014 45.6015 20.5333 42 20.5333C38.3986 20.5333 35.4667 17.6014 35.4667 14C35.4667 10.3986 38.3986 7.46667 42 7.46667ZM42 0C34.2671 0 28 6.26703 28 14C28 21.733 34.2671 28 42 28C49.733 28 56 21.733 56 14C56 6.26703 49.733 0 42 0Z" fill="#FAD214"/>
<path opacity="0.6" d="M46.6168 18.617C45.4345 19.7993 43.7993 20.5334 41.9999 20.5334C40.198 20.5334 38.5652 19.8017 37.383 18.617L32.1016 23.8985C34.6353 26.4321 38.1346 28.0001 41.9999 28.0001C45.8652 28.0001 49.367 26.4321 51.8982 23.8985L46.6168 18.617Z" fill="url(#paint0_linear_9071_98381)"/>
<path opacity="0.6" d="M37.383 37.3832C38.5652 36.2009 40.2004 35.4667 41.9999 35.4667C43.8018 35.4667 45.4345 36.1984 46.6168 37.3832L51.8982 32.1017C49.3645 29.568 45.8652 28 41.9999 28C38.1346 28 34.6328 29.568 32.1016 32.1017L37.383 37.3832Z" fill="url(#paint1_linear_9071_98381)"/>
<path d="M14 35.4667C17.6015 35.4667 20.5334 38.3987 20.5334 42C20.5334 45.6015 17.6015 48.5334 14 48.5334C10.3986 48.5334 7.46667 45.6015 7.46667 42C7.46667 38.3987 10.3986 35.4667 14 35.4667ZM14 28C6.26706 28 0 34.2671 0 42C0 49.7331 6.26706 56 14 56C21.733 56 28 49.7331 28 42C28 34.2671 21.733 28 14 28Z" fill="#646EFA"/>
<path d="M14 7.46667C17.6015 7.46667 20.5334 10.3986 20.5334 14C20.5334 17.6014 17.6015 20.5333 14 20.5333C10.3986 20.5333 7.46667 17.6014 7.46667 14C7.46667 10.3986 10.3986 7.46667 14 7.46667ZM14 0C6.26706 0 0 6.26703 0 14C0 21.733 6.26706 28 14 28C21.733 28 28 21.733 28 14C28 6.26703 21.733 0 14 0Z" fill="#FFA07D"/>
<path opacity="0.6" d="M18.6162 9.38332C19.7984 10.5655 20.5326 12.2007 20.5326 14.0001C20.5326 15.8021 19.8009 17.4348 18.6162 18.6171L23.8976 23.8985C26.4313 21.3648 27.9993 17.8655 27.9993 14.0001C27.9993 10.1349 26.4313 6.63307 23.8976 4.10187L18.6162 9.38332Z" fill="url(#paint2_linear_9071_98381)"/>
<path opacity="0.6" d="M37.3831 18.6171C36.2008 17.4348 35.4667 15.7996 35.4667 14.0001C35.4667 12.1983 36.1984 10.5655 37.3831 9.38332L32.1016 4.10187C29.568 6.63307 28 10.1349 28 14.0001C28 17.8655 29.568 21.3673 32.1016 23.8985L37.3831 18.6171Z" fill="url(#paint3_linear_9071_98381)"/>
<path opacity="0.6" d="M18.6162 37.3833C19.7984 38.5655 20.5326 40.2007 20.5326 42.0002C20.5326 43.8021 19.8009 45.4348 18.6162 46.6171L23.8976 51.8985C26.4313 49.3648 27.9993 45.8655 27.9993 42.0002C27.9993 38.1349 26.4313 34.6331 23.8976 32.1019L18.6162 37.3833Z" fill="url(#paint4_linear_9071_98381)"/>
<path opacity="0.6" d="M37.3831 46.6171C36.2008 45.4348 35.4667 43.7996 35.4667 42.0002C35.4667 40.1983 36.1984 38.5655 37.3831 37.3833L32.1016 32.1019C29.568 34.6356 28 38.1349 28 42.0002C28 45.8655 29.568 49.3673 32.1016 51.8985L37.3831 46.6171Z" fill="url(#paint5_linear_9071_98381)"/>
<path opacity="0.6" d="M18.6168 18.617C17.4346 19.7993 15.7994 20.5334 13.9999 20.5334C12.198 20.5334 10.5652 19.8017 9.38302 18.617L4.10156 23.8985C6.63529 26.4321 10.1346 28.0001 13.9999 28.0001C17.8652 28.0001 21.367 26.4321 23.8982 23.8985L18.6168 18.617Z" fill="url(#paint6_linear_9071_98381)"/>
<path opacity="0.6" d="M9.38302 37.3832C10.5652 36.2009 12.2004 35.4667 13.9999 35.4667C15.8018 35.4667 17.4346 36.1984 18.6168 37.3832L23.8982 32.1017C21.367 29.568 17.8652 28 13.9999 28C10.1346 28 6.63277 29.568 4.10156 32.1017L9.38302 37.3832Z" fill="url(#paint7_linear_9071_98381)"/>
<path d="M20.9856 38.2094C20.0771 38.2094 19.1687 37.8809 18.4494 37.2139L4.47427 24.2642C2.96105 22.863 2.87146 20.501 4.27267 18.9878C5.67388 17.4745 8.03587 17.3849 9.54909 18.7862L23.5243 31.7358C25.0375 33.1371 25.1271 35.499 23.7259 37.0123C22.9891 37.8062 21.9886 38.2094 20.9856 38.2094Z" fill="url(#paint8_linear_9071_98381)"/>
<path d="M21.5241 24.7222C20.6157 24.7222 19.7073 24.3936 18.9879 23.7266C17.4747 22.3254 17.3851 19.9634 18.7863 18.4502L31.7361 4.47502C33.1373 2.96178 35.4993 2.87218 37.0125 4.27342C38.5257 5.67467 38.6153 8.03663 37.2141 9.54989L24.2644 23.525C23.5277 24.319 22.5271 24.7222 21.5241 24.7222Z" fill="url(#paint9_linear_9071_98381)"/>
<path d="M21.5241 52.7222C20.6157 52.7222 19.7073 52.3937 18.9879 51.7266C17.4747 50.3254 17.3851 47.9634 18.7863 46.4502L31.7361 32.475C33.1373 30.9618 35.4993 30.8722 37.0125 32.2735C38.5257 33.6747 38.6153 36.0367 37.2141 37.5499L24.2644 51.525C23.5277 52.319 22.5271 52.7222 21.5241 52.7222Z" fill="url(#paint10_linear_9071_98381)"/>
<path d="M48.986 38.2094C48.0776 38.2094 47.1692 37.8809 46.4499 37.2139L32.4748 24.2642C30.9615 22.863 30.8719 20.501 32.2732 18.9878C33.6744 17.4745 36.0364 17.3849 37.5496 18.7862L51.5247 31.7358C53.038 33.1371 53.1276 35.499 51.7263 37.0123C50.9896 37.8062 49.9891 38.2094 48.986 38.2094Z" fill="url(#paint11_linear_9071_98381)"/>
<defs>
<linearGradient id="paint0_linear_9071_98381" x1="32.1003" y1="23.3089" x2="51.8994" y2="23.3089" gradientUnits="userSpaceOnUse">
<stop offset="0.2" stop-color="#FF963C"/>
<stop offset="0.8" stop-color="#FF963C" stop-opacity="0"/>
</linearGradient>
<linearGradient id="paint1_linear_9071_98381" x1="51.8995" y1="32.6912" x2="32.1004" y2="32.6912" gradientUnits="userSpaceOnUse">
<stop stop-color="#149B64"/>
<stop offset="0.7" stop-color="#149B64" stop-opacity="0"/>
</linearGradient>
<linearGradient id="paint2_linear_9071_98381" x1="23.3081" y1="23.8997" x2="23.3081" y2="4.10072" gradientUnits="userSpaceOnUse">
<stop offset="0.2" stop-color="#FF8C7D"/>
<stop offset="0.8" stop-color="#FF8C7D" stop-opacity="0"/>
</linearGradient>
<linearGradient id="paint3_linear_9071_98381" x1="32.6912" y1="4.10065" x2="32.6912" y2="23.8997" gradientUnits="userSpaceOnUse">
<stop stop-color="#FF963C"/>
<stop offset="0.7" stop-color="#FF963C" stop-opacity="0"/>
</linearGradient>
<linearGradient id="paint4_linear_9071_98381" x1="23.3081" y1="51.8998" x2="23.3081" y2="32.1007" gradientUnits="userSpaceOnUse">
<stop stop-color="#646EFA"/>
<stop offset="0.7009" stop-color="#646EFA" stop-opacity="0"/>
</linearGradient>
<linearGradient id="paint5_linear_9071_98381" x1="32.6912" y1="32.1007" x2="32.6912" y2="51.8997" gradientUnits="userSpaceOnUse">
<stop offset="0.2" stop-color="#149B64"/>
<stop offset="0.8" stop-color="#149B64" stop-opacity="0"/>
</linearGradient>
<linearGradient id="paint6_linear_9071_98381" x1="4.10035" y1="23.3089" x2="23.8994" y2="23.3089" gradientUnits="userSpaceOnUse">
<stop offset="0.2" stop-color="#FF8C7D"/>
<stop offset="0.7" stop-color="#FF8C7D" stop-opacity="0"/>
</linearGradient>
<linearGradient id="paint7_linear_9071_98381" x1="23.8994" y1="32.6912" x2="4.10044" y2="32.6912" gradientUnits="userSpaceOnUse">
<stop offset="0.2" stop-color="#646EFA"/>
<stop offset="0.8" stop-color="#646EFA" stop-opacity="0"/>
</linearGradient>
<linearGradient id="paint8_linear_9071_98381" x1="23.3706" y1="37.3714" x2="4.62799" y2="18.6287" gradientUnits="userSpaceOnUse">
<stop offset="0.2" stop-color="#646EFA"/>
<stop offset="0.8" stop-color="#FFA07D"/>
</linearGradient>
<linearGradient id="paint9_linear_9071_98381" x1="37.3716" y1="4.62876" x2="18.629" y2="23.3713" gradientUnits="userSpaceOnUse">
<stop offset="0.2" stop-color="#FAD214"/>
<stop offset="0.8" stop-color="#FFA07D"/>
</linearGradient>
<linearGradient id="paint10_linear_9071_98381" x1="37.3716" y1="32.6288" x2="18.629" y2="51.3713" gradientUnits="userSpaceOnUse">
<stop offset="0.2" stop-color="#00BE8C"/>
<stop offset="0.8" stop-color="#646EFA"/>
</linearGradient>
<linearGradient id="paint11_linear_9071_98381" x1="51.371" y1="37.3714" x2="32.6284" y2="18.6287" gradientUnits="userSpaceOnUse">
<stop offset="0.2" stop-color="#00BE8C"/>
<stop offset="0.8" stop-color="#FAD214"/>
</linearGradient>
</defs>
</svg>
