<svg width="309" height="60" viewBox="0 0 309 60" fill="none" xmlns="http://www.w3.org/2000/svg">
<path d="M62.1882 37.201C65.6512 37.201 68.4703 40.0283 68.4703 43.501C68.4703 46.9739 65.6512 49.801 62.1882 49.801C58.7252 49.801 55.9061 46.9739 55.9061 43.501C55.9061 40.0283 58.7252 37.201 62.1882 37.201ZM62.1882 30.001C54.7526 30.001 48.7266 36.0443 48.7266 43.501C48.7266 50.9579 54.7526 57.001 62.1882 57.001C69.6238 57.001 75.6498 50.9579 75.6498 43.501C75.6498 36.0443 69.6238 30.001 62.1882 30.001Z" fill="#00BE8C"/>
<path d="M62.1882 10.201C65.6512 10.201 68.4703 13.0282 68.4703 16.501C68.4703 19.9738 65.6512 22.801 62.1882 22.801C58.7252 22.801 55.9061 19.9738 55.9061 16.501C55.9061 13.0282 58.7252 10.201 62.1882 10.201ZM62.1882 3.00098C54.7526 3.00098 48.7266 9.04418 48.7266 16.501C48.7266 23.9578 54.7526 30.001 62.1882 30.001C69.6238 30.001 75.6498 23.9578 75.6498 16.501C75.6498 9.04418 69.6238 3.00098 62.1882 3.00098Z" fill="#FAD214"/>
<path opacity="0.6" d="M66.6289 20.9531C65.4921 22.0931 63.9198 22.8011 62.1896 22.8011C60.457 22.8011 58.887 22.0955 57.7503 20.9531L52.6719 26.0459C55.1082 28.4891 58.473 30.0011 62.1896 30.0011C65.9062 30.0011 69.2734 28.4891 71.7073 26.0459L66.6289 20.9531Z" fill="url(#paint0_linear_9388_475749)"/>
<path opacity="0.6" d="M57.7503 39.0491C58.887 37.9091 60.4593 37.201 62.1896 37.201C63.9222 37.201 65.4921 37.9066 66.6289 39.0491L71.7073 33.9563C69.271 31.513 65.9062 30.001 62.1896 30.001C58.473 30.001 55.1058 31.513 52.6719 33.9563L57.7503 39.0491Z" fill="url(#paint1_linear_9388_475749)"/>
<path d="M35.2664 37.201C38.7293 37.201 41.5485 40.0283 41.5485 43.501C41.5485 46.9739 38.7293 49.801 35.2664 49.801C31.8034 49.801 28.9843 46.9739 28.9843 43.501C28.9843 40.0283 31.8034 37.201 35.2664 37.201ZM35.2664 30.001C27.8308 30.001 21.8047 36.0443 21.8047 43.501C21.8047 50.9579 27.8308 57.001 35.2664 57.001C42.7019 57.001 48.728 50.9579 48.728 43.501C48.728 36.0443 42.7019 30.001 35.2664 30.001Z" fill="#646EFA"/>
<path d="M35.2664 10.201C38.7293 10.201 41.5485 13.0282 41.5485 16.501C41.5485 19.9738 38.7293 22.801 35.2664 22.801C31.8034 22.801 28.9843 19.9738 28.9843 16.501C28.9843 13.0282 31.8034 10.201 35.2664 10.201ZM35.2664 3.00098C27.8308 3.00098 21.8047 9.04418 21.8047 16.501C21.8047 23.9578 27.8308 30.001 35.2664 30.001C42.7019 30.001 48.728 23.9578 48.728 16.501C48.728 9.04418 42.7019 3.00098 35.2664 3.00098Z" fill="#FFA07D"/>
<path opacity="0.6" d="M39.7031 12.0489C40.8398 13.1889 41.5458 14.7657 41.5458 16.5009C41.5458 18.2385 40.8422 19.8129 39.7031 20.9529L44.7814 26.0457C47.2177 23.6025 48.7254 20.2281 48.7254 16.5009C48.7254 12.7737 47.2177 9.39685 44.7814 6.95605L39.7031 12.0489Z" fill="url(#paint2_linear_9388_475749)"/>
<path opacity="0.6" d="M57.7488 20.9529C56.612 19.8129 55.9061 18.2361 55.9061 16.5009C55.9061 14.7633 56.6097 13.1889 57.7488 12.0489L52.6705 6.95605C50.2343 9.39685 48.7266 12.7737 48.7266 16.5009C48.7266 20.2281 50.2343 23.6049 52.6705 26.0457L57.7488 20.9529Z" fill="url(#paint3_linear_9388_475749)"/>
<path opacity="0.6" d="M39.7031 39.0489C40.8398 40.1889 41.5458 41.7657 41.5458 43.5009C41.5458 45.2385 40.8422 46.8129 39.7031 47.9529L44.7814 53.0457C47.2177 50.6025 48.7254 47.2281 48.7254 43.5009C48.7254 39.7737 47.2177 36.3969 44.7814 33.9561L39.7031 39.0489Z" fill="url(#paint4_linear_9388_475749)"/>
<path opacity="0.6" d="M57.7488 47.9529C56.612 46.8129 55.9061 45.2361 55.9061 43.5009C55.9061 41.7633 56.6097 40.1889 57.7488 39.0489L52.6705 33.9561C50.2343 36.3993 48.7266 39.7737 48.7266 43.5009C48.7266 47.2281 50.2343 50.6049 52.6705 53.0457L57.7488 47.9529Z" fill="url(#paint5_linear_9388_475749)"/>
<path opacity="0.6" d="M39.707 20.9531C38.5703 22.0931 36.998 22.8011 35.2677 22.8011C33.535 22.8011 31.965 22.0955 30.8283 20.9531L25.75 26.0459C28.1862 28.4891 31.551 30.0011 35.2677 30.0011C38.9843 30.0011 42.3515 28.4891 44.7854 26.0459L39.707 20.9531Z" fill="url(#paint6_linear_9388_475749)"/>
<path opacity="0.6" d="M30.8283 39.0491C31.965 37.9091 33.5373 37.201 35.2677 37.201C37.0003 37.201 38.5703 37.9066 39.707 39.0491L44.7854 33.9563C42.3515 31.513 38.9843 30.001 35.2677 30.001C31.551 30.001 28.1838 31.513 25.75 33.9563L30.8283 39.0491Z" fill="url(#paint7_linear_9388_475749)"/>
<path d="M41.98 39.8461C41.1064 39.8461 40.2329 39.5293 39.5413 38.8862L26.1036 26.399C24.6486 25.0478 24.5624 22.7702 25.9097 21.311C27.2571 19.8517 29.5282 19.7653 30.9833 21.1166L44.421 33.6037C45.8761 34.955 45.9622 37.2325 44.6149 38.6918C43.9064 39.4573 42.9444 39.8461 41.98 39.8461Z" fill="url(#paint8_linear_9388_475749)"/>
<path d="M42.5031 26.8399C41.6296 26.8399 40.7561 26.5231 40.0645 25.8798C38.6094 24.5287 38.5233 22.251 39.8706 20.7919L52.3224 7.31584C53.6697 5.85664 55.9409 5.77024 57.3959 7.12144C58.8509 8.47264 58.9371 10.7502 57.5897 12.2095L45.138 25.6854C44.4296 26.4511 43.4676 26.8399 42.5031 26.8399Z" fill="url(#paint9_linear_9388_475749)"/>
<path d="M42.5031 53.8398C41.6296 53.8398 40.7561 53.523 40.0645 52.8798C38.6094 51.5286 38.5233 49.251 39.8706 47.7918L52.3224 34.3158C53.6697 32.8567 55.9409 32.7702 57.3959 34.1214C58.8509 35.4726 58.9371 37.7502 57.5897 39.2094L45.138 52.6854C44.4296 53.451 43.4676 53.8398 42.5031 53.8398Z" fill="url(#paint10_linear_9388_475749)"/>
<path d="M68.9095 39.8461C68.036 39.8461 67.1626 39.5293 66.4709 38.8862L53.0332 26.399C51.5782 25.0478 51.492 22.7702 52.8394 21.311C54.1867 19.8517 56.4579 19.7653 57.9129 21.1166L71.3506 33.6037C72.8057 34.955 72.8918 37.2325 71.5444 38.6918C70.8361 39.4573 69.874 39.8461 68.9095 39.8461Z" fill="url(#paint11_linear_9388_475749)"/>
<path d="M86.6172 14.5808V12.0008H98.0972V14.5808H93.7772V26.0008H90.9372V14.5808H86.6172ZM98.943 26.0008V15.9208H101.483V16.9208C102.143 16.2408 103.003 15.7208 104.143 15.7208C104.483 15.7208 104.783 15.7808 105.023 15.8608V18.3608C104.703 18.2808 104.363 18.2208 103.903 18.2208C102.663 18.2208 101.863 18.9008 101.483 19.5408V26.0008H98.943ZM109.42 26.3008C107.4 26.3008 106.02 25.1408 106.02 23.2808C106.02 21.7608 107.2 20.6208 109.36 20.2608L112.44 19.7408V19.4808C112.44 18.4208 111.64 17.7408 110.48 17.7408C109.5 17.7408 108.74 18.2008 108.2 18.9408L106.34 17.5208C107.24 16.2808 108.72 15.5208 110.56 15.5208C113.48 15.5208 114.98 17.2608 114.98 19.4808V26.0008H112.44V25.0208C111.8 25.8008 110.6 26.3008 109.42 26.3008ZM108.54 23.1608C108.54 23.8408 109.08 24.2808 109.94 24.2808C111.1 24.2808 111.94 23.7408 112.44 22.9408V21.5208L110.04 21.9208C108.98 22.1008 108.54 22.5408 108.54 23.1608ZM117.888 26.0008V15.9208H120.428V16.7208C121.128 16.0408 122.068 15.5208 123.408 15.5208C125.588 15.5208 127.328 17.0208 127.328 20.0008V26.0008H124.768V20.1008C124.768 18.7608 124.008 17.9208 122.768 17.9208C121.488 17.9208 120.808 18.7808 120.428 19.4208V26.0008H117.888ZM129.332 24.5408L131.012 23.0208C131.632 23.8008 132.372 24.3608 133.332 24.3608C134.152 24.3608 134.572 23.8808 134.572 23.2808C134.572 21.5208 129.752 22.1808 129.752 18.6408C129.752 16.8608 131.252 15.5208 133.352 15.5208C134.892 15.5208 136.292 16.2608 137.012 17.2408L135.332 18.7208C134.812 18.0808 134.152 17.5608 133.372 17.5608C132.572 17.5608 132.192 18.0008 132.192 18.5208C132.192 20.2408 137.012 19.6408 137.012 23.1208C136.972 25.2408 135.272 26.4008 133.372 26.4008C131.572 26.4008 130.292 25.6808 129.332 24.5408ZM140.633 14.1608C139.733 14.1608 138.973 13.4008 138.973 12.5008C138.973 11.6008 139.733 10.8408 140.633 10.8408C141.533 10.8408 142.273 11.6008 142.273 12.5008C142.273 13.4008 141.533 14.1608 140.633 14.1608ZM139.353 26.0008V15.9208H141.893V26.0008H139.353ZM145.579 22.3208V18.2008H143.699V15.9208H145.579V13.4008H148.139V15.9208H151.219V18.2008H148.139V22.3208C148.139 23.4408 148.739 23.8808 149.739 23.8808C150.439 23.8808 150.899 23.8008 151.239 23.6608V25.8808C150.739 26.1008 150.139 26.2008 149.299 26.2008C146.779 26.2008 145.579 24.7808 145.579 22.3208ZM154.774 14.1608C153.874 14.1608 153.114 13.4008 153.114 12.5008C153.114 11.6008 153.874 10.8408 154.774 10.8408C155.674 10.8408 156.414 11.6008 156.414 12.5008C156.414 13.4008 155.674 14.1608 154.774 14.1608ZM153.494 26.0008V15.9208H156.034V26.0008H153.494ZM163.88 15.5208C167.16 15.5208 169.4 17.9408 169.4 20.9608C169.4 23.9808 167.16 26.4008 163.88 26.4008C160.6 26.4008 158.36 23.9808 158.36 20.9608C158.36 17.9408 160.6 15.5208 163.88 15.5208ZM163.92 24.0008C165.54 24.0008 166.76 22.7008 166.76 20.9608C166.76 19.2008 165.54 17.9208 163.92 17.9208C162.24 17.9208 161 19.2008 161 20.9608C161 22.7208 162.24 24.0008 163.92 24.0008ZM171.716 26.0008V15.9208H174.256V16.7208C174.956 16.0408 175.896 15.5208 177.236 15.5208C179.416 15.5208 181.156 17.0208 181.156 20.0008V26.0008H178.596V20.1008C178.596 18.7608 177.836 17.9208 176.596 17.9208C175.316 17.9208 174.636 18.7808 174.256 19.4208V26.0008H171.716ZM195.291 14.3208H192.851L194.931 11.0008H197.691L195.291 14.3208ZM198.711 24.3608C197.771 25.6208 196.211 26.4008 194.311 26.4008C190.731 26.4008 188.711 23.9008 188.711 20.9608C188.711 17.9808 190.591 15.5208 193.891 15.5208C196.691 15.5208 198.531 17.4208 198.531 20.0608C198.531 20.6208 198.451 21.1408 198.371 21.4808H191.311C191.551 23.3608 192.711 24.1208 194.291 24.1208C195.391 24.1208 196.351 23.6408 196.891 22.9208L198.711 24.3608ZM193.831 17.6008C192.531 17.6008 191.671 18.3208 191.391 19.6408H196.031C195.991 18.6208 195.251 17.6008 193.831 17.6008ZM205.775 24.0008C206.775 24.0008 207.575 23.5408 208.055 22.8408L210.035 24.3608C209.095 25.6008 207.615 26.4008 205.775 26.4008C202.295 26.4008 200.215 23.9008 200.215 20.9608C200.215 18.0208 202.295 15.5208 205.775 15.5208C207.615 15.5208 209.095 16.3208 210.035 17.5608L208.055 19.0808C207.575 18.3808 206.775 17.9208 205.735 17.9208C204.075 17.9208 202.855 19.2008 202.855 20.9608C202.855 22.7408 204.075 24.0008 205.775 24.0008ZM216.34 15.5208C219.62 15.5208 221.86 17.9408 221.86 20.9608C221.86 23.9808 219.62 26.4008 216.34 26.4008C213.06 26.4008 210.82 23.9808 210.82 20.9608C210.82 17.9408 213.06 15.5208 216.34 15.5208ZM216.38 24.0008C218 24.0008 219.22 22.7008 219.22 20.9608C219.22 19.2008 218 17.9208 216.38 17.9208C214.7 17.9208 213.46 19.2008 213.46 20.9608C213.46 22.7208 214.7 24.0008 216.38 24.0008ZM224.177 26.0008V11.0008H226.717V26.0008H224.177ZM234.563 15.5208C237.843 15.5208 240.083 17.9408 240.083 20.9608C240.083 23.9808 237.843 26.4008 234.563 26.4008C231.283 26.4008 229.043 23.9808 229.043 20.9608C229.043 17.9408 231.283 15.5208 234.563 15.5208ZM234.603 24.0008C236.223 24.0008 237.443 22.7008 237.443 20.9608C237.443 19.2008 236.223 17.9208 234.603 17.9208C232.923 17.9208 231.683 19.2008 231.683 20.9608C231.683 22.7208 232.923 24.0008 234.603 24.0008ZM241.263 27.7608C241.263 26.7608 241.763 25.9608 242.663 25.3008C242.263 24.9008 242.043 24.3608 242.043 23.8408C242.043 23.0408 242.383 22.4008 243.143 21.8408C242.263 21.1808 241.783 20.1808 241.783 19.0608C241.783 17.1008 243.303 15.5208 245.823 15.5208C246.603 15.5208 247.283 15.6608 247.863 15.9208H251.543V18.0808H249.763C249.863 18.4008 249.903 18.7208 249.903 19.0608C249.903 21.0408 248.423 22.6408 245.823 22.6408C245.483 22.6408 245.163 22.6208 244.863 22.5608C244.643 22.7608 244.523 22.9808 244.523 23.2008C244.523 23.6008 244.743 23.8008 245.203 23.8008H247.743C250.283 23.8008 251.663 25.1608 251.663 27.0408C251.663 29.2808 249.523 31.0008 246.383 31.0008C243.163 31.0008 241.263 29.8808 241.263 27.7608ZM245.863 20.7208C246.923 20.7208 247.603 20.0608 247.603 19.0608C247.603 18.0608 246.923 17.4208 245.863 17.4208C244.763 17.4208 244.103 18.0808 244.103 19.0608C244.103 20.0608 244.763 20.7208 245.863 20.7208ZM243.663 27.4008C243.663 28.3608 244.583 28.9608 246.363 28.9608C248.203 28.9608 249.143 28.2808 249.143 27.2808C249.143 26.5208 248.683 25.9808 247.463 25.9808H244.343C243.963 26.3408 243.663 26.7808 243.663 27.4008ZM254.656 14.1608C253.756 14.1608 252.996 13.4008 252.996 12.5008C252.996 11.6008 253.756 10.8408 254.656 10.8408C255.556 10.8408 256.296 11.6008 256.296 12.5008C256.296 13.4008 255.556 14.1608 254.656 14.1608ZM253.376 26.0008V15.9208H255.916V26.0008H253.376ZM258.242 20.9608C258.242 18.0208 260.162 15.5208 263.362 15.5208C264.722 15.5208 265.702 15.9608 266.482 16.7408V15.9208H269.042V30.9208H266.482V25.1808C265.702 25.9608 264.722 26.4008 263.362 26.4008C260.162 26.4008 258.242 23.9008 258.242 20.9608ZM260.882 20.9608C260.882 22.7208 261.982 24.0008 263.702 24.0008C264.882 24.0008 265.862 23.4808 266.482 22.5608V19.3608C265.802 18.4208 264.842 17.9208 263.702 17.9208C261.982 17.9208 260.882 19.2008 260.882 20.9608ZM278.727 21.6408V15.9208H281.287V21.5208C281.287 24.5408 279.527 26.4008 276.567 26.4008C273.607 26.4008 271.867 24.5408 271.867 21.5208V15.9208H274.427V21.6408C274.427 23.1008 275.187 24.0008 276.587 24.0008C277.967 24.0008 278.727 23.1008 278.727 21.6408ZM293.379 24.3608C292.439 25.6208 290.879 26.4008 288.979 26.4008C285.399 26.4008 283.379 23.9008 283.379 20.9608C283.379 17.9808 285.259 15.5208 288.559 15.5208C291.359 15.5208 293.199 17.4208 293.199 20.0608C293.199 20.6208 293.119 21.1408 293.039 21.4808H285.979C286.219 23.3608 287.379 24.1208 288.959 24.1208C290.059 24.1208 291.019 23.6408 291.559 22.9208L293.379 24.3608ZM288.499 17.6008C287.199 17.6008 286.339 18.3208 286.059 19.6408H290.699C290.659 18.6208 289.919 17.6008 288.499 17.6008ZM86.7972 45.9608C86.7972 43.0208 88.7372 40.5208 91.9172 40.5208C93.2772 40.5208 94.2572 40.9408 95.0372 41.7208V36.0008H97.5972V51.0008H95.0372V50.2008C94.2572 50.9808 93.2772 51.4008 91.9172 51.4008C88.7372 51.4008 86.7972 48.9008 86.7972 45.9608ZM89.4572 45.9608C89.4572 47.7208 90.5572 49.0008 92.2772 49.0008C93.4172 49.0008 94.3572 48.5208 95.0372 47.6008V44.3208C94.3572 43.4008 93.4172 42.9208 92.2772 42.9208C90.5572 42.9208 89.4572 44.2008 89.4572 45.9608ZM109.922 49.3608C108.982 50.6208 107.422 51.4008 105.522 51.4008C101.942 51.4008 99.9222 48.9008 99.9222 45.9608C99.9222 42.9808 101.802 40.5208 105.102 40.5208C107.902 40.5208 109.742 42.4208 109.742 45.0608C109.742 45.6208 109.662 46.1408 109.582 46.4808H102.522C102.762 48.3608 103.922 49.1208 105.502 49.1208C106.602 49.1208 107.562 48.6408 108.102 47.9208L109.922 49.3608ZM105.042 42.6008C103.742 42.6008 102.882 43.3208 102.602 44.6408H107.242C107.202 43.6208 106.462 42.6008 105.042 42.6008ZM111.207 49.5408L112.887 48.0208C113.507 48.8008 114.247 49.3608 115.207 49.3608C116.027 49.3608 116.447 48.8808 116.447 48.2808C116.447 46.5208 111.627 47.1808 111.627 43.6408C111.627 41.8608 113.127 40.5208 115.227 40.5208C116.767 40.5208 118.167 41.2608 118.887 42.2408L117.207 43.7208C116.687 43.0808 116.027 42.5608 115.247 42.5608C114.447 42.5608 114.067 43.0008 114.067 43.5208C114.067 45.2408 118.887 44.6408 118.887 48.1208C118.847 50.2408 117.147 51.4008 115.247 51.4008C113.447 51.4008 112.167 50.6808 111.207 49.5408ZM135.899 49.3608C134.959 50.6208 133.399 51.4008 131.499 51.4008C127.919 51.4008 125.899 48.9008 125.899 45.9608C125.899 42.9808 127.779 40.5208 131.079 40.5208C133.879 40.5208 135.719 42.4208 135.719 45.0608C135.719 45.6208 135.639 46.1408 135.559 46.4808H128.499C128.739 48.3608 129.899 49.1208 131.479 49.1208C132.579 49.1208 133.539 48.6408 134.079 47.9208L135.899 49.3608ZM131.019 42.6008C129.719 42.6008 128.859 43.3208 128.579 44.6408H133.219C133.179 43.6208 132.439 42.6008 131.019 42.6008ZM138.201 51.0008V40.9208H140.741V41.7208C141.441 41.0408 142.381 40.5208 143.721 40.5208C145.901 40.5208 147.641 42.0208 147.641 45.0008V51.0008H145.081V45.1008C145.081 43.7608 144.321 42.9208 143.081 42.9208C141.801 42.9208 141.121 43.7808 140.741 44.4208V51.0008H138.201ZM151.165 47.3208V43.2008H149.285V40.9208H151.165V38.4008H153.725V40.9208H156.805V43.2008H153.725V47.3208C153.725 48.4408 154.325 48.8808 155.325 48.8808C156.025 48.8808 156.485 48.8008 156.825 48.6608V50.8808C156.325 51.1008 155.725 51.2008 154.885 51.2008C152.365 51.2008 151.165 49.7808 151.165 47.3208ZM159.08 51.0008V40.9208H161.62V41.9208C162.28 41.2408 163.14 40.7208 164.28 40.7208C164.62 40.7208 164.92 40.7808 165.16 40.8608V43.3608C164.84 43.2808 164.5 43.2208 164.04 43.2208C162.8 43.2208 162 43.9008 161.62 44.5408V51.0008H159.08ZM176.055 49.3608C175.115 50.6208 173.555 51.4008 171.655 51.4008C168.075 51.4008 166.055 48.9008 166.055 45.9608C166.055 42.9808 167.935 40.5208 171.235 40.5208C174.035 40.5208 175.875 42.4208 175.875 45.0608C175.875 45.6208 175.795 46.1408 175.715 46.4808H168.655C168.895 48.3608 170.055 49.1208 171.635 49.1208C172.735 49.1208 173.695 48.6408 174.235 47.9208L176.055 49.3608ZM171.175 42.6008C169.875 42.6008 169.015 43.3208 168.735 44.6408H173.375C173.335 43.6208 172.595 42.6008 171.175 42.6008ZM178.357 55.9208V40.9208H180.897V41.7408C181.677 40.9608 182.657 40.5208 184.037 40.5208C187.237 40.5208 189.157 43.0208 189.157 45.9608C189.157 48.9008 187.237 51.4008 184.037 51.4008C182.657 51.4008 181.677 50.9608 180.897 50.1808V55.9208H178.357ZM183.677 42.9208C182.497 42.9208 181.537 43.4408 180.897 44.3808V47.5408C181.577 48.5008 182.517 49.0008 183.677 49.0008C185.397 49.0008 186.517 47.7208 186.517 45.9608C186.517 44.2008 185.397 42.9208 183.677 42.9208ZM191.482 51.0008V40.9208H194.022V41.9208C194.682 41.2408 195.542 40.7208 196.682 40.7208C197.022 40.7208 197.322 40.7808 197.562 40.8608V43.3608C197.242 43.2808 196.902 43.2208 196.442 43.2208C195.202 43.2208 194.402 43.9008 194.022 44.5408V51.0008H191.482ZM200.887 39.1608C199.987 39.1608 199.227 38.4008 199.227 37.5008C199.227 36.6008 199.987 35.8408 200.887 35.8408C201.787 35.8408 202.527 36.6008 202.527 37.5008C202.527 38.4008 201.787 39.1608 200.887 39.1608ZM199.607 51.0008V40.9208H202.147V51.0008H199.607ZM204.176 49.5408L205.856 48.0208C206.476 48.8008 207.216 49.3608 208.176 49.3608C208.996 49.3608 209.416 48.8808 209.416 48.2808C209.416 46.5208 204.596 47.1808 204.596 43.6408C204.596 41.8608 206.096 40.5208 208.196 40.5208C209.736 40.5208 211.136 41.2608 211.856 42.2408L210.176 43.7208C209.656 43.0808 208.996 42.5608 208.216 42.5608C207.416 42.5608 207.036 43.0008 207.036 43.5208C207.036 45.2408 211.856 44.6408 211.856 48.1208C211.816 50.2408 210.116 51.4008 208.216 51.4008C206.416 51.4008 205.136 50.6808 204.176 49.5408ZM223.438 49.3608C222.498 50.6208 220.938 51.4008 219.038 51.4008C215.458 51.4008 213.438 48.9008 213.438 45.9608C213.438 42.9808 215.318 40.5208 218.618 40.5208C221.418 40.5208 223.258 42.4208 223.258 45.0608C223.258 45.6208 223.178 46.1408 223.098 46.4808H216.038C216.278 48.3608 217.438 49.1208 219.018 49.1208C220.118 49.1208 221.078 48.6408 221.618 47.9208L223.438 49.3608ZM218.558 42.6008C217.258 42.6008 216.398 43.3208 216.118 44.6408H220.758C220.718 43.6208 219.978 42.6008 218.558 42.6008ZM224.723 49.5408L226.403 48.0208C227.023 48.8008 227.763 49.3608 228.723 49.3608C229.543 49.3608 229.963 48.8808 229.963 48.2808C229.963 46.5208 225.143 47.1808 225.143 43.6408C225.143 41.8608 226.643 40.5208 228.743 40.5208C230.283 40.5208 231.683 41.2608 232.403 42.2408L230.723 43.7208C230.203 43.0808 229.543 42.5608 228.763 42.5608C227.963 42.5608 227.583 43.0008 227.583 43.5208C227.583 45.2408 232.403 44.6408 232.403 48.1208C232.363 50.2408 230.663 51.4008 228.763 51.4008C226.963 51.4008 225.683 50.6808 224.723 49.5408Z" fill="#161616"/>
<defs>
<linearGradient id="paint0_linear_9388_475749" x1="52.6707" y1="25.4774" x2="71.7084" y2="25.4774" gradientUnits="userSpaceOnUse">
<stop offset="0.2" stop-color="#FF963C"/>
<stop offset="0.8" stop-color="#FF963C" stop-opacity="0"/>
</linearGradient>
<linearGradient id="paint1_linear_9388_475749" x1="71.7085" y1="34.5247" x2="52.6708" y2="34.5247" gradientUnits="userSpaceOnUse">
<stop stop-color="#149B64"/>
<stop offset="0.7" stop-color="#149B64" stop-opacity="0"/>
</linearGradient>
<linearGradient id="paint2_linear_9388_475749" x1="44.2145" y1="26.0469" x2="44.2145" y2="6.95495" gradientUnits="userSpaceOnUse">
<stop offset="0.2" stop-color="#FF8C7D"/>
<stop offset="0.8" stop-color="#FF8C7D" stop-opacity="0"/>
</linearGradient>
<linearGradient id="paint3_linear_9388_475749" x1="53.2374" y1="6.95487" x2="53.2374" y2="26.0468" gradientUnits="userSpaceOnUse">
<stop stop-color="#FF963C"/>
<stop offset="0.7" stop-color="#FF963C" stop-opacity="0"/>
</linearGradient>
<linearGradient id="paint4_linear_9388_475749" x1="44.2145" y1="53.0469" x2="44.2145" y2="33.955" gradientUnits="userSpaceOnUse">
<stop stop-color="#646EFA"/>
<stop offset="0.7009" stop-color="#646EFA" stop-opacity="0"/>
</linearGradient>
<linearGradient id="paint5_linear_9388_475749" x1="53.2374" y1="33.9549" x2="53.2374" y2="53.0468" gradientUnits="userSpaceOnUse">
<stop offset="0.2" stop-color="#149B64"/>
<stop offset="0.8" stop-color="#149B64" stop-opacity="0"/>
</linearGradient>
<linearGradient id="paint6_linear_9388_475749" x1="25.7488" y1="25.4774" x2="44.7864" y2="25.4774" gradientUnits="userSpaceOnUse">
<stop offset="0.2" stop-color="#FF8C7D"/>
<stop offset="0.7" stop-color="#FF8C7D" stop-opacity="0"/>
</linearGradient>
<linearGradient id="paint7_linear_9388_475749" x1="44.7865" y1="34.5247" x2="25.7489" y2="34.5247" gradientUnits="userSpaceOnUse">
<stop offset="0.2" stop-color="#646EFA"/>
<stop offset="0.8" stop-color="#646EFA" stop-opacity="0"/>
</linearGradient>
<linearGradient id="paint8_linear_9388_475749" x1="44.2732" y1="39.038" x2="26.2001" y2="21.0162" gradientUnits="userSpaceOnUse">
<stop offset="0.2" stop-color="#646EFA"/>
<stop offset="0.8" stop-color="#FFA07D"/>
</linearGradient>
<linearGradient id="paint9_linear_9388_475749" x1="57.7411" y1="7.46409" x2="39.668" y2="25.4858" gradientUnits="userSpaceOnUse">
<stop offset="0.2" stop-color="#FAD214"/>
<stop offset="0.8" stop-color="#FFA07D"/>
</linearGradient>
<linearGradient id="paint10_linear_9388_475749" x1="57.7411" y1="34.464" x2="39.668" y2="52.4858" gradientUnits="userSpaceOnUse">
<stop offset="0.2" stop-color="#00BE8C"/>
<stop offset="0.8" stop-color="#646EFA"/>
</linearGradient>
<linearGradient id="paint11_linear_9388_475749" x1="71.2029" y1="39.038" x2="53.1297" y2="21.0162" gradientUnits="userSpaceOnUse">
<stop offset="0.2" stop-color="#00BE8C"/>
<stop offset="0.8" stop-color="#FAD214"/>
</linearGradient>
</defs>
</svg>
