<svg width="150" height="55" viewBox="0 0 150 55" fill="none" xmlns="http://www.w3.org/2000/svg">
<g clip-path="url(#clip0)">
<path d="M149.766 54.8306H29.2138C14.8463 54.8306 3.08203 43.0022 3.08203 28.5563V27.1734C3.08203 12.7275 14.8463 0.89917 29.2138 0.89917H149.766C151.228 0.89917 152.407 2.09682 152.407 3.55376V52.1636C152.407 53.6329 151.215 54.8306 149.766 54.8306Z" fill="white"/>
<path d="M28.0949 36.2612C28.3037 40.6196 30.2685 44.5336 33.3753 47.4845C44.0466 46.2992 52.09 36.9526 51.5743 26.0256C51.4269 22.8894 50.5796 19.9509 49.2042 17.3457C48.713 17.3333 48.2095 17.3457 47.7061 17.3704C36.4085 17.9136 27.6283 26.3713 28.0949 36.2612Z" fill="#2A4E96"/>
<path d="M16.1593 13.4558C13.2121 16.8265 11.3333 21.185 11.1 26.0126C10.5597 36.7421 18.2715 45.9653 28.6481 47.4469C31.5953 44.0762 33.4741 39.7177 33.7074 34.8901C34.2477 24.1606 26.5236 14.9498 16.1593 13.4558Z" fill="#F1A34F"/>
<path d="M31.9637 45.9156C25.8729 38.3593 28.7095 31.0005 28.7095 31.0005C30.8831 35.5442 35.3039 42.6807 35.3039 42.6807L31.9637 45.9156Z" fill="#2A4E96"/>
<path d="M28.9644 13.1976C30.0597 11.2902 29.9049 9.13862 28.6186 8.39194C27.3324 7.64525 25.4018 8.5862 24.3065 10.4936C23.2112 12.401 23.3659 14.5526 24.6522 15.2993C25.9384 16.0459 27.8691 15.105 28.9644 13.1976Z" fill="#F1A34F"/>
<path d="M38.5922 18.4675C40.0487 17.8875 40.6465 15.9372 39.9273 14.1114C39.2081 12.2856 37.4444 11.2756 35.9878 11.8556C34.5313 12.4356 33.9336 14.3859 34.6528 16.2117C35.372 18.0375 37.1357 19.0475 38.5922 18.4675Z" fill="#2A4E96"/>
<path d="M108.163 25.4822C109.452 25.4822 110.348 24.8278 110.852 24.3216C111.073 24.8401 111.454 25.1982 111.982 25.3834L112.055 25.4081L112.129 25.3711C112.461 25.2105 112.718 24.8401 112.829 24.5685L112.878 24.4574L112.792 24.371C112.387 23.9635 112.325 23.2103 112.325 22.5189V12.3944C112.325 11.8512 112.252 11.2832 111.417 11.2832H110.84L110.619 11.5054V16.2714C109.894 15.8516 109.194 15.654 108.506 15.654C107.585 15.654 106.677 16.0862 106.038 16.8517C105.277 17.753 104.884 19.0618 104.884 20.6545C104.884 23.6795 106.112 25.4822 108.163 25.4822ZM106.64 20.6545C106.64 19.0741 107.168 17.2097 108.641 17.2097C109.391 17.2097 110.09 17.5925 110.631 17.9505V22.63C110.066 23.4202 109.206 23.9265 108.42 23.9265C107.106 23.9265 106.64 22.2349 106.64 20.6545Z" fill="#2A4E96"/>
<path d="M121.828 24.4198L121.926 24.3581L121.914 24.247C121.877 23.9383 121.669 23.4568 121.349 23.1852L121.251 23.0987L121.141 23.1605C120.195 23.679 119.397 23.9136 118.562 23.9136C117.174 23.9136 116.486 23.037 116.388 21.1479H122.062L122.086 20.9874C122.16 20.5059 122.184 20.1725 122.184 19.7404C122.184 17.2216 120.723 15.5918 118.451 15.5918C116.106 15.5918 114.583 17.5303 114.583 20.5306C114.583 23.7284 115.934 25.494 118.39 25.494C119.581 25.4817 120.87 25.0866 121.828 24.4198ZM120.416 19.6539V19.7033H116.388C116.523 17.9871 117.26 17.0117 118.439 17.0117C120.22 17.0117 120.416 18.8637 120.416 19.6539Z" fill="#2A4E96"/>
<path d="M126.852 25.4822C129.026 25.4822 130.426 24.3833 130.426 22.6795C130.426 21.3954 129.64 20.457 128.019 19.8273L126.926 19.3952C126.017 19.0495 125.661 18.7161 125.661 18.2222C125.661 17.5308 126.238 17.0616 127.11 17.0616C127.823 17.0616 128.608 17.2468 129.443 17.6172L129.554 17.6666L129.64 17.5802C129.922 17.2962 130.119 16.8023 130.119 16.3702V16.2467L130.008 16.1973C129.198 15.8269 128.007 15.5676 127.135 15.5676C125.244 15.5676 123.881 16.7159 123.881 18.3086C123.881 19.531 124.691 20.42 126.349 21.0497L127.38 21.4571C128.142 21.7411 128.596 22.2226 128.596 22.7535C128.584 23.5067 127.872 24.0129 126.828 24.0129C125.882 24.0129 124.937 23.5437 124.31 23.1857L124.2 23.1239L124.102 23.198C123.782 23.4573 123.525 23.9512 123.5 24.3339V24.4451L123.598 24.5068C124.31 24.9636 125.428 25.4822 126.852 25.4822Z" fill="#2A4E96"/>
<path d="M70.8556 25.3335C70.9784 25.3458 71.1012 25.3458 71.2118 25.3458C72.6731 25.3458 73.68 24.7408 74.1958 24.321C74.6624 25.0001 75.4361 25.4817 76.5167 25.4817C77.4623 25.4817 78.4078 25.0619 79.3165 24.247C79.5253 24.8026 79.906 25.173 80.4831 25.3829L80.5568 25.4076L80.6305 25.3705C80.9621 25.2224 81.2445 24.8396 81.355 24.568L81.4041 24.4569L81.3182 24.3704C80.9252 24 80.8638 23.5185 80.8638 22.7159V18.9007C80.8638 16.7524 79.8077 15.6288 77.8307 15.6288C76.308 15.6288 74.7484 16.2461 74.1467 16.5178L74.0361 16.5672V16.6906C74.0361 17.1104 74.2695 17.6414 74.5765 17.9006L74.6624 17.9747L74.7729 17.9253C75.9027 17.4315 76.8483 17.1845 77.6956 17.1845C78.7148 17.1845 79.1692 17.7031 79.1692 18.8884V19.5922C78.6412 19.5057 78.0272 19.4564 77.3272 19.4564C75.0186 19.4564 73.7046 20.6046 73.7046 22.6172C73.7046 22.6789 73.7046 22.753 73.7169 22.8147C73.1274 23.3827 72.4766 23.8395 71.4574 23.8395C71.4328 23.8395 71.396 23.8395 71.3714 23.8395C71.1872 23.8395 71.0644 23.7901 70.9784 23.716C70.8434 23.5679 70.8434 23.2592 70.8556 22.9752C70.8556 22.9011 70.8556 22.8147 70.8556 22.7406V12.4186C70.8556 11.8753 70.782 11.3074 69.9346 11.3074H69.3575L69.1364 11.5296V23.6296C69.1119 24.6544 69.7382 25.2594 70.8556 25.3335ZM75.4361 22.5184C75.4361 21.4566 76.1238 20.8516 77.3272 20.8516C77.7938 20.8516 78.4815 20.8762 79.1446 20.9627V22.5801C78.4692 23.4321 77.5605 23.9383 76.7009 23.9383C75.7676 23.9506 75.4361 23.1851 75.4361 22.5184Z" fill="#2A4E96"/>
<path d="M62.9096 10.8145C62.0868 10.8145 61.3377 10.8268 60.5273 10.8515C60.0483 10.8638 59.5694 10.8762 59.0414 10.8762H58.9677L58.7344 11.1108V25.1245L58.8817 25.1492C59.0905 25.1863 59.3729 25.211 59.6677 25.211C59.9869 25.211 60.2817 25.1863 60.4904 25.1492L60.6378 25.1245V19.9141H62.8973C65.7585 19.9141 67.5391 18.1609 67.5391 15.3458C67.5514 12.5554 65.7708 10.8145 62.9096 10.8145ZM65.5375 15.3581C65.5375 17.8645 63.9165 18.2473 62.9464 18.2473C62.4429 18.2473 61.4483 18.2473 60.6378 18.2597V12.4813C61.3746 12.4936 62.3447 12.4936 62.9464 12.4936C65.2059 12.4813 65.5375 14.2839 65.5375 15.3581Z" fill="#2A4E96"/>
<path d="M89.7656 24.0992L89.8393 24.0251L89.8147 23.9263C89.7288 23.5683 89.4218 23.1361 89.0902 22.9386L88.9797 22.8768L88.8815 22.9509C88.2061 23.4448 87.4693 23.9387 86.6342 23.9387C84.8414 23.9387 84.4607 22.136 84.4607 20.6297C84.4607 18.4072 85.2343 17.0738 86.5237 17.0738C87.064 17.0738 87.4816 17.2343 87.7763 17.5553C88.1201 17.9257 88.292 18.5307 88.2552 19.2098L88.2429 19.3826L88.4148 19.4073C88.6236 19.4444 88.8078 19.4691 89.0288 19.4691C89.9375 19.4691 89.9375 18.6912 89.9375 18.4319C89.9375 17.3331 89.0165 15.6045 86.5728 15.6045C84.78 15.6045 82.6924 16.9256 82.6924 20.642C82.6924 23.0003 83.6871 25.5067 86.4623 25.5067C87.678 25.482 88.7832 25.0252 89.7656 24.0992Z" fill="#2A4E96"/>
<path d="M95.0831 15.5801C92.7376 15.5801 91.2148 17.5185 91.2148 20.5188C91.2148 23.7167 92.5656 25.4823 95.0217 25.4823C96.2251 25.4823 97.5145 25.0872 98.4724 24.4081L98.5706 24.3464L98.5583 24.2353C98.5215 23.9143 98.3127 23.4451 97.9934 23.1734L97.8952 23.087L97.7847 23.1487C96.8391 23.6673 96.0409 23.9019 95.2059 23.9019C93.8182 23.9019 93.1183 23.0253 93.02 21.1362H98.6934L98.718 20.9757C98.7916 20.4942 98.8162 20.1608 98.8162 19.7286C98.8285 17.2099 97.3549 15.5801 95.0831 15.5801ZM97.0724 19.6546V19.704H93.0446C93.1797 17.9877 93.9165 17.0123 95.0953 17.0123C96.8759 17.0123 97.0724 18.8644 97.0724 19.6546Z" fill="#2A4E96"/>
<path d="M94.9484 34.8406C93.966 34.8406 93.1187 35.1863 92.4802 35.8036C91.9521 35.4209 90.9574 34.9023 89.7172 34.9517C88.6734 34.9887 87.8383 35.4703 87.3103 36.2852C87.0524 35.6308 86.6103 35.1616 85.9963 34.9394L85.9104 34.9023L85.8367 34.9517C85.5542 35.1369 85.2595 35.5197 85.1736 35.8407L85.1367 35.9518L85.2227 36.0259C85.5174 36.2975 85.8244 36.9149 85.8244 37.7791V44.4835L85.9718 44.5082C86.1682 44.5453 86.4138 44.57 86.7086 44.57C86.9664 44.57 87.212 44.5453 87.4085 44.5082L87.5559 44.4835V38.2113C87.9488 37.3717 88.7225 36.4951 89.7663 36.4951C90.6627 36.4951 91.2644 36.8655 91.5837 37.1371C91.2644 37.8779 91.0925 38.7546 91.0925 39.767C91.0925 42.9649 92.4433 44.7305 94.8993 44.7305C96.1028 44.7305 97.3922 44.3354 98.35 43.6563L98.4482 43.5945L98.436 43.4834C98.3991 43.1748 98.1904 42.6932 97.8711 42.4216L97.7728 42.3352L97.6623 42.3969C96.7168 42.9155 95.9186 43.1501 95.0835 43.1501C93.6959 43.1501 93.0082 42.2734 92.91 40.3843H98.5833L98.6079 40.2238C98.6816 39.7423 98.7061 39.4089 98.7061 38.9768C98.6816 36.458 97.2202 34.8406 94.9484 34.8406ZM96.9378 38.9027V38.9521H92.91C93.045 37.2359 93.7818 36.2605 94.9607 36.2605C96.7413 36.2605 96.9378 38.1125 96.9378 38.9027Z" fill="#2A4E96"/>
<path d="M60.6009 42.9408C60.6009 42.879 60.6009 42.8296 60.6132 42.7802C60.6132 42.6568 60.6255 42.521 60.6255 42.3728V38.2736C61.0062 38.286 61.3746 38.286 61.657 38.286H66.0041L66.0287 38.1378C66.0655 37.9279 66.0901 37.6439 66.0901 37.434C66.0901 37.2365 66.0655 36.9648 66.0287 36.7303L66.0041 36.5697H61.657C61.5096 36.5697 61.3254 36.5697 61.1412 36.5821C60.9816 36.5821 60.8097 36.5944 60.6255 36.5944V33.1743C60.6255 32.9027 60.6255 32.7175 60.6132 32.5323C60.6132 32.3965 60.6009 32.2607 60.6009 32.1002C60.8465 32.1002 61.0921 32.1002 61.3132 32.1002C61.436 32.1002 61.5465 32.1002 61.6447 32.1002H66.9374L66.9742 31.9767C67.0602 31.7297 67.0848 31.4211 67.0848 31.1988C67.0848 31.0136 67.0848 30.7914 67.0479 30.5321L67.0234 30.3716H58.9677L58.7344 30.6062V43.447C58.7344 44.1754 59.1519 44.657 59.7905 44.657H66.1638C66.8023 44.657 67.2198 44.3483 67.3426 43.7927C67.3918 43.5581 67.3918 43.2494 67.3918 43.1136V42.9284H61.657C61.2518 42.9161 60.9079 42.9284 60.6009 42.9408Z" fill="#2A4E96"/>
<path d="M76.5535 42.5703V37.9772C76.5535 36.0264 75.6203 34.9028 73.987 34.9028C72.9678 34.9028 71.8503 35.3103 71.003 35.9894C70.9784 35.4584 70.8311 34.9893 70.082 34.9893H69.4925L69.2715 35.2115V44.4717L69.4188 44.4964C69.6153 44.5334 69.8609 44.5581 70.1556 44.5581C70.4135 44.5581 70.6591 44.5334 70.8556 44.4964L71.003 44.4717V37.8167C71.6907 37.0389 72.7713 36.5079 73.6555 36.5079C74.5396 36.5079 74.8098 36.9524 74.8098 38.397V43.521C74.8098 43.9902 74.8957 44.6199 75.6939 44.6199C76.0869 44.6199 76.4799 44.4841 76.6886 44.2742L76.7746 44.1877L76.7255 44.0766C76.5781 43.6692 76.5535 43.0888 76.5535 42.5703Z" fill="#2A4E96"/>
<path d="M83.6384 35.0501L81.3297 35.0872V32.4202L81.1087 32.198H80.5315C79.6965 32.198 79.6228 32.7783 79.6228 33.3092V35.0625L78.3457 35.0501L78.3212 35.1983C78.2843 35.4082 78.2598 35.5687 78.2598 35.7539C78.2598 35.9885 78.2843 36.149 78.3212 36.3219L78.3457 36.47L79.6228 36.4577V42.8534C79.6228 43.9276 80.3228 44.582 81.4894 44.582C82.1893 44.582 82.7665 44.5449 83.3682 44.4708L83.4664 44.4585L83.5156 44.3721C83.577 44.261 83.577 44.1251 83.577 44.014C83.577 43.73 83.5278 43.4337 83.4296 43.1991L83.3805 43.0756H81.8578C81.4771 43.0756 81.3297 42.9028 81.3297 42.483V36.4577L83.6384 36.47L83.6629 36.3219C83.6998 36.149 83.7243 35.9762 83.7243 35.7539C83.7243 35.5687 83.712 35.4082 83.6629 35.1983L83.6384 35.0501Z" fill="#2A4E96"/>
<path d="M105.078 34.8406C104.157 34.8406 103.26 35.1986 102.56 35.8283C102.511 35.3715 102.303 35.0011 101.639 35.0011H101.075L100.854 35.2233V48.274L101.075 48.4963H101.652C102.499 48.4963 102.573 47.916 102.573 47.3851V44.0514C103.285 44.4588 103.985 44.6564 104.722 44.6564C106.465 44.6564 108.344 43.1007 108.344 39.6806C108.357 36.6432 107.129 34.8406 105.078 34.8406ZM106.601 39.6806C106.601 41.261 106.073 43.1007 104.599 43.1007C103.96 43.1007 103.322 42.8661 102.573 42.3599V37.7545C103.125 36.9272 103.997 36.4086 104.82 36.4086C105.68 36.4086 106.601 37.2729 106.601 39.6806Z" fill="#2A4E96"/>
<path d="M114.608 34.9522C113.577 34.9522 112.742 35.4214 112.189 36.2857C111.931 35.6313 111.489 35.1745 110.875 34.9399L110.789 34.9028L110.716 34.9522C110.433 35.1374 110.138 35.5202 110.052 35.8412L110.016 35.9523L110.102 36.0264C110.396 36.298 110.703 36.9154 110.703 37.7797V44.4841L110.851 44.5087C111.047 44.5458 111.293 44.5705 111.587 44.5705C111.845 44.5705 112.091 44.5458 112.287 44.5087L112.435 44.4841V38.2118C112.766 37.4957 113.38 36.6684 114.498 36.6684C114.707 36.6684 114.915 36.6684 115.124 36.6808L115.235 36.6931L115.296 36.5944C115.505 36.2486 115.64 35.7301 115.64 35.1992V35.0386L115.48 35.014C115.063 34.9522 114.756 34.9522 114.608 34.9522Z" fill="#2A4E96"/>
<path d="M117.812 35.001H117.665C117.456 35.001 117.137 35.038 116.719 35.0998L116.596 35.1121L116.56 35.2232C116.498 35.4084 116.474 35.5813 116.474 35.7788C116.474 35.9887 116.498 36.1616 116.56 36.3468L116.596 36.4826H116.903C117.346 36.4826 117.468 36.569 117.468 37.1864V44.4834L117.616 44.5081C117.812 44.5452 118.058 44.5699 118.352 44.5699C118.61 44.5699 118.856 44.5452 119.052 44.5081L119.2 44.4834V36.5196C119.212 35.5813 118.672 35.001 117.812 35.001Z" fill="#2A4E96"/>
<path d="M118.981 31.9268C118.76 31.7787 118.293 31.7046 118.047 31.7046C117.716 31.7046 117.335 31.791 117.126 31.9145L117.077 31.9392L117.053 31.9886C116.954 32.1738 116.905 32.5318 116.905 32.7541C116.905 32.9887 116.967 33.3344 117.053 33.5196L117.077 33.569L117.126 33.5937C117.347 33.7295 117.74 33.8283 118.047 33.8283C118.305 33.8283 118.784 33.7418 118.993 33.5813L119.03 33.5566L119.054 33.5196C119.153 33.3344 119.202 32.9763 119.202 32.7541C119.202 32.5195 119.14 32.1738 119.054 31.9886L119.03 31.9392L118.981 31.9268Z" fill="#2A4E96"/>
<path d="M125.586 39.0888L124.493 38.6567C123.584 38.3109 123.228 37.9776 123.228 37.4837C123.228 36.7923 123.818 36.3231 124.677 36.3231C125.389 36.3231 126.175 36.5083 127.01 36.8787L127.133 36.9281L127.219 36.8417C127.502 36.5577 127.698 36.0638 127.698 35.6317V35.5082L127.587 35.4588C126.777 35.0884 125.586 34.8291 124.714 34.8291C122.823 34.8291 121.46 35.9774 121.46 37.5701C121.46 38.7925 122.27 39.6814 123.928 40.3111L124.96 40.7186C125.721 41.0026 126.175 41.4841 126.175 42.015C126.163 42.7682 125.451 43.2744 124.407 43.2744C123.461 43.2744 122.516 42.8052 121.89 42.4472L121.779 42.3854L121.681 42.4595C121.362 42.7188 121.104 43.2127 121.079 43.5954V43.7065L121.177 43.7683C121.865 44.2004 122.97 44.719 124.407 44.719C126.581 44.719 127.98 43.6201 127.98 41.9162C127.993 40.6569 127.207 39.7185 125.586 39.0888Z" fill="#2A4E96"/>
<path d="M133.238 34.8406C130.893 34.8406 129.37 36.779 129.37 39.7793C129.37 42.9772 130.721 44.7428 133.177 44.7428C134.38 44.7428 135.67 44.3477 136.628 43.6686L136.726 43.6069L136.714 43.4958C136.677 43.1871 136.468 42.7056 136.149 42.4339L136.05 42.3475L135.94 42.4092C134.994 42.9278 134.196 43.1624 133.361 43.1624C131.973 43.1624 131.286 42.2858 131.175 40.3967H136.849L136.873 40.2362C136.947 39.7547 136.971 39.4213 136.971 38.9891C136.971 36.458 135.51 34.8406 133.238 34.8406ZM135.215 38.9027V38.9521H131.188C131.323 37.2359 132.059 36.2605 133.238 36.2605C135.019 36.2605 135.215 38.1125 135.215 38.9027Z" fill="#2A4E96"/>
<path d="M142.826 39.0888L141.733 38.6567C140.824 38.3109 140.468 37.9776 140.468 37.4837C140.468 36.7923 141.058 36.3231 141.917 36.3231C142.63 36.3231 143.416 36.5083 144.251 36.8787L144.373 36.9281L144.459 36.8417C144.742 36.5577 144.938 36.0638 144.938 35.6317V35.5082L144.828 35.4588C144.017 35.0884 142.826 34.8291 141.954 34.8291C140.063 34.8291 138.7 35.9774 138.7 37.5701C138.7 38.7925 139.511 39.6814 141.168 40.3111L142.2 40.7186C142.961 41.0026 143.416 41.4841 143.416 42.015C143.403 42.7682 142.691 43.2744 141.647 43.2744C140.702 43.2744 139.756 42.8052 139.13 42.4472L139.019 42.3854L138.921 42.4595C138.602 42.7188 138.344 43.2127 138.319 43.5954V43.7065L138.418 43.7683C139.105 44.2004 140.21 44.719 141.647 44.719C143.821 44.719 145.221 43.6201 145.221 41.9162C145.233 40.6569 144.447 39.7185 142.826 39.0888Z" fill="#2A4E96"/>
</g>
<defs>
<clipPath id="clip0">
<rect width="149.226" height="53.7215" fill="white" transform="translate(0 0.960205)"/>
</clipPath>
</defs>
</svg>
