<svg width="528" height="530" viewBox="0 0 528 530" fill="none" xmlns="http://www.w3.org/2000/svg">
<g opacity="0.5" clip-path="url(#clip0_10222_193043)">
<path d="M353 355L353 267.5C353 219.156 313.844 180 265.5 180L178 180L234.547 236.547L293.773 295.774L353 355Z" fill="#FBD112"/>
<path d="M178 180L178 267.5C178 315.844 217.156 355 265.5 355L353 355L296.453 298.453L237.227 239.227L178 180Z" fill="#1EBE8E"/>
<path d="M353 180C353 228.344 392.156 267.5 440.5 267.5C488.844 267.5 528 228.344 528 180L353 180Z" fill="#FBD112"/>
<path d="M353 267.501C353 315.845 392.156 355.001 440.5 355.001C488.844 355.001 528 315.845 528 267.501L353 267.501Z" fill="#A2AFCE"/>
<g clip-path="url(#clip1_10222_193043)">
<path d="M95.9688 530H46.75L3 442.609L46.75 355H95.9688L52.2188 443.102L95.9688 530Z" fill="#A2AFCE"/>
<path d="M178 530H128.781L85.0313 442.609L128.781 355H178L134.25 443.102L178 530Z" fill="#FBD112"/>
</g>
<path d="M353 442.5L353 355L265.5 355C313.844 355 353 394.156 353 442.5ZM265.5 530C313.844 530 353 490.844 353 442.5L353 530L265.5 530ZM309.25 442.5C309.25 466.672 289.672 486.25 265.5 486.25C241.328 486.25 221.75 466.672 221.75 442.5C221.75 418.328 241.328 398.75 265.5 398.75C289.672 398.75 309.25 418.328 309.25 442.5ZM178 442.5L178 355L265.5 355C217.156 355 178 394.156 178 442.5ZM178 530L178 442.5C178 490.844 217.156 530 265.5 530L178 530Z" fill="#7487B5"/>
<path d="M265.5 398.75C289.672 398.75 309.25 418.328 309.25 442.5C309.25 466.672 289.672 486.25 265.5 486.25C241.328 486.25 221.75 466.672 221.75 442.5C221.75 418.328 241.328 398.75 265.5 398.75ZM265.5 530C313.844 530 353 490.844 353 442.5C353 394.156 313.844 355 265.5 355C217.156 355 178 394.156 178 442.5C178 490.844 217.156 530 265.5 530Z" fill="#A1E6D1"/>
<path d="M528 355L353 355L353 530L528 355Z" fill="#FBD112"/>
<path d="M353 530L528 530L528 355L353 530Z" fill="#A1E6D1"/>
</g>
<g opacity="0.5">
<path d="M353 180C401.344 180 440.5 140.844 440.5 92.5C440.5 44.1562 401.344 5 353 5V180Z" fill="#E6FFF7"/>
<path d="M440.5 180C488.844 180 528 140.844 528 92.5C528 44.1562 488.844 5 440.5 5V180Z" fill="#1EBE8E"/>
</g>
<defs>
<clipPath id="clip0_10222_193043">
<rect width="528" height="350" fill="white" transform="matrix(1 -8.74228e-08 -8.74228e-08 -1 0 530)"/>
</clipPath>
<clipPath id="clip1_10222_193043">
<rect width="175" height="175" fill="white" transform="translate(3 355)"/>
</clipPath>
</defs>
</svg>
