<svg width="1920" height="530" viewBox="0 0 1920 530" fill="none" xmlns="http://www.w3.org/2000/svg">
<g opacity="0.5" clip-path="url(#clip0_10266_197229)">
<path d="M175 180L87.5 180C39.1562 180 -1.18758e-05 219.156 -7.64949e-06 267.5L0 355L56.5469 298.453L115.774 239.227L175 180Z" fill="#FBD112"/>
<path d="M0 355L87.5 355C135.844 355 175 315.844 175 267.5L175 180L118.453 236.547L59.227 295.773L0 355Z" fill="#A1E6D1"/>
<path d="M526 356C477.657 356 438.5 395.156 438.5 443.5C438.5 491.844 477.656 531 526 531L526 356Z" fill="#FBD112"/>
<path d="M438.5 356C390.157 356 351 395.156 351 443.5C351 491.844 390.156 531 438.5 531L438.5 356Z" fill="white"/>
<path d="M351 443.5L351 356L263.5 356C311.844 356 351 395.156 351 443.5ZM263.5 531C311.844 531 351 491.844 351 443.5L351 531L263.5 531ZM307.25 443.5C307.25 467.672 287.672 487.25 263.5 487.25C239.328 487.25 219.75 467.672 219.75 443.5C219.75 419.328 239.328 399.75 263.5 399.75C287.672 399.75 307.25 419.328 307.25 443.5ZM176 443.5L176 356L263.5 356C215.156 356 176 395.156 176 443.5ZM176 531L176 443.5C176 491.844 215.156 531 263.5 531L176 531Z" fill="#A2AFCE"/>
<path d="M263.5 399.75C287.672 399.75 307.25 419.328 307.25 443.5C307.25 467.672 287.672 487.25 263.5 487.25C239.328 487.25 219.75 467.672 219.75 443.5C219.75 419.328 239.328 399.75 263.5 399.75ZM263.5 531C311.844 531 351 491.844 351 443.5C351 395.156 311.844 356 263.5 356C215.156 356 176 395.156 176 443.5C176 491.844 215.156 531 263.5 531Z" fill="#465F9D"/>
<path d="M47.2656 443.5C38.4062 438.25 31.8984 429.391 28.289 418.562C18.0624 423.648 8.49219 432.18 1 443.5C8.49219 454.82 18.0624 463.352 28.289 468.437C31.8984 457.609 38.4062 448.75 47.2656 443.5Z" fill="#465F9D"/>
<path d="M148.711 418.562C145.102 429.391 138.594 438.25 129.734 443.5C138.594 448.75 145.102 457.609 148.711 468.437C158.938 463.352 168.508 454.82 176 443.5C168.508 432.18 158.938 423.648 148.711 418.562Z" fill="#465F9D"/>
<path d="M88.5 402.266C93.75 393.406 102.609 386.898 113.437 383.289C108.352 373.062 99.8203 363.492 88.5 356C77.1797 363.492 68.6484 373.062 63.5625 383.289C74.3906 386.898 83.25 393.406 88.5 402.266Z" fill="#465F9D"/>
<path d="M88.5 484.734C83.25 493.594 74.3906 500.102 63.5625 503.711C68.6484 513.938 77.1797 523.508 88.5 531C99.8203 523.508 108.352 513.938 113.437 503.711C102.609 500.102 93.75 493.594 88.5 484.734Z" fill="#465F9D"/>
<path d="M129.734 443.5C147.399 433 155.766 408.227 150.352 381.649C123.719 376.234 99.0001 384.602 88.5001 402.266C78.0001 384.602 53.2267 376.234 26.6485 381.649C21.2345 408.281 29.6016 433 47.2657 443.5C29.6016 454 21.2345 478.773 26.6485 505.352C53.2813 510.766 78.0001 502.399 88.5001 484.734C99.0001 502.399 123.773 510.766 150.352 505.352C155.766 478.719 147.399 454 129.734 443.5ZM88.5001 465.375C76.4141 465.375 66.6251 455.586 66.6251 443.5C66.6251 431.414 76.4141 421.625 88.5001 421.625C100.586 421.625 110.375 431.414 110.375 443.5C110.375 455.586 100.586 465.375 88.5001 465.375Z" fill="#FBD112"/>
</g>
<g opacity="0.5">
<g clip-path="url(#clip1_10266_197229)">
<path d="M613.5 531C661.825 531 701 491.825 701 443.5C701 395.175 661.825 356 613.5 356C565.175 356 526 395.175 526 443.5C526 491.825 565.175 531 613.5 531Z" fill="#A1E6D1"/>
<path d="M658.43 479.554C657.733 477.741 656.629 476.111 655.204 474.789C653.779 473.468 652.07 472.491 650.209 471.932L629.143 464.177L613.366 472.068L597.591 464.178L576.526 471.934C574.664 472.492 572.956 473.469 571.53 474.79C570.105 476.111 569.002 477.741 568.304 479.554L562.591 494.409H664.143L658.43 479.554Z" fill="#465F9D"/>
<path d="M619.864 494.444L615.091 481.717L618.273 476.948L613.47 472.137L608.701 476.906L611.909 481.717L607.137 494.444H619.864Z" fill="#E6FFF7"/>
<path d="M632.515 465.418L613.368 494.21L594.221 465.418L578.5 471.207V494.409H648.234V471.207L632.515 465.418Z" fill="#E6FFF7"/>
<path fill-rule="evenodd" clip-rule="evenodd" d="M597.591 464.182V453.734C602.111 460.728 608.275 464.031 613.5 465.773C618.724 464.031 624.889 460.728 629.409 453.734V464.182L613.5 472.136L597.591 464.182Z" fill="#E6FFF7"/>
<path d="M637.364 427.591H635.773L632.345 426.905C628.825 426.201 625.658 424.3 623.383 421.525C621.108 418.749 619.864 415.271 619.864 411.682C617.933 416.83 615.742 419.873 613.501 421.7C610.203 424.387 606.796 424.409 603.955 424.409V418.045C596.381 428.146 593.403 427.79 589.382 427.624C587.881 427.799 586.455 429.454 586.455 431.126C586.455 436.043 587.83 442.469 593.102 443.381C596.987 457.861 606.176 463.331 613.501 465.773C620.825 463.331 630.014 457.861 633.899 443.381C639.171 442.471 640.546 436.043 640.546 431.126C640.546 429.358 638.955 427.591 637.364 427.591Z" fill="#E6FFF7"/>
<path d="M605.546 448.272H621.455C621.455 448.272 621.455 453.045 613.5 453.045C605.546 453.045 605.546 448.272 605.546 448.272Z" fill="#465F9D"/>
<path d="M608.737 430.773C608.737 429.929 608.402 429.119 607.805 428.523C607.208 427.926 606.399 427.591 605.555 427.591H605.546C605.547 427.624 605.555 427.656 605.555 427.689C605.555 428.532 605.221 429.34 604.627 429.936C604.032 430.532 603.225 430.869 602.383 430.871C602.418 431.698 602.775 432.479 603.378 433.047C603.98 433.615 604.78 433.925 605.608 433.913C606.436 433.9 607.226 433.564 607.81 432.978C608.394 432.392 608.727 431.6 608.737 430.773Z" fill="#465F9D"/>
<path d="M624.636 430.773C624.636 429.929 624.301 429.119 623.704 428.523C623.108 427.926 622.298 427.591 621.454 427.591H621.445C621.445 427.624 621.454 427.658 621.454 427.691C621.455 428.533 621.121 429.341 620.526 429.938C619.931 430.534 619.124 430.87 618.282 430.873C618.296 431.715 618.643 432.518 619.248 433.105C619.853 433.691 620.667 434.013 621.509 434C622.352 433.987 623.155 433.639 623.741 433.034C624.328 432.429 624.65 431.615 624.636 430.773Z" fill="#465F9D"/>
<path d="M651.682 411.284C646.803 401.525 639.12 400.206 632.216 404.414C627.572 400.033 620.917 397.363 613.5 397.363C600.038 397.363 589.043 406.126 588.135 418.045H588.046V427.591C592.819 427.591 595.565 429.232 603.955 418.045V424.409C608.728 424.409 615.091 424.409 619.864 411.681C619.864 415.271 621.107 418.749 623.383 421.524C625.658 424.3 628.825 426.201 632.345 426.905L635.773 427.591H637.364C638.955 427.591 640.546 429.358 640.546 431.126C640.546 435.399 639.504 440.805 635.773 442.749V448.272C635.773 462.591 656.455 462.591 656.455 456.227C637.364 457.818 658.046 424.011 651.682 411.284Z" fill="#465F9D"/>
<path fill-rule="evenodd" clip-rule="evenodd" d="M630.98 464.853L613.368 491.337L595.757 464.852L592.687 465.981L611.59 494.409H615.147L634.05 465.983L630.98 464.853Z" fill="#465F9D"/>
<path fill-rule="evenodd" clip-rule="evenodd" d="M629.409 458.821C624.732 464.506 618.997 467.434 614.05 469.082L613.548 469.251L613.043 469.082C608.108 467.437 602.311 464.506 597.591 458.719V453.771C600.252 457.912 603.945 461.29 608.307 463.571C609.985 464.493 611.738 465.27 613.548 465.894C616.026 465.028 618.693 463.816 621.279 462.023C624.532 459.85 627.3 457.028 629.409 453.734V458.821Z" fill="#465F9D"/>
</g>
</g>
<g opacity="0.5" clip-path="url(#clip2_10266_197229)">
<path d="M1745 355L1745 267.5C1745 219.156 1705.84 180 1657.5 180L1570 180L1626.55 236.547L1685.77 295.774L1745 355Z" fill="#FBD112"/>
<path d="M1570 180L1570 267.5C1570 315.844 1609.16 355 1657.5 355L1745 355L1688.45 298.453L1629.23 239.227L1570 180Z" fill="#1EBE8E"/>
<path d="M1745 180C1745 228.344 1784.16 267.5 1832.5 267.5C1880.84 267.5 1920 228.344 1920 180L1745 180Z" fill="#FBD112"/>
<path d="M1745 267.501C1745 315.845 1784.16 355.001 1832.5 355.001C1880.84 355.001 1920 315.845 1920 267.501L1745 267.501Z" fill="#A2AFCE"/>
<g clip-path="url(#clip3_10266_197229)">
<path d="M1487.97 530H1438.75L1395 442.609L1438.75 355H1487.97L1444.22 443.102L1487.97 530Z" fill="#A2AFCE"/>
<path d="M1570 530H1520.78L1477.03 442.609L1520.78 355H1570L1526.25 443.102L1570 530Z" fill="#FBD112"/>
</g>
<path d="M1745 442.5L1745 355L1657.5 355C1705.84 355 1745 394.156 1745 442.5ZM1657.5 530C1705.84 530 1745 490.844 1745 442.5L1745 530L1657.5 530ZM1701.25 442.5C1701.25 466.672 1681.67 486.25 1657.5 486.25C1633.33 486.25 1613.75 466.672 1613.75 442.5C1613.75 418.328 1633.33 398.75 1657.5 398.75C1681.67 398.75 1701.25 418.328 1701.25 442.5ZM1570 442.5L1570 355L1657.5 355C1609.16 355 1570 394.156 1570 442.5ZM1570 530L1570 442.5C1570 490.844 1609.16 530 1657.5 530L1570 530Z" fill="#7487B5"/>
<path d="M1657.5 398.75C1681.67 398.75 1701.25 418.328 1701.25 442.5C1701.25 466.672 1681.67 486.25 1657.5 486.25C1633.33 486.25 1613.75 466.672 1613.75 442.5C1613.75 418.328 1633.33 398.75 1657.5 398.75ZM1657.5 530C1705.84 530 1745 490.844 1745 442.5C1745 394.156 1705.84 355 1657.5 355C1609.16 355 1570 394.156 1570 442.5C1570 490.844 1609.16 530 1657.5 530Z" fill="#A1E6D1"/>
<path d="M1920 355L1745 355L1745 530L1920 355Z" fill="#FBD112"/>
<path d="M1745 530L1920 530L1920 355L1745 530Z" fill="#A1E6D1"/>
</g>
<g opacity="0.5">
<path d="M1745 180C1793.34 180 1832.5 140.844 1832.5 92.5C1832.5 44.1562 1793.34 5 1745 5V180Z" fill="#E6FFF7"/>
<path d="M1832.5 180C1880.84 180 1920 140.844 1920 92.5C1920 44.1562 1880.84 5 1832.5 5V180Z" fill="#1EBE8E"/>
</g>
<defs>
<clipPath id="clip0_10266_197229">
<rect width="528" height="350" fill="white" transform="matrix(1 -8.74228e-08 -8.74228e-08 -1 0 530)"/>
</clipPath>
<clipPath id="clip1_10266_197229">
<rect width="175" height="175" fill="white" transform="translate(526 356)"/>
</clipPath>
<clipPath id="clip2_10266_197229">
<rect width="528" height="350" fill="white" transform="matrix(1 -8.74228e-08 -8.74228e-08 -1 1392 530)"/>
</clipPath>
<clipPath id="clip3_10266_197229">
<rect width="175" height="175" fill="white" transform="translate(1395 355)"/>
</clipPath>
</defs>
</svg>
