<svg width="416" height="98" viewBox="0 0 416 98" fill="none" xmlns="http://www.w3.org/2000/svg">
<rect width="416" height="97.9995" fill="white"/>
<path d="M24.3 55.7398C25.9 55.7398 27.16 54.9598 27.96 53.8198L30.2 55.5398C28.92 57.2798 26.84 58.3998 24.3 58.3998C19.88 58.3998 16.86 54.9998 16.86 50.9998C16.86 46.9998 19.88 43.5998 24.3 43.5998C26.84 43.5998 28.92 44.7398 30.2 46.4398L27.96 48.1798C27.16 47.0398 25.9 46.2598 24.3 46.2598C21.66 46.2598 19.78 48.3198 19.78 50.9998C19.78 53.6798 21.66 55.7398 24.3 55.7398ZM36.9294 47.5198C40.2094 47.5198 42.4494 49.9398 42.4494 52.9598C42.4494 55.9798 40.2094 58.3998 36.9294 58.3998C33.6494 58.3998 31.4094 55.9798 31.4094 52.9598C31.4094 49.9398 33.6494 47.5198 36.9294 47.5198ZM36.9694 55.9998C38.5894 55.9998 39.8094 54.6998 39.8094 52.9598C39.8094 51.1998 38.5894 49.9198 36.9694 49.9198C35.2894 49.9198 34.0494 51.1998 34.0494 52.9598C34.0494 54.7198 35.2894 55.9998 36.9694 55.9998ZM44.7661 57.9998V47.9198H47.3061V48.7198C48.0061 48.0398 48.9461 47.5198 50.2861 47.5198C52.4661 47.5198 54.2061 49.0198 54.2061 51.9998V57.9998H51.6461V52.0998C51.6461 50.7598 50.8861 49.9198 49.6461 49.9198C48.3661 49.9198 47.6861 50.7798 47.3061 51.4198V57.9998H44.7661ZM56.2103 56.5398L57.8903 55.0198C58.5103 55.7998 59.2503 56.3598 60.2103 56.3598C61.0303 56.3598 61.4503 55.8798 61.4503 55.2798C61.4503 53.5198 56.6303 54.1798 56.6303 50.6398C56.6303 48.8598 58.1303 47.5198 60.2303 47.5198C61.7703 47.5198 63.1703 48.2598 63.8903 49.2398L62.2103 50.7198C61.6903 50.0798 61.0303 49.5598 60.2503 49.5598C59.4503 49.5598 59.0703 49.9998 59.0703 50.5198C59.0703 52.2398 63.8903 51.6398 63.8903 55.1198C63.8503 57.2398 62.1503 58.3998 60.2503 58.3998C58.4503 58.3998 57.1703 57.6798 56.2103 56.5398ZM75.4719 56.3598C74.5319 57.6198 72.9719 58.3998 71.0719 58.3998C67.4919 58.3998 65.4719 55.8998 65.4719 52.9598C65.4719 49.9798 67.3519 47.5198 70.6519 47.5198C73.4519 47.5198 75.2919 49.4198 75.2919 52.0598C75.2919 52.6198 75.2119 53.1398 75.1319 53.4798H68.0719C68.3119 55.3598 69.4719 56.1198 71.0519 56.1198C72.1519 56.1198 73.1119 55.6398 73.6519 54.9198L75.4719 56.3598ZM70.5919 49.5998C69.2919 49.5998 68.4319 50.3198 68.1519 51.6398H72.7919C72.7519 50.6198 72.0119 49.5998 70.5919 49.5998ZM79.0539 46.1598C78.1539 46.1598 77.3939 45.3998 77.3939 44.4998C77.3939 43.5998 78.1539 42.8398 79.0539 42.8398C79.9539 42.8398 80.6939 43.5998 80.6939 44.4998C80.6939 45.3998 79.9539 46.1598 79.0539 46.1598ZM77.7739 57.9998V47.9198H80.3139V57.9998H77.7739ZM83.3598 57.9998V42.9998H85.8998V57.9998H83.3598ZM88.9458 57.9998V42.9998H91.4858V57.9998H88.9458ZM103.812 56.3598C102.872 57.6198 101.312 58.3998 99.4117 58.3998C95.8317 58.3998 93.8117 55.8998 93.8117 52.9598C93.8117 49.9798 95.6917 47.5198 98.9917 47.5198C101.792 47.5198 103.632 49.4198 103.632 52.0598C103.632 52.6198 103.552 53.1398 103.472 53.4798H96.4117C96.6517 55.3598 97.8117 56.1198 99.3917 56.1198C100.492 56.1198 101.452 55.6398 101.992 54.9198L103.812 56.3598ZM98.9317 49.5998C97.6317 49.5998 96.7717 50.3198 96.4917 51.6398H101.132C101.092 50.6198 100.352 49.5998 98.9317 49.5998ZM106.114 57.9998V47.9198H108.654V48.9198C109.314 48.2398 110.174 47.7198 111.314 47.7198C111.654 47.7198 111.954 47.7798 112.194 47.8598V50.3598C111.874 50.2798 111.534 50.2198 111.074 50.2198C109.834 50.2198 109.034 50.8998 108.654 51.5398V57.9998H106.114ZM113.359 56.5398L115.039 55.0198C115.659 55.7998 116.399 56.3598 117.359 56.3598C118.179 56.3598 118.599 55.8798 118.599 55.2798C118.599 53.5198 113.779 54.1798 113.779 50.6398C113.779 48.8598 115.279 47.5198 117.379 47.5198C118.919 47.5198 120.319 48.2598 121.039 49.2398L119.359 50.7198C118.839 50.0798 118.179 49.5598 117.399 49.5598C116.599 49.5598 116.219 49.9998 116.219 50.5198C116.219 52.2398 121.039 51.6398 121.039 55.1198C120.999 57.2398 119.299 58.3998 117.399 58.3998C115.599 58.3998 114.319 57.6798 113.359 56.5398ZM122.259 51.6598H127.659V54.1198H122.259V51.6598ZM130.111 57.9998V43.9998H138.271V46.3598H132.951V49.6798H137.471V52.0398H132.951V55.6398H138.271V57.9998H130.111ZM141.192 57.9998V47.9198H143.732V48.7198C144.432 48.0398 145.372 47.5198 146.712 47.5198C148.892 47.5198 150.632 49.0198 150.632 51.9998V57.9998H148.072V52.0998C148.072 50.7598 147.312 49.9198 146.072 49.9198C144.792 49.9198 144.112 50.7798 143.732 51.4198V57.9998H141.192ZM154.156 54.3198V50.1998H152.276V47.9198H154.156V45.3998H156.716V47.9198H159.796V50.1998H156.716V54.3198C156.716 55.4398 157.316 55.8798 158.316 55.8798C159.016 55.8798 159.476 55.7998 159.816 55.6598V57.8798C159.316 58.0998 158.716 58.1998 157.876 58.1998C155.356 58.1998 154.156 56.7798 154.156 54.3198ZM162.071 57.9998V47.9198H164.611V48.9198C165.271 48.2398 166.131 47.7198 167.271 47.7198C167.611 47.7198 167.911 47.7798 168.151 47.8598V50.3598C167.831 50.2798 167.491 50.2198 167.031 50.2198C165.791 50.2198 164.991 50.8998 164.611 51.5398V57.9998H162.071ZM179.046 56.3598C178.106 57.6198 176.546 58.3998 174.646 58.3998C171.066 58.3998 169.046 55.8998 169.046 52.9598C169.046 49.9798 170.926 47.5198 174.226 47.5198C177.026 47.5198 178.866 49.4198 178.866 52.0598C178.866 52.6198 178.786 53.1398 178.706 53.4798H171.646C171.886 55.3598 173.046 56.1198 174.626 56.1198C175.726 56.1198 176.686 55.6398 177.226 54.9198L179.046 56.3598ZM174.166 49.5998C172.866 49.5998 172.006 50.3198 171.726 51.6398H176.366C176.326 50.6198 175.586 49.5998 174.166 49.5998ZM181.348 62.9198V47.9198H183.888V48.7398C184.668 47.9598 185.648 47.5198 187.028 47.5198C190.228 47.5198 192.148 50.0198 192.148 52.9598C192.148 55.8998 190.228 58.3998 187.028 58.3998C185.648 58.3998 184.668 57.9598 183.888 57.1798V62.9198H181.348ZM186.668 49.9198C185.488 49.9198 184.528 50.4398 183.888 51.3798V54.5398C184.568 55.4998 185.508 55.9998 186.668 55.9998C188.388 55.9998 189.508 54.7198 189.508 52.9598C189.508 51.1998 188.388 49.9198 186.668 49.9198ZM194.473 57.9998V47.9198H197.013V48.9198C197.673 48.2398 198.533 47.7198 199.673 47.7198C200.013 47.7198 200.313 47.7798 200.553 47.8598V50.3598C200.233 50.2798 199.893 50.2198 199.433 50.2198C198.193 50.2198 197.393 50.8998 197.013 51.5398V57.9998H194.473ZM203.878 46.1598C202.978 46.1598 202.218 45.3998 202.218 44.4998C202.218 43.5998 202.978 42.8398 203.878 42.8398C204.778 42.8398 205.518 43.5998 205.518 44.4998C205.518 45.3998 204.778 46.1598 203.878 46.1598ZM202.598 57.9998V47.9198H205.138V57.9998H202.598ZM207.167 56.5398L208.847 55.0198C209.467 55.7998 210.207 56.3598 211.167 56.3598C211.987 56.3598 212.407 55.8798 212.407 55.2798C212.407 53.5198 207.587 54.1798 207.587 50.6398C207.587 48.8598 209.087 47.5198 211.187 47.5198C212.727 47.5198 214.127 48.2598 214.847 49.2398L213.167 50.7198C212.647 50.0798 211.987 49.5598 211.207 49.5598C210.407 49.5598 210.027 49.9998 210.027 50.5198C210.027 52.2398 214.847 51.6398 214.847 55.1198C214.807 57.2398 213.107 58.3998 211.207 58.3998C209.407 58.3998 208.127 57.6798 207.167 56.5398ZM226.429 56.3598C225.489 57.6198 223.929 58.3998 222.029 58.3998C218.449 58.3998 216.429 55.8998 216.429 52.9598C216.429 49.9798 218.309 47.5198 221.609 47.5198C224.409 47.5198 226.249 49.4198 226.249 52.0598C226.249 52.6198 226.169 53.1398 226.089 53.4798H219.029C219.269 55.3598 220.429 56.1198 222.009 56.1198C223.109 56.1198 224.069 55.6398 224.609 54.9198L226.429 56.3598ZM221.549 49.5998C220.249 49.5998 219.389 50.3198 219.109 51.6398H223.749C223.709 50.6198 222.969 49.5998 221.549 49.5998ZM227.714 56.5398L229.394 55.0198C230.014 55.7998 230.754 56.3598 231.714 56.3598C232.534 56.3598 232.954 55.8798 232.954 55.2798C232.954 53.5198 228.134 54.1798 228.134 50.6398C228.134 48.8598 229.634 47.5198 231.734 47.5198C233.274 47.5198 234.674 48.2598 235.394 49.2398L233.714 50.7198C233.194 50.0798 232.534 49.5598 231.754 49.5598C230.954 49.5598 230.574 49.9998 230.574 50.5198C230.574 52.2398 235.394 51.6398 235.394 55.1198C235.354 57.2398 233.654 58.3998 231.754 58.3998C229.954 58.3998 228.674 57.6798 227.714 56.5398Z" fill="#E1000F"/>
<path d="M238.837 58.2398C237.857 58.2398 237.077 57.4598 237.077 56.4998C237.077 55.5598 237.857 54.7598 238.837 54.7598C239.777 54.7598 240.597 55.5598 240.597 56.4998C240.597 57.4598 239.777 58.2398 238.837 58.2398ZM242.21 56.0598L244.27 54.1598C245.11 55.2398 246.23 55.8798 247.37 55.8798C248.49 55.8798 249.17 55.2798 249.17 54.2798C249.17 51.6998 242.81 52.3998 242.81 47.6598C242.81 45.4398 244.65 43.5998 247.33 43.5998C249.43 43.5998 251.03 44.5398 252.23 45.9598L250.15 47.8398C249.33 46.7798 248.41 46.0798 247.35 46.0798C246.35 46.0798 245.69 46.7198 245.69 47.5598C245.69 50.0998 252.05 49.3798 252.05 54.1798C252.01 56.8198 249.97 58.3998 247.39 58.3998C245.03 58.3998 243.45 57.5398 242.21 56.0598ZM263.929 56.3598C262.989 57.6198 261.429 58.3998 259.529 58.3998C255.949 58.3998 253.929 55.8998 253.929 52.9598C253.929 49.9798 255.809 47.5198 259.109 47.5198C261.909 47.5198 263.749 49.4198 263.749 52.0598C263.749 52.6198 263.669 53.1398 263.589 53.4798H256.529C256.769 55.3598 257.929 56.1198 259.509 56.1198C260.609 56.1198 261.569 55.6398 262.109 54.9198L263.929 56.3598ZM259.049 49.5998C257.749 49.5998 256.889 50.3198 256.609 51.6398H261.249C261.209 50.6198 260.469 49.5998 259.049 49.5998ZM266.231 57.9998V47.9198H268.771V48.9198C269.431 48.2398 270.291 47.7198 271.431 47.7198C271.771 47.7198 272.071 47.7798 272.311 47.8598V50.3598C271.991 50.2798 271.651 50.2198 271.191 50.2198C269.951 50.2198 269.151 50.8998 268.771 51.5398V57.9998H266.231ZM273.424 47.9198H276.144L278.764 55.1198L281.364 47.9198H284.104L280.424 57.9998H277.084L273.424 47.9198ZM286.984 46.1598C286.084 46.1598 285.324 45.3998 285.324 44.4998C285.324 43.5998 286.084 42.8398 286.984 42.8398C287.884 42.8398 288.624 43.5998 288.624 44.4998C288.624 45.3998 287.884 46.1598 286.984 46.1598ZM285.704 57.9998V47.9198H288.244V57.9998H285.704ZM296.13 55.9998C297.13 55.9998 297.93 55.5398 298.41 54.8398L300.39 56.3598C299.45 57.5998 297.97 58.3998 296.13 58.3998C292.65 58.3998 290.57 55.8998 290.57 52.9598C290.57 50.0198 292.65 47.5198 296.13 47.5198C297.97 47.5198 299.45 48.3198 300.39 49.5598L298.41 51.0798C297.93 50.3798 297.13 49.9198 296.09 49.9198C294.43 49.9198 293.21 51.1998 293.21 52.9598C293.21 54.7398 294.43 55.9998 296.13 55.9998ZM311.175 56.3598C310.235 57.6198 308.675 58.3998 306.775 58.3998C303.195 58.3998 301.175 55.8998 301.175 52.9598C301.175 49.9798 303.055 47.5198 306.355 47.5198C309.155 47.5198 310.995 49.4198 310.995 52.0598C310.995 52.6198 310.915 53.1398 310.835 53.4798H303.775C304.015 55.3598 305.175 56.1198 306.755 56.1198C307.855 56.1198 308.815 55.6398 309.355 54.9198L311.175 56.3598ZM306.295 49.5998C304.995 49.5998 304.135 50.3198 303.855 51.6398H308.495C308.455 50.6198 307.715 49.5998 306.295 49.5998ZM312.709 51.6598H318.109V54.1198H312.709V51.6598ZM320.56 57.9998V43.9998H325.18C328.26 43.9998 330.14 45.5798 330.14 48.1798C330.14 50.7598 328.26 52.3398 325.18 52.3398H323.4V57.9998H320.56ZM325.3 46.3598H323.4V49.9798H325.3C326.5 49.9798 327.22 49.2798 327.22 48.1398C327.22 47.0798 326.5 46.3598 325.3 46.3598ZM338.75 53.6398V47.9198H341.31V53.5198C341.31 56.5398 339.55 58.3998 336.59 58.3998C333.63 58.3998 331.89 56.5398 331.89 53.5198V47.9198H334.45V53.6398C334.45 55.0998 335.21 55.9998 336.61 55.9998C337.99 55.9998 338.75 55.0998 338.75 53.6398ZM354.922 52.9598C354.922 55.8998 353.002 58.3998 349.802 58.3998C348.422 58.3998 347.442 57.9598 346.662 57.1798V57.9998H344.122V42.9998H346.662V48.7398C347.442 47.9598 348.422 47.5198 349.802 47.5198C353.002 47.5198 354.922 50.0198 354.922 52.9598ZM349.442 49.9198C348.262 49.9198 347.282 50.4398 346.662 51.3598V54.5598C347.342 55.4998 348.302 55.9998 349.442 55.9998C351.162 55.9998 352.282 54.7198 352.282 52.9598C352.282 51.1998 351.162 49.9198 349.442 49.9198ZM357.247 57.9998V42.9998H359.787V57.9998H357.247ZM364.113 46.1598C363.213 46.1598 362.453 45.3998 362.453 44.4998C362.453 43.5998 363.213 42.8398 364.113 42.8398C365.013 42.8398 365.753 43.5998 365.753 44.4998C365.753 45.3998 365.013 46.1598 364.113 46.1598ZM362.833 57.9998V47.9198H365.373V57.9998H362.833ZM373.258 55.9998C374.258 55.9998 375.058 55.5398 375.538 54.8398L377.518 56.3598C376.578 57.5998 375.098 58.3998 373.258 58.3998C369.778 58.3998 367.698 55.8998 367.698 52.9598C367.698 50.0198 369.778 47.5198 373.258 47.5198C375.098 47.5198 376.578 48.3198 377.518 49.5598L375.538 51.0798C375.058 50.3798 374.258 49.9198 373.218 49.9198C371.558 49.9198 370.338 51.1998 370.338 52.9598C370.338 54.7398 371.558 55.9998 373.258 55.9998ZM380.712 58.2398C379.732 58.2398 378.952 57.4598 378.952 56.4998C378.952 55.5598 379.732 54.7598 380.712 54.7598C381.652 54.7598 382.472 55.5598 382.472 56.4998C382.472 57.4598 381.652 58.2398 380.712 58.2398ZM383.663 47.9198H385.543V46.8598C385.543 44.7198 386.963 42.9998 389.483 42.9998C390.403 42.9998 391.183 43.2198 391.823 43.5598L390.743 45.6798C390.443 45.4598 390.043 45.2798 389.523 45.2798C388.663 45.2798 388.103 45.8798 388.103 46.7998V47.9198H391.183V50.1998H388.103V57.9998H385.543V50.1998H383.663V47.9198ZM392.793 57.9998V47.9198H395.333V48.9198C395.993 48.2398 396.853 47.7198 397.993 47.7198C398.333 47.7198 398.633 47.7798 398.873 47.8598V50.3598C398.553 50.2798 398.213 50.2198 397.753 50.2198C396.513 50.2198 395.713 50.8998 395.333 51.5398V57.9998H392.793Z" fill="#3A3A3A"/>
</svg>
