<svg width="81" height="80" viewBox="0 0 81 80" fill="none" xmlns="http://www.w3.org/2000/svg">
<g clip-path="url(#clip0_2251_4222)">
<g clip-path="url(#clip1_2251_4222)">
<path d="M40.9131 40.2118C42.1022 38.9143 44.1475 38.9143 45.3365 40.2118L70.9937 68.2081C72.7573 70.1324 71.3922 73.235 68.782 73.235H17.4676C14.8575 73.235 13.4924 70.1324 15.2559 68.2081L40.9131 40.2118Z" fill="#FACF35"/>
<path d="M45.3369 41.5021C44.1478 42.7995 42.1025 42.7995 40.9135 41.5021L15.2563 13.5058C13.4928 11.5815 14.8578 8.47887 17.468 8.47887L68.7824 8.47888C71.3925 8.47888 72.7576 11.5815 70.9941 13.5058L45.3369 41.5021Z" fill="#6672F8"/>
<path d="M42.1087 56.7948C42.7361 56.4242 43.5154 56.4242 44.1428 56.7948L59.7478 66.0114C61.5007 67.0467 60.7665 69.7335 58.7308 69.7335H27.5207C25.485 69.7335 24.7508 67.0467 26.5036 66.0114L42.1087 56.7948Z" fill="#6672F8"/>
<path d="M44.8771 31.9658C44.1165 33.3438 42.1358 33.3438 41.3752 31.9658L34.8298 20.108C34.0941 18.775 35.0582 17.1415 36.5808 17.1415L49.6715 17.1415C51.194 17.1415 52.1582 18.775 51.4225 20.108L44.8771 31.9658Z" fill="#FACF35"/>
<path d="M44.1328 34.3552C43.6623 35.0892 42.5897 35.0892 42.1191 34.3552V34.3552C41.6089 33.5592 42.1805 32.5139 43.126 32.5139V32.5139C44.0714 32.5139 44.643 33.5592 44.1328 34.3552V34.3552Z" fill="#FACF35"/>
<path d="M43.6304 39.5613C43.3951 39.9283 42.8588 39.9283 42.6235 39.5613V39.5613C42.3684 39.1633 42.6542 38.6407 43.1269 38.6407V38.6407C43.5997 38.6407 43.8855 39.1633 43.6304 39.5613V39.5613Z" fill="#FACF35"/>
<path d="M43.7972 37.1229C43.4835 37.6123 42.7684 37.6123 42.4548 37.1229V37.1229C42.1146 36.5923 42.4957 35.8954 43.126 35.8954V35.8954C43.7563 35.8954 44.1373 36.5923 43.7972 37.1229V37.1229Z" fill="#FACF35"/>
<path d="M42.3789 46.7705C42.7271 46.2272 43.521 46.2272 43.8693 46.7705V46.7705C44.2469 47.3596 43.8239 48.1333 43.1241 48.1333V48.1333C42.4243 48.1333 42.0012 47.3596 42.3789 46.7705V46.7705Z" fill="#6672F8"/>
<path d="M42.1192 49.554C42.5897 48.8199 43.6623 48.8199 44.1328 49.554V49.554C44.643 50.35 44.0714 51.3953 43.126 51.3953V51.3953C42.1805 51.3953 41.609 50.35 42.1192 49.554V49.554Z" fill="#6672F8"/>
<path d="M41.7826 53.4324C42.41 52.4537 43.8401 52.4537 44.4674 53.4324V53.4324C45.1477 54.4937 44.3856 55.8874 43.125 55.8874V55.8874C41.8644 55.8874 41.1023 54.4937 41.7826 53.4324V53.4324Z" fill="#6672F8"/>
<path d="M42.8158 42.7428C42.9726 42.4981 43.3301 42.4981 43.487 42.7428V42.7428C43.657 43.0081 43.4665 43.3566 43.1514 43.3566V43.3566C42.8362 43.3566 42.6457 43.0081 42.8158 42.7428V42.7428Z" fill="#6672F8"/>
<path d="M42.6362 44.5206C42.8715 44.1536 43.4078 44.1536 43.6431 44.5206V44.5206C43.8982 44.9186 43.6124 45.4412 43.1397 45.4412V45.4412C42.6669 45.4412 42.3811 44.9186 42.6362 44.5206V44.5206Z" fill="#6672F8"/>
</g>
</g>
<defs>
<clipPath id="clip0_2251_4222">
<rect width="80" height="80" fill="white" transform="translate(0.625)"/>
</clipPath>
<clipPath id="clip1_2251_4222">
<rect width="80" height="80" fill="white" transform="translate(0.625)"/>
</clipPath>
</defs>
</svg>
