<svg width="62" height="72" viewBox="0 0 62 72" fill="none" xmlns="http://www.w3.org/2000/svg">
<path d="M58.6506 71.7475H15.1165L6.8211 33.8239L6.28015 31.3499L0.65625 5.64148H44.1897L51.1946 37.662L53.8972 50.017L58.6506 71.7475Z" stroke="white" stroke-width="0.5" stroke-linecap="round" stroke-linejoin="round"/>
<path d="M24.9566 17.1183L23.8724 17.177C22.9864 17.3298 22.0748 17.2173 21.253 16.8535C19.756 16.1713 18.6164 14.5964 18.625 12.811C18.625 12.5876 18.6631 10.5418 20.0052 9.68359C20.8308 9.15487 21.4858 9.00135 24.0229 8.78486L26.2312 4.56897C29.0816 5.05887 30.2783 4.62158 30.8339 4.09459C31.385 3.55406 32.03 3.11772 32.7376 2.80688C32.9514 2.71701 33.1741 2.6499 33.4021 2.60678C34.5072 2.38167 37.2425 2.5809 39.4689 4.54136C40.2122 5.196 40.5843 5.52375 40.7669 6.12233C41.0646 7.10299 40.6804 8.23459 40.7955 9.25406C40.8032 9.32392 40.8379 9.65512 40.8742 10.1114C40.8846 10.252 40.895 10.4158 40.9019 10.6237C40.9337 11.3994 40.8972 12.1763 40.7929 12.9456C40.7929 12.9792 40.7833 13.0128 40.779 13.0473C40.7626 13.1517 40.747 13.2543 40.728 13.357C40.6957 13.5381 40.6585 13.7175 40.6163 13.8952C40.4872 14.4532 40.3026 14.9969 40.0651 15.5184C39.6647 16.4132 39.0742 17.2106 38.3345 17.8558C36.5606 19.3824 34.2874 19.6929 33.8218 19.7533C30.9187 20.106 28.7433 18.9192 28.0614 18.5104L25.2257 18.369C25.1409 17.9696 25.0527 17.5565 24.9566 17.1183Z" fill="#FFA07D"/>
<path d="M61.7637 71.7475H15.2545L12.4897 56.8282L11.1096 42.1284C10.2079 38.3697 10.6968 34.4112 12.4859 30.9857C14.275 27.56 17.2431 24.8993 20.8409 23.496C21.792 23.1273 22.776 22.85 23.7796 22.6679C34.6261 21.0686 40.507 24.3826 43.2197 26.1375C46.3724 28.1772 48.7444 29.2998 51.7002 32.0847C51.7002 32.0847 52.669 33.013 54.3941 39.619L57.1542 50.7585L61.7637 71.7475Z" fill="#FACF35"/>
<path d="M44.9262 34.7796C44.5898 45.825 44.2531 56.8709 43.916 67.9183C43.877 69.2036 43.7366 70.4847 43.4959 71.7476H15.055C12.0995 58.2141 9.14365 44.6813 6.1875 31.1481C8.64839 28.2809 11.7338 26.0175 15.206 24.5325C18.6782 23.0474 22.4444 22.3803 26.2147 22.5825L25.9869 23.48C25.107 26.9957 24.2265 30.5118 23.3454 34.0281L44.9262 34.7796Z" fill="#FACF35"/>
<path d="M34.691 19.6666C34.5427 21.033 34.3948 22.3997 34.2476 23.7667C34.1903 24.3096 33.9768 24.825 33.6324 25.251C33.2879 25.6771 32.8271 25.9961 32.3049 26.1699C30.3858 26.8041 28.325 26.8883 26.3598 26.4128C25.373 26.1758 24.5073 25.5906 23.9244 24.7667C23.3416 23.9429 23.0817 22.9368 23.1933 21.9368L23.9338 15.3451L34.691 19.6666Z" fill="#FFA07D"/>
<path d="M42.0868 14.5399C41.123 15.1443 40.0504 15.554 38.9295 15.7459C38.7729 15.77 38.6498 15.7873 38.5724 15.8002C38.5835 15.8286 38.7273 15.8338 38.9123 15.8312C38.8933 15.9173 38.8744 16.0035 38.8529 16.0896C38.8161 16.243 38.7742 16.3946 38.7273 16.5444C38.5801 17.0239 38.3817 17.4861 38.1352 17.9227C35.4176 17.7169 33.3162 15.8717 33.2551 13.476C33.2129 11.7213 34.2817 10.1096 35.9167 9.13704C35.9985 9.13704 36.0622 9.13704 36.1052 9.13704C36.3117 9.13014 36.6336 9.11636 37.0268 9.08535C37.4485 9.05175 37.8168 9.00954 38.1455 8.96217C39.7074 8.73906 40.2779 8.41774 41.0894 8.55557C42.6143 8.814 43.2717 10.4016 43.3406 10.5765C43.8853 11.9685 43.4215 13.6793 42.0868 14.5399Z" fill="#FFA07D"/>
<path d="M40.8285 6.32378C37.5511 4.76508 34.8948 2.67521 34.6781 2.51325C34.5316 2.40614 34.6781 3.19594 34.6781 3.19594C34.5876 3.11382 34.5018 3.02657 34.4211 2.9347C33.7838 2.2076 33.6056 1.32289 33.5508 0.743819C34.0014 0.748173 34.8691 0.709859 35.3197 0.714213C35.5261 0.731628 35.7308 0.756879 35.9339 0.788227C38.161 1.13654 39.338 2.6369 39.768 3.16894C39.8006 3.20987 39.84 3.25602 39.8845 3.31785C39.8845 3.31785 40.0199 3.4981 40.1338 3.67748C40.2477 3.85686 40.6015 4.88612 40.8285 6.32378Z" fill="#E8EDFF"/>
<path fill-rule="evenodd" clip-rule="evenodd" d="M39.409 10.267L39.4377 10.2696C39.5951 10.2839 39.712 10.4335 39.6989 10.6038L39.6964 10.6348C39.6833 10.8051 39.545 10.9316 39.3876 10.9174L39.3589 10.9147C39.2015 10.9005 39.0845 10.7509 39.0977 10.5806L39.1001 10.5495C39.1133 10.3792 39.2516 10.2527 39.409 10.267ZM31.9764 10.3725L32.0051 10.3751C32.1625 10.3893 32.2794 10.539 32.2662 10.7094L32.2638 10.7403C32.2505 10.9107 32.1122 11.0371 31.9548 11.0229L31.9262 11.0202C31.7688 11.006 31.6519 10.8563 31.6651 10.6861L31.6674 10.655C31.6807 10.4847 31.819 10.3582 31.9764 10.3725Z" fill="black"/>
<path d="M33.7479 0.713867C32.3173 0.782022 31.0999 0.869158 30.1554 0.946803C28.7913 1.05896 29.4898 0.915744 26.6476 1.3126C25.6409 1.45322 24.8484 1.59212 24.6619 1.62835C24.1746 1.7261 23.6985 1.87293 23.2408 2.06661C21.9656 2.59115 17.4477 5.56149 17.2681 10.6395C17.2301 11.7066 17.1282 14.4354 19.1562 16.286C20.5169 17.5283 22.9188 17.9458 23.6345 17.9985C23.6742 17.7983 23.7398 17.348 23.7787 17.147C23.2926 17.1332 21.9121 17.0969 21.3008 16.8174C19.8072 16.135 18.6702 14.5597 18.6788 12.7738C18.6788 12.5504 18.7168 10.504 20.0559 9.64561C20.7198 9.21942 21.2741 9.03653 22.7918 8.86916C23.5985 8.77952 24.4141 8.81653 25.2092 8.97872L25.2714 8.9908L26.5017 5.50887C33.6187 5.04869 37.2319 4.25275 37.3412 3.12086C37.4033 2.43931 36.2056 1.63698 33.7479 0.713867Z" fill="#E8EDFF"/>
<path fill-rule="evenodd" clip-rule="evenodd" d="M42.0693 8.06098C42.1129 8.1083 42.1333 8.1727 42.1248 8.23666L41.6023 12.2001C41.5885 12.3053 41.5008 12.3849 41.3952 12.3882L37.744 12.5018C37.6556 12.5044 37.5744 12.4526 37.5394 12.3709L36.9087 10.8989C36.9073 10.9003 36.906 10.9017 36.9046 10.903C36.8827 11.1101 36.8722 11.3484 36.9197 11.6051V11.6052C37.0627 12.3803 37.3007 12.9608 37.4884 13.2635C37.5288 13.3288 37.5318 13.4107 37.4963 13.4789C37.4607 13.5469 37.3919 13.5909 37.3154 13.5945C36.6063 13.6276 35.8956 13.5951 35.1924 13.4974C35.0745 13.4809 34.9921 13.3716 35.0084 13.2531C35.0247 13.1345 35.1335 13.0518 35.2515 13.0681C35.8148 13.1464 36.3831 13.1812 36.9514 13.1723C36.7791 12.8041 36.6084 12.2946 36.4958 11.6842C36.4177 11.2619 36.4727 10.8532 36.5055 10.6087L36.5086 10.5861L35.0076 10.5951C34.9909 10.5952 34.9747 10.5934 34.9591 10.5898L34.4092 12.6414C34.3843 12.7344 34.3013 12.7997 34.2055 12.8017L27.9699 12.9317C27.8614 12.934 27.7681 12.8548 27.7521 12.7469L27.1793 8.87672L25.2806 9.28086C25.1642 9.30564 25.0498 9.23085 25.0251 9.11376C25.0005 8.99667 25.0749 8.88166 25.1914 8.85687L27.3171 8.40445C27.3642 8.3944 27.4111 8.40073 27.4518 8.41962L35.2801 8.3339C35.3475 8.33321 35.4115 8.36424 35.4528 8.41789C35.4941 8.47145 35.5081 8.54148 35.4906 8.60691L35.074 10.1613L36.5888 10.1523L35.9303 8.61549C35.9024 8.55049 35.9079 8.47587 35.945 8.41572C35.9821 8.35548 36.0461 8.31735 36.1164 8.31345L41.8993 7.99191C41.9633 7.98835 42.0257 8.01366 42.0693 8.06098ZM37.8774 12.064L37.2234 10.5378C37.2412 10.5195 37.2597 10.5007 37.2789 10.4817C37.5058 10.2561 37.8199 9.99155 38.181 9.81448C38.5408 9.63793 38.9326 9.55508 39.3299 9.6655C39.7266 9.77583 40.1675 10.0897 40.6043 10.786C40.6678 10.8873 40.8009 10.9176 40.9016 10.8537C41.0023 10.7899 41.0325 10.6561 40.969 10.5549C40.4943 9.79827 39.9754 9.39535 39.4448 9.24784C38.915 9.1005 38.4125 9.21871 37.9919 9.42499C37.6081 9.61323 37.2805 9.88018 37.0403 10.1105L36.4484 8.72894L41.6632 8.43903L41.1989 11.9608L37.8774 12.064ZM28.1507 12.4945L27.6114 8.85124L35.0002 8.77037L34.0349 12.3718L28.1507 12.4945ZM21.4313 10.4005C21.3367 10.3278 21.2014 10.3459 21.129 10.4409C21.0567 10.536 21.0747 10.672 21.1692 10.7447L23.9065 12.8496L21.0012 13.3808C20.8841 13.4022 20.8064 13.5149 20.8277 13.6327C20.849 13.7504 20.9612 13.8285 21.0784 13.8071L24.4631 13.1883C24.547 13.1729 24.6141 13.1092 24.6341 13.0258C24.6541 12.9425 24.6233 12.8551 24.5556 12.803L21.4313 10.4005ZM33.3868 14.2747C33.2884 14.2072 33.1543 14.2327 33.0872 14.3316C33.0201 14.4305 33.0455 14.5653 33.1439 14.6327C33.6112 14.9529 34.1426 15.166 34.7007 15.2572C35.2589 15.3484 35.8301 15.3154 36.3742 15.1605C36.4888 15.1279 36.5554 15.0082 36.5229 14.893C36.4904 14.7779 36.3713 14.711 36.2568 14.7435C35.7733 14.8812 35.2658 14.9105 34.7699 14.8294C34.274 14.7484 33.8019 14.559 33.3868 14.2747ZM27.9149 18.372C27.9792 18.2713 28.1126 18.242 28.2128 18.3066C28.6457 18.5856 29.1039 18.8228 29.5813 19.015L29.5814 19.0151C31.5754 19.8187 33.4384 19.6432 34.4995 19.4442C34.6165 19.4223 34.7291 19.4999 34.7509 19.6175C34.7727 19.7352 34.6956 19.8483 34.5785 19.8703C33.4768 20.0769 31.5213 20.2638 29.4209 19.4172C28.9183 19.2149 28.4358 18.9651 27.98 18.6713C27.8798 18.6068 27.8507 18.4728 27.9149 18.372ZM29.4419 11.1916L29.4412 11.1925L29.4411 11.1926V11.1927C29.3747 11.2919 29.2409 11.3184 29.142 11.2516C29.0432 11.185 29.0168 11.0504 29.0832 10.951L29.2623 11.0718C29.0832 10.951 29.0834 10.9508 29.0834 10.9508L29.0836 10.9505L29.0841 10.9498L29.0857 10.9473C29.0871 10.9453 29.089 10.9426 29.0913 10.939C29.0962 10.9321 29.1031 10.9222 29.112 10.9097C29.1299 10.8848 29.1558 10.8494 29.1894 10.806C29.2565 10.7193 29.3544 10.6 29.4791 10.4677C29.7269 10.2048 30.0885 9.882 30.5323 9.6655C30.9792 9.44761 31.5176 9.33398 32.1023 9.50862C32.6844 9.68248 33.2796 10.1321 33.8622 10.974C33.9301 11.0723 33.906 11.2073 33.8083 11.2756C33.7105 11.344 33.5762 11.3198 33.5082 11.2215C32.9611 10.431 32.4386 10.0611 31.9795 9.92403C31.5232 9.78779 31.0971 9.87177 30.7206 10.0554C30.3411 10.2405 30.0206 10.5234 29.7921 10.7658C29.6787 10.8861 29.5899 10.9943 29.5298 11.072C29.4998 11.1108 29.4771 11.1417 29.4622 11.1627C29.4546 11.1731 29.4491 11.181 29.4456 11.1861C29.4439 11.1886 29.4426 11.1905 29.4419 11.1916Z" fill="black"/>
<path fill-rule="evenodd" clip-rule="evenodd" d="M34.586 22.1788C34.5205 22.1502 34.4441 22.1801 34.4155 22.2457C34.3869 22.3112 34.4168 22.3875 34.4824 22.4162C36.2337 23.1804 37.9353 23.9198 39.6411 24.6609C40.9861 25.2453 42.3336 25.8308 43.7098 26.4303L34.4782 28.5751C34.4334 28.5855 34.3975 28.6188 34.3839 28.6626C34.3701 28.7064 34.3807 28.7542 34.4115 28.7882L36.9484 31.5864L32.3718 30.9956C32.1349 30.0612 31.8332 29.1505 31.5589 28.3996C31.3578 27.849 31.171 27.383 31.0345 27.0545C30.9661 26.8902 30.9104 26.7603 30.8717 26.6713C30.8522 26.6268 30.8371 26.5925 30.8268 26.5693L30.8198 26.5537L30.8151 26.5429L30.812 26.5361L30.8112 26.5344L30.811 26.5339L30.811 26.5338C30.811 26.5338 30.811 26.5337 30.6929 26.587L30.811 26.5338C30.7815 26.4687 30.7047 26.4396 30.6395 26.469C30.5743 26.4985 30.5454 26.5752 30.5748 26.6404L30.6601 26.6019C30.5748 26.6404 30.5748 26.6404 30.5748 26.6404L30.5749 26.6405L30.575 26.6408L30.5758 26.6424L30.5786 26.6488C30.5811 26.6545 30.585 26.6631 30.59 26.6744C30.6001 26.697 30.615 26.7308 30.6341 26.7746C30.6723 26.8624 30.7275 26.991 30.7952 27.1539C30.9306 27.4797 31.116 27.9421 31.3156 28.4884C31.7151 29.5822 32.1695 31.0072 32.3951 32.3425C32.5074 33.007 32.6274 34.6541 32.7438 36.7617C32.86 38.8653 32.9725 41.4181 33.0706 43.8875C33.1688 46.3566 33.2527 48.7416 33.3121 50.5094C33.3418 51.3934 33.3654 52.1229 33.3816 52.6315C33.3896 52.8857 33.3958 53.0848 33.4 53.2202C33.4021 53.288 33.4037 53.3398 33.4048 53.3747L33.406 53.4142L33.4063 53.4242L33.4063 53.4267L33.4064 53.4273C33.4064 53.4275 33.4064 53.4276 33.5359 53.4236L33.4064 53.4276C33.4086 53.4991 33.4683 53.5553 33.5398 53.5531C33.6113 53.5508 33.6675 53.4912 33.6653 53.4197L33.5359 53.4236C33.6653 53.4197 33.6653 53.4196 33.6653 53.4195V53.4189L33.6652 53.4164L33.665 53.4063L33.6638 53.3668C33.6627 53.3318 33.6611 53.28 33.6589 53.2122C33.6548 53.0767 33.6486 52.8776 33.6405 52.6233C33.6243 52.1145 33.6007 51.3848 33.571 50.5007C33.5116 48.7327 33.4277 46.347 33.3295 43.8772C33.2313 41.4074 33.1188 38.8529 33.0025 36.7473C32.8864 34.6456 32.7659 32.9815 32.6506 32.2993C32.5929 31.9577 32.5205 31.6108 32.4382 31.2653L37.2639 31.8882C37.3177 31.8952 37.3702 31.8678 37.3953 31.8198C37.4205 31.7717 37.4129 31.7131 37.3765 31.6728L34.7514 28.7775L44.1496 26.5941C44.204 26.5814 44.2441 26.5354 44.2492 26.4798C44.2543 26.4242 44.2232 26.3715 44.172 26.3493C42.6699 25.6945 41.2054 25.0582 39.744 24.4232L39.7412 24.422L39.7389 24.421L39.737 24.4202L39.7355 24.4195L39.7314 24.4177C38.0303 23.6787 36.3334 22.9413 34.586 22.1788ZM22.7743 22.7686C22.8333 22.7282 22.8484 22.6476 22.8079 22.5886C22.7675 22.5296 22.6869 22.5145 22.6279 22.5549L13.6032 28.7351C13.557 28.7668 13.5364 28.8245 13.5521 28.8783C13.5679 28.9321 13.6164 28.9697 13.6724 28.9714L25.3843 29.3344L23.875 33.4155C23.857 33.464 23.8696 33.5185 23.907 33.5542C23.9444 33.5898 23.9994 33.5998 24.047 33.5797L28.9684 31.4952C29.0862 32.3913 29.1907 33.4216 29.2656 34.591C29.4383 37.2866 29.6217 41.9249 29.762 45.8908C29.8321 47.8734 29.8916 49.6874 29.9334 51.0059C29.9543 51.6651 29.9708 52.2003 29.9822 52.5709C29.9878 52.756 29.9921 52.9001 29.995 52.9978L29.9984 53.109L29.9992 53.1373L29.9994 53.1445L29.9995 53.1463V53.1468C29.9995 53.1468 29.9995 53.1469 30.129 53.1431L29.9995 53.1469C30.0016 53.2184 30.0613 53.2747 30.1328 53.2725C30.2043 53.2705 30.2606 53.2108 30.2584 53.1392L30.129 53.1431C30.2584 53.1392 30.2584 53.1393 30.2584 53.1392V53.1387V53.1369L30.2582 53.1297L30.2573 53.1013L30.254 52.9901C30.2511 52.8923 30.2468 52.7483 30.2411 52.5629C30.2297 52.1924 30.2132 51.657 30.1924 50.9976C30.1505 49.6791 30.0911 47.8646 30.0209 45.8816C29.8806 41.9163 29.6971 37.2744 29.5242 34.5745C29.4459 33.3521 29.3353 32.2802 29.2109 31.3532C29.2243 31.3219 29.2254 31.2855 29.211 31.2517C29.2063 31.2406 29.2002 31.2304 29.193 31.2214C29.0466 30.158 28.8828 29.2904 28.7307 28.6098C28.5863 27.9633 28.4525 27.4854 28.3545 27.1684C28.3055 27.0099 28.2655 26.8915 28.2375 26.8124C28.2235 26.7729 28.2125 26.7432 28.205 26.7231C28.2012 26.7131 28.1984 26.7055 28.1963 26.7003L28.194 26.6943L28.1934 26.6927L28.1932 26.6922L28.1931 26.692C28.1931 26.6919 28.193 26.6919 28.0727 26.7399L28.193 26.6919C28.1665 26.6255 28.0912 26.5932 28.0247 26.6197C27.9583 26.6461 27.9259 26.7214 27.9524 26.7878L27.9525 26.788L27.9529 26.789L27.9548 26.7939L27.9581 26.8027C27.9594 26.806 27.9609 26.8098 27.9625 26.8142C27.9694 26.8327 27.9798 26.8609 27.9933 26.8988C28.02 26.9746 28.059 27.0896 28.107 27.2448C28.203 27.5553 28.3349 28.0264 28.4778 28.6662C28.627 29.3339 28.7881 30.1852 28.9325 31.2291L24.2219 33.2243L25.6898 29.2555C25.7042 29.2164 25.699 29.1728 25.6757 29.1383C25.6524 29.1036 25.614 29.0824 25.5722 29.0811L14.0767 28.7248L22.7743 22.7686ZM30.1281 28.7098C29.8882 28.7098 29.6937 28.9042 29.6937 29.144C29.6937 29.3839 29.8882 29.5783 30.1281 29.5783C30.368 29.5783 30.5625 29.3839 30.5625 29.144C30.5625 28.9042 30.368 28.7098 30.1281 28.7098ZM29.4346 29.144C29.4346 28.7612 29.7451 28.4508 30.1281 28.4508C30.511 28.4508 30.8216 28.7612 30.8216 29.144C30.8216 29.5269 30.511 29.8373 30.1281 29.8373C29.7451 29.8373 29.4346 29.5269 29.4346 29.144ZM30.4583 31.9467C30.4912 31.8674 30.5469 31.7996 30.6183 31.7518C30.6897 31.7042 30.7737 31.6787 30.8596 31.6787C30.9748 31.6787 31.0853 31.7244 31.1668 31.8059C31.2482 31.8873 31.294 31.9978 31.294 32.1129C31.294 32.1988 31.2685 32.2827 31.2208 32.3541C31.1731 32.4255 31.1052 32.4812 31.0258 32.5141C30.9464 32.547 30.8591 32.5555 30.7748 32.5388C30.6906 32.522 30.6132 32.4807 30.5525 32.4199C30.4917 32.3592 30.4503 32.2819 30.4336 32.1976C30.4168 32.1134 30.4254 32.0261 30.4583 31.9467ZM30.8596 31.4197C30.7224 31.4197 30.5884 31.4604 30.4743 31.5365C30.3603 31.6127 30.2714 31.7209 30.219 31.8476C30.1664 31.9743 30.1527 32.1137 30.1795 32.2481C30.2062 32.3826 30.2722 32.5061 30.3692 32.6031C30.4662 32.7 30.5898 32.7661 30.7243 32.7928C30.8588 32.8195 30.9983 32.8058 31.125 32.7533C31.2517 32.7009 31.36 32.6121 31.4362 32.498C31.5124 32.384 31.553 32.25 31.553 32.1129C31.553 31.929 31.48 31.7528 31.3499 31.6228C31.2199 31.4927 31.0435 31.4197 30.8596 31.4197Z" fill="white"/>
</svg>
