<svg width="440" height="301" viewBox="0 0 440 301" fill="none" xmlns="http://www.w3.org/2000/svg">
<path d="M301 151H226C184.562 151 151 117.214 151 75.5V0L199.469 48.7919L250.234 99.8959L301 151Z" fill="#E6FFF7"/>
<path d="M151 0H226C267.438 0 301 33.7863 301 75.5V151L252.531 102.208L201.766 51.1041L151 0Z" fill="#1EBE8E"/>
<rect x="301" width="151" height="151" fill="#E6FFF7"/>
<path d="M0 301C41.7137 301 75.5 267.438 75.5 226C75.5 184.562 41.7137 151 0 151V301Z" fill="#FBD112"/>
<path d="M75.5 301C117.214 301 151 267.438 151 226C151 184.562 117.214 151 75.5 151V301Z" fill="#1EBE8E"/>
<path d="M301 226V301H226C267.438 301 301 267.438 301 226ZM226 151C267.438 151 301 184.562 301 226V151H226ZM263.5 226C263.5 205.281 246.719 188.5 226 188.5C205.281 188.5 188.5 205.281 188.5 226C188.5 246.719 205.281 263.5 226 263.5C246.719 263.5 263.5 246.719 263.5 226ZM151 226V301H226C184.562 301 151 267.438 151 226ZM151 151V226C151 184.562 184.562 151 226 151H151Z" fill="#A1E6D1"/>
<path d="M226 263.5C246.719 263.5 263.5 246.719 263.5 226C263.5 205.281 246.719 188.5 226 188.5C205.281 188.5 188.5 205.281 188.5 226C188.5 246.719 205.281 263.5 226 263.5ZM226 151C267.438 151 301 184.562 301 226C301 267.438 267.438 301 226 301C184.562 301 151 267.438 151 226C151 184.562 184.562 151 226 151Z" fill="#465F9D"/>
<path d="M452 301H301V151L452 301Z" fill="#1EBE8E"/>
<path d="M301 151H452V301L301 151Z" fill="#E6FFF7"/>
</svg>
