<svg width="627" height="368" viewBox="0 0 627 368" fill="none" xmlns="http://www.w3.org/2000/svg">
<path d="M443 184H351C300.17 184 259 142.83 259 92V0L318.455 59.455L380.728 121.727L443 184Z" fill="#465F9D"/>
<path d="M259 0H351C401.83 0 443 41.17 443 92V184L383.545 124.545L321.273 62.2725L259 0Z" fill="#1EBE8E"/>
<rect x="443" width="184" height="184" fill="#465F9D"/>
<path d="M75 368C125.83 368 167 326.83 167 276C167 225.17 125.83 184 75 184V368Z" fill="#FBD112"/>
<path d="M167 368C217.83 368 259 326.83 259 276C259 225.17 217.83 184 167 184V368Z" fill="#1EBE8E"/>
<path d="M443 276V368H351C401.83 368 443 326.83 443 276ZM351 184C401.83 184 443 225.17 443 276V184H351ZM397 276C397 250.585 376.415 230 351 230C325.585 230 305 250.585 305 276C305 301.415 325.585 322 351 322C376.415 322 397 301.415 397 276ZM259 276V368H351C300.17 368 259 326.83 259 276ZM259 184V276C259 225.17 300.17 184 351 184H259Z" fill="#A1E6D1"/>
<path d="M351 322C376.415 322 397 301.415 397 276C397 250.585 376.415 230 351 230C325.585 230 305 250.585 305 276C305 301.415 325.585 322 351 322ZM351 184C401.83 184 443 225.17 443 276C443 326.83 401.83 368 351 368C300.17 368 259 326.83 259 276C259 225.17 300.17 184 351 184Z" fill="#465F9D"/>
<path d="M627 368H443V184L627 368Z" fill="#1EBE8E"/>
<path d="M443 184H627V368L443 184Z" fill="#465F9D"/>
</svg>
