<svg width="360" height="130" viewBox="0 0 360 130" fill="none" xmlns="http://www.w3.org/2000/svg">
<path d="M138.399 46.525C45.7113 46.525 22.0306 88.75 -1.6653e-09 92.0833L-2.35102e-09 130L360 130L360 -6.41039e-09C360 -6.41039e-09 329.614 3.73391 308.58 22.0053C246.889 75.5938 231.087 46.525 138.399 46.525Z" fill="#6672F8" fill-opacity="0.5"/>
<path d="M138.399 46.525C45.7113 46.525 22.0306 88.75 -1.6653e-09 92.0833L-2.35102e-09 130L360 130L360 -6.41039e-09C360 -6.41039e-09 329.614 3.73391 308.58 22.0053C246.889 75.5938 231.087 46.525 138.399 46.525Z" fill="#4142B0"/>
<path d="M7.62437 129.963C5.162 130.012 2.62269 130.013 -5.96125e-10 129.963L7.62437 129.963C69.9494 128.726 82.9862 97 151.248 97L258.662 97L360 97L360 129.963L120.651 129.963L7.62437 129.963Z" fill="#1D236B" fill-opacity="0.57"/>
<path fill-rule="evenodd" clip-rule="evenodd" d="M0.0860394 40.0859H46.1325C46.9086 37.9561 47.3337 35.6445 47.3337 33.2289C47.3337 22.6091 39.1176 14 28.9826 14C21.8912 14 15.7393 18.2147 12.6839 24.3839C10.4305 22.6904 7.65619 21.6914 4.65588 21.6914C3.05337 21.6914 1.51533 21.9764 0.0866964 22.5C0.0866964 22.5 0.0859375 29.6594 0.0859375 35.7926C0.0859375 37.2026 0.0859776 38.6669 0.0860394 40.0859Z" fill="#E8EDFF" fill-opacity="0.5"/>
<path d="M275.544 60.4393C275.544 68.3215 269.154 74.7113 261.272 74.7113C253.39 74.7113 247 68.3215 247 60.4393C247 52.5571 253.39 46.1674 261.272 46.1674C269.154 46.1674 275.544 52.5571 275.544 60.4393Z" fill="#5A66F6"/>
<path d="M275.544 43.0225C275.544 50.9046 269.154 57.2944 261.272 57.2944C253.39 57.2944 247 50.9046 247 43.0225C247 35.1403 253.39 28.7505 261.272 28.7505C269.154 28.7505 275.544 35.1403 275.544 43.0225Z" fill="#5A66F6"/>
<path d="M275.544 26.0903C275.544 33.9725 269.154 40.3623 261.272 40.3623C253.39 40.3623 247 33.9725 247 26.0903C247 18.2081 253.39 11.8184 261.272 11.8184C269.154 11.8184 275.544 18.2081 275.544 26.0903Z" fill="#5A66F6"/>
<path fill-rule="evenodd" clip-rule="evenodd" d="M260.959 97.451C260.652 97.451 260.402 97.2017 260.402 96.8942L260.402 20.117C260.402 19.8094 260.652 19.5601 260.959 19.5601C261.267 19.5601 261.516 19.8094 261.516 20.117L261.516 96.8942C261.516 97.2017 261.267 97.451 260.959 97.451Z" fill="white"/>
<path fill-rule="evenodd" clip-rule="evenodd" d="M270.702 23.4303C270.92 23.6478 270.92 24.0004 270.702 24.2179L261.42 33.5003L252.137 24.2179C251.92 24.0004 251.92 23.6478 252.137 23.4303C252.355 23.2128 252.708 23.2128 252.925 23.4303L261.42 31.9252L269.915 23.4303C270.132 23.2128 270.485 23.2128 270.702 23.4303Z" fill="white"/>
<path fill-rule="evenodd" clip-rule="evenodd" d="M270.224 38.6991C270.441 38.9166 270.441 39.2692 270.224 39.4866L260.941 48.7691L251.659 39.4866C251.441 39.2692 251.441 38.9166 251.659 38.6991C251.876 38.4816 252.229 38.4816 252.447 38.6991L260.941 47.194L269.436 38.6991C269.654 38.4816 270.006 38.4816 270.224 38.6991Z" fill="white"/>
<path fill-rule="evenodd" clip-rule="evenodd" d="M270.702 57.0811C270.92 57.2985 270.92 57.6511 270.702 57.8686L261.42 67.1511L252.137 57.8686C251.92 57.6511 251.92 57.2985 252.137 57.0811C252.355 56.8636 252.708 56.8636 252.925 57.0811L261.42 65.576L269.915 57.0811C270.132 56.8636 270.485 56.8636 270.702 57.0811Z" fill="white"/>
<path d="M105.23 66.3918C103.931 66.3918 102.879 65.3389 102.879 64.0401C102.879 62.7412 103.931 61.6883 105.23 61.6883C106.529 61.6883 107.582 62.7412 107.582 64.0401C107.582 65.3389 106.529 66.3918 105.23 66.3918Z" fill="#6672F8"/>
<path d="M112.829 86.1523C112.403 83.4978 112.212 80.9315 112.902 79.1574C113.49 77.6317 114.769 76.7778 116.312 76.1957L129.913 71.7951C131.677 71.2071 133.324 70.2223 133.44 68.2763C133.587 65.7776 131.383 64.1608 129.178 64.7487C129.178 64.7487 116.243 69.3257 105.22 69.3257C94.1959 69.3257 81.4084 64.7693 81.4084 64.7693C78.7627 64.0344 76.9989 66.0921 76.9989 68.266C76.9989 70.3546 78.6157 71.0895 80.5265 71.7848L93.461 76.475C94.6368 76.9159 96.5476 77.7978 97.2825 79.1471C98.1644 80.7272 98.0174 83.4875 97.5912 86.142L96.724 90.4972L91.2254 114.588C90.8138 116.52 92.1513 118.327 94.0768 118.665C96.0023 119.003 97.5765 117.689 98.1468 115.819L103.667 98.7796C103.933 97.9624 104.168 97.1359 104.373 96.3L105.22 92.8489L105.999 96.0311C106.246 97.0452 106.53 98.0486 106.851 99.0413L112.275 115.805C112.863 117.693 114.406 119.002 116.331 118.665C118.257 118.328 119.624 116.373 119.192 114.588L113.696 90.5074L112.829 86.1523Z" fill="#1EBE8E"/>
<path fill-rule="evenodd" clip-rule="evenodd" d="M135.417 48.8869C136.481 47.1515 136.384 44.9764 135.923 42.9939C135.362 40.5804 135.68 38.0348 137.019 35.8495C139.893 31.1596 146.38 29.9048 151.508 33.0469C156.636 36.1889 158.463 42.538 155.59 47.2279C154.251 49.4128 152.128 50.8522 149.724 51.4487C147.748 51.9388 145.766 52.8403 144.703 54.5757C143.132 57.1398 139.764 57.9706 137.2 56.3996C134.636 54.8285 133.846 51.451 135.417 48.8869Z" fill="#FACF35"/>
<path fill-rule="evenodd" clip-rule="evenodd" d="M136.543 42.8497C136.017 40.5849 136.318 38.2129 137.563 36.1823C140.225 31.837 146.3 30.6031 151.175 33.59C156.05 36.5769 157.709 42.5498 155.047 46.8951C153.803 48.9253 151.827 50.2707 149.57 50.8305C147.544 51.3333 145.356 52.2905 144.16 54.243C142.77 56.511 139.793 57.2413 137.533 55.8564C135.272 54.4715 134.571 51.4877 135.961 49.2197C137.157 47.2672 137.016 44.8837 136.543 42.8497ZM135.923 42.9939C136.384 44.9764 136.481 47.1515 135.417 48.8869C133.846 51.451 134.636 54.8285 137.2 56.3996C139.764 57.9706 143.132 57.1398 144.703 54.5757C145.766 52.8403 147.748 51.9388 149.724 51.4487C152.128 50.8522 154.251 49.4128 155.59 47.2279C158.463 42.538 156.636 36.1889 151.508 33.0469C146.38 29.9048 139.893 31.1596 137.019 35.8495C135.68 38.0348 135.362 40.5804 135.923 42.9939Z" fill="#FACF35"/>
<path fill-rule="evenodd" clip-rule="evenodd" d="M144.303 42.5572C144.086 42.927 143.902 43.4498 143.763 44.1498C143.677 44.5842 143.628 44.9873 143.613 45.3594C143.61 45.3593 143.606 45.3592 143.603 45.3591C143.235 45.3473 142.914 45.3153 142.636 45.268C143.045 44.253 143.318 43.3898 143.417 42.7439C143.472 42.3838 143.48 42.0522 143.398 41.791C143.356 41.6555 143.285 41.5252 143.171 41.4243C143.054 41.3211 142.912 41.2668 142.761 41.2537C142.261 41.2101 141.721 41.5158 141.306 41.9024C140.878 42.3006 140.505 42.8539 140.361 43.4378C140.214 44.0345 140.306 44.6833 140.848 45.1819C141.079 45.3945 141.382 45.5702 141.764 45.7037C140.761 48.0243 139.115 51.09 137.098 54.3199L137.546 54.7534C138.611 54.0416 139.874 52.916 141.151 51.6998C141.878 51.008 142.622 50.2742 143.341 49.565C143.8 49.1131 144.248 48.6712 144.675 48.2565C144.984 48.4934 145.34 48.6363 145.714 48.6879C147.11 48.881 148.649 47.7994 148.87 45.9404C148.899 45.6989 148.899 45.4811 148.853 45.2993C148.805 45.1109 148.7 44.9329 148.503 44.8394C148.319 44.7519 148.12 44.7704 147.951 44.8169C147.779 44.8645 147.596 44.9534 147.408 45.0653C146.716 45.4776 145.757 46.3349 144.691 47.3555C144.64 47.2798 144.591 47.1977 144.547 47.1088C144.401 46.814 144.296 46.4393 144.259 45.9758C145.245 45.8793 145.901 45.4861 146.274 44.9308C146.717 44.2726 146.708 43.4622 146.485 42.8554C146.373 42.5505 146.198 42.2729 145.971 42.0827C145.741 41.8895 145.437 41.7746 145.107 41.8587C144.788 41.9401 144.519 42.1899 144.303 42.5572ZM144.251 45.3366C145.059 45.2463 145.51 44.9269 145.746 44.5755C146.049 44.1238 146.057 43.5365 145.887 43.0754C145.803 42.8464 145.683 42.6725 145.562 42.5709C145.444 42.4724 145.346 42.4552 145.265 42.4759C145.173 42.4992 145.022 42.5912 144.853 42.8797C144.685 43.1656 144.519 43.6127 144.388 44.2739C144.311 44.662 144.267 45.0156 144.251 45.3366ZM143.622 45.9969C143.662 46.5429 143.785 47.0075 143.977 47.3924C144.051 47.542 144.135 47.6787 144.228 47.8024C143.792 48.2259 143.342 48.6698 142.884 49.1216C142.172 49.8236 141.44 50.5449 140.712 51.2385C139.954 51.9601 139.213 52.638 138.523 53.2118C140.173 50.4617 141.52 47.8895 142.386 45.8696C142.737 45.9385 143.134 45.9813 143.583 45.9958C143.596 45.9962 143.609 45.9966 143.622 45.9969ZM145.141 47.8071C146.208 46.7854 147.114 45.9823 147.734 45.6125C147.898 45.5147 148.026 45.4571 148.121 45.4308C148.176 45.4158 148.207 45.4143 148.222 45.415C148.225 45.4227 148.23 45.4353 148.235 45.4549C148.254 45.5285 148.262 45.658 148.237 45.8652C148.055 47.4015 146.814 48.1969 145.801 48.0569C145.569 48.0249 145.344 47.9439 145.141 47.8071ZM148.215 45.4043C148.215 45.4044 148.216 45.4054 148.218 45.4069C148.216 45.4049 148.216 45.4041 148.215 45.4043ZM142.011 45.1151C141.68 45.0036 141.443 44.8634 141.28 44.7131C140.946 44.4063 140.875 44.0151 140.979 43.5901C141.087 43.1523 141.381 42.7024 141.74 42.3687C142.111 42.0233 142.477 41.8683 142.706 41.8883C142.737 41.891 142.746 41.8987 142.749 41.9015L142.749 41.9016C142.755 41.9067 142.773 41.926 142.791 41.9814C142.828 42.1019 142.838 42.3166 142.787 42.6472C142.697 43.2395 142.432 44.0795 142.011 45.1151Z" fill="white"/>
<path fill-rule="evenodd" clip-rule="evenodd" d="M127.522 66.0428C125.362 64.2787 122.671 61.853 120.672 59.5384C119.517 58.2 118.611 56.9201 118.164 55.8406C117.712 54.7502 117.771 53.9907 118.31 53.519C118.589 53.2749 118.88 53.201 119.198 53.2526C119.534 53.3069 119.923 53.5053 120.357 53.8574C121.226 54.5615 122.18 55.7971 123.134 57.3148C124.792 59.9528 126.401 63.3591 127.522 66.0428ZM119.3 52.6238C118.793 52.5416 118.311 52.6716 117.89 53.0396C117.031 53.792 117.093 54.9203 117.575 56.0844C118.062 57.2596 119.021 58.6013 120.19 59.9547C122.534 62.6681 125.795 65.5148 128.083 67.3076L129.01 68.034L128.575 66.9394C127.458 64.1243 125.604 60.0478 123.673 56.9758C122.71 55.4446 121.712 54.1351 120.758 53.3625C120.281 52.9761 119.791 52.7032 119.3 52.6238Z" fill="white"/>
<path fill-rule="evenodd" clip-rule="evenodd" d="M128.259 66.702C128.398 66.5953 128.425 66.3954 128.318 66.2556L121.33 57.108C121.223 56.9682 121.023 56.9415 120.883 57.0482C120.744 57.155 120.717 57.3549 120.824 57.4947L127.812 66.6423C127.919 66.7821 128.119 66.8088 128.259 66.702Z" fill="white"/>
<path fill-rule="evenodd" clip-rule="evenodd" d="M119.475 104.76C119.475 80.7217 129.242 65.7099 137.602 54.7229L137.095 54.3372C128.699 65.3715 118.838 80.5194 118.838 104.76L119.475 104.76Z" fill="white"/>
<path d="M284 34.9642C284 19.52 296.52 7 311.964 7C327.408 7 339.928 19.52 339.928 34.9643V69.1386C339.928 84.5829 327.408 97.1029 311.964 97.1029C296.52 97.1029 284 84.5828 284 69.1386V34.9642Z" fill="#1EBE8E"/>
<path fill-rule="evenodd" clip-rule="evenodd" d="M312.274 117.941C312.005 117.941 311.787 117.723 311.787 117.455L311.787 20.9065C311.787 20.6377 312.005 20.4199 312.274 20.4199C312.542 20.4199 312.76 20.6377 312.76 20.9065L312.76 117.455C312.76 117.723 312.542 117.941 312.274 117.941Z" fill="black"/>
<path fill-rule="evenodd" clip-rule="evenodd" d="M324.777 25.0888C324.961 25.284 324.961 25.6006 324.777 25.7959L312.494 38.7864L300.211 25.7959C300.027 25.6006 300.027 25.284 300.211 25.0888C300.396 24.8935 300.695 24.8935 300.88 25.0888L312.494 37.3722L324.108 25.0888C324.293 24.8935 324.592 24.8935 324.777 25.0888Z" fill="black"/>
<path fill-rule="evenodd" clip-rule="evenodd" d="M324.777 46.1079C324.961 46.3032 324.961 46.6197 324.777 46.815L312.494 59.8055L300.211 46.815C300.027 46.6197 300.027 46.3032 300.211 46.1079C300.396 45.9126 300.695 45.9126 300.88 46.1079L312.494 58.3913L324.108 46.1079C324.293 45.9126 324.592 45.9126 324.777 46.1079Z" fill="black"/>
<path fill-rule="evenodd" clip-rule="evenodd" d="M324.777 67.43C324.961 67.6252 324.961 67.9418 324.777 68.1371L312.494 81.1276L300.211 68.1371C300.027 67.9418 300.027 67.6252 300.211 67.43C300.396 67.2347 300.695 67.2347 300.88 67.43L312.494 79.7133L324.108 67.43C324.293 67.2347 324.592 67.2347 324.777 67.43Z" fill="black"/>
</svg>
