<svg width="57" height="56" viewBox="0 0 57 56" fill="none" xmlns="http://www.w3.org/2000/svg">
<g clip-path="url(#clip0_2694_96556)">
<path d="M16.9622 27.4177C17.2508 25.9668 18.1391 24.7055 19.4077 23.9448L25.3096 20.406C26.969 19.411 29.0416 19.411 30.701 20.406L36.0488 23.6126C37.6284 24.5598 38.5951 26.2665 38.5951 28.1084V48.9624C38.5951 51.8575 36.2482 54.2044 33.3531 54.2044H18.0205C14.7147 54.2044 12.2342 51.1818 12.8792 47.9396L16.9622 27.4177Z" fill="#1EBE8E" stroke="#1EBE8E" stroke-width="1.96575"/>
<path d="M33.0273 42.9896C33.0273 39.7088 35.4537 36.9337 38.7051 36.4957L48.6398 35.1574C52.5707 34.6279 56.0671 37.6848 56.0671 41.6513V48.0888C56.0671 51.7076 53.1334 54.6413 49.5146 54.6413H39.5799C35.961 54.6413 33.0273 51.7076 33.0273 48.0888V42.9896Z" fill="#FACF35"/>
<line x1="0.655251" y1="-0.655251" x2="12.0072" y2="-0.655251" transform="matrix(-1 0 0 1 51.1172 42.708)" stroke="white" stroke-width="1.3105" stroke-linecap="round"/>
<line x1="0.655251" y1="-0.655251" x2="13.8538" y2="-0.655251" transform="matrix(-1 0 0 1 50.3945 48.2256)" stroke="white" stroke-width="1.3105" stroke-linecap="round"/>
<line x1="0.655251" y1="-0.655251" x2="12.0072" y2="-0.655251" transform="matrix(-1 0 0 1 50.0625 45.5)" stroke="white" stroke-width="1.3105" stroke-linecap="round"/>
<path d="M19.8438 16.1149C19.8438 13.4149 18.1877 10.9914 15.6723 10.0103L9.00141 7.40832C4.70506 5.73256 0.0678329 8.90131 0.0678329 13.5129V48.2804C0.0678329 51.8993 3.00149 54.8329 6.62035 54.8329H13.2912C16.9101 54.8329 19.8438 51.8993 19.8438 48.2804V16.1149Z" fill="#2A3070"/>
<rect x="6.51172" y="15.6251" width="1.54034" height="3.10567" rx="0.770168" fill="white"/>
<rect x="6.51172" y="25.3799" width="1.54034" height="3.10567" rx="0.770168" fill="white"/>
<rect x="6.51172" y="34.6967" width="1.54034" height="3.10567" rx="0.770168" fill="white"/>
<rect x="11.6484" y="15.6256" width="1.54034" height="3.10567" rx="0.770168" fill="white"/>
<rect x="11.6484" y="25.3799" width="1.54034" height="3.10567" rx="0.770168" fill="white"/>
<rect x="11.6484" y="34.6967" width="1.54034" height="3.10567" rx="0.770168" fill="white"/>
<rect x="11.6484" y="43.5759" width="1.54034" height="3.10567" rx="0.770168" fill="white"/>
<rect x="24.3594" y="28.8795" width="1.54034" height="3.10567" rx="0.770168" fill="white"/>
<rect x="24.3594" y="38.0312" width="1.54033" height="3.10567" rx="0.770167" fill="white"/>
<rect x="24.3594" y="47.2129" width="1.54033" height="3.10567" rx="0.770167" fill="white"/>
<rect x="29.4922" y="28.8796" width="1.54033" height="3.10567" rx="0.770167" fill="white"/>
<rect x="29.4922" y="38.0312" width="1.54033" height="3.10567" rx="0.770167" fill="white"/>
<rect x="29.4922" y="47.2129" width="1.54033" height="3.10567" rx="0.770167" fill="white"/>
</g>
<defs>
<clipPath id="clip0_2694_96556">
<rect width="56" height="56" fill="white" transform="translate(0.0664062)"/>
</clipPath>
</defs>
</svg>
