<svg width="366" height="516" viewBox="0 0 366 516" fill="none" xmlns="http://www.w3.org/2000/svg">
<path d="M366 172H280C232.485 172 194 133.515 194 86V0L249.577 55.5775L307.789 113.789L366 172Z" fill="#465F9D"/>
<path d="M194 0H280C327.515 0 366 38.485 366 86V172L310.423 116.423L252.211 58.2113L194 0Z" fill="#1EBE8E"/>
<rect x="22" y="172" width="172" height="172" fill="#465F9D"/>
<path d="M366 258V344H280C327.515 344 366 305.515 366 258ZM280 172C327.515 172 366 210.485 366 258V172H280ZM323 258C323 234.242 303.758 215 280 215C256.242 215 237 234.242 237 258C237 281.758 256.242 301 280 301C303.758 301 323 281.758 323 258ZM194 258V344H280C232.485 344 194 305.515 194 258ZM194 172V258C194 210.485 232.485 172 280 172H194Z" fill="#A1E6D1"/>
<path d="M280 301C303.758 301 323 281.758 323 258C323 234.242 303.758 215 280 215C256.242 215 237 234.242 237 258C237 281.758 256.242 301 280 301ZM280 172C327.515 172 366 210.485 366 258C366 305.515 327.515 344 280 344C232.485 344 194 305.515 194 258C194 210.485 232.485 172 280 172Z" fill="#465F9D"/>
<path d="M22 516C69.515 516 108 477.515 108 430C108 382.485 69.515 344 22 344V516Z" fill="#FBD112"/>
<path d="M108 516C155.515 516 194 477.515 194 430C194 382.485 155.515 344 108 344V516Z" fill="#1EBE8E"/>
<path d="M366 516H194V344L366 516Z" fill="#1EBE8E"/>
<path d="M194 344H366V516L194 344Z" fill="#465F9D"/>
</svg>
